<?xml version="1.0" encoding="UTF-8" standalone="no"?>
<!DOCTYPE svg PUBLIC "-//W3C//DTD SVG 1.1//EN"
 "http://www.w3.org/Graphics/SVG/1.1/DTD/svg11.dtd">
<!-- Generated by graphviz version 8.1.0 (20230707.0739)
 -->
<!-- Title: G Pages: 1 -->
<svg width="1542pt" height="620pt"
 viewBox="0.00 0.00 1542.00 620.00" xmlns="http://www.w3.org/2000/svg" xmlns:xlink="http://www.w3.org/1999/xlink">
<g id="graph0" class="graph" transform="scale(1 1) rotate(0) translate(4 616)">
<title>G</title>
<polygon fill="white" stroke="none" points="-4,4 -4,-616 1538,-616 1538,4 -4,4"/>
<!-- assets -->
<g id="node1" class="node">
<title>assets</title>
<ellipse fill="none" stroke="black" cx="38" cy="-594" rx="32.41" ry="18"/>
<text text-anchor="middle" x="38" y="-588.95" font-family="Times,serif" font-size="14.00">assets</text>
</g>
<!-- string -->
<g id="node2" class="node">
<title>string</title>
<ellipse fill="none" stroke="black" cx="226" cy="-162" rx="31.9" ry="18"/>
<text text-anchor="middle" x="226" y="-156.95" font-family="Times,serif" font-size="14.00">string</text>
</g>
<!-- assets&#45;&gt;string -->
<g id="edge1" class="edge">
<title>assets&#45;&gt;string</title>
<path fill="none" stroke="black" d="M39.04,-575.71C43.27,-518.59 63.48,-332.95 152,-216 163.03,-201.43 179.2,-189.2 193.61,-180.18"/>
<polygon fill="black" stroke="black" points="194.97,-182.85 201.76,-174.72 191.38,-176.84 194.97,-182.85"/>
</g>
<!-- signer -->
<g id="node3" class="node">
<title>signer</title>
<ellipse fill="none" stroke="black" cx="287" cy="-90" rx="33.44" ry="18"/>
<text text-anchor="middle" x="287" y="-84.95" font-family="Times,serif" font-size="14.00">signer</text>
</g>
<!-- assets&#45;&gt;signer -->
<g id="edge2" class="edge">
<title>assets&#45;&gt;signer</title>
<path fill="none" stroke="black" d="M30.49,-576.34C19.42,-550.2 0,-497.7 0,-451 0,-451 0,-451 0,-233 0,-126.01 162.19,-99.63 242.72,-93.13"/>
<polygon fill="black" stroke="black" points="242.8,-96.56 252.52,-92.34 242.29,-89.58 242.8,-96.56"/>
</g>
<!-- coin -->
<g id="node4" class="node">
<title>coin</title>
<ellipse fill="none" stroke="black" cx="572" cy="-522" rx="27" ry="18"/>
<text text-anchor="middle" x="572" y="-516.95" font-family="Times,serif" font-size="14.00">coin</text>
</g>
<!-- assets&#45;&gt;coin -->
<g id="edge3" class="edge">
<title>assets&#45;&gt;coin</title>
<path fill="none" stroke="black" d="M69.41,-588.88C162.19,-576.72 434.77,-540.99 534.71,-527.89"/>
<polygon fill="black" stroke="black" points="535.02,-531.25 544.48,-526.48 534.11,-524.31 535.02,-531.25"/>
</g>
<!-- vector -->
<g id="node5" class="node">
<title>vector</title>
<ellipse fill="none" stroke="black" cx="373" cy="-18" rx="33.95" ry="18"/>
<text text-anchor="middle" x="373" y="-12.95" font-family="Times,serif" font-size="14.00">vector</text>
</g>
<!-- string&#45;&gt;vector -->
<g id="edge4" class="edge">
<title>string&#45;&gt;vector</title>
<path fill="none" stroke="black" d="M225.17,-143.56C225.18,-123.97 228.12,-92.28 245,-72 266.22,-46.51 301.71,-33.11 329.95,-26.16"/>
<polygon fill="black" stroke="black" points="330.39,-29.42 339.37,-23.8 328.85,-22.59 330.39,-29.42"/>
</g>
<!-- option -->
<g id="node6" class="node">
<title>option</title>
<ellipse fill="none" stroke="black" cx="373" cy="-90" rx="34.46" ry="18"/>
<text text-anchor="middle" x="373" y="-84.95" font-family="Times,serif" font-size="14.00">option</text>
</g>
<!-- string&#45;&gt;option -->
<g id="edge5" class="edge">
<title>string&#45;&gt;option</title>
<path fill="none" stroke="black" d="M249.95,-149.6C273.9,-138.19 310.99,-120.53 338.19,-107.58"/>
<polygon fill="black" stroke="black" points="339.56,-110.33 347.08,-102.87 336.55,-104.01 339.56,-110.33"/>
</g>
<!-- coin&#45;&gt;string -->
<g id="edge7" class="edge">
<title>coin&#45;&gt;string</title>
<path fill="none" stroke="black" d="M545.41,-517.89C453.08,-506.37 152,-462.42 152,-379 152,-379 152,-379 152,-305 152,-264.55 151.36,-251.36 171,-216 177.84,-203.68 188.48,-192.46 198.58,-183.55"/>
<polygon fill="black" stroke="black" points="200.43,-185.73 205.85,-176.63 195.93,-180.36 200.43,-185.73"/>
</g>
<!-- coin&#45;&gt;signer -->
<g id="edge8" class="edge">
<title>coin&#45;&gt;signer</title>
<path fill="none" stroke="black" d="M544.94,-519.39C470.05,-514.58 261.57,-498.71 201,-468 151.67,-442.98 114,-434.32 114,-379 114,-379 114,-379 114,-233 114,-163.93 197.41,-122.32 248.39,-103.33"/>
<polygon fill="black" stroke="black" points="249.2,-106.4 257.43,-99.73 246.84,-99.81 249.2,-106.4"/>
</g>
<!-- coin&#45;&gt;option -->
<g id="edge6" class="edge">
<title>coin&#45;&gt;option</title>
<path fill="none" stroke="black" d="M544.88,-520.02C448.96,-516.28 129.85,-501.39 100,-468 0.78,-357.01 59.24,-223.66 185,-144 240.73,-108.7 266.11,-127.93 329,-108 331.44,-107.23 333.93,-106.39 336.44,-105.52"/>
<polygon fill="black" stroke="black" points="337.47,-108.5 345.66,-101.78 335.07,-101.93 337.47,-108.5"/>
</g>
<!-- error -->
<g id="node7" class="node">
<title>error</title>
<ellipse fill="none" stroke="black" cx="1064" cy="-90" rx="28.83" ry="18"/>
<text text-anchor="middle" x="1064" y="-84.95" font-family="Times,serif" font-size="14.00">error</text>
</g>
<!-- coin&#45;&gt;error -->
<g id="edge9" class="edge">
<title>coin&#45;&gt;error</title>
<path fill="none" stroke="black" d="M599.22,-520.67C740.07,-518.78 1382.58,-508 1461,-468 1506.57,-444.75 1534,-430.16 1534,-379 1534,-379 1534,-379 1534,-233 1534,-170.11 1481.59,-169.25 1424,-144 1315.21,-96.3 1172.02,-90.08 1103.65,-90.14"/>
<polygon fill="black" stroke="black" points="1103.92,-86.64 1093.95,-90.2 1103.97,-93.64 1103.92,-86.64"/>
</g>
<!-- type_info -->
<g id="node8" class="node">
<title>type_info</title>
<ellipse fill="none" stroke="black" cx="528" cy="-234" rx="46.23" ry="18"/>
<text text-anchor="middle" x="528" y="-228.95" font-family="Times,serif" font-size="14.00">type_info</text>
</g>
<!-- coin&#45;&gt;type_info -->
<g id="edge10" class="edge">
<title>coin&#45;&gt;type_info</title>
<path fill="none" stroke="black" d="M545.49,-517.08C492.14,-507.57 373.03,-477.7 328,-396 288.16,-323.72 410.56,-271.78 481.36,-248.56"/>
<polygon fill="black" stroke="black" points="481.95,-251.73 490.41,-245.35 479.82,-245.06 481.95,-251.73"/>
</g>
<!-- system_addresses -->
<g id="node9" class="node">
<title>system_addresses</title>
<ellipse fill="none" stroke="black" cx="1154" cy="-306" rx="76.94" ry="18"/>
<text text-anchor="middle" x="1154" y="-300.95" font-family="Times,serif" font-size="14.00">system_addresses</text>
</g>
<!-- coin&#45;&gt;system_addresses -->
<g id="edge11" class="edge">
<title>coin&#45;&gt;system_addresses</title>
<path fill="none" stroke="black" d="M599.31,-521.75C683.14,-522.69 940.86,-515.18 1102,-396 1122.73,-380.67 1136.6,-354.39 1144.76,-334.36"/>
<polygon fill="black" stroke="black" points="1148.32,-335.85 1148.62,-325.26 1141.78,-333.35 1148.32,-335.85"/>
</g>
<!-- event -->
<g id="node10" class="node">
<title>event</title>
<ellipse fill="none" stroke="black" cx="368" cy="-378" rx="30.88" ry="18"/>
<text text-anchor="middle" x="368" y="-372.95" font-family="Times,serif" font-size="14.00">event</text>
</g>
<!-- coin&#45;&gt;event -->
<g id="edge12" class="edge">
<title>coin&#45;&gt;event</title>
<path fill="none" stroke="black" d="M553.9,-508.4C518.27,-483.6 438.82,-428.3 396.24,-398.66"/>
<polygon fill="black" stroke="black" points="398.45,-395.24 388.25,-392.4 394.46,-400.98 398.45,-395.24"/>
</g>
<!-- account -->
<g id="node11" class="node">
<title>account</title>
<ellipse fill="none" stroke="black" cx="641" cy="-450" rx="39.58" ry="18"/>
<text text-anchor="middle" x="641" y="-444.95" font-family="Times,serif" font-size="14.00">account</text>
</g>
<!-- coin&#45;&gt;account -->
<g id="edge13" class="edge">
<title>coin&#45;&gt;account</title>
<path fill="none" stroke="black" d="M586.3,-506.5C595.36,-497.31 607.28,-485.2 617.69,-474.65"/>
<polygon fill="black" stroke="black" points="619.75,-477.53 624.28,-467.95 614.77,-472.61 619.75,-477.53"/>
</g>
<!-- aggregator -->
<g id="node12" class="node">
<title>aggregator</title>
<ellipse fill="none" stroke="black" cx="1418" cy="-306" rx="50.33" ry="18"/>
<text text-anchor="middle" x="1418" y="-300.95" font-family="Times,serif" font-size="14.00">aggregator</text>
</g>
<!-- coin&#45;&gt;aggregator -->
<g id="edge14" class="edge">
<title>coin&#45;&gt;aggregator</title>
<path fill="none" stroke="black" d="M599.28,-520.37C743.19,-516.92 1408.55,-499.3 1438,-468 1471.99,-431.87 1449.75,-369.25 1432.56,-333.69"/>
<polygon fill="black" stroke="black" points="1435.3,-332.36 1427.67,-325 1429.05,-335.51 1435.3,-332.36"/>
</g>
<!-- aggregator_factory -->
<g id="node13" class="node">
<title>aggregator_factory</title>
<ellipse fill="none" stroke="black" cx="1272" cy="-378" rx="81.04" ry="18"/>
<text text-anchor="middle" x="1272" y="-372.95" font-family="Times,serif" font-size="14.00">aggregator_factory</text>
</g>
<!-- coin&#45;&gt;aggregator_factory -->
<g id="edge15" class="edge">
<title>coin&#45;&gt;aggregator_factory</title>
<path fill="none" stroke="black" d="M599.06,-520.23C697.69,-517.15 1037.46,-504.09 1139,-468 1179.51,-453.6 1219.65,-424.09 1245.06,-403"/>
<polygon fill="black" stroke="black" points="1247.04,-405.06 1252.41,-395.92 1242.51,-399.72 1247.04,-405.06"/>
</g>
<!-- optional_aggregator -->
<g id="node14" class="node">
<title>optional_aggregator</title>
<ellipse fill="none" stroke="black" cx="1344" cy="-450" rx="85.13" ry="18"/>
<text text-anchor="middle" x="1344" y="-444.95" font-family="Times,serif" font-size="14.00">optional_aggregator</text>
</g>
<!-- coin&#45;&gt;optional_aggregator -->
<g id="edge16" class="edge">
<title>coin&#45;&gt;optional_aggregator</title>
<path fill="none" stroke="black" d="M599.13,-519.18C687.41,-513.18 974.37,-492.92 1211,-468 1227.97,-466.21 1246.12,-464.06 1263.39,-461.89"/>
<polygon fill="black" stroke="black" points="1263.53,-465.27 1273.01,-460.54 1262.65,-458.33 1263.53,-465.27"/>
</g>
<!-- option&#45;&gt;vector -->
<g id="edge17" class="edge">
<title>option&#45;&gt;vector</title>
<path fill="none" stroke="black" d="M373,-71.7C373,-64.24 373,-55.32 373,-46.97"/>
<polygon fill="black" stroke="black" points="376.5,-47.1 373,-37.1 369.5,-47.1 376.5,-47.1"/>
</g>
<!-- type_info&#45;&gt;string -->
<g id="edge18" class="edge">
<title>type_info&#45;&gt;string</title>
<path fill="none" stroke="black" d="M488.83,-223.92C431.1,-210.54 323.77,-185.66 265.73,-172.21"/>
<polygon fill="black" stroke="black" points="266.68,-168.6 256.15,-169.76 265.1,-175.42 266.68,-168.6"/>
</g>
<!-- type_info&#45;&gt;error -->
<g id="edge19" class="edge">
<title>type_info&#45;&gt;error</title>
<path fill="none" stroke="black" d="M546.94,-217.24C559.33,-206.83 575.79,-192.79 590,-180 607.29,-164.44 606.95,-153.9 628,-144 697.95,-111.1 930.6,-97.07 1024.34,-92.65"/>
<polygon fill="black" stroke="black" points="1024.24,-96.12 1034.07,-92.16 1023.92,-89.12 1024.24,-96.12"/>
</g>
<!-- features -->
<g id="node15" class="node">
<title>features</title>
<ellipse fill="none" stroke="black" cx="541" cy="-162" rx="40.09" ry="18"/>
<text text-anchor="middle" x="541" y="-156.95" font-family="Times,serif" font-size="14.00">features</text>
</g>
<!-- type_info&#45;&gt;features -->
<g id="edge20" class="edge">
<title>type_info&#45;&gt;features</title>
<path fill="none" stroke="black" d="M531.21,-215.7C532.61,-208.15 534.29,-199.12 535.86,-190.68"/>
<polygon fill="black" stroke="black" points="539.44,-191.58 537.82,-181.1 532.56,-190.3 539.44,-191.58"/>
</g>
<!-- bcs -->
<g id="node16" class="node">
<title>bcs</title>
<ellipse fill="none" stroke="black" cx="664" cy="-162" rx="27" ry="18"/>
<text text-anchor="middle" x="664" y="-156.95" font-family="Times,serif" font-size="14.00">bcs</text>
</g>
<!-- type_info&#45;&gt;bcs -->
<g id="edge21" class="edge">
<title>type_info&#45;&gt;bcs</title>
<path fill="none" stroke="black" d="M555.19,-219C577.85,-207.34 610.09,-190.75 633.59,-178.65"/>
<polygon fill="black" stroke="black" points="634.79,-181.46 642.08,-173.77 631.59,-175.23 634.79,-181.46"/>
</g>
<!-- system_addresses&#45;&gt;signer -->
<g id="edge22" class="edge">
<title>system_addresses&#45;&gt;signer</title>
<path fill="none" stroke="black" d="M1119.54,-289.49C1044.83,-256.6 861.63,-179.96 700,-144 538.72,-108.12 490.61,-146.75 330,-108 327.5,-107.4 324.95,-106.68 322.4,-105.88"/>
<polygon fill="black" stroke="black" points="323.68,-102.27 313.08,-102.27 321.37,-108.88 323.68,-102.27"/>
</g>
<!-- system_addresses&#45;&gt;error -->
<g id="edge23" class="edge">
<title>system_addresses&#45;&gt;error</title>
<path fill="none" stroke="black" d="M1146.79,-287.85C1131.18,-250.74 1094.17,-162.75 1075.38,-118.05"/>
<polygon fill="black" stroke="black" points="1078.23,-116.8 1071.12,-108.94 1071.77,-119.51 1078.23,-116.8"/>
</g>
<!-- event&#45;&gt;error -->
<g id="edge24" class="edge">
<title>event&#45;&gt;error</title>
<path fill="none" stroke="black" d="M370.86,-359.87C379.48,-314.49 409.85,-191.41 492,-144 582.7,-91.65 909.52,-89.52 1024.03,-90.45"/>
<polygon fill="black" stroke="black" points="1023.71,-93.96 1033.74,-90.55 1023.78,-86.96 1023.71,-93.96"/>
</g>
<!-- event&#45;&gt;features -->
<g id="edge25" class="edge">
<title>event&#45;&gt;features</title>
<path fill="none" stroke="black" d="M376.53,-360.21C392.65,-329.45 429.87,-262.93 473,-216 484,-204.03 497.91,-192.67 510.28,-183.57"/>
<polygon fill="black" stroke="black" points="511.86,-186.03 517.95,-177.36 507.78,-180.34 511.86,-186.03"/>
</g>
<!-- event&#45;&gt;bcs -->
<g id="edge26" class="edge">
<title>event&#45;&gt;bcs</title>
<path fill="none" stroke="black" d="M382.42,-361.72C401.64,-342.16 437.48,-308.36 474,-288 518.56,-263.15 540.21,-279.78 583,-252 609.17,-235.01 632.38,-207.56 647.17,-187.63"/>
<polygon fill="black" stroke="black" points="650.52,-189.95 653.54,-179.79 644.85,-185.86 650.52,-189.95"/>
</g>
<!-- guid -->
<g id="node17" class="node">
<title>guid</title>
<ellipse fill="none" stroke="black" cx="510" cy="-306" rx="27.3" ry="18"/>
<text text-anchor="middle" x="510" y="-300.95" font-family="Times,serif" font-size="14.00">guid</text>
</g>
<!-- event&#45;&gt;guid -->
<g id="edge27" class="edge">
<title>event&#45;&gt;guid</title>
<path fill="none" stroke="black" d="M391.13,-365.6C415.1,-353.78 452.7,-335.25 479.18,-322.19"/>
<polygon fill="black" stroke="black" points="480.31,-325.04 487.74,-317.48 477.22,-318.76 480.31,-325.04"/>
</g>
<!-- account&#45;&gt;signer -->
<g id="edge30" class="edge">
<title>account&#45;&gt;signer</title>
<path fill="none" stroke="black" d="M601.35,-447.94C525.75,-445.06 365.15,-434.44 328,-396 290.18,-356.87 286.59,-186.88 286.7,-119.07"/>
<polygon fill="black" stroke="black" points="290.2,-119.39 286.75,-109.38 283.2,-119.36 290.2,-119.39"/>
</g>
<!-- account&#45;&gt;vector -->
<g id="edge28" class="edge">
<title>account&#45;&gt;vector</title>
<path fill="none" stroke="black" d="M632.63,-432.15C614.17,-395.49 569.73,-310.02 546,-288 519.48,-263.4 496.57,-279.44 473,-252 418.32,-188.34 455.8,-145.88 416,-72 410.44,-61.67 402.75,-51.41 395.4,-42.7"/>
<polygon fill="black" stroke="black" points="397.5,-40.78 388.27,-35.57 392.23,-45.39 397.5,-40.78"/>
</g>
<!-- account&#45;&gt;option -->
<g id="edge29" class="edge">
<title>account&#45;&gt;option</title>
<path fill="none" stroke="black" d="M601.18,-448.37C524.88,-446.24 362.55,-436.89 328,-396 259.08,-314.43 324.92,-174.74 357.33,-117.07"/>
<polygon fill="black" stroke="black" points="360.82,-119.02 362.77,-108.61 354.75,-115.53 360.82,-119.02"/>
</g>
<!-- account&#45;&gt;error -->
<g id="edge31" class="edge">
<title>account&#45;&gt;error</title>
<path fill="none" stroke="black" d="M680.84,-449.26C761.98,-448.74 951.43,-442.19 1102,-396 1118.53,-390.93 1231.03,-338.79 1240,-324 1292.13,-238 1157.77,-145.36 1094.65,-108.02"/>
<polygon fill="black" stroke="black" points="1096.58,-104.51 1086.17,-102.52 1093.06,-110.57 1096.58,-104.51"/>
</g>
<!-- account&#45;&gt;type_info -->
<g id="edge33" class="edge">
<title>account&#45;&gt;type_info</title>
<path fill="none" stroke="black" d="M637.5,-431.57C633.58,-413.36 626.48,-384.13 617,-360 603.76,-326.32 600.2,-317.32 579,-288 571.44,-277.54 561.9,-267.08 553.12,-258.25"/>
<polygon fill="black" stroke="black" points="555.95,-256.14 546.35,-251.64 551.05,-261.14 555.95,-256.14"/>
</g>
<!-- account&#45;&gt;system_addresses -->
<g id="edge35" class="edge">
<title>account&#45;&gt;system_addresses</title>
<path fill="none" stroke="black" d="M680.63,-447.43C773.1,-443.25 1000.41,-429.74 1068,-396 1083.32,-388.35 1112.91,-355.71 1133.06,-332.18"/>
<polygon fill="black" stroke="black" points="1136.21,-334.87 1140.01,-324.98 1130.87,-330.34 1136.21,-334.87"/>
</g>
<!-- account&#45;&gt;event -->
<g id="edge41" class="edge">
<title>account&#45;&gt;event</title>
<path fill="none" stroke="black" d="M604.54,-442.79C558.21,-434.43 476.09,-418.02 408,-396 406.01,-395.36 403.98,-394.65 401.94,-393.91"/>
<polygon fill="black" stroke="black" points="403.44,-390.34 392.85,-389.95 400.88,-396.86 403.44,-390.34"/>
</g>
<!-- account&#45;&gt;bcs -->
<g id="edge32" class="edge">
<title>account&#45;&gt;bcs</title>
<path fill="none" stroke="black" d="M642.4,-431.54C646.26,-383.56 657.05,-249.39 661.76,-190.88"/>
<polygon fill="black" stroke="black" points="665.3,-191.48 662.61,-181.23 658.32,-190.92 665.3,-191.48"/>
</g>
<!-- account&#45;&gt;guid -->
<g id="edge39" class="edge">
<title>account&#45;&gt;guid</title>
<path fill="none" stroke="black" d="M625.32,-433.43C614.89,-422.97 600.96,-408.82 589,-396 568.53,-374.06 545.86,-348.37 530.07,-330.25"/>
<polygon fill="black" stroke="black" points="532.12,-328.26 522.92,-323.01 526.83,-332.85 532.12,-328.26"/>
</g>
<!-- table -->
<g id="node18" class="node">
<title>table</title>
<ellipse fill="none" stroke="black" cx="1030" cy="-306" rx="28.83" ry="18"/>
<text text-anchor="middle" x="1030" y="-300.95" font-family="Times,serif" font-size="14.00">table</text>
</g>
<!-- account&#45;&gt;table -->
<g id="edge34" class="edge">
<title>account&#45;&gt;table</title>
<path fill="none" stroke="black" d="M680.03,-446.71C733.85,-442.37 832.95,-430.07 910,-396 930.1,-387.11 976.18,-350.99 1005.03,-327.58"/>
<polygon fill="black" stroke="black" points="1006.84,-329.81 1012.38,-320.77 1002.42,-324.38 1006.84,-329.81"/>
</g>
<!-- hash -->
<g id="node19" class="node">
<title>hash</title>
<ellipse fill="none" stroke="black" cx="775" cy="-234" rx="27.81" ry="18"/>
<text text-anchor="middle" x="775" y="-228.95" font-family="Times,serif" font-size="14.00">hash</text>
</g>
<!-- account&#45;&gt;hash -->
<g id="edge36" class="edge">
<title>account&#45;&gt;hash</title>
<path fill="none" stroke="black" d="M658.79,-433.46C669.55,-423.47 683.07,-409.81 693,-396 724.4,-352.34 750.52,-294.95 764.35,-261.8"/>
<polygon fill="black" stroke="black" points="767.84,-263.52 768.4,-252.94 761.36,-260.86 767.84,-263.52"/>
</g>
<!-- ed25519 -->
<g id="node20" class="node">
<title>ed25519</title>
<ellipse fill="none" stroke="black" cx="902" cy="-306" rx="42.65" ry="18"/>
<text text-anchor="middle" x="902" y="-300.95" font-family="Times,serif" font-size="14.00">ed25519</text>
</g>
<!-- account&#45;&gt;ed25519 -->
<g id="edge37" class="edge">
<title>account&#45;&gt;ed25519</title>
<path fill="none" stroke="black" d="M680.02,-445.92C742.28,-440.18 859.97,-425.63 888,-396 903.19,-379.95 905.88,-354.51 905.24,-334.93"/>
<polygon fill="black" stroke="black" points="908.68,-334.95 904.54,-325.2 901.69,-335.4 908.68,-334.95"/>
</g>
<!-- multi_ed25519 -->
<g id="node21" class="node">
<title>multi_ed25519</title>
<ellipse fill="none" stroke="black" cx="812" cy="-378" rx="67.22" ry="18"/>
<text text-anchor="middle" x="812" y="-372.95" font-family="Times,serif" font-size="14.00">multi_ed25519</text>
</g>
<!-- account&#45;&gt;multi_ed25519 -->
<g id="edge38" class="edge">
<title>account&#45;&gt;multi_ed25519</title>
<path fill="none" stroke="black" d="M669.62,-437.28C695.93,-426.51 735.39,-410.36 766.1,-397.79"/>
<polygon fill="black" stroke="black" points="767.22,-400.7 775.15,-393.68 764.57,-394.23 767.22,-400.7"/>
</g>
<!-- from_bcs -->
<g id="node22" class="node">
<title>from_bcs</title>
<ellipse fill="none" stroke="black" cx="226" cy="-234" rx="46.23" ry="18"/>
<text text-anchor="middle" x="226" y="-228.95" font-family="Times,serif" font-size="14.00">from_bcs</text>
</g>
<!-- account&#45;&gt;from_bcs -->
<g id="edge40" class="edge">
<title>account&#45;&gt;from_bcs</title>
<path fill="none" stroke="black" d="M601.51,-446.97C501.46,-441.42 244.13,-424.48 219,-396 186.63,-359.31 201.76,-297.6 214.59,-262.18"/>
<polygon fill="black" stroke="black" points="218.15,-263.69 218.45,-253.1 211.61,-261.19 218.15,-263.69"/>
</g>
<!-- create_signer -->
<g id="node23" class="node">
<title>create_signer</title>
<ellipse fill="none" stroke="black" cx="477" cy="-378" rx="60.05" ry="18"/>
<text text-anchor="middle" x="477" y="-372.95" font-family="Times,serif" font-size="14.00">create_signer</text>
</g>
<!-- account&#45;&gt;create_signer -->
<g id="edge42" class="edge">
<title>account&#45;&gt;create_signer</title>
<path fill="none" stroke="black" d="M612.81,-436.97C587.41,-426.13 549.69,-410.02 520.44,-397.54"/>
<polygon fill="black" stroke="black" points="522.05,-394 511.48,-393.29 519.3,-400.43 522.05,-394"/>
</g>
<!-- chain_id -->
<g id="node24" class="node">
<title>chain_id</title>
<ellipse fill="none" stroke="black" cx="1016" cy="-378" rx="42.65" ry="18"/>
<text text-anchor="middle" x="1016" y="-372.95" font-family="Times,serif" font-size="14.00">chain_id</text>
</g>
<!-- account&#45;&gt;chain_id -->
<g id="edge43" class="edge">
<title>account&#45;&gt;chain_id</title>
<path fill="none" stroke="black" d="M678.99,-444.23C738.94,-436.35 858.94,-419.16 959,-396 963.36,-394.99 967.87,-393.84 972.37,-392.62"/>
<polygon fill="black" stroke="black" points="973.06,-395.77 981.73,-389.68 971.15,-389.04 973.06,-395.77"/>
</g>
<!-- aggregator_factory&#45;&gt;error -->
<g id="edge44" class="edge">
<title>aggregator_factory&#45;&gt;error</title>
<path fill="none" stroke="black" d="M1278.49,-359.82C1293.1,-317.88 1323.55,-208.97 1273,-144 1252.35,-117.47 1157.79,-102.07 1103.19,-95.25"/>
<polygon fill="black" stroke="black" points="1103.87,-91.69 1093.52,-93.96 1103.03,-98.64 1103.87,-91.69"/>
</g>
<!-- aggregator_factory&#45;&gt;system_addresses -->
<g id="edge46" class="edge">
<title>aggregator_factory&#45;&gt;system_addresses</title>
<path fill="none" stroke="black" d="M1244.63,-360.76C1228.55,-351.22 1208.01,-339.04 1190.55,-328.68"/>
<polygon fill="black" stroke="black" points="1192.61,-325.24 1182.22,-323.15 1189.03,-331.26 1192.61,-325.24"/>
</g>
<!-- aggregator_factory&#45;&gt;aggregator -->
<g id="edge47" class="edge">
<title>aggregator_factory&#45;&gt;aggregator</title>
<path fill="none" stroke="black" d="M1305.13,-361.12C1327.12,-350.57 1356.06,-336.7 1379.14,-325.63"/>
<polygon fill="black" stroke="black" points="1380.45,-328.41 1387.95,-320.93 1377.42,-322.09 1380.45,-328.41"/>
</g>
<!-- aggregator_factory&#45;&gt;table -->
<g id="edge45" class="edge">
<title>aggregator_factory&#45;&gt;table</title>
<path fill="none" stroke="black" d="M1214.96,-364.86C1173.63,-355.42 1116.69,-341.08 1068,-324 1066.06,-323.32 1064.07,-322.58 1062.09,-321.8"/>
<polygon fill="black" stroke="black" points="1063.83,-318.32 1053.25,-317.7 1061.14,-324.78 1063.83,-318.32"/>
</g>
<!-- optional_aggregator&#45;&gt;option -->
<g id="edge48" class="edge">
<title>optional_aggregator&#45;&gt;option</title>
<path fill="none" stroke="black" d="M1354.1,-431.82C1363.69,-413.03 1374.9,-382.59 1362,-360 1330.78,-305.32 1297.38,-313.92 1240,-288 1052.11,-203.1 1000.23,-188.93 799,-144 662.25,-113.46 496.6,-99.19 418.25,-93.77"/>
<polygon fill="black" stroke="black" points="418.55,-90.21 408.34,-93.03 418.08,-97.2 418.55,-90.21"/>
</g>
<!-- optional_aggregator&#45;&gt;error -->
<g id="edge49" class="edge">
<title>optional_aggregator&#45;&gt;error</title>
<path fill="none" stroke="black" d="M1381.57,-433.6C1426.58,-412.36 1496,-369.48 1496,-307 1496,-307 1496,-307 1496,-233 1496,-150.73 1209.7,-108.3 1103.24,-95.37"/>
<polygon fill="black" stroke="black" points="1103.69,-91.78 1093.34,-94.07 1102.86,-98.73 1103.69,-91.78"/>
</g>
<!-- optional_aggregator&#45;&gt;aggregator -->
<g id="edge50" class="edge">
<title>optional_aggregator&#45;&gt;aggregator</title>
<path fill="none" stroke="black" d="M1364.53,-432.28C1375.07,-422.69 1387.28,-409.82 1395,-396 1405.52,-377.17 1411.35,-353.41 1414.5,-335.18"/>
<polygon fill="black" stroke="black" points="1418.1,-335.79 1416.17,-325.37 1411.18,-334.72 1418.1,-335.79"/>
</g>
<!-- optional_aggregator&#45;&gt;aggregator_factory -->
<g id="edge51" class="edge">
<title>optional_aggregator&#45;&gt;aggregator_factory</title>
<path fill="none" stroke="black" d="M1326.57,-432.05C1317.79,-423.52 1306.98,-413.01 1297.31,-403.61"/>
<polygon fill="black" stroke="black" points="1300.13,-401.49 1290.52,-397.03 1295.25,-406.51 1300.13,-401.49"/>
</g>
<!-- features&#45;&gt;signer -->
<g id="edge52" class="edge">
<title>features&#45;&gt;signer</title>
<path fill="none" stroke="black" d="M505.13,-153.49C462.83,-144.29 390.58,-127.49 330,-108 327.7,-107.26 325.35,-106.46 322.99,-105.62"/>
<polygon fill="black" stroke="black" points="324.32,-102.01 313.72,-101.8 321.87,-108.57 324.32,-102.01"/>
</g>
<!-- features&#45;&gt;error -->
<g id="edge53" class="edge">
<title>features&#45;&gt;error</title>
<path fill="none" stroke="black" d="M571.85,-150.17C579.35,-147.84 587.4,-145.61 595,-144 751.95,-110.75 943.16,-97.36 1024.42,-92.9"/>
<polygon fill="black" stroke="black" points="1024.34,-96.35 1034.14,-92.33 1023.97,-89.36 1024.34,-96.35"/>
</g>
<!-- ed25519&#45;&gt;option -->
<g id="edge54" class="edge">
<title>ed25519&#45;&gt;option</title>
<path fill="none" stroke="black" d="M900.76,-287.7C898.54,-268.24 892.33,-236.66 875,-216 829.52,-161.79 800.44,-165.43 733,-144 623.5,-109.2 487.88,-97.1 418.53,-93"/>
<polygon fill="black" stroke="black" points="418.76,-89.46 408.58,-92.39 418.37,-96.44 418.76,-89.46"/>
</g>
<!-- ed25519&#45;&gt;error -->
<g id="edge55" class="edge">
<title>ed25519&#45;&gt;error</title>
<path fill="none" stroke="black" d="M911.2,-288.09C928.1,-257.69 966.16,-192.5 1007,-144 1016.61,-132.58 1028.55,-121.15 1039,-111.84"/>
<polygon fill="black" stroke="black" points="1040.76,-114.08 1046,-104.87 1036.16,-108.8 1040.76,-114.08"/>
</g>
<!-- ed25519&#45;&gt;type_info -->
<g id="edge57" class="edge">
<title>ed25519&#45;&gt;type_info</title>
<path fill="none" stroke="black" d="M863.38,-297.77C795.7,-285.1 655.63,-258.89 579.68,-244.67"/>
<polygon fill="black" stroke="black" points="580.43,-241.06 569.95,-242.67 579.14,-247.95 580.43,-241.06"/>
</g>
<!-- ed25519&#45;&gt;bcs -->
<g id="edge56" class="edge">
<title>ed25519&#45;&gt;bcs</title>
<path fill="none" stroke="black" d="M895.48,-287.95C886.91,-267.81 869.96,-234.7 845,-216 802.43,-184.1 740.99,-171.35 701.78,-166.28"/>
<polygon fill="black" stroke="black" points="702.2,-162.69 691.86,-165 701.38,-169.64 702.2,-162.69"/>
</g>
<!-- ed25519&#45;&gt;hash -->
<g id="edge58" class="edge">
<title>ed25519&#45;&gt;hash</title>
<path fill="none" stroke="black" d="M876.91,-291.17C856.35,-279.84 827.18,-263.76 805.31,-251.71"/>
<polygon fill="black" stroke="black" points="807.29,-248.25 796.84,-246.49 803.91,-254.38 807.29,-248.25"/>
</g>
<!-- multi_ed25519&#45;&gt;option -->
<g id="edge59" class="edge">
<title>multi_ed25519&#45;&gt;option</title>
<path fill="none" stroke="black" d="M800.33,-359.79C784.7,-336.22 756.76,-292.23 738,-252 716.49,-205.88 739.03,-176.65 700,-144 658.03,-108.89 497.76,-96.69 418.27,-92.74"/>
<polygon fill="black" stroke="black" points="418.76,-89.22 408.6,-92.24 418.43,-96.21 418.76,-89.22"/>
</g>
<!-- multi_ed25519&#45;&gt;error -->
<g id="edge60" class="edge">
<title>multi_ed25519&#45;&gt;error</title>
<path fill="none" stroke="black" d="M866.47,-367.06C895.36,-359.42 929.79,-346.26 954,-324 1016.19,-266.82 1046.49,-167.2 1058.1,-118.87"/>
<polygon fill="black" stroke="black" points="1061.71,-119.82 1060.54,-109.29 1054.89,-118.25 1061.71,-119.82"/>
</g>
<!-- multi_ed25519&#45;&gt;features -->
<g id="edge61" class="edge">
<title>multi_ed25519&#45;&gt;features</title>
<path fill="none" stroke="black" d="M789.78,-360.73C775.7,-350.35 757.17,-336.54 741,-324 678.12,-275.25 605.69,-216.21 567.6,-184.93"/>
<polygon fill="black" stroke="black" points="570.52,-181.97 560.57,-178.32 566.07,-187.38 570.52,-181.97"/>
</g>
<!-- multi_ed25519&#45;&gt;bcs -->
<g id="edge62" class="edge">
<title>multi_ed25519&#45;&gt;bcs</title>
<path fill="none" stroke="black" d="M817.94,-359.58C827.61,-327.79 842.73,-259.65 812,-216 787.26,-180.86 736.96,-168.9 701.91,-164.89"/>
<polygon fill="black" stroke="black" points="702.4,-161.33 692.11,-163.85 701.73,-168.3 702.4,-161.33"/>
</g>
<!-- multi_ed25519&#45;&gt;hash -->
<g id="edge63" class="edge">
<title>multi_ed25519&#45;&gt;hash</title>
<path fill="none" stroke="black" d="M807.46,-359.59C801.16,-335.4 789.69,-291.36 782.21,-262.65"/>
<polygon fill="black" stroke="black" points="785.37,-261.91 779.46,-253.11 778.59,-263.67 785.37,-261.91"/>
</g>
<!-- multi_ed25519&#45;&gt;ed25519 -->
<g id="edge64" class="edge">
<title>multi_ed25519&#45;&gt;ed25519</title>
<path fill="none" stroke="black" d="M832.87,-360.76C845.06,-351.29 860.59,-339.21 873.84,-328.9"/>
<polygon fill="black" stroke="black" points="875.42,-331.33 881.17,-322.43 871.12,-325.8 875.42,-331.33"/>
</g>
<!-- from_bcs&#45;&gt;string -->
<g id="edge65" class="edge">
<title>from_bcs&#45;&gt;string</title>
<path fill="none" stroke="black" d="M226,-215.7C226,-208.24 226,-199.32 226,-190.97"/>
<polygon fill="black" stroke="black" points="229.5,-191.1 226,-181.1 222.5,-191.1 229.5,-191.1"/>
</g>
<!-- chain_id&#45;&gt;system_addresses -->
<g id="edge66" class="edge">
<title>chain_id&#45;&gt;system_addresses</title>
<path fill="none" stroke="black" d="M1042.61,-363.5C1062.53,-353.4 1090.15,-339.39 1112.9,-327.85"/>
<polygon fill="black" stroke="black" points="1114.31,-330.55 1121.64,-322.91 1111.14,-324.31 1114.31,-330.55"/>
</g>
</g>
</svg>
