<?xml version="1.0" encoding="UTF-8" standalone="no"?>
<!DOCTYPE svg PUBLIC "-//W3C//DTD SVG 1.1//EN"
 "http://www.w3.org/Graphics/SVG/1.1/DTD/svg11.dtd">
<!-- Generated by graphviz version 8.0.2 (20230410.1723)
 -->
<!-- Title: G Pages: 1 -->
<svg width="1512pt" height="620pt"
 viewBox="0.00 0.00 1512.00 620.00" xmlns="http://www.w3.org/2000/svg" xmlns:xlink="http://www.w3.org/1999/xlink">
<g id="graph0" class="graph" transform="scale(1 1) rotate(0) translate(4 616)">
<title>G</title>
<polygon fill="white" stroke="none" points="-4,4 -4,-616 1508,-616 1508,4 -4,4"/>
<!-- assets -->
<g id="node1" class="node">
<title>assets</title>
<ellipse fill="none" stroke="black" cx="76" cy="-594" rx="31.4" ry="18"/>
<text text-anchor="middle" x="76" y="-590.3" font-family="Times,serif" font-size="14.00">assets</text>
</g>
<!-- string -->
<g id="node2" class="node">
<title>string</title>
<ellipse fill="none" stroke="black" cx="275" cy="-162" rx="30.59" ry="18"/>
<text text-anchor="middle" x="275" y="-158.3" font-family="Times,serif" font-size="14.00">string</text>
</g>
<!-- assets&#45;&gt;string -->
<g id="edge1" class="edge">
<title>assets&#45;&gt;string</title>
<path fill="none" stroke="black" d="M74.67,-575.69C71.13,-516.89 67.73,-322.64 166,-216 185.04,-195.33 213.88,-181.81 237.11,-173.59"/>
<polygon fill="black" stroke="black" points="237.95,-176.67 246.34,-170.19 235.74,-170.03 237.95,-176.67"/>
</g>
<!-- signer -->
<g id="node3" class="node">
<title>signer</title>
<ellipse fill="none" stroke="black" cx="344" cy="-90" rx="32.49" ry="18"/>
<text text-anchor="middle" x="344" y="-86.3" font-family="Times,serif" font-size="14.00">signer</text>
</g>
<!-- assets&#45;&gt;signer -->
<g id="edge2" class="edge">
<title>assets&#45;&gt;signer</title>
<path fill="none" stroke="black" d="M61.35,-577.83C39.26,-553.3 0,-502.45 0,-451 0,-451 0,-451 0,-233 0,-186.03 18.02,-170.21 57,-144 96.32,-117.57 231.33,-101.47 301.25,-94.72"/>
<polygon fill="black" stroke="black" points="301.27,-98.14 310.89,-93.71 300.61,-91.17 301.27,-98.14"/>
</g>
<!-- coin -->
<g id="node4" class="node">
<title>coin</title>
<ellipse fill="none" stroke="black" cx="534" cy="-522" rx="27" ry="18"/>
<text text-anchor="middle" x="534" y="-518.3" font-family="Times,serif" font-size="14.00">coin</text>
</g>
<!-- assets&#45;&gt;coin -->
<g id="edge3" class="edge">
<title>assets&#45;&gt;coin</title>
<path fill="none" stroke="black" d="M106.05,-588.41C186.79,-576.07 408.29,-542.21 496.77,-528.69"/>
<polygon fill="black" stroke="black" points="497.26,-532 506.62,-527.03 496.2,-525.08 497.26,-532"/>
</g>
<!-- vector -->
<g id="node5" class="node">
<title>vector</title>
<ellipse fill="none" stroke="black" cx="553" cy="-18" rx="32.49" ry="18"/>
<text text-anchor="middle" x="553" y="-14.3" font-family="Times,serif" font-size="14.00">vector</text>
</g>
<!-- string&#45;&gt;vector -->
<g id="edge4" class="edge">
<title>string&#45;&gt;vector</title>
<path fill="none" stroke="black" d="M275.48,-143.53C277.03,-123.3 282.74,-90.41 303,-72 332.9,-44.84 446.72,-29.51 509.97,-22.91"/>
<polygon fill="black" stroke="black" points="510.19,-26.31 519.79,-21.82 509.49,-19.34 510.19,-26.31"/>
</g>
<!-- option -->
<g id="node6" class="node">
<title>option</title>
<ellipse fill="none" stroke="black" cx="553" cy="-90" rx="33.29" ry="18"/>
<text text-anchor="middle" x="553" y="-86.3" font-family="Times,serif" font-size="14.00">option</text>
</g>
<!-- string&#45;&gt;option -->
<g id="edge5" class="edge">
<title>string&#45;&gt;option</title>
<path fill="none" stroke="black" d="M302.93,-153.97C352.47,-141.49 455.88,-115.45 512.98,-101.08"/>
<polygon fill="black" stroke="black" points="513.58,-104.28 522.42,-98.45 511.87,-97.5 513.58,-104.28"/>
</g>
<!-- coin&#45;&gt;string -->
<g id="edge7" class="edge">
<title>coin&#45;&gt;string</title>
<path fill="none" stroke="black" d="M506.89,-521.57C452.55,-521.58 327.83,-515.9 238,-468 189.46,-442.12 152,-434.01 152,-379 152,-379 152,-379 152,-305 152,-248.86 207.6,-204.02 244.04,-180.66"/>
<polygon fill="black" stroke="black" points="245.64,-183.17 252.29,-174.92 241.95,-177.22 245.64,-183.17"/>
</g>
<!-- coin&#45;&gt;signer -->
<g id="edge8" class="edge">
<title>coin&#45;&gt;signer</title>
<path fill="none" stroke="black" d="M506.84,-520.03C432.25,-516.89 226.12,-505.01 171,-468 102.02,-421.68 76,-390.08 76,-307 76,-307 76,-307 76,-233 76,-132.37 225.34,-102.85 301.06,-94.35"/>
<polygon fill="black" stroke="black" points="301.09,-97.76 310.67,-93.24 300.36,-90.8 301.09,-97.76"/>
</g>
<!-- coin&#45;&gt;option -->
<g id="edge6" class="edge">
<title>coin&#45;&gt;option</title>
<path fill="none" stroke="black" d="M506.65,-520.53C422.52,-518.66 169.1,-509.6 100,-468 58.7,-443.14 38,-427.21 38,-379 38,-379 38,-379 38,-233 38,-136.92 143.07,-171.91 235,-144 330.54,-115 447.35,-100.68 509.39,-94.66"/>
<polygon fill="black" stroke="black" points="509.69,-98.06 519.32,-93.63 509.03,-91.09 509.69,-98.06"/>
</g>
<!-- error -->
<g id="node7" class="node">
<title>error</title>
<ellipse fill="none" stroke="black" cx="1105" cy="-90" rx="27.9" ry="18"/>
<text text-anchor="middle" x="1105" y="-86.3" font-family="Times,serif" font-size="14.00">error</text>
</g>
<!-- coin&#45;&gt;error -->
<g id="edge9" class="edge">
<title>coin&#45;&gt;error</title>
<path fill="none" stroke="black" d="M561.22,-521.1C706.48,-521.39 1386.73,-519.96 1463,-468 1498.99,-443.48 1504,-422.55 1504,-379 1504,-379 1504,-379 1504,-233 1504,-156.89 1243.07,-111.02 1143.23,-96.25"/>
<polygon fill="black" stroke="black" points="1143.82,-92.65 1133.42,-94.68 1142.82,-99.58 1143.82,-92.65"/>
</g>
<!-- type_info -->
<g id="node8" class="node">
<title>type_info</title>
<ellipse fill="none" stroke="black" cx="454" cy="-234" rx="44.39" ry="18"/>
<text text-anchor="middle" x="454" y="-230.3" font-family="Times,serif" font-size="14.00">type_info</text>
</g>
<!-- coin&#45;&gt;type_info -->
<g id="edge10" class="edge">
<title>coin&#45;&gt;type_info</title>
<path fill="none" stroke="black" d="M506.76,-520.59C440.9,-517.91 273.68,-500.65 209,-396 182.99,-353.91 198.97,-320.82 236,-288 260.25,-266.5 345.09,-250.56 401.5,-242.03"/>
<polygon fill="black" stroke="black" points="401.99,-245.35 411.37,-240.43 400.97,-238.42 401.99,-245.35"/>
</g>
<!-- system_addresses -->
<g id="node9" class="node">
<title>system_addresses</title>
<ellipse fill="none" stroke="black" cx="1105" cy="-306" rx="73.39" ry="18"/>
<text text-anchor="middle" x="1105" y="-302.3" font-family="Times,serif" font-size="14.00">system_addresses</text>
</g>
<!-- coin&#45;&gt;system_addresses -->
<g id="edge11" class="edge">
<title>coin&#45;&gt;system_addresses</title>
<path fill="none" stroke="black" d="M560.96,-518.35C659.81,-508.14 1000.7,-468.16 1078,-396 1094.67,-380.43 1101.17,-354.94 1103.64,-335.22"/>
<polygon fill="black" stroke="black" points="1107.21,-335.69 1104.68,-325.4 1100.24,-335.02 1107.21,-335.69"/>
</g>
<!-- event -->
<g id="node10" class="node">
<title>event</title>
<ellipse fill="none" stroke="black" cx="248" cy="-378" rx="29.8" ry="18"/>
<text text-anchor="middle" x="248" y="-374.3" font-family="Times,serif" font-size="14.00">event</text>
</g>
<!-- coin&#45;&gt;event -->
<g id="edge12" class="edge">
<title>coin&#45;&gt;event</title>
<path fill="none" stroke="black" d="M512.97,-510.56C463.46,-485.98 339.29,-424.32 280.21,-394.99"/>
<polygon fill="black" stroke="black" points="282.15,-391.55 271.63,-390.24 279.03,-397.82 282.15,-391.55"/>
</g>
<!-- account -->
<g id="node11" class="node">
<title>account</title>
<ellipse fill="none" stroke="black" cx="630" cy="-450" rx="38.19" ry="18"/>
<text text-anchor="middle" x="630" y="-446.3" font-family="Times,serif" font-size="14.00">account</text>
</g>
<!-- coin&#45;&gt;account -->
<g id="edge13" class="edge">
<title>coin&#45;&gt;account</title>
<path fill="none" stroke="black" d="M551.61,-508.16C565.49,-498.04 585.14,-483.71 601.29,-471.93"/>
<polygon fill="black" stroke="black" points="602.83,-474.42 608.85,-465.7 598.7,-468.76 602.83,-474.42"/>
</g>
<!-- aggregator -->
<g id="node12" class="node">
<title>aggregator</title>
<ellipse fill="none" stroke="black" cx="1358" cy="-306" rx="48.19" ry="18"/>
<text text-anchor="middle" x="1358" y="-302.3" font-family="Times,serif" font-size="14.00">aggregator</text>
</g>
<!-- coin&#45;&gt;aggregator -->
<g id="edge14" class="edge">
<title>coin&#45;&gt;aggregator</title>
<path fill="none" stroke="black" d="M561.14,-520.45C708.89,-517.35 1410.98,-500.88 1442,-468 1481.12,-426.53 1423.07,-363.32 1385.6,-329.77"/>
<polygon fill="black" stroke="black" points="1388.33,-326.64 1378.5,-322.69 1383.72,-331.91 1388.33,-326.64"/>
</g>
<!-- aggregator_factory -->
<g id="node13" class="node">
<title>aggregator_factory</title>
<ellipse fill="none" stroke="black" cx="1247" cy="-378" rx="77.19" ry="18"/>
<text text-anchor="middle" x="1247" y="-374.3" font-family="Times,serif" font-size="14.00">aggregator_factory</text>
</g>
<!-- coin&#45;&gt;aggregator_factory -->
<g id="edge15" class="edge">
<title>coin&#45;&gt;aggregator_factory</title>
<path fill="none" stroke="black" d="M561.37,-521.1C667.02,-521.1 1047.74,-517.6 1156,-468 1186.28,-454.13 1212.44,-425.75 1228.84,-404.75"/>
<polygon fill="black" stroke="black" points="1232.23,-407.07 1235.47,-396.98 1226.65,-402.85 1232.23,-407.07"/>
</g>
<!-- optional_aggregator -->
<g id="node14" class="node">
<title>optional_aggregator</title>
<ellipse fill="none" stroke="black" cx="1352" cy="-450" rx="81.49" ry="18"/>
<text text-anchor="middle" x="1352" y="-446.3" font-family="Times,serif" font-size="14.00">optional_aggregator</text>
</g>
<!-- coin&#45;&gt;optional_aggregator -->
<g id="edge16" class="edge">
<title>coin&#45;&gt;optional_aggregator</title>
<path fill="none" stroke="black" d="M561.05,-519.48C653.75,-514.14 967.14,-495.13 1225,-468 1241.06,-466.31 1258.23,-464.21 1274.58,-462.07"/>
<polygon fill="black" stroke="black" points="1274.73,-465.45 1284.19,-460.66 1273.81,-458.51 1274.73,-465.45"/>
</g>
<!-- option&#45;&gt;vector -->
<g id="edge17" class="edge">
<title>option&#45;&gt;vector</title>
<path fill="none" stroke="black" d="M553,-71.7C553,-64.24 553,-55.32 553,-46.97"/>
<polygon fill="black" stroke="black" points="556.5,-47.1 553,-37.1 549.5,-47.1 556.5,-47.1"/>
</g>
<!-- type_info&#45;&gt;string -->
<g id="edge18" class="edge">
<title>type_info&#45;&gt;string</title>
<path fill="none" stroke="black" d="M422.82,-220.81C391.37,-208.51 342.89,-189.55 310.11,-176.73"/>
<polygon fill="black" stroke="black" points="311.64,-173.18 301.05,-172.8 309.09,-179.7 311.64,-173.18"/>
</g>
<!-- type_info&#45;&gt;error -->
<g id="edge19" class="edge">
<title>type_info&#45;&gt;error</title>
<path fill="none" stroke="black" d="M471.41,-217.12C497.28,-193.89 545.05,-152.48 566,-144 657.01,-107.15 958.29,-95.15 1066.16,-91.98"/>
<polygon fill="black" stroke="black" points="1065.97,-95.46 1075.87,-91.68 1065.77,-88.46 1065.97,-95.46"/>
</g>
<!-- features -->
<g id="node15" class="node">
<title>features</title>
<ellipse fill="none" stroke="black" cx="461" cy="-162" rx="38.19" ry="18"/>
<text text-anchor="middle" x="461" y="-158.3" font-family="Times,serif" font-size="14.00">features</text>
</g>
<!-- type_info&#45;&gt;features -->
<g id="edge20" class="edge">
<title>type_info&#45;&gt;features</title>
<path fill="none" stroke="black" d="M455.73,-215.7C456.48,-208.24 457.37,-199.32 458.2,-190.97"/>
<polygon fill="black" stroke="black" points="461.78,-191.4 459.29,-181.1 454.81,-190.71 461.78,-191.4"/>
</g>
<!-- bcs -->
<g id="node16" class="node">
<title>bcs</title>
<ellipse fill="none" stroke="black" cx="602" cy="-162" rx="27" ry="18"/>
<text text-anchor="middle" x="602" y="-158.3" font-family="Times,serif" font-size="14.00">bcs</text>
</g>
<!-- type_info&#45;&gt;bcs -->
<g id="edge21" class="edge">
<title>type_info&#45;&gt;bcs</title>
<path fill="none" stroke="black" d="M482.19,-219.67C507.51,-207.69 544.63,-190.13 570.83,-177.74"/>
<polygon fill="black" stroke="black" points="572.09,-180.55 579.63,-173.11 569.1,-174.22 572.09,-180.55"/>
</g>
<!-- system_addresses&#45;&gt;signer -->
<g id="edge22" class="edge">
<title>system_addresses&#45;&gt;signer</title>
<path fill="none" stroke="black" d="M1056.75,-292.02C1020.5,-281.96 969.78,-267.2 926,-252 885.3,-237.87 876.25,-231.36 836,-216 748.52,-182.61 728.4,-168.39 638,-144 549.98,-120.25 444.22,-104.13 386.58,-96.35"/>
<polygon fill="black" stroke="black" points="387.09,-92.76 376.72,-94.91 386.17,-99.7 387.09,-92.76"/>
</g>
<!-- system_addresses&#45;&gt;error -->
<g id="edge23" class="edge">
<title>system_addresses&#45;&gt;error</title>
<path fill="none" stroke="black" d="M1105,-287.85C1105,-250.99 1105,-163.92 1105,-118.96"/>
<polygon fill="black" stroke="black" points="1108.5,-119.23 1105,-109.23 1101.5,-119.23 1108.5,-119.23"/>
</g>
<!-- event&#45;&gt;bcs -->
<g id="edge24" class="edge">
<title>event&#45;&gt;bcs</title>
<path fill="none" stroke="black" d="M243.21,-359.82C238.79,-339.88 235.31,-307.26 253,-288 330.14,-204.04 404.18,-301.26 507,-252 538.39,-236.96 566.39,-207.81 583.72,-186.97"/>
<polygon fill="black" stroke="black" points="586.91,-189.59 590.48,-179.61 581.47,-185.19 586.91,-189.59"/>
</g>
<!-- guid -->
<g id="node17" class="node">
<title>guid</title>
<ellipse fill="none" stroke="black" cx="289" cy="-306" rx="27" ry="18"/>
<text text-anchor="middle" x="289" y="-302.3" font-family="Times,serif" font-size="14.00">guid</text>
</g>
<!-- event&#45;&gt;guid -->
<g id="edge25" class="edge">
<title>event&#45;&gt;guid</title>
<path fill="none" stroke="black" d="M257.51,-360.76C262.43,-352.37 268.54,-341.93 274.07,-332.5"/>
<polygon fill="black" stroke="black" points="277.51,-334.55 279.54,-324.15 271.47,-331.01 277.51,-334.55"/>
</g>
<!-- account&#45;&gt;signer -->
<g id="edge28" class="edge">
<title>account&#45;&gt;signer</title>
<path fill="none" stroke="black" d="M611.31,-434.03C598.73,-423.71 581.95,-409.48 568,-396 552.39,-380.92 550.83,-374.85 535,-360 479.22,-307.66 445.22,-314.42 401,-252 371.74,-210.7 356.16,-152.89 349.02,-118.95"/>
<polygon fill="black" stroke="black" points="352.31,-118.54 346.92,-109.42 345.44,-119.91 352.31,-118.54"/>
</g>
<!-- account&#45;&gt;vector -->
<g id="edge26" class="edge">
<title>account&#45;&gt;vector</title>
<path fill="none" stroke="black" d="M667.99,-447.39C714.82,-443.83 795.29,-432.43 853,-396 899.07,-366.92 927.76,-339.84 911,-288 863.39,-140.78 673.43,-59.88 591.23,-31.16"/>
<polygon fill="black" stroke="black" points="592.66,-27.61 582.06,-27.69 590.39,-34.24 592.66,-27.61"/>
</g>
<!-- account&#45;&gt;option -->
<g id="edge27" class="edge">
<title>account&#45;&gt;option</title>
<path fill="none" stroke="black" d="M593.03,-445.24C535.27,-438.61 427.46,-422.92 401,-396 372.65,-367.16 382,-347.45 382,-307 382,-307 382,-307 382,-233 382,-190.97 384.56,-174.01 414,-144 439.69,-117.81 479.67,-104.37 510.17,-97.59"/>
<polygon fill="black" stroke="black" points="510.84,-100.82 519.93,-95.38 509.44,-93.96 510.84,-100.82"/>
</g>
<!-- account&#45;&gt;error -->
<g id="edge29" class="edge">
<title>account&#45;&gt;error</title>
<path fill="none" stroke="black" d="M667.97,-446.77C761.86,-440.89 1002.79,-423.52 1078,-396 1132.52,-376.05 1159.5,-375.13 1187,-324 1225.79,-251.9 1161.11,-157.75 1125.72,-114.54"/>
<polygon fill="black" stroke="black" points="1127.77,-112.53 1118.66,-107.12 1122.41,-117.03 1127.77,-112.53"/>
</g>
<!-- account&#45;&gt;type_info -->
<g id="edge31" class="edge">
<title>account&#45;&gt;type_info</title>
<path fill="none" stroke="black" d="M619.56,-432.34C607.82,-414.01 587.78,-383.97 568,-360 553.8,-342.79 548.19,-340.35 533,-324 513.06,-302.54 490.97,-277.55 475.23,-259.52"/>
<polygon fill="black" stroke="black" points="477.26,-257.52 468.05,-252.28 471.98,-262.12 477.26,-257.52"/>
</g>
<!-- account&#45;&gt;system_addresses -->
<g id="edge33" class="edge">
<title>account&#45;&gt;system_addresses</title>
<path fill="none" stroke="black" d="M668.48,-448.17C759.36,-445.59 984.31,-435.29 1047,-396 1069.76,-381.74 1085.39,-354.91 1094.64,-334.42"/>
<polygon fill="black" stroke="black" points="1098.22,-335.95 1098.9,-325.38 1091.77,-333.22 1098.22,-335.95"/>
</g>
<!-- account&#45;&gt;event -->
<g id="edge39" class="edge">
<title>account&#45;&gt;event</title>
<path fill="none" stroke="black" d="M592.45,-445.75C529.48,-439.71 398.99,-424.71 292,-396 288.78,-395.14 285.48,-394.12 282.19,-393.02"/>
<polygon fill="black" stroke="black" points="283.49,-389.4 272.9,-389.3 281.11,-395.99 283.49,-389.4"/>
</g>
<!-- account&#45;&gt;bcs -->
<g id="edge30" class="edge">
<title>account&#45;&gt;bcs</title>
<path fill="none" stroke="black" d="M628.29,-431.54C623.59,-383.56 610.46,-249.39 604.73,-190.88"/>
<polygon fill="black" stroke="black" points="608.14,-190.84 603.69,-181.23 601.18,-191.53 608.14,-190.84"/>
</g>
<!-- account&#45;&gt;guid -->
<g id="edge37" class="edge">
<title>account&#45;&gt;guid</title>
<path fill="none" stroke="black" d="M592.06,-446.63C520.79,-441.5 370.47,-427.21 330,-396 310.56,-381.01 300.01,-354.65 294.51,-334.49"/>
<polygon fill="black" stroke="black" points="297.72,-333.92 291.94,-325.04 290.93,-335.59 297.72,-333.92"/>
</g>
<!-- table -->
<g id="node18" class="node">
<title>table</title>
<ellipse fill="none" stroke="black" cx="986" cy="-306" rx="27.9" ry="18"/>
<text text-anchor="middle" x="986" y="-302.3" font-family="Times,serif" font-size="14.00">table</text>
</g>
<!-- account&#45;&gt;table -->
<g id="edge32" class="edge">
<title>account&#45;&gt;table</title>
<path fill="none" stroke="black" d="M668.43,-448.98C723.89,-447.37 828.04,-438.36 904,-396 918.89,-387.7 947.85,-354.16 967.06,-330.72"/>
<polygon fill="black" stroke="black" points="970.31,-333.27 973.9,-323.3 964.87,-328.86 970.31,-333.27"/>
</g>
<!-- hash -->
<g id="node19" class="node">
<title>hash</title>
<ellipse fill="none" stroke="black" cx="771" cy="-234" rx="27" ry="18"/>
<text text-anchor="middle" x="771" y="-230.3" font-family="Times,serif" font-size="14.00">hash</text>
</g>
<!-- account&#45;&gt;hash -->
<g id="edge34" class="edge">
<title>account&#45;&gt;hash</title>
<path fill="none" stroke="black" d="M668.43,-448.76C707.48,-446.21 766.2,-435.51 795,-396 824.27,-355.85 802.02,-294.91 785.2,-260.68"/>
<polygon fill="black" stroke="black" points="787.9,-259.26 780.22,-251.96 781.67,-262.46 787.9,-259.26"/>
</g>
<!-- ed25519 -->
<g id="node20" class="node">
<title>ed25519</title>
<ellipse fill="none" stroke="black" cx="861" cy="-306" rx="40.89" ry="18"/>
<text text-anchor="middle" x="861" y="-302.3" font-family="Times,serif" font-size="14.00">ed25519</text>
</g>
<!-- account&#45;&gt;ed25519 -->
<g id="edge35" class="edge">
<title>account&#45;&gt;ed25519</title>
<path fill="none" stroke="black" d="M668.43,-448.79C712.34,-446.5 783.8,-436.25 828,-396 845.21,-380.33 853.48,-354.85 857.43,-335.16"/>
<polygon fill="black" stroke="black" points="861.04,-335.8 859.29,-325.35 854.14,-334.61 861.04,-335.8"/>
</g>
<!-- multi_ed25519 -->
<g id="node21" class="node">
<title>multi_ed25519</title>
<ellipse fill="none" stroke="black" cx="722" cy="-378" rx="64.19" ry="18"/>
<text text-anchor="middle" x="722" y="-374.3" font-family="Times,serif" font-size="14.00">multi_ed25519</text>
</g>
<!-- account&#45;&gt;multi_ed25519 -->
<g id="edge36" class="edge">
<title>account&#45;&gt;multi_ed25519</title>
<path fill="none" stroke="black" d="M649.51,-434.15C661.92,-424.72 678.22,-412.31 692.22,-401.66"/>
<polygon fill="black" stroke="black" points="693.75,-404.13 699.59,-395.29 689.51,-398.56 693.75,-404.13"/>
</g>
<!-- from_bcs -->
<g id="node22" class="node">
<title>from_bcs</title>
<ellipse fill="none" stroke="black" cx="272" cy="-234" rx="44.39" ry="18"/>
<text text-anchor="middle" x="272" y="-230.3" font-family="Times,serif" font-size="14.00">from_bcs</text>
</g>
<!-- account&#45;&gt;from_bcs -->
<g id="edge38" class="edge">
<title>account&#45;&gt;from_bcs</title>
<path fill="none" stroke="black" d="M592.47,-445.79C528.43,-439.6 401.66,-424.11 368,-396 328.34,-362.89 353.41,-331.15 325,-288 317.81,-277.07 308.09,-266.55 298.94,-257.81"/>
<polygon fill="black" stroke="black" points="301.85,-255.81 292.12,-251.61 297.11,-260.96 301.85,-255.81"/>
</g>
<!-- create_signer -->
<g id="node23" class="node">
<title>create_signer</title>
<ellipse fill="none" stroke="black" cx="468" cy="-378" rx="57.69" ry="18"/>
<text text-anchor="middle" x="468" y="-374.3" font-family="Times,serif" font-size="14.00">create_signer</text>
</g>
<!-- account&#45;&gt;create_signer -->
<g id="edge40" class="edge">
<title>account&#45;&gt;create_signer</title>
<path fill="none" stroke="black" d="M602.52,-437.13C577.41,-426.27 539.87,-410.05 510.82,-397.5"/>
<polygon fill="black" stroke="black" points="512.51,-393.99 501.94,-393.23 509.73,-400.41 512.51,-393.99"/>
</g>
<!-- chain_id -->
<g id="node24" class="node">
<title>chain_id</title>
<ellipse fill="none" stroke="black" cx="997" cy="-378" rx="40.89" ry="18"/>
<text text-anchor="middle" x="997" y="-374.3" font-family="Times,serif" font-size="14.00">chain_id</text>
</g>
<!-- account&#45;&gt;chain_id -->
<g id="edge41" class="edge">
<title>account&#45;&gt;chain_id</title>
<path fill="none" stroke="black" d="M666.82,-444.34C725.5,-436.57 843.66,-419.44 942,-396 946.15,-395.01 950.44,-393.88 954.71,-392.68"/>
<polygon fill="black" stroke="black" points="955.59,-395.78 964.2,-389.61 953.62,-389.06 955.59,-395.78"/>
</g>
<!-- aggregator_factory&#45;&gt;error -->
<g id="edge42" class="edge">
<title>aggregator_factory&#45;&gt;error</title>
<path fill="none" stroke="black" d="M1250.25,-359.78C1257.06,-318.23 1268.51,-210.93 1220,-144 1201.77,-118.85 1168.62,-105.31 1142.59,-98.24"/>
<polygon fill="black" stroke="black" points="1143.47,-94.6 1132.92,-95.58 1141.78,-101.39 1143.47,-94.6"/>
</g>
<!-- aggregator_factory&#45;&gt;system_addresses -->
<g id="edge44" class="edge">
<title>aggregator_factory&#45;&gt;system_addresses</title>
<path fill="none" stroke="black" d="M1215.13,-361.29C1194.85,-351.29 1168.38,-338.24 1146.47,-327.44"/>
<polygon fill="black" stroke="black" points="1148.28,-323.94 1137.76,-322.66 1145.18,-330.22 1148.28,-323.94"/>
</g>
<!-- aggregator_factory&#45;&gt;aggregator -->
<g id="edge45" class="edge">
<title>aggregator_factory&#45;&gt;aggregator</title>
<path fill="none" stroke="black" d="M1273.02,-360.59C1288.7,-350.7 1308.8,-338.02 1325.52,-327.48"/>
<polygon fill="black" stroke="black" points="1326.82,-330.17 1333.41,-321.88 1323.08,-324.25 1326.82,-330.17"/>
</g>
<!-- aggregator_factory&#45;&gt;table -->
<g id="edge43" class="edge">
<title>aggregator_factory&#45;&gt;table</title>
<path fill="none" stroke="black" d="M1187.61,-366.29C1141.93,-357.26 1077.6,-342.79 1023,-324 1021.25,-323.4 1019.48,-322.74 1017.7,-322.05"/>
<polygon fill="black" stroke="black" points="1019.19,-318.46 1008.62,-317.8 1016.47,-324.91 1019.19,-318.46"/>
</g>
<!-- optional_aggregator&#45;&gt;option -->
<g id="edge46" class="edge">
<title>optional_aggregator&#45;&gt;option</title>
<path fill="none" stroke="black" d="M1352.58,-431.76C1352.36,-412.35 1349.21,-380.82 1333,-360 1288.56,-302.91 1254.2,-314.82 1187,-288 968.29,-200.72 694.87,-127.28 593.36,-101.18"/>
<polygon fill="black" stroke="black" points="594.52,-97.6 583.96,-98.51 592.78,-104.39 594.52,-97.6"/>
</g>
<!-- optional_aggregator&#45;&gt;error -->
<g id="edge47" class="edge">
<title>optional_aggregator&#45;&gt;error</title>
<path fill="none" stroke="black" d="M1367.6,-432.26C1393.19,-402.68 1438.93,-339.43 1415,-288 1362.79,-175.77 1211.52,-120.47 1141.43,-100.3"/>
<polygon fill="black" stroke="black" points="1142.48,-96.68 1131.91,-97.36 1140.6,-103.42 1142.48,-96.68"/>
</g>
<!-- optional_aggregator&#45;&gt;aggregator -->
<g id="edge48" class="edge">
<title>optional_aggregator&#45;&gt;aggregator</title>
<path fill="none" stroke="black" d="M1357.82,-431.56C1360.93,-421.33 1364.43,-408.08 1366,-396 1368.64,-375.68 1366.43,-352.64 1363.66,-335.09"/>
<polygon fill="black" stroke="black" points="1366.97,-334.69 1361.82,-325.44 1360.08,-335.89 1366.97,-334.69"/>
</g>
<!-- optional_aggregator&#45;&gt;aggregator_factory -->
<g id="edge49" class="edge">
<title>optional_aggregator&#45;&gt;aggregator_factory</title>
<path fill="none" stroke="black" d="M1327.12,-432.41C1313.26,-423.17 1295.8,-411.54 1280.73,-401.49"/>
<polygon fill="black" stroke="black" points="1282.97,-398.1 1272.7,-395.47 1279.08,-403.93 1282.97,-398.1"/>
</g>
<!-- features&#45;&gt;signer -->
<g id="edge50" class="edge">
<title>features&#45;&gt;signer</title>
<path fill="none" stroke="black" d="M437.88,-147.17C419.8,-136.35 394.49,-121.21 374.7,-109.37"/>
<polygon fill="black" stroke="black" points="376.87,-105.99 366.49,-103.86 373.27,-111.99 376.87,-105.99"/>
</g>
<!-- features&#45;&gt;error -->
<g id="edge51" class="edge">
<title>features&#45;&gt;error</title>
<path fill="none" stroke="black" d="M491.66,-150.97C500.7,-148.34 510.68,-145.75 520,-144 723.22,-105.88 971.5,-94.89 1065.98,-91.98"/>
<polygon fill="black" stroke="black" points="1065.84,-95.45 1075.73,-91.66 1065.63,-88.46 1065.84,-95.45"/>
</g>
<!-- ed25519&#45;&gt;option -->
<g id="edge52" class="edge">
<title>ed25519&#45;&gt;option</title>
<path fill="none" stroke="black" d="M860.23,-287.7C858.51,-268.24 853.07,-236.66 836,-216 774.04,-141 658.09,-109.56 595.56,-97.58"/>
<polygon fill="black" stroke="black" points="596.37,-93.98 585.9,-95.62 595.11,-100.87 596.37,-93.98"/>
</g>
<!-- ed25519&#45;&gt;error -->
<g id="edge53" class="edge">
<title>ed25519&#45;&gt;error</title>
<path fill="none" stroke="black" d="M878.55,-289.61C921.43,-252 1031.61,-155.36 1080.74,-112.28"/>
<polygon fill="black" stroke="black" points="1082.69,-114.35 1087.9,-105.12 1078.07,-109.09 1082.69,-114.35"/>
</g>
<!-- ed25519&#45;&gt;type_info -->
<g id="edge55" class="edge">
<title>ed25519&#45;&gt;type_info</title>
<path fill="none" stroke="black" d="M823.44,-298.54C750.18,-285.94 588.13,-258.07 505.15,-243.8"/>
<polygon fill="black" stroke="black" points="505.91,-240.21 495.47,-241.96 504.73,-247.1 505.91,-240.21"/>
</g>
<!-- ed25519&#45;&gt;bcs -->
<g id="edge54" class="edge">
<title>ed25519&#45;&gt;bcs</title>
<path fill="none" stroke="black" d="M855.16,-287.82C847.38,-267.56 831.66,-234.33 807,-216 757.33,-179.08 684.34,-167.8 640.17,-164.4"/>
<polygon fill="black" stroke="black" points="640.54,-160.85 630.33,-163.68 640.08,-167.84 640.54,-160.85"/>
</g>
<!-- ed25519&#45;&gt;hash -->
<g id="edge56" class="edge">
<title>ed25519&#45;&gt;hash</title>
<path fill="none" stroke="black" d="M841.47,-289.81C828.28,-279.55 810.75,-265.91 796.47,-254.81"/>
<polygon fill="black" stroke="black" points="799.11,-251.65 789.06,-248.27 794.81,-257.17 799.11,-251.65"/>
</g>
<!-- multi_ed25519&#45;&gt;option -->
<g id="edge57" class="edge">
<title>multi_ed25519&#45;&gt;option</title>
<path fill="none" stroke="black" d="M715.43,-359.85C711.49,-349.48 706.4,-336 702,-324 672.79,-244.28 691.22,-210.16 638,-144 624.97,-127.8 605.57,-115.17 588.6,-106.32"/>
<polygon fill="black" stroke="black" points="590.47,-102.84 579.95,-101.54 587.36,-109.11 590.47,-102.84"/>
</g>
<!-- multi_ed25519&#45;&gt;error -->
<g id="edge58" class="edge">
<title>multi_ed25519&#45;&gt;error</title>
<path fill="none" stroke="black" d="M717.77,-359.55C711.07,-327.42 701.96,-258.33 735,-216 816.42,-111.7 988.72,-93.78 1066.03,-91.15"/>
<polygon fill="black" stroke="black" points="1065.82,-94.63 1075.72,-90.87 1065.63,-87.63 1065.82,-94.63"/>
</g>
<!-- multi_ed25519&#45;&gt;features -->
<g id="edge59" class="edge">
<title>multi_ed25519&#45;&gt;features</title>
<path fill="none" stroke="black" d="M696.5,-361.12C680.72,-351 660.25,-337.32 643,-324 583.59,-278.12 518.85,-218.25 484.88,-185.99"/>
<polygon fill="black" stroke="black" points="487.59,-183.78 477.93,-179.41 482.76,-188.84 487.59,-183.78"/>
</g>
<!-- multi_ed25519&#45;&gt;bcs -->
<g id="edge60" class="edge">
<title>multi_ed25519&#45;&gt;bcs</title>
<path fill="none" stroke="black" d="M699.82,-360.86C687.89,-351.26 673.69,-338.19 664,-324 648.68,-301.56 623.93,-230.05 610.82,-190.3"/>
<polygon fill="black" stroke="black" points="613.88,-189.42 607.44,-181 607.23,-191.6 613.88,-189.42"/>
</g>
<!-- multi_ed25519&#45;&gt;hash -->
<g id="edge61" class="edge">
<title>multi_ed25519&#45;&gt;hash</title>
<path fill="none" stroke="black" d="M728.01,-359.59C736.44,-335.16 751.85,-290.49 761.75,-261.81"/>
<polygon fill="black" stroke="black" points="765.29,-263.27 765.25,-252.67 758.68,-260.98 765.29,-263.27"/>
</g>
<!-- multi_ed25519&#45;&gt;ed25519 -->
<g id="edge62" class="edge">
<title>multi_ed25519&#45;&gt;ed25519</title>
<path fill="none" stroke="black" d="M752.16,-361.81C773.72,-350.95 802.82,-336.3 825.5,-324.88"/>
<polygon fill="black" stroke="black" points="826.75,-327.67 834.1,-320.04 823.6,-321.41 826.75,-327.67"/>
</g>
<!-- from_bcs&#45;&gt;string -->
<g id="edge63" class="edge">
<title>from_bcs&#45;&gt;string</title>
<path fill="none" stroke="black" d="M272.74,-215.7C273.06,-208.24 273.44,-199.32 273.8,-190.97"/>
<polygon fill="black" stroke="black" points="277.34,-191.25 274.27,-181.1 270.34,-190.95 277.34,-191.25"/>
</g>
<!-- chain_id&#45;&gt;system_addresses -->
<g id="edge64" class="edge">
<title>chain_id&#45;&gt;system_addresses</title>
<path fill="none" stroke="black" d="M1019.38,-362.5C1034.29,-352.83 1054.16,-339.95 1071.01,-329.03"/>
<polygon fill="black" stroke="black" points="1072.52,-331.57 1079.01,-323.2 1068.71,-325.7 1072.52,-331.57"/>
</g>
</g>
</svg>
