<?xml version="1.0" encoding="UTF-8" standalone="no"?>
<!DOCTYPE svg PUBLIC "-//W3C//DTD SVG 1.1//EN"
 "http://www.w3.org/Graphics/SVG/1.1/DTD/svg11.dtd">
<!-- Generated by graphviz version 9.0.0 (20230911.1827)
 -->
<!-- Title: G Pages: 1 -->
<svg width="1536pt" height="620pt"
 viewBox="0.00 0.00 1536.00 620.00" xmlns="http://www.w3.org/2000/svg" xmlns:xlink="http://www.w3.org/1999/xlink">
<g id="graph0" class="graph" transform="scale(1 1) rotate(0) translate(4 616)">
<title>G</title>
<polygon fill="white" stroke="none" points="-4,4 -4,-616 1532,-616 1532,4 -4,4"/>
<!-- assets -->
<g id="node1" class="node">
<title>assets</title>
<ellipse fill="none" stroke="black" cx="76" cy="-594" rx="32.41" ry="18"/>
<text text-anchor="middle" x="76" y="-588.95" font-family="Times,serif" font-size="14.00">assets</text>
</g>
<!-- string -->
<g id="node2" class="node">
<title>string</title>
<ellipse fill="none" stroke="black" cx="276" cy="-162" rx="31.9" ry="18"/>
<text text-anchor="middle" x="276" y="-156.95" font-family="Times,serif" font-size="14.00">string</text>
</g>
<!-- assets&#45;&gt;string -->
<g id="edge1" class="edge">
<title>assets&#45;&gt;string</title>
<path fill="none" stroke="black" d="M74.65,-575.67C71.07,-516.84 67.54,-322.46 166,-216 184.92,-195.54 213.43,-182.11 236.68,-173.89"/>
<polygon fill="black" stroke="black" points="237.78,-177.22 246.17,-170.75 235.57,-170.57 237.78,-177.22"/>
</g>
<!-- signer -->
<g id="node3" class="node">
<title>signer</title>
<ellipse fill="none" stroke="black" cx="346" cy="-90" rx="33.44" ry="18"/>
<text text-anchor="middle" x="346" y="-84.95" font-family="Times,serif" font-size="14.00">signer</text>
</g>
<!-- assets&#45;&gt;signer -->
<g id="edge2" class="edge">
<title>assets&#45;&gt;signer</title>
<path fill="none" stroke="black" d="M61.35,-577.83C39.26,-553.3 0,-502.45 0,-451 0,-451 0,-451 0,-233 0,-186.03 18,-170.18 57,-144 96.36,-117.57 230.96,-101.58 301.71,-94.8"/>
<polygon fill="black" stroke="black" points="301.77,-98.31 311.4,-93.89 301.12,-91.34 301.77,-98.31"/>
</g>
<!-- coin -->
<g id="node4" class="node">
<title>coin</title>
<ellipse fill="none" stroke="black" cx="539" cy="-522" rx="27" ry="18"/>
<text text-anchor="middle" x="539" y="-516.95" font-family="Times,serif" font-size="14.00">coin</text>
</g>
<!-- assets&#45;&gt;coin -->
<g id="edge3" class="edge">
<title>assets&#45;&gt;coin</title>
<path fill="none" stroke="black" d="M107.1,-588.3C189.37,-575.86 412.52,-542.12 501.57,-528.66"/>
<polygon fill="black" stroke="black" points="501.87,-532.15 511.23,-527.2 500.82,-525.23 501.87,-532.15"/>
</g>
<!-- vector -->
<g id="node5" class="node">
<title>vector</title>
<ellipse fill="none" stroke="black" cx="558" cy="-18" rx="33.95" ry="18"/>
<text text-anchor="middle" x="558" y="-12.95" font-family="Times,serif" font-size="14.00">vector</text>
</g>
<!-- string&#45;&gt;vector -->
<g id="edge4" class="edge">
<title>string&#45;&gt;vector</title>
<path fill="none" stroke="black" d="M276.47,-143.52C278.01,-123.28 283.71,-90.37 304,-72 334.18,-44.67 448.36,-29.51 512.88,-22.96"/>
<polygon fill="black" stroke="black" points="513.21,-26.45 522.82,-21.99 512.52,-19.48 513.21,-26.45"/>
</g>
<!-- option -->
<g id="node6" class="node">
<title>option</title>
<ellipse fill="none" stroke="black" cx="558" cy="-90" rx="34.46" ry="18"/>
<text text-anchor="middle" x="558" y="-84.95" font-family="Times,serif" font-size="14.00">option</text>
</g>
<!-- string&#45;&gt;option -->
<g id="edge5" class="edge">
<title>string&#45;&gt;option</title>
<path fill="none" stroke="black" d="M304.85,-153.84C354.99,-141.39 458.38,-115.73 516.32,-101.35"/>
<polygon fill="black" stroke="black" points="516.94,-104.8 525.8,-98.99 515.25,-98.01 516.94,-104.8"/>
</g>
<!-- coin&#45;&gt;string -->
<g id="edge7" class="edge">
<title>coin&#45;&gt;string</title>
<path fill="none" stroke="black" d="M511.55,-521.61C456.53,-521.7 330.2,-516.16 239,-468 190.09,-442.17 152,-434.32 152,-379 152,-379 152,-379 152,-305 152,-248.97 207.46,-204.37 244.2,-180.98"/>
<polygon fill="black" stroke="black" points="245.58,-184.24 252.26,-176.01 241.91,-178.28 245.58,-184.24"/>
</g>
<!-- coin&#45;&gt;signer -->
<g id="edge8" class="edge">
<title>coin&#45;&gt;signer</title>
<path fill="none" stroke="black" d="M511.82,-520.06C436.66,-517.01 227.9,-505.29 172,-468 102.69,-421.77 76,-390.31 76,-307 76,-307 76,-307 76,-233 76,-132.37 224.72,-102.89 301.41,-94.38"/>
<polygon fill="black" stroke="black" points="301.53,-97.89 311.12,-93.39 300.81,-90.93 301.53,-97.89"/>
</g>
<!-- coin&#45;&gt;option -->
<g id="edge6" class="edge">
<title>coin&#45;&gt;option</title>
<path fill="none" stroke="black" d="M511.64,-520.58C426.85,-518.82 169.99,-510.07 100,-468 58.68,-443.16 38,-427.21 38,-379 38,-379 38,-379 38,-233 38,-136.92 143.03,-171.79 235,-144 331.53,-114.83 449.44,-100.63 512.7,-94.67"/>
<polygon fill="black" stroke="black" points="512.71,-98.18 522.35,-93.79 512.08,-91.21 512.71,-98.18"/>
</g>
<!-- error -->
<g id="node7" class="node">
<title>error</title>
<ellipse fill="none" stroke="black" cx="1121" cy="-90" rx="28.83" ry="18"/>
<text text-anchor="middle" x="1121" y="-84.95" font-family="Times,serif" font-size="14.00">error</text>
</g>
<!-- coin&#45;&gt;error -->
<g id="edge9" class="edge">
<title>coin&#45;&gt;error</title>
<path fill="none" stroke="black" d="M566.44,-521.19C714.44,-521.96 1413.75,-522.71 1491,-468 1525.96,-443.24 1528,-421.84 1528,-379 1528,-379 1528,-379 1528,-233 1528,-155.7 1263,-110.69 1160.66,-96.19"/>
<polygon fill="black" stroke="black" points="1161.18,-92.73 1150.8,-94.82 1160.22,-99.66 1161.18,-92.73"/>
</g>
<!-- type_info -->
<g id="node8" class="node">
<title>type_info</title>
<ellipse fill="none" stroke="black" cx="458" cy="-234" rx="46.23" ry="18"/>
<text text-anchor="middle" x="458" y="-228.95" font-family="Times,serif" font-size="14.00">type_info</text>
</g>
<!-- coin&#45;&gt;type_info -->
<g id="edge10" class="edge">
<title>coin&#45;&gt;type_info</title>
<path fill="none" stroke="black" d="M511.87,-520.75C445.42,-518.46 275.14,-502.04 209,-396 182.7,-353.83 200.38,-320.48 238,-288 262.48,-266.86 346.48,-250.99 403.31,-242.36"/>
<polygon fill="black" stroke="black" points="403.77,-245.83 413.14,-240.9 402.74,-238.9 403.77,-245.83"/>
</g>
<!-- system_addresses -->
<g id="node9" class="node">
<title>system_addresses</title>
<ellipse fill="none" stroke="black" cx="1121" cy="-306" rx="76.94" ry="18"/>
<text text-anchor="middle" x="1121" y="-300.95" font-family="Times,serif" font-size="14.00">system_addresses</text>
</g>
<!-- coin&#45;&gt;system_addresses -->
<g id="edge11" class="edge">
<title>coin&#45;&gt;system_addresses</title>
<path fill="none" stroke="black" d="M565.81,-518.5C665.74,-508.67 1014.88,-469.55 1094,-396 1110.55,-380.61 1117.08,-355.45 1119.59,-335.8"/>
<polygon fill="black" stroke="black" points="1123.07,-336.21 1120.54,-325.92 1116.1,-335.54 1123.07,-336.21"/>
</g>
<!-- event -->
<g id="node10" class="node">
<title>event</title>
<ellipse fill="none" stroke="black" cx="249" cy="-378" rx="30.88" ry="18"/>
<text text-anchor="middle" x="249" y="-372.95" font-family="Times,serif" font-size="14.00">event</text>
</g>
<!-- coin&#45;&gt;event -->
<g id="edge12" class="edge">
<title>coin&#45;&gt;event</title>
<path fill="none" stroke="black" d="M517.68,-510.56C467.58,-486.03 342.08,-424.58 282.03,-395.17"/>
<polygon fill="black" stroke="black" points="283.83,-392.16 273.31,-390.9 280.75,-398.44 283.83,-392.16"/>
</g>
<!-- account -->
<g id="node11" class="node">
<title>account</title>
<ellipse fill="none" stroke="black" cx="636" cy="-450" rx="39.58" ry="18"/>
<text text-anchor="middle" x="636" y="-444.95" font-family="Times,serif" font-size="14.00">account</text>
</g>
<!-- coin&#45;&gt;account -->
<g id="edge13" class="edge">
<title>coin&#45;&gt;account</title>
<path fill="none" stroke="black" d="M556.79,-508.16C570.69,-498.13 590.31,-483.98 606.54,-472.26"/>
<polygon fill="black" stroke="black" points="608.35,-475.27 614.41,-466.58 604.25,-469.6 608.35,-475.27"/>
</g>
<!-- aggregator -->
<g id="node12" class="node">
<title>aggregator</title>
<ellipse fill="none" stroke="black" cx="1380" cy="-306" rx="50.33" ry="18"/>
<text text-anchor="middle" x="1380" y="-300.95" font-family="Times,serif" font-size="14.00">aggregator</text>
</g>
<!-- coin&#45;&gt;aggregator -->
<g id="edge14" class="edge">
<title>coin&#45;&gt;aggregator</title>
<path fill="none" stroke="black" d="M566.33,-520.49C716.74,-517.55 1438.14,-501.72 1470,-468 1509.66,-426.02 1448.77,-363.28 1409.32,-329.87"/>
<polygon fill="black" stroke="black" points="1411.89,-327.45 1401.95,-323.77 1407.43,-332.85 1411.89,-327.45"/>
</g>
<!-- aggregator_factory -->
<g id="node13" class="node">
<title>aggregator_factory</title>
<ellipse fill="none" stroke="black" cx="1267" cy="-378" rx="81.04" ry="18"/>
<text text-anchor="middle" x="1267" y="-372.95" font-family="Times,serif" font-size="14.00">aggregator_factory</text>
</g>
<!-- coin&#45;&gt;aggregator_factory -->
<g id="edge15" class="edge">
<title>coin&#45;&gt;aggregator_factory</title>
<path fill="none" stroke="black" d="M566.46,-521.07C673.34,-521 1061.14,-517.26 1172,-468 1203.12,-454.17 1230.52,-425.78 1247.8,-404.77"/>
<polygon fill="black" stroke="black" points="1250.35,-407.18 1253.84,-397.18 1244.88,-402.82 1250.35,-407.18"/>
</g>
<!-- optional_aggregator -->
<g id="node14" class="node">
<title>optional_aggregator</title>
<ellipse fill="none" stroke="black" cx="1376" cy="-450" rx="85.13" ry="18"/>
<text text-anchor="middle" x="1376" y="-444.95" font-family="Times,serif" font-size="14.00">optional_aggregator</text>
</g>
<!-- coin&#45;&gt;optional_aggregator -->
<g id="edge16" class="edge">
<title>coin&#45;&gt;optional_aggregator</title>
<path fill="none" stroke="black" d="M565.94,-519.49C659.68,-514.13 980.25,-494.88 1244,-468 1260.59,-466.31 1278.32,-464.22 1295.23,-462.09"/>
<polygon fill="black" stroke="black" points="1295.23,-465.62 1304.7,-460.88 1294.34,-458.68 1295.23,-465.62"/>
</g>
<!-- option&#45;&gt;vector -->
<g id="edge17" class="edge">
<title>option&#45;&gt;vector</title>
<path fill="none" stroke="black" d="M558,-71.7C558,-64.41 558,-55.73 558,-47.54"/>
<polygon fill="black" stroke="black" points="561.5,-47.62 558,-37.62 554.5,-47.62 561.5,-47.62"/>
</g>
<!-- type_info&#45;&gt;string -->
<g id="edge18" class="edge">
<title>type_info&#45;&gt;string</title>
<path fill="none" stroke="black" d="M425.88,-220.65C394.16,-208.45 345.71,-189.81 312.53,-177.05"/>
<polygon fill="black" stroke="black" points="313.92,-173.83 303.33,-173.51 311.4,-180.37 313.92,-173.83"/>
</g>
<!-- type_info&#45;&gt;error -->
<g id="edge19" class="edge">
<title>type_info&#45;&gt;error</title>
<path fill="none" stroke="black" d="M475.75,-217.11C502.11,-193.88 550.78,-152.47 572,-144 664.68,-107.03 970.3,-95.13 1080.74,-91.98"/>
<polygon fill="black" stroke="black" points="1080.6,-95.49 1090.5,-91.71 1080.41,-88.49 1080.6,-95.49"/>
</g>
<!-- features -->
<g id="node15" class="node">
<title>features</title>
<ellipse fill="none" stroke="black" cx="465" cy="-162" rx="40.09" ry="18"/>
<text text-anchor="middle" x="465" y="-156.95" font-family="Times,serif" font-size="14.00">features</text>
</g>
<!-- type_info&#45;&gt;features -->
<g id="edge20" class="edge">
<title>type_info&#45;&gt;features</title>
<path fill="none" stroke="black" d="M459.73,-215.7C460.46,-208.41 461.33,-199.73 462.15,-191.54"/>
<polygon fill="black" stroke="black" points="465.63,-191.91 463.14,-181.61 458.66,-191.21 465.63,-191.91"/>
</g>
<!-- bcs -->
<g id="node16" class="node">
<title>bcs</title>
<ellipse fill="none" stroke="black" cx="608" cy="-162" rx="27" ry="18"/>
<text text-anchor="middle" x="608" y="-156.95" font-family="Times,serif" font-size="14.00">bcs</text>
</g>
<!-- type_info&#45;&gt;bcs -->
<g id="edge21" class="edge">
<title>type_info&#45;&gt;bcs</title>
<path fill="none" stroke="black" d="M486.92,-219.5C512.51,-207.56 549.79,-190.17 576.21,-177.84"/>
<polygon fill="black" stroke="black" points="577.5,-181.1 585.08,-173.7 574.54,-174.75 577.5,-181.1"/>
</g>
<!-- system_addresses&#45;&gt;signer -->
<g id="edge22" class="edge">
<title>system_addresses&#45;&gt;signer</title>
<path fill="none" stroke="black" d="M1070.16,-292.13C1032.3,-282.17 979.52,-267.51 934,-252 893.22,-238.11 884.27,-231.3 844,-216 755.68,-182.45 735.28,-168.36 644,-144 555.18,-120.3 448.58,-104.24 389.99,-96.45"/>
<polygon fill="black" stroke="black" points="390.45,-92.98 380.09,-95.15 389.55,-99.92 390.45,-92.98"/>
</g>
<!-- system_addresses&#45;&gt;error -->
<g id="edge23" class="edge">
<title>system_addresses&#45;&gt;error</title>
<path fill="none" stroke="black" d="M1121,-287.85C1121,-251.14 1121,-164.66 1121,-119.53"/>
<polygon fill="black" stroke="black" points="1124.5,-119.75 1121,-109.75 1117.5,-119.75 1124.5,-119.75"/>
</g>
<!-- event&#45;&gt;bcs -->
<g id="edge24" class="edge">
<title>event&#45;&gt;bcs</title>
<path fill="none" stroke="black" d="M244.43,-359.79C240.26,-339.81 237.17,-307.15 255,-288 333.9,-203.27 408.53,-301.91 513,-252 544.12,-237.13 571.9,-208.36 589.26,-187.54"/>
<polygon fill="black" stroke="black" points="591.96,-189.77 595.53,-179.8 586.52,-185.37 591.96,-189.77"/>
</g>
<!-- guid -->
<g id="node17" class="node">
<title>guid</title>
<ellipse fill="none" stroke="black" cx="291" cy="-306" rx="27.3" ry="18"/>
<text text-anchor="middle" x="291" y="-300.95" font-family="Times,serif" font-size="14.00">guid</text>
</g>
<!-- event&#45;&gt;guid -->
<g id="edge25" class="edge">
<title>event&#45;&gt;guid</title>
<path fill="none" stroke="black" d="M258.74,-360.76C263.72,-352.46 269.91,-342.15 275.52,-332.79"/>
<polygon fill="black" stroke="black" points="278.39,-334.82 280.53,-324.45 272.39,-331.22 278.39,-334.82"/>
</g>
<!-- account&#45;&gt;signer -->
<g id="edge28" class="edge">
<title>account&#45;&gt;signer</title>
<path fill="none" stroke="black" d="M617.03,-433.8C604.48,-423.5 587.85,-409.38 574,-396 558.39,-380.92 556.93,-374.74 541,-360 483.83,-307.11 448.47,-315.23 403,-252 373.42,-210.87 357.93,-152.93 350.91,-118.93"/>
<polygon fill="black" stroke="black" points="354.41,-118.6 349.05,-109.46 347.54,-119.95 354.41,-118.6"/>
</g>
<!-- account&#45;&gt;vector -->
<g id="edge26" class="edge">
<title>account&#45;&gt;vector</title>
<path fill="none" stroke="black" d="M675.53,-447.78C723.78,-444.6 806.2,-433.57 865,-396 910.56,-366.89 938.1,-339.29 921,-288 871.85,-140.56 681.32,-60.2 597.71,-31.42"/>
<polygon fill="black" stroke="black" points="598.91,-28.13 588.32,-28.25 596.68,-34.76 598.91,-28.13"/>
</g>
<!-- account&#45;&gt;option -->
<g id="edge27" class="edge">
<title>account&#45;&gt;option</title>
<path fill="none" stroke="black" d="M597.44,-445.23C538.45,-438.66 429.81,-423.17 403,-396 374.59,-367.21 384,-347.45 384,-307 384,-307 384,-307 384,-233 384,-190.97 386.46,-173.9 416,-144 442.11,-117.58 482.6,-104.18 513.67,-97.48"/>
<polygon fill="black" stroke="black" points="514.04,-100.97 523.17,-95.59 512.68,-94.1 514.04,-100.97"/>
</g>
<!-- account&#45;&gt;error -->
<g id="edge29" class="edge">
<title>account&#45;&gt;error</title>
<path fill="none" stroke="black" d="M675.14,-446.73C771.31,-440.8 1016.97,-423.36 1094,-396 1122.06,-386.04 1192.68,-350.11 1207,-324 1246.59,-251.82 1179.3,-157.71 1142.52,-114.52"/>
<polygon fill="black" stroke="black" points="1145.39,-112.49 1136.18,-107.25 1140.12,-117.09 1145.39,-112.49"/>
</g>
<!-- account&#45;&gt;type_info -->
<g id="edge31" class="edge">
<title>account&#45;&gt;type_info</title>
<path fill="none" stroke="black" d="M625.63,-432.29C613.93,-413.91 593.94,-383.83 574,-360 559.48,-342.65 553.57,-340.42 538,-324 517.73,-302.62 495.37,-277.62 479.46,-259.57"/>
<polygon fill="black" stroke="black" points="482.43,-257.65 473.2,-252.45 477.17,-262.27 482.43,-257.65"/>
</g>
<!-- account&#45;&gt;system_addresses -->
<g id="edge33" class="edge">
<title>account&#45;&gt;system_addresses</title>
<path fill="none" stroke="black" d="M675.75,-448.27C769.01,-445.91 998.85,-436.07 1063,-396 1085.67,-381.84 1101.26,-355.18 1110.53,-334.72"/>
<polygon fill="black" stroke="black" points="1113.63,-336.36 1114.32,-325.79 1107.19,-333.62 1113.63,-336.36"/>
</g>
<!-- account&#45;&gt;event -->
<g id="edge39" class="edge">
<title>account&#45;&gt;event</title>
<path fill="none" stroke="black" d="M597.25,-445.64C533.29,-439.5 401.93,-424.42 294,-396 290.82,-395.16 287.55,-394.18 284.3,-393.12"/>
<polygon fill="black" stroke="black" points="285.48,-389.82 274.88,-389.79 283.15,-396.42 285.48,-389.82"/>
</g>
<!-- account&#45;&gt;bcs -->
<g id="edge30" class="edge">
<title>account&#45;&gt;bcs</title>
<path fill="none" stroke="black" d="M634.29,-431.54C629.61,-383.76 616.57,-250.51 610.8,-191.61"/>
<polygon fill="black" stroke="black" points="614.29,-191.35 609.83,-181.74 607.33,-192.03 614.29,-191.35"/>
</g>
<!-- account&#45;&gt;guid -->
<g id="edge37" class="edge">
<title>account&#45;&gt;guid</title>
<path fill="none" stroke="black" d="M596.71,-446.64C524.17,-441.57 372.87,-427.45 332,-396 312.73,-381.17 302.19,-355.15 296.65,-335.06"/>
<polygon fill="black" stroke="black" points="300.09,-334.39 294.3,-325.52 293.29,-336.07 300.09,-334.39"/>
</g>
<!-- table -->
<g id="node18" class="node">
<title>table</title>
<ellipse fill="none" stroke="black" cx="997" cy="-306" rx="28.83" ry="18"/>
<text text-anchor="middle" x="997" y="-300.95" font-family="Times,serif" font-size="14.00">table</text>
</g>
<!-- account&#45;&gt;table -->
<g id="edge32" class="edge">
<title>account&#45;&gt;table</title>
<path fill="none" stroke="black" d="M675.78,-449.23C732.61,-447.91 838.7,-439.21 916,-396 943.27,-380.76 966.32,-352.96 980.77,-332.47"/>
<polygon fill="black" stroke="black" points="983.57,-334.57 986.31,-324.34 977.79,-330.63 983.57,-334.57"/>
</g>
<!-- hash -->
<g id="node19" class="node">
<title>hash</title>
<ellipse fill="none" stroke="black" cx="778" cy="-234" rx="27.81" ry="18"/>
<text text-anchor="middle" x="778" y="-228.95" font-family="Times,serif" font-size="14.00">hash</text>
</g>
<!-- account&#45;&gt;hash -->
<g id="edge34" class="edge">
<title>account&#45;&gt;hash</title>
<path fill="none" stroke="black" d="M675.78,-449.23C716.21,-447.05 777.04,-436.66 807,-396 822.29,-375.25 801.32,-302.99 787.82,-262.69"/>
<polygon fill="black" stroke="black" points="791.2,-261.77 784.66,-253.44 784.58,-264.03 791.2,-261.77"/>
</g>
<!-- ed25519 -->
<g id="node20" class="node">
<title>ed25519</title>
<ellipse fill="none" stroke="black" cx="869" cy="-306" rx="42.65" ry="18"/>
<text text-anchor="middle" x="869" y="-300.95" font-family="Times,serif" font-size="14.00">ed25519</text>
</g>
<!-- account&#45;&gt;ed25519 -->
<g id="edge35" class="edge">
<title>account&#45;&gt;ed25519</title>
<path fill="none" stroke="black" d="M675.87,-449.45C721.36,-447.79 795.23,-438.13 840,-396 856.56,-380.41 863.68,-355.27 866.74,-335.68"/>
<polygon fill="black" stroke="black" points="870.2,-336.19 867.97,-325.83 863.25,-335.32 870.2,-336.19"/>
</g>
<!-- multi_ed25519 -->
<g id="node21" class="node">
<title>multi_ed25519</title>
<ellipse fill="none" stroke="black" cx="731" cy="-378" rx="67.22" ry="18"/>
<text text-anchor="middle" x="731" y="-372.95" font-family="Times,serif" font-size="14.00">multi_ed25519</text>
</g>
<!-- account&#45;&gt;multi_ed25519 -->
<g id="edge36" class="edge">
<title>account&#45;&gt;multi_ed25519</title>
<path fill="none" stroke="black" d="M656.15,-434.15C668.84,-424.81 685.47,-412.54 699.84,-401.96"/>
<polygon fill="black" stroke="black" points="701.7,-404.94 707.67,-396.19 697.55,-399.3 701.7,-404.94"/>
</g>
<!-- from_bcs -->
<g id="node22" class="node">
<title>from_bcs</title>
<ellipse fill="none" stroke="black" cx="272" cy="-234" rx="46.23" ry="18"/>
<text text-anchor="middle" x="272" y="-228.95" font-family="Times,serif" font-size="14.00">from_bcs</text>
</g>
<!-- account&#45;&gt;from_bcs -->
<g id="edge38" class="edge">
<title>account&#45;&gt;from_bcs</title>
<path fill="none" stroke="black" d="M597.13,-445.79C531.87,-439.67 404.06,-424.36 370,-396 330.29,-362.94 355.8,-330.89 327,-288 319.64,-277.04 309.69,-266.59 300.28,-257.92"/>
<polygon fill="black" stroke="black" points="302.81,-255.49 293,-251.48 298.17,-260.73 302.81,-255.49"/>
</g>
<!-- create_signer -->
<g id="node23" class="node">
<title>create_signer</title>
<ellipse fill="none" stroke="black" cx="472" cy="-378" rx="60.05" ry="18"/>
<text text-anchor="middle" x="472" y="-372.95" font-family="Times,serif" font-size="14.00">create_signer</text>
</g>
<!-- account&#45;&gt;create_signer -->
<g id="edge40" class="edge">
<title>account&#45;&gt;create_signer</title>
<path fill="none" stroke="black" d="M607.81,-436.97C582.52,-426.17 545.02,-410.17 515.82,-397.7"/>
<polygon fill="black" stroke="black" points="517.44,-394.59 506.87,-393.88 514.7,-401.03 517.44,-394.59"/>
</g>
<!-- chain_id -->
<g id="node24" class="node">
<title>chain_id</title>
<ellipse fill="none" stroke="black" cx="1011" cy="-378" rx="42.65" ry="18"/>
<text text-anchor="middle" x="1011" y="-372.95" font-family="Times,serif" font-size="14.00">chain_id</text>
</g>
<!-- account&#45;&gt;chain_id -->
<g id="edge41" class="edge">
<title>account&#45;&gt;chain_id</title>
<path fill="none" stroke="black" d="M673.99,-444.23C733.94,-436.35 853.94,-419.16 954,-396 958.24,-395.02 962.62,-393.9 966.99,-392.72"/>
<polygon fill="black" stroke="black" points="967.6,-396.18 976.27,-390.09 965.7,-389.45 967.6,-396.18"/>
</g>
<!-- aggregator_factory&#45;&gt;error -->
<g id="edge42" class="edge">
<title>aggregator_factory&#45;&gt;error</title>
<path fill="none" stroke="black" d="M1270.3,-359.74C1277.24,-318.1 1288.94,-210.62 1240,-144 1221.08,-118.24 1186.79,-104.77 1159.86,-97.87"/>
<polygon fill="black" stroke="black" points="1160.84,-94.51 1150.31,-95.64 1159.25,-101.33 1160.84,-94.51"/>
</g>
<!-- aggregator_factory&#45;&gt;system_addresses -->
<g id="edge44" class="edge">
<title>aggregator_factory&#45;&gt;system_addresses</title>
<path fill="none" stroke="black" d="M1233.87,-361.12C1213.17,-351.19 1186.3,-338.31 1163.97,-327.6"/>
<polygon fill="black" stroke="black" points="1165.64,-324.52 1155.11,-323.35 1162.62,-330.83 1165.64,-324.52"/>
</g>
<!-- aggregator_factory&#45;&gt;aggregator -->
<g id="edge45" class="edge">
<title>aggregator_factory&#45;&gt;aggregator</title>
<path fill="none" stroke="black" d="M1293.49,-360.59C1309.2,-350.86 1329.26,-338.43 1346.11,-327.99"/>
<polygon fill="black" stroke="black" points="1347.66,-331.15 1354.32,-322.91 1343.97,-325.2 1347.66,-331.15"/>
</g>
<!-- aggregator_factory&#45;&gt;table -->
<g id="edge43" class="edge">
<title>aggregator_factory&#45;&gt;table</title>
<path fill="none" stroke="black" d="M1204.54,-366.18C1157.32,-357.17 1091.23,-342.8 1035,-324 1033.21,-323.4 1031.39,-322.75 1029.56,-322.06"/>
<polygon fill="black" stroke="black" points="1031.2,-318.94 1020.62,-318.39 1028.54,-325.42 1031.2,-318.94"/>
</g>
<!-- optional_aggregator&#45;&gt;option -->
<g id="edge46" class="edge">
<title>optional_aggregator&#45;&gt;option</title>
<path fill="none" stroke="black" d="M1376.62,-431.73C1376.43,-412.29 1373.32,-380.73 1357,-360 1311.26,-301.89 1275.91,-314.82 1207,-288 983.03,-200.85 703.67,-127.44 599.59,-101.26"/>
<polygon fill="black" stroke="black" points="600.66,-97.92 590.11,-98.89 598.96,-104.71 600.66,-97.92"/>
</g>
<!-- optional_aggregator&#45;&gt;error -->
<g id="edge47" class="edge">
<title>optional_aggregator&#45;&gt;error</title>
<path fill="none" stroke="black" d="M1391.66,-432.23C1417.34,-402.61 1463.22,-339.3 1439,-288 1385.17,-174 1230.14,-119.62 1158.33,-99.99"/>
<polygon fill="black" stroke="black" points="1159.57,-96.69 1149.01,-97.52 1157.78,-103.46 1159.57,-96.69"/>
</g>
<!-- optional_aggregator&#45;&gt;aggregator -->
<g id="edge48" class="edge">
<title>optional_aggregator&#45;&gt;aggregator</title>
<path fill="none" stroke="black" d="M1381.82,-431.56C1384.93,-421.33 1388.43,-408.08 1390,-396 1392.62,-375.83 1389.95,-353.03 1386.71,-335.56"/>
<polygon fill="black" stroke="black" points="1390.17,-335 1384.74,-325.9 1383.31,-336.4 1390.17,-335"/>
</g>
<!-- optional_aggregator&#45;&gt;aggregator_factory -->
<g id="edge49" class="edge">
<title>optional_aggregator&#45;&gt;aggregator_factory</title>
<path fill="none" stroke="black" d="M1350.17,-432.41C1335.78,-423.17 1317.66,-411.54 1302.01,-401.49"/>
<polygon fill="black" stroke="black" points="1304.23,-398.75 1293.92,-396.29 1300.44,-404.64 1304.23,-398.75"/>
</g>
<!-- features&#45;&gt;signer -->
<g id="edge50" class="edge">
<title>features&#45;&gt;signer</title>
<path fill="none" stroke="black" d="M441.49,-147.17C423.26,-136.45 397.82,-121.48 377.78,-109.69"/>
<polygon fill="black" stroke="black" points="379.56,-106.68 369.16,-104.62 376.01,-112.71 379.56,-106.68"/>
</g>
<!-- features&#45;&gt;error -->
<g id="edge51" class="edge">
<title>features&#45;&gt;error</title>
<path fill="none" stroke="black" d="M497.03,-150.89C506.3,-148.29 516.48,-145.74 526,-144 732.41,-106.37 984.18,-95.12 1080.7,-92.05"/>
<polygon fill="black" stroke="black" points="1080.55,-95.56 1090.44,-91.75 1080.34,-88.56 1080.55,-95.56"/>
</g>
<!-- ed25519&#45;&gt;option -->
<g id="edge52" class="edge">
<title>ed25519&#45;&gt;option</title>
<path fill="none" stroke="black" d="M868.25,-287.68C866.55,-268.21 861.13,-236.62 844,-216 781.74,-141.06 665.84,-109.72 602.38,-97.71"/>
<polygon fill="black" stroke="black" points="603.11,-94.29 592.65,-95.96 601.87,-101.18 603.11,-94.29"/>
</g>
<!-- ed25519&#45;&gt;error -->
<g id="edge53" class="edge">
<title>ed25519&#45;&gt;error</title>
<path fill="none" stroke="black" d="M887.12,-289.61C931.32,-252.08 1044.74,-155.76 1095.62,-112.55"/>
<polygon fill="black" stroke="black" points="1097.86,-115.24 1103.21,-106.1 1093.33,-109.91 1097.86,-115.24"/>
</g>
<!-- ed25519&#45;&gt;type_info -->
<g id="edge55" class="edge">
<title>ed25519&#45;&gt;type_info</title>
<path fill="none" stroke="black" d="M829.96,-298.35C755.9,-285.74 594.92,-258.32 511.12,-244.05"/>
<polygon fill="black" stroke="black" points="511.76,-240.61 501.31,-242.38 510.58,-247.51 511.76,-240.61"/>
</g>
<!-- ed25519&#45;&gt;bcs -->
<g id="edge54" class="edge">
<title>ed25519&#45;&gt;bcs</title>
<path fill="none" stroke="black" d="M863.17,-287.81C855.39,-267.54 839.68,-234.3 815,-216 764.81,-178.78 691.04,-167.59 646.46,-164.3"/>
<polygon fill="black" stroke="black" points="646.96,-160.82 636.76,-163.68 646.52,-167.81 646.96,-160.82"/>
</g>
<!-- ed25519&#45;&gt;hash -->
<g id="edge56" class="edge">
<title>ed25519&#45;&gt;hash</title>
<path fill="none" stroke="black" d="M849.25,-289.81C836.13,-279.72 818.75,-266.35 804.44,-255.34"/>
<polygon fill="black" stroke="black" points="806.81,-252.75 796.75,-249.43 802.55,-258.3 806.81,-252.75"/>
</g>
<!-- multi_ed25519&#45;&gt;option -->
<g id="edge57" class="edge">
<title>multi_ed25519&#45;&gt;option</title>
<path fill="none" stroke="black" d="M723.25,-359.94C718.64,-349.61 712.78,-336.13 708,-324 676.86,-245.01 697.39,-210.02 644,-144 631.03,-127.96 611.83,-115.48 594.86,-106.66"/>
<polygon fill="black" stroke="black" points="596.53,-103.59 586.02,-102.32 593.45,-109.87 596.53,-103.59"/>
</g>
<!-- multi_ed25519&#45;&gt;error -->
<g id="edge58" class="edge">
<title>multi_ed25519&#45;&gt;error</title>
<path fill="none" stroke="black" d="M726.34,-359.57C718.89,-327.48 708.22,-258.45 741,-216 823.66,-108.94 1000.48,-92.43 1080.35,-90.66"/>
<polygon fill="black" stroke="black" points="1080.4,-94.16 1090.34,-90.51 1080.29,-87.16 1080.4,-94.16"/>
</g>
<!-- multi_ed25519&#45;&gt;features -->
<g id="edge59" class="edge">
<title>multi_ed25519&#45;&gt;features</title>
<path fill="none" stroke="black" d="M704.49,-361.23C688.11,-351.15 666.86,-337.48 649,-324 588.71,-278.52 523.35,-218.49 489.08,-186.1"/>
<polygon fill="black" stroke="black" points="491.82,-183.88 482.16,-179.53 487,-188.95 491.82,-183.88"/>
</g>
<!-- multi_ed25519&#45;&gt;bcs -->
<g id="edge60" class="edge">
<title>multi_ed25519&#45;&gt;bcs</title>
<path fill="none" stroke="black" d="M707.34,-360.85C694.85,-351.33 680.07,-338.36 670,-324 654.47,-301.85 629.98,-230.78 616.91,-190.87"/>
<polygon fill="black" stroke="black" points="620.28,-189.9 613.86,-181.47 613.62,-192.07 620.28,-189.9"/>
</g>
<!-- multi_ed25519&#45;&gt;hash -->
<g id="edge61" class="edge">
<title>multi_ed25519&#45;&gt;hash</title>
<path fill="none" stroke="black" d="M736.76,-359.59C744.73,-335.5 759.22,-291.75 768.72,-263.03"/>
<polygon fill="black" stroke="black" points="772.04,-264.14 771.86,-253.55 765.4,-261.94 772.04,-264.14"/>
</g>
<!-- multi_ed25519&#45;&gt;ed25519 -->
<g id="edge62" class="edge">
<title>multi_ed25519&#45;&gt;ed25519</title>
<path fill="none" stroke="black" d="M761.28,-361.64C782.24,-351.01 810.25,-336.8 832.45,-325.54"/>
<polygon fill="black" stroke="black" points="833.83,-328.77 841.16,-321.12 830.66,-322.52 833.83,-328.77"/>
</g>
<!-- from_bcs&#45;&gt;string -->
<g id="edge63" class="edge">
<title>from_bcs&#45;&gt;string</title>
<path fill="none" stroke="black" d="M272.99,-215.7C273.41,-208.41 273.9,-199.73 274.37,-191.54"/>
<polygon fill="black" stroke="black" points="277.86,-191.8 274.94,-181.62 270.87,-191.4 277.86,-191.8"/>
</g>
<!-- chain_id&#45;&gt;system_addresses -->
<g id="edge64" class="edge">
<title>chain_id&#45;&gt;system_addresses</title>
<path fill="none" stroke="black" d="M1033.79,-362.5C1048.84,-352.92 1068.85,-340.19 1085.9,-329.33"/>
<polygon fill="black" stroke="black" points="1087.71,-332.33 1094.27,-324.01 1083.95,-326.43 1087.71,-332.33"/>
</g>
</g>
</svg>
