<?xml version="1.0" encoding="UTF-8" standalone="no"?>
<!DOCTYPE svg PUBLIC "-//W3C//DTD SVG 1.1//EN"
 "http://www.w3.org/Graphics/SVG/1.1/DTD/svg11.dtd">
<!-- Generated by graphviz version 8.0.5 (20230430.1635)
 -->
<!-- Title: G Pages: 1 -->
<svg width="1536pt" height="620pt"
 viewBox="0.00 0.00 1536.00 620.00" xmlns="http://www.w3.org/2000/svg" xmlns:xlink="http://www.w3.org/1999/xlink">
<g id="graph0" class="graph" transform="scale(1 1) rotate(0) translate(4 616)">
<title>G</title>
<polygon fill="white" stroke="none" points="-4,4 -4,-616 1532,-616 1532,4 -4,4"/>
<!-- assets -->
<g id="node1" class="node">
<title>assets</title>
<ellipse fill="none" stroke="black" cx="76" cy="-594" rx="32.41" ry="18"/>
<text text-anchor="middle" x="76" y="-588.95" font-family="Times,serif" font-size="14.00">assets</text>
</g>
<!-- string -->
<g id="node2" class="node">
<title>string</title>
<ellipse fill="none" stroke="black" cx="276" cy="-162" rx="31.9" ry="18"/>
<text text-anchor="middle" x="276" y="-156.95" font-family="Times,serif" font-size="14.00">string</text>
</g>
<!-- assets&#45;&gt;string -->
<g id="edge1" class="edge">
<title>assets&#45;&gt;string</title>
<path fill="none" stroke="black" d="M74.65,-575.67C71.07,-516.84 67.54,-322.46 166,-216 185.1,-195.35 213.95,-181.87 237.31,-173.67"/>
<polygon fill="black" stroke="black" points="238.21,-176.73 246.6,-170.27 236.01,-170.09 238.21,-176.73"/>
</g>
<!-- signer -->
<g id="node3" class="node">
<title>signer</title>
<ellipse fill="none" stroke="black" cx="346" cy="-90" rx="33.44" ry="18"/>
<text text-anchor="middle" x="346" y="-84.95" font-family="Times,serif" font-size="14.00">signer</text>
</g>
<!-- assets&#45;&gt;signer -->
<g id="edge2" class="edge">
<title>assets&#45;&gt;signer</title>
<path fill="none" stroke="black" d="M61.35,-577.83C39.26,-553.3 0,-502.45 0,-451 0,-451 0,-451 0,-233 0,-186.03 18,-170.18 57,-144 96.45,-117.52 231.51,-101.51 302.15,-94.76"/>
<polygon fill="black" stroke="black" points="302.28,-98.17 311.91,-93.75 301.63,-91.2 302.28,-98.17"/>
</g>
<!-- coin -->
<g id="node4" class="node">
<title>coin</title>
<ellipse fill="none" stroke="black" cx="539" cy="-522" rx="27" ry="18"/>
<text text-anchor="middle" x="539" y="-516.95" font-family="Times,serif" font-size="14.00">coin</text>
</g>
<!-- assets&#45;&gt;coin -->
<g id="edge3" class="edge">
<title>assets&#45;&gt;coin</title>
<path fill="none" stroke="black" d="M107.1,-588.3C189.54,-575.83 413.43,-541.98 502.11,-528.58"/>
<polygon fill="black" stroke="black" points="502.36,-531.93 511.73,-526.97 501.32,-525.01 502.36,-531.93"/>
</g>
<!-- vector -->
<g id="node5" class="node">
<title>vector</title>
<ellipse fill="none" stroke="black" cx="558" cy="-18" rx="33.95" ry="18"/>
<text text-anchor="middle" x="558" y="-12.95" font-family="Times,serif" font-size="14.00">vector</text>
</g>
<!-- string&#45;&gt;vector -->
<g id="edge4" class="edge">
<title>string&#45;&gt;vector</title>
<path fill="none" stroke="black" d="M276.47,-143.52C278.01,-123.28 283.71,-90.37 304,-72 334.3,-44.56 449.31,-29.39 513.69,-22.88"/>
<polygon fill="black" stroke="black" points="513.71,-26.3 523.32,-21.84 513.03,-19.33 513.71,-26.3"/>
</g>
<!-- option -->
<g id="node6" class="node">
<title>option</title>
<ellipse fill="none" stroke="black" cx="558" cy="-90" rx="34.46" ry="18"/>
<text text-anchor="middle" x="558" y="-84.95" font-family="Times,serif" font-size="14.00">option</text>
</g>
<!-- string&#45;&gt;option -->
<g id="edge5" class="edge">
<title>string&#45;&gt;option</title>
<path fill="none" stroke="black" d="M304.85,-153.84C355.1,-141.37 458.81,-115.62 516.68,-101.26"/>
<polygon fill="black" stroke="black" points="517.41,-104.43 526.27,-98.63 515.72,-97.64 517.41,-104.43"/>
</g>
<!-- coin&#45;&gt;string -->
<g id="edge7" class="edge">
<title>coin&#45;&gt;string</title>
<path fill="none" stroke="black" d="M511.55,-521.61C456.53,-521.7 330.2,-516.16 239,-468 190.09,-442.17 152,-434.32 152,-379 152,-379 152,-379 152,-305 152,-248.97 207.46,-204.37 244.2,-180.98"/>
<polygon fill="black" stroke="black" points="245.87,-183.44 252.54,-175.22 242.19,-177.48 245.87,-183.44"/>
</g>
<!-- coin&#45;&gt;signer -->
<g id="edge8" class="edge">
<title>coin&#45;&gt;signer</title>
<path fill="none" stroke="black" d="M511.82,-520.06C436.66,-517.01 227.9,-505.29 172,-468 102.69,-421.77 76,-390.31 76,-307 76,-307 76,-307 76,-233 76,-132.17 225.33,-102.77 301.88,-94.33"/>
<polygon fill="black" stroke="black" points="302.03,-97.73 311.62,-93.23 301.32,-90.77 302.03,-97.73"/>
</g>
<!-- coin&#45;&gt;option -->
<g id="edge6" class="edge">
<title>coin&#45;&gt;option</title>
<path fill="none" stroke="black" d="M511.64,-520.58C426.85,-518.82 169.99,-510.07 100,-468 58.68,-443.16 38,-427.21 38,-379 38,-379 38,-379 38,-233 38,-136.92 143.03,-171.79 235,-144 331.73,-114.77 449.93,-100.57 513.09,-94.63"/>
<polygon fill="black" stroke="black" points="513.22,-98.04 522.86,-93.65 512.58,-91.07 513.22,-98.04"/>
</g>
<!-- error -->
<g id="node7" class="node">
<title>error</title>
<ellipse fill="none" stroke="black" cx="1121" cy="-90" rx="28.83" ry="18"/>
<text text-anchor="middle" x="1121" y="-84.95" font-family="Times,serif" font-size="14.00">error</text>
</g>
<!-- coin&#45;&gt;error -->
<g id="edge9" class="edge">
<title>coin&#45;&gt;error</title>
<path fill="none" stroke="black" d="M566.44,-521.19C714.44,-521.96 1413.75,-522.71 1491,-468 1525.96,-443.24 1528,-421.84 1528,-379 1528,-379 1528,-379 1528,-233 1528,-155.55 1261.92,-110.51 1160.04,-96.1"/>
<polygon fill="black" stroke="black" points="1160.68,-92.52 1150.3,-94.61 1159.72,-99.46 1160.68,-92.52"/>
</g>
<!-- type_info -->
<g id="node8" class="node">
<title>type_info</title>
<ellipse fill="none" stroke="black" cx="458" cy="-234" rx="46.23" ry="18"/>
<text text-anchor="middle" x="458" y="-228.95" font-family="Times,serif" font-size="14.00">type_info</text>
</g>
<!-- coin&#45;&gt;type_info -->
<g id="edge10" class="edge">
<title>coin&#45;&gt;type_info</title>
<path fill="none" stroke="black" d="M511.87,-520.75C445.42,-518.46 275.14,-502.04 209,-396 182.7,-353.83 200.38,-320.48 238,-288 262.59,-266.78 347.19,-250.86 404.02,-242.25"/>
<polygon fill="black" stroke="black" points="404.26,-245.6 413.64,-240.67 403.24,-238.68 404.26,-245.6"/>
</g>
<!-- system_addresses -->
<g id="node9" class="node">
<title>system_addresses</title>
<ellipse fill="none" stroke="black" cx="1121" cy="-306" rx="76.94" ry="18"/>
<text text-anchor="middle" x="1121" y="-300.95" font-family="Times,serif" font-size="14.00">system_addresses</text>
</g>
<!-- coin&#45;&gt;system_addresses -->
<g id="edge11" class="edge">
<title>coin&#45;&gt;system_addresses</title>
<path fill="none" stroke="black" d="M565.81,-518.5C665.74,-508.67 1014.88,-469.55 1094,-396 1110.71,-380.47 1117.2,-354.98 1119.66,-335.25"/>
<polygon fill="black" stroke="black" points="1123.23,-335.7 1120.69,-325.41 1116.26,-335.04 1123.23,-335.7"/>
</g>
<!-- event -->
<g id="node10" class="node">
<title>event</title>
<ellipse fill="none" stroke="black" cx="249" cy="-378" rx="30.88" ry="18"/>
<text text-anchor="middle" x="249" y="-372.95" font-family="Times,serif" font-size="14.00">event</text>
</g>
<!-- coin&#45;&gt;event -->
<g id="edge12" class="edge">
<title>coin&#45;&gt;event</title>
<path fill="none" stroke="black" d="M517.68,-510.56C467.47,-485.98 341.56,-424.32 281.66,-394.99"/>
<polygon fill="black" stroke="black" points="283.47,-391.49 272.95,-390.24 280.39,-397.78 283.47,-391.49"/>
</g>
<!-- account -->
<g id="node11" class="node">
<title>account</title>
<ellipse fill="none" stroke="black" cx="636" cy="-450" rx="39.58" ry="18"/>
<text text-anchor="middle" x="636" y="-444.95" font-family="Times,serif" font-size="14.00">account</text>
</g>
<!-- coin&#45;&gt;account -->
<g id="edge13" class="edge">
<title>coin&#45;&gt;account</title>
<path fill="none" stroke="black" d="M556.79,-508.16C570.82,-498.04 590.67,-483.71 606.99,-471.93"/>
<polygon fill="black" stroke="black" points="608.58,-474.39 614.64,-465.7 604.48,-468.71 608.58,-474.39"/>
</g>
<!-- aggregator -->
<g id="node12" class="node">
<title>aggregator</title>
<ellipse fill="none" stroke="black" cx="1380" cy="-306" rx="50.33" ry="18"/>
<text text-anchor="middle" x="1380" y="-300.95" font-family="Times,serif" font-size="14.00">aggregator</text>
</g>
<!-- coin&#45;&gt;aggregator -->
<g id="edge14" class="edge">
<title>coin&#45;&gt;aggregator</title>
<path fill="none" stroke="black" d="M566.33,-520.49C716.74,-517.55 1438.14,-501.72 1470,-468 1509.83,-425.84 1448.25,-362.75 1408.82,-329.45"/>
<polygon fill="black" stroke="black" points="1411.73,-326.48 1401.79,-322.81 1407.27,-331.88 1411.73,-326.48"/>
</g>
<!-- aggregator_factory -->
<g id="node13" class="node">
<title>aggregator_factory</title>
<ellipse fill="none" stroke="black" cx="1267" cy="-378" rx="81.04" ry="18"/>
<text text-anchor="middle" x="1267" y="-372.95" font-family="Times,serif" font-size="14.00">aggregator_factory</text>
</g>
<!-- coin&#45;&gt;aggregator_factory -->
<g id="edge15" class="edge">
<title>coin&#45;&gt;aggregator_factory</title>
<path fill="none" stroke="black" d="M566.46,-521.07C673.34,-521 1061.14,-517.26 1172,-468 1203.26,-454.11 1230.77,-425.53 1248.03,-404.48"/>
<polygon fill="black" stroke="black" points="1251.3,-407 1254.78,-396.99 1245.82,-402.64 1251.3,-407"/>
</g>
<!-- optional_aggregator -->
<g id="node14" class="node">
<title>optional_aggregator</title>
<ellipse fill="none" stroke="black" cx="1376" cy="-450" rx="85.13" ry="18"/>
<text text-anchor="middle" x="1376" y="-444.95" font-family="Times,serif" font-size="14.00">optional_aggregator</text>
</g>
<!-- coin&#45;&gt;optional_aggregator -->
<g id="edge16" class="edge">
<title>coin&#45;&gt;optional_aggregator</title>
<path fill="none" stroke="black" d="M565.94,-519.49C659.68,-514.13 980.25,-494.88 1244,-468 1260.75,-466.29 1278.66,-464.18 1295.72,-462.03"/>
<polygon fill="black" stroke="black" points="1295.73,-465.43 1305.2,-460.69 1294.84,-458.49 1295.73,-465.43"/>
</g>
<!-- option&#45;&gt;vector -->
<g id="edge17" class="edge">
<title>option&#45;&gt;vector</title>
<path fill="none" stroke="black" d="M558,-71.7C558,-64.24 558,-55.32 558,-46.97"/>
<polygon fill="black" stroke="black" points="561.5,-47.1 558,-37.1 554.5,-47.1 561.5,-47.1"/>
</g>
<!-- type_info&#45;&gt;string -->
<g id="edge18" class="edge">
<title>type_info&#45;&gt;string</title>
<path fill="none" stroke="black" d="M425.88,-220.65C394.02,-208.39 345.28,-189.65 312.1,-176.88"/>
<polygon fill="black" stroke="black" points="313.5,-173.29 302.91,-172.97 310.99,-179.82 313.5,-173.29"/>
</g>
<!-- type_info&#45;&gt;error -->
<g id="edge19" class="edge">
<title>type_info&#45;&gt;error</title>
<path fill="none" stroke="black" d="M475.75,-217.11C502.11,-193.88 550.78,-152.47 572,-144 664.77,-106.99 970.92,-95.1 1081.07,-91.97"/>
<polygon fill="black" stroke="black" points="1081.11,-95.44 1091.01,-91.67 1080.92,-88.45 1081.11,-95.44"/>
</g>
<!-- features -->
<g id="node15" class="node">
<title>features</title>
<ellipse fill="none" stroke="black" cx="465" cy="-162" rx="40.09" ry="18"/>
<text text-anchor="middle" x="465" y="-156.95" font-family="Times,serif" font-size="14.00">features</text>
</g>
<!-- type_info&#45;&gt;features -->
<g id="edge20" class="edge">
<title>type_info&#45;&gt;features</title>
<path fill="none" stroke="black" d="M459.73,-215.7C460.48,-208.24 461.37,-199.32 462.2,-190.97"/>
<polygon fill="black" stroke="black" points="465.78,-191.4 463.29,-181.1 458.81,-190.71 465.78,-191.4"/>
</g>
<!-- bcs -->
<g id="node16" class="node">
<title>bcs</title>
<ellipse fill="none" stroke="black" cx="608" cy="-162" rx="27" ry="18"/>
<text text-anchor="middle" x="608" y="-156.95" font-family="Times,serif" font-size="14.00">bcs</text>
</g>
<!-- type_info&#45;&gt;bcs -->
<g id="edge21" class="edge">
<title>type_info&#45;&gt;bcs</title>
<path fill="none" stroke="black" d="M486.92,-219.5C512.63,-207.51 550.12,-190.01 576.56,-177.67"/>
<polygon fill="black" stroke="black" points="577.87,-180.46 585.45,-173.06 574.91,-174.11 577.87,-180.46"/>
</g>
<!-- system_addresses&#45;&gt;signer -->
<g id="edge22" class="edge">
<title>system_addresses&#45;&gt;signer</title>
<path fill="none" stroke="black" d="M1070.16,-292.13C1032.3,-282.17 979.52,-267.51 934,-252 893.22,-238.11 884.27,-231.3 844,-216 755.68,-182.45 735.28,-168.36 644,-144 554.81,-120.2 447.69,-104.1 389.26,-96.35"/>
<polygon fill="black" stroke="black" points="389.95,-92.78 379.58,-94.95 389.05,-99.72 389.95,-92.78"/>
</g>
<!-- system_addresses&#45;&gt;error -->
<g id="edge23" class="edge">
<title>system_addresses&#45;&gt;error</title>
<path fill="none" stroke="black" d="M1121,-287.85C1121,-250.99 1121,-163.92 1121,-118.96"/>
<polygon fill="black" stroke="black" points="1124.5,-119.23 1121,-109.23 1117.5,-119.23 1124.5,-119.23"/>
</g>
<!-- event&#45;&gt;bcs -->
<g id="edge24" class="edge">
<title>event&#45;&gt;bcs</title>
<path fill="none" stroke="black" d="M244.43,-359.79C240.26,-339.81 237.17,-307.15 255,-288 333.9,-203.27 408.53,-301.91 513,-252 544.4,-237 572.4,-207.84 589.73,-186.98"/>
<polygon fill="black" stroke="black" points="592.92,-189.6 596.48,-179.62 587.48,-185.2 592.92,-189.6"/>
</g>
<!-- guid -->
<g id="node17" class="node">
<title>guid</title>
<ellipse fill="none" stroke="black" cx="291" cy="-306" rx="27.3" ry="18"/>
<text text-anchor="middle" x="291" y="-300.95" font-family="Times,serif" font-size="14.00">guid</text>
</g>
<!-- event&#45;&gt;guid -->
<g id="edge25" class="edge">
<title>event&#45;&gt;guid</title>
<path fill="none" stroke="black" d="M258.74,-360.76C263.78,-352.37 270.04,-341.93 275.7,-332.5"/>
<polygon fill="black" stroke="black" points="279.17,-334.52 281.31,-324.15 273.17,-330.92 279.17,-334.52"/>
</g>
<!-- account&#45;&gt;signer -->
<g id="edge28" class="edge">
<title>account&#45;&gt;signer</title>
<path fill="none" stroke="black" d="M617.03,-433.8C604.48,-423.5 587.85,-409.38 574,-396 558.39,-380.92 556.93,-374.74 541,-360 483.83,-307.11 448.47,-315.23 403,-252 373.29,-210.69 357.8,-152.42 350.81,-118.49"/>
<polygon fill="black" stroke="black" points="354.11,-118.12 348.76,-108.98 347.24,-119.46 354.11,-118.12"/>
</g>
<!-- account&#45;&gt;vector -->
<g id="edge26" class="edge">
<title>account&#45;&gt;vector</title>
<path fill="none" stroke="black" d="M675.53,-447.78C723.78,-444.6 806.2,-433.57 865,-396 910.56,-366.89 938.1,-339.29 921,-288 871.75,-140.25 680.54,-59.88 597.2,-31.24"/>
<polygon fill="black" stroke="black" points="598.48,-27.64 587.88,-27.77 596.25,-34.28 598.48,-27.64"/>
</g>
<!-- account&#45;&gt;option -->
<g id="edge27" class="edge">
<title>account&#45;&gt;option</title>
<path fill="none" stroke="black" d="M597.44,-445.23C538.45,-438.66 429.81,-423.17 403,-396 374.59,-367.21 384,-347.45 384,-307 384,-307 384,-307 384,-233 384,-190.97 386.46,-173.9 416,-144 442.22,-117.46 482.96,-104.06 514.08,-97.39"/>
<polygon fill="black" stroke="black" points="514.52,-100.67 523.65,-95.3 513.16,-93.8 514.52,-100.67"/>
</g>
<!-- account&#45;&gt;error -->
<g id="edge29" class="edge">
<title>account&#45;&gt;error</title>
<path fill="none" stroke="black" d="M675.14,-446.73C771.31,-440.8 1016.97,-423.36 1094,-396 1122.06,-386.04 1192.68,-350.11 1207,-324 1246.68,-251.67 1179.02,-157.32 1142.29,-114.25"/>
<polygon fill="black" stroke="black" points="1144.4,-112.34 1135.19,-107.11 1139.12,-116.95 1144.4,-112.34"/>
</g>
<!-- account&#45;&gt;type_info -->
<g id="edge31" class="edge">
<title>account&#45;&gt;type_info</title>
<path fill="none" stroke="black" d="M625.63,-432.29C613.93,-413.91 593.94,-383.83 574,-360 559.48,-342.65 553.57,-340.42 538,-324 517.73,-302.62 495.37,-277.62 479.46,-259.57"/>
<polygon fill="black" stroke="black" points="481.43,-257.51 472.2,-252.31 476.17,-262.13 481.43,-257.51"/>
</g>
<!-- account&#45;&gt;system_addresses -->
<g id="edge33" class="edge">
<title>account&#45;&gt;system_addresses</title>
<path fill="none" stroke="black" d="M675.75,-448.27C769.01,-445.91 998.85,-436.07 1063,-396 1085.78,-381.77 1101.41,-354.93 1110.65,-334.44"/>
<polygon fill="black" stroke="black" points="1114.23,-335.97 1114.91,-325.39 1107.78,-333.23 1114.23,-335.97"/>
</g>
<!-- account&#45;&gt;event -->
<g id="edge39" class="edge">
<title>account&#45;&gt;event</title>
<path fill="none" stroke="black" d="M597.25,-445.64C533.29,-439.5 401.93,-424.42 294,-396 290.61,-395.11 287.12,-394.05 283.65,-392.9"/>
<polygon fill="black" stroke="black" points="285.05,-389.33 274.46,-389.29 282.71,-395.93 285.05,-389.33"/>
</g>
<!-- account&#45;&gt;bcs -->
<g id="edge30" class="edge">
<title>account&#45;&gt;bcs</title>
<path fill="none" stroke="black" d="M634.29,-431.54C629.59,-383.56 616.46,-249.39 610.73,-190.88"/>
<polygon fill="black" stroke="black" points="614.14,-190.84 609.69,-181.23 607.18,-191.53 614.14,-190.84"/>
</g>
<!-- account&#45;&gt;guid -->
<g id="edge37" class="edge">
<title>account&#45;&gt;guid</title>
<path fill="none" stroke="black" d="M596.71,-446.64C524.17,-441.57 372.87,-427.45 332,-396 312.55,-381.03 302,-354.67 296.5,-334.5"/>
<polygon fill="black" stroke="black" points="299.71,-333.93 293.93,-325.05 292.92,-335.6 299.71,-333.93"/>
</g>
<!-- table -->
<g id="node18" class="node">
<title>table</title>
<ellipse fill="none" stroke="black" cx="997" cy="-306" rx="28.83" ry="18"/>
<text text-anchor="middle" x="997" y="-300.95" font-family="Times,serif" font-size="14.00">table</text>
</g>
<!-- account&#45;&gt;table -->
<g id="edge32" class="edge">
<title>account&#45;&gt;table</title>
<path fill="none" stroke="black" d="M675.78,-449.23C732.61,-447.91 838.7,-439.21 916,-396 943.52,-380.62 966.74,-352.45 981.16,-331.91"/>
<polygon fill="black" stroke="black" points="984.44,-334.32 987.16,-324.08 978.65,-330.39 984.44,-334.32"/>
</g>
<!-- hash -->
<g id="node19" class="node">
<title>hash</title>
<ellipse fill="none" stroke="black" cx="778" cy="-234" rx="27.81" ry="18"/>
<text text-anchor="middle" x="778" y="-228.95" font-family="Times,serif" font-size="14.00">hash</text>
</g>
<!-- account&#45;&gt;hash -->
<g id="edge34" class="edge">
<title>account&#45;&gt;hash</title>
<path fill="none" stroke="black" d="M675.78,-449.23C716.21,-447.05 777.04,-436.66 807,-396 822.36,-375.16 801.14,-302.37 787.65,-262.18"/>
<polygon fill="black" stroke="black" points="790.72,-261.33 784.17,-253.01 784.1,-263.6 790.72,-261.33"/>
</g>
<!-- ed25519 -->
<g id="node20" class="node">
<title>ed25519</title>
<ellipse fill="none" stroke="black" cx="869" cy="-306" rx="42.65" ry="18"/>
<text text-anchor="middle" x="869" y="-300.95" font-family="Times,serif" font-size="14.00">ed25519</text>
</g>
<!-- account&#45;&gt;ed25519 -->
<g id="edge35" class="edge">
<title>account&#45;&gt;ed25519</title>
<path fill="none" stroke="black" d="M675.87,-449.45C721.36,-447.79 795.23,-438.13 840,-396 856.72,-380.27 863.82,-354.79 866.82,-335.12"/>
<polygon fill="black" stroke="black" points="870.4,-335.68 868.16,-325.33 863.46,-334.82 870.4,-335.68"/>
</g>
<!-- multi_ed25519 -->
<g id="node21" class="node">
<title>multi_ed25519</title>
<ellipse fill="none" stroke="black" cx="731" cy="-378" rx="67.22" ry="18"/>
<text text-anchor="middle" x="731" y="-372.95" font-family="Times,serif" font-size="14.00">multi_ed25519</text>
</g>
<!-- account&#45;&gt;multi_ed25519 -->
<g id="edge36" class="edge">
<title>account&#45;&gt;multi_ed25519</title>
<path fill="none" stroke="black" d="M656.15,-434.15C668.96,-424.72 685.79,-412.31 700.25,-401.66"/>
<polygon fill="black" stroke="black" points="701.92,-404.04 707.89,-395.29 697.76,-398.4 701.92,-404.04"/>
</g>
<!-- from_bcs -->
<g id="node22" class="node">
<title>from_bcs</title>
<ellipse fill="none" stroke="black" cx="272" cy="-234" rx="46.23" ry="18"/>
<text text-anchor="middle" x="272" y="-228.95" font-family="Times,serif" font-size="14.00">from_bcs</text>
</g>
<!-- account&#45;&gt;from_bcs -->
<g id="edge38" class="edge">
<title>account&#45;&gt;from_bcs</title>
<path fill="none" stroke="black" d="M597.13,-445.79C531.87,-439.67 404.06,-424.36 370,-396 330.29,-362.94 355.8,-330.89 327,-288 319.57,-276.93 309.49,-266.38 299.99,-257.65"/>
<polygon fill="black" stroke="black" points="302.68,-255.48 292.87,-251.48 298.05,-260.72 302.68,-255.48"/>
</g>
<!-- create_signer -->
<g id="node23" class="node">
<title>create_signer</title>
<ellipse fill="none" stroke="black" cx="472" cy="-378" rx="60.05" ry="18"/>
<text text-anchor="middle" x="472" y="-372.95" font-family="Times,serif" font-size="14.00">create_signer</text>
</g>
<!-- account&#45;&gt;create_signer -->
<g id="edge40" class="edge">
<title>account&#45;&gt;create_signer</title>
<path fill="none" stroke="black" d="M607.81,-436.97C582.41,-426.13 544.69,-410.02 515.44,-397.54"/>
<polygon fill="black" stroke="black" points="517.05,-394 506.48,-393.29 514.3,-400.43 517.05,-394"/>
</g>
<!-- chain_id -->
<g id="node24" class="node">
<title>chain_id</title>
<ellipse fill="none" stroke="black" cx="1011" cy="-378" rx="42.65" ry="18"/>
<text text-anchor="middle" x="1011" y="-372.95" font-family="Times,serif" font-size="14.00">chain_id</text>
</g>
<!-- account&#45;&gt;chain_id -->
<g id="edge41" class="edge">
<title>account&#45;&gt;chain_id</title>
<path fill="none" stroke="black" d="M673.99,-444.23C733.94,-436.35 853.94,-419.16 954,-396 958.36,-394.99 962.87,-393.84 967.37,-392.62"/>
<polygon fill="black" stroke="black" points="968.06,-395.77 976.73,-389.68 966.15,-389.04 968.06,-395.77"/>
</g>
<!-- aggregator_factory&#45;&gt;error -->
<g id="edge42" class="edge">
<title>aggregator_factory&#45;&gt;error</title>
<path fill="none" stroke="black" d="M1270.3,-359.74C1277.24,-318.1 1288.94,-210.62 1240,-144 1220.99,-118.13 1186.48,-104.65 1159.5,-97.78"/>
<polygon fill="black" stroke="black" points="1160.37,-94.16 1149.84,-95.3 1158.78,-100.97 1160.37,-94.16"/>
</g>
<!-- aggregator_factory&#45;&gt;system_addresses -->
<g id="edge44" class="edge">
<title>aggregator_factory&#45;&gt;system_addresses</title>
<path fill="none" stroke="black" d="M1233.87,-361.12C1212.98,-351.1 1185.81,-338.08 1163.37,-327.31"/>
<polygon fill="black" stroke="black" points="1165.28,-323.87 1154.75,-322.7 1162.25,-330.18 1165.28,-323.87"/>
</g>
<!-- aggregator_factory&#45;&gt;aggregator -->
<g id="edge45" class="edge">
<title>aggregator_factory&#45;&gt;aggregator</title>
<path fill="none" stroke="black" d="M1293.49,-360.59C1309.35,-350.77 1329.64,-338.2 1346.58,-327.7"/>
<polygon fill="black" stroke="black" points="1347.94,-330.36 1354.6,-322.11 1344.26,-324.4 1347.94,-330.36"/>
</g>
<!-- aggregator_factory&#45;&gt;table -->
<g id="edge43" class="edge">
<title>aggregator_factory&#45;&gt;table</title>
<path fill="none" stroke="black" d="M1204.54,-366.18C1157.32,-357.17 1091.23,-342.8 1035,-324 1033.05,-323.35 1031.06,-322.63 1029.06,-321.87"/>
<polygon fill="black" stroke="black" points="1030.79,-318.38 1020.21,-317.81 1028.13,-324.86 1030.79,-318.38"/>
</g>
<!-- optional_aggregator&#45;&gt;option -->
<g id="edge46" class="edge">
<title>optional_aggregator&#45;&gt;option</title>
<path fill="none" stroke="black" d="M1376.62,-431.73C1376.43,-412.29 1373.32,-380.73 1357,-360 1311.26,-301.89 1275.91,-314.82 1207,-288 982.81,-200.76 703.1,-127.29 599.28,-101.18"/>
<polygon fill="black" stroke="black" points="600.19,-97.55 589.64,-98.52 598.49,-104.34 600.19,-97.55"/>
</g>
<!-- optional_aggregator&#45;&gt;error -->
<g id="edge47" class="edge">
<title>optional_aggregator&#45;&gt;error</title>
<path fill="none" stroke="black" d="M1391.66,-432.23C1417.34,-402.61 1463.22,-339.3 1439,-288 1385.06,-173.77 1229.5,-119.39 1157.89,-99.86"/>
<polygon fill="black" stroke="black" points="1159.11,-96.3 1148.55,-97.13 1157.32,-103.07 1159.11,-96.3"/>
</g>
<!-- optional_aggregator&#45;&gt;aggregator -->
<g id="edge48" class="edge">
<title>optional_aggregator&#45;&gt;aggregator</title>
<path fill="none" stroke="black" d="M1381.82,-431.56C1384.93,-421.33 1388.43,-408.08 1390,-396 1392.64,-375.64 1389.9,-352.6 1386.62,-335.06"/>
<polygon fill="black" stroke="black" points="1389.88,-334.51 1384.44,-325.42 1383.02,-335.92 1389.88,-334.51"/>
</g>
<!-- optional_aggregator&#45;&gt;aggregator_factory -->
<g id="edge49" class="edge">
<title>optional_aggregator&#45;&gt;aggregator_factory</title>
<path fill="none" stroke="black" d="M1350.17,-432.41C1335.64,-423.08 1317.32,-411.32 1301.57,-401.2"/>
<polygon fill="black" stroke="black" points="1303.95,-397.93 1293.65,-395.47 1300.17,-403.82 1303.95,-397.93"/>
</g>
<!-- features&#45;&gt;signer -->
<g id="edge50" class="edge">
<title>features&#45;&gt;signer</title>
<path fill="none" stroke="black" d="M441.49,-147.17C423.1,-136.35 397.35,-121.21 377.23,-109.37"/>
<polygon fill="black" stroke="black" points="379.25,-105.91 368.86,-103.86 375.7,-111.94 379.25,-105.91"/>
</g>
<!-- features&#45;&gt;error -->
<g id="edge51" class="edge">
<title>features&#45;&gt;error</title>
<path fill="none" stroke="black" d="M497.03,-150.89C506.3,-148.29 516.48,-145.74 526,-144 732.62,-106.33 984.69,-95.09 1081,-92.04"/>
<polygon fill="black" stroke="black" points="1081.07,-95.51 1090.96,-91.71 1080.85,-88.51 1081.07,-95.51"/>
</g>
<!-- ed25519&#45;&gt;option -->
<g id="edge52" class="edge">
<title>ed25519&#45;&gt;option</title>
<path fill="none" stroke="black" d="M868.25,-287.68C866.55,-268.21 861.13,-236.62 844,-216 781.61,-140.9 665.36,-109.59 601.98,-97.64"/>
<polygon fill="black" stroke="black" points="602.62,-94.02 592.16,-95.69 601.38,-100.9 602.62,-94.02"/>
</g>
<!-- ed25519&#45;&gt;error -->
<g id="edge53" class="edge">
<title>ed25519&#45;&gt;error</title>
<path fill="none" stroke="black" d="M887.12,-289.61C931.5,-251.92 1045.68,-154.96 1096.25,-112.01"/>
<polygon fill="black" stroke="black" points="1098.01,-114.26 1103.37,-105.12 1093.48,-108.93 1098.01,-114.26"/>
</g>
<!-- ed25519&#45;&gt;type_info -->
<g id="edge55" class="edge">
<title>ed25519&#45;&gt;type_info</title>
<path fill="none" stroke="black" d="M829.96,-298.35C755.75,-285.71 594.26,-258.21 510.6,-243.96"/>
<polygon fill="black" stroke="black" points="511.27,-240.35 500.82,-242.12 510.09,-247.25 511.27,-240.35"/>
</g>
<!-- ed25519&#45;&gt;bcs -->
<g id="edge54" class="edge">
<title>ed25519&#45;&gt;bcs</title>
<path fill="none" stroke="black" d="M863.17,-287.81C855.39,-267.54 839.68,-234.3 815,-216 764.7,-178.7 690.73,-167.55 646.18,-164.28"/>
<polygon fill="black" stroke="black" points="646.45,-160.72 636.25,-163.59 646.01,-167.71 646.45,-160.72"/>
</g>
<!-- ed25519&#45;&gt;hash -->
<g id="edge56" class="edge">
<title>ed25519&#45;&gt;hash</title>
<path fill="none" stroke="black" d="M849.25,-289.81C836.01,-279.62 818.42,-266.09 804.03,-255.02"/>
<polygon fill="black" stroke="black" points="806.61,-251.83 796.55,-248.5 802.35,-257.37 806.61,-251.83"/>
</g>
<!-- multi_ed25519&#45;&gt;option -->
<g id="edge57" class="edge">
<title>multi_ed25519&#45;&gt;option</title>
<path fill="none" stroke="black" d="M723.25,-359.94C718.64,-349.61 712.78,-336.13 708,-324 676.86,-245.01 697.39,-210.02 644,-144 630.91,-127.81 611.47,-115.24 594.38,-106.41"/>
<polygon fill="black" stroke="black" points="596.18,-102.91 585.66,-101.65 593.1,-109.19 596.18,-102.91"/>
</g>
<!-- multi_ed25519&#45;&gt;error -->
<g id="edge58" class="edge">
<title>multi_ed25519&#45;&gt;error</title>
<path fill="none" stroke="black" d="M726.34,-359.57C718.89,-327.48 708.22,-258.45 741,-216 824,-108.5 1001.93,-92.3 1081.33,-90.64"/>
<polygon fill="black" stroke="black" points="1080.91,-94.13 1090.86,-90.49 1080.81,-87.13 1080.91,-94.13"/>
</g>
<!-- multi_ed25519&#45;&gt;features -->
<g id="edge59" class="edge">
<title>multi_ed25519&#45;&gt;features</title>
<path fill="none" stroke="black" d="M704.49,-361.23C688.11,-351.15 666.86,-337.48 649,-324 588.45,-278.32 522.79,-217.98 488.65,-185.69"/>
<polygon fill="black" stroke="black" points="491.73,-183.84 482.06,-179.49 486.91,-188.91 491.73,-183.84"/>
</g>
<!-- multi_ed25519&#45;&gt;bcs -->
<g id="edge60" class="edge">
<title>multi_ed25519&#45;&gt;bcs</title>
<path fill="none" stroke="black" d="M707.34,-360.85C694.85,-351.33 680.07,-338.36 670,-324 654.4,-301.75 629.77,-230.16 616.74,-190.35"/>
<polygon fill="black" stroke="black" points="619.81,-189.47 613.4,-181.03 613.15,-191.63 619.81,-189.47"/>
</g>
<!-- multi_ed25519&#45;&gt;hash -->
<g id="edge61" class="edge">
<title>multi_ed25519&#45;&gt;hash</title>
<path fill="none" stroke="black" d="M736.76,-359.59C744.81,-335.29 759.47,-290.97 768.97,-262.27"/>
<polygon fill="black" stroke="black" points="772.52,-263.7 772.34,-253.11 765.87,-261.5 772.52,-263.7"/>
</g>
<!-- multi_ed25519&#45;&gt;ed25519 -->
<g id="edge62" class="edge">
<title>multi_ed25519&#45;&gt;ed25519</title>
<path fill="none" stroke="black" d="M761.28,-361.64C782.34,-350.96 810.5,-336.67 832.75,-325.39"/>
<polygon fill="black" stroke="black" points="834.18,-328.08 841.51,-320.44 831.01,-321.84 834.18,-328.08"/>
</g>
<!-- from_bcs&#45;&gt;string -->
<g id="edge63" class="edge">
<title>from_bcs&#45;&gt;string</title>
<path fill="none" stroke="black" d="M272.99,-215.7C273.42,-208.24 273.92,-199.32 274.4,-190.97"/>
<polygon fill="black" stroke="black" points="277.95,-191.29 275.02,-181.1 270.96,-190.89 277.95,-191.29"/>
</g>
<!-- chain_id&#45;&gt;system_addresses -->
<g id="edge64" class="edge">
<title>chain_id&#45;&gt;system_addresses</title>
<path fill="none" stroke="black" d="M1033.79,-362.5C1048.98,-352.83 1069.22,-339.95 1086.38,-329.03"/>
<polygon fill="black" stroke="black" points="1087.99,-331.52 1094.55,-323.2 1084.23,-325.61 1087.99,-331.52"/>
</g>
</g>
</svg>
