<?xml version="1.0" encoding="UTF-8" standalone="no"?>
<!DOCTYPE svg PUBLIC "-//W3C//DTD SVG 1.1//EN"
 "http://www.w3.org/Graphics/SVG/1.1/DTD/svg11.dtd">
<!-- Generated by graphviz version 7.1.0 (20230121.1956)
 -->
<!-- Title: G Pages: 1 -->
<svg width="1436pt" height="620pt"
 viewBox="0.00 0.00 1436.00 620.00" xmlns="http://www.w3.org/2000/svg" xmlns:xlink="http://www.w3.org/1999/xlink">
<g id="graph0" class="graph" transform="scale(1 1) rotate(0) translate(4 616)">
<title>G</title>
<polygon fill="white" stroke="none" points="-4,4 -4,-616 1432,-616 1432,4 -4,4"/>
<!-- assets -->
<g id="node1" class="node">
<title>assets</title>
<ellipse fill="none" stroke="black" cx="889" cy="-594" rx="31.4" ry="18"/>
<text text-anchor="middle" x="889" y="-590.3" font-family="Times,serif" font-size="14.00">assets</text>
</g>
<!-- string -->
<g id="node2" class="node">
<title>string</title>
<ellipse fill="none" stroke="black" cx="123" cy="-162" rx="30.59" ry="18"/>
<text text-anchor="middle" x="123" y="-158.3" font-family="Times,serif" font-size="14.00">string</text>
</g>
<!-- assets&#45;&gt;string -->
<g id="edge1" class="edge">
<title>assets&#45;&gt;string</title>
<path fill="none" stroke="black" d="M857.62,-591.38C699.76,-582.79 0,-539.75 0,-451 0,-451 0,-451 0,-305 0,-261.45 12.47,-248.9 41,-216 54.33,-200.62 73.2,-188.01 89.48,-178.95"/>
<polygon fill="black" stroke="black" points="90.68,-182.28 97.87,-174.49 87.39,-176.1 90.68,-182.28"/>
</g>
<!-- signer -->
<g id="node3" class="node">
<title>signer</title>
<ellipse fill="none" stroke="black" cx="1276" cy="-90" rx="32.49" ry="18"/>
<text text-anchor="middle" x="1276" y="-86.3" font-family="Times,serif" font-size="14.00">signer</text>
</g>
<!-- assets&#45;&gt;signer -->
<g id="edge2" class="edge">
<title>assets&#45;&gt;signer</title>
<path fill="none" stroke="black" d="M920.31,-591.56C1035.34,-585.42 1428,-556.72 1428,-451 1428,-451 1428,-451 1428,-233 1428,-169.98 1357.37,-126.89 1312.4,-105.85"/>
<polygon fill="black" stroke="black" points="1314.06,-102.76 1303.51,-101.84 1311.18,-109.14 1314.06,-102.76"/>
</g>
<!-- coin -->
<g id="node4" class="node">
<title>coin</title>
<ellipse fill="none" stroke="black" cx="889" cy="-522" rx="27" ry="18"/>
<text text-anchor="middle" x="889" y="-518.3" font-family="Times,serif" font-size="14.00">coin</text>
</g>
<!-- assets&#45;&gt;coin -->
<g id="edge3" class="edge">
<title>assets&#45;&gt;coin</title>
<path fill="none" stroke="black" d="M889,-575.7C889,-568.41 889,-559.73 889,-551.54"/>
<polygon fill="black" stroke="black" points="892.5,-551.62 889,-541.62 885.5,-551.62 892.5,-551.62"/>
</g>
<!-- vector -->
<g id="node5" class="node">
<title>vector</title>
<ellipse fill="none" stroke="black" cx="182" cy="-18" rx="32.49" ry="18"/>
<text text-anchor="middle" x="182" y="-14.3" font-family="Times,serif" font-size="14.00">vector</text>
</g>
<!-- string&#45;&gt;vector -->
<g id="edge4" class="edge">
<title>string&#45;&gt;vector</title>
<path fill="none" stroke="black" d="M130,-144.15C140.02,-120.03 158.58,-75.36 170.6,-46.43"/>
<polygon fill="black" stroke="black" points="173.82,-47.8 174.43,-37.22 167.36,-45.11 173.82,-47.8"/>
</g>
<!-- option -->
<g id="node6" class="node">
<title>option</title>
<ellipse fill="none" stroke="black" cx="258" cy="-90" rx="33.29" ry="18"/>
<text text-anchor="middle" x="258" y="-86.3" font-family="Times,serif" font-size="14.00">option</text>
</g>
<!-- string&#45;&gt;option -->
<g id="edge5" class="edge">
<title>string&#45;&gt;option</title>
<path fill="none" stroke="black" d="M145.29,-149.44C166.92,-138.23 200,-121.08 224.74,-108.25"/>
<polygon fill="black" stroke="black" points="226.16,-111.45 233.43,-103.74 222.94,-105.24 226.16,-111.45"/>
</g>
<!-- coin&#45;&gt;string -->
<g id="edge7" class="edge">
<title>coin&#45;&gt;string</title>
<path fill="none" stroke="black" d="M861.55,-521.1C725.24,-521.38 125.12,-519.64 62,-468 30.29,-442.06 38,-419.97 38,-379 38,-379 38,-379 38,-305 38,-264.03 40.26,-250.72 62,-216 70.03,-203.18 82.11,-191.76 93.41,-182.83"/>
<polygon fill="black" stroke="black" points="95.5,-185.64 101.4,-176.85 91.3,-180.04 95.5,-185.64"/>
</g>
<!-- coin&#45;&gt;signer -->
<g id="edge8" class="edge">
<title>coin&#45;&gt;signer</title>
<path fill="none" stroke="black" d="M916.12,-519.85C1012.86,-515.49 1337.04,-498.7 1371,-468 1401,-440.88 1390,-419.45 1390,-379 1390,-379 1390,-379 1390,-233 1390,-179.4 1339.99,-134.51 1306.22,-110.3"/>
<polygon fill="black" stroke="black" points="1308.63,-107.72 1298.42,-104.9 1304.64,-113.47 1308.63,-107.72"/>
</g>
<!-- coin&#45;&gt;option -->
<g id="edge6" class="edge">
<title>coin&#45;&gt;option</title>
<path fill="none" stroke="black" d="M861.95,-519.21C720.88,-509.5 76,-460.67 76,-379 76,-379 76,-379 76,-305 76,-264.55 70.62,-248.27 95,-216 115.62,-188.72 135.17,-199.87 163,-180 190.28,-160.53 217.83,-133.75 236.19,-114.67"/>
<polygon fill="black" stroke="black" points="238.56,-117.26 242.9,-107.59 233.48,-112.44 238.56,-117.26"/>
</g>
<!-- error -->
<g id="node7" class="node">
<title>error</title>
<ellipse fill="none" stroke="black" cx="886" cy="-90" rx="27.9" ry="18"/>
<text text-anchor="middle" x="886" y="-86.3" font-family="Times,serif" font-size="14.00">error</text>
</g>
<!-- coin&#45;&gt;error -->
<g id="edge9" class="edge">
<title>coin&#45;&gt;error</title>
<path fill="none" stroke="black" d="M888.88,-503.61C888.42,-437.55 886.77,-201.78 886.2,-119.54"/>
<polygon fill="black" stroke="black" points="889.7,-119.62 886.13,-109.65 882.7,-119.67 889.7,-119.62"/>
</g>
<!-- type_info -->
<g id="node8" class="node">
<title>type_info</title>
<ellipse fill="none" stroke="black" cx="719" cy="-234" rx="44.39" ry="18"/>
<text text-anchor="middle" x="719" y="-230.3" font-family="Times,serif" font-size="14.00">type_info</text>
</g>
<!-- coin&#45;&gt;type_info -->
<g id="edge10" class="edge">
<title>coin&#45;&gt;type_info</title>
<path fill="none" stroke="black" d="M884.12,-504.16C875.27,-474.43 855.31,-410.96 832,-360 816.68,-326.51 815.47,-315.52 791,-288 780.07,-275.71 765.85,-264.51 752.93,-255.61"/>
<polygon fill="black" stroke="black" points="754.92,-252.72 744.65,-250.1 751.04,-258.55 754.92,-252.72"/>
</g>
<!-- system_addresses -->
<g id="node9" class="node">
<title>system_addresses</title>
<ellipse fill="none" stroke="black" cx="1061" cy="-306" rx="73.39" ry="18"/>
<text text-anchor="middle" x="1061" y="-302.3" font-family="Times,serif" font-size="14.00">system_addresses</text>
</g>
<!-- coin&#45;&gt;system_addresses -->
<g id="edge11" class="edge">
<title>coin&#45;&gt;system_addresses</title>
<path fill="none" stroke="black" d="M901.37,-505.61C930.57,-469.28 1004.02,-377.89 1040.2,-332.88"/>
<polygon fill="black" stroke="black" points="1042.84,-335.18 1046.38,-325.19 1037.39,-330.79 1042.84,-335.18"/>
</g>
<!-- event -->
<g id="node10" class="node">
<title>event</title>
<ellipse fill="none" stroke="black" cx="793" cy="-378" rx="29.8" ry="18"/>
<text text-anchor="middle" x="793" y="-374.3" font-family="Times,serif" font-size="14.00">event</text>
</g>
<!-- coin&#45;&gt;event -->
<g id="edge12" class="edge">
<title>coin&#45;&gt;event</title>
<path fill="none" stroke="black" d="M873.08,-507.28C862.02,-497.19 847.45,-482.71 837,-468 823.36,-448.8 811.75,-424.74 803.88,-406.48"/>
<polygon fill="black" stroke="black" points="807.15,-405.23 800.07,-397.35 800.69,-407.93 807.15,-405.23"/>
</g>
<!-- account -->
<g id="node11" class="node">
<title>account</title>
<ellipse fill="none" stroke="black" cx="621" cy="-450" rx="38.19" ry="18"/>
<text text-anchor="middle" x="621" y="-446.3" font-family="Times,serif" font-size="14.00">account</text>
</g>
<!-- coin&#45;&gt;account -->
<g id="edge13" class="edge">
<title>coin&#45;&gt;account</title>
<path fill="none" stroke="black" d="M864.27,-514.54C818.83,-502.67 721.54,-477.26 664.73,-462.42"/>
<polygon fill="black" stroke="black" points="665.95,-459.12 655.39,-459.98 664.18,-465.9 665.95,-459.12"/>
</g>
<!-- aggregator -->
<g id="node12" class="node">
<title>aggregator</title>
<ellipse fill="none" stroke="black" cx="1238" cy="-306" rx="48.19" ry="18"/>
<text text-anchor="middle" x="1238" y="-302.3" font-family="Times,serif" font-size="14.00">aggregator</text>
</g>
<!-- coin&#45;&gt;aggregator -->
<g id="edge14" class="edge">
<title>coin&#45;&gt;aggregator</title>
<path fill="none" stroke="black" d="M915.29,-517.29C973.37,-507.78 1113.8,-477.25 1194,-396 1210.82,-378.96 1222.35,-354.19 1229.37,-335.11"/>
<polygon fill="black" stroke="black" points="1232.63,-336.39 1232.58,-325.79 1226.01,-334.11 1232.63,-336.39"/>
</g>
<!-- aggregator_factory -->
<g id="node13" class="node">
<title>aggregator_factory</title>
<ellipse fill="none" stroke="black" cx="1108" cy="-378" rx="77.19" ry="18"/>
<text text-anchor="middle" x="1108" y="-374.3" font-family="Times,serif" font-size="14.00">aggregator_factory</text>
</g>
<!-- coin&#45;&gt;aggregator_factory -->
<g id="edge15" class="edge">
<title>coin&#45;&gt;aggregator_factory</title>
<path fill="none" stroke="black" d="M913.47,-513.96C940.28,-505.56 983.88,-489.86 1017,-468 1043.75,-450.34 1069.4,-424.13 1086.61,-404.72"/>
<polygon fill="black" stroke="black" points="1089.21,-407.06 1093.12,-397.21 1083.92,-402.47 1089.21,-407.06"/>
</g>
<!-- optional_aggregator -->
<g id="node14" class="node">
<title>optional_aggregator</title>
<ellipse fill="none" stroke="black" cx="1281" cy="-450" rx="81.49" ry="18"/>
<text text-anchor="middle" x="1281" y="-446.3" font-family="Times,serif" font-size="14.00">optional_aggregator</text>
</g>
<!-- coin&#45;&gt;optional_aggregator -->
<g id="edge16" class="edge">
<title>coin&#45;&gt;optional_aggregator</title>
<path fill="none" stroke="black" d="M914.82,-516.4C966.37,-507.2 1085.72,-485.92 1186,-468 1193.12,-466.73 1200.54,-465.4 1207.95,-464.07"/>
<polygon fill="black" stroke="black" points="1208.45,-467.54 1217.68,-462.34 1207.22,-460.65 1208.45,-467.54"/>
</g>
<!-- option&#45;&gt;vector -->
<g id="edge17" class="edge">
<title>option&#45;&gt;vector</title>
<path fill="none" stroke="black" d="M241.88,-74.15C231.67,-64.75 218.27,-52.41 206.73,-41.78"/>
<polygon fill="black" stroke="black" points="209.2,-39.29 199.47,-35.09 204.45,-44.44 209.2,-39.29"/>
</g>
<!-- type_info&#45;&gt;string -->
<g id="edge18" class="edge">
<title>type_info&#45;&gt;string</title>
<path fill="none" stroke="black" d="M676.61,-228.02C566.54,-215.09 272.62,-180.57 164.05,-167.82"/>
<polygon fill="black" stroke="black" points="164.78,-164.38 154.44,-166.69 163.96,-171.34 164.78,-164.38"/>
</g>
<!-- type_info&#45;&gt;error -->
<g id="edge19" class="edge">
<title>type_info&#45;&gt;error</title>
<path fill="none" stroke="black" d="M737.51,-217.26C767.76,-191.54 827.78,-140.5 861.51,-111.82"/>
<polygon fill="black" stroke="black" points="863.38,-114.82 868.73,-105.68 858.85,-109.49 863.38,-114.82"/>
</g>
<!-- features -->
<g id="node15" class="node">
<title>features</title>
<ellipse fill="none" stroke="black" cx="952" cy="-162" rx="38.19" ry="18"/>
<text text-anchor="middle" x="952" y="-158.3" font-family="Times,serif" font-size="14.00">features</text>
</g>
<!-- type_info&#45;&gt;features -->
<g id="edge20" class="edge">
<title>type_info&#45;&gt;features</title>
<path fill="none" stroke="black" d="M753.88,-222.52C795.43,-210.04 864.81,-189.2 909.46,-175.78"/>
<polygon fill="black" stroke="black" points="910.23,-179.2 918.8,-172.97 908.22,-172.5 910.23,-179.2"/>
</g>
<!-- bcs -->
<g id="node16" class="node">
<title>bcs</title>
<ellipse fill="none" stroke="black" cx="554" cy="-162" rx="27" ry="18"/>
<text text-anchor="middle" x="554" y="-158.3" font-family="Times,serif" font-size="14.00">bcs</text>
</g>
<!-- type_info&#45;&gt;bcs -->
<g id="edge21" class="edge">
<title>type_info&#45;&gt;bcs</title>
<path fill="none" stroke="black" d="M689.12,-220.32C660.25,-208.08 616.64,-189.57 586.82,-176.92"/>
<polygon fill="black" stroke="black" points="588.48,-173.82 577.9,-173.14 585.74,-180.27 588.48,-173.82"/>
</g>
<!-- system_addresses&#45;&gt;signer -->
<g id="edge22" class="edge">
<title>system_addresses&#45;&gt;signer</title>
<path fill="none" stroke="black" d="M1098.56,-290.29C1142.04,-271.33 1212.69,-234.22 1252,-180 1264.79,-162.36 1270.77,-138.3 1273.56,-119.65"/>
<polygon fill="black" stroke="black" points="1277.02,-120.15 1274.78,-109.79 1270.07,-119.28 1277.02,-120.15"/>
</g>
<!-- system_addresses&#45;&gt;error -->
<g id="edge23" class="edge">
<title>system_addresses&#45;&gt;error</title>
<path fill="none" stroke="black" d="M1058.66,-287.73C1053.47,-255.6 1038.2,-186.08 999,-144 978.51,-122 947.03,-108.28 922.5,-100.32"/>
<polygon fill="black" stroke="black" points="923.82,-97.07 913.23,-97.51 921.78,-103.76 923.82,-97.07"/>
</g>
<!-- event&#45;&gt;bcs -->
<g id="edge24" class="edge">
<title>event&#45;&gt;bcs</title>
<path fill="none" stroke="black" d="M796.82,-359.73C803.01,-326.63 810.94,-254.19 772,-216 746.69,-191.18 647.13,-174.86 591.73,-167.5"/>
<polygon fill="black" stroke="black" points="592.48,-164.07 582.12,-166.26 591.59,-171.01 592.48,-164.07"/>
</g>
<!-- guid -->
<g id="node17" class="node">
<title>guid</title>
<ellipse fill="none" stroke="black" cx="755" cy="-306" rx="27" ry="18"/>
<text text-anchor="middle" x="755" y="-302.3" font-family="Times,serif" font-size="14.00">guid</text>
</g>
<!-- event&#45;&gt;guid -->
<g id="edge25" class="edge">
<title>event&#45;&gt;guid</title>
<path fill="none" stroke="black" d="M783.99,-360.41C779.64,-352.39 774.31,-342.57 769.41,-333.54"/>
<polygon fill="black" stroke="black" points="772.51,-331.92 764.66,-324.8 766.36,-335.26 772.51,-331.92"/>
</g>
<!-- account&#45;&gt;signer -->
<g id="edge28" class="edge">
<title>account&#45;&gt;signer</title>
<path fill="none" stroke="black" d="M634.29,-432.76C642.41,-422.5 652.79,-408.81 661,-396 690.39,-350.12 677.64,-323.47 719,-288 739.83,-270.13 1115.3,-144.4 1237.74,-103.69"/>
<polygon fill="black" stroke="black" points="1238.63,-107.08 1247.01,-100.61 1236.42,-100.44 1238.63,-107.08"/>
</g>
<!-- account&#45;&gt;vector -->
<g id="edge26" class="edge">
<title>account&#45;&gt;vector</title>
<path fill="none" stroke="black" d="M582.59,-448.24C502.03,-445.85 319.13,-436.04 274,-396 221.27,-349.22 193.27,-127.02 184.81,-47.44"/>
<polygon fill="black" stroke="black" points="188.33,-47.44 183.81,-37.86 181.36,-48.16 188.33,-47.44"/>
</g>
<!-- account&#45;&gt;option -->
<g id="edge27" class="edge">
<title>account&#45;&gt;option</title>
<path fill="none" stroke="black" d="M583.63,-445.39C515.29,-438.28 373.34,-420.94 331,-396 286.92,-370.04 258,-358.16 258,-307 258,-307 258,-307 258,-233 258,-193.74 258,-148.38 258,-119.69"/>
<polygon fill="black" stroke="black" points="261.5,-120 258,-110 254.5,-120 261.5,-120"/>
</g>
<!-- account&#45;&gt;error -->
<g id="edge29" class="edge">
<title>account&#45;&gt;error</title>
<path fill="none" stroke="black" d="M619.89,-431.74C618.12,-390.55 618.82,-284.8 666,-216 710.14,-151.64 798.97,-116.41 849.2,-100.87"/>
<polygon fill="black" stroke="black" points="850.17,-104.24 858.75,-98.03 848.17,-97.53 850.17,-104.24"/>
</g>
<!-- account&#45;&gt;type_info -->
<g id="edge31" class="edge">
<title>account&#45;&gt;type_info</title>
<path fill="none" stroke="black" d="M626.72,-432.12C637.06,-402.34 660.18,-338.79 686,-288 690.54,-279.07 696.1,-269.68 701.36,-261.33"/>
<polygon fill="black" stroke="black" points="704.23,-263.32 706.71,-253.02 698.35,-259.53 704.23,-263.32"/>
</g>
<!-- account&#45;&gt;system_addresses -->
<g id="edge33" class="edge">
<title>account&#45;&gt;system_addresses</title>
<path fill="none" stroke="black" d="M657.45,-444.02C706.92,-436.65 797.7,-420.96 872,-396 926.05,-377.84 985,-348.42 1022.44,-328.42"/>
<polygon fill="black" stroke="black" points="1023.93,-331.59 1031.08,-323.76 1020.61,-325.43 1023.93,-331.59"/>
</g>
<!-- account&#45;&gt;event -->
<g id="edge39" class="edge">
<title>account&#45;&gt;event</title>
<path fill="none" stroke="black" d="M649.4,-437.44C679.19,-425.32 726.04,-406.25 758.07,-393.22"/>
<polygon fill="black" stroke="black" points="759.39,-396.46 767.33,-389.45 756.75,-389.98 759.39,-396.46"/>
</g>
<!-- account&#45;&gt;bcs -->
<g id="edge30" class="edge">
<title>account&#45;&gt;bcs</title>
<path fill="none" stroke="black" d="M583.3,-445.94C519.69,-440.03 394.87,-425.01 363,-396 313.51,-350.95 328.89,-318.19 319,-252 316.64,-236.18 309.01,-228.5 319,-216 343.24,-185.68 455.88,-171.47 515.98,-165.94"/>
<polygon fill="black" stroke="black" points="516.1,-169.44 525.75,-165.08 515.48,-162.47 516.1,-169.44"/>
</g>
<!-- account&#45;&gt;guid -->
<g id="edge37" class="edge">
<title>account&#45;&gt;guid</title>
<path fill="none" stroke="black" d="M649.46,-437.48C668.78,-428.5 693.84,-414.46 711,-396 727.31,-378.46 738.87,-353.74 746.04,-334.8"/>
<polygon fill="black" stroke="black" points="749.27,-336.17 749.34,-325.57 742.68,-333.81 749.27,-336.17"/>
</g>
<!-- table -->
<g id="node18" class="node">
<title>table</title>
<ellipse fill="none" stroke="black" cx="942" cy="-306" rx="27.9" ry="18"/>
<text text-anchor="middle" x="942" y="-302.3" font-family="Times,serif" font-size="14.00">table</text>
</g>
<!-- account&#45;&gt;table -->
<g id="edge32" class="edge">
<title>account&#45;&gt;table</title>
<path fill="none" stroke="black" d="M657.76,-444.68C701.23,-438.48 774.89,-424.52 832,-396 865.84,-379.1 898.78,-350.32 919.65,-330.08"/>
<polygon fill="black" stroke="black" points="922.1,-332.57 926.74,-323.05 917.18,-327.6 922.1,-332.57"/>
</g>
<!-- hash -->
<g id="node19" class="node">
<title>hash</title>
<ellipse fill="none" stroke="black" cx="355" cy="-234" rx="27" ry="18"/>
<text text-anchor="middle" x="355" y="-230.3" font-family="Times,serif" font-size="14.00">hash</text>
</g>
<!-- account&#45;&gt;hash -->
<g id="edge34" class="edge">
<title>account&#45;&gt;hash</title>
<path fill="none" stroke="black" d="M583.62,-445.24C525.2,-438.61 416.12,-422.92 389,-396 353.85,-361.1 350.72,-299.61 352.36,-263.57"/>
<polygon fill="black" stroke="black" points="355.83,-264.1 352.96,-253.91 348.84,-263.67 355.83,-264.1"/>
</g>
<!-- ed25519 -->
<g id="node20" class="node">
<title>ed25519</title>
<ellipse fill="none" stroke="black" cx="555" cy="-306" rx="40.89" ry="18"/>
<text text-anchor="middle" x="555" y="-302.3" font-family="Times,serif" font-size="14.00">ed25519</text>
</g>
<!-- account&#45;&gt;ed25519 -->
<g id="edge35" class="edge">
<title>account&#45;&gt;ed25519</title>
<path fill="none" stroke="black" d="M613.17,-432.15C601.91,-407.92 581.01,-362.96 567.57,-334.05"/>
<polygon fill="black" stroke="black" points="570.85,-332.79 563.46,-325.2 564.5,-335.74 570.85,-332.79"/>
</g>
<!-- multi_ed25519 -->
<g id="node21" class="node">
<title>multi_ed25519</title>
<ellipse fill="none" stroke="black" cx="462" cy="-378" rx="64.19" ry="18"/>
<text text-anchor="middle" x="462" y="-374.3" font-family="Times,serif" font-size="14.00">multi_ed25519</text>
</g>
<!-- account&#45;&gt;multi_ed25519 -->
<g id="edge36" class="edge">
<title>account&#45;&gt;multi_ed25519</title>
<path fill="none" stroke="black" d="M593.67,-436.97C569.58,-426.36 534.04,-410.72 505.96,-398.35"/>
<polygon fill="black" stroke="black" points="507.54,-395.23 496.98,-394.4 504.72,-401.63 507.54,-395.23"/>
</g>
<!-- from_bcs -->
<g id="node22" class="node">
<title>from_bcs</title>
<ellipse fill="none" stroke="black" cx="148" cy="-234" rx="44.39" ry="18"/>
<text text-anchor="middle" x="148" y="-230.3" font-family="Times,serif" font-size="14.00">from_bcs</text>
</g>
<!-- account&#45;&gt;from_bcs -->
<g id="edge38" class="edge">
<title>account&#45;&gt;from_bcs</title>
<path fill="none" stroke="black" d="M582.4,-449.06C490.76,-448.43 263.51,-442.13 206,-396 165.61,-363.6 153.33,-300.69 149.61,-263.83"/>
<polygon fill="black" stroke="black" points="153.1,-263.59 148.77,-253.92 146.13,-264.18 153.1,-263.59"/>
</g>
<!-- aggregator_factory&#45;&gt;error -->
<g id="edge40" class="edge">
<title>aggregator_factory&#45;&gt;error</title>
<path fill="none" stroke="black" d="M1122.82,-360.17C1130.46,-350.35 1139,-337.31 1143,-324 1147.6,-308.68 1148.35,-303.08 1143,-288 1115.41,-210.29 1092.86,-192.26 1026,-144 994.89,-121.54 953.1,-107.36 923.29,-99.38"/>
<polygon fill="black" stroke="black" points="924.53,-96.08 913.97,-96.99 922.79,-102.86 924.53,-96.08"/>
</g>
<!-- aggregator_factory&#45;&gt;system_addresses -->
<g id="edge42" class="edge">
<title>aggregator_factory&#45;&gt;system_addresses</title>
<path fill="none" stroke="black" d="M1096.62,-360.05C1091.2,-351.97 1084.58,-342.12 1078.53,-333.11"/>
<polygon fill="black" stroke="black" points="1081.6,-331.4 1073.12,-325.05 1075.78,-335.3 1081.6,-331.4"/>
</g>
<!-- aggregator_factory&#45;&gt;aggregator -->
<g id="edge43" class="edge">
<title>aggregator_factory&#45;&gt;aggregator</title>
<path fill="none" stroke="black" d="M1137.82,-360.94C1156.72,-350.77 1181.29,-337.54 1201.37,-326.73"/>
<polygon fill="black" stroke="black" points="1202.93,-329.86 1210.07,-322.04 1199.61,-323.7 1202.93,-329.86"/>
</g>
<!-- aggregator_factory&#45;&gt;table -->
<g id="edge41" class="edge">
<title>aggregator_factory&#45;&gt;table</title>
<path fill="none" stroke="black" d="M1070.01,-361.87C1044.22,-351.48 1009.42,-337.23 979,-324 977.5,-323.35 975.97,-322.68 974.43,-321.99"/>
<polygon fill="black" stroke="black" points="976.17,-318.94 965.62,-318.02 973.3,-325.32 976.17,-318.94"/>
</g>
<!-- optional_aggregator&#45;&gt;option -->
<g id="edge44" class="edge">
<title>optional_aggregator&#45;&gt;option</title>
<path fill="none" stroke="black" d="M1289.58,-431.67C1304.16,-399.43 1329.07,-329.73 1295,-288 1230.36,-208.83 490.86,-118.04 301.8,-96"/>
<polygon fill="black" stroke="black" points="302.25,-92.53 291.91,-94.86 301.44,-99.49 302.25,-92.53"/>
</g>
<!-- optional_aggregator&#45;&gt;error -->
<g id="edge45" class="edge">
<title>optional_aggregator&#45;&gt;error</title>
<path fill="none" stroke="black" d="M1301.78,-432.17C1311.75,-422.72 1322.68,-410.03 1328,-396 1345.03,-351.12 1352.5,-329.28 1328,-288 1241.4,-142.12 1016.4,-103.8 925.23,-94.13"/>
<polygon fill="black" stroke="black" points="925.59,-90.65 915.29,-93.14 924.89,-97.61 925.59,-90.65"/>
</g>
<!-- optional_aggregator&#45;&gt;aggregator -->
<g id="edge46" class="edge">
<title>optional_aggregator&#45;&gt;aggregator</title>
<path fill="none" stroke="black" d="M1275.73,-431.59C1268.43,-407.5 1255.19,-363.75 1246.49,-335.03"/>
<polygon fill="black" stroke="black" points="1249.87,-334.12 1243.62,-325.56 1243.17,-336.14 1249.87,-334.12"/>
</g>
<!-- optional_aggregator&#45;&gt;aggregator_factory -->
<g id="edge47" class="edge">
<title>optional_aggregator&#45;&gt;aggregator_factory</title>
<path fill="none" stroke="black" d="M1243.03,-433.64C1217.39,-423.26 1183.34,-409.49 1155.85,-398.36"/>
<polygon fill="black" stroke="black" points="1157.27,-395.16 1146.69,-394.65 1154.64,-401.65 1157.27,-395.16"/>
</g>
<!-- features&#45;&gt;signer -->
<g id="edge48" class="edge">
<title>features&#45;&gt;signer</title>
<path fill="none" stroke="black" d="M986.37,-153.58C1046.59,-140.56 1170.91,-113.7 1235.32,-99.79"/>
<polygon fill="black" stroke="black" points="1235.73,-103.28 1244.77,-97.75 1234.26,-96.44 1235.73,-103.28"/>
</g>
<!-- features&#45;&gt;error -->
<g id="edge49" class="edge">
<title>features&#45;&gt;error</title>
<path fill="none" stroke="black" d="M937.02,-145.12C928.35,-135.91 917.27,-124.17 907.66,-113.97"/>
<polygon fill="black" stroke="black" points="910.46,-111.84 901.05,-106.97 905.37,-116.64 910.46,-111.84"/>
</g>
<!-- ed25519&#45;&gt;option -->
<g id="edge50" class="edge">
<title>ed25519&#45;&gt;option</title>
<path fill="none" stroke="black" d="M545.83,-288.17C527.21,-255.53 481.76,-183.38 424,-144 386.67,-118.55 336.41,-104.76 301,-97.68"/>
<polygon fill="black" stroke="black" points="302.02,-94.31 291.55,-95.89 300.72,-101.19 302.02,-94.31"/>
</g>
<!-- ed25519&#45;&gt;error -->
<g id="edge51" class="edge">
<title>ed25519&#45;&gt;error</title>
<path fill="none" stroke="black" d="M561.15,-287.72C574.85,-250.19 608.58,-163.07 633,-144 665.89,-118.31 784.56,-101.97 846.99,-94.96"/>
<polygon fill="black" stroke="black" points="847.25,-98.45 856.81,-93.88 846.49,-91.49 847.25,-98.45"/>
</g>
<!-- ed25519&#45;&gt;type_info -->
<g id="edge53" class="edge">
<title>ed25519&#45;&gt;type_info</title>
<path fill="none" stroke="black" d="M583.57,-292.81C609.89,-281.57 649.21,-264.79 678.72,-252.19"/>
<polygon fill="black" stroke="black" points="679.88,-255.5 687.71,-248.36 677.14,-249.06 679.88,-255.5"/>
</g>
<!-- ed25519&#45;&gt;bcs -->
<g id="edge52" class="edge">
<title>ed25519&#45;&gt;bcs</title>
<path fill="none" stroke="black" d="M554.88,-287.59C554.71,-263.61 554.4,-220.14 554.2,-191.42"/>
<polygon fill="black" stroke="black" points="557.7,-191.6 554.13,-181.62 550.7,-191.65 557.7,-191.6"/>
</g>
<!-- ed25519&#45;&gt;hash -->
<g id="edge54" class="edge">
<title>ed25519&#45;&gt;hash</title>
<path fill="none" stroke="black" d="M523.75,-294.06C487.15,-281.25 426.74,-260.11 389,-246.9"/>
<polygon fill="black" stroke="black" points="390.55,-243.74 379.96,-243.74 388.24,-250.34 390.55,-243.74"/>
</g>
<!-- multi_ed25519&#45;&gt;option -->
<g id="edge55" class="edge">
<title>multi_ed25519&#45;&gt;option</title>
<path fill="none" stroke="black" d="M452.45,-360.05C446.8,-349.76 439.67,-336.28 434,-324 412.35,-277.09 420.07,-258.71 391,-216 361.88,-173.22 315.78,-134.15 286.22,-111.46"/>
<polygon fill="black" stroke="black" points="288.55,-108.83 278.46,-105.6 284.33,-114.42 288.55,-108.83"/>
</g>
<!-- multi_ed25519&#45;&gt;error -->
<g id="edge56" class="edge">
<title>multi_ed25519&#45;&gt;error</title>
<path fill="none" stroke="black" d="M460.25,-359.75C456.87,-316.18 454.7,-201.16 518,-144 565.65,-100.97 761.46,-92.81 846.39,-91.31"/>
<polygon fill="black" stroke="black" points="846.39,-94.81 856.34,-91.16 846.29,-87.81 846.39,-94.81"/>
</g>
<!-- multi_ed25519&#45;&gt;bcs -->
<g id="edge57" class="edge">
<title>multi_ed25519&#45;&gt;bcs</title>
<path fill="none" stroke="black" d="M469.37,-359.85C485.33,-322.73 523.18,-234.69 542.39,-190.01"/>
<polygon fill="black" stroke="black" points="545.51,-191.6 546.25,-181.03 539.08,-188.84 545.51,-191.6"/>
</g>
<!-- multi_ed25519&#45;&gt;hash -->
<g id="edge58" class="edge">
<title>multi_ed25519&#45;&gt;hash</title>
<path fill="none" stroke="black" d="M437.04,-361.17C423.56,-351.66 407.4,-338.59 396,-324 381.61,-305.57 370.85,-281.27 363.97,-262.72"/>
<polygon fill="black" stroke="black" points="367.33,-261.7 360.7,-253.44 360.73,-264.03 367.33,-261.7"/>
</g>
<!-- multi_ed25519&#45;&gt;ed25519 -->
<g id="edge59" class="edge">
<title>multi_ed25519&#45;&gt;ed25519</title>
<path fill="none" stroke="black" d="M483.57,-360.76C496.21,-351.25 512.35,-339.1 526.08,-328.77"/>
<polygon fill="black" stroke="black" points="528.04,-331.67 533.93,-322.86 523.83,-326.08 528.04,-331.67"/>
</g>
<!-- from_bcs&#45;&gt;string -->
<g id="edge60" class="edge">
<title>from_bcs&#45;&gt;string</title>
<path fill="none" stroke="black" d="M141.82,-215.7C139.13,-208.15 135.9,-199.12 132.89,-190.68"/>
<polygon fill="black" stroke="black" points="136.28,-189.77 129.62,-181.53 129.69,-192.12 136.28,-189.77"/>
</g>
</g>
</svg>
