<?xml version="1.0" encoding="UTF-8" standalone="no"?>
<!DOCTYPE svg PUBLIC "-//W3C//DTD SVG 1.1//EN"
 "http://www.w3.org/Graphics/SVG/1.1/DTD/svg11.dtd">
<!-- Generated by graphviz version 7.1.0 (20230121.1956)
 -->
<!-- Title: G Pages: 1 -->
<svg width="278pt" height="188pt"
 viewBox="0.00 0.00 278.24 188.00" xmlns="http://www.w3.org/2000/svg" xmlns:xlink="http://www.w3.org/1999/xlink">
<g id="graph0" class="graph" transform="scale(1 1) rotate(0) translate(4 184)">
<title>G</title>
<polygon fill="white" stroke="none" points="-4,4 -4,-184 274.24,-184 274.24,4 -4,4"/>
<!-- avl_queue -->
<g id="node1" class="node">
<title>avl_queue</title>
<ellipse fill="none" stroke="black" cx="94.15" cy="-162" rx="46.59" ry="18"/>
<text text-anchor="middle" x="94.15" y="-158.3" font-family="Times,serif" font-size="14.00">avl_queue</text>
</g>
<!-- option -->
<g id="node2" class="node">
<title>option</title>
<ellipse fill="none" stroke="black" cx="33.15" cy="-90" rx="33.29" ry="18"/>
<text text-anchor="middle" x="33.15" y="-86.3" font-family="Times,serif" font-size="14.00">option</text>
</g>
<!-- avl_queue&#45;&gt;option -->
<g id="edge1" class="edge">
<title>avl_queue&#45;&gt;option</title>
<path fill="none" stroke="black" d="M79.69,-144.41C72.03,-135.62 62.48,-124.66 54.03,-114.96"/>
<polygon fill="black" stroke="black" points="56.87,-112.89 47.66,-107.65 51.59,-117.49 56.87,-112.89"/>
</g>
<!-- table -->
<g id="node3" class="node">
<title>table</title>
<ellipse fill="none" stroke="black" cx="117.15" cy="-18" rx="27.9" ry="18"/>
<text text-anchor="middle" x="117.15" y="-14.3" font-family="Times,serif" font-size="14.00">table</text>
</g>
<!-- avl_queue&#45;&gt;table -->
<g id="edge2" class="edge">
<title>avl_queue&#45;&gt;table</title>
<path fill="none" stroke="black" d="M96.97,-143.59C100.85,-119.61 107.89,-76.14 112.54,-47.42"/>
<polygon fill="black" stroke="black" points="115.99,-48.04 114.13,-37.6 109.08,-46.92 115.99,-48.04"/>
</g>
<!-- table_with_length -->
<g id="node4" class="node">
<title>table_with_length</title>
<ellipse fill="none" stroke="black" cx="196.15" cy="-90" rx="74.19" ry="18"/>
<text text-anchor="middle" x="196.15" y="-86.3" font-family="Times,serif" font-size="14.00">table_with_length</text>
</g>
<!-- avl_queue&#45;&gt;table_with_length -->
<g id="edge3" class="edge">
<title>avl_queue&#45;&gt;table_with_length</title>
<path fill="none" stroke="black" d="M116.28,-145.81C129.96,-136.42 147.78,-124.19 163.11,-113.67"/>
<polygon fill="black" stroke="black" points="164.77,-116.78 171.03,-108.24 160.81,-111.01 164.77,-116.78"/>
</g>
<!-- vector -->
<g id="node5" class="node">
<title>vector</title>
<ellipse fill="none" stroke="black" cx="33.15" cy="-18" rx="32.49" ry="18"/>
<text text-anchor="middle" x="33.15" y="-14.3" font-family="Times,serif" font-size="14.00">vector</text>
</g>
<!-- option&#45;&gt;vector -->
<g id="edge4" class="edge">
<title>option&#45;&gt;vector</title>
<path fill="none" stroke="black" d="M33.15,-71.7C33.15,-64.41 33.15,-55.73 33.15,-47.54"/>
<polygon fill="black" stroke="black" points="36.65,-47.62 33.15,-37.62 29.65,-47.62 36.65,-47.62"/>
</g>
<!-- table_with_length&#45;&gt;table -->
<g id="edge6" class="edge">
<title>table_with_length&#45;&gt;table</title>
<path fill="none" stroke="black" d="M177.43,-72.41C166.66,-62.87 153.02,-50.79 141.44,-40.53"/>
<polygon fill="black" stroke="black" points="144.01,-38.12 134.2,-34.11 139.36,-43.36 144.01,-38.12"/>
</g>
<!-- error -->
<g id="node6" class="node">
<title>error</title>
<ellipse fill="none" stroke="black" cx="196.15" cy="-18" rx="27.9" ry="18"/>
<text text-anchor="middle" x="196.15" y="-14.3" font-family="Times,serif" font-size="14.00">error</text>
</g>
<!-- table_with_length&#45;&gt;error -->
<g id="edge5" class="edge">
<title>table_with_length&#45;&gt;error</title>
<path fill="none" stroke="black" d="M196.15,-71.7C196.15,-64.41 196.15,-55.73 196.15,-47.54"/>
<polygon fill="black" stroke="black" points="199.65,-47.62 196.15,-37.62 192.65,-47.62 199.65,-47.62"/>
</g>
</g>
</svg>
