<?xml version="1.0" encoding="UTF-8" standalone="no"?>
<!DOCTYPE svg PUBLIC "-//W3C//DTD SVG 1.1//EN"
 "http://www.w3.org/Graphics/SVG/1.1/DTD/svg11.dtd">
<!-- Generated by graphviz version 9.0.0 (20230911.1827)
 -->
<!-- Title: G Pages: 1 -->
<svg width="287pt" height="188pt"
 viewBox="0.00 0.00 286.92 188.00" xmlns="http://www.w3.org/2000/svg" xmlns:xlink="http://www.w3.org/1999/xlink">
<g id="graph0" class="graph" transform="scale(1 1) rotate(0) translate(4 184)">
<title>G</title>
<polygon fill="white" stroke="none" points="-4,4 -4,-184 282.92,-184 282.92,4 -4,4"/>
<!-- avl_queue -->
<g id="node1" class="node">
<title>avl_queue</title>
<ellipse fill="none" stroke="black" cx="96.46" cy="-162" rx="48.79" ry="18"/>
<text text-anchor="middle" x="96.46" y="-156.95" font-family="Times,serif" font-size="14.00">avl_queue</text>
</g>
<!-- option -->
<g id="node2" class="node">
<title>option</title>
<ellipse fill="none" stroke="black" cx="34.46" cy="-90" rx="34.46" ry="18"/>
<text text-anchor="middle" x="34.46" y="-84.95" font-family="Times,serif" font-size="14.00">option</text>
</g>
<!-- avl_queue&#45;&gt;option -->
<g id="edge1" class="edge">
<title>avl_queue&#45;&gt;option</title>
<path fill="none" stroke="black" d="M81.77,-144.41C73.98,-135.62 64.28,-124.66 55.69,-114.96"/>
<polygon fill="black" stroke="black" points="58.45,-112.81 49.2,-107.64 53.21,-117.45 58.45,-112.81"/>
</g>
<!-- table -->
<g id="node3" class="node">
<title>table</title>
<ellipse fill="none" stroke="black" cx="120.46" cy="-18" rx="28.83" ry="18"/>
<text text-anchor="middle" x="120.46" y="-12.95" font-family="Times,serif" font-size="14.00">table</text>
</g>
<!-- avl_queue&#45;&gt;table -->
<g id="edge2" class="edge">
<title>avl_queue&#45;&gt;table</title>
<path fill="none" stroke="black" d="M99.4,-143.59C103.46,-119.61 110.8,-76.14 115.66,-47.42"/>
<polygon fill="black" stroke="black" points="119.1,-48.05 117.32,-37.6 112.2,-46.88 119.1,-48.05"/>
</g>
<!-- table_with_length -->
<g id="node4" class="node">
<title>table_with_length</title>
<ellipse fill="none" stroke="black" cx="201.46" cy="-90" rx="77.45" ry="18"/>
<text text-anchor="middle" x="201.46" y="-84.95" font-family="Times,serif" font-size="14.00">table_with_length</text>
</g>
<!-- avl_queue&#45;&gt;table_with_length -->
<g id="edge3" class="edge">
<title>avl_queue&#45;&gt;table_with_length</title>
<path fill="none" stroke="black" d="M119.25,-145.81C133.33,-136.42 151.67,-124.19 167.46,-113.67"/>
<polygon fill="black" stroke="black" points="169.25,-116.68 175.63,-108.22 165.37,-110.85 169.25,-116.68"/>
</g>
<!-- vector -->
<g id="node5" class="node">
<title>vector</title>
<ellipse fill="none" stroke="black" cx="34.46" cy="-18" rx="33.95" ry="18"/>
<text text-anchor="middle" x="34.46" y="-12.95" font-family="Times,serif" font-size="14.00">vector</text>
</g>
<!-- option&#45;&gt;vector -->
<g id="edge4" class="edge">
<title>option&#45;&gt;vector</title>
<path fill="none" stroke="black" d="M34.46,-71.7C34.46,-64.41 34.46,-55.73 34.46,-47.54"/>
<polygon fill="black" stroke="black" points="37.96,-47.62 34.46,-37.62 30.96,-47.62 37.96,-47.62"/>
</g>
<!-- table_with_length&#45;&gt;table -->
<g id="edge6" class="edge">
<title>table_with_length&#45;&gt;table</title>
<path fill="none" stroke="black" d="M182.27,-72.41C171.23,-62.87 157.25,-50.79 145.37,-40.53"/>
<polygon fill="black" stroke="black" points="147.79,-37.99 137.93,-34.1 143.21,-43.28 147.79,-37.99"/>
</g>
<!-- error -->
<g id="node6" class="node">
<title>error</title>
<ellipse fill="none" stroke="black" cx="201.46" cy="-18" rx="28.83" ry="18"/>
<text text-anchor="middle" x="201.46" y="-12.95" font-family="Times,serif" font-size="14.00">error</text>
</g>
<!-- table_with_length&#45;&gt;error -->
<g id="edge5" class="edge">
<title>table_with_length&#45;&gt;error</title>
<path fill="none" stroke="black" d="M201.46,-71.7C201.46,-64.41 201.46,-55.73 201.46,-47.54"/>
<polygon fill="black" stroke="black" points="204.96,-47.62 201.46,-37.62 197.96,-47.62 204.96,-47.62"/>
</g>
</g>
</svg>
