<?xml version="1.0" encoding="UTF-8" standalone="no"?>
<!DOCTYPE svg PUBLIC "-//W3C//DTD SVG 1.1//EN"
 "http://www.w3.org/Graphics/SVG/1.1/DTD/svg11.dtd">
<!-- Generated by graphviz version 8.0.5 (20230430.1635)
 -->
<!-- Title: G Pages: 1 -->
<svg width="287pt" height="188pt"
 viewBox="0.00 0.00 286.92 188.00" xmlns="http://www.w3.org/2000/svg" xmlns:xlink="http://www.w3.org/1999/xlink">
<g id="graph0" class="graph" transform="scale(1 1) rotate(0) translate(4 184)">
<title>G</title>
<polygon fill="white" stroke="none" points="-4,4 -4,-184 282.92,-184 282.92,4 -4,4"/>
<!-- avl_queue -->
<g id="node1" class="node">
<title>avl_queue</title>
<ellipse fill="none" stroke="black" cx="96.46" cy="-162" rx="48.79" ry="18"/>
<text text-anchor="middle" x="96.46" y="-156.95" font-family="Times,serif" font-size="14.00">avl_queue</text>
</g>
<!-- option -->
<g id="node2" class="node">
<title>option</title>
<ellipse fill="none" stroke="black" cx="34.46" cy="-90" rx="34.46" ry="18"/>
<text text-anchor="middle" x="34.46" y="-84.95" font-family="Times,serif" font-size="14.00">option</text>
</g>
<!-- avl_queue&#45;&gt;option -->
<g id="edge1" class="edge">
<title>avl_queue&#45;&gt;option</title>
<path fill="none" stroke="black" d="M81.77,-144.41C73.9,-135.53 64.08,-124.44 55.43,-114.67"/>
<polygon fill="black" stroke="black" points="58.45,-112.68 49.2,-107.51 53.21,-117.32 58.45,-112.68"/>
</g>
<!-- table -->
<g id="node3" class="node">
<title>table</title>
<ellipse fill="none" stroke="black" cx="120.46" cy="-18" rx="28.83" ry="18"/>
<text text-anchor="middle" x="120.46" y="-12.95" font-family="Times,serif" font-size="14.00">table</text>
</g>
<!-- avl_queue&#45;&gt;table -->
<g id="edge2" class="edge">
<title>avl_queue&#45;&gt;table</title>
<path fill="none" stroke="black" d="M99.4,-143.59C103.49,-119.4 110.94,-75.36 115.79,-46.65"/>
<polygon fill="black" stroke="black" points="119.35,-47.55 117.57,-37.11 112.45,-46.39 119.35,-47.55"/>
</g>
<!-- table_with_length -->
<g id="node4" class="node">
<title>table_with_length</title>
<ellipse fill="none" stroke="black" cx="201.46" cy="-90" rx="77.45" ry="18"/>
<text text-anchor="middle" x="201.46" y="-84.95" font-family="Times,serif" font-size="14.00">table_with_length</text>
</g>
<!-- avl_queue&#45;&gt;table_with_length -->
<g id="edge3" class="edge">
<title>avl_queue&#45;&gt;table_with_length</title>
<path fill="none" stroke="black" d="M119.25,-145.81C133.46,-136.33 152.02,-123.96 167.9,-113.37"/>
<polygon fill="black" stroke="black" points="169.51,-115.84 175.89,-107.38 165.63,-110.01 169.51,-115.84"/>
</g>
<!-- vector -->
<g id="node5" class="node">
<title>vector</title>
<ellipse fill="none" stroke="black" cx="34.46" cy="-18" rx="33.95" ry="18"/>
<text text-anchor="middle" x="34.46" y="-12.95" font-family="Times,serif" font-size="14.00">vector</text>
</g>
<!-- option&#45;&gt;vector -->
<g id="edge4" class="edge">
<title>option&#45;&gt;vector</title>
<path fill="none" stroke="black" d="M34.46,-71.7C34.46,-64.24 34.46,-55.32 34.46,-46.97"/>
<polygon fill="black" stroke="black" points="37.96,-47.1 34.46,-37.1 30.96,-47.1 37.96,-47.1"/>
</g>
<!-- table_with_length&#45;&gt;table -->
<g id="edge6" class="edge">
<title>table_with_length&#45;&gt;table</title>
<path fill="none" stroke="black" d="M182.27,-72.41C171.12,-62.78 156.97,-50.55 145.02,-40.23"/>
<polygon fill="black" stroke="black" points="147.64,-37 137.79,-33.11 143.06,-42.29 147.64,-37"/>
</g>
<!-- error -->
<g id="node6" class="node">
<title>error</title>
<ellipse fill="none" stroke="black" cx="201.46" cy="-18" rx="28.83" ry="18"/>
<text text-anchor="middle" x="201.46" y="-12.95" font-family="Times,serif" font-size="14.00">error</text>
</g>
<!-- table_with_length&#45;&gt;error -->
<g id="edge5" class="edge">
<title>table_with_length&#45;&gt;error</title>
<path fill="none" stroke="black" d="M201.46,-71.7C201.46,-64.24 201.46,-55.32 201.46,-46.97"/>
<polygon fill="black" stroke="black" points="204.96,-47.1 201.46,-37.1 197.96,-47.1 204.96,-47.1"/>
</g>
</g>
</svg>
