<?xml version="1.0" encoding="UTF-8" standalone="no"?>
<!DOCTYPE svg PUBLIC "-//W3C//DTD SVG 1.1//EN"
 "http://www.w3.org/Graphics/SVG/1.1/DTD/svg11.dtd">
<!-- Generated by graphviz version 8.0.2 (20230410.1723)
 -->
<!-- Title: G Pages: 1 -->
<svg width="278pt" height="188pt"
 viewBox="0.00 0.00 278.24 188.00" xmlns="http://www.w3.org/2000/svg" xmlns:xlink="http://www.w3.org/1999/xlink">
<g id="graph0" class="graph" transform="scale(1 1) rotate(0) translate(4 184)">
<title>G</title>
<polygon fill="white" stroke="none" points="-4,4 -4,-184 274.24,-184 274.24,4 -4,4"/>
<!-- avl_queue -->
<g id="node1" class="node">
<title>avl_queue</title>
<ellipse fill="none" stroke="black" cx="94.15" cy="-162" rx="46.59" ry="18"/>
<text text-anchor="middle" x="94.15" y="-158.3" font-family="Times,serif" font-size="14.00">avl_queue</text>
</g>
<!-- option -->
<g id="node2" class="node">
<title>option</title>
<ellipse fill="none" stroke="black" cx="33.15" cy="-90" rx="33.29" ry="18"/>
<text text-anchor="middle" x="33.15" y="-86.3" font-family="Times,serif" font-size="14.00">option</text>
</g>
<!-- avl_queue&#45;&gt;option -->
<g id="edge1" class="edge">
<title>avl_queue&#45;&gt;option</title>
<path fill="none" stroke="black" d="M79.69,-144.41C71.95,-135.53 62.29,-124.44 53.77,-114.67"/>
<polygon fill="black" stroke="black" points="55.87,-112.75 46.66,-107.51 50.59,-117.35 55.87,-112.75"/>
</g>
<!-- table -->
<g id="node3" class="node">
<title>table</title>
<ellipse fill="none" stroke="black" cx="117.15" cy="-18" rx="27.9" ry="18"/>
<text text-anchor="middle" x="117.15" y="-14.3" font-family="Times,serif" font-size="14.00">table</text>
</g>
<!-- avl_queue&#45;&gt;table -->
<g id="edge2" class="edge">
<title>avl_queue&#45;&gt;table</title>
<path fill="none" stroke="black" d="M96.97,-143.59C100.89,-119.4 108.02,-75.36 112.67,-46.65"/>
<polygon fill="black" stroke="black" points="116.23,-47.54 114.38,-37.11 109.32,-46.42 116.23,-47.54"/>
</g>
<!-- table_with_length -->
<g id="node4" class="node">
<title>table_with_length</title>
<ellipse fill="none" stroke="black" cx="196.15" cy="-90" rx="74.19" ry="18"/>
<text text-anchor="middle" x="196.15" y="-86.3" font-family="Times,serif" font-size="14.00">table_with_length</text>
</g>
<!-- avl_queue&#45;&gt;table_with_length -->
<g id="edge3" class="edge">
<title>avl_queue&#45;&gt;table_with_length</title>
<path fill="none" stroke="black" d="M116.28,-145.81C130.09,-136.33 148.12,-123.96 163.55,-113.37"/>
<polygon fill="black" stroke="black" points="165.01,-115.92 171.28,-107.38 161.05,-110.15 165.01,-115.92"/>
</g>
<!-- vector -->
<g id="node5" class="node">
<title>vector</title>
<ellipse fill="none" stroke="black" cx="33.15" cy="-18" rx="32.49" ry="18"/>
<text text-anchor="middle" x="33.15" y="-14.3" font-family="Times,serif" font-size="14.00">vector</text>
</g>
<!-- option&#45;&gt;vector -->
<g id="edge4" class="edge">
<title>option&#45;&gt;vector</title>
<path fill="none" stroke="black" d="M33.15,-71.7C33.15,-64.24 33.15,-55.32 33.15,-46.97"/>
<polygon fill="black" stroke="black" points="36.65,-47.1 33.15,-37.1 29.65,-47.1 36.65,-47.1"/>
</g>
<!-- table_with_length&#45;&gt;table -->
<g id="edge6" class="edge">
<title>table_with_length&#45;&gt;table</title>
<path fill="none" stroke="black" d="M177.43,-72.41C166.56,-62.78 152.76,-50.55 141.1,-40.23"/>
<polygon fill="black" stroke="black" points="143.87,-38.12 134.07,-34.11 139.23,-43.36 143.87,-38.12"/>
</g>
<!-- error -->
<g id="node6" class="node">
<title>error</title>
<ellipse fill="none" stroke="black" cx="196.15" cy="-18" rx="27.9" ry="18"/>
<text text-anchor="middle" x="196.15" y="-14.3" font-family="Times,serif" font-size="14.00">error</text>
</g>
<!-- table_with_length&#45;&gt;error -->
<g id="edge5" class="edge">
<title>table_with_length&#45;&gt;error</title>
<path fill="none" stroke="black" d="M196.15,-71.7C196.15,-64.24 196.15,-55.32 196.15,-46.97"/>
<polygon fill="black" stroke="black" points="199.65,-47.1 196.15,-37.1 192.65,-47.1 199.65,-47.1"/>
</g>
</g>
</svg>
