<?xml version="1.0" encoding="UTF-8" standalone="no"?>
<!DOCTYPE svg PUBLIC "-//W3C//DTD SVG 1.1//EN"
 "http://www.w3.org/Graphics/SVG/1.1/DTD/svg11.dtd">
<!-- Generated by graphviz version 7.1.0 (20230121.1956)
 -->
<!-- Title: G Pages: 1 -->
<svg width="1914pt" height="764pt"
 viewBox="0.00 0.00 1914.00 764.00" xmlns="http://www.w3.org/2000/svg" xmlns:xlink="http://www.w3.org/1999/xlink">
<g id="graph0" class="graph" transform="scale(1 1) rotate(0) translate(4 760)">
<title>G</title>
<polygon fill="white" stroke="none" points="-4,4 -4,-760 1910,-760 1910,4 -4,4"/>
<!-- govern -->
<g id="node1" class="node">
<title>govern</title>
<ellipse fill="none" stroke="black" cx="766" cy="-738" rx="35.19" ry="18"/>
<text text-anchor="middle" x="766" y="-734.3" font-family="Times,serif" font-size="14.00">govern</text>
</g>
<!-- aptos_coin -->
<g id="node2" class="node">
<title>aptos_coin</title>
<ellipse fill="none" stroke="black" cx="652" cy="-594" rx="48.99" ry="18"/>
<text text-anchor="middle" x="652" y="-590.3" font-family="Times,serif" font-size="14.00">aptos_coin</text>
</g>
<!-- govern&#45;&gt;aptos_coin -->
<g id="edge1" class="edge">
<title>govern&#45;&gt;aptos_coin</title>
<path fill="none" stroke="black" d="M753.14,-720.99C733.49,-696.51 695.8,-649.56 672.39,-620.4"/>
<polygon fill="black" stroke="black" points="675.27,-618.4 666.28,-612.79 669.81,-622.78 675.27,-618.4"/>
</g>
<!-- incentives -->
<g id="node3" class="node">
<title>incentives</title>
<ellipse fill="none" stroke="black" cx="832" cy="-666" rx="46.29" ry="18"/>
<text text-anchor="middle" x="832" y="-662.3" font-family="Times,serif" font-size="14.00">incentives</text>
</g>
<!-- govern&#45;&gt;incentives -->
<g id="edge2" class="edge">
<title>govern&#45;&gt;incentives</title>
<path fill="none" stroke="black" d="M780.65,-721.46C788.99,-712.62 799.63,-701.34 809.05,-691.34"/>
<polygon fill="black" stroke="black" points="811.58,-693.76 815.9,-684.08 806.49,-688.95 811.58,-693.76"/>
</g>
<!-- vector -->
<g id="node4" class="node">
<title>vector</title>
<ellipse fill="none" stroke="black" cx="1586" cy="-18" rx="32.49" ry="18"/>
<text text-anchor="middle" x="1586" y="-14.3" font-family="Times,serif" font-size="14.00">vector</text>
</g>
<!-- aptos_coin&#45;&gt;vector -->
<g id="edge3" class="edge">
<title>aptos_coin&#45;&gt;vector</title>
<path fill="none" stroke="black" d="M603.57,-590.87C475.71,-584.89 135.9,-566.65 93,-540 53.5,-515.46 38,-497.5 38,-451 38,-451 38,-451 38,-377 38,-222.24 58.38,-118.45 206,-72 335.76,-31.17 1320.02,-21.08 1541.73,-19.32"/>
<polygon fill="black" stroke="black" points="1541.7,-22.82 1551.67,-19.24 1541.65,-15.82 1541.7,-22.82"/>
</g>
<!-- option -->
<g id="node5" class="node">
<title>option</title>
<ellipse fill="none" stroke="black" cx="1647" cy="-90" rx="33.29" ry="18"/>
<text text-anchor="middle" x="1647" y="-86.3" font-family="Times,serif" font-size="14.00">option</text>
</g>
<!-- aptos_coin&#45;&gt;option -->
<g id="edge4" class="edge">
<title>aptos_coin&#45;&gt;option</title>
<path fill="none" stroke="black" d="M701.1,-592.33C867.19,-589.73 1407.09,-578.45 1576,-540 1658.01,-521.33 1691.73,-527.67 1751,-468 1805.38,-413.25 1816,-384.17 1816,-307 1816,-307 1816,-307 1816,-233 1816,-165.49 1735.96,-123.64 1686.05,-104.12"/>
<polygon fill="black" stroke="black" points="1687.3,-100.85 1676.7,-100.6 1684.83,-107.4 1687.3,-100.85"/>
</g>
<!-- string -->
<g id="node6" class="node">
<title>string</title>
<ellipse fill="none" stroke="black" cx="1617" cy="-162" rx="30.59" ry="18"/>
<text text-anchor="middle" x="1617" y="-158.3" font-family="Times,serif" font-size="14.00">string</text>
</g>
<!-- aptos_coin&#45;&gt;string -->
<g id="edge5" class="edge">
<title>aptos_coin&#45;&gt;string</title>
<path fill="none" stroke="black" d="M700.86,-591.84C912.57,-586.19 1740,-557.32 1740,-451 1740,-451 1740,-451 1740,-305 1740,-249.1 1684.87,-204.4 1648.43,-180.96"/>
<polygon fill="black" stroke="black" points="1650.33,-178.03 1639.99,-175.72 1646.64,-183.97 1650.33,-178.03"/>
</g>
<!-- signer -->
<g id="node7" class="node">
<title>signer</title>
<ellipse fill="none" stroke="black" cx="247" cy="-90" rx="32.49" ry="18"/>
<text text-anchor="middle" x="247" y="-86.3" font-family="Times,serif" font-size="14.00">signer</text>
</g>
<!-- aptos_coin&#45;&gt;signer -->
<g id="edge6" class="edge">
<title>aptos_coin&#45;&gt;signer</title>
<path fill="none" stroke="black" d="M602.78,-592.13C493.49,-589.48 234.17,-579.16 157,-540 109.3,-515.8 76,-504.48 76,-451 76,-451 76,-451 76,-233 76,-164.51 158.19,-122.74 208.61,-103.55"/>
<polygon fill="black" stroke="black" points="209.54,-106.94 217.72,-100.21 207.13,-100.37 209.54,-106.94"/>
</g>
<!-- error -->
<g id="node8" class="node">
<title>error</title>
<ellipse fill="none" stroke="black" cx="702" cy="-90" rx="27.9" ry="18"/>
<text text-anchor="middle" x="702" y="-86.3" font-family="Times,serif" font-size="14.00">error</text>
</g>
<!-- aptos_coin&#45;&gt;error -->
<g id="edge7" class="edge">
<title>aptos_coin&#45;&gt;error</title>
<path fill="none" stroke="black" d="M603.78,-590.58C471.73,-582.64 114,-551.83 114,-451 114,-451 114,-451 114,-305 114,-216.81 153.44,-187.79 230,-144 303.51,-101.95 562.91,-93.26 662.59,-91.47"/>
<polygon fill="black" stroke="black" points="662.47,-94.97 672.41,-91.3 662.36,-87.97 662.47,-94.97"/>
</g>
<!-- system_addresses -->
<g id="node9" class="node">
<title>system_addresses</title>
<ellipse fill="none" stroke="black" cx="481" cy="-306" rx="73.39" ry="18"/>
<text text-anchor="middle" x="481" y="-302.3" font-family="Times,serif" font-size="14.00">system_addresses</text>
</g>
<!-- aptos_coin&#45;&gt;system_addresses -->
<g id="edge8" class="edge">
<title>aptos_coin&#45;&gt;system_addresses</title>
<path fill="none" stroke="black" d="M616.17,-581.45C566.92,-563.96 478.16,-526.49 423,-468 388.47,-431.39 363.82,-403.57 389,-360 397.7,-344.94 412.48,-333.79 427.68,-325.7"/>
<polygon fill="black" stroke="black" points="428.86,-329.02 436.31,-321.49 425.79,-322.73 428.86,-329.02"/>
</g>
<!-- coin -->
<g id="node10" class="node">
<title>coin</title>
<ellipse fill="none" stroke="black" cx="652" cy="-522" rx="27" ry="18"/>
<text text-anchor="middle" x="652" y="-518.3" font-family="Times,serif" font-size="14.00">coin</text>
</g>
<!-- aptos_coin&#45;&gt;coin -->
<g id="edge9" class="edge">
<title>aptos_coin&#45;&gt;coin</title>
<path fill="none" stroke="black" d="M652,-575.7C652,-568.41 652,-559.73 652,-551.54"/>
<polygon fill="black" stroke="black" points="655.5,-551.62 652,-541.62 648.5,-551.62 655.5,-551.62"/>
</g>
<!-- incentives&#45;&gt;aptos_coin -->
<g id="edge14" class="edge">
<title>incentives&#45;&gt;aptos_coin</title>
<path fill="none" stroke="black" d="M800.23,-652.65C771.04,-641.29 727.51,-624.36 695.17,-611.79"/>
<polygon fill="black" stroke="black" points="696.66,-608.61 686.07,-608.25 694.13,-615.14 696.66,-608.61"/>
</g>
<!-- incentives&#45;&gt;vector -->
<g id="edge10" class="edge">
<title>incentives&#45;&gt;vector</title>
<path fill="none" stroke="black" d="M878.21,-663.8C1029.84,-659.58 1511.19,-643.94 1663,-612 1775.55,-588.32 1906,-638.02 1906,-523 1906,-523 1906,-523 1906,-161 1906,-41.73 1717.98,-21.87 1630.19,-19.1"/>
<polygon fill="black" stroke="black" points="1630.34,-15.61 1620.25,-18.86 1630.17,-22.6 1630.34,-15.61"/>
</g>
<!-- incentives&#45;&gt;signer -->
<g id="edge11" class="edge">
<title>incentives&#45;&gt;signer</title>
<path fill="none" stroke="black" d="M786.38,-662.09C612.36,-650.38 0,-603.46 0,-523 0,-523 0,-523 0,-377 0,-265.33 11.77,-219.54 94,-144 124.37,-116.1 170.18,-102.77 203.76,-96.48"/>
<polygon fill="black" stroke="black" points="204.32,-99.93 213.59,-94.79 203.14,-93.03 204.32,-99.93"/>
</g>
<!-- incentives&#45;&gt;coin -->
<g id="edge13" class="edge">
<title>incentives&#45;&gt;coin</title>
<path fill="none" stroke="black" d="M812.39,-649.53C779.77,-623.8 714.35,-572.19 677.95,-543.47"/>
<polygon fill="black" stroke="black" points="680.13,-540.74 670.12,-537.29 675.8,-546.23 680.13,-540.74"/>
</g>
<!-- type_info -->
<g id="node11" class="node">
<title>type_info</title>
<ellipse fill="none" stroke="black" cx="932" cy="-234" rx="44.39" ry="18"/>
<text text-anchor="middle" x="932" y="-230.3" font-family="Times,serif" font-size="14.00">type_info</text>
</g>
<!-- incentives&#45;&gt;type_info -->
<g id="edge12" class="edge">
<title>incentives&#45;&gt;type_info</title>
<path fill="none" stroke="black" d="M836.86,-647.67C843.87,-621.08 856,-568.5 856,-523 856,-523 856,-523 856,-377 856,-331.48 886.74,-286.42 909.12,-259.66"/>
<polygon fill="black" stroke="black" points="911.74,-261.98 915.63,-252.12 906.44,-257.4 911.74,-261.98"/>
</g>
<!-- tablist -->
<g id="node12" class="node">
<title>tablist</title>
<ellipse fill="none" stroke="black" cx="1846" cy="-450" rx="32.49" ry="18"/>
<text text-anchor="middle" x="1846" y="-446.3" font-family="Times,serif" font-size="14.00">tablist</text>
</g>
<!-- incentives&#45;&gt;tablist -->
<g id="edge15" class="edge">
<title>incentives&#45;&gt;tablist</title>
<path fill="none" stroke="black" d="M878.47,-664.58C1050.4,-662.18 1648.38,-646.22 1800,-540 1820.46,-525.67 1832.44,-499.41 1839.02,-479.11"/>
<polygon fill="black" stroke="black" points="1842.31,-480.31 1841.78,-469.73 1835.6,-478.33 1842.31,-480.31"/>
</g>
<!-- resource_account -->
<g id="node13" class="node">
<title>resource_account</title>
<ellipse fill="none" stroke="black" cx="991" cy="-522" rx="72.29" ry="18"/>
<text text-anchor="middle" x="991" y="-518.3" font-family="Times,serif" font-size="14.00">resource_account</text>
</g>
<!-- incentives&#45;&gt;resource_account -->
<g id="edge16" class="edge">
<title>incentives&#45;&gt;resource_account</title>
<path fill="none" stroke="black" d="M849.93,-648.99C877.69,-624.19 931.27,-576.34 963.82,-547.28"/>
<polygon fill="black" stroke="black" points="966.14,-549.89 971.27,-540.62 961.48,-544.67 966.14,-549.89"/>
</g>
<!-- option&#45;&gt;vector -->
<g id="edge17" class="edge">
<title>option&#45;&gt;vector</title>
<path fill="none" stroke="black" d="M1633.46,-73.46C1625.64,-64.49 1615.64,-53.02 1606.84,-42.92"/>
<polygon fill="black" stroke="black" points="1609.7,-40.87 1600.49,-35.63 1604.43,-45.47 1609.7,-40.87"/>
</g>
<!-- string&#45;&gt;vector -->
<g id="edge18" class="edge">
<title>string&#45;&gt;vector</title>
<path fill="none" stroke="black" d="M1613.06,-143.83C1610.69,-133.46 1607.63,-119.98 1605,-108 1600.53,-87.69 1595.64,-64.74 1591.93,-47.23"/>
<polygon fill="black" stroke="black" points="1595.38,-46.62 1589.89,-37.56 1588.53,-48.06 1595.38,-46.62"/>
</g>
<!-- string&#45;&gt;option -->
<g id="edge19" class="edge">
<title>string&#45;&gt;option</title>
<path fill="none" stroke="black" d="M1624.26,-144.05C1627.58,-136.32 1631.59,-126.96 1635.31,-118.27"/>
<polygon fill="black" stroke="black" points="1638.49,-119.75 1639.21,-109.18 1632.05,-116.99 1638.49,-119.75"/>
</g>
<!-- system_addresses&#45;&gt;signer -->
<g id="edge20" class="edge">
<title>system_addresses&#45;&gt;signer</title>
<path fill="none" stroke="black" d="M476.15,-287.56C466.19,-254.83 440.35,-183.9 394,-144 364.33,-118.47 321.41,-104.88 289.6,-97.88"/>
<polygon fill="black" stroke="black" points="290.41,-94.48 279.91,-95.9 289.01,-101.33 290.41,-94.48"/>
</g>
<!-- system_addresses&#45;&gt;error -->
<g id="edge21" class="edge">
<title>system_addresses&#45;&gt;error</title>
<path fill="none" stroke="black" d="M481.47,-287.55C483.32,-254.79 492,-183.82 532,-144 566.95,-109.21 624.34,-97.2 662.64,-93.09"/>
<polygon fill="black" stroke="black" points="662.73,-96.59 672.36,-92.19 662.08,-89.62 662.73,-96.59"/>
</g>
<!-- coin&#45;&gt;option -->
<g id="edge22" class="edge">
<title>coin&#45;&gt;option</title>
<path fill="none" stroke="black" d="M679.13,-519.21C813.63,-510.35 1403.31,-471.35 1422,-468 1533.71,-447.99 1566.38,-448.49 1667,-396 1723.06,-366.75 1778,-370.23 1778,-307 1778,-307 1778,-307 1778,-233 1778,-175.58 1719.41,-131.45 1680.6,-108.52"/>
<polygon fill="black" stroke="black" points="1682.46,-105.55 1672.04,-103.63 1678.99,-111.63 1682.46,-105.55"/>
</g>
<!-- coin&#45;&gt;string -->
<g id="edge23" class="edge">
<title>coin&#45;&gt;string</title>
<path fill="none" stroke="black" d="M678.86,-519.46C828.43,-510.65 1554.49,-464.54 1624,-396 1681.35,-339.45 1664.38,-294.18 1645,-216 1642.68,-206.63 1638.36,-197.08 1633.79,-188.72"/>
<polygon fill="black" stroke="black" points="1636.86,-187.03 1628.78,-180.18 1630.82,-190.58 1636.86,-187.03"/>
</g>
<!-- coin&#45;&gt;signer -->
<g id="edge24" class="edge">
<title>coin&#45;&gt;signer</title>
<path fill="none" stroke="black" d="M624.81,-519.94C543.51,-516.41 303.69,-503.18 235,-468 186.86,-443.34 152,-433.09 152,-379 152,-379 152,-379 152,-305 152,-230.99 200.05,-154.01 227.81,-115.72"/>
<polygon fill="black" stroke="black" points="230.34,-118.18 233.48,-108.06 224.72,-114.01 230.34,-118.18"/>
</g>
<!-- coin&#45;&gt;error -->
<g id="edge25" class="edge">
<title>coin&#45;&gt;error</title>
<path fill="none" stroke="black" d="M625.16,-518.65C526.56,-509.3 190,-470.67 190,-379 190,-379 190,-379 190,-233 190,-134.91 543.34,-101.8 662.96,-93.4"/>
<polygon fill="black" stroke="black" points="662.86,-96.91 672.6,-92.74 662.38,-89.93 662.86,-96.91"/>
</g>
<!-- coin&#45;&gt;system_addresses -->
<g id="edge27" class="edge">
<title>coin&#45;&gt;system_addresses</title>
<path fill="none" stroke="black" d="M625.53,-517.78C570.37,-509.43 444.47,-481.41 399,-396 391.48,-381.88 391.35,-374.05 399,-360 406.56,-346.1 419.52,-335.29 432.92,-327.17"/>
<polygon fill="black" stroke="black" points="434.34,-330.39 441.36,-322.46 430.93,-324.27 434.34,-330.39"/>
</g>
<!-- coin&#45;&gt;type_info -->
<g id="edge26" class="edge">
<title>coin&#45;&gt;type_info</title>
<path fill="none" stroke="black" d="M670.28,-508.55C684.25,-498.54 703.5,-483.61 718,-468 784.13,-396.84 770.91,-354.21 842,-288 856.94,-274.08 876.16,-262.15 892.99,-253.15"/>
<polygon fill="black" stroke="black" points="894.48,-256.33 901.76,-248.63 891.27,-250.1 894.48,-256.33"/>
</g>
<!-- event -->
<g id="node14" class="node">
<title>event</title>
<ellipse fill="none" stroke="black" cx="990" cy="-378" rx="29.8" ry="18"/>
<text text-anchor="middle" x="990" y="-374.3" font-family="Times,serif" font-size="14.00">event</text>
</g>
<!-- coin&#45;&gt;event -->
<g id="edge28" class="edge">
<title>coin&#45;&gt;event</title>
<path fill="none" stroke="black" d="M675.56,-512.77C703.89,-502.74 752.78,-485.03 794,-468 852.09,-444 918.45,-413.12 957.14,-394.76"/>
<polygon fill="black" stroke="black" points="958.4,-398.04 965.92,-390.58 955.39,-391.72 958.4,-398.04"/>
</g>
<!-- account -->
<g id="node15" class="node">
<title>account</title>
<ellipse fill="none" stroke="black" cx="1029" cy="-450" rx="38.19" ry="18"/>
<text text-anchor="middle" x="1029" y="-446.3" font-family="Times,serif" font-size="14.00">account</text>
</g>
<!-- coin&#45;&gt;account -->
<g id="edge29" class="edge">
<title>coin&#45;&gt;account</title>
<path fill="none" stroke="black" d="M677.91,-516.19C740.86,-504.5 902.53,-474.48 982.61,-459.61"/>
<polygon fill="black" stroke="black" points="983.13,-463.08 992.33,-457.81 981.86,-456.19 983.13,-463.08"/>
</g>
<!-- aggregator -->
<g id="node16" class="node">
<title>aggregator</title>
<ellipse fill="none" stroke="black" cx="304" cy="-306" rx="48.19" ry="18"/>
<text text-anchor="middle" x="304" y="-302.3" font-family="Times,serif" font-size="14.00">aggregator</text>
</g>
<!-- coin&#45;&gt;aggregator -->
<g id="edge30" class="edge">
<title>coin&#45;&gt;aggregator</title>
<path fill="none" stroke="black" d="M624.6,-520.64C579.08,-518.81 486.62,-509.76 423,-468 371.69,-434.32 334.55,-370.51 316.44,-334.15"/>
<polygon fill="black" stroke="black" points="319.81,-333.08 312.3,-325.61 313.51,-336.13 319.81,-333.08"/>
</g>
<!-- aggregator_factory -->
<g id="node17" class="node">
<title>aggregator_factory</title>
<ellipse fill="none" stroke="black" cx="485" cy="-378" rx="77.19" ry="18"/>
<text text-anchor="middle" x="485" y="-374.3" font-family="Times,serif" font-size="14.00">aggregator_factory</text>
</g>
<!-- coin&#45;&gt;aggregator_factory -->
<g id="edge31" class="edge">
<title>coin&#45;&gt;aggregator_factory</title>
<path fill="none" stroke="black" d="M627.33,-514.25C602.45,-506.44 564.08,-491.55 538,-468 519.17,-451 504.99,-425.7 496.07,-406.42"/>
<polygon fill="black" stroke="black" points="499.38,-405.26 492.14,-397.53 492.98,-408.09 499.38,-405.26"/>
</g>
<!-- optional_aggregator -->
<g id="node18" class="node">
<title>optional_aggregator</title>
<ellipse fill="none" stroke="black" cx="628" cy="-450" rx="81.49" ry="18"/>
<text text-anchor="middle" x="628" y="-446.3" font-family="Times,serif" font-size="14.00">optional_aggregator</text>
</g>
<!-- coin&#45;&gt;optional_aggregator -->
<g id="edge32" class="edge">
<title>coin&#45;&gt;optional_aggregator</title>
<path fill="none" stroke="black" d="M646.19,-504.05C643.61,-496.52 640.49,-487.44 637.58,-478.94"/>
<polygon fill="black" stroke="black" points="640.97,-478.03 634.41,-469.71 634.35,-480.3 640.97,-478.03"/>
</g>
<!-- type_info&#45;&gt;string -->
<g id="edge33" class="edge">
<title>type_info&#45;&gt;string</title>
<path fill="none" stroke="black" d="M974.85,-228.62C1098.3,-216.01 1453.64,-179.69 1575.45,-167.25"/>
<polygon fill="black" stroke="black" points="1575.72,-170.74 1585.31,-166.24 1575.01,-163.77 1575.72,-170.74"/>
</g>
<!-- type_info&#45;&gt;error -->
<g id="edge34" class="edge">
<title>type_info&#45;&gt;error</title>
<path fill="none" stroke="black" d="M925.24,-216.01C916.4,-195.93 899.03,-162.88 874,-144 834.43,-114.17 777.88,-100.96 740.57,-95.22"/>
<polygon fill="black" stroke="black" points="741.54,-91.82 731.15,-93.89 740.56,-98.76 741.54,-91.82"/>
</g>
<!-- features -->
<g id="node19" class="node">
<title>features</title>
<ellipse fill="none" stroke="black" cx="579" cy="-162" rx="38.19" ry="18"/>
<text text-anchor="middle" x="579" y="-158.3" font-family="Times,serif" font-size="14.00">features</text>
</g>
<!-- type_info&#45;&gt;features -->
<g id="edge35" class="edge">
<title>type_info&#45;&gt;features</title>
<path fill="none" stroke="black" d="M892.87,-225.24C827.15,-212.21 694.93,-185.99 624.92,-172.11"/>
<polygon fill="black" stroke="black" points="625.8,-168.71 615.31,-170.2 624.44,-175.58 625.8,-168.71"/>
</g>
<!-- bcs -->
<g id="node20" class="node">
<title>bcs</title>
<ellipse fill="none" stroke="black" cx="1118" cy="-162" rx="27" ry="18"/>
<text text-anchor="middle" x="1118" y="-158.3" font-family="Times,serif" font-size="14.00">bcs</text>
</g>
<!-- type_info&#45;&gt;bcs -->
<g id="edge36" class="edge">
<title>type_info&#45;&gt;bcs</title>
<path fill="none" stroke="black" d="M963.55,-221.13C997.13,-208.49 1050.04,-188.58 1084.39,-175.65"/>
<polygon fill="black" stroke="black" points="1085.29,-179.05 1093.42,-172.25 1082.83,-172.5 1085.29,-179.05"/>
</g>
<!-- tablist&#45;&gt;option -->
<g id="edge37" class="edge">
<title>tablist&#45;&gt;option</title>
<path fill="none" stroke="black" d="M1847.62,-431.53C1849.96,-404.75 1854,-351.94 1854,-307 1854,-307 1854,-307 1854,-233 1854,-192.03 1858.7,-173.24 1830,-144 1793.75,-107.08 1733.48,-95.49 1692.07,-92.06"/>
<polygon fill="black" stroke="black" points="1692.39,-88.57 1682.17,-91.38 1691.91,-95.56 1692.39,-88.57"/>
</g>
<!-- table_with_length -->
<g id="node21" class="node">
<title>table_with_length</title>
<ellipse fill="none" stroke="black" cx="1486" cy="-378" rx="74.19" ry="18"/>
<text text-anchor="middle" x="1486" y="-374.3" font-family="Times,serif" font-size="14.00">table_with_length</text>
</g>
<!-- tablist&#45;&gt;table_with_length -->
<g id="edge38" class="edge">
<title>tablist&#45;&gt;table_with_length</title>
<path fill="none" stroke="black" d="M1815.62,-443.09C1758.18,-431.92 1632.4,-407.47 1553.9,-392.2"/>
<polygon fill="black" stroke="black" points="1554.64,-388.78 1544.16,-390.31 1553.3,-395.65 1554.64,-388.78"/>
</g>
<!-- resource_account&#45;&gt;account -->
<g id="edge40" class="edge">
<title>resource_account&#45;&gt;account</title>
<path fill="none" stroke="black" d="M1000.39,-503.7C1004.64,-495.87 1009.76,-486.44 1014.49,-477.73"/>
<polygon fill="black" stroke="black" points="1017.56,-479.41 1019.25,-468.95 1011.41,-476.07 1017.56,-479.41"/>
</g>
<!-- resource_account&#45;&gt;bcs -->
<g id="edge39" class="edge">
<title>resource_account&#45;&gt;bcs</title>
<path fill="none" stroke="black" d="M1042.98,-509.07C1115.33,-491.14 1249.07,-453.14 1352,-396 1363.12,-389.83 1435.52,-335.48 1441,-324 1447.89,-309.56 1446.06,-303.18 1441,-288 1437.84,-278.51 1395.53,-221.22 1387,-216 1307.38,-167.21 1271.13,-200.37 1180,-180 1171.29,-178.05 1161.97,-175.66 1153.28,-173.3"/>
<polygon fill="black" stroke="black" points="1154.34,-169.96 1143.76,-170.65 1152.46,-176.7 1154.34,-169.96"/>
</g>
<!-- timestamp -->
<g id="node22" class="node">
<title>timestamp</title>
<ellipse fill="none" stroke="black" cx="704" cy="-378" rx="48.19" ry="18"/>
<text text-anchor="middle" x="704" y="-374.3" font-family="Times,serif" font-size="14.00">timestamp</text>
</g>
<!-- resource_account&#45;&gt;timestamp -->
<g id="edge41" class="edge">
<title>resource_account&#45;&gt;timestamp</title>
<path fill="none" stroke="black" d="M959.47,-505.4C906.41,-479.15 799.51,-426.26 742.26,-397.93"/>
<polygon fill="black" stroke="black" points="744.04,-394.91 733.53,-393.61 740.94,-401.18 744.04,-394.91"/>
</g>
<!-- event&#45;&gt;bcs -->
<g id="edge42" class="edge">
<title>event&#45;&gt;bcs</title>
<path fill="none" stroke="black" d="M985.88,-359.82C982.31,-341.3 979.12,-311.34 989,-288 1009.19,-240.32 1057.45,-201.91 1088.88,-180.8"/>
<polygon fill="black" stroke="black" points="1090.71,-183.79 1097.17,-175.39 1086.88,-177.92 1090.71,-183.79"/>
</g>
<!-- guid -->
<g id="node23" class="node">
<title>guid</title>
<ellipse fill="none" stroke="black" cx="1025" cy="-306" rx="27" ry="18"/>
<text text-anchor="middle" x="1025" y="-302.3" font-family="Times,serif" font-size="14.00">guid</text>
</g>
<!-- event&#45;&gt;guid -->
<g id="edge43" class="edge">
<title>event&#45;&gt;guid</title>
<path fill="none" stroke="black" d="M998.29,-360.41C1002.3,-352.39 1007.22,-342.57 1011.73,-333.54"/>
<polygon fill="black" stroke="black" points="1014.75,-335.33 1016.09,-324.82 1008.49,-332.2 1014.75,-335.33"/>
</g>
<!-- account&#45;&gt;vector -->
<g id="edge44" class="edge">
<title>account&#45;&gt;vector</title>
<path fill="none" stroke="black" d="M999.29,-438.42C883.94,-396.51 474.94,-239.78 532,-144 566.4,-86.25 600.34,-90.37 665,-72 832.77,-24.33 1381.71,-19.41 1541.8,-19"/>
<polygon fill="black" stroke="black" points="1541.57,-22.5 1551.57,-18.98 1541.56,-15.5 1541.57,-22.5"/>
</g>
<!-- account&#45;&gt;option -->
<g id="edge45" class="edge">
<title>account&#45;&gt;option</title>
<path fill="none" stroke="black" d="M1067.41,-449.25C1183.07,-449.45 1526.11,-445.73 1624,-396 1670.89,-372.18 1702,-359.6 1702,-307 1702,-307 1702,-307 1702,-233 1702,-190.1 1679.9,-144.53 1663.72,-116.92"/>
<polygon fill="black" stroke="black" points="1666.83,-115.29 1658.65,-108.55 1660.84,-118.91 1666.83,-115.29"/>
</g>
<!-- account&#45;&gt;signer -->
<g id="edge46" class="edge">
<title>account&#45;&gt;signer</title>
<path fill="none" stroke="black" d="M991.15,-447.05C858.48,-440.08 421.34,-415.68 399,-396 368.65,-369.26 380,-347.45 380,-307 380,-307 380,-307 380,-233 380,-175.02 320.2,-130.95 280.8,-108.2"/>
<polygon fill="black" stroke="black" points="282.54,-105.17 272.1,-103.36 279.13,-111.28 282.54,-105.17"/>
</g>
<!-- account&#45;&gt;error -->
<g id="edge47" class="edge">
<title>account&#45;&gt;error</title>
<path fill="none" stroke="black" d="M1000.69,-437.43C980.21,-428.17 952.62,-413.81 932,-396 832.51,-310.07 749.19,-174.35 716.65,-117.46"/>
<polygon fill="black" stroke="black" points="719.72,-115.78 711.75,-108.8 713.63,-119.22 719.72,-115.78"/>
</g>
<!-- account&#45;&gt;system_addresses -->
<g id="edge51" class="edge">
<title>account&#45;&gt;system_addresses</title>
<path fill="none" stroke="black" d="M990.59,-448.13C920.59,-445.57 768.27,-435.52 647,-396 621.06,-387.55 558.41,-352.3 517.93,-328.78"/>
<polygon fill="black" stroke="black" points="519.86,-325.86 509.46,-323.84 516.33,-331.9 519.86,-325.86"/>
</g>
<!-- account&#45;&gt;type_info -->
<g id="edge49" class="edge">
<title>account&#45;&gt;type_info</title>
<path fill="none" stroke="black" d="M1000.88,-437.33C983.54,-428.6 962.47,-414.89 951,-396 926.28,-355.29 925.94,-298.05 928.55,-263.93"/>
<polygon fill="black" stroke="black" points="932.03,-264.26 929.46,-253.98 925.06,-263.62 932.03,-264.26"/>
</g>
<!-- account&#45;&gt;event -->
<g id="edge57" class="edge">
<title>account&#45;&gt;event</title>
<path fill="none" stroke="black" d="M1019.76,-432.41C1015.24,-424.3 1009.7,-414.35 1004.62,-405.25"/>
<polygon fill="black" stroke="black" points="1007.84,-403.82 999.91,-396.79 1001.72,-407.23 1007.84,-403.82"/>
</g>
<!-- account&#45;&gt;bcs -->
<g id="edge48" class="edge">
<title>account&#45;&gt;bcs</title>
<path fill="none" stroke="black" d="M1034.3,-431.97C1049.14,-384.28 1091.2,-249.11 1109.42,-190.58"/>
<polygon fill="black" stroke="black" points="1112.65,-191.98 1112.28,-181.39 1105.96,-189.9 1112.65,-191.98"/>
</g>
<!-- account&#45;&gt;guid -->
<g id="edge55" class="edge">
<title>account&#45;&gt;guid</title>
<path fill="none" stroke="black" d="M1029.39,-431.6C1029.7,-413.65 1029.94,-384.86 1029,-360 1028.7,-352.04 1028.15,-343.42 1027.55,-335.49"/>
<polygon fill="black" stroke="black" points="1031.05,-335.36 1026.75,-325.68 1024.07,-335.93 1031.05,-335.36"/>
</g>
<!-- table -->
<g id="node24" class="node">
<title>table</title>
<ellipse fill="none" stroke="black" cx="1388" cy="-306" rx="27.9" ry="18"/>
<text text-anchor="middle" x="1388" y="-302.3" font-family="Times,serif" font-size="14.00">table</text>
</g>
<!-- account&#45;&gt;table -->
<g id="edge50" class="edge">
<title>account&#45;&gt;table</title>
<path fill="none" stroke="black" d="M1066.57,-445.57C1114.99,-440.08 1200.92,-426.62 1268,-396 1305.08,-379.08 1341.85,-349.39 1364.72,-328.99"/>
<polygon fill="black" stroke="black" points="1366.9,-331.75 1371.95,-322.43 1362.19,-326.57 1366.9,-331.75"/>
</g>
<!-- hash -->
<g id="node25" class="node">
<title>hash</title>
<ellipse fill="none" stroke="black" cx="1351" cy="-234" rx="27" ry="18"/>
<text text-anchor="middle" x="1351" y="-230.3" font-family="Times,serif" font-size="14.00">hash</text>
</g>
<!-- account&#45;&gt;hash -->
<g id="edge52" class="edge">
<title>account&#45;&gt;hash</title>
<path fill="none" stroke="black" d="M1066.44,-446.3C1121.3,-441.39 1226.01,-428.31 1309,-396 1312.53,-394.62 1423.16,-327.31 1425,-324 1432.78,-310.02 1432.31,-302.23 1425,-288 1416.23,-270.94 1399.14,-258.14 1383.59,-249.4"/>
<polygon fill="black" stroke="black" points="1385.52,-246.46 1375.03,-244.93 1382.28,-252.66 1385.52,-246.46"/>
</g>
<!-- ed25519 -->
<g id="node26" class="node">
<title>ed25519</title>
<ellipse fill="none" stroke="black" cx="1225" cy="-306" rx="40.89" ry="18"/>
<text text-anchor="middle" x="1225" y="-302.3" font-family="Times,serif" font-size="14.00">ed25519</text>
</g>
<!-- account&#45;&gt;ed25519 -->
<g id="edge53" class="edge">
<title>account&#45;&gt;ed25519</title>
<path fill="none" stroke="black" d="M1066.44,-445.57C1123.61,-439.48 1228.41,-424.61 1251,-396 1265.29,-377.9 1255.44,-352.19 1244,-333.05"/>
<polygon fill="black" stroke="black" points="1246.99,-331.23 1238.63,-324.72 1241.11,-335.02 1246.99,-331.23"/>
</g>
<!-- multi_ed25519 -->
<g id="node27" class="node">
<title>multi_ed25519</title>
<ellipse fill="none" stroke="black" cx="1178" cy="-378" rx="64.19" ry="18"/>
<text text-anchor="middle" x="1178" y="-374.3" font-family="Times,serif" font-size="14.00">multi_ed25519</text>
</g>
<!-- account&#45;&gt;multi_ed25519 -->
<g id="edge54" class="edge">
<title>account&#45;&gt;multi_ed25519</title>
<path fill="none" stroke="black" d="M1055.3,-436.65C1077.54,-426.19 1109.84,-411.02 1135.72,-398.86"/>
<polygon fill="black" stroke="black" points="1137.08,-402.09 1144.64,-394.67 1134.1,-395.76 1137.08,-402.09"/>
</g>
<!-- from_bcs -->
<g id="node28" class="node">
<title>from_bcs</title>
<ellipse fill="none" stroke="black" cx="1592" cy="-234" rx="44.39" ry="18"/>
<text text-anchor="middle" x="1592" y="-230.3" font-family="Times,serif" font-size="14.00">from_bcs</text>
</g>
<!-- account&#45;&gt;from_bcs -->
<g id="edge56" class="edge">
<title>account&#45;&gt;from_bcs</title>
<path fill="none" stroke="black" d="M1067.3,-448.38C1189.78,-446 1565.99,-435.5 1602,-396 1634.95,-359.87 1618.3,-298.13 1604.38,-262.52"/>
<polygon fill="black" stroke="black" points="1607.65,-261.26 1600.6,-253.34 1601.17,-263.92 1607.65,-261.26"/>
</g>
<!-- aggregator_factory&#45;&gt;error -->
<g id="edge58" class="edge">
<title>aggregator_factory&#45;&gt;error</title>
<path fill="none" stroke="black" d="M514.75,-361.07C530.38,-351.71 549.12,-338.81 563,-324 626.49,-256.27 620.9,-223.41 669,-144 674.41,-135.07 680.42,-125.36 685.81,-116.72"/>
<polygon fill="black" stroke="black" points="688.64,-118.79 690.98,-108.46 682.71,-115.07 688.64,-118.79"/>
</g>
<!-- aggregator_factory&#45;&gt;system_addresses -->
<g id="edge60" class="edge">
<title>aggregator_factory&#45;&gt;system_addresses</title>
<path fill="none" stroke="black" d="M484.01,-359.7C483.59,-352.41 483.1,-343.73 482.63,-335.54"/>
<polygon fill="black" stroke="black" points="486.13,-335.4 482.06,-325.62 479.14,-335.8 486.13,-335.4"/>
</g>
<!-- aggregator_factory&#45;&gt;aggregator -->
<g id="edge61" class="edge">
<title>aggregator_factory&#45;&gt;aggregator</title>
<path fill="none" stroke="black" d="M446.17,-361.98C417.12,-350.75 377.39,-335.38 347.31,-323.75"/>
<polygon fill="black" stroke="black" points="348.71,-320.54 338.12,-320.2 346.18,-327.07 348.71,-320.54"/>
</g>
<!-- aggregator_factory&#45;&gt;table -->
<g id="edge59" class="edge">
<title>aggregator_factory&#45;&gt;table</title>
<path fill="none" stroke="black" d="M553.11,-369.13C582.04,-365.97 616.14,-362.5 647,-360 925.65,-337.41 996.92,-352.83 1275,-324 1300.09,-321.4 1328.13,-317.19 1350.01,-313.61"/>
<polygon fill="black" stroke="black" points="1350.37,-317.1 1359.65,-312 1349.22,-310.19 1350.37,-317.1"/>
</g>
<!-- optional_aggregator&#45;&gt;option -->
<g id="edge62" class="edge">
<title>optional_aggregator&#45;&gt;option</title>
<path fill="none" stroke="black" d="M707.11,-445.26C932.39,-434.51 1561.62,-403.81 1569,-396 1624.71,-337.06 1519.5,-294.72 1539,-216 1547.7,-180.88 1553.57,-171.58 1577,-144 1588.04,-131.01 1602.79,-119.25 1615.91,-110.13"/>
<polygon fill="black" stroke="black" points="1617.48,-113.29 1623.84,-104.82 1613.58,-107.47 1617.48,-113.29"/>
</g>
<!-- optional_aggregator&#45;&gt;error -->
<g id="edge63" class="edge">
<title>optional_aggregator&#45;&gt;error</title>
<path fill="none" stroke="black" d="M631.57,-431.73C643.41,-374.43 681.5,-190.18 696.17,-119.22"/>
<polygon fill="black" stroke="black" points="699.56,-120.08 698.16,-109.58 692.71,-118.66 699.56,-120.08"/>
</g>
<!-- optional_aggregator&#45;&gt;aggregator -->
<g id="edge64" class="edge">
<title>optional_aggregator&#45;&gt;aggregator</title>
<path fill="none" stroke="black" d="M546.74,-448.03C491.75,-443.85 419.63,-431.21 366,-396 343.18,-381.02 326.33,-354.47 316,-334.26"/>
<polygon fill="black" stroke="black" points="319.23,-332.91 311.72,-325.44 312.94,-335.96 319.23,-332.91"/>
</g>
<!-- optional_aggregator&#45;&gt;aggregator_factory -->
<g id="edge65" class="edge">
<title>optional_aggregator&#45;&gt;aggregator_factory</title>
<path fill="none" stroke="black" d="M595.55,-433.12C575.44,-423.27 549.38,-410.52 527.62,-399.86"/>
<polygon fill="black" stroke="black" points="529.2,-396.74 518.68,-395.49 526.12,-403.03 529.2,-396.74"/>
</g>
<!-- features&#45;&gt;signer -->
<g id="edge66" class="edge">
<title>features&#45;&gt;signer</title>
<path fill="none" stroke="black" d="M544.72,-153.77C483.3,-140.82 354.73,-113.71 288.46,-99.74"/>
<polygon fill="black" stroke="black" points="289.21,-96.32 278.7,-97.68 287.76,-103.17 289.21,-96.32"/>
</g>
<!-- features&#45;&gt;error -->
<g id="edge67" class="edge">
<title>features&#45;&gt;error</title>
<path fill="none" stroke="black" d="M602.72,-147.5C622.39,-136.3 650.5,-120.31 671.78,-108.2"/>
<polygon fill="black" stroke="black" points="673.34,-111.34 680.3,-103.35 669.88,-105.25 673.34,-111.34"/>
</g>
<!-- table_with_length&#45;&gt;error -->
<g id="edge68" class="edge">
<title>table_with_length&#45;&gt;error</title>
<path fill="none" stroke="black" d="M1492.85,-359.85C1499.14,-341.36 1506.08,-311.42 1496,-288 1477.62,-245.26 1460.21,-239.41 1420,-216 1325.23,-160.82 1291.41,-166.09 1184,-144 1021.7,-110.62 824.05,-97.24 741.35,-92.84"/>
<polygon fill="black" stroke="black" points="741.67,-89.35 731.51,-92.33 741.31,-96.34 741.67,-89.35"/>
</g>
<!-- table_with_length&#45;&gt;table -->
<g id="edge69" class="edge">
<title>table_with_length&#45;&gt;table</title>
<path fill="none" stroke="black" d="M1463.27,-360.76C1449.08,-350.63 1430.71,-337.51 1415.67,-326.76"/>
<polygon fill="black" stroke="black" points="1417.75,-323.95 1407.58,-320.98 1413.68,-329.65 1417.75,-323.95"/>
</g>
<!-- timestamp&#45;&gt;error -->
<g id="edge70" class="edge">
<title>timestamp&#45;&gt;error</title>
<path fill="none" stroke="black" d="M703.88,-359.54C703.54,-311.76 702.61,-178.51 702.2,-119.61"/>
<polygon fill="black" stroke="black" points="705.7,-119.72 702.13,-109.75 698.7,-119.77 705.7,-119.72"/>
</g>
<!-- timestamp&#45;&gt;system_addresses -->
<g id="edge71" class="edge">
<title>timestamp&#45;&gt;system_addresses</title>
<path fill="none" stroke="black" d="M668.17,-365.75C632.42,-354.53 577.02,-337.14 535.75,-324.19"/>
<polygon fill="black" stroke="black" points="536.82,-320.85 526.23,-321.2 534.72,-327.53 536.82,-320.85"/>
</g>
<!-- ed25519&#45;&gt;option -->
<g id="edge72" class="edge">
<title>ed25519&#45;&gt;option</title>
<path fill="none" stroke="black" d="M1238.28,-288.86C1254.74,-269.62 1284.38,-237.4 1315,-216 1407.87,-151.11 1538.7,-114.93 1604.98,-99.71"/>
<polygon fill="black" stroke="black" points="1605.73,-103.13 1614.73,-97.52 1604.2,-96.3 1605.73,-103.13"/>
</g>
<!-- ed25519&#45;&gt;error -->
<g id="edge73" class="edge">
<title>ed25519&#45;&gt;error</title>
<path fill="none" stroke="black" d="M1223.35,-287.76C1219.02,-253.36 1203.96,-176.72 1154,-144 1086.5,-99.8 839.02,-92.39 741.69,-91.2"/>
<polygon fill="black" stroke="black" points="741.87,-87.71 731.84,-91.1 741.8,-94.7 741.87,-87.71"/>
</g>
<!-- ed25519&#45;&gt;type_info -->
<g id="edge75" class="edge">
<title>ed25519&#45;&gt;type_info</title>
<path fill="none" stroke="black" d="M1189.66,-296.56C1137.32,-284.05 1039.08,-260.58 980.19,-246.51"/>
<polygon fill="black" stroke="black" points="981.33,-243.19 970.79,-244.27 979.7,-249.99 981.33,-243.19"/>
</g>
<!-- ed25519&#45;&gt;bcs -->
<g id="edge74" class="edge">
<title>ed25519&#45;&gt;bcs</title>
<path fill="none" stroke="black" d="M1216.1,-288.2C1205.99,-269.74 1188.49,-239.59 1170,-216 1161.48,-205.12 1150.98,-194.06 1141.65,-184.88"/>
<polygon fill="black" stroke="black" points="1144.22,-182.5 1134.59,-178.08 1139.36,-187.54 1144.22,-182.5"/>
</g>
<!-- ed25519&#45;&gt;hash -->
<g id="edge76" class="edge">
<title>ed25519&#45;&gt;hash</title>
<path fill="none" stroke="black" d="M1249.59,-291.34C1269.9,-280.05 1298.83,-263.99 1320.59,-251.9"/>
<polygon fill="black" stroke="black" points="1322.26,-254.97 1329.3,-247.05 1318.86,-248.85 1322.26,-254.97"/>
</g>
<!-- multi_ed25519&#45;&gt;option -->
<g id="edge77" class="edge">
<title>multi_ed25519&#45;&gt;option</title>
<path fill="none" stroke="black" d="M1219.48,-363.81C1245.4,-354.62 1278.89,-340.98 1306,-324 1356.67,-292.26 1454.97,-175.16 1506,-144 1537.43,-124.81 1576.94,-110.69 1606.14,-101.88"/>
<polygon fill="black" stroke="black" points="1607.11,-105.24 1615.72,-99.07 1605.14,-98.52 1607.11,-105.24"/>
</g>
<!-- multi_ed25519&#45;&gt;error -->
<g id="edge78" class="edge">
<title>multi_ed25519&#45;&gt;error</title>
<path fill="none" stroke="black" d="M1163.15,-360C1124.67,-317.03 1016.76,-203.28 903,-144 850.46,-116.62 782.64,-102.56 740.75,-96"/>
<polygon fill="black" stroke="black" points="741.3,-92.54 730.89,-94.53 740.27,-99.46 741.3,-92.54"/>
</g>
<!-- multi_ed25519&#45;&gt;bcs -->
<g id="edge79" class="edge">
<title>multi_ed25519&#45;&gt;bcs</title>
<path fill="none" stroke="black" d="M1173.19,-359.85C1162.85,-322.98 1138.43,-235.86 1125.83,-190.91"/>
<polygon fill="black" stroke="black" points="1129.23,-190.08 1123.16,-181.39 1122.49,-191.97 1129.23,-190.08"/>
</g>
<!-- multi_ed25519&#45;&gt;hash -->
<g id="edge80" class="edge">
<title>multi_ed25519&#45;&gt;hash</title>
<path fill="none" stroke="black" d="M1211.74,-362.33C1231.3,-352.94 1255.78,-339.61 1275,-324 1297.97,-305.35 1319.4,-279.12 1333.61,-259.97"/>
<polygon fill="black" stroke="black" points="1336.42,-262.05 1339.46,-251.9 1330.75,-257.94 1336.42,-262.05"/>
</g>
<!-- multi_ed25519&#45;&gt;ed25519 -->
<g id="edge81" class="edge">
<title>multi_ed25519&#45;&gt;ed25519</title>
<path fill="none" stroke="black" d="M1189.38,-360.05C1194.8,-351.97 1201.42,-342.12 1207.47,-333.11"/>
<polygon fill="black" stroke="black" points="1210.22,-335.3 1212.88,-325.05 1204.4,-331.4 1210.22,-335.3"/>
</g>
<!-- from_bcs&#45;&gt;string -->
<g id="edge82" class="edge">
<title>from_bcs&#45;&gt;string</title>
<path fill="none" stroke="black" d="M1598.18,-215.7C1600.87,-208.15 1604.1,-199.12 1607.11,-190.68"/>
<polygon fill="black" stroke="black" points="1610.31,-192.12 1610.38,-181.53 1603.72,-189.77 1610.31,-192.12"/>
</g>
</g>
</svg>
