<?xml version="1.0" encoding="UTF-8" standalone="no"?>
<!DOCTYPE svg PUBLIC "-//W3C//DTD SVG 1.1//EN"
 "http://www.w3.org/Graphics/SVG/1.1/DTD/svg11.dtd">
<!-- Generated by graphviz version 8.0.2 (20230410.1723)
 -->
<!-- Title: G Pages: 1 -->
<svg width="2134pt" height="764pt"
 viewBox="0.00 0.00 2134.00 764.00" xmlns="http://www.w3.org/2000/svg" xmlns:xlink="http://www.w3.org/1999/xlink">
<g id="graph0" class="graph" transform="scale(1 1) rotate(0) translate(4 760)">
<title>G</title>
<polygon fill="white" stroke="none" points="-4,4 -4,-760 2130,-760 2130,4 -4,4"/>
<!-- govern -->
<g id="node1" class="node">
<title>govern</title>
<ellipse fill="none" stroke="black" cx="848" cy="-738" rx="35.19" ry="18"/>
<text text-anchor="middle" x="848" y="-734.3" font-family="Times,serif" font-size="14.00">govern</text>
</g>
<!-- aptos_coin -->
<g id="node2" class="node">
<title>aptos_coin</title>
<ellipse fill="none" stroke="black" cx="674" cy="-594" rx="48.99" ry="18"/>
<text text-anchor="middle" x="674" y="-590.3" font-family="Times,serif" font-size="14.00">aptos_coin</text>
</g>
<!-- govern&#45;&gt;aptos_coin -->
<g id="edge1" class="edge">
<title>govern&#45;&gt;aptos_coin</title>
<path fill="none" stroke="black" d="M830.03,-722.34C799.57,-697.48 737.58,-646.89 701.58,-617.51"/>
<polygon fill="black" stroke="black" points="704.42,-614.49 694.45,-610.88 699.99,-619.91 704.42,-614.49"/>
</g>
<!-- incentives -->
<g id="node3" class="node">
<title>incentives</title>
<ellipse fill="none" stroke="black" cx="914" cy="-666" rx="46.29" ry="18"/>
<text text-anchor="middle" x="914" y="-662.3" font-family="Times,serif" font-size="14.00">incentives</text>
</g>
<!-- govern&#45;&gt;incentives -->
<g id="edge2" class="edge">
<title>govern&#45;&gt;incentives</title>
<path fill="none" stroke="black" d="M862.65,-721.46C871.16,-712.44 882.06,-700.88 891.62,-690.73"/>
<polygon fill="black" stroke="black" points="893.62,-693.65 897.94,-683.98 888.53,-688.85 893.62,-693.65"/>
</g>
<!-- vector -->
<g id="node4" class="node">
<title>vector</title>
<ellipse fill="none" stroke="black" cx="353" cy="-18" rx="32.49" ry="18"/>
<text text-anchor="middle" x="353" y="-14.3" font-family="Times,serif" font-size="14.00">vector</text>
</g>
<!-- aptos_coin&#45;&gt;vector -->
<g id="edge3" class="edge">
<title>aptos_coin&#45;&gt;vector</title>
<path fill="none" stroke="black" d="M625.03,-591.74C484.58,-587.74 87.39,-573.54 40,-540 4.6,-514.95 0,-494.37 0,-451 0,-451 0,-451 0,-161 0,-94.51 218.3,-44.78 311.56,-26.57"/>
<polygon fill="black" stroke="black" points="312.13,-29.83 321.29,-24.5 310.81,-22.96 312.13,-29.83"/>
</g>
<!-- option -->
<g id="node5" class="node">
<title>option</title>
<ellipse fill="none" stroke="black" cx="353" cy="-90" rx="33.29" ry="18"/>
<text text-anchor="middle" x="353" y="-86.3" font-family="Times,serif" font-size="14.00">option</text>
</g>
<!-- aptos_coin&#45;&gt;option -->
<g id="edge4" class="edge">
<title>aptos_coin&#45;&gt;option</title>
<path fill="none" stroke="black" d="M625.1,-591.61C489.67,-587.36 116.83,-572.77 73,-540 38.96,-514.55 38,-493.5 38,-451 38,-451 38,-451 38,-233 38,-115.76 221.58,-94.77 308.45,-91.4"/>
<polygon fill="black" stroke="black" points="308.41,-94.87 318.29,-91.05 308.18,-87.87 308.41,-94.87"/>
</g>
<!-- string -->
<g id="node6" class="node">
<title>string</title>
<ellipse fill="none" stroke="black" cx="230" cy="-162" rx="30.59" ry="18"/>
<text text-anchor="middle" x="230" y="-158.3" font-family="Times,serif" font-size="14.00">string</text>
</g>
<!-- aptos_coin&#45;&gt;string -->
<g id="edge5" class="edge">
<title>aptos_coin&#45;&gt;string</title>
<path fill="none" stroke="black" d="M625.23,-591.64C493.86,-587.56 139.81,-573.51 100,-540 68.66,-513.62 76,-491.97 76,-451 76,-451 76,-451 76,-305 76,-240.73 149.4,-197.52 194.85,-176.93"/>
<polygon fill="black" stroke="black" points="196.15,-179.74 203.91,-172.52 193.35,-173.32 196.15,-179.74"/>
</g>
<!-- signer -->
<g id="node7" class="node">
<title>signer</title>
<ellipse fill="none" stroke="black" cx="1993" cy="-90" rx="32.49" ry="18"/>
<text text-anchor="middle" x="1993" y="-86.3" font-family="Times,serif" font-size="14.00">signer</text>
</g>
<!-- aptos_coin&#45;&gt;signer -->
<g id="edge6" class="edge">
<title>aptos_coin&#45;&gt;signer</title>
<path fill="none" stroke="black" d="M723.36,-593.15C945.95,-593.52 1850.41,-591.82 1965,-540 2014.84,-517.46 2050,-505.7 2050,-451 2050,-451 2050,-451 2050,-233 2050,-189.7 2026.9,-143.98 2010.11,-116.47"/>
<polygon fill="black" stroke="black" points="2012.55,-114.79 2004.26,-108.2 2006.63,-118.52 2012.55,-114.79"/>
</g>
<!-- error -->
<g id="node8" class="node">
<title>error</title>
<ellipse fill="none" stroke="black" cx="971" cy="-90" rx="27.9" ry="18"/>
<text text-anchor="middle" x="971" y="-86.3" font-family="Times,serif" font-size="14.00">error</text>
</g>
<!-- aptos_coin&#45;&gt;error -->
<g id="edge7" class="edge">
<title>aptos_coin&#45;&gt;error</title>
<path fill="none" stroke="black" d="M625.28,-591.05C489.04,-584.27 114,-556.06 114,-451 114,-451 114,-451 114,-233 114,-180.98 143.53,-167.37 190,-144 256.64,-110.49 783.32,-95.48 932.02,-91.88"/>
<polygon fill="black" stroke="black" points="931.95,-95.36 941.86,-91.62 931.78,-88.36 931.95,-95.36"/>
</g>
<!-- system_addresses -->
<g id="node9" class="node">
<title>system_addresses</title>
<ellipse fill="none" stroke="black" cx="1784" cy="-306" rx="73.39" ry="18"/>
<text text-anchor="middle" x="1784" y="-302.3" font-family="Times,serif" font-size="14.00">system_addresses</text>
</g>
<!-- aptos_coin&#45;&gt;system_addresses -->
<g id="edge8" class="edge">
<title>aptos_coin&#45;&gt;system_addresses</title>
<path fill="none" stroke="black" d="M722.37,-590.24C858.08,-581.66 1253.18,-550.86 1570,-468 1654.96,-445.78 1693.41,-459.56 1754,-396 1769.8,-379.42 1777.29,-354.25 1780.84,-334.9"/>
<polygon fill="black" stroke="black" points="1784.41,-335.71 1782.5,-325.29 1777.5,-334.63 1784.41,-335.71"/>
</g>
<!-- coin -->
<g id="node10" class="node">
<title>coin</title>
<ellipse fill="none" stroke="black" cx="806" cy="-522" rx="27" ry="18"/>
<text text-anchor="middle" x="806" y="-518.3" font-family="Times,serif" font-size="14.00">coin</text>
</g>
<!-- aptos_coin&#45;&gt;coin -->
<g id="edge9" class="edge">
<title>aptos_coin&#45;&gt;coin</title>
<path fill="none" stroke="black" d="M701.03,-578.67C722.84,-567.1 753.51,-550.84 776.06,-538.88"/>
<polygon fill="black" stroke="black" points="777.29,-541.66 784.49,-533.88 774.01,-535.47 777.29,-541.66"/>
</g>
<!-- incentives&#45;&gt;aptos_coin -->
<g id="edge14" class="edge">
<title>incentives&#45;&gt;aptos_coin</title>
<path fill="none" stroke="black" d="M877.81,-654.44C836.26,-642.33 767.94,-622.4 721.98,-609"/>
<polygon fill="black" stroke="black" points="723.25,-605.43 712.67,-605.99 721.29,-612.15 723.25,-605.43"/>
</g>
<!-- incentives&#45;&gt;vector -->
<g id="edge10" class="edge">
<title>incentives&#45;&gt;vector</title>
<path fill="none" stroke="black" d="M960.56,-664.79C1134.52,-663.67 1746.05,-656.57 1935,-612 2026.15,-590.5 2126,-616.65 2126,-523 2126,-523 2126,-523 2126,-161 2126,-104.11 2086.4,-94.16 2034,-72 1956.41,-39.18 652.17,-22.46 396.34,-19.48"/>
<polygon fill="black" stroke="black" points="396.67,-15.98 386.64,-19.36 396.59,-22.98 396.67,-15.98"/>
</g>
<!-- incentives&#45;&gt;signer -->
<g id="edge11" class="edge">
<title>incentives&#45;&gt;signer</title>
<path fill="none" stroke="black" d="M960.38,-664.36C1178.09,-660.73 2088,-638.68 2088,-523 2088,-523 2088,-523 2088,-233 2088,-183.27 2047.25,-137.77 2019.13,-112.29"/>
<polygon fill="black" stroke="black" points="2021.69,-109.01 2011.87,-105.05 2017.08,-114.27 2021.69,-109.01"/>
</g>
<!-- incentives&#45;&gt;coin -->
<g id="edge13" class="edge">
<title>incentives&#45;&gt;coin</title>
<path fill="none" stroke="black" d="M901.4,-648.43C882.42,-623.48 846.39,-576.11 824.45,-547.26"/>
<polygon fill="black" stroke="black" points="826.7,-545.44 817.86,-539.6 821.13,-549.67 826.7,-545.44"/>
</g>
<!-- type_info -->
<g id="node11" class="node">
<title>type_info</title>
<ellipse fill="none" stroke="black" cx="1035" cy="-234" rx="44.39" ry="18"/>
<text text-anchor="middle" x="1035" y="-230.3" font-family="Times,serif" font-size="14.00">type_info</text>
</g>
<!-- incentives&#45;&gt;type_info -->
<g id="edge12" class="edge">
<title>incentives&#45;&gt;type_info</title>
<path fill="none" stroke="black" d="M928.17,-648.8C948.62,-623.69 984,-573.02 984,-523 984,-523 984,-523 984,-377 984,-334.54 1004.45,-288.92 1019.45,-261.16"/>
<polygon fill="black" stroke="black" points="1022.86,-263.22 1024.68,-252.79 1016.75,-259.81 1022.86,-263.22"/>
</g>
<!-- tablist -->
<g id="node12" class="node">
<title>tablist</title>
<ellipse fill="none" stroke="black" cx="250" cy="-450" rx="32.49" ry="18"/>
<text text-anchor="middle" x="250" y="-446.3" font-family="Times,serif" font-size="14.00">tablist</text>
</g>
<!-- incentives&#45;&gt;tablist -->
<g id="edge15" class="edge">
<title>incentives&#45;&gt;tablist</title>
<path fill="none" stroke="black" d="M888.81,-650.62C854.34,-631.42 790.1,-597.37 732,-576 549.89,-509.03 496.24,-518.87 309,-468 302.38,-466.2 295.37,-464.24 288.57,-462.3"/>
<polygon fill="black" stroke="black" points="289.74,-458.7 279.16,-459.3 287.8,-465.43 289.74,-458.7"/>
</g>
<!-- resource_account -->
<g id="node13" class="node">
<title>resource_account</title>
<ellipse fill="none" stroke="black" cx="1884" cy="-522" rx="72.29" ry="18"/>
<text text-anchor="middle" x="1884" y="-518.3" font-family="Times,serif" font-size="14.00">resource_account</text>
</g>
<!-- incentives&#45;&gt;resource_account -->
<g id="edge16" class="edge">
<title>incentives&#45;&gt;resource_account</title>
<path fill="none" stroke="black" d="M957.82,-659.67C1086.89,-643.77 1476.69,-594.43 1798,-540 1804.86,-538.84 1812,-537.55 1819.12,-536.22"/>
<polygon fill="black" stroke="black" points="1819.32,-539.55 1828.49,-534.24 1818.01,-532.68 1819.32,-539.55"/>
</g>
<!-- option&#45;&gt;vector -->
<g id="edge17" class="edge">
<title>option&#45;&gt;vector</title>
<path fill="none" stroke="black" d="M353,-71.7C353,-64.24 353,-55.32 353,-46.97"/>
<polygon fill="black" stroke="black" points="356.5,-47.1 353,-37.1 349.5,-47.1 356.5,-47.1"/>
</g>
<!-- string&#45;&gt;vector -->
<g id="edge18" class="edge">
<title>string&#45;&gt;vector</title>
<path fill="none" stroke="black" d="M243.4,-145.53C264.93,-120.67 307.39,-71.66 332.67,-42.47"/>
<polygon fill="black" stroke="black" points="335.72,-45.3 339.62,-35.45 330.43,-40.71 335.72,-45.3"/>
</g>
<!-- string&#45;&gt;option -->
<g id="edge19" class="edge">
<title>string&#45;&gt;option</title>
<path fill="none" stroke="black" d="M251.42,-148.81C270.64,-137.87 299.11,-121.67 321.02,-109.2"/>
<polygon fill="black" stroke="black" points="322.61,-111.75 329.57,-103.76 319.15,-105.67 322.61,-111.75"/>
</g>
<!-- system_addresses&#45;&gt;signer -->
<g id="edge20" class="edge">
<title>system_addresses&#45;&gt;signer</title>
<path fill="none" stroke="black" d="M1800.4,-288.21C1837.56,-250.16 1928.21,-157.34 1970.53,-114"/>
<polygon fill="black" stroke="black" points="1972.61,-116.87 1977.09,-107.27 1967.6,-111.98 1972.61,-116.87"/>
</g>
<!-- system_addresses&#45;&gt;error -->
<g id="edge21" class="edge">
<title>system_addresses&#45;&gt;error</title>
<path fill="none" stroke="black" d="M1771.91,-287.85C1756.73,-267.61 1728.79,-234.4 1697,-216 1577.34,-146.75 1141.99,-105.31 1009.51,-94.1"/>
<polygon fill="black" stroke="black" points="1009.97,-90.55 999.72,-93.2 1009.39,-97.52 1009.97,-90.55"/>
</g>
<!-- coin&#45;&gt;option -->
<g id="edge22" class="edge">
<title>coin&#45;&gt;option</title>
<path fill="none" stroke="black" d="M778.89,-520.69C667.36,-519.15 247.94,-510.55 209,-468 198.2,-456.2 206.34,-447.78 209,-432 220.27,-365.2 232.68,-350.43 259,-288 265.95,-271.52 269.18,-268.09 277,-252 299.82,-205.04 325.61,-149.96 340.52,-117.92"/>
<polygon fill="black" stroke="black" points="344.1,-119.52 345.14,-108.98 337.75,-116.57 344.1,-119.52"/>
</g>
<!-- coin&#45;&gt;string -->
<g id="edge23" class="edge">
<title>coin&#45;&gt;string</title>
<path fill="none" stroke="black" d="M778.87,-520.52C664.17,-518.28 222.87,-507.13 176,-468 144.55,-441.74 152,-419.97 152,-379 152,-379 152,-379 152,-305 152,-264.55 150.74,-251.01 171,-216 178.51,-203.02 190.31,-191.5 201.38,-182.53"/>
<polygon fill="black" stroke="black" points="203.21,-184.78 209.02,-175.92 198.95,-179.22 203.21,-184.78"/>
</g>
<!-- coin&#45;&gt;signer -->
<g id="edge24" class="edge">
<title>coin&#45;&gt;signer</title>
<path fill="none" stroke="black" d="M833.17,-520.74C1011.9,-518.71 2012,-501.87 2012,-379 2012,-379 2012,-379 2012,-233 2012,-193 2004.5,-147.21 1998.92,-118.69"/>
<polygon fill="black" stroke="black" points="2002.17,-118.06 1996.75,-108.95 1995.3,-119.45 2002.17,-118.06"/>
</g>
<!-- coin&#45;&gt;error -->
<g id="edge25" class="edge">
<title>coin&#45;&gt;error</title>
<path fill="none" stroke="black" d="M788.23,-508.34C759.01,-485.9 704,-436.06 704,-379 704,-379 704,-379 704,-233 704,-130.75 858.52,-101.89 932.46,-93.94"/>
<polygon fill="black" stroke="black" points="932.58,-97.34 942.18,-92.87 931.88,-90.38 932.58,-97.34"/>
</g>
<!-- coin&#45;&gt;system_addresses -->
<g id="edge27" class="edge">
<title>coin&#45;&gt;system_addresses</title>
<path fill="none" stroke="black" d="M833.09,-520.24C968.03,-516 1567.4,-491.98 1722,-396 1745.4,-381.47 1762.3,-354.48 1772.49,-334.02"/>
<polygon fill="black" stroke="black" points="1775.98,-335.84 1777.08,-325.3 1769.65,-332.85 1775.98,-335.84"/>
</g>
<!-- coin&#45;&gt;type_info -->
<g id="edge26" class="edge">
<title>coin&#45;&gt;type_info</title>
<path fill="none" stroke="black" d="M816.34,-505.15C846.5,-459.08 934.51,-326.09 970,-288 980.52,-276.71 993.47,-265.68 1005.03,-256.64"/>
<polygon fill="black" stroke="black" points="1006.72,-258.99 1012.55,-250.14 1002.47,-253.43 1006.72,-258.99"/>
</g>
<!-- event -->
<g id="node14" class="node">
<title>event</title>
<ellipse fill="none" stroke="black" cx="1080" cy="-378" rx="29.8" ry="18"/>
<text text-anchor="middle" x="1080" y="-374.3" font-family="Times,serif" font-size="14.00">event</text>
</g>
<!-- coin&#45;&gt;event -->
<g id="edge28" class="edge">
<title>coin&#45;&gt;event</title>
<path fill="none" stroke="black" d="M828.5,-511.39C852.07,-501.17 890.03,-484.27 922,-468 967.52,-444.83 1018.79,-415.29 1050.25,-396.75"/>
<polygon fill="black" stroke="black" points="1051.52,-399.48 1058.35,-391.37 1047.96,-393.45 1051.52,-399.48"/>
</g>
<!-- account -->
<g id="node15" class="node">
<title>account</title>
<ellipse fill="none" stroke="black" cx="1195" cy="-450" rx="38.19" ry="18"/>
<text text-anchor="middle" x="1195" y="-446.3" font-family="Times,serif" font-size="14.00">account</text>
</g>
<!-- coin&#45;&gt;account -->
<g id="edge29" class="edge">
<title>coin&#45;&gt;account</title>
<path fill="none" stroke="black" d="M832.13,-516.3C897.11,-504.6 1066.69,-474.09 1148.94,-459.29"/>
<polygon fill="black" stroke="black" points="1149.49,-462.57 1158.71,-457.35 1148.25,-455.68 1149.49,-462.57"/>
</g>
<!-- aggregator -->
<g id="node16" class="node">
<title>aggregator</title>
<ellipse fill="none" stroke="black" cx="342" cy="-306" rx="48.19" ry="18"/>
<text text-anchor="middle" x="342" y="-302.3" font-family="Times,serif" font-size="14.00">aggregator</text>
</g>
<!-- coin&#45;&gt;aggregator -->
<g id="edge30" class="edge">
<title>coin&#45;&gt;aggregator</title>
<path fill="none" stroke="black" d="M784.72,-510.71C778.49,-508.1 771.59,-505.6 765,-504 717.76,-492.55 361.93,-503.76 329,-468 295.55,-431.67 314.27,-369.13 329.22,-333.63"/>
<polygon fill="black" stroke="black" points="332.65,-335.53 333.48,-324.97 326.25,-332.7 332.65,-335.53"/>
</g>
<!-- aggregator_factory -->
<g id="node17" class="node">
<title>aggregator_factory</title>
<ellipse fill="none" stroke="black" cx="599" cy="-378" rx="77.19" ry="18"/>
<text text-anchor="middle" x="599" y="-374.3" font-family="Times,serif" font-size="14.00">aggregator_factory</text>
</g>
<!-- coin&#45;&gt;aggregator_factory -->
<g id="edge31" class="edge">
<title>coin&#45;&gt;aggregator_factory</title>
<path fill="none" stroke="black" d="M783.83,-511.36C752.53,-497.68 698.24,-473.65 690,-468 663.34,-449.7 637.42,-423.24 620.11,-403.93"/>
<polygon fill="black" stroke="black" points="623.25,-402.06 614.01,-396.87 618,-406.69 623.25,-402.06"/>
</g>
<!-- optional_aggregator -->
<g id="node18" class="node">
<title>optional_aggregator</title>
<ellipse fill="none" stroke="black" cx="419" cy="-450" rx="81.49" ry="18"/>
<text text-anchor="middle" x="419" y="-446.3" font-family="Times,serif" font-size="14.00">optional_aggregator</text>
</g>
<!-- coin&#45;&gt;optional_aggregator -->
<g id="edge32" class="edge">
<title>coin&#45;&gt;optional_aggregator</title>
<path fill="none" stroke="black" d="M784.22,-510.83C778.1,-508.29 771.38,-505.78 765,-504 678.16,-479.73 575.74,-465.79 504.99,-458.36"/>
<polygon fill="black" stroke="black" points="505.65,-454.8 495.34,-457.26 504.93,-461.77 505.65,-454.8"/>
</g>
<!-- type_info&#45;&gt;string -->
<g id="edge33" class="edge">
<title>type_info&#45;&gt;string</title>
<path fill="none" stroke="black" d="M991.72,-229.24C851.16,-217.01 408.65,-178.53 271.17,-166.58"/>
<polygon fill="black" stroke="black" points="271.57,-163.01 261.31,-165.64 270.97,-169.99 271.57,-163.01"/>
</g>
<!-- type_info&#45;&gt;error -->
<g id="edge34" class="edge">
<title>type_info&#45;&gt;error</title>
<path fill="none" stroke="black" d="M1027.28,-215.87C1016.27,-191.43 995.94,-146.33 982.97,-117.55"/>
<polygon fill="black" stroke="black" points="985.85,-116.43 978.55,-108.75 979.47,-119.3 985.85,-116.43"/>
</g>
<!-- features -->
<g id="node19" class="node">
<title>features</title>
<ellipse fill="none" stroke="black" cx="1279" cy="-162" rx="38.19" ry="18"/>
<text text-anchor="middle" x="1279" y="-158.3" font-family="Times,serif" font-size="14.00">features</text>
</g>
<!-- type_info&#45;&gt;features -->
<g id="edge35" class="edge">
<title>type_info&#45;&gt;features</title>
<path fill="none" stroke="black" d="M1070.48,-222.82C1114.5,-210.19 1189.49,-188.68 1236.52,-175.19"/>
<polygon fill="black" stroke="black" points="1237.33,-178.31 1245.98,-172.19 1235.4,-171.58 1237.33,-178.31"/>
</g>
<!-- bcs -->
<g id="node20" class="node">
<title>bcs</title>
<ellipse fill="none" stroke="black" cx="1382" cy="-162" rx="27" ry="18"/>
<text text-anchor="middle" x="1382" y="-158.3" font-family="Times,serif" font-size="14.00">bcs</text>
</g>
<!-- type_info&#45;&gt;bcs -->
<g id="edge36" class="edge">
<title>type_info&#45;&gt;bcs</title>
<path fill="none" stroke="black" d="M1076.27,-227.01C1132.96,-218.43 1237.91,-201.32 1326,-180 1333.08,-178.29 1340.59,-176.2 1347.73,-174.08"/>
<polygon fill="black" stroke="black" points="1348.64,-177.16 1357.18,-170.89 1346.6,-170.46 1348.64,-177.16"/>
</g>
<!-- tablist&#45;&gt;option -->
<g id="edge37" class="edge">
<title>tablist&#45;&gt;option</title>
<path fill="none" stroke="black" d="M249.54,-431.55C249.43,-400.87 252.32,-335.99 276,-288 285.74,-268.26 299.28,-271.22 310,-252 333.96,-209.06 345.06,-152.17 349.81,-118.78"/>
<polygon fill="black" stroke="black" points="353.39,-119.39 351.24,-109.01 346.46,-118.47 353.39,-119.39"/>
</g>
<!-- table_with_length -->
<g id="node21" class="node">
<title>table_with_length</title>
<ellipse fill="none" stroke="black" cx="806" cy="-378" rx="74.19" ry="18"/>
<text text-anchor="middle" x="806" y="-374.3" font-family="Times,serif" font-size="14.00">table_with_length</text>
</g>
<!-- tablist&#45;&gt;table_with_length -->
<g id="edge38" class="edge">
<title>tablist&#45;&gt;table_with_length</title>
<path fill="none" stroke="black" d="M279.49,-441.84C294.28,-438.46 312.51,-434.6 329,-432 486.09,-407.23 527.12,-415.07 685,-396 700.57,-394.12 717.24,-391.91 733.08,-389.71"/>
<polygon fill="black" stroke="black" points="733.46,-393.05 742.88,-388.2 732.49,-386.12 733.46,-393.05"/>
</g>
<!-- resource_account&#45;&gt;account -->
<g id="edge40" class="edge">
<title>resource_account&#45;&gt;account</title>
<path fill="none" stroke="black" d="M1817.94,-514.29C1679.77,-500.25 1363.16,-468.08 1242.71,-455.85"/>
<polygon fill="black" stroke="black" points="1243.31,-452.29 1233.01,-454.76 1242.6,-459.25 1243.31,-452.29"/>
</g>
<!-- resource_account&#45;&gt;bcs -->
<g id="edge39" class="edge">
<title>resource_account&#45;&gt;bcs</title>
<path fill="none" stroke="black" d="M1893.19,-503.78C1907.85,-473.98 1933.27,-411.11 1917,-360 1905.11,-322.63 1898.28,-310.26 1866,-288 1722.75,-189.23 1507,-168.5 1420.18,-164.15"/>
<polygon fill="black" stroke="black" points="1420.44,-160.61 1410.29,-163.66 1420.12,-167.61 1420.44,-160.61"/>
</g>
<!-- timestamp -->
<g id="node22" class="node">
<title>timestamp</title>
<ellipse fill="none" stroke="black" cx="1860" cy="-378" rx="48.19" ry="18"/>
<text text-anchor="middle" x="1860" y="-374.3" font-family="Times,serif" font-size="14.00">timestamp</text>
</g>
<!-- resource_account&#45;&gt;timestamp -->
<g id="edge41" class="edge">
<title>resource_account&#45;&gt;timestamp</title>
<path fill="none" stroke="black" d="M1881.06,-503.59C1876.97,-479.4 1869.53,-435.36 1864.67,-406.65"/>
<polygon fill="black" stroke="black" points="1868.01,-406.39 1862.89,-397.11 1861.11,-407.55 1868.01,-406.39"/>
</g>
<!-- event&#45;&gt;bcs -->
<g id="edge42" class="edge">
<title>event&#45;&gt;bcs</title>
<path fill="none" stroke="black" d="M1064.79,-362.22C1047.7,-343.79 1024.38,-311.79 1041,-288 1050.24,-274.77 1262.88,-202.72 1347.61,-174.42"/>
<polygon fill="black" stroke="black" points="1348.61,-177.45 1356.99,-170.96 1346.4,-170.81 1348.61,-177.45"/>
</g>
<!-- guid -->
<g id="node23" class="node">
<title>guid</title>
<ellipse fill="none" stroke="black" cx="1077" cy="-306" rx="27" ry="18"/>
<text text-anchor="middle" x="1077" y="-302.3" font-family="Times,serif" font-size="14.00">guid</text>
</g>
<!-- event&#45;&gt;guid -->
<g id="edge43" class="edge">
<title>event&#45;&gt;guid</title>
<path fill="none" stroke="black" d="M1079.26,-359.7C1078.94,-352.24 1078.56,-343.32 1078.2,-334.97"/>
<polygon fill="black" stroke="black" points="1081.66,-334.95 1077.73,-325.1 1074.66,-335.25 1081.66,-334.95"/>
</g>
<!-- account&#45;&gt;vector -->
<g id="edge44" class="edge">
<title>account&#45;&gt;vector</title>
<path fill="none" stroke="black" d="M1156.81,-448.98C1019.55,-448.53 556.91,-443.45 513,-396 502.13,-384.26 511.79,-375.95 513,-360 517.23,-303.97 532,-291.19 532,-235 532,-235 532,-235 532,-161 532,-89.93 444.33,-48.79 391.7,-30.49"/>
<polygon fill="black" stroke="black" points="392.96,-26.89 382.36,-27.03 390.74,-33.53 392.96,-26.89"/>
</g>
<!-- account&#45;&gt;option -->
<g id="edge45" class="edge">
<title>account&#45;&gt;option</title>
<path fill="none" stroke="black" d="M1156.52,-448.5C1015.84,-446.35 534.81,-436.11 480,-396 431.32,-360.37 403.52,-199.12 379,-144 375.09,-135.21 370.55,-125.75 366.37,-117.28"/>
<polygon fill="black" stroke="black" points="369.12,-115.94 361.52,-108.56 362.86,-119.07 369.12,-115.94"/>
</g>
<!-- account&#45;&gt;signer -->
<g id="edge46" class="edge">
<title>account&#45;&gt;signer</title>
<path fill="none" stroke="black" d="M1233.14,-448.18C1373.75,-444.9 1858.02,-431.13 1917,-396 1957.36,-371.96 1974,-353.97 1974,-307 1974,-307 1974,-307 1974,-233 1974,-193 1981.5,-147.21 1987.08,-118.69"/>
<polygon fill="black" stroke="black" points="1990.7,-119.45 1989.25,-108.95 1983.83,-118.06 1990.7,-119.45"/>
</g>
<!-- account&#45;&gt;error -->
<g id="edge47" class="edge">
<title>account&#45;&gt;error</title>
<path fill="none" stroke="black" d="M1157.87,-444.97C1123.56,-439.42 1073.17,-426.38 1041,-396 962.67,-322.05 963.69,-179.68 968.13,-119.24"/>
<polygon fill="black" stroke="black" points="971.7,-119.55 969.04,-109.29 964.72,-118.97 971.7,-119.55"/>
</g>
<!-- account&#45;&gt;system_addresses -->
<g id="edge51" class="edge">
<title>account&#45;&gt;system_addresses</title>
<path fill="none" stroke="black" d="M1232.1,-445.15C1276.78,-439.36 1353.17,-425.76 1412,-396 1434.24,-384.75 1432.33,-370.35 1455,-360 1533.05,-324.36 1631.1,-312.22 1699.77,-308.32"/>
<polygon fill="black" stroke="black" points="1699.72,-311.78 1709.53,-307.77 1699.36,-304.79 1699.72,-311.78"/>
</g>
<!-- account&#45;&gt;type_info -->
<g id="edge49" class="edge">
<title>account&#45;&gt;type_info</title>
<path fill="none" stroke="black" d="M1189.5,-431.81C1178.81,-400.41 1152.7,-332.87 1113,-288 1101.16,-274.62 1085.25,-263.02 1070.88,-254.11"/>
<polygon fill="black" stroke="black" points="1073.11,-250.77 1062.72,-248.65 1069.52,-256.78 1073.11,-250.77"/>
</g>
<!-- account&#45;&gt;event -->
<g id="edge57" class="edge">
<title>account&#45;&gt;event</title>
<path fill="none" stroke="black" d="M1172.28,-435.17C1154.36,-424.26 1129.22,-408.96 1109.71,-397.08"/>
<polygon fill="black" stroke="black" points="1111.72,-393.6 1101.36,-391.39 1108.08,-399.58 1111.72,-393.6"/>
</g>
<!-- account&#45;&gt;bcs -->
<g id="edge48" class="edge">
<title>account&#45;&gt;bcs</title>
<path fill="none" stroke="black" d="M1232.81,-446.32C1345.74,-438.13 1673.74,-412.98 1689,-396 1699.69,-384.1 1696.67,-374.04 1689,-360 1658.32,-303.86 1484.81,-213.61 1413.06,-178.07"/>
<polygon fill="black" stroke="black" points="1414.75,-174.52 1404.24,-173.24 1411.66,-180.8 1414.75,-174.52"/>
</g>
<!-- account&#45;&gt;guid -->
<g id="edge55" class="edge">
<title>account&#45;&gt;guid</title>
<path fill="none" stroke="black" d="M1181.46,-432.71C1160.62,-407.62 1120.55,-359.41 1096.56,-330.53"/>
<polygon fill="black" stroke="black" points="1098.75,-328.69 1089.66,-323.24 1093.36,-333.17 1098.75,-328.69"/>
</g>
<!-- table -->
<g id="node24" class="node">
<title>table</title>
<ellipse fill="none" stroke="black" cx="806" cy="-306" rx="27.9" ry="18"/>
<text text-anchor="middle" x="806" y="-302.3" font-family="Times,serif" font-size="14.00">table</text>
</g>
<!-- account&#45;&gt;table -->
<g id="edge50" class="edge">
<title>account&#45;&gt;table</title>
<path fill="none" stroke="black" d="M1161.46,-440.99C1123.69,-431.63 1060.7,-414.98 1008,-396 946.27,-373.77 876.76,-341.47 837.49,-322.51"/>
<polygon fill="black" stroke="black" points="839.24,-318.98 828.71,-317.76 836.18,-325.28 839.24,-318.98"/>
</g>
<!-- hash -->
<g id="node25" class="node">
<title>hash</title>
<ellipse fill="none" stroke="black" cx="1329" cy="-234" rx="27" ry="18"/>
<text text-anchor="middle" x="1329" y="-230.3" font-family="Times,serif" font-size="14.00">hash</text>
</g>
<!-- account&#45;&gt;hash -->
<g id="edge52" class="edge">
<title>account&#45;&gt;hash</title>
<path fill="none" stroke="black" d="M1231.29,-443.76C1279.66,-435.94 1361.26,-419.57 1379,-396 1410.53,-354.1 1373.44,-292 1348.33,-258.49"/>
<polygon fill="black" stroke="black" points="1350.53,-256.6 1341.64,-250.83 1344.99,-260.88 1350.53,-256.6"/>
</g>
<!-- ed25519 -->
<g id="node26" class="node">
<title>ed25519</title>
<ellipse fill="none" stroke="black" cx="1239" cy="-306" rx="40.89" ry="18"/>
<text text-anchor="middle" x="1239" y="-302.3" font-family="Times,serif" font-size="14.00">ed25519</text>
</g>
<!-- account&#45;&gt;ed25519 -->
<g id="edge53" class="edge">
<title>account&#45;&gt;ed25519</title>
<path fill="none" stroke="black" d="M1200.31,-431.87C1207.81,-407.67 1221.58,-363.21 1230.51,-334.39"/>
<polygon fill="black" stroke="black" points="1234.06,-335.78 1233.67,-325.19 1227.37,-333.71 1234.06,-335.78"/>
</g>
<!-- multi_ed25519 -->
<g id="node27" class="node">
<title>multi_ed25519</title>
<ellipse fill="none" stroke="black" cx="1306" cy="-378" rx="64.19" ry="18"/>
<text text-anchor="middle" x="1306" y="-374.3" font-family="Times,serif" font-size="14.00">multi_ed25519</text>
</g>
<!-- account&#45;&gt;multi_ed25519 -->
<g id="edge54" class="edge">
<title>account&#45;&gt;multi_ed25519</title>
<path fill="none" stroke="black" d="M1217.2,-435C1232.82,-425.15 1254.03,-411.77 1271.81,-400.56"/>
<polygon fill="black" stroke="black" points="1273.15,-403.22 1279.74,-394.93 1269.41,-397.3 1273.15,-403.22"/>
</g>
<!-- from_bcs -->
<g id="node28" class="node">
<title>from_bcs</title>
<ellipse fill="none" stroke="black" cx="224" cy="-234" rx="44.39" ry="18"/>
<text text-anchor="middle" x="224" y="-230.3" font-family="Times,serif" font-size="14.00">from_bcs</text>
</g>
<!-- account&#45;&gt;from_bcs -->
<g id="edge56" class="edge">
<title>account&#45;&gt;from_bcs</title>
<path fill="none" stroke="black" d="M1156.49,-448.66C1010.98,-447.04 500,-438.38 442,-396 400.29,-365.52 437.05,-322.95 399,-288 366.13,-257.8 316.56,-244.79 278.57,-239.19"/>
<polygon fill="black" stroke="black" points="279.06,-235.59 268.68,-237.74 278.13,-242.53 279.06,-235.59"/>
</g>
<!-- create_signer -->
<g id="node29" class="node">
<title>create_signer</title>
<ellipse fill="none" stroke="black" cx="1622" cy="-378" rx="57.69" ry="18"/>
<text text-anchor="middle" x="1622" y="-374.3" font-family="Times,serif" font-size="14.00">create_signer</text>
</g>
<!-- account&#45;&gt;create_signer -->
<g id="edge58" class="edge">
<title>account&#45;&gt;create_signer</title>
<path fill="none" stroke="black" d="M1232.01,-444.82C1297.49,-437.14 1437.92,-419.41 1555,-396 1559.43,-395.11 1564.02,-394.12 1568.6,-393.07"/>
<polygon fill="black" stroke="black" points="1569.34,-396.25 1578.26,-390.54 1567.72,-389.44 1569.34,-396.25"/>
</g>
<!-- chain_id -->
<g id="node30" class="node">
<title>chain_id</title>
<ellipse fill="none" stroke="black" cx="1505" cy="-378" rx="40.89" ry="18"/>
<text text-anchor="middle" x="1505" y="-374.3" font-family="Times,serif" font-size="14.00">chain_id</text>
</g>
<!-- account&#45;&gt;chain_id -->
<g id="edge59" class="edge">
<title>account&#45;&gt;chain_id</title>
<path fill="none" stroke="black" d="M1230.3,-442.76C1279.75,-433.77 1372.28,-416.04 1450,-396 1454.08,-394.95 1458.3,-393.78 1462.51,-392.57"/>
<polygon fill="black" stroke="black" points="1463.28,-395.7 1471.86,-389.49 1461.28,-388.99 1463.28,-395.7"/>
</g>
<!-- aggregator_factory&#45;&gt;error -->
<g id="edge60" class="edge">
<title>aggregator_factory&#45;&gt;error</title>
<path fill="none" stroke="black" d="M600.24,-359.71C604.34,-316.06 621.48,-200.84 690,-144 726.38,-113.83 864.08,-99.22 932.27,-93.71"/>
<polygon fill="black" stroke="black" points="932.28,-97.14 941.98,-92.88 931.74,-90.17 932.28,-97.14"/>
</g>
<!-- aggregator_factory&#45;&gt;system_addresses -->
<g id="edge62" class="edge">
<title>aggregator_factory&#45;&gt;system_addresses</title>
<path fill="none" stroke="black" d="M661.96,-367.3C681.48,-364.58 703.1,-361.86 723,-360 912.41,-342.32 1485.51,-318.72 1700.94,-310.22"/>
<polygon fill="black" stroke="black" points="1700.99,-313.68 1710.85,-309.79 1700.72,-306.69 1700.99,-313.68"/>
</g>
<!-- aggregator_factory&#45;&gt;aggregator -->
<g id="edge63" class="edge">
<title>aggregator_factory&#45;&gt;aggregator</title>
<path fill="none" stroke="black" d="M550.06,-363.67C504.21,-351.18 436.1,-332.63 390.43,-320.19"/>
<polygon fill="black" stroke="black" points="391.47,-316.57 380.9,-317.32 389.63,-323.33 391.47,-316.57"/>
</g>
<!-- aggregator_factory&#45;&gt;table -->
<g id="edge61" class="edge">
<title>aggregator_factory&#45;&gt;table</title>
<path fill="none" stroke="black" d="M641.64,-362.58C679.93,-349.63 735.46,-330.85 771.15,-318.79"/>
<polygon fill="black" stroke="black" points="772.2,-321.79 780.55,-315.27 769.95,-315.16 772.2,-321.79"/>
</g>
<!-- optional_aggregator&#45;&gt;option -->
<g id="edge64" class="edge">
<title>optional_aggregator&#45;&gt;option</title>
<path fill="none" stroke="black" d="M389.35,-432.76C355.94,-412.46 303.86,-374.18 285,-324 279.37,-309.02 276.97,-301.84 285,-288 301.19,-260.11 331.38,-279.64 348,-252 372.73,-210.87 366.55,-152.54 359.79,-118.55"/>
<polygon fill="black" stroke="black" points="363.05,-118.05 357.52,-109.01 356.21,-119.53 363.05,-118.05"/>
</g>
<!-- optional_aggregator&#45;&gt;error -->
<g id="edge65" class="edge">
<title>optional_aggregator&#45;&gt;error</title>
<path fill="none" stroke="black" d="M426.5,-431.9C450.67,-378.97 532.16,-217.03 654,-144 700.43,-116.17 858.6,-100.08 932.44,-93.92"/>
<polygon fill="black" stroke="black" points="932.44,-97.35 942.12,-93.05 931.87,-90.37 932.44,-97.35"/>
</g>
<!-- optional_aggregator&#45;&gt;aggregator -->
<g id="edge66" class="edge">
<title>optional_aggregator&#45;&gt;aggregator</title>
<path fill="none" stroke="black" d="M397.44,-432.17C386.56,-422.63 374.01,-409.85 366,-396 355.17,-377.27 349.08,-353.51 345.75,-335.25"/>
<polygon fill="black" stroke="black" points="349.05,-334.72 343.98,-325.42 342.14,-335.85 349.05,-334.72"/>
</g>
<!-- optional_aggregator&#45;&gt;aggregator_factory -->
<g id="edge67" class="edge">
<title>optional_aggregator&#45;&gt;aggregator_factory</title>
<path fill="none" stroke="black" d="M458.06,-433.81C485.16,-423.27 521.45,-409.16 550.41,-397.89"/>
<polygon fill="black" stroke="black" points="551.28,-400.93 559.33,-394.04 548.74,-394.4 551.28,-400.93"/>
</g>
<!-- features&#45;&gt;signer -->
<g id="edge68" class="edge">
<title>features&#45;&gt;signer</title>
<path fill="none" stroke="black" d="M1310.8,-151.78C1321.86,-148.88 1334.4,-145.93 1346,-144 1571.25,-106.47 1845.24,-95.15 1949.72,-92.06"/>
<polygon fill="black" stroke="black" points="1949.55,-95.53 1959.45,-91.75 1949.35,-88.54 1949.55,-95.53"/>
</g>
<!-- features&#45;&gt;error -->
<g id="edge69" class="edge">
<title>features&#45;&gt;error</title>
<path fill="none" stroke="black" d="M1245.21,-153.08C1232.88,-150.2 1218.81,-146.94 1206,-144 1135.95,-127.94 1054.06,-109.56 1007.79,-99.21"/>
<polygon fill="black" stroke="black" points="1008.62,-95.59 998.09,-96.82 1007.09,-102.42 1008.62,-95.59"/>
</g>
<!-- table_with_length&#45;&gt;error -->
<g id="edge70" class="edge">
<title>table_with_length&#45;&gt;error</title>
<path fill="none" stroke="black" d="M819.88,-360.23C827.6,-350.23 836.85,-336.98 843,-324 878.63,-248.87 845.55,-211.58 894,-144 905.51,-127.94 923.49,-115.17 939.17,-106.19"/>
<polygon fill="black" stroke="black" points="940.45,-108.94 947.57,-101.1 937.11,-102.79 940.45,-108.94"/>
</g>
<!-- table_with_length&#45;&gt;table -->
<g id="edge71" class="edge">
<title>table_with_length&#45;&gt;table</title>
<path fill="none" stroke="black" d="M806,-359.7C806,-352.24 806,-343.32 806,-334.97"/>
<polygon fill="black" stroke="black" points="809.5,-335.1 806,-325.1 802.5,-335.1 809.5,-335.1"/>
</g>
<!-- timestamp&#45;&gt;error -->
<g id="edge72" class="edge">
<title>timestamp&#45;&gt;error</title>
<path fill="none" stroke="black" d="M1866.58,-359.92C1872.73,-340.95 1879.16,-310.09 1866,-288 1831.6,-230.25 1794.46,-243.22 1733,-216 1644.71,-176.89 1622.32,-164.73 1528,-144 1336.94,-102.01 1101.78,-93.29 1010.15,-91.47"/>
<polygon fill="black" stroke="black" points="1010.25,-87.96 1000.19,-91.28 1010.13,-94.96 1010.25,-87.96"/>
</g>
<!-- timestamp&#45;&gt;system_addresses -->
<g id="edge73" class="edge">
<title>timestamp&#45;&gt;system_addresses</title>
<path fill="none" stroke="black" d="M1842.37,-360.76C1832.8,-351.95 1820.77,-340.87 1810.13,-331.07"/>
<polygon fill="black" stroke="black" points="1813.05,-329.08 1803.32,-324.88 1808.31,-334.23 1813.05,-329.08"/>
</g>
<!-- ed25519&#45;&gt;option -->
<g id="edge74" class="edge">
<title>ed25519&#45;&gt;option</title>
<path fill="none" stroke="black" d="M1216.7,-290.49C1181.52,-267.84 1114.44,-225.67 1088,-216 837.41,-124.38 513.82,-99.26 397.27,-92.95"/>
<polygon fill="black" stroke="black" points="397.5,-89.41 387.33,-92.38 397.13,-96.4 397.5,-89.41"/>
</g>
<!-- ed25519&#45;&gt;error -->
<g id="edge75" class="edge">
<title>ed25519&#45;&gt;error</title>
<path fill="none" stroke="black" d="M1217.72,-290.19C1204.94,-280.47 1189.07,-266.85 1178,-252 1146.49,-209.74 1168.13,-179.32 1129,-144 1095.57,-113.82 1044.38,-100.75 1009.39,-95.14"/>
<polygon fill="black" stroke="black" points="1010.04,-91.55 999.64,-93.56 1009.03,-98.48 1010.04,-91.55"/>
</g>
<!-- ed25519&#45;&gt;type_info -->
<g id="edge77" class="edge">
<title>ed25519&#45;&gt;type_info</title>
<path fill="none" stroke="black" d="M1207.57,-294.22C1172.89,-282.32 1116.87,-263.09 1078.11,-249.79"/>
<polygon fill="black" stroke="black" points="1079.75,-246.31 1069.16,-246.38 1077.48,-252.93 1079.75,-246.31"/>
</g>
<!-- ed25519&#45;&gt;bcs -->
<g id="edge76" class="edge">
<title>ed25519&#45;&gt;bcs</title>
<path fill="none" stroke="black" d="M1246.27,-287.92C1255.12,-268.65 1271.57,-237.25 1293,-216 1309.3,-199.83 1331.47,-186.61 1349.61,-177.42"/>
<polygon fill="black" stroke="black" points="1351.03,-180.13 1358.48,-172.6 1347.96,-173.84 1351.03,-180.13"/>
</g>
<!-- ed25519&#45;&gt;hash -->
<g id="edge78" class="edge">
<title>ed25519&#45;&gt;hash</title>
<path fill="none" stroke="black" d="M1258.53,-289.81C1271.72,-279.55 1289.25,-265.91 1303.53,-254.81"/>
<polygon fill="black" stroke="black" points="1305.19,-257.17 1310.94,-248.27 1300.89,-251.65 1305.19,-257.17"/>
</g>
<!-- multi_ed25519&#45;&gt;option -->
<g id="edge79" class="edge">
<title>multi_ed25519&#45;&gt;option</title>
<path fill="none" stroke="black" d="M1272.9,-362.19C1249.43,-351.64 1217.23,-337.08 1189,-324 1155.09,-308.29 1148.14,-300.75 1113,-288 1077.85,-275.25 544.33,-139.56 392.84,-101.1"/>
<polygon fill="black" stroke="black" points="394.15,-97.57 383.6,-98.51 392.43,-104.36 394.15,-97.57"/>
</g>
<!-- multi_ed25519&#45;&gt;error -->
<g id="edge80" class="edge">
<title>multi_ed25519&#45;&gt;error</title>
<path fill="none" stroke="black" d="M1305.51,-359.69C1304.36,-341.07 1300.66,-311.01 1289,-288 1249.48,-210.02 1229.49,-189.76 1155,-144 1109.37,-115.97 1048.3,-102.23 1009.3,-95.89"/>
<polygon fill="black" stroke="black" points="1009.84,-92.28 999.43,-94.23 1008.78,-99.2 1009.84,-92.28"/>
</g>
<!-- multi_ed25519&#45;&gt;features -->
<g id="edge81" class="edge">
<title>multi_ed25519&#45;&gt;features</title>
<path fill="none" stroke="black" d="M1321.24,-360.26C1346.72,-330.15 1392.57,-265.38 1365,-216 1355.21,-198.46 1336.97,-186.01 1319.79,-177.6"/>
<polygon fill="black" stroke="black" points="1321.43,-174.05 1310.88,-173.11 1318.54,-180.42 1321.43,-174.05"/>
</g>
<!-- multi_ed25519&#45;&gt;bcs -->
<g id="edge82" class="edge">
<title>multi_ed25519&#45;&gt;bcs</title>
<path fill="none" stroke="black" d="M1333.87,-361.36C1347.53,-352.23 1362.94,-339.47 1372,-324 1396.28,-282.53 1392.5,-224.31 1387.37,-190.44"/>
<polygon fill="black" stroke="black" points="1390.72,-190.23 1385.62,-180.94 1383.82,-191.38 1390.72,-190.23"/>
</g>
<!-- multi_ed25519&#45;&gt;hash -->
<g id="edge83" class="edge">
<title>multi_ed25519&#45;&gt;hash</title>
<path fill="none" stroke="black" d="M1312.13,-360.05C1315.6,-349.76 1319.69,-336.28 1322,-324 1325.79,-303.85 1327.53,-280.77 1328.33,-263.16"/>
<polygon fill="black" stroke="black" points="1331.86,-263.33 1328.74,-253.21 1324.87,-263.07 1331.86,-263.33"/>
</g>
<!-- multi_ed25519&#45;&gt;ed25519 -->
<g id="edge84" class="edge">
<title>multi_ed25519&#45;&gt;ed25519</title>
<path fill="none" stroke="black" d="M1290.12,-360.41C1281.66,-351.57 1271.09,-340.53 1261.77,-330.79"/>
<polygon fill="black" stroke="black" points="1264.75,-328.79 1255.3,-323.99 1259.69,-333.63 1264.75,-328.79"/>
</g>
<!-- from_bcs&#45;&gt;string -->
<g id="edge85" class="edge">
<title>from_bcs&#45;&gt;string</title>
<path fill="none" stroke="black" d="M225.48,-215.7C226.12,-208.24 226.89,-199.32 227.6,-190.97"/>
<polygon fill="black" stroke="black" points="231.17,-191.37 228.53,-181.1 224.19,-190.77 231.17,-191.37"/>
</g>
<!-- chain_id&#45;&gt;system_addresses -->
<g id="edge86" class="edge">
<title>chain_id&#45;&gt;system_addresses</title>
<path fill="none" stroke="black" d="M1536.05,-365.9C1542.29,-363.83 1548.83,-361.76 1555,-360 1609.32,-344.52 1671.84,-330.29 1717.81,-320.48"/>
<polygon fill="black" stroke="black" points="1718.48,-323.7 1727.54,-318.21 1717.03,-316.85 1718.48,-323.7"/>
</g>
</g>
</svg>
