<?xml version="1.0" encoding="UTF-8" standalone="no"?>
<!DOCTYPE svg PUBLIC "-//W3C//DTD SVG 1.1//EN"
 "http://www.w3.org/Graphics/SVG/1.1/DTD/svg11.dtd">
<!-- Generated by graphviz version 8.0.5 (20230430.1635)
 -->
<!-- Title: G Pages: 1 -->
<svg width="143pt" height="260pt"
 viewBox="0.00 0.00 143.28 260.00" xmlns="http://www.w3.org/2000/svg" xmlns:xlink="http://www.w3.org/1999/xlink">
<g id="graph0" class="graph" transform="scale(1 1) rotate(0) translate(4 256)">
<title>G</title>
<polygon fill="white" stroke="none" points="-4,4 -4,-256 139.28,-256 139.28,4 -4,4"/>
<!-- incentives -->
<g id="node1" class="node">
<title>incentives</title>
<ellipse fill="none" stroke="black" cx="48.28" cy="-18" rx="48.28" ry="18"/>
<text text-anchor="middle" x="48.28" y="-12.95" font-family="Times,serif" font-size="14.00">incentives</text>
</g>
<!-- registry -->
<g id="node2" class="node">
<title>registry</title>
<ellipse fill="none" stroke="black" cx="82.28" cy="-90" rx="39.07" ry="18"/>
<text text-anchor="middle" x="82.28" y="-84.95" font-family="Times,serif" font-size="14.00">registry</text>
</g>
<!-- registry&#45;&gt;incentives -->
<g id="edge1" class="edge">
<title>registry&#45;&gt;incentives</title>
<path fill="none" stroke="black" d="M74.05,-72.05C70.17,-64.06 65.44,-54.33 61.1,-45.4"/>
<polygon fill="black" stroke="black" points="63.95,-44.25 56.44,-36.79 57.66,-47.31 63.95,-44.25"/>
</g>
<!-- market -->
<g id="node3" class="node">
<title>market</title>
<ellipse fill="none" stroke="black" cx="53.28" cy="-234" rx="37.02" ry="18"/>
<text text-anchor="middle" x="53.28" y="-228.95" font-family="Times,serif" font-size="14.00">market</text>
</g>
<!-- market&#45;&gt;incentives -->
<g id="edge2" class="edge">
<title>market&#45;&gt;incentives</title>
<path fill="none" stroke="black" d="M48.53,-216.06C40.91,-186.7 27.47,-124.47 34.28,-72 35.38,-63.56 37.41,-54.56 39.6,-46.41"/>
<polygon fill="black" stroke="black" points="43.2,-47.54 42.6,-36.96 36.48,-45.61 43.2,-47.54"/>
</g>
<!-- market&#45;&gt;registry -->
<g id="edge4" class="edge">
<title>market&#45;&gt;registry</title>
<path fill="none" stroke="black" d="M56.84,-215.59C61.78,-191.4 70.77,-147.36 76.63,-118.65"/>
<polygon fill="black" stroke="black" points="80.21,-119.61 78.79,-109.11 73.36,-118.21 80.21,-119.61"/>
</g>
<!-- user -->
<g id="node4" class="node">
<title>user</title>
<ellipse fill="none" stroke="black" cx="108.28" cy="-162" rx="27" ry="18"/>
<text text-anchor="middle" x="108.28" y="-156.95" font-family="Times,serif" font-size="14.00">user</text>
</g>
<!-- market&#45;&gt;user -->
<g id="edge5" class="edge">
<title>market&#45;&gt;user</title>
<path fill="none" stroke="black" d="M66.04,-216.76C73.03,-207.86 81.84,-196.65 89.6,-186.78"/>
<polygon fill="black" stroke="black" points="92.92,-189.21 96.35,-179.19 87.42,-184.89 92.92,-189.21"/>
</g>
<!-- user&#45;&gt;registry -->
<g id="edge3" class="edge">
<title>user&#45;&gt;registry</title>
<path fill="none" stroke="black" d="M101.99,-144.05C99.08,-136.23 95.56,-126.75 92.3,-117.98"/>
<polygon fill="black" stroke="black" points="95.28,-116.94 88.52,-108.79 88.72,-119.38 95.28,-116.94"/>
</g>
</g>
</svg>
