<?xml version="1.0" encoding="UTF-8" standalone="no"?>
<!DOCTYPE svg PUBLIC "-//W3C//DTD SVG 1.1//EN"
 "http://www.w3.org/Graphics/SVG/1.1/DTD/svg11.dtd">
<!-- Generated by graphviz version 9.0.0 (20230911.1827)
 -->
<!-- Title: G Pages: 1 -->
<svg width="2362pt" height="692pt"
 viewBox="0.00 0.00 2361.63 692.00" xmlns="http://www.w3.org/2000/svg" xmlns:xlink="http://www.w3.org/1999/xlink">
<g id="graph0" class="graph" transform="scale(1 1) rotate(0) translate(4 688)">
<title>G</title>
<polygon fill="white" stroke="none" points="-4,4 -4,-688 2357.63,-688 2357.63,4 -4,4"/>
<!-- incentives -->
<g id="node1" class="node">
<title>incentives</title>
<ellipse fill="none" stroke="black" cx="855" cy="-666" rx="48.28" ry="18"/>
<text text-anchor="middle" x="855" y="-660.95" font-family="Times,serif" font-size="14.00">incentives</text>
</g>
<!-- vector -->
<g id="node2" class="node">
<title>vector</title>
<ellipse fill="none" stroke="black" cx="364" cy="-18" rx="33.95" ry="18"/>
<text text-anchor="middle" x="364" y="-12.95" font-family="Times,serif" font-size="14.00">vector</text>
</g>
<!-- incentives&#45;&gt;vector -->
<g id="edge1" class="edge">
<title>incentives&#45;&gt;vector</title>
<path fill="none" stroke="black" d="M903.62,-665.16C1146.95,-665.31 2221,-658.31 2221,-523 2221,-523 2221,-523 2221,-161 2221,-128.62 2715.17,-178.25 1785,-72 1509.07,-40.48 620.51,-23.43 409.34,-19.76"/>
<polygon fill="black" stroke="black" points="409.67,-16.26 399.61,-19.59 409.55,-23.26 409.67,-16.26"/>
</g>
<!-- signer -->
<g id="node3" class="node">
<title>signer</title>
<ellipse fill="none" stroke="black" cx="530" cy="-90" rx="33.44" ry="18"/>
<text text-anchor="middle" x="530" y="-84.95" font-family="Times,serif" font-size="14.00">signer</text>
</g>
<!-- incentives&#45;&gt;signer -->
<g id="edge2" class="edge">
<title>incentives&#45;&gt;signer</title>
<path fill="none" stroke="black" d="M807.51,-662.18C627.86,-650.89 0,-605.52 0,-523 0,-523 0,-523 0,-449 0,-262.87 121.91,-229.97 287,-144 350.95,-110.7 434.87,-98.29 485.49,-93.69"/>
<polygon fill="black" stroke="black" points="485.51,-97.2 495.18,-92.88 484.93,-90.22 485.51,-97.2"/>
</g>
<!-- type_info -->
<g id="node4" class="node">
<title>type_info</title>
<ellipse fill="none" stroke="black" cx="1228" cy="-234" rx="46.23" ry="18"/>
<text text-anchor="middle" x="1228" y="-228.95" font-family="Times,serif" font-size="14.00">type_info</text>
</g>
<!-- incentives&#45;&gt;type_info -->
<g id="edge3" class="edge">
<title>incentives&#45;&gt;type_info</title>
<path fill="none" stroke="black" d="M902.88,-662.91C977.92,-656.76 1121.41,-632.79 1187,-540 1251.66,-448.52 1158.01,-394.74 1192,-288 1195.1,-278.25 1200.63,-268.66 1206.43,-260.38"/>
<polygon fill="black" stroke="black" points="1209.12,-262.63 1212.33,-252.53 1203.52,-258.42 1209.12,-262.63"/>
</g>
<!-- coin -->
<g id="node5" class="node">
<title>coin</title>
<ellipse fill="none" stroke="black" cx="855" cy="-522" rx="27" ry="18"/>
<text text-anchor="middle" x="855" y="-516.95" font-family="Times,serif" font-size="14.00">coin</text>
</g>
<!-- incentives&#45;&gt;coin -->
<g id="edge4" class="edge">
<title>incentives&#45;&gt;coin</title>
<path fill="none" stroke="black" d="M855,-647.59C855,-623.61 855,-580.14 855,-551.42"/>
<polygon fill="black" stroke="black" points="858.5,-551.62 855,-541.62 851.5,-551.62 858.5,-551.62"/>
</g>
<!-- aptos_coin -->
<g id="node6" class="node">
<title>aptos_coin</title>
<ellipse fill="none" stroke="black" cx="504" cy="-594" rx="50.84" ry="18"/>
<text text-anchor="middle" x="504" y="-588.95" font-family="Times,serif" font-size="14.00">aptos_coin</text>
</g>
<!-- incentives&#45;&gt;aptos_coin -->
<g id="edge5" class="edge">
<title>incentives&#45;&gt;aptos_coin</title>
<path fill="none" stroke="black" d="M813.01,-656.63C749.58,-643.98 629.28,-619.98 558.95,-605.96"/>
<polygon fill="black" stroke="black" points="559.67,-602.53 549.17,-604.01 558.3,-609.4 559.67,-602.53"/>
</g>
<!-- tablist -->
<g id="node7" class="node">
<title>tablist</title>
<ellipse fill="none" stroke="black" cx="190" cy="-450" rx="33.44" ry="18"/>
<text text-anchor="middle" x="190" y="-444.95" font-family="Times,serif" font-size="14.00">tablist</text>
</g>
<!-- incentives&#45;&gt;tablist -->
<g id="edge6" class="edge">
<title>incentives&#45;&gt;tablist</title>
<path fill="none" stroke="black" d="M808.01,-661.37C679.06,-650.52 323.55,-614.37 237,-540 218.28,-523.91 205.91,-498.48 198.58,-478.91"/>
<polygon fill="black" stroke="black" points="201.93,-477.9 195.33,-469.61 195.32,-480.21 201.93,-477.9"/>
</g>
<!-- resource_account -->
<g id="node8" class="node">
<title>resource_account</title>
<ellipse fill="none" stroke="black" cx="1747" cy="-522" rx="75.41" ry="18"/>
<text text-anchor="middle" x="1747" y="-516.95" font-family="Times,serif" font-size="14.00">resource_account</text>
</g>
<!-- incentives&#45;&gt;resource_account -->
<g id="edge7" class="edge">
<title>incentives&#45;&gt;resource_account</title>
<path fill="none" stroke="black" d="M900.7,-659.86C976.26,-651.18 1131.92,-632.55 1263,-612 1412.29,-588.59 1586.33,-555.05 1679.65,-536.54"/>
<polygon fill="black" stroke="black" points="1680.29,-539.99 1689.42,-534.6 1678.93,-533.12 1680.29,-539.99"/>
</g>
<!-- string -->
<g id="node9" class="node">
<title>string</title>
<ellipse fill="none" stroke="black" cx="364" cy="-162" rx="31.9" ry="18"/>
<text text-anchor="middle" x="364" y="-156.95" font-family="Times,serif" font-size="14.00">string</text>
</g>
<!-- type_info&#45;&gt;string -->
<g id="edge8" class="edge">
<title>type_info&#45;&gt;string</title>
<path fill="none" stroke="black" d="M1183.07,-229.36C1033.33,-217.23 552.55,-178.28 406.48,-166.44"/>
<polygon fill="black" stroke="black" points="407.13,-162.98 396.88,-165.66 406.56,-169.96 407.13,-162.98"/>
</g>
<!-- error -->
<g id="node10" class="node">
<title>error</title>
<ellipse fill="none" stroke="black" cx="1200" cy="-90" rx="28.83" ry="18"/>
<text text-anchor="middle" x="1200" y="-84.95" font-family="Times,serif" font-size="14.00">error</text>
</g>
<!-- type_info&#45;&gt;error -->
<g id="edge9" class="edge">
<title>type_info&#45;&gt;error</title>
<path fill="none" stroke="black" d="M1210.3,-217.22C1200.82,-207.54 1190.07,-194.29 1185,-180 1177.92,-160.04 1182.5,-136.34 1188.4,-118.42"/>
<polygon fill="black" stroke="black" points="1191.6,-119.85 1191.73,-109.26 1185.02,-117.46 1191.6,-119.85"/>
</g>
<!-- features -->
<g id="node11" class="node">
<title>features</title>
<ellipse fill="none" stroke="black" cx="1234" cy="-162" rx="40.09" ry="18"/>
<text text-anchor="middle" x="1234" y="-156.95" font-family="Times,serif" font-size="14.00">features</text>
</g>
<!-- type_info&#45;&gt;features -->
<g id="edge10" class="edge">
<title>type_info&#45;&gt;features</title>
<path fill="none" stroke="black" d="M1229.48,-215.7C1230.11,-208.41 1230.85,-199.73 1231.55,-191.54"/>
<polygon fill="black" stroke="black" points="1235.04,-191.87 1232.4,-181.61 1228.06,-191.28 1235.04,-191.87"/>
</g>
<!-- bcs -->
<g id="node12" class="node">
<title>bcs</title>
<ellipse fill="none" stroke="black" cx="1717" cy="-162" rx="27" ry="18"/>
<text text-anchor="middle" x="1717" y="-156.95" font-family="Times,serif" font-size="14.00">bcs</text>
</g>
<!-- type_info&#45;&gt;bcs -->
<g id="edge11" class="edge">
<title>type_info&#45;&gt;bcs</title>
<path fill="none" stroke="black" d="M1270.97,-226.85C1365.43,-213.33 1589.84,-181.2 1679.27,-168.4"/>
<polygon fill="black" stroke="black" points="1679.57,-171.89 1688.98,-167.01 1678.58,-164.96 1679.57,-171.89"/>
</g>
<!-- coin&#45;&gt;signer -->
<g id="edge14" class="edge">
<title>coin&#45;&gt;signer</title>
<path fill="none" stroke="black" d="M827.93,-519.65C756.55,-515.66 565.08,-501.98 513,-468 437.92,-419.02 399.76,-374.84 422,-288 439.16,-221 484.37,-152.3 510.53,-116.4"/>
<polygon fill="black" stroke="black" points="513.33,-118.5 516.47,-108.39 507.7,-114.34 513.33,-118.5"/>
</g>
<!-- coin&#45;&gt;type_info -->
<g id="edge16" class="edge">
<title>coin&#45;&gt;type_info</title>
<path fill="none" stroke="black" d="M882.37,-521.52C927.16,-520.95 1016.75,-513.65 1073,-468 1141.84,-412.13 1103.2,-356.9 1159,-288 1168.92,-275.75 1182.23,-264.67 1194.51,-255.86"/>
<polygon fill="black" stroke="black" points="1196.13,-258.99 1202.37,-250.43 1192.16,-253.22 1196.13,-258.99"/>
</g>
<!-- coin&#45;&gt;string -->
<g id="edge13" class="edge">
<title>coin&#45;&gt;string</title>
<path fill="none" stroke="black" d="M827.79,-520.22C727.58,-517.07 383.16,-503.72 351,-468 280.54,-389.74 327.29,-249.23 351.75,-190.24"/>
<polygon fill="black" stroke="black" points="354.86,-191.86 355.57,-181.28 348.42,-189.11 354.86,-191.86"/>
</g>
<!-- coin&#45;&gt;error -->
<g id="edge15" class="edge">
<title>coin&#45;&gt;error</title>
<path fill="none" stroke="black" d="M873.21,-508.23C902.54,-487.1 961.09,-442.55 1002,-396 1084.04,-302.64 1157,-172.49 1186.32,-117.35"/>
<polygon fill="black" stroke="black" points="1189.32,-119.17 1190.89,-108.7 1183.13,-115.91 1189.32,-119.17"/>
</g>
<!-- option -->
<g id="node13" class="node">
<title>option</title>
<ellipse fill="none" stroke="black" cx="266" cy="-90" rx="34.46" ry="18"/>
<text text-anchor="middle" x="266" y="-84.95" font-family="Times,serif" font-size="14.00">option</text>
</g>
<!-- coin&#45;&gt;option -->
<g id="edge12" class="edge">
<title>coin&#45;&gt;option</title>
<path fill="none" stroke="black" d="M827.66,-521.09C703.28,-521.22 194.99,-518.64 148,-468 98.56,-414.71 152.72,-204.51 193,-144 202.64,-129.52 217.65,-117.63 231.56,-108.81"/>
<polygon fill="black" stroke="black" points="233.31,-111.84 240.1,-103.71 229.72,-105.83 233.31,-111.84"/>
</g>
<!-- system_addresses -->
<g id="node14" class="node">
<title>system_addresses</title>
<ellipse fill="none" stroke="black" cx="1278" cy="-306" rx="76.94" ry="18"/>
<text text-anchor="middle" x="1278" y="-300.95" font-family="Times,serif" font-size="14.00">system_addresses</text>
</g>
<!-- coin&#45;&gt;system_addresses -->
<g id="edge17" class="edge">
<title>coin&#45;&gt;system_addresses</title>
<path fill="none" stroke="black" d="M882.07,-520.27C930.66,-517.95 1034.74,-508.25 1111,-468 1144.18,-450.49 1217.53,-373.18 1255,-332.39"/>
<polygon fill="black" stroke="black" points="1257.45,-334.9 1261.61,-325.16 1252.28,-330.18 1257.45,-334.9"/>
</g>
<!-- event -->
<g id="node15" class="node">
<title>event</title>
<ellipse fill="none" stroke="black" cx="1930" cy="-378" rx="30.88" ry="18"/>
<text text-anchor="middle" x="1930" y="-372.95" font-family="Times,serif" font-size="14.00">event</text>
</g>
<!-- coin&#45;&gt;event -->
<g id="edge18" class="edge">
<title>coin&#45;&gt;event</title>
<path fill="none" stroke="black" d="M882.27,-521.49C984.01,-522.84 1350.76,-523.34 1646,-468 1737.74,-450.8 1841.43,-413.56 1894.52,-393.12"/>
<polygon fill="black" stroke="black" points="1895.59,-396.46 1903.64,-389.58 1893.05,-389.94 1895.59,-396.46"/>
</g>
<!-- account -->
<g id="node16" class="node">
<title>account</title>
<ellipse fill="none" stroke="black" cx="1597" cy="-450" rx="39.58" ry="18"/>
<text text-anchor="middle" x="1597" y="-444.95" font-family="Times,serif" font-size="14.00">account</text>
</g>
<!-- coin&#45;&gt;account -->
<g id="edge19" class="edge">
<title>coin&#45;&gt;account</title>
<path fill="none" stroke="black" d="M881.85,-518.47C991.13,-508.16 1403.49,-469.26 1547.22,-455.7"/>
<polygon fill="black" stroke="black" points="1547.16,-459.22 1556.79,-454.79 1546.51,-452.25 1547.16,-459.22"/>
</g>
<!-- aggregator -->
<g id="node17" class="node">
<title>aggregator</title>
<ellipse fill="none" stroke="black" cx="481" cy="-306" rx="50.33" ry="18"/>
<text text-anchor="middle" x="481" y="-300.95" font-family="Times,serif" font-size="14.00">aggregator</text>
</g>
<!-- coin&#45;&gt;aggregator -->
<g id="edge20" class="edge">
<title>coin&#45;&gt;aggregator</title>
<path fill="none" stroke="black" d="M827.72,-521.65C756.3,-521.7 563.62,-510.72 481,-396 468.57,-378.74 469.51,-354.31 473.03,-335.41"/>
<polygon fill="black" stroke="black" points="476.44,-336.2 475.2,-325.68 469.61,-334.67 476.44,-336.2"/>
</g>
<!-- aggregator_factory -->
<g id="node18" class="node">
<title>aggregator_factory</title>
<ellipse fill="none" stroke="black" cx="912" cy="-378" rx="81.04" ry="18"/>
<text text-anchor="middle" x="912" y="-372.95" font-family="Times,serif" font-size="14.00">aggregator_factory</text>
</g>
<!-- coin&#45;&gt;aggregator_factory -->
<g id="edge21" class="edge">
<title>coin&#45;&gt;aggregator_factory</title>
<path fill="none" stroke="black" d="M868.12,-506.26C876.44,-496.16 886.78,-482.08 893,-468 901.5,-448.77 906.3,-425.48 908.94,-407.55"/>
<polygon fill="black" stroke="black" points="912.38,-408.25 910.22,-397.88 905.44,-407.33 912.38,-408.25"/>
</g>
<!-- optional_aggregator -->
<g id="node19" class="node">
<title>optional_aggregator</title>
<ellipse fill="none" stroke="black" cx="799" cy="-450" rx="85.13" ry="18"/>
<text text-anchor="middle" x="799" y="-444.95" font-family="Times,serif" font-size="14.00">optional_aggregator</text>
</g>
<!-- coin&#45;&gt;optional_aggregator -->
<g id="edge22" class="edge">
<title>coin&#45;&gt;optional_aggregator</title>
<path fill="none" stroke="black" d="M842.85,-505.81C836.12,-497.4 827.57,-486.72 819.81,-477.02"/>
<polygon fill="black" stroke="black" points="822.63,-474.93 813.65,-469.31 817.16,-479.3 822.63,-474.93"/>
</g>
<!-- aptos_coin&#45;&gt;vector -->
<g id="edge23" class="edge">
<title>aptos_coin&#45;&gt;vector</title>
<path fill="none" stroke="black" d="M453.94,-590.45C362.91,-585.11 174.35,-570.63 117,-540 70.34,-515.09 38,-503.89 38,-451 38,-451 38,-451 38,-161 38,-40.18 228.54,-21.1 318.28,-18.81"/>
<polygon fill="black" stroke="black" points="318.28,-22.32 328.22,-18.63 318.15,-15.32 318.28,-22.32"/>
</g>
<!-- aptos_coin&#45;&gt;signer -->
<g id="edge26" class="edge">
<title>aptos_coin&#45;&gt;signer</title>
<path fill="none" stroke="black" d="M459.25,-585.22C408.1,-575.63 328.3,-558.34 304,-540 267.25,-512.27 251,-497.04 251,-451 251,-451 251,-451 251,-377 251,-268.61 244.5,-218.74 323,-144 366.72,-102.38 438.48,-92.25 484.98,-90.4"/>
<polygon fill="black" stroke="black" points="484.82,-93.91 494.72,-90.14 484.62,-86.91 484.82,-93.91"/>
</g>
<!-- aptos_coin&#45;&gt;coin -->
<g id="edge29" class="edge">
<title>aptos_coin&#45;&gt;coin</title>
<path fill="none" stroke="black" d="M547.39,-584.35C617.12,-570.44 752.9,-543.36 818.19,-530.34"/>
<polygon fill="black" stroke="black" points="818.56,-533.84 827.68,-528.45 817.19,-526.97 818.56,-533.84"/>
</g>
<!-- aptos_coin&#45;&gt;string -->
<g id="edge25" class="edge">
<title>aptos_coin&#45;&gt;string</title>
<path fill="none" stroke="black" d="M459.97,-584.55C397.07,-569.63 289,-532.19 289,-451 289,-451 289,-451 289,-377 289,-303.48 296.98,-283.11 327,-216 331.39,-206.18 337.69,-196.27 343.84,-187.73"/>
<polygon fill="black" stroke="black" points="346.49,-190.04 349.71,-179.95 340.9,-185.83 346.49,-190.04"/>
</g>
<!-- aptos_coin&#45;&gt;error -->
<g id="edge27" class="edge">
<title>aptos_coin&#45;&gt;error</title>
<path fill="none" stroke="black" d="M553.95,-590.24C644.8,-584.56 833.07,-569.53 891,-540 981.85,-493.69 1138.72,-207.15 1186.07,-117.67"/>
<polygon fill="black" stroke="black" points="1189.14,-119.35 1190.71,-108.87 1182.95,-116.09 1189.14,-119.35"/>
</g>
<!-- aptos_coin&#45;&gt;option -->
<g id="edge24" class="edge">
<title>aptos_coin&#45;&gt;option</title>
<path fill="none" stroke="black" d="M456.15,-587.43C344.46,-573.09 76,-530.36 76,-451 76,-451 76,-451 76,-233 76,-192.03 71.7,-173.62 100,-144 131.34,-111.19 182.94,-98.63 220.3,-93.86"/>
<polygon fill="black" stroke="black" points="220.35,-97.38 229.89,-92.78 219.57,-90.42 220.35,-97.38"/>
</g>
<!-- aptos_coin&#45;&gt;system_addresses -->
<g id="edge28" class="edge">
<title>aptos_coin&#45;&gt;system_addresses</title>
<path fill="none" stroke="black" d="M554.95,-592.13C704.78,-589.15 1136.57,-577.39 1187,-540 1221.2,-514.65 1256.39,-391.47 1270.99,-335.17"/>
<polygon fill="black" stroke="black" points="1274.33,-336.26 1273.41,-325.7 1267.55,-334.52 1274.33,-336.26"/>
</g>
<!-- tablist&#45;&gt;option -->
<g id="edge30" class="edge">
<title>tablist&#45;&gt;option</title>
<path fill="none" stroke="black" d="M190,-431.51C190,-404.71 190,-351.87 190,-307 190,-307 190,-307 190,-233 190,-192.03 193.66,-179.56 214,-144 220.45,-132.72 229.88,-122.11 238.95,-113.39"/>
<polygon fill="black" stroke="black" points="241.28,-115.99 246.3,-106.66 236.56,-110.83 241.28,-115.99"/>
</g>
<!-- table_with_length -->
<g id="node20" class="node">
<title>table_with_length</title>
<ellipse fill="none" stroke="black" cx="698" cy="-378" rx="77.45" ry="18"/>
<text text-anchor="middle" x="698" y="-372.95" font-family="Times,serif" font-size="14.00">table_with_length</text>
</g>
<!-- tablist&#45;&gt;table_with_length -->
<g id="edge31" class="edge">
<title>tablist&#45;&gt;table_with_length</title>
<path fill="none" stroke="black" d="M222.16,-444.57C301.55,-433.63 508.56,-405.1 621.61,-389.53"/>
<polygon fill="black" stroke="black" points="621.98,-393.01 631.41,-388.18 621.03,-386.07 621.98,-393.01"/>
</g>
<!-- resource_account&#45;&gt;bcs -->
<g id="edge32" class="edge">
<title>resource_account&#45;&gt;bcs</title>
<path fill="none" stroke="black" d="M1820.97,-518.08C1949.36,-509.87 2193.6,-478.64 2126,-360 2047.65,-222.49 1840.57,-179.5 1754.91,-167.35"/>
<polygon fill="black" stroke="black" points="1755.54,-163.9 1745.16,-166.03 1754.6,-170.84 1755.54,-163.9"/>
</g>
<!-- resource_account&#45;&gt;account -->
<g id="edge33" class="edge">
<title>resource_account&#45;&gt;account</title>
<path fill="none" stroke="black" d="M1713.71,-505.46C1690.1,-494.45 1658.41,-479.66 1634.01,-468.27"/>
<polygon fill="black" stroke="black" points="1635.62,-465.16 1625.08,-464.1 1632.66,-471.5 1635.62,-465.16"/>
</g>
<!-- timestamp -->
<g id="node21" class="node">
<title>timestamp</title>
<ellipse fill="none" stroke="black" cx="2067" cy="-378" rx="50.33" ry="18"/>
<text text-anchor="middle" x="2067" y="-372.95" font-family="Times,serif" font-size="14.00">timestamp</text>
</g>
<!-- resource_account&#45;&gt;timestamp -->
<g id="edge34" class="edge">
<title>resource_account&#45;&gt;timestamp</title>
<path fill="none" stroke="black" d="M1781.55,-505.67C1840.98,-479.3 1962.29,-425.47 2025.93,-397.22"/>
<polygon fill="black" stroke="black" points="2027.27,-400.46 2034.99,-393.2 2024.43,-394.06 2027.27,-400.46"/>
</g>
<!-- string&#45;&gt;vector -->
<g id="edge35" class="edge">
<title>string&#45;&gt;vector</title>
<path fill="none" stroke="black" d="M364,-143.59C364,-119.61 364,-76.14 364,-47.42"/>
<polygon fill="black" stroke="black" points="367.5,-47.62 364,-37.62 360.5,-47.62 367.5,-47.62"/>
</g>
<!-- string&#45;&gt;option -->
<g id="edge36" class="edge">
<title>string&#45;&gt;option</title>
<path fill="none" stroke="black" d="M344.64,-147.17C330.37,-136.98 310.73,-122.95 294.65,-111.46"/>
<polygon fill="black" stroke="black" points="297.06,-108.88 286.89,-105.92 292.99,-114.58 297.06,-108.88"/>
</g>
<!-- features&#45;&gt;signer -->
<g id="edge37" class="edge">
<title>features&#45;&gt;signer</title>
<path fill="none" stroke="black" d="M1198.3,-153.58C1181.31,-150.25 1160.67,-146.53 1142,-144 930.55,-115.38 675.79,-99.12 574.58,-93.38"/>
<polygon fill="black" stroke="black" points="574.99,-89.9 564.81,-92.84 574.59,-96.89 574.99,-89.9"/>
</g>
<!-- features&#45;&gt;error -->
<g id="edge38" class="edge">
<title>features&#45;&gt;error</title>
<path fill="none" stroke="black" d="M1225.77,-144.05C1221.91,-136.12 1217.23,-126.47 1212.92,-117.59"/>
<polygon fill="black" stroke="black" points="1216.1,-116.13 1208.58,-108.67 1209.8,-119.19 1216.1,-116.13"/>
</g>
<!-- option&#45;&gt;vector -->
<g id="edge39" class="edge">
<title>option&#45;&gt;vector</title>
<path fill="none" stroke="black" d="M285.83,-74.83C300,-64.71 319.3,-50.93 335.17,-39.59"/>
<polygon fill="black" stroke="black" points="337.2,-42.45 343.3,-33.79 333.13,-36.75 337.2,-42.45"/>
</g>
<!-- system_addresses&#45;&gt;signer -->
<g id="edge40" class="edge">
<title>system_addresses&#45;&gt;signer</title>
<path fill="none" stroke="black" d="M1230.64,-291.45C1093.32,-252.16 696.69,-138.69 569.65,-102.34"/>
<polygon fill="black" stroke="black" points="570.93,-99.07 560.35,-99.68 569.01,-105.8 570.93,-99.07"/>
</g>
<!-- system_addresses&#45;&gt;error -->
<g id="edge41" class="edge">
<title>system_addresses&#45;&gt;error</title>
<path fill="none" stroke="black" d="M1283.92,-287.71C1293.41,-256.71 1308.53,-190.6 1283,-144 1272.77,-125.32 1252.84,-112.28 1235.08,-103.8"/>
<polygon fill="black" stroke="black" points="1236.91,-100.78 1226.35,-99.94 1234.08,-107.18 1236.91,-100.78"/>
</g>
<!-- event&#45;&gt;bcs -->
<g id="edge42" class="edge">
<title>event&#45;&gt;bcs</title>
<path fill="none" stroke="black" d="M1932.45,-359.67C1934.29,-341.02 1934.89,-310.94 1924,-288 1913.96,-266.84 1866.73,-228.63 1847,-216 1817.19,-196.91 1779.35,-182.42 1752.2,-173.46"/>
<polygon fill="black" stroke="black" points="1753.3,-170.14 1742.71,-170.42 1751.17,-176.8 1753.3,-170.14"/>
</g>
<!-- guid -->
<g id="node22" class="node">
<title>guid</title>
<ellipse fill="none" stroke="black" cx="1888" cy="-306" rx="27.3" ry="18"/>
<text text-anchor="middle" x="1888" y="-300.95" font-family="Times,serif" font-size="14.00">guid</text>
</g>
<!-- event&#45;&gt;guid -->
<g id="edge43" class="edge">
<title>event&#45;&gt;guid</title>
<path fill="none" stroke="black" d="M1920.26,-360.76C1915.28,-352.46 1909.09,-342.15 1903.48,-332.79"/>
<polygon fill="black" stroke="black" points="1906.61,-331.22 1898.47,-324.45 1900.61,-334.82 1906.61,-331.22"/>
</g>
<!-- account&#45;&gt;vector -->
<g id="edge44" class="edge">
<title>account&#45;&gt;vector</title>
<path fill="none" stroke="black" d="M1636.51,-447.69C1753.08,-443.46 2089.68,-428.51 2126,-396 2156.14,-369.02 2145,-347.45 2145,-307 2145,-307 2145,-307 2145,-161 2145,-71.17 686.41,-27.63 409.19,-20.17"/>
<polygon fill="black" stroke="black" points="409.59,-16.68 399.5,-19.91 409.4,-23.68 409.59,-16.68"/>
</g>
<!-- account&#45;&gt;signer -->
<g id="edge46" class="edge">
<title>account&#45;&gt;signer</title>
<path fill="none" stroke="black" d="M1557.25,-448.24C1377.49,-444.65 647.71,-428.12 612,-396 596.94,-382.45 588.61,-235.47 583,-216 572.89,-180.88 555.58,-142.45 543.51,-117.6"/>
<polygon fill="black" stroke="black" points="546.76,-116.29 539.2,-108.87 540.49,-119.39 546.76,-116.29"/>
</g>
<!-- account&#45;&gt;type_info -->
<g id="edge49" class="edge">
<title>account&#45;&gt;type_info</title>
<path fill="none" stroke="black" d="M1560.9,-442.19C1528.92,-434.82 1482.16,-420.68 1448,-396 1398.71,-360.38 1412.75,-324.35 1364,-288 1338.38,-268.9 1304.99,-255.75 1277.71,-247.33"/>
<polygon fill="black" stroke="black" points="1278.85,-244.02 1268.27,-244.55 1276.87,-250.73 1278.85,-244.02"/>
</g>
<!-- account&#45;&gt;error -->
<g id="edge47" class="edge">
<title>account&#45;&gt;error</title>
<path fill="none" stroke="black" d="M1635.89,-445.98C1726.49,-438.6 1945.79,-418.59 1970,-396 1999.57,-368.41 1989,-347.45 1989,-307 1989,-307 1989,-307 1989,-233 1989,-130.4 1875.56,-168.76 1776,-144 1579.74,-95.19 1335.81,-90.37 1240.66,-90.54"/>
<polygon fill="black" stroke="black" points="1240.79,-87.04 1230.8,-90.58 1240.81,-94.04 1240.79,-87.04"/>
</g>
<!-- account&#45;&gt;bcs -->
<g id="edge48" class="edge">
<title>account&#45;&gt;bcs</title>
<path fill="none" stroke="black" d="M1626.39,-437.44C1631.56,-435.54 1636.92,-433.65 1642,-432 1699.84,-413.23 1737.09,-444.33 1774,-396 1822.39,-332.64 1766.52,-233.73 1735.27,-187.88"/>
<polygon fill="black" stroke="black" points="1738.31,-186.12 1729.71,-179.92 1732.57,-190.13 1738.31,-186.12"/>
</g>
<!-- account&#45;&gt;option -->
<g id="edge45" class="edge">
<title>account&#45;&gt;option</title>
<path fill="none" stroke="black" d="M1557.19,-448.31C1371.91,-444.9 601.49,-428.82 563,-396 525.66,-364.16 570.07,-326.79 540,-288 531.75,-277.36 333.02,-189 323,-180 303.73,-162.71 288.39,-137.44 278.5,-118.24"/>
<polygon fill="black" stroke="black" points="281.68,-116.79 274.11,-109.38 275.41,-119.89 281.68,-116.79"/>
</g>
<!-- account&#45;&gt;system_addresses -->
<g id="edge51" class="edge">
<title>account&#45;&gt;system_addresses</title>
<path fill="none" stroke="black" d="M1560.08,-442.89C1522.05,-435.57 1461.89,-421.02 1415,-396 1393.01,-384.27 1392.5,-374.18 1372,-360 1355.41,-348.53 1336.15,-337.33 1319.4,-328.21"/>
<polygon fill="black" stroke="black" points="1321.14,-325.17 1310.68,-323.52 1317.83,-331.34 1321.14,-325.17"/>
</g>
<!-- account&#45;&gt;event -->
<g id="edge57" class="edge">
<title>account&#45;&gt;event</title>
<path fill="none" stroke="black" d="M1634.77,-444.25C1690.27,-436.78 1796.84,-420.55 1885,-396 1888.17,-395.12 1891.43,-394.1 1894.67,-393.02"/>
<polygon fill="black" stroke="black" points="1895.84,-396.32 1904.08,-389.67 1893.49,-389.73 1895.84,-396.32"/>
</g>
<!-- account&#45;&gt;guid -->
<g id="edge55" class="edge">
<title>account&#45;&gt;guid</title>
<path fill="none" stroke="black" d="M1635.13,-445.11C1696.76,-438.15 1814.67,-421.82 1847,-396 1865.89,-380.91 1876.44,-355.15 1882.09,-335.21"/>
<polygon fill="black" stroke="black" points="1885.43,-336.29 1884.5,-325.74 1878.64,-334.57 1885.43,-336.29"/>
</g>
<!-- table -->
<g id="node23" class="node">
<title>table</title>
<ellipse fill="none" stroke="black" cx="912" cy="-306" rx="28.83" ry="18"/>
<text text-anchor="middle" x="912" y="-300.95" font-family="Times,serif" font-size="14.00">table</text>
</g>
<!-- account&#45;&gt;table -->
<g id="edge50" class="edge">
<title>account&#45;&gt;table</title>
<path fill="none" stroke="black" d="M1559.31,-443.99C1497.97,-435.61 1372.85,-417.51 1268,-396 1150.25,-371.84 1012.7,-334.95 948.49,-317.22"/>
<polygon fill="black" stroke="black" points="949.76,-313.94 939.19,-314.64 947.9,-320.69 949.76,-313.94"/>
</g>
<!-- hash -->
<g id="node24" class="node">
<title>hash</title>
<ellipse fill="none" stroke="black" cx="1657" cy="-234" rx="27.81" ry="18"/>
<text text-anchor="middle" x="1657" y="-228.95" font-family="Times,serif" font-size="14.00">hash</text>
</g>
<!-- account&#45;&gt;hash -->
<g id="edge52" class="edge">
<title>account&#45;&gt;hash</title>
<path fill="none" stroke="black" d="M1626.45,-437.62C1631.62,-435.7 1636.95,-433.76 1642,-432 1691.78,-414.68 1723.9,-438.55 1755,-396 1790.48,-347.45 1724.53,-285.64 1684.48,-254.62"/>
<polygon fill="black" stroke="black" points="1686.71,-251.92 1676.62,-248.69 1682.49,-257.51 1686.71,-251.92"/>
</g>
<!-- ed25519 -->
<g id="node25" class="node">
<title>ed25519</title>
<ellipse fill="none" stroke="black" cx="1530" cy="-306" rx="42.65" ry="18"/>
<text text-anchor="middle" x="1530" y="-300.95" font-family="Times,serif" font-size="14.00">ed25519</text>
</g>
<!-- account&#45;&gt;ed25519 -->
<g id="edge53" class="edge">
<title>account&#45;&gt;ed25519</title>
<path fill="none" stroke="black" d="M1636.05,-446.14C1669.31,-441.4 1715.22,-428.9 1738,-396 1747.11,-382.85 1747.82,-372.63 1738,-360 1719.05,-335.62 1637.48,-320.6 1582.3,-313.03"/>
<polygon fill="black" stroke="black" points="1582.83,-309.57 1572.45,-311.73 1581.91,-316.51 1582.83,-309.57"/>
</g>
<!-- multi_ed25519 -->
<g id="node26" class="node">
<title>multi_ed25519</title>
<ellipse fill="none" stroke="black" cx="1524" cy="-378" rx="67.22" ry="18"/>
<text text-anchor="middle" x="1524" y="-372.95" font-family="Times,serif" font-size="14.00">multi_ed25519</text>
</g>
<!-- account&#45;&gt;multi_ed25519 -->
<g id="edge54" class="edge">
<title>account&#45;&gt;multi_ed25519</title>
<path fill="none" stroke="black" d="M1580.8,-433.46C1571.68,-424.72 1560.07,-413.59 1549.73,-403.68"/>
<polygon fill="black" stroke="black" points="1552.16,-401.16 1542.52,-396.76 1547.32,-406.21 1552.16,-401.16"/>
</g>
<!-- from_bcs -->
<g id="node27" class="node">
<title>from_bcs</title>
<ellipse fill="none" stroke="black" cx="528" cy="-234" rx="46.23" ry="18"/>
<text text-anchor="middle" x="528" y="-228.95" font-family="Times,serif" font-size="14.00">from_bcs</text>
</g>
<!-- account&#45;&gt;from_bcs -->
<g id="edge56" class="edge">
<title>account&#45;&gt;from_bcs</title>
<path fill="none" stroke="black" d="M1557.08,-448.4C1373.08,-445.43 614.24,-431.11 579,-396 544.95,-362.07 590.82,-332.65 573,-288 568.75,-277.35 561.46,-267.31 553.96,-258.88"/>
<polygon fill="black" stroke="black" points="556.68,-256.66 547.25,-251.83 551.61,-261.49 556.68,-256.66"/>
</g>
<!-- create_signer -->
<g id="node28" class="node">
<title>create_signer</title>
<ellipse fill="none" stroke="black" cx="1669" cy="-378" rx="60.05" ry="18"/>
<text text-anchor="middle" x="1669" y="-372.95" font-family="Times,serif" font-size="14.00">create_signer</text>
</g>
<!-- account&#45;&gt;create_signer -->
<g id="edge58" class="edge">
<title>account&#45;&gt;create_signer</title>
<path fill="none" stroke="black" d="M1613.34,-433.12C1622.35,-424.36 1633.73,-413.29 1643.85,-403.45"/>
<polygon fill="black" stroke="black" points="1646.16,-406.09 1650.89,-396.61 1641.28,-401.07 1646.16,-406.09"/>
</g>
<!-- chain_id -->
<g id="node29" class="node">
<title>chain_id</title>
<ellipse fill="none" stroke="black" cx="1320" cy="-378" rx="42.65" ry="18"/>
<text text-anchor="middle" x="1320" y="-372.95" font-family="Times,serif" font-size="14.00">chain_id</text>
</g>
<!-- account&#45;&gt;chain_id -->
<g id="edge59" class="edge">
<title>account&#45;&gt;chain_id</title>
<path fill="none" stroke="black" d="M1562.18,-441.22C1518.68,-431.36 1442.06,-413.52 1377,-396 1372.97,-394.92 1368.8,-393.75 1364.63,-392.56"/>
<polygon fill="black" stroke="black" points="1365.71,-389.23 1355.13,-389.79 1363.75,-395.95 1365.71,-389.23"/>
</g>
<!-- aggregator_factory&#45;&gt;error -->
<g id="edge60" class="edge">
<title>aggregator_factory&#45;&gt;error</title>
<path fill="none" stroke="black" d="M925.69,-359.98C933.42,-349.89 942.92,-336.64 950,-324 992.45,-248.24 961.49,-202.13 1026,-144 1063.2,-110.47 1121.09,-98.15 1159.76,-93.62"/>
<polygon fill="black" stroke="black" points="1160,-97.11 1169.59,-92.6 1159.28,-90.15 1160,-97.11"/>
</g>
<!-- aggregator_factory&#45;&gt;system_addresses -->
<g id="edge62" class="edge">
<title>aggregator_factory&#45;&gt;system_addresses</title>
<path fill="none" stroke="black" d="M972.03,-365.52C1036.96,-353.1 1140.33,-333.33 1208.68,-320.26"/>
<polygon fill="black" stroke="black" points="1209.1,-323.74 1218.27,-318.42 1207.79,-316.86 1209.1,-323.74"/>
</g>
<!-- aggregator_factory&#45;&gt;aggregator -->
<g id="edge63" class="edge">
<title>aggregator_factory&#45;&gt;aggregator</title>
<path fill="none" stroke="black" d="M847.94,-366.6C763.9,-352.95 617.73,-329.21 537.58,-316.19"/>
<polygon fill="black" stroke="black" points="538.18,-312.74 527.75,-314.59 537.06,-319.65 538.18,-312.74"/>
</g>
<!-- aggregator_factory&#45;&gt;table -->
<g id="edge61" class="edge">
<title>aggregator_factory&#45;&gt;table</title>
<path fill="none" stroke="black" d="M912,-359.7C912,-352.41 912,-343.73 912,-335.54"/>
<polygon fill="black" stroke="black" points="915.5,-335.62 912,-325.62 908.5,-335.62 915.5,-335.62"/>
</g>
<!-- optional_aggregator&#45;&gt;error -->
<g id="edge65" class="edge">
<title>optional_aggregator&#45;&gt;error</title>
<path fill="none" stroke="black" d="M801.52,-431.62C804.64,-413.19 810.94,-383.54 822,-360 847.01,-306.76 979.9,-151.7 992,-144 1043.98,-110.91 1115.58,-98.46 1159.77,-93.78"/>
<polygon fill="black" stroke="black" points="1160.08,-97.27 1169.7,-92.83 1159.41,-90.3 1160.08,-97.27"/>
</g>
<!-- optional_aggregator&#45;&gt;option -->
<g id="edge64" class="edge">
<title>optional_aggregator&#45;&gt;option</title>
<path fill="none" stroke="black" d="M713.87,-448.15C647.35,-444.42 554.22,-432.29 481,-396 355.64,-333.87 307.28,-308.52 252,-180 243.59,-160.46 248.07,-136.56 254.11,-118.45"/>
<polygon fill="black" stroke="black" points="257.36,-119.77 257.56,-109.17 250.8,-117.33 257.36,-119.77"/>
</g>
<!-- optional_aggregator&#45;&gt;aggregator -->
<g id="edge66" class="edge">
<title>optional_aggregator&#45;&gt;aggregator</title>
<path fill="none" stroke="black" d="M717.84,-444.25C641.15,-438.08 533.43,-424.51 503,-396 486.74,-380.77 481.69,-355.59 480.44,-335.9"/>
<polygon fill="black" stroke="black" points="483.94,-335.88 480.14,-325.99 476.95,-336.09 483.94,-335.88"/>
</g>
<!-- optional_aggregator&#45;&gt;aggregator_factory -->
<g id="edge67" class="edge">
<title>optional_aggregator&#45;&gt;aggregator_factory</title>
<path fill="none" stroke="black" d="M825.49,-432.59C840.65,-423.2 859.87,-411.29 876.34,-401.09"/>
<polygon fill="black" stroke="black" points="877.73,-404.35 884.39,-396.11 874.04,-398.4 877.73,-404.35"/>
</g>
<!-- table_with_length&#45;&gt;error -->
<g id="edge68" class="edge">
<title>table_with_length&#45;&gt;error</title>
<path fill="none" stroke="black" d="M701.03,-359.7C709.76,-315.5 739.35,-198.13 815,-144 869.62,-104.91 1072.15,-94.57 1159.49,-91.9"/>
<polygon fill="black" stroke="black" points="1159.37,-95.4 1169.26,-91.62 1159.17,-88.41 1159.37,-95.4"/>
</g>
<!-- table_with_length&#45;&gt;table -->
<g id="edge69" class="edge">
<title>table_with_length&#45;&gt;table</title>
<path fill="none" stroke="black" d="M741.56,-362.75C781.21,-349.78 839.05,-330.86 876.1,-318.74"/>
<polygon fill="black" stroke="black" points="877.04,-322.12 885.45,-315.68 874.86,-315.47 877.04,-322.12"/>
</g>
<!-- timestamp&#45;&gt;error -->
<g id="edge70" class="edge">
<title>timestamp&#45;&gt;error</title>
<path fill="none" stroke="black" d="M2068.31,-359.74C2070.59,-315.64 2069.8,-198.49 2003,-144 1943.52,-95.47 1394.35,-91.21 1240.11,-90.97"/>
<polygon fill="black" stroke="black" points="1240.4,-87.47 1230.39,-90.96 1240.39,-94.47 1240.4,-87.47"/>
</g>
<!-- timestamp&#45;&gt;system_addresses -->
<g id="edge71" class="edge">
<title>timestamp&#45;&gt;system_addresses</title>
<path fill="none" stroke="black" d="M2023.68,-368.45C2006.96,-365.4 1987.65,-362.19 1970,-360 1752.41,-333.04 1696.57,-341.28 1478,-324 1439.12,-320.93 1396.01,-317.29 1359.8,-314.17"/>
<polygon fill="black" stroke="black" points="1360.56,-310.72 1350.3,-313.35 1359.96,-317.7 1360.56,-310.72"/>
</g>
<!-- ed25519&#45;&gt;type_info -->
<g id="edge75" class="edge">
<title>ed25519&#45;&gt;type_info</title>
<path fill="none" stroke="black" d="M1493.27,-296.49C1439.37,-283.99 1338.68,-260.65 1278.05,-246.6"/>
<polygon fill="black" stroke="black" points="1278.86,-243.2 1268.33,-244.35 1277.28,-250.02 1278.86,-243.2"/>
</g>
<!-- ed25519&#45;&gt;error -->
<g id="edge73" class="edge">
<title>ed25519&#45;&gt;error</title>
<path fill="none" stroke="black" d="M1510.19,-289.62C1471.36,-259.8 1382.08,-192.77 1302,-144 1279.46,-130.27 1252.99,-116.59 1232.67,-106.56"/>
<polygon fill="black" stroke="black" points="1234.24,-103.44 1223.72,-102.19 1231.17,-109.73 1234.24,-103.44"/>
</g>
<!-- ed25519&#45;&gt;bcs -->
<g id="edge74" class="edge">
<title>ed25519&#45;&gt;bcs</title>
<path fill="none" stroke="black" d="M1537.02,-288.02C1545.96,-268.27 1563.17,-235.84 1587,-216 1614.25,-193.32 1652.5,-179.3 1680.46,-171.43"/>
<polygon fill="black" stroke="black" points="1681.15,-174.86 1689.91,-168.9 1679.34,-168.1 1681.15,-174.86"/>
</g>
<!-- ed25519&#45;&gt;option -->
<g id="edge72" class="edge">
<title>ed25519&#45;&gt;option</title>
<path fill="none" stroke="black" d="M1499.95,-292.91C1453.81,-274.64 1362.52,-239.63 1283,-216 1149.49,-176.33 1115.66,-165.17 978,-144 762.17,-110.81 705.75,-124.34 488,-108 426.96,-103.42 356.5,-98 311.62,-94.53"/>
<polygon fill="black" stroke="black" points="311.97,-91.05 301.73,-93.77 311.43,-98.03 311.97,-91.05"/>
</g>
<!-- ed25519&#45;&gt;hash -->
<g id="edge76" class="edge">
<title>ed25519&#45;&gt;hash</title>
<path fill="none" stroke="black" d="M1555.09,-291.17C1575.47,-279.94 1604.3,-264.05 1626.09,-252.04"/>
<polygon fill="black" stroke="black" points="1627.77,-255.11 1634.84,-247.22 1624.39,-248.98 1627.77,-255.11"/>
</g>
<!-- multi_ed25519&#45;&gt;error -->
<g id="edge78" class="edge">
<title>multi_ed25519&#45;&gt;error</title>
<path fill="none" stroke="black" d="M1565.57,-363.55C1588.96,-354.68 1617.82,-341.46 1640,-324 1714.21,-265.56 1816.53,-213.91 1753,-144 1718.63,-106.18 1362.13,-94.66 1240.45,-91.81"/>
<polygon fill="black" stroke="black" points="1240.68,-88.31 1230.6,-91.59 1240.52,-95.31 1240.68,-88.31"/>
</g>
<!-- multi_ed25519&#45;&gt;features -->
<g id="edge79" class="edge">
<title>multi_ed25519&#45;&gt;features</title>
<path fill="none" stroke="black" d="M1509.27,-360.1C1492.4,-341.28 1463.41,-310.55 1435,-288 1380.7,-244.9 1310.68,-204.32 1269.24,-181.66"/>
<polygon fill="black" stroke="black" points="1271.13,-178.71 1260.67,-177.01 1267.79,-184.86 1271.13,-178.71"/>
</g>
<!-- multi_ed25519&#45;&gt;bcs -->
<g id="edge80" class="edge">
<title>multi_ed25519&#45;&gt;bcs</title>
<path fill="none" stroke="black" d="M1546.63,-360.74C1558.55,-351.19 1572.59,-338.22 1582,-324 1610.07,-281.56 1587.04,-254.77 1620,-216 1636.44,-196.67 1661.77,-183.16 1682.43,-174.63"/>
<polygon fill="black" stroke="black" points="1683.57,-177.94 1691.63,-171.05 1681.04,-171.41 1683.57,-177.94"/>
</g>
<!-- multi_ed25519&#45;&gt;option -->
<g id="edge77" class="edge">
<title>multi_ed25519&#45;&gt;option</title>
<path fill="none" stroke="black" d="M1497.82,-361.05C1459.86,-338.15 1391.09,-297.66 1364,-288 1351.17,-283.42 511.75,-134.54 309.49,-98.7"/>
<polygon fill="black" stroke="black" points="310.39,-95.31 299.93,-97.01 309.17,-102.2 310.39,-95.31"/>
</g>
<!-- multi_ed25519&#45;&gt;hash -->
<g id="edge81" class="edge">
<title>multi_ed25519&#45;&gt;hash</title>
<path fill="none" stroke="black" d="M1559.86,-362.37C1578.2,-353.46 1599.8,-340.57 1615,-324 1631.05,-306.5 1642.05,-281.78 1648.75,-262.83"/>
<polygon fill="black" stroke="black" points="1651.99,-264.2 1651.82,-253.6 1645.34,-261.99 1651.99,-264.2"/>
</g>
<!-- multi_ed25519&#45;&gt;ed25519 -->
<g id="edge82" class="edge">
<title>multi_ed25519&#45;&gt;ed25519</title>
<path fill="none" stroke="black" d="M1525.48,-359.7C1526.11,-352.41 1526.85,-343.73 1527.55,-335.54"/>
<polygon fill="black" stroke="black" points="1531.04,-335.87 1528.4,-325.61 1524.06,-335.28 1531.04,-335.87"/>
</g>
<!-- from_bcs&#45;&gt;string -->
<g id="edge83" class="edge">
<title>from_bcs&#45;&gt;string</title>
<path fill="none" stroke="black" d="M497.54,-220C469.77,-208.15 428.76,-190.64 399.52,-178.16"/>
<polygon fill="black" stroke="black" points="400.9,-174.94 390.33,-174.24 398.15,-181.38 400.9,-174.94"/>
</g>
<!-- chain_id&#45;&gt;system_addresses -->
<g id="edge84" class="edge">
<title>chain_id&#45;&gt;system_addresses</title>
<path fill="none" stroke="black" d="M1309.83,-360.05C1305.16,-352.26 1299.49,-342.82 1294.25,-334.08"/>
<polygon fill="black" stroke="black" points="1297.29,-332.35 1289.14,-325.57 1291.29,-335.95 1297.29,-332.35"/>
</g>
</g>
</svg>
