<?xml version="1.0" encoding="UTF-8" standalone="no"?>
<!DOCTYPE svg PUBLIC "-//W3C//DTD SVG 1.1//EN"
 "http://www.w3.org/Graphics/SVG/1.1/DTD/svg11.dtd">
<!-- Generated by graphviz version 8.1.0 (20230707.0739)
 -->
<!-- Title: G Pages: 1 -->
<svg width="2172pt" height="692pt"
 viewBox="0.00 0.00 2172.00 692.00" xmlns="http://www.w3.org/2000/svg" xmlns:xlink="http://www.w3.org/1999/xlink">
<g id="graph0" class="graph" transform="scale(1 1) rotate(0) translate(4 688)">
<title>G</title>
<polygon fill="white" stroke="none" points="-4,4 -4,-688 2168,-688 2168,4 -4,4"/>
<!-- incentives -->
<g id="node1" class="node">
<title>incentives</title>
<ellipse fill="none" stroke="black" cx="1128" cy="-666" rx="48.28" ry="18"/>
<text text-anchor="middle" x="1128" y="-660.95" font-family="Times,serif" font-size="14.00">incentives</text>
</g>
<!-- vector -->
<g id="node2" class="node">
<title>vector</title>
<ellipse fill="none" stroke="black" cx="1490" cy="-18" rx="33.95" ry="18"/>
<text text-anchor="middle" x="1490" y="-12.95" font-family="Times,serif" font-size="14.00">vector</text>
</g>
<!-- incentives&#45;&gt;vector -->
<g id="edge1" class="edge">
<title>incentives&#45;&gt;vector</title>
<path fill="none" stroke="black" d="M1176.23,-663.54C1380.52,-656.73 2164,-624.04 2164,-523 2164,-523 2164,-523 2164,-161 2164,-32.09 1685.93,-19.59 1535.05,-18.86"/>
<polygon fill="black" stroke="black" points="1535.36,-15.36 1525.35,-18.83 1535.34,-22.36 1535.36,-15.36"/>
</g>
<!-- signer -->
<g id="node3" class="node">
<title>signer</title>
<ellipse fill="none" stroke="black" cx="268" cy="-90" rx="33.44" ry="18"/>
<text text-anchor="middle" x="268" y="-84.95" font-family="Times,serif" font-size="14.00">signer</text>
</g>
<!-- incentives&#45;&gt;signer -->
<g id="edge2" class="edge">
<title>incentives&#45;&gt;signer</title>
<path fill="none" stroke="black" d="M1079.53,-664.08C863.62,-659.35 0,-633.53 0,-523 0,-523 0,-523 0,-305 0,-222.59 27.51,-195.31 92,-144 130.18,-113.62 185.54,-100.62 223.94,-95.08"/>
<polygon fill="black" stroke="black" points="224.32,-98.43 233.78,-93.65 223.41,-91.49 224.32,-98.43"/>
</g>
<!-- type_info -->
<g id="node4" class="node">
<title>type_info</title>
<ellipse fill="none" stroke="black" cx="1230" cy="-234" rx="46.23" ry="18"/>
<text text-anchor="middle" x="1230" y="-228.95" font-family="Times,serif" font-size="14.00">type_info</text>
</g>
<!-- incentives&#45;&gt;type_info -->
<g id="edge3" class="edge">
<title>incentives&#45;&gt;type_info</title>
<path fill="none" stroke="black" d="M1143.16,-648.78C1163.08,-626.32 1197.25,-583.59 1212,-540 1237.7,-464.08 1197.44,-435.97 1223,-360 1229.13,-341.77 1241.43,-342.4 1247,-324 1253.15,-303.68 1248.09,-280.04 1241.93,-262.24"/>
<polygon fill="black" stroke="black" points="1244.86,-261.1 1238.04,-252.99 1238.32,-263.58 1244.86,-261.1"/>
</g>
<!-- coin -->
<g id="node5" class="node">
<title>coin</title>
<ellipse fill="none" stroke="black" cx="568" cy="-522" rx="27" ry="18"/>
<text text-anchor="middle" x="568" y="-516.95" font-family="Times,serif" font-size="14.00">coin</text>
</g>
<!-- incentives&#45;&gt;coin -->
<g id="edge4" class="edge">
<title>incentives&#45;&gt;coin</title>
<path fill="none" stroke="black" d="M1089.07,-655.13C985.31,-628.82 703.27,-557.3 603.53,-532.01"/>
<polygon fill="black" stroke="black" points="604.65,-528.43 594.1,-529.36 602.93,-535.22 604.65,-528.43"/>
</g>
<!-- aptos_coin -->
<g id="node6" class="node">
<title>aptos_coin</title>
<ellipse fill="none" stroke="black" cx="418" cy="-594" rx="50.84" ry="18"/>
<text text-anchor="middle" x="418" y="-588.95" font-family="Times,serif" font-size="14.00">aptos_coin</text>
</g>
<!-- incentives&#45;&gt;aptos_coin -->
<g id="edge5" class="edge">
<title>incentives&#45;&gt;aptos_coin</title>
<path fill="none" stroke="black" d="M1081.69,-660.43C957.28,-648.17 615.89,-614.51 477.47,-600.86"/>
<polygon fill="black" stroke="black" points="477.97,-597.3 467.68,-599.8 477.29,-604.26 477.97,-597.3"/>
</g>
<!-- tablist -->
<g id="node7" class="node">
<title>tablist</title>
<ellipse fill="none" stroke="black" cx="1841" cy="-450" rx="33.44" ry="18"/>
<text text-anchor="middle" x="1841" y="-444.95" font-family="Times,serif" font-size="14.00">tablist</text>
</g>
<!-- incentives&#45;&gt;tablist -->
<g id="edge6" class="edge">
<title>incentives&#45;&gt;tablist</title>
<path fill="none" stroke="black" d="M1176.55,-664.27C1321.88,-661.66 1746.37,-650.76 1794,-612 1833.54,-579.83 1840.98,-516.37 1841.73,-479.46"/>
<polygon fill="black" stroke="black" points="1845.24,-479.5 1841.77,-469.48 1838.24,-479.47 1845.24,-479.5"/>
</g>
<!-- resource_account -->
<g id="node8" class="node">
<title>resource_account</title>
<ellipse fill="none" stroke="black" cx="1128" cy="-522" rx="75.41" ry="18"/>
<text text-anchor="middle" x="1128" y="-516.95" font-family="Times,serif" font-size="14.00">resource_account</text>
</g>
<!-- incentives&#45;&gt;resource_account -->
<g id="edge7" class="edge">
<title>incentives&#45;&gt;resource_account</title>
<path fill="none" stroke="black" d="M1128,-647.59C1128,-623.5 1128,-579.75 1128,-551.03"/>
<polygon fill="black" stroke="black" points="1131.5,-551.11 1128,-541.11 1124.5,-551.11 1131.5,-551.11"/>
</g>
<!-- string -->
<g id="node9" class="node">
<title>string</title>
<ellipse fill="none" stroke="black" cx="1490" cy="-162" rx="31.9" ry="18"/>
<text text-anchor="middle" x="1490" y="-156.95" font-family="Times,serif" font-size="14.00">string</text>
</g>
<!-- type_info&#45;&gt;string -->
<g id="edge8" class="edge">
<title>type_info&#45;&gt;string</title>
<path fill="none" stroke="black" d="M1267.25,-222.97C1316.18,-209.8 1401.67,-186.78 1451.3,-173.42"/>
<polygon fill="black" stroke="black" points="1451.88,-176.62 1460.62,-170.64 1450.06,-169.86 1451.88,-176.62"/>
</g>
<!-- error -->
<g id="node10" class="node">
<title>error</title>
<ellipse fill="none" stroke="black" cx="966" cy="-90" rx="28.83" ry="18"/>
<text text-anchor="middle" x="966" y="-84.95" font-family="Times,serif" font-size="14.00">error</text>
</g>
<!-- type_info&#45;&gt;error -->
<g id="edge9" class="edge">
<title>type_info&#45;&gt;error</title>
<path fill="none" stroke="black" d="M1214.01,-216.79C1193.88,-197.18 1157.52,-164.29 1121,-144 1083.25,-123.03 1035.76,-108.29 1003.35,-99.77"/>
<polygon fill="black" stroke="black" points="1004.54,-96.2 993.98,-97.12 1002.8,-102.98 1004.54,-96.2"/>
</g>
<!-- features -->
<g id="node11" class="node">
<title>features</title>
<ellipse fill="none" stroke="black" cx="1072" cy="-162" rx="40.09" ry="18"/>
<text text-anchor="middle" x="1072" y="-156.95" font-family="Times,serif" font-size="14.00">features</text>
</g>
<!-- type_info&#45;&gt;features -->
<g id="edge10" class="edge">
<title>type_info&#45;&gt;features</title>
<path fill="none" stroke="black" d="M1200.28,-219.83C1174.57,-208.44 1137.25,-191.91 1109.49,-179.61"/>
<polygon fill="black" stroke="black" points="1111.29,-176.14 1100.73,-175.29 1108.46,-182.54 1111.29,-176.14"/>
</g>
<!-- bcs -->
<g id="node12" class="node">
<title>bcs</title>
<ellipse fill="none" stroke="black" cx="1811" cy="-162" rx="27" ry="18"/>
<text text-anchor="middle" x="1811" y="-156.95" font-family="Times,serif" font-size="14.00">bcs</text>
</g>
<!-- type_info&#45;&gt;bcs -->
<g id="edge11" class="edge">
<title>type_info&#45;&gt;bcs</title>
<path fill="none" stroke="black" d="M1270.64,-224.91C1286.88,-221.85 1305.78,-218.51 1323,-216 1490.13,-191.68 1690.95,-173.25 1773.14,-166.17"/>
<polygon fill="black" stroke="black" points="1773.27,-169.58 1782.93,-165.24 1772.67,-162.61 1773.27,-169.58"/>
</g>
<!-- coin&#45;&gt;signer -->
<g id="edge14" class="edge">
<title>coin&#45;&gt;signer</title>
<path fill="none" stroke="black" d="M540.78,-520.36C489.69,-518.18 377,-508.73 293,-468 238.56,-441.6 190,-439.5 190,-379 190,-379 190,-379 190,-233 190,-186.3 222.81,-140.45 245.87,-113.98"/>
<polygon fill="black" stroke="black" points="247.88,-116.87 251.96,-107.1 242.67,-112.19 247.88,-116.87"/>
</g>
<!-- coin&#45;&gt;type_info -->
<g id="edge16" class="edge">
<title>coin&#45;&gt;type_info</title>
<path fill="none" stroke="black" d="M591.77,-512.74C644.28,-494.19 773.69,-446.88 877,-396 962.07,-354.11 974.31,-326.43 1061,-288 1100.23,-270.61 1146.92,-256.43 1181.27,-247.12"/>
<polygon fill="black" stroke="black" points="1181.75,-250.35 1190.51,-244.4 1179.95,-243.59 1181.75,-250.35"/>
</g>
<!-- coin&#45;&gt;string -->
<g id="edge13" class="edge">
<title>coin&#45;&gt;string</title>
<path fill="none" stroke="black" d="M595.19,-519.78C749.09,-512.6 1506.42,-473.45 1571,-396 1581.25,-383.71 1578.72,-374.01 1571,-360 1556.54,-333.76 1530.36,-349.1 1514,-324 1487.52,-283.38 1485.75,-224.87 1487.47,-190.71"/>
<polygon fill="black" stroke="black" points="1491,-191.33 1488.15,-181.12 1484.02,-190.88 1491,-191.33"/>
</g>
<!-- coin&#45;&gt;error -->
<g id="edge15" class="edge">
<title>coin&#45;&gt;error</title>
<path fill="none" stroke="black" d="M574.82,-504.43C587.77,-474.04 617.98,-408.08 655,-360 740.55,-248.88 774.8,-230.72 885,-144 901.19,-131.26 920.44,-118.57 936.11,-108.81"/>
<polygon fill="black" stroke="black" points="937.67,-111.35 944.35,-103.13 934,-105.38 937.67,-111.35"/>
</g>
<!-- option -->
<g id="node13" class="node">
<title>option</title>
<ellipse fill="none" stroke="black" cx="1974" cy="-90" rx="34.46" ry="18"/>
<text text-anchor="middle" x="1974" y="-84.95" font-family="Times,serif" font-size="14.00">option</text>
</g>
<!-- coin&#45;&gt;option -->
<g id="edge12" class="edge">
<title>coin&#45;&gt;option</title>
<path fill="none" stroke="black" d="M595.23,-519.73C775.87,-511.18 1797.56,-460.17 1919,-396 1984.91,-361.17 1994.46,-325.8 2005,-252 2007.51,-234.4 2007.47,-156.82 2004,-144 2001.42,-134.46 1996.72,-124.83 1991.8,-116.44"/>
<polygon fill="black" stroke="black" points="1994.31,-114.85 1986.04,-108.24 1988.38,-118.57 1994.31,-114.85"/>
</g>
<!-- system_addresses -->
<g id="node14" class="node">
<title>system_addresses</title>
<ellipse fill="none" stroke="black" cx="489" cy="-306" rx="76.94" ry="18"/>
<text text-anchor="middle" x="489" y="-300.95" font-family="Times,serif" font-size="14.00">system_addresses</text>
</g>
<!-- coin&#45;&gt;system_addresses -->
<g id="edge17" class="edge">
<title>coin&#45;&gt;system_addresses</title>
<path fill="none" stroke="black" d="M540.55,-521.83C495.7,-521.71 406.27,-515.05 352,-468 325.93,-445.4 329.56,-429.87 323,-396 319.96,-380.29 313.56,-372.92 323,-360 342,-333.99 373.91,-320.45 404.7,-313.5"/>
<polygon fill="black" stroke="black" points="404.98,-316.81 414.08,-311.39 403.58,-309.95 404.98,-316.81"/>
</g>
<!-- event -->
<g id="node15" class="node">
<title>event</title>
<ellipse fill="none" stroke="black" cx="1031" cy="-378" rx="30.88" ry="18"/>
<text text-anchor="middle" x="1031" y="-372.95" font-family="Times,serif" font-size="14.00">event</text>
</g>
<!-- coin&#45;&gt;event -->
<g id="edge18" class="edge">
<title>coin&#45;&gt;event</title>
<path fill="none" stroke="black" d="M595.2,-519.56C671.53,-515.15 886.17,-500.15 948,-468 976.29,-453.29 1000.06,-425 1014.82,-404.25"/>
<polygon fill="black" stroke="black" points="1018.17,-406.55 1020.95,-396.32 1012.4,-402.59 1018.17,-406.55"/>
</g>
<!-- account -->
<g id="node16" class="node">
<title>account</title>
<ellipse fill="none" stroke="black" cx="1128" cy="-450" rx="39.58" ry="18"/>
<text text-anchor="middle" x="1128" y="-444.95" font-family="Times,serif" font-size="14.00">account</text>
</g>
<!-- coin&#45;&gt;account -->
<g id="edge19" class="edge">
<title>coin&#45;&gt;account</title>
<path fill="none" stroke="black" d="M594.93,-518.59C666.68,-512.02 868.32,-492.66 1035,-468 1050.29,-465.74 1066.91,-462.84 1081.81,-460.08"/>
<polygon fill="black" stroke="black" points="1082.14,-463.39 1091.32,-458.11 1080.85,-456.51 1082.14,-463.39"/>
</g>
<!-- aggregator -->
<g id="node17" class="node">
<title>aggregator</title>
<ellipse fill="none" stroke="black" cx="268" cy="-306" rx="50.33" ry="18"/>
<text text-anchor="middle" x="268" y="-300.95" font-family="Times,serif" font-size="14.00">aggregator</text>
</g>
<!-- coin&#45;&gt;aggregator -->
<g id="edge20" class="edge">
<title>coin&#45;&gt;aggregator</title>
<path fill="none" stroke="black" d="M541.54,-518.1C485.99,-511.56 359.6,-494.15 326,-468 284.67,-435.84 272.76,-371.64 269.35,-334.77"/>
<polygon fill="black" stroke="black" points="272.8,-334.97 268.54,-325.27 265.82,-335.51 272.8,-334.97"/>
</g>
<!-- aggregator_factory -->
<g id="node18" class="node">
<title>aggregator_factory</title>
<ellipse fill="none" stroke="black" cx="413" cy="-378" rx="81.04" ry="18"/>
<text text-anchor="middle" x="413" y="-372.95" font-family="Times,serif" font-size="14.00">aggregator_factory</text>
</g>
<!-- coin&#45;&gt;aggregator_factory -->
<g id="edge21" class="edge">
<title>coin&#45;&gt;aggregator_factory</title>
<path fill="none" stroke="black" d="M541.34,-518.18C490.56,-512.21 383.06,-496.43 361,-468 344.99,-447.38 364.12,-421.35 383.53,-402.78"/>
<polygon fill="black" stroke="black" points="385.43,-405.88 390.48,-396.56 380.73,-400.69 385.43,-405.88"/>
</g>
<!-- optional_aggregator -->
<g id="node19" class="node">
<title>optional_aggregator</title>
<ellipse fill="none" stroke="black" cx="455" cy="-450" rx="85.13" ry="18"/>
<text text-anchor="middle" x="455" y="-444.95" font-family="Times,serif" font-size="14.00">optional_aggregator</text>
</g>
<!-- coin&#45;&gt;optional_aggregator -->
<g id="edge22" class="edge">
<title>coin&#45;&gt;optional_aggregator</title>
<path fill="none" stroke="black" d="M548.57,-508.97C532.7,-499.14 509.85,-484.98 490.69,-473.11"/>
<polygon fill="black" stroke="black" points="492.7,-469.62 482.36,-467.33 489.01,-475.57 492.7,-469.62"/>
</g>
<!-- aptos_coin&#45;&gt;vector -->
<g id="edge23" class="edge">
<title>aptos_coin&#45;&gt;vector</title>
<path fill="none" stroke="black" d="M367.84,-590.45C286.25,-585.42 129.44,-571.82 85,-540 48.63,-513.96 38,-495.73 38,-451 38,-451 38,-451 38,-305 38,-171.94 97.67,-107.17 226,-72 345.28,-39.31 1233.09,-23.12 1444.78,-19.7"/>
<polygon fill="black" stroke="black" points="1444.83,-23.18 1454.77,-19.52 1444.71,-16.18 1444.83,-23.18"/>
</g>
<!-- aptos_coin&#45;&gt;signer -->
<g id="edge26" class="edge">
<title>aptos_coin&#45;&gt;signer</title>
<path fill="none" stroke="black" d="M368.87,-588.98C296.62,-582.24 166.14,-566.73 128,-540 90.49,-513.7 76,-496.81 76,-451 76,-451 76,-451 76,-233 76,-158.22 171.32,-118.32 227.63,-101.28"/>
<polygon fill="black" stroke="black" points="228.37,-104.42 237,-98.26 226.42,-97.69 228.37,-104.42"/>
</g>
<!-- aptos_coin&#45;&gt;coin -->
<g id="edge29" class="edge">
<title>aptos_coin&#45;&gt;coin</title>
<path fill="none" stroke="black" d="M447.99,-579C473.66,-567.03 510.47,-549.85 536.55,-537.68"/>
<polygon fill="black" stroke="black" points="537.73,-540.52 545.31,-533.12 534.77,-534.18 537.73,-540.52"/>
</g>
<!-- aptos_coin&#45;&gt;string -->
<g id="edge25" class="edge">
<title>aptos_coin&#45;&gt;string</title>
<path fill="none" stroke="black" d="M468.98,-593.47C677.26,-594.14 1458.71,-583.96 1588,-396 1636.01,-326.2 1555.88,-229.17 1513.57,-185.67"/>
<polygon fill="black" stroke="black" points="1516.43,-183.58 1506.9,-178.95 1511.46,-188.51 1516.43,-183.58"/>
</g>
<!-- aptos_coin&#45;&gt;error -->
<g id="edge27" class="edge">
<title>aptos_coin&#45;&gt;error</title>
<path fill="none" stroke="black" d="M368.9,-588.76C292.04,-579.13 152,-548.24 152,-451 152,-451 152,-451 152,-377 152,-222.65 446.49,-153.17 476,-144 637.13,-93.95 840.75,-89.56 925.81,-90.18"/>
<polygon fill="black" stroke="black" points="925.73,-93.69 935.77,-90.3 925.81,-86.69 925.73,-93.69"/>
</g>
<!-- aptos_coin&#45;&gt;option -->
<g id="edge24" class="edge">
<title>aptos_coin&#45;&gt;option</title>
<path fill="none" stroke="black" d="M469.08,-593.4C608.27,-593.78 1005.56,-590.02 1331,-540 1395.67,-530.06 1842.31,-422.79 1902,-396 1953.96,-372.68 1977.61,-372.17 2008,-324 2050.77,-256.22 2046.63,-219.24 2019,-144 2014.84,-132.67 2007.06,-122.1 1999.12,-113.43"/>
<polygon fill="black" stroke="black" points="2002.08,-111.42 1992.58,-106.73 1997.08,-116.32 2002.08,-111.42"/>
</g>
<!-- aptos_coin&#45;&gt;system_addresses -->
<g id="edge28" class="edge">
<title>aptos_coin&#45;&gt;system_addresses</title>
<path fill="none" stroke="black" d="M367.64,-590.91C295.06,-586.73 166.6,-574.53 138,-540 127.79,-527.68 131.13,-518.45 138,-504 190.29,-394.05 333.99,-342.51 420.45,-320.8"/>
<polygon fill="black" stroke="black" points="421.08,-324.01 429.96,-318.24 419.42,-317.21 421.08,-324.01"/>
</g>
<!-- tablist&#45;&gt;option -->
<g id="edge30" class="edge">
<title>tablist&#45;&gt;option</title>
<path fill="none" stroke="black" d="M1873.93,-446.44C1936.08,-440.97 2067.33,-426.08 2100,-396 2130.31,-368.09 2126,-348.21 2126,-307 2126,-307 2126,-307 2126,-233 2126,-192.03 2129.04,-174.78 2102,-144 2080.35,-119.35 2045.43,-105.93 2017.53,-98.76"/>
<polygon fill="black" stroke="black" points="2018.38,-95.12 2007.84,-96.22 2016.77,-101.94 2018.38,-95.12"/>
</g>
<!-- table_with_length -->
<g id="node20" class="node">
<title>table_with_length</title>
<ellipse fill="none" stroke="black" cx="1309" cy="-378" rx="77.45" ry="18"/>
<text text-anchor="middle" x="1309" y="-372.95" font-family="Times,serif" font-size="14.00">table_with_length</text>
</g>
<!-- tablist&#45;&gt;table_with_length -->
<g id="edge31" class="edge">
<title>tablist&#45;&gt;table_with_length</title>
<path fill="none" stroke="black" d="M1810.43,-442.22C1794.3,-438.81 1774.14,-434.82 1756,-432 1613.27,-409.82 1576.34,-413.81 1433,-396 1417.41,-394.06 1400.73,-391.86 1384.82,-389.7"/>
<polygon fill="black" stroke="black" points="1385.34,-386.11 1374.96,-388.22 1384.39,-393.04 1385.34,-386.11"/>
</g>
<!-- resource_account&#45;&gt;bcs -->
<g id="edge32" class="edge">
<title>resource_account&#45;&gt;bcs</title>
<path fill="none" stroke="black" d="M1199.85,-516.3C1293.47,-509.43 1461.98,-494.49 1604,-468 1619.42,-465.12 1866.51,-407.66 1877,-396 1930.6,-336.38 1907.04,-284.27 1865,-216 1857.47,-203.77 1846.51,-192.31 1836.44,-183.2"/>
<polygon fill="black" stroke="black" points="1839.13,-180.04 1829.27,-176.14 1834.55,-185.33 1839.13,-180.04"/>
</g>
<!-- resource_account&#45;&gt;account -->
<g id="edge33" class="edge">
<title>resource_account&#45;&gt;account</title>
<path fill="none" stroke="black" d="M1128,-503.7C1128,-496.24 1128,-487.32 1128,-478.97"/>
<polygon fill="black" stroke="black" points="1131.5,-479.1 1128,-469.1 1124.5,-479.1 1131.5,-479.1"/>
</g>
<!-- timestamp -->
<g id="node21" class="node">
<title>timestamp</title>
<ellipse fill="none" stroke="black" cx="714" cy="-378" rx="50.33" ry="18"/>
<text text-anchor="middle" x="714" y="-372.95" font-family="Times,serif" font-size="14.00">timestamp</text>
</g>
<!-- resource_account&#45;&gt;timestamp -->
<g id="edge34" class="edge">
<title>resource_account&#45;&gt;timestamp</title>
<path fill="none" stroke="black" d="M1086.03,-506.6C1007.92,-479.81 840.87,-422.52 759.89,-394.74"/>
<polygon fill="black" stroke="black" points="761.12,-391.12 750.52,-391.18 758.85,-397.74 761.12,-391.12"/>
</g>
<!-- string&#45;&gt;vector -->
<g id="edge35" class="edge">
<title>string&#45;&gt;vector</title>
<path fill="none" stroke="black" d="M1490,-143.59C1490,-119.5 1490,-75.75 1490,-47.03"/>
<polygon fill="black" stroke="black" points="1493.5,-47.11 1490,-37.11 1486.5,-47.11 1493.5,-47.11"/>
</g>
<!-- string&#45;&gt;option -->
<g id="edge36" class="edge">
<title>string&#45;&gt;option</title>
<path fill="none" stroke="black" d="M1520.64,-156.57C1603.7,-144.56 1833.34,-111.34 1930.11,-97.35"/>
<polygon fill="black" stroke="black" points="1930.56,-100.67 1939.96,-95.78 1929.56,-93.75 1930.56,-100.67"/>
</g>
<!-- features&#45;&gt;signer -->
<g id="edge37" class="edge">
<title>features&#45;&gt;signer</title>
<path fill="none" stroke="black" d="M1032.68,-157.58C897.62,-145.82 453.23,-107.13 311.7,-94.8"/>
<polygon fill="black" stroke="black" points="312.15,-91.24 301.88,-93.86 311.54,-98.22 312.15,-91.24"/>
</g>
<!-- features&#45;&gt;error -->
<g id="edge38" class="edge">
<title>features&#45;&gt;error</title>
<path fill="none" stroke="black" d="M1050.04,-146.5C1033.97,-135.89 1012.03,-121.4 994.6,-109.88"/>
<polygon fill="black" stroke="black" points="996.71,-106.43 986.44,-103.84 992.86,-112.27 996.71,-106.43"/>
</g>
<!-- option&#45;&gt;vector -->
<g id="edge39" class="edge">
<title>option&#45;&gt;vector</title>
<path fill="none" stroke="black" d="M1941.11,-84.24C1856.08,-71.94 1628.91,-39.09 1533.33,-25.27"/>
<polygon fill="black" stroke="black" points="1534.01,-21.68 1523.61,-23.72 1533.01,-28.61 1534.01,-21.68"/>
</g>
<!-- system_addresses&#45;&gt;signer -->
<g id="edge40" class="edge">
<title>system_addresses&#45;&gt;signer</title>
<path fill="none" stroke="black" d="M478.32,-287.75C458.18,-256.24 411.93,-188.54 360,-144 342.76,-129.22 320.81,-116.39 302.68,-107.06"/>
<polygon fill="black" stroke="black" points="304.56,-103.58 294.05,-102.24 301.43,-109.84 304.56,-103.58"/>
</g>
<!-- system_addresses&#45;&gt;error -->
<g id="edge41" class="edge">
<title>system_addresses&#45;&gt;error</title>
<path fill="none" stroke="black" d="M493.29,-287.66C502.65,-253.79 528.33,-179.08 580,-144 635.83,-106.1 839.07,-95.08 926.06,-92.07"/>
<polygon fill="black" stroke="black" points="925.92,-95.54 935.8,-91.71 925.69,-88.54 925.92,-95.54"/>
</g>
<!-- event&#45;&gt;error -->
<g id="edge42" class="edge">
<title>event&#45;&gt;error</title>
<path fill="none" stroke="black" d="M1027.48,-359.7C1019.53,-320.95 999.39,-224.3 980,-144 978,-135.73 975.7,-126.78 973.54,-118.62"/>
<polygon fill="black" stroke="black" points="976.7,-117.89 970.73,-109.14 969.93,-119.7 976.7,-117.89"/>
</g>
<!-- event&#45;&gt;features -->
<g id="edge43" class="edge">
<title>event&#45;&gt;features</title>
<path fill="none" stroke="black" d="M1034.29,-359.85C1041.35,-322.99 1058.03,-235.92 1066.64,-190.96"/>
<polygon fill="black" stroke="black" points="1070.25,-191.71 1068.7,-181.23 1063.38,-190.4 1070.25,-191.71"/>
</g>
<!-- event&#45;&gt;bcs -->
<g id="edge44" class="edge">
<title>event&#45;&gt;bcs</title>
<path fill="none" stroke="black" d="M1059.41,-370.46C1100.81,-360.83 1180.07,-342.02 1247,-324 1411.59,-279.68 1450.94,-262.25 1615,-216 1671.01,-200.21 1736.29,-182.74 1775.59,-172.33"/>
<polygon fill="black" stroke="black" points="1776.43,-175.47 1785.2,-169.52 1774.64,-168.7 1776.43,-175.47"/>
</g>
<!-- guid -->
<g id="node22" class="node">
<title>guid</title>
<ellipse fill="none" stroke="black" cx="1097" cy="-306" rx="27.3" ry="18"/>
<text text-anchor="middle" x="1097" y="-300.95" font-family="Times,serif" font-size="14.00">guid</text>
</g>
<!-- event&#45;&gt;guid -->
<g id="edge45" class="edge">
<title>event&#45;&gt;guid</title>
<path fill="none" stroke="black" d="M1045.32,-361.81C1054.18,-352.42 1065.71,-340.19 1075.63,-329.67"/>
<polygon fill="black" stroke="black" points="1077.85,-332.36 1082.16,-322.68 1072.75,-327.55 1077.85,-332.36"/>
</g>
<!-- account&#45;&gt;vector -->
<g id="edge46" class="edge">
<title>account&#45;&gt;vector</title>
<path fill="none" stroke="black" d="M1090.5,-443.66C1055.52,-437.17 1003.27,-423.49 966,-396 895.44,-343.96 852,-322.68 852,-235 852,-235 852,-235 852,-161 852,-108.98 881.84,-95.97 928,-72 1017.73,-25.4 1327.93,-19.49 1444.9,-18.95"/>
<polygon fill="black" stroke="black" points="1444.61,-22.45 1454.6,-18.91 1444.59,-15.45 1444.61,-22.45"/>
</g>
<!-- account&#45;&gt;signer -->
<g id="edge48" class="edge">
<title>account&#45;&gt;signer</title>
<path fill="none" stroke="black" d="M1088.35,-448.02C1001.19,-445.19 786.78,-434.55 612,-396 606,-394.68 407.74,-327.9 403,-324 334.52,-267.63 293.4,-166.84 276.69,-118.43"/>
<polygon fill="black" stroke="black" points="279.73,-117.48 273.23,-109.12 273.09,-119.71 279.73,-117.48"/>
</g>
<!-- account&#45;&gt;type_info -->
<g id="edge51" class="edge">
<title>account&#45;&gt;type_info</title>
<path fill="none" stroke="black" d="M1129.37,-431.76C1132.5,-400.85 1142.27,-334.86 1171,-288 1178.25,-276.17 1188.94,-265.44 1199.23,-256.78"/>
<polygon fill="black" stroke="black" points="1201.07,-258.99 1206.7,-250.01 1196.7,-253.52 1201.07,-258.99"/>
</g>
<!-- account&#45;&gt;error -->
<g id="edge49" class="edge">
<title>account&#45;&gt;error</title>
<path fill="none" stroke="black" d="M1089.4,-445.13C1057.57,-439.74 1014.05,-426.85 991,-396 928.24,-312.01 947.38,-176.27 959.45,-118.47"/>
<polygon fill="black" stroke="black" points="963.03,-119.51 961.74,-108.99 956.19,-118.01 963.03,-119.51"/>
</g>
<!-- account&#45;&gt;bcs -->
<g id="edge50" class="edge">
<title>account&#45;&gt;bcs</title>
<path fill="none" stroke="black" d="M1167.64,-447.59C1315.88,-442.11 1830.44,-421.34 1854,-396 1908,-337.92 1856.28,-235.18 1827.45,-187.98"/>
<polygon fill="black" stroke="black" points="1829.96,-186.4 1821.69,-179.79 1824.03,-190.12 1829.96,-186.4"/>
</g>
<!-- account&#45;&gt;option -->
<g id="edge47" class="edge">
<title>account&#45;&gt;option</title>
<path fill="none" stroke="black" d="M1167.33,-447.81C1312.35,-443.2 1812.11,-425.33 1877,-396 1950.63,-362.71 1968.57,-330.44 1988,-252 1999.54,-205.41 1994.18,-191.6 1988,-144 1986.9,-135.56 1984.87,-126.56 1982.68,-118.41"/>
<polygon fill="black" stroke="black" points="1985.8,-117.61 1979.68,-108.96 1979.08,-119.54 1985.8,-117.61"/>
</g>
<!-- account&#45;&gt;system_addresses -->
<g id="edge53" class="edge">
<title>account&#45;&gt;system_addresses</title>
<path fill="none" stroke="black" d="M1088.43,-447.49C989.34,-443.26 732.87,-429.32 655,-396 632.08,-386.2 633.22,-373.07 612,-360 589.76,-346.31 563.37,-334.43 540.74,-325.41"/>
<polygon fill="black" stroke="black" points="542.23,-321.84 531.64,-321.47 539.68,-328.36 542.23,-321.84"/>
</g>
<!-- account&#45;&gt;event -->
<g id="edge59" class="edge">
<title>account&#45;&gt;event</title>
<path fill="none" stroke="black" d="M1107.43,-434.15C1093.2,-423.89 1074.12,-410.11 1058.57,-398.9"/>
<polygon fill="black" stroke="black" points="1061.05,-395.65 1050.9,-392.64 1056.96,-401.33 1061.05,-395.65"/>
</g>
<!-- account&#45;&gt;guid -->
<g id="edge57" class="edge">
<title>account&#45;&gt;guid</title>
<path fill="none" stroke="black" d="M1123.16,-431.89C1120.31,-421.54 1116.74,-408.06 1114,-396 1109.37,-375.62 1104.96,-352.41 1101.8,-334.81"/>
<polygon fill="black" stroke="black" points="1105.1,-334.37 1099.91,-325.14 1098.21,-335.59 1105.1,-334.37"/>
</g>
<!-- table -->
<g id="node23" class="node">
<title>table</title>
<ellipse fill="none" stroke="black" cx="1209" cy="-306" rx="28.83" ry="18"/>
<text text-anchor="middle" x="1209" y="-300.95" font-family="Times,serif" font-size="14.00">table</text>
</g>
<!-- account&#45;&gt;table -->
<g id="edge52" class="edge">
<title>account&#45;&gt;table</title>
<path fill="none" stroke="black" d="M1137.61,-432.15C1151.63,-407.57 1177.81,-361.68 1194.27,-332.82"/>
<polygon fill="black" stroke="black" points="1197.74,-334.81 1199.65,-324.39 1191.66,-331.34 1197.74,-334.81"/>
</g>
<!-- hash -->
<g id="node24" class="node">
<title>hash</title>
<ellipse fill="none" stroke="black" cx="1652" cy="-234" rx="27.81" ry="18"/>
<text text-anchor="middle" x="1652" y="-228.95" font-family="Times,serif" font-size="14.00">hash</text>
</g>
<!-- account&#45;&gt;hash -->
<g id="edge54" class="edge">
<title>account&#45;&gt;hash</title>
<path fill="none" stroke="black" d="M1167.76,-448.94C1264.01,-448.08 1506.41,-441.33 1571,-396 1616.15,-364.32 1637.52,-299.94 1646.46,-262.91"/>
<polygon fill="black" stroke="black" points="1650.05,-263.88 1648.85,-253.36 1643.23,-262.34 1650.05,-263.88"/>
</g>
<!-- ed25519 -->
<g id="node25" class="node">
<title>ed25519</title>
<ellipse fill="none" stroke="black" cx="1751" cy="-306" rx="42.65" ry="18"/>
<text text-anchor="middle" x="1751" y="-300.95" font-family="Times,serif" font-size="14.00">ed25519</text>
</g>
<!-- account&#45;&gt;ed25519 -->
<g id="edge55" class="edge">
<title>account&#45;&gt;ed25519</title>
<path fill="none" stroke="black" d="M1167.71,-447.51C1313.78,-441.85 1814.07,-420.71 1837,-396 1847.88,-384.27 1844.8,-373.97 1837,-360 1827.49,-342.98 1810.02,-330.74 1793.3,-322.35"/>
<polygon fill="black" stroke="black" points="1795.15,-318.88 1784.61,-317.84 1792.2,-325.23 1795.15,-318.88"/>
</g>
<!-- multi_ed25519 -->
<g id="node26" class="node">
<title>multi_ed25519</title>
<ellipse fill="none" stroke="black" cx="1761" cy="-378" rx="67.22" ry="18"/>
<text text-anchor="middle" x="1761" y="-372.95" font-family="Times,serif" font-size="14.00">multi_ed25519</text>
</g>
<!-- account&#45;&gt;multi_ed25519 -->
<g id="edge56" class="edge">
<title>account&#45;&gt;multi_ed25519</title>
<path fill="none" stroke="black" d="M1166.75,-445.53C1252.5,-437.73 1464.81,-417.78 1642,-396 1658.48,-393.97 1676.21,-391.56 1692.83,-389.21"/>
<polygon fill="black" stroke="black" points="1693.16,-392.55 1702.56,-387.67 1692.16,-385.62 1693.16,-392.55"/>
</g>
<!-- from_bcs -->
<g id="node27" class="node">
<title>from_bcs</title>
<ellipse fill="none" stroke="black" cx="1378" cy="-234" rx="46.23" ry="18"/>
<text text-anchor="middle" x="1378" y="-228.95" font-family="Times,serif" font-size="14.00">from_bcs</text>
</g>
<!-- account&#45;&gt;from_bcs -->
<g id="edge58" class="edge">
<title>account&#45;&gt;from_bcs</title>
<path fill="none" stroke="black" d="M1167.47,-447.1C1234.64,-442.96 1366.66,-430.52 1395,-396 1426.19,-358 1406.83,-296.77 1391.43,-261.79"/>
<polygon fill="black" stroke="black" points="1394.2,-260.45 1386.84,-252.84 1387.84,-263.38 1394.2,-260.45"/>
</g>
<!-- create_signer -->
<g id="node28" class="node">
<title>create_signer</title>
<ellipse fill="none" stroke="black" cx="1502" cy="-378" rx="60.05" ry="18"/>
<text text-anchor="middle" x="1502" y="-372.95" font-family="Times,serif" font-size="14.00">create_signer</text>
</g>
<!-- account&#45;&gt;create_signer -->
<g id="edge60" class="edge">
<title>account&#45;&gt;create_signer</title>
<path fill="none" stroke="black" d="M1165.06,-443.08C1221.83,-433.86 1333.67,-415.16 1428,-396 1433.65,-394.85 1439.53,-393.6 1445.4,-392.31"/>
<polygon fill="black" stroke="black" points="1445.89,-395.57 1454.89,-389.97 1444.37,-388.73 1445.89,-395.57"/>
</g>
<!-- chain_id -->
<g id="node29" class="node">
<title>chain_id</title>
<ellipse fill="none" stroke="black" cx="825" cy="-378" rx="42.65" ry="18"/>
<text text-anchor="middle" x="825" y="-372.95" font-family="Times,serif" font-size="14.00">chain_id</text>
</g>
<!-- account&#45;&gt;chain_id -->
<g id="edge61" class="edge">
<title>account&#45;&gt;chain_id</title>
<path fill="none" stroke="black" d="M1091.94,-442.14C1043.82,-432.78 956.06,-414.99 882,-396 877.72,-394.9 873.29,-393.7 868.86,-392.45"/>
<polygon fill="black" stroke="black" points="870.21,-388.91 859.64,-389.5 868.27,-395.64 870.21,-388.91"/>
</g>
<!-- aggregator_factory&#45;&gt;error -->
<g id="edge62" class="edge">
<title>aggregator_factory&#45;&gt;error</title>
<path fill="none" stroke="black" d="M406.26,-359.61C400.19,-341.17 393.55,-311.52 403,-288 436.05,-205.75 461.78,-183.78 541,-144 608.14,-110.29 834.09,-96.77 926.3,-92.58"/>
<polygon fill="black" stroke="black" points="926.29,-96.04 936.12,-92.1 925.98,-89.04 926.29,-96.04"/>
</g>
<!-- aggregator_factory&#45;&gt;system_addresses -->
<g id="edge64" class="edge">
<title>aggregator_factory&#45;&gt;system_addresses</title>
<path fill="none" stroke="black" d="M431.4,-360.05C440.83,-351.37 452.47,-340.64 462.82,-331.11"/>
<polygon fill="black" stroke="black" points="464.79,-334.14 469.77,-324.79 460.05,-328.99 464.79,-334.14"/>
</g>
<!-- aggregator_factory&#45;&gt;aggregator -->
<g id="edge65" class="edge">
<title>aggregator_factory&#45;&gt;aggregator</title>
<path fill="none" stroke="black" d="M380.1,-361.12C358.26,-350.57 329.51,-336.7 306.6,-325.63"/>
<polygon fill="black" stroke="black" points="308.37,-322.12 297.85,-320.93 305.33,-328.43 308.37,-322.12"/>
</g>
<!-- aggregator_factory&#45;&gt;table -->
<g id="edge63" class="edge">
<title>aggregator_factory&#45;&gt;table</title>
<path fill="none" stroke="black" d="M489.1,-371.55C671.02,-358.49 1117.22,-326.33 1133,-324 1145.93,-322.09 1159.93,-319.2 1172.36,-316.34"/>
<polygon fill="black" stroke="black" points="1172.88,-319.57 1181.8,-313.86 1171.26,-312.76 1172.88,-319.57"/>
</g>
<!-- optional_aggregator&#45;&gt;error -->
<g id="edge67" class="edge">
<title>optional_aggregator&#45;&gt;error</title>
<path fill="none" stroke="black" d="M471.96,-432.33C503.37,-401.32 568.04,-336.74 575,-324 614.41,-251.81 557.47,-199.69 618,-144 662.3,-103.25 844.47,-93.83 926.11,-91.65"/>
<polygon fill="black" stroke="black" points="926.02,-95.13 935.94,-91.39 925.85,-88.14 926.02,-95.13"/>
</g>
<!-- optional_aggregator&#45;&gt;option -->
<g id="edge66" class="edge">
<title>optional_aggregator&#45;&gt;option</title>
<path fill="none" stroke="black" d="M539.28,-446.91C835.08,-439.44 1809.56,-413.55 1837,-396 1882.38,-366.98 1926.88,-229.97 1947,-180 1955.1,-159.88 1962.14,-136.36 1966.99,-118.56"/>
<polygon fill="black" stroke="black" points="1970.6,-119.6 1969.79,-109.04 1963.84,-117.8 1970.6,-119.6"/>
</g>
<!-- optional_aggregator&#45;&gt;aggregator -->
<g id="edge68" class="edge">
<title>optional_aggregator&#45;&gt;aggregator</title>
<path fill="none" stroke="black" d="M400.72,-435.76C375.08,-427.49 345.3,-414.76 323,-396 303.09,-379.25 288.24,-353.37 279.02,-333.83"/>
<polygon fill="black" stroke="black" points="281.89,-332.69 274.6,-325 275.51,-335.56 281.89,-332.69"/>
</g>
<!-- optional_aggregator&#45;&gt;aggregator_factory -->
<g id="edge69" class="edge">
<title>optional_aggregator&#45;&gt;aggregator_factory</title>
<path fill="none" stroke="black" d="M444.62,-431.7C439.84,-423.73 434.06,-414.1 428.76,-405.26"/>
<polygon fill="black" stroke="black" points="431.41,-403.88 423.26,-397.1 425.41,-407.48 431.41,-403.88"/>
</g>
<!-- table_with_length&#45;&gt;error -->
<g id="edge70" class="edge">
<title>table_with_length&#45;&gt;error</title>
<path fill="none" stroke="black" d="M1311.02,-359.76C1313.79,-328.27 1315.39,-260.61 1285,-216 1221.26,-122.45 1075.98,-98.91 1005.63,-92.99"/>
<polygon fill="black" stroke="black" points="1006.25,-89.45 996.01,-92.18 1005.72,-96.43 1006.25,-89.45"/>
</g>
<!-- table_with_length&#45;&gt;table -->
<g id="edge71" class="edge">
<title>table_with_length&#45;&gt;table</title>
<path fill="none" stroke="black" d="M1285.3,-360.41C1270.67,-350.17 1251.83,-336.98 1236.53,-326.27"/>
<polygon fill="black" stroke="black" points="1238.73,-322.84 1228.53,-319.97 1234.72,-328.57 1238.73,-322.84"/>
</g>
<!-- timestamp&#45;&gt;error -->
<g id="edge72" class="edge">
<title>timestamp&#45;&gt;error</title>
<path fill="none" stroke="black" d="M728.64,-360.39C771.4,-311.85 896.22,-170.19 945.58,-114.18"/>
<polygon fill="black" stroke="black" points="947.57,-117.07 951.56,-107.25 942.32,-112.44 947.57,-117.07"/>
</g>
<!-- timestamp&#45;&gt;system_addresses -->
<g id="edge73" class="edge">
<title>timestamp&#45;&gt;system_addresses</title>
<path fill="none" stroke="black" d="M676.85,-365.44C640.79,-354.22 585.63,-337.06 544.4,-324.23"/>
<polygon fill="black" stroke="black" points="545.55,-320.62 534.97,-320.99 543.47,-327.3 545.55,-320.62"/>
</g>
<!-- ed25519&#45;&gt;type_info -->
<g id="edge77" class="edge">
<title>ed25519&#45;&gt;type_info</title>
<path fill="none" stroke="black" d="M1709.87,-300.7C1633.47,-292.55 1464.54,-273.68 1323,-252 1309.43,-249.92 1294.8,-247.39 1281.25,-244.91"/>
<polygon fill="black" stroke="black" points="1282.13,-241.33 1271.66,-242.96 1280.85,-248.22 1282.13,-241.33"/>
</g>
<!-- ed25519&#45;&gt;error -->
<g id="edge75" class="edge">
<title>ed25519&#45;&gt;error</title>
<path fill="none" stroke="black" d="M1742.68,-287.94C1724.43,-252.81 1677.11,-173.22 1610,-144 1500.65,-96.4 1128.73,-91.31 1005.8,-90.95"/>
<polygon fill="black" stroke="black" points="1006.04,-87.45 996.03,-90.93 1006.03,-94.45 1006.04,-87.45"/>
</g>
<!-- ed25519&#45;&gt;bcs -->
<g id="edge76" class="edge">
<title>ed25519&#45;&gt;bcs</title>
<path fill="none" stroke="black" d="M1758.24,-287.87C1768.56,-263.43 1787.62,-218.33 1799.78,-189.55"/>
<polygon fill="black" stroke="black" points="1803.26,-191.32 1803.92,-180.75 1796.81,-188.6 1803.26,-191.32"/>
</g>
<!-- ed25519&#45;&gt;option -->
<g id="edge74" class="edge">
<title>ed25519&#45;&gt;option</title>
<path fill="none" stroke="black" d="M1748.01,-287.68C1743.45,-255.16 1738.75,-184.57 1775,-144 1795.46,-121.1 1878.07,-105.07 1930.2,-97"/>
<polygon fill="black" stroke="black" points="1930.46,-100.35 1939.83,-95.4 1929.42,-93.43 1930.46,-100.35"/>
</g>
<!-- ed25519&#45;&gt;hash -->
<g id="edge78" class="edge">
<title>ed25519&#45;&gt;hash</title>
<path fill="none" stroke="black" d="M1730,-290.15C1715.2,-279.69 1695.24,-265.57 1679.21,-254.24"/>
<polygon fill="black" stroke="black" points="1681.49,-250.86 1671.3,-247.94 1677.45,-256.57 1681.49,-250.86"/>
</g>
<!-- multi_ed25519&#45;&gt;error -->
<g id="edge80" class="edge">
<title>multi_ed25519&#45;&gt;error</title>
<path fill="none" stroke="black" d="M1729.49,-361.87C1711.57,-352.41 1689.32,-339.16 1672,-324 1641.29,-297.11 1640.2,-284.11 1615,-252 1577.46,-204.16 1584.32,-173.24 1531,-144 1440.49,-94.36 1119.58,-90.48 1006.11,-90.7"/>
<polygon fill="black" stroke="black" points="1006.16,-87.2 996.17,-90.73 1006.18,-94.2 1006.16,-87.2"/>
</g>
<!-- multi_ed25519&#45;&gt;features -->
<g id="edge81" class="edge">
<title>multi_ed25519&#45;&gt;features</title>
<path fill="none" stroke="black" d="M1703.48,-368.47C1574.95,-348.81 1268.38,-298.43 1175,-252 1142.82,-236 1112.53,-207.61 1093.24,-187.19"/>
<polygon fill="black" stroke="black" points="1096.27,-185.23 1086.92,-180.26 1091.13,-189.98 1096.27,-185.23"/>
</g>
<!-- multi_ed25519&#45;&gt;bcs -->
<g id="edge82" class="edge">
<title>multi_ed25519&#45;&gt;bcs</title>
<path fill="none" stroke="black" d="M1778.46,-360.59C1787.53,-350.9 1797.79,-337.85 1803,-324 1819.66,-279.72 1817.81,-223.7 1814.62,-190.77"/>
<polygon fill="black" stroke="black" points="1818.03,-190.7 1813.47,-181.14 1811.07,-191.46 1818.03,-190.7"/>
</g>
<!-- multi_ed25519&#45;&gt;option -->
<g id="edge79" class="edge">
<title>multi_ed25519&#45;&gt;option</title>
<path fill="none" stroke="black" d="M1782.26,-360.58C1794.35,-350.69 1809.35,-337.44 1821,-324 1880.4,-255.47 1934.82,-162.41 1959.73,-117.46"/>
<polygon fill="black" stroke="black" points="1963.25,-119.32 1965,-108.87 1957.11,-115.95 1963.25,-119.32"/>
</g>
<!-- multi_ed25519&#45;&gt;hash -->
<g id="edge83" class="edge">
<title>multi_ed25519&#45;&gt;hash</title>
<path fill="none" stroke="black" d="M1737.9,-360.66C1725.34,-350.99 1710.15,-337.93 1699,-324 1683.78,-304.98 1671.2,-280.28 1662.9,-261.73"/>
<polygon fill="black" stroke="black" points="1665.81,-260.65 1658.62,-252.87 1659.39,-263.43 1665.81,-260.65"/>
</g>
<!-- multi_ed25519&#45;&gt;ed25519 -->
<g id="edge84" class="edge">
<title>multi_ed25519&#45;&gt;ed25519</title>
<path fill="none" stroke="black" d="M1758.53,-359.7C1757.46,-352.24 1756.19,-343.32 1755,-334.97"/>
<polygon fill="black" stroke="black" points="1758.32,-334.51 1753.44,-325.1 1751.39,-335.5 1758.32,-334.51"/>
</g>
<!-- from_bcs&#45;&gt;string -->
<g id="edge85" class="edge">
<title>from_bcs&#45;&gt;string</title>
<path fill="none" stroke="black" d="M1401.75,-218.15C1418.73,-207.54 1441.72,-193.18 1459.97,-181.77"/>
<polygon fill="black" stroke="black" points="1461.67,-184.21 1468.29,-175.94 1457.96,-178.27 1461.67,-184.21"/>
</g>
<!-- chain_id&#45;&gt;system_addresses -->
<g id="edge86" class="edge">
<title>chain_id&#45;&gt;system_addresses</title>
<path fill="none" stroke="black" d="M792.74,-365.73C786.25,-363.66 779.44,-361.65 773,-360 702.7,-342.03 621.15,-327.44 563.52,-318.16"/>
<polygon fill="black" stroke="black" points="564.12,-314.55 553.69,-316.43 563.01,-321.46 564.12,-314.55"/>
</g>
</g>
</svg>
