<?xml version="1.0" encoding="UTF-8" standalone="no"?>
<!DOCTYPE svg PUBLIC "-//W3C//DTD SVG 1.1//EN"
 "http://www.w3.org/Graphics/SVG/1.1/DTD/svg11.dtd">
<!-- Generated by graphviz version 7.1.0 (20230121.1956)
 -->
<!-- Title: G Pages: 1 -->
<svg width="1930pt" height="692pt"
 viewBox="0.00 0.00 1930.00 692.00" xmlns="http://www.w3.org/2000/svg" xmlns:xlink="http://www.w3.org/1999/xlink">
<g id="graph0" class="graph" transform="scale(1 1) rotate(0) translate(4 688)">
<title>G</title>
<polygon fill="white" stroke="none" points="-4,4 -4,-688 1926,-688 1926,4 -4,4"/>
<!-- incentives -->
<g id="node1" class="node">
<title>incentives</title>
<ellipse fill="none" stroke="black" cx="754" cy="-666" rx="46.29" ry="18"/>
<text text-anchor="middle" x="754" y="-662.3" font-family="Times,serif" font-size="14.00">incentives</text>
</g>
<!-- vector -->
<g id="node2" class="node">
<title>vector</title>
<ellipse fill="none" stroke="black" cx="570" cy="-18" rx="32.49" ry="18"/>
<text text-anchor="middle" x="570" y="-14.3" font-family="Times,serif" font-size="14.00">vector</text>
</g>
<!-- incentives&#45;&gt;vector -->
<g id="edge1" class="edge">
<title>incentives&#45;&gt;vector</title>
<path fill="none" stroke="black" d="M800.51,-664.32C1017.74,-660.57 1922,-638.03 1922,-523 1922,-523 1922,-523 1922,-161 1922,-26.31 846.93,-18.92 614.12,-18.9"/>
<polygon fill="black" stroke="black" points="614.26,-15.4 604.26,-18.9 614.27,-22.4 614.26,-15.4"/>
</g>
<!-- signer -->
<g id="node3" class="node">
<title>signer</title>
<ellipse fill="none" stroke="black" cx="190" cy="-90" rx="32.49" ry="18"/>
<text text-anchor="middle" x="190" y="-86.3" font-family="Times,serif" font-size="14.00">signer</text>
</g>
<!-- incentives&#45;&gt;signer -->
<g id="edge2" class="edge">
<title>incentives&#45;&gt;signer</title>
<path fill="none" stroke="black" d="M707.39,-664.46C615.03,-662.47 402.73,-653.36 230,-612 123.4,-586.48 0,-632.61 0,-523 0,-523 0,-523 0,-377 0,-266.15 15.39,-226.88 89,-144 105.68,-125.21 130.64,-112.03 151.57,-103.51"/>
<polygon fill="black" stroke="black" points="152.59,-106.87 160.67,-100.02 150.08,-100.33 152.59,-106.87"/>
</g>
<!-- type_info -->
<g id="node4" class="node">
<title>type_info</title>
<ellipse fill="none" stroke="black" cx="1222" cy="-234" rx="44.39" ry="18"/>
<text text-anchor="middle" x="1222" y="-230.3" font-family="Times,serif" font-size="14.00">type_info</text>
</g>
<!-- incentives&#45;&gt;type_info -->
<g id="edge3" class="edge">
<title>incentives&#45;&gt;type_info</title>
<path fill="none" stroke="black" d="M800.37,-664.35C887.29,-660.41 1066,-638.31 1066,-523 1066,-523 1066,-523 1066,-449 1066,-364.87 1145.7,-291.67 1191.17,-256.76"/>
<polygon fill="black" stroke="black" points="1193.2,-259.61 1199.1,-250.81 1189,-254.02 1193.2,-259.61"/>
</g>
<!-- coin -->
<g id="node5" class="node">
<title>coin</title>
<ellipse fill="none" stroke="black" cx="754" cy="-522" rx="27" ry="18"/>
<text text-anchor="middle" x="754" y="-518.3" font-family="Times,serif" font-size="14.00">coin</text>
</g>
<!-- incentives&#45;&gt;coin -->
<g id="edge4" class="edge">
<title>incentives&#45;&gt;coin</title>
<path fill="none" stroke="black" d="M754,-647.59C754,-623.61 754,-580.14 754,-551.42"/>
<polygon fill="black" stroke="black" points="757.5,-551.62 754,-541.62 750.5,-551.62 757.5,-551.62"/>
</g>
<!-- aptos_coin -->
<g id="node6" class="node">
<title>aptos_coin</title>
<ellipse fill="none" stroke="black" cx="438" cy="-594" rx="48.99" ry="18"/>
<text text-anchor="middle" x="438" y="-590.3" font-family="Times,serif" font-size="14.00">aptos_coin</text>
</g>
<!-- incentives&#45;&gt;aptos_coin -->
<g id="edge5" class="edge">
<title>incentives&#45;&gt;aptos_coin</title>
<path fill="none" stroke="black" d="M714.62,-656.28C657.88,-643.71 553.06,-620.49 490.02,-606.52"/>
<polygon fill="black" stroke="black" points="491.13,-603.18 480.61,-604.44 489.62,-610.02 491.13,-603.18"/>
</g>
<!-- tablist -->
<g id="node7" class="node">
<title>tablist</title>
<ellipse fill="none" stroke="black" cx="136" cy="-450" rx="32.49" ry="18"/>
<text text-anchor="middle" x="136" y="-446.3" font-family="Times,serif" font-size="14.00">tablist</text>
</g>
<!-- incentives&#45;&gt;tablist -->
<g id="edge6" class="edge">
<title>incentives&#45;&gt;tablist</title>
<path fill="none" stroke="black" d="M708.8,-661.65C637.9,-655.71 496.59,-641.12 380,-612 289.15,-589.31 252.32,-601.83 182,-540 163.55,-523.77 151.45,-498.35 144.32,-478.83"/>
<polygon fill="black" stroke="black" points="147.7,-477.9 141.17,-469.56 141.07,-480.15 147.7,-477.9"/>
</g>
<!-- resource_account -->
<g id="node8" class="node">
<title>resource_account</title>
<ellipse fill="none" stroke="black" cx="1544" cy="-522" rx="72.29" ry="18"/>
<text text-anchor="middle" x="1544" y="-518.3" font-family="Times,serif" font-size="14.00">resource_account</text>
</g>
<!-- incentives&#45;&gt;resource_account -->
<g id="edge7" class="edge">
<title>incentives&#45;&gt;resource_account</title>
<path fill="none" stroke="black" d="M796.52,-658.48C858.82,-648.84 978.51,-629.98 1080,-612 1222.13,-586.82 1388.11,-554.2 1477.99,-536.27"/>
<polygon fill="black" stroke="black" points="1478.49,-539.74 1487.61,-534.35 1477.12,-532.88 1478.49,-539.74"/>
</g>
<!-- string -->
<g id="node9" class="node">
<title>string</title>
<ellipse fill="none" stroke="black" cx="570" cy="-162" rx="30.59" ry="18"/>
<text text-anchor="middle" x="570" y="-158.3" font-family="Times,serif" font-size="14.00">string</text>
</g>
<!-- type_info&#45;&gt;string -->
<g id="edge8" class="edge">
<title>type_info&#45;&gt;string</title>
<path fill="none" stroke="black" d="M1179.22,-228.41C1060.49,-215.66 727.93,-179.96 611.16,-167.42"/>
<polygon fill="black" stroke="black" points="611.73,-163.96 601.42,-166.37 610.98,-170.92 611.73,-163.96"/>
</g>
<!-- error -->
<g id="node10" class="node">
<title>error</title>
<ellipse fill="none" stroke="black" cx="1017" cy="-90" rx="27.9" ry="18"/>
<text text-anchor="middle" x="1017" y="-86.3" font-family="Times,serif" font-size="14.00">error</text>
</g>
<!-- type_info&#45;&gt;error -->
<g id="edge9" class="edge">
<title>type_info&#45;&gt;error</title>
<path fill="none" stroke="black" d="M1214.92,-215.85C1205.89,-195.94 1188.44,-163.35 1164,-144 1131.98,-118.65 1086.8,-104.79 1055,-97.67"/>
<polygon fill="black" stroke="black" points="1055.93,-94.29 1045.42,-95.65 1054.48,-101.14 1055.93,-94.29"/>
</g>
<!-- features -->
<g id="node11" class="node">
<title>features</title>
<ellipse fill="none" stroke="black" cx="818" cy="-162" rx="38.19" ry="18"/>
<text text-anchor="middle" x="818" y="-158.3" font-family="Times,serif" font-size="14.00">features</text>
</g>
<!-- type_info&#45;&gt;features -->
<g id="edge10" class="edge">
<title>type_info&#45;&gt;features</title>
<path fill="none" stroke="black" d="M1181.79,-226.03C1106.46,-212.98 944.49,-184.92 864.57,-171.07"/>
<polygon fill="black" stroke="black" points="865.33,-167.65 854.88,-169.39 864.13,-174.55 865.33,-167.65"/>
</g>
<!-- bcs -->
<g id="node12" class="node">
<title>bcs</title>
<ellipse fill="none" stroke="black" cx="1590" cy="-162" rx="27" ry="18"/>
<text text-anchor="middle" x="1590" y="-158.3" font-family="Times,serif" font-size="14.00">bcs</text>
</g>
<!-- type_info&#45;&gt;bcs -->
<g id="edge11" class="edge">
<title>type_info&#45;&gt;bcs</title>
<path fill="none" stroke="black" d="M1261.73,-225.44C1333.41,-211.81 1483.38,-183.28 1553.01,-170.04"/>
<polygon fill="black" stroke="black" points="1553.6,-173.49 1562.77,-168.18 1552.29,-166.61 1553.6,-173.49"/>
</g>
<!-- coin&#45;&gt;signer -->
<g id="edge14" class="edge">
<title>coin&#45;&gt;signer</title>
<path fill="none" stroke="black" d="M727.35,-518.07C633.5,-507.19 320.36,-466.17 253,-396 179.08,-319 181.7,-179.4 186.77,-119.52"/>
<polygon fill="black" stroke="black" points="190.23,-120.12 187.69,-109.84 183.26,-119.46 190.23,-120.12"/>
</g>
<!-- coin&#45;&gt;type_info -->
<g id="edge16" class="edge">
<title>coin&#45;&gt;type_info</title>
<path fill="none" stroke="black" d="M781.29,-521.84C821.08,-521.41 893.98,-513.93 928,-468 966.14,-416.51 927.14,-387.78 921,-324 919.47,-308.07 910.71,-300.26 921,-288 951.72,-251.39 1088.25,-240.06 1166.47,-236.56"/>
<polygon fill="black" stroke="black" points="1166.21,-240.07 1176.05,-236.16 1165.91,-233.08 1166.21,-240.07"/>
</g>
<!-- coin&#45;&gt;string -->
<g id="edge13" class="edge">
<title>coin&#45;&gt;string</title>
<path fill="none" stroke="black" d="M726.88,-520.42C690.26,-518.07 625.73,-508.07 592,-468 524.51,-387.83 548.02,-249.95 562.32,-191.02"/>
<polygon fill="black" stroke="black" points="565.68,-192.04 564.74,-181.48 558.89,-190.32 565.68,-192.04"/>
</g>
<!-- coin&#45;&gt;error -->
<g id="edge15" class="edge">
<title>coin&#45;&gt;error</title>
<path fill="none" stroke="black" d="M768.87,-506.67C779.36,-496.29 793.54,-481.72 805,-468 830.3,-437.7 836.43,-429.69 857,-396 885.07,-350.03 887.11,-335.77 912,-288 944,-226.58 982.49,-154.92 1002.81,-117.24"/>
<polygon fill="black" stroke="black" points="1005.66,-119.34 1007.33,-108.88 999.5,-116.02 1005.66,-119.34"/>
</g>
<!-- option -->
<g id="node13" class="node">
<title>option</title>
<ellipse fill="none" stroke="black" cx="380" cy="-90" rx="33.29" ry="18"/>
<text text-anchor="middle" x="380" y="-86.3" font-family="Times,serif" font-size="14.00">option</text>
</g>
<!-- coin&#45;&gt;option -->
<g id="edge12" class="edge">
<title>coin&#45;&gt;option</title>
<path fill="none" stroke="black" d="M727.16,-518.55C631.96,-509.25 312.95,-472.74 253,-396 181.78,-304.82 301.64,-167.98 355.68,-114.03"/>
<polygon fill="black" stroke="black" points="357.99,-116.67 362.67,-107.17 353.08,-111.68 357.99,-116.67"/>
</g>
<!-- system_addresses -->
<g id="node14" class="node">
<title>system_addresses</title>
<ellipse fill="none" stroke="black" cx="1003" cy="-306" rx="73.39" ry="18"/>
<text text-anchor="middle" x="1003" y="-302.3" font-family="Times,serif" font-size="14.00">system_addresses</text>
</g>
<!-- coin&#45;&gt;system_addresses -->
<g id="edge17" class="edge">
<title>coin&#45;&gt;system_addresses</title>
<path fill="none" stroke="black" d="M780.75,-517.8C831.77,-511.16 940.23,-494.27 966,-468 1000.83,-432.5 1005.45,-371.23 1004.81,-335.38"/>
<polygon fill="black" stroke="black" points="1008.32,-335.66 1004.48,-325.79 1001.32,-335.9 1008.32,-335.66"/>
</g>
<!-- event -->
<g id="node15" class="node">
<title>event</title>
<ellipse fill="none" stroke="black" cx="1428" cy="-378" rx="29.8" ry="18"/>
<text text-anchor="middle" x="1428" y="-374.3" font-family="Times,serif" font-size="14.00">event</text>
</g>
<!-- coin&#45;&gt;event -->
<g id="edge18" class="edge">
<title>coin&#45;&gt;event</title>
<path fill="none" stroke="black" d="M781.25,-521.48C885.52,-522.89 1258.44,-523.85 1360,-468 1385.1,-454.2 1403.83,-426.81 1415.21,-406.04"/>
<polygon fill="black" stroke="black" points="1418.28,-407.72 1419.79,-397.23 1412.07,-404.49 1418.28,-407.72"/>
</g>
<!-- account -->
<g id="node16" class="node">
<title>account</title>
<ellipse fill="none" stroke="black" cx="1313" cy="-450" rx="38.19" ry="18"/>
<text text-anchor="middle" x="1313" y="-446.3" font-family="Times,serif" font-size="14.00">account</text>
</g>
<!-- coin&#45;&gt;account -->
<g id="edge19" class="edge">
<title>coin&#45;&gt;account</title>
<path fill="none" stroke="black" d="M780.59,-517.67C868.6,-506.65 1151.35,-471.24 1265.02,-457.01"/>
<polygon fill="black" stroke="black" points="1265.44,-460.48 1274.93,-455.77 1264.57,-453.54 1265.44,-460.48"/>
</g>
<!-- aggregator -->
<g id="node17" class="node">
<title>aggregator</title>
<ellipse fill="none" stroke="black" cx="628" cy="-306" rx="48.19" ry="18"/>
<text text-anchor="middle" x="628" y="-302.3" font-family="Times,serif" font-size="14.00">aggregator</text>
</g>
<!-- coin&#45;&gt;aggregator -->
<g id="edge20" class="edge">
<title>coin&#45;&gt;aggregator</title>
<path fill="none" stroke="black" d="M726.83,-519.91C692.78,-516.91 635.65,-506.11 609,-468 581.13,-428.14 599.54,-368.74 614.45,-334.33"/>
<polygon fill="black" stroke="black" points="617.53,-336.03 618.48,-325.48 611.15,-333.13 617.53,-336.03"/>
</g>
<!-- aggregator_factory -->
<g id="node18" class="node">
<title>aggregator_factory</title>
<ellipse fill="none" stroke="black" cx="771" cy="-378" rx="77.19" ry="18"/>
<text text-anchor="middle" x="771" y="-374.3" font-family="Times,serif" font-size="14.00">aggregator_factory</text>
</g>
<!-- coin&#45;&gt;aggregator_factory -->
<g id="edge21" class="edge">
<title>coin&#45;&gt;aggregator_factory</title>
<path fill="none" stroke="black" d="M767.37,-506C775.36,-496.01 784.75,-482.15 789,-468 795.06,-447.84 789.9,-424.5 783.58,-406.78"/>
<polygon fill="black" stroke="black" points="786.93,-405.74 780.02,-397.7 780.41,-408.29 786.93,-405.74"/>
</g>
<!-- optional_aggregator -->
<g id="node19" class="node">
<title>optional_aggregator</title>
<ellipse fill="none" stroke="black" cx="699" cy="-450" rx="81.49" ry="18"/>
<text text-anchor="middle" x="699" y="-446.3" font-family="Times,serif" font-size="14.00">optional_aggregator</text>
</g>
<!-- coin&#45;&gt;optional_aggregator -->
<g id="edge22" class="edge">
<title>coin&#45;&gt;optional_aggregator</title>
<path fill="none" stroke="black" d="M741.79,-505.46C735.17,-497.04 726.82,-486.41 719.26,-476.78"/>
<polygon fill="black" stroke="black" points="722.19,-474.85 713.26,-469.15 716.69,-479.18 722.19,-474.85"/>
</g>
<!-- aptos_coin&#45;&gt;vector -->
<g id="edge23" class="edge">
<title>aptos_coin&#45;&gt;vector</title>
<path fill="none" stroke="black" d="M388.66,-593.86C324.35,-593 210.08,-584.54 125,-540 75.99,-514.35 38,-506.32 38,-451 38,-451 38,-451 38,-377 38,-232.75 22.45,-141.24 149,-72 213.22,-36.86 431.48,-24.34 525.89,-20.49"/>
<polygon fill="black" stroke="black" points="525.93,-24 535.79,-20.11 525.66,-17 525.93,-24"/>
</g>
<!-- aptos_coin&#45;&gt;signer -->
<g id="edge26" class="edge">
<title>aptos_coin&#45;&gt;signer</title>
<path fill="none" stroke="black" d="M394.33,-585.41C298.05,-567.45 76,-518.68 76,-451 76,-451 76,-451 76,-233 76,-179.4 126.01,-134.51 159.78,-110.3"/>
<polygon fill="black" stroke="black" points="161.36,-113.47 167.58,-104.9 157.37,-107.72 161.36,-113.47"/>
</g>
<!-- aptos_coin&#45;&gt;coin -->
<g id="edge29" class="edge">
<title>aptos_coin&#45;&gt;coin</title>
<path fill="none" stroke="black" d="M479.31,-583.85C541.58,-570.06 658.47,-544.16 717.67,-531.05"/>
<polygon fill="black" stroke="black" points="718.22,-534.51 727.23,-528.93 716.71,-527.68 718.22,-534.51"/>
</g>
<!-- aptos_coin&#45;&gt;string -->
<g id="edge25" class="edge">
<title>aptos_coin&#45;&gt;string</title>
<path fill="none" stroke="black" d="M442.28,-575.88C455.85,-522.21 499.86,-352.65 548,-216 551,-207.47 554.64,-198.33 558.09,-190.08"/>
<polygon fill="black" stroke="black" points="561.29,-191.49 562,-180.92 554.85,-188.74 561.29,-191.49"/>
</g>
<!-- aptos_coin&#45;&gt;error -->
<g id="edge27" class="edge">
<title>aptos_coin&#45;&gt;error</title>
<path fill="none" stroke="black" d="M435.2,-575.78C425.33,-508.39 399.43,-260.6 530,-144 563.2,-114.35 867.84,-97.75 977.72,-92.68"/>
<polygon fill="black" stroke="black" points="977.59,-96.19 987.42,-92.24 977.27,-89.2 977.59,-96.19"/>
</g>
<!-- aptos_coin&#45;&gt;option -->
<g id="edge24" class="edge">
<title>aptos_coin&#45;&gt;option</title>
<path fill="none" stroke="black" d="M412.55,-578.34C366.3,-550.03 269.76,-482.92 232,-396 186,-290.11 212.92,-225.18 295,-144 309.74,-129.42 329.2,-116.92 345.77,-107.73"/>
<polygon fill="black" stroke="black" points="347.15,-110.96 354.32,-103.16 343.85,-104.79 347.15,-110.96"/>
</g>
<!-- aptos_coin&#45;&gt;system_addresses -->
<g id="edge28" class="edge">
<title>aptos_coin&#45;&gt;system_addresses</title>
<path fill="none" stroke="black" d="M485.42,-588.86C606.17,-577.34 920.65,-540.83 991,-468 1024.76,-433.04 1018.29,-371.58 1010.6,-335.55"/>
<polygon fill="black" stroke="black" points="1014.02,-334.8 1008.35,-325.86 1007.21,-336.39 1014.02,-334.8"/>
</g>
<!-- tablist&#45;&gt;option -->
<g id="edge30" class="edge">
<title>tablist&#45;&gt;option</title>
<path fill="none" stroke="black" d="M131.65,-432.08C125.24,-405.6 114,-352.65 114,-307 114,-307 114,-307 114,-233 114,-133.66 260.15,-103.57 335.79,-94.65"/>
<polygon fill="black" stroke="black" points="335.79,-98.17 345.34,-93.6 335.02,-91.21 335.79,-98.17"/>
</g>
<!-- table_with_length -->
<g id="node20" class="node">
<title>table_with_length</title>
<ellipse fill="none" stroke="black" cx="336" cy="-378" rx="74.19" ry="18"/>
<text text-anchor="middle" x="336" y="-374.3" font-family="Times,serif" font-size="14.00">table_with_length</text>
</g>
<!-- tablist&#45;&gt;table_with_length -->
<g id="edge31" class="edge">
<title>tablist&#45;&gt;table_with_length</title>
<path fill="none" stroke="black" d="M162.97,-439.56C193.97,-428.71 245.54,-410.66 284.33,-397.08"/>
<polygon fill="black" stroke="black" points="285.19,-400.49 293.48,-393.88 282.88,-393.88 285.19,-400.49"/>
</g>
<!-- resource_account&#45;&gt;bcs -->
<g id="edge32" class="edge">
<title>resource_account&#45;&gt;bcs</title>
<path fill="none" stroke="black" d="M1612.92,-516.31C1689.39,-506.97 1809.33,-479.1 1865,-396 1911.02,-327.31 1855.03,-278.91 1770,-216 1727.76,-184.74 1667.28,-171.83 1628.32,-166.56"/>
<polygon fill="black" stroke="black" points="1628.82,-163.1 1618.47,-165.34 1627.96,-170.04 1628.82,-163.1"/>
</g>
<!-- resource_account&#45;&gt;account -->
<g id="edge33" class="edge">
<title>resource_account&#45;&gt;account</title>
<path fill="none" stroke="black" d="M1499.46,-507.5C1457.88,-494.9 1396.26,-476.23 1355.38,-463.84"/>
<polygon fill="black" stroke="black" points="1356.47,-460.52 1345.89,-460.97 1354.44,-467.22 1356.47,-460.52"/>
</g>
<!-- timestamp -->
<g id="node21" class="node">
<title>timestamp</title>
<ellipse fill="none" stroke="black" cx="1808" cy="-378" rx="48.19" ry="18"/>
<text text-anchor="middle" x="1808" y="-374.3" font-family="Times,serif" font-size="14.00">timestamp</text>
</g>
<!-- resource_account&#45;&gt;timestamp -->
<g id="edge34" class="edge">
<title>resource_account&#45;&gt;timestamp</title>
<path fill="none" stroke="black" d="M1573.52,-505.12C1622.08,-479 1718.7,-427.03 1771.49,-398.64"/>
<polygon fill="black" stroke="black" points="1772.96,-401.82 1780.1,-394 1769.64,-395.66 1772.96,-401.82"/>
</g>
<!-- string&#45;&gt;vector -->
<g id="edge35" class="edge">
<title>string&#45;&gt;vector</title>
<path fill="none" stroke="black" d="M570,-143.59C570,-119.61 570,-76.14 570,-47.42"/>
<polygon fill="black" stroke="black" points="573.5,-47.62 570,-37.62 566.5,-47.62 573.5,-47.62"/>
</g>
<!-- string&#45;&gt;option -->
<g id="edge36" class="edge">
<title>string&#45;&gt;option</title>
<path fill="none" stroke="black" d="M544.38,-151.56C511.74,-139.54 455.09,-118.66 417.57,-104.84"/>
<polygon fill="black" stroke="black" points="419.07,-101.66 408.48,-101.49 416.65,-108.23 419.07,-101.66"/>
</g>
<!-- features&#45;&gt;signer -->
<g id="edge37" class="edge">
<title>features&#45;&gt;signer</title>
<path fill="none" stroke="black" d="M780.96,-156.97C700.38,-148.18 503.17,-126.6 338,-108 302.61,-104.01 262.46,-99.4 232.92,-95.98"/>
<polygon fill="black" stroke="black" points="233.59,-92.53 223.26,-94.86 232.79,-99.49 233.59,-92.53"/>
</g>
<!-- features&#45;&gt;error -->
<g id="edge38" class="edge">
<title>features&#45;&gt;error</title>
<path fill="none" stroke="black" d="M847.79,-150.52C883.81,-137.85 944.33,-116.56 982.38,-103.18"/>
<polygon fill="black" stroke="black" points="983.25,-106.58 991.52,-99.96 980.93,-99.98 983.25,-106.58"/>
</g>
<!-- option&#45;&gt;vector -->
<g id="edge39" class="edge">
<title>option&#45;&gt;vector</title>
<path fill="none" stroke="black" d="M406.82,-79.12C439.78,-66.98 495.88,-46.31 532.94,-32.65"/>
<polygon fill="black" stroke="black" points="533.72,-36.1 541.9,-29.35 531.3,-29.53 533.72,-36.1"/>
</g>
<!-- system_addresses&#45;&gt;signer -->
<g id="edge40" class="edge">
<title>system_addresses&#45;&gt;signer</title>
<path fill="none" stroke="black" d="M937.71,-297.5C909.25,-294.35 875.5,-290.79 845,-288 738.7,-278.29 463.98,-294.35 366,-252 296.79,-222.09 237,-153.29 208.24,-116.04"/>
<polygon fill="black" stroke="black" points="211.36,-114.36 202.52,-108.5 205.78,-118.59 211.36,-114.36"/>
</g>
<!-- system_addresses&#45;&gt;error -->
<g id="edge41" class="edge">
<title>system_addresses&#45;&gt;error</title>
<path fill="none" stroke="black" d="M1004.12,-287.85C1006.52,-251.14 1012.18,-164.66 1015.13,-119.53"/>
<polygon fill="black" stroke="black" points="1018.61,-119.95 1015.77,-109.74 1011.63,-119.49 1018.61,-119.95"/>
</g>
<!-- event&#45;&gt;bcs -->
<g id="edge42" class="edge">
<title>event&#45;&gt;bcs</title>
<path fill="none" stroke="black" d="M1439.91,-361.26C1467.89,-324.3 1537.96,-231.74 1571.52,-187.41"/>
<polygon fill="black" stroke="black" points="1574.13,-189.76 1577.38,-179.68 1568.55,-185.54 1574.13,-189.76"/>
</g>
<!-- guid -->
<g id="node22" class="node">
<title>guid</title>
<ellipse fill="none" stroke="black" cx="1387" cy="-306" rx="27" ry="18"/>
<text text-anchor="middle" x="1387" y="-302.3" font-family="Times,serif" font-size="14.00">guid</text>
</g>
<!-- event&#45;&gt;guid -->
<g id="edge43" class="edge">
<title>event&#45;&gt;guid</title>
<path fill="none" stroke="black" d="M1418.49,-360.76C1413.63,-352.46 1407.59,-342.15 1402.11,-332.79"/>
<polygon fill="black" stroke="black" points="1405.3,-331.31 1397.22,-324.45 1399.26,-334.85 1405.3,-331.31"/>
</g>
<!-- account&#45;&gt;vector -->
<g id="edge44" class="edge">
<title>account&#45;&gt;vector</title>
<path fill="none" stroke="black" d="M1316.84,-431.61C1322.4,-404.94 1332,-352.27 1332,-307 1332,-307 1332,-307 1332,-161 1332,-31.27 1180.9,-98.97 1054,-72 894.09,-38.01 699.55,-25.13 613.98,-20.86"/>
<polygon fill="black" stroke="black" points="614.31,-17.37 604.15,-20.39 613.97,-24.36 614.31,-17.37"/>
</g>
<!-- account&#45;&gt;signer -->
<g id="edge46" class="edge">
<title>account&#45;&gt;signer</title>
<path fill="none" stroke="black" d="M1289.61,-435.43C1272.09,-425.06 1247.68,-410.19 1227,-396 1161.62,-351.15 1159.17,-316.03 1085,-288 878.25,-209.86 804.3,-301.96 589,-252 446.72,-218.99 289,-142.47 222.45,-108.17"/>
<polygon fill="black" stroke="black" points="224.39,-105.24 213.91,-103.74 221.17,-111.46 224.39,-105.24"/>
</g>
<!-- account&#45;&gt;type_info -->
<g id="edge49" class="edge">
<title>account&#45;&gt;type_info</title>
<path fill="none" stroke="black" d="M1301.67,-432.8C1294.82,-422.56 1286.24,-408.88 1280,-396 1258.19,-351 1239.98,-295.57 1230.07,-262.88"/>
<polygon fill="black" stroke="black" points="1233.45,-261.96 1227.24,-253.38 1226.74,-263.96 1233.45,-261.96"/>
</g>
<!-- account&#45;&gt;error -->
<g id="edge47" class="edge">
<title>account&#45;&gt;error</title>
<path fill="none" stroke="black" d="M1309.16,-431.61C1303.6,-404.94 1294,-352.27 1294,-307 1294,-307 1294,-307 1294,-233 1294,-127.37 1132.51,-100.26 1056.14,-93.35"/>
<polygon fill="black" stroke="black" points="1056.85,-89.89 1046.59,-92.56 1056.27,-96.87 1056.85,-89.89"/>
</g>
<!-- account&#45;&gt;bcs -->
<g id="edge48" class="edge">
<title>account&#45;&gt;bcs</title>
<path fill="none" stroke="black" d="M1351.37,-448.27C1436.41,-445.92 1637.4,-436.15 1690,-396 1756.7,-345.09 1795.94,-284.17 1747,-216 1720.21,-178.67 1665.73,-167.29 1628.55,-164.01"/>
<polygon fill="black" stroke="black" points="1628.87,-160.53 1618.65,-163.32 1628.38,-167.51 1628.87,-160.53"/>
</g>
<!-- account&#45;&gt;option -->
<g id="edge45" class="edge">
<title>account&#45;&gt;option</title>
<path fill="none" stroke="black" d="M1277.89,-442.36C1246.27,-435.06 1199.7,-420.92 1166,-396 1117.76,-360.33 1137.66,-316.76 1085,-288 988.01,-235.03 692.25,-291.39 589,-252 510.36,-222 436.92,-152.11 401.74,-115.05"/>
<polygon fill="black" stroke="black" points="404.46,-112.83 395.07,-107.92 399.35,-117.61 404.46,-112.83"/>
</g>
<!-- account&#45;&gt;system_addresses -->
<g id="edge51" class="edge">
<title>account&#45;&gt;system_addresses</title>
<path fill="none" stroke="black" d="M1277.62,-442.6C1239.4,-434.84 1177.36,-419.78 1128,-396 1091.82,-378.57 1054.91,-350.81 1030.67,-330.93"/>
<polygon fill="black" stroke="black" points="1033.12,-328.41 1023.19,-324.7 1028.64,-333.79 1033.12,-328.41"/>
</g>
<!-- account&#45;&gt;event -->
<g id="edge57" class="edge">
<title>account&#45;&gt;event</title>
<path fill="none" stroke="black" d="M1335.72,-435.17C1353.56,-424.31 1378.55,-409.1 1398.02,-397.25"/>
<polygon fill="black" stroke="black" points="1399.62,-400.37 1406.35,-392.18 1395.98,-394.39 1399.62,-400.37"/>
</g>
<!-- account&#45;&gt;guid -->
<g id="edge55" class="edge">
<title>account&#45;&gt;guid</title>
<path fill="none" stroke="black" d="M1323.95,-432.61C1330.65,-422.29 1339.21,-408.6 1346,-396 1356.91,-375.76 1367.73,-352.08 1375.51,-334.24"/>
<polygon fill="black" stroke="black" points="1378.71,-335.66 1379.45,-325.1 1372.28,-332.89 1378.71,-335.66"/>
</g>
<!-- table -->
<g id="node23" class="node">
<title>table</title>
<ellipse fill="none" stroke="black" cx="808" cy="-306" rx="27.9" ry="18"/>
<text text-anchor="middle" x="808" y="-302.3" font-family="Times,serif" font-size="14.00">table</text>
</g>
<!-- account&#45;&gt;table -->
<g id="edge50" class="edge">
<title>account&#45;&gt;table</title>
<path fill="none" stroke="black" d="M1277.5,-442.78C1229.22,-434 1140.36,-416.72 1066,-396 984.49,-373.28 891.14,-338.95 842.15,-320.26"/>
<polygon fill="black" stroke="black" points="843.53,-317.04 832.94,-316.73 841.03,-323.58 843.53,-317.04"/>
</g>
<!-- hash -->
<g id="node24" class="node">
<title>hash</title>
<ellipse fill="none" stroke="black" cx="1711" cy="-234" rx="27" ry="18"/>
<text text-anchor="middle" x="1711" y="-230.3" font-family="Times,serif" font-size="14.00">hash</text>
</g>
<!-- account&#45;&gt;hash -->
<g id="edge52" class="edge">
<title>account&#45;&gt;hash</title>
<path fill="none" stroke="black" d="M1351.34,-447.8C1431.8,-444.55 1614.83,-433.17 1663,-396 1703.53,-364.73 1711.05,-300.66 1711.77,-263.47"/>
<polygon fill="black" stroke="black" points="1715.27,-263.93 1711.79,-253.92 1708.27,-263.91 1715.27,-263.93"/>
</g>
<!-- ed25519 -->
<g id="node25" class="node">
<title>ed25519</title>
<ellipse fill="none" stroke="black" cx="1549" cy="-306" rx="40.89" ry="18"/>
<text text-anchor="middle" x="1549" y="-302.3" font-family="Times,serif" font-size="14.00">ed25519</text>
</g>
<!-- account&#45;&gt;ed25519 -->
<g id="edge53" class="edge">
<title>account&#45;&gt;ed25519</title>
<path fill="none" stroke="black" d="M1347.92,-442.18C1380.65,-434.63 1429.96,-420.21 1467,-396 1492.69,-379.21 1515.77,-352.6 1530.84,-332.84"/>
<polygon fill="black" stroke="black" points="1533.53,-335.1 1536.68,-324.98 1527.9,-330.93 1533.53,-335.1"/>
</g>
<!-- multi_ed25519 -->
<g id="node26" class="node">
<title>multi_ed25519</title>
<ellipse fill="none" stroke="black" cx="1590" cy="-378" rx="64.19" ry="18"/>
<text text-anchor="middle" x="1590" y="-374.3" font-family="Times,serif" font-size="14.00">multi_ed25519</text>
</g>
<!-- account&#45;&gt;multi_ed25519 -->
<g id="edge54" class="edge">
<title>account&#45;&gt;multi_ed25519</title>
<path fill="none" stroke="black" d="M1346.14,-440.63C1392.18,-428.99 1476.19,-407.76 1532.56,-393.52"/>
<polygon fill="black" stroke="black" points="1533.14,-396.98 1541.98,-391.14 1531.42,-390.19 1533.14,-396.98"/>
</g>
<!-- from_bcs -->
<g id="node27" class="node">
<title>from_bcs</title>
<ellipse fill="none" stroke="black" cx="642" cy="-234" rx="44.39" ry="18"/>
<text text-anchor="middle" x="642" y="-230.3" font-family="Times,serif" font-size="14.00">from_bcs</text>
</g>
<!-- account&#45;&gt;from_bcs -->
<g id="edge56" class="edge">
<title>account&#45;&gt;from_bcs</title>
<path fill="none" stroke="black" d="M1297.51,-433.25C1287.16,-422.72 1273.25,-408.54 1261,-396 1214.22,-348.11 1216.25,-317.19 1156,-288 1076.29,-249.38 813.72,-238.81 697.82,-235.99"/>
<polygon fill="black" stroke="black" points="698,-232.49 687.93,-235.76 697.84,-239.49 698,-232.49"/>
</g>
<!-- aggregator_factory&#45;&gt;error -->
<g id="edge58" class="edge">
<title>aggregator_factory&#45;&gt;error</title>
<path fill="none" stroke="black" d="M764.47,-359.7C749.79,-317.5 719.28,-208.05 771,-144 796.53,-112.39 914.84,-98.73 977.62,-93.63"/>
<polygon fill="black" stroke="black" points="977.81,-97.12 987.52,-92.86 977.27,-90.15 977.81,-97.12"/>
</g>
<!-- aggregator_factory&#45;&gt;system_addresses -->
<g id="edge60" class="edge">
<title>aggregator_factory&#45;&gt;system_addresses</title>
<path fill="none" stroke="black" d="M816.84,-363.17C854.25,-351.88 907.28,-335.88 947.17,-323.85"/>
<polygon fill="black" stroke="black" points="948.04,-327.24 956.6,-321 946.02,-320.54 948.04,-327.24"/>
</g>
<!-- aggregator_factory&#45;&gt;aggregator -->
<g id="edge61" class="edge">
<title>aggregator_factory&#45;&gt;aggregator</title>
<path fill="none" stroke="black" d="M738.91,-361.29C717.44,-350.78 689.08,-336.9 666.41,-325.8"/>
<polygon fill="black" stroke="black" points="668,-322.68 657.48,-321.43 664.92,-328.97 668,-322.68"/>
</g>
<!-- aggregator_factory&#45;&gt;table -->
<g id="edge59" class="edge">
<title>aggregator_factory&#45;&gt;table</title>
<path fill="none" stroke="black" d="M780.15,-359.7C784.39,-351.67 789.53,-341.95 794.23,-333.05"/>
<polygon fill="black" stroke="black" points="797.18,-334.96 798.76,-324.48 790.99,-331.69 797.18,-334.96"/>
</g>
<!-- optional_aggregator&#45;&gt;error -->
<g id="edge63" class="edge">
<title>optional_aggregator&#45;&gt;error</title>
<path fill="none" stroke="black" d="M693.18,-431.56C690.07,-421.33 686.57,-408.08 685,-396 682.94,-380.13 682.74,-375.84 685,-360 692.07,-310.5 711.1,-177.74 748,-144 781.14,-113.7 911.54,-99.27 977.84,-93.78"/>
<polygon fill="black" stroke="black" points="977.86,-97.29 987.55,-93.01 977.3,-90.31 977.86,-97.29"/>
</g>
<!-- optional_aggregator&#45;&gt;option -->
<g id="edge62" class="edge">
<title>optional_aggregator&#45;&gt;option</title>
<path fill="none" stroke="black" d="M646.79,-435.75C569.32,-412.96 426.56,-358.2 366,-252 342.15,-210.18 356.56,-152.08 368.66,-118.32"/>
<polygon fill="black" stroke="black" points="371.82,-119.87 372.08,-109.28 365.27,-117.4 371.82,-119.87"/>
</g>
<!-- optional_aggregator&#45;&gt;aggregator -->
<g id="edge64" class="edge">
<title>optional_aggregator&#45;&gt;aggregator</title>
<path fill="none" stroke="black" d="M680.64,-432.43C670.85,-422.69 659.35,-409.64 652,-396 641.83,-377.14 635.74,-353.66 632.23,-335.56"/>
<polygon fill="black" stroke="black" points="635.69,-335 630.51,-325.76 628.79,-336.22 635.69,-335"/>
</g>
<!-- optional_aggregator&#45;&gt;aggregator_factory -->
<g id="edge65" class="edge">
<title>optional_aggregator&#45;&gt;aggregator_factory</title>
<path fill="none" stroke="black" d="M716.43,-432.05C725.18,-423.54 735.96,-413.07 745.61,-403.68"/>
<polygon fill="black" stroke="black" points="747.92,-406.32 752.65,-396.84 743.04,-401.31 747.92,-406.32"/>
</g>
<!-- table_with_length&#45;&gt;error -->
<g id="edge66" class="edge">
<title>table_with_length&#45;&gt;error</title>
<path fill="none" stroke="black" d="M338.06,-359.55C344.33,-315.01 367.56,-196.91 442,-144 485.54,-113.05 855.2,-96.9 977.73,-92.36"/>
<polygon fill="black" stroke="black" points="977.75,-95.86 987.61,-92 977.49,-88.86 977.75,-95.86"/>
</g>
<!-- table_with_length&#45;&gt;table -->
<g id="edge67" class="edge">
<title>table_with_length&#45;&gt;table</title>
<path fill="none" stroke="black" d="M398.19,-367.78C497.33,-353.07 688.28,-324.75 769.7,-312.68"/>
<polygon fill="black" stroke="black" points="770.02,-316.17 779.4,-311.24 769,-309.25 770.02,-316.17"/>
</g>
<!-- timestamp&#45;&gt;error -->
<g id="edge68" class="edge">
<title>timestamp&#45;&gt;error</title>
<path fill="none" stroke="black" d="M1808.17,-359.69C1807.63,-328.08 1802.45,-260.23 1770,-216 1732.99,-165.54 1708.59,-163.1 1649,-144 1537.76,-108.34 1176.75,-95.38 1056.43,-91.99"/>
<polygon fill="black" stroke="black" points="1056.83,-88.5 1046.74,-91.73 1056.64,-95.5 1056.83,-88.5"/>
</g>
<!-- timestamp&#45;&gt;system_addresses -->
<g id="edge69" class="edge">
<title>timestamp&#45;&gt;system_addresses</title>
<path fill="none" stroke="black" d="M1762.98,-371.29C1734.37,-367.77 1696.55,-363.31 1663,-360 1454.72,-339.44 1208.87,-321.31 1084.24,-312.56"/>
<polygon fill="black" stroke="black" points="1084.65,-309.08 1074.43,-311.88 1084.16,-316.07 1084.65,-309.08"/>
</g>
<!-- ed25519&#45;&gt;type_info -->
<g id="edge73" class="edge">
<title>ed25519&#45;&gt;type_info</title>
<path fill="none" stroke="black" d="M1512.76,-297.24C1454.04,-284.67 1338.04,-259.84 1271.68,-245.64"/>
<polygon fill="black" stroke="black" points="1272.67,-242.27 1262.16,-243.6 1271.21,-249.11 1272.67,-242.27"/>
</g>
<!-- ed25519&#45;&gt;error -->
<g id="edge71" class="edge">
<title>ed25519&#45;&gt;error</title>
<path fill="none" stroke="black" d="M1542.44,-287.95C1534.02,-268.12 1517.61,-235.62 1494,-216 1362.27,-106.55 1145.13,-91.83 1056.51,-90.62"/>
<polygon fill="black" stroke="black" points="1056.67,-87.12 1046.64,-90.54 1056.61,-94.12 1056.67,-87.12"/>
</g>
<!-- ed25519&#45;&gt;bcs -->
<g id="edge72" class="edge">
<title>ed25519&#45;&gt;bcs</title>
<path fill="none" stroke="black" d="M1553.95,-287.87C1560.87,-263.88 1573.54,-219.99 1581.87,-191.16"/>
<polygon fill="black" stroke="black" points="1585.21,-192.22 1584.62,-181.64 1578.48,-190.28 1585.21,-192.22"/>
</g>
<!-- ed25519&#45;&gt;option -->
<g id="edge70" class="edge">
<title>ed25519&#45;&gt;option</title>
<path fill="none" stroke="black" d="M1528.45,-290.03C1500.76,-270.48 1449.35,-236.37 1401,-216 1284.57,-166.95 1250.66,-164.56 1126,-144 862.81,-100.58 541.6,-92.72 425,-91.3"/>
<polygon fill="black" stroke="black" points="425.27,-87.81 415.23,-91.2 425.19,-94.81 425.27,-87.81"/>
</g>
<!-- ed25519&#45;&gt;hash -->
<g id="edge74" class="edge">
<title>ed25519&#45;&gt;hash</title>
<path fill="none" stroke="black" d="M1577.59,-292.65C1605.9,-280.41 1649.19,-261.71 1678.73,-248.95"/>
<polygon fill="black" stroke="black" points="1679.75,-252.32 1687.54,-245.14 1676.97,-245.89 1679.75,-252.32"/>
</g>
<!-- multi_ed25519&#45;&gt;error -->
<g id="edge76" class="edge">
<title>multi_ed25519&#45;&gt;error</title>
<path fill="none" stroke="black" d="M1600.65,-360C1625.79,-317.51 1682.56,-205.7 1626,-144 1587.49,-101.99 1184.87,-93.17 1056.26,-91.41"/>
<polygon fill="black" stroke="black" points="1056.59,-87.92 1046.55,-91.29 1056.5,-94.92 1056.59,-87.92"/>
</g>
<!-- multi_ed25519&#45;&gt;bcs -->
<g id="edge77" class="edge">
<title>multi_ed25519&#45;&gt;bcs</title>
<path fill="none" stroke="black" d="M1593.65,-359.91C1595.68,-349.57 1597.98,-336.09 1599,-324 1602.9,-277.74 1597.97,-223.86 1594.02,-191.64"/>
<polygon fill="black" stroke="black" points="1597.51,-191.39 1592.76,-181.92 1590.57,-192.28 1597.51,-191.39"/>
</g>
<!-- multi_ed25519&#45;&gt;option -->
<g id="edge75" class="edge">
<title>multi_ed25519&#45;&gt;option</title>
<path fill="none" stroke="black" d="M1562.23,-361.36C1496.82,-324.75 1334.16,-235.17 1275,-216 1112.83,-163.46 581.06,-110.05 424.03,-95.1"/>
<polygon fill="black" stroke="black" points="424.75,-91.65 414.47,-94.2 424.09,-98.62 424.75,-91.65"/>
</g>
<!-- multi_ed25519&#45;&gt;hash -->
<g id="edge78" class="edge">
<title>multi_ed25519&#45;&gt;hash</title>
<path fill="none" stroke="black" d="M1620.76,-361.99C1637.05,-352.82 1656.45,-339.81 1670,-324 1685.31,-306.14 1696.05,-281.6 1702.68,-262.81"/>
<polygon fill="black" stroke="black" points="1705.97,-264 1705.81,-253.41 1699.33,-261.79 1705.97,-264"/>
</g>
<!-- multi_ed25519&#45;&gt;ed25519 -->
<g id="edge79" class="edge">
<title>multi_ed25519&#45;&gt;ed25519</title>
<path fill="none" stroke="black" d="M1580.08,-360.05C1575.44,-352.14 1569.82,-342.54 1564.63,-333.69"/>
<polygon fill="black" stroke="black" points="1567.67,-331.95 1559.6,-325.1 1561.63,-335.49 1567.67,-331.95"/>
</g>
<!-- from_bcs&#45;&gt;string -->
<g id="edge80" class="edge">
<title>from_bcs&#45;&gt;string</title>
<path fill="none" stroke="black" d="M625.66,-217.12C616.1,-207.82 603.87,-195.93 593.32,-185.67"/>
<polygon fill="black" stroke="black" points="595.98,-183.38 586.37,-178.92 591.1,-188.4 595.98,-183.38"/>
</g>
</g>
</svg>
