<?xml version="1.0" encoding="UTF-8" standalone="no"?>
<!DOCTYPE svg PUBLIC "-//W3C//DTD SVG 1.1//EN"
 "http://www.w3.org/Graphics/SVG/1.1/DTD/svg11.dtd">
<!-- Generated by graphviz version 7.1.0 (20230121.1956)
 -->
<!-- Title: G Pages: 1 -->
<svg width="198pt" height="260pt"
 viewBox="0.00 0.00 197.84 260.00" xmlns="http://www.w3.org/2000/svg" xmlns:xlink="http://www.w3.org/1999/xlink">
<g id="graph0" class="graph" transform="scale(1 1) rotate(0) translate(4 256)">
<title>G</title>
<polygon fill="white" stroke="none" points="-4,4 -4,-256 193.84,-256 193.84,4 -4,4"/>
<!-- incentives -->
<g id="node1" class="node">
<title>incentives</title>
<ellipse fill="none" stroke="black" cx="63.75" cy="-18" rx="46.29" ry="18"/>
<text text-anchor="middle" x="63.75" y="-14.3" font-family="Times,serif" font-size="14.00">incentives</text>
</g>
<!-- registry -->
<g id="node2" class="node">
<title>registry</title>
<ellipse fill="none" stroke="black" cx="63.75" cy="-90" rx="37.89" ry="18"/>
<text text-anchor="middle" x="63.75" y="-86.3" font-family="Times,serif" font-size="14.00">registry</text>
</g>
<!-- registry&#45;&gt;incentives -->
<g id="edge1" class="edge">
<title>registry&#45;&gt;incentives</title>
<path fill="none" stroke="black" d="M63.75,-71.7C63.75,-64.41 63.75,-55.73 63.75,-47.54"/>
<polygon fill="black" stroke="black" points="67.25,-47.62 63.75,-37.62 60.25,-47.62 67.25,-47.62"/>
</g>
<!-- market -->
<g id="node3" class="node">
<title>market</title>
<ellipse fill="none" stroke="black" cx="35.75" cy="-234" rx="36" ry="18"/>
<text text-anchor="middle" x="35.75" y="-230.3" font-family="Times,serif" font-size="14.00">market</text>
</g>
<!-- market&#45;&gt;incentives -->
<g id="edge2" class="edge">
<title>market&#45;&gt;incentives</title>
<path fill="none" stroke="black" d="M28.65,-215.91C17.22,-185.79 -2.13,-121.73 16.75,-72 20.89,-61.08 28.43,-50.96 36.28,-42.56"/>
<polygon fill="black" stroke="black" points="38.73,-45.06 43.36,-35.53 33.8,-40.09 38.73,-45.06"/>
</g>
<!-- market&#45;&gt;registry -->
<g id="edge5" class="edge">
<title>market&#45;&gt;registry</title>
<path fill="none" stroke="black" d="M39.18,-215.59C43.93,-191.5 52.56,-147.75 58.22,-119.03"/>
<polygon fill="black" stroke="black" points="61.58,-120.08 60.08,-109.6 54.71,-118.73 61.58,-120.08"/>
</g>
<!-- user -->
<g id="node5" class="node">
<title>user</title>
<ellipse fill="none" stroke="black" cx="90.75" cy="-162" rx="27" ry="18"/>
<text text-anchor="middle" x="90.75" y="-158.3" font-family="Times,serif" font-size="14.00">user</text>
</g>
<!-- market&#45;&gt;user -->
<g id="edge6" class="edge">
<title>market&#45;&gt;user</title>
<path fill="none" stroke="black" d="M48.5,-216.76C55.43,-207.95 64.13,-196.88 71.83,-187.08"/>
<polygon fill="black" stroke="black" points="74.45,-189.4 77.88,-179.38 68.95,-185.08 74.45,-189.4"/>
</g>
<!-- govern -->
<g id="node4" class="node">
<title>govern</title>
<ellipse fill="none" stroke="black" cx="154.75" cy="-90" rx="35.19" ry="18"/>
<text text-anchor="middle" x="154.75" y="-86.3" font-family="Times,serif" font-size="14.00">govern</text>
</g>
<!-- govern&#45;&gt;incentives -->
<g id="edge3" class="edge">
<title>govern&#45;&gt;incentives</title>
<path fill="none" stroke="black" d="M135.89,-74.5C123.42,-64.9 106.83,-52.14 92.7,-41.27"/>
<polygon fill="black" stroke="black" points="95.1,-38.7 85.04,-35.38 90.83,-44.25 95.1,-38.7"/>
</g>
<!-- user&#45;&gt;registry -->
<g id="edge4" class="edge">
<title>user&#45;&gt;registry</title>
<path fill="none" stroke="black" d="M84.21,-144.05C81.23,-136.32 77.62,-126.96 74.26,-118.27"/>
<polygon fill="black" stroke="black" points="77.63,-117.27 70.77,-109.2 71.1,-119.79 77.63,-117.27"/>
</g>
</g>
</svg>
