<?xml version="1.0" encoding="UTF-8" standalone="no"?>
<!DOCTYPE svg PUBLIC "-//W3C//DTD SVG 1.1//EN"
 "http://www.w3.org/Graphics/SVG/1.1/DTD/svg11.dtd">
<!-- Generated by graphviz version 8.0.5 (20230430.1635)
 -->
<!-- Title: G Pages: 1 -->
<svg width="2362pt" height="692pt"
 viewBox="0.00 0.00 2361.63 692.00" xmlns="http://www.w3.org/2000/svg" xmlns:xlink="http://www.w3.org/1999/xlink">
<g id="graph0" class="graph" transform="scale(1 1) rotate(0) translate(4 688)">
<title>G</title>
<polygon fill="white" stroke="none" points="-4,4 -4,-688 2357.63,-688 2357.63,4 -4,4"/>
<!-- incentives -->
<g id="node1" class="node">
<title>incentives</title>
<ellipse fill="none" stroke="black" cx="855" cy="-666" rx="48.28" ry="18"/>
<text text-anchor="middle" x="855" y="-660.95" font-family="Times,serif" font-size="14.00">incentives</text>
</g>
<!-- vector -->
<g id="node2" class="node">
<title>vector</title>
<ellipse fill="none" stroke="black" cx="364" cy="-18" rx="33.95" ry="18"/>
<text text-anchor="middle" x="364" y="-12.95" font-family="Times,serif" font-size="14.00">vector</text>
</g>
<!-- incentives&#45;&gt;vector -->
<g id="edge1" class="edge">
<title>incentives&#45;&gt;vector</title>
<path fill="none" stroke="black" d="M903.62,-665.16C1146.95,-665.31 2221,-658.31 2221,-523 2221,-523 2221,-523 2221,-161 2221,-128.62 2715.17,-178.25 1785,-72 1508.93,-40.47 619.63,-23.41 409.02,-19.75"/>
<polygon fill="black" stroke="black" points="409.15,-16.24 399.09,-19.56 409.03,-23.24 409.15,-16.24"/>
</g>
<!-- signer -->
<g id="node3" class="node">
<title>signer</title>
<ellipse fill="none" stroke="black" cx="530" cy="-90" rx="33.44" ry="18"/>
<text text-anchor="middle" x="530" y="-84.95" font-family="Times,serif" font-size="14.00">signer</text>
</g>
<!-- incentives&#45;&gt;signer -->
<g id="edge2" class="edge">
<title>incentives&#45;&gt;signer</title>
<path fill="none" stroke="black" d="M807.51,-662.18C627.86,-650.89 0,-605.52 0,-523 0,-523 0,-523 0,-449 0,-262.87 121.91,-229.97 287,-144 351.09,-110.63 435.23,-98.24 485.81,-93.66"/>
<polygon fill="black" stroke="black" points="486.02,-97.07 495.69,-92.75 485.44,-90.1 486.02,-97.07"/>
</g>
<!-- type_info -->
<g id="node4" class="node">
<title>type_info</title>
<ellipse fill="none" stroke="black" cx="1228" cy="-234" rx="46.23" ry="18"/>
<text text-anchor="middle" x="1228" y="-228.95" font-family="Times,serif" font-size="14.00">type_info</text>
</g>
<!-- incentives&#45;&gt;type_info -->
<g id="edge3" class="edge">
<title>incentives&#45;&gt;type_info</title>
<path fill="none" stroke="black" d="M902.88,-662.91C977.92,-656.76 1121.41,-632.79 1187,-540 1251.66,-448.52 1158.01,-394.74 1192,-288 1195.17,-278.04 1200.87,-268.24 1206.81,-259.84"/>
<polygon fill="black" stroke="black" points="1210.01,-262.41 1213.24,-252.32 1204.42,-258.2 1210.01,-262.41"/>
</g>
<!-- coin -->
<g id="node5" class="node">
<title>coin</title>
<ellipse fill="none" stroke="black" cx="855" cy="-522" rx="27" ry="18"/>
<text text-anchor="middle" x="855" y="-516.95" font-family="Times,serif" font-size="14.00">coin</text>
</g>
<!-- incentives&#45;&gt;coin -->
<g id="edge4" class="edge">
<title>incentives&#45;&gt;coin</title>
<path fill="none" stroke="black" d="M855,-647.59C855,-623.5 855,-579.75 855,-551.03"/>
<polygon fill="black" stroke="black" points="858.5,-551.11 855,-541.11 851.5,-551.11 858.5,-551.11"/>
</g>
<!-- aptos_coin -->
<g id="node6" class="node">
<title>aptos_coin</title>
<ellipse fill="none" stroke="black" cx="504" cy="-594" rx="50.84" ry="18"/>
<text text-anchor="middle" x="504" y="-588.95" font-family="Times,serif" font-size="14.00">aptos_coin</text>
</g>
<!-- incentives&#45;&gt;aptos_coin -->
<g id="edge5" class="edge">
<title>incentives&#45;&gt;aptos_coin</title>
<path fill="none" stroke="black" d="M813.01,-656.63C749.32,-643.92 628.29,-619.79 558.08,-605.79"/>
<polygon fill="black" stroke="black" points="559.18,-602.24 548.69,-603.71 557.81,-609.1 559.18,-602.24"/>
</g>
<!-- tablist -->
<g id="node7" class="node">
<title>tablist</title>
<ellipse fill="none" stroke="black" cx="190" cy="-450" rx="33.44" ry="18"/>
<text text-anchor="middle" x="190" y="-444.95" font-family="Times,serif" font-size="14.00">tablist</text>
</g>
<!-- incentives&#45;&gt;tablist -->
<g id="edge6" class="edge">
<title>incentives&#45;&gt;tablist</title>
<path fill="none" stroke="black" d="M808.01,-661.37C679.06,-650.52 323.55,-614.37 237,-540 218.1,-523.76 205.67,-498 198.37,-478.36"/>
<polygon fill="black" stroke="black" points="201.42,-477.48 194.83,-469.18 194.81,-479.78 201.42,-477.48"/>
</g>
<!-- resource_account -->
<g id="node8" class="node">
<title>resource_account</title>
<ellipse fill="none" stroke="black" cx="1747" cy="-522" rx="75.41" ry="18"/>
<text text-anchor="middle" x="1747" y="-516.95" font-family="Times,serif" font-size="14.00">resource_account</text>
</g>
<!-- incentives&#45;&gt;resource_account -->
<g id="edge7" class="edge">
<title>incentives&#45;&gt;resource_account</title>
<path fill="none" stroke="black" d="M900.7,-659.86C976.26,-651.18 1131.92,-632.55 1263,-612 1412.59,-588.55 1587.04,-554.91 1680.22,-536.43"/>
<polygon fill="black" stroke="black" points="1680.78,-539.69 1689.9,-534.31 1679.41,-532.82 1680.78,-539.69"/>
</g>
<!-- string -->
<g id="node9" class="node">
<title>string</title>
<ellipse fill="none" stroke="black" cx="364" cy="-162" rx="31.9" ry="18"/>
<text text-anchor="middle" x="364" y="-156.95" font-family="Times,serif" font-size="14.00">string</text>
</g>
<!-- type_info&#45;&gt;string -->
<g id="edge8" class="edge">
<title>type_info&#45;&gt;string</title>
<path fill="none" stroke="black" d="M1183.07,-229.36C1033.18,-217.22 551.58,-178.2 406.05,-166.41"/>
<polygon fill="black" stroke="black" points="406.62,-162.86 396.37,-165.54 406.05,-169.84 406.62,-162.86"/>
</g>
<!-- error -->
<g id="node10" class="node">
<title>error</title>
<ellipse fill="none" stroke="black" cx="1200" cy="-90" rx="28.83" ry="18"/>
<text text-anchor="middle" x="1200" y="-84.95" font-family="Times,serif" font-size="14.00">error</text>
</g>
<!-- type_info&#45;&gt;error -->
<g id="edge9" class="edge">
<title>type_info&#45;&gt;error</title>
<path fill="none" stroke="black" d="M1210.3,-217.22C1200.82,-207.54 1190.07,-194.29 1185,-180 1177.89,-159.94 1182.54,-136.12 1188.48,-118.17"/>
<polygon fill="black" stroke="black" points="1192.11,-119.43 1192.25,-108.84 1185.54,-117.03 1192.11,-119.43"/>
</g>
<!-- features -->
<g id="node11" class="node">
<title>features</title>
<ellipse fill="none" stroke="black" cx="1234" cy="-162" rx="40.09" ry="18"/>
<text text-anchor="middle" x="1234" y="-156.95" font-family="Times,serif" font-size="14.00">features</text>
</g>
<!-- type_info&#45;&gt;features -->
<g id="edge10" class="edge">
<title>type_info&#45;&gt;features</title>
<path fill="none" stroke="black" d="M1229.48,-215.7C1230.12,-208.24 1230.89,-199.32 1231.6,-190.97"/>
<polygon fill="black" stroke="black" points="1235.17,-191.37 1232.53,-181.1 1228.19,-190.77 1235.17,-191.37"/>
</g>
<!-- bcs -->
<g id="node12" class="node">
<title>bcs</title>
<ellipse fill="none" stroke="black" cx="1717" cy="-162" rx="27" ry="18"/>
<text text-anchor="middle" x="1717" y="-156.95" font-family="Times,serif" font-size="14.00">bcs</text>
</g>
<!-- type_info&#45;&gt;bcs -->
<g id="edge11" class="edge">
<title>type_info&#45;&gt;bcs</title>
<path fill="none" stroke="black" d="M1270.97,-226.85C1365.62,-213.3 1590.76,-181.07 1679.81,-168.32"/>
<polygon fill="black" stroke="black" points="1680.07,-171.68 1689.47,-166.8 1679.08,-164.75 1680.07,-171.68"/>
</g>
<!-- coin&#45;&gt;signer -->
<g id="edge14" class="edge">
<title>coin&#45;&gt;signer</title>
<path fill="none" stroke="black" d="M827.93,-519.65C756.55,-515.66 565.08,-501.98 513,-468 437.92,-419.02 399.76,-374.84 422,-288 439.23,-220.71 484.75,-151.71 510.87,-115.94"/>
<polygon fill="black" stroke="black" points="514.22,-118.29 517.37,-108.17 508.6,-114.12 514.22,-118.29"/>
</g>
<!-- coin&#45;&gt;type_info -->
<g id="edge16" class="edge">
<title>coin&#45;&gt;type_info</title>
<path fill="none" stroke="black" d="M882.37,-521.52C927.16,-520.95 1016.75,-513.65 1073,-468 1141.84,-412.13 1103.2,-356.9 1159,-288 1169.02,-275.63 1182.49,-264.46 1194.87,-255.6"/>
<polygon fill="black" stroke="black" points="1196.37,-258.12 1202.62,-249.57 1192.4,-252.36 1196.37,-258.12"/>
</g>
<!-- coin&#45;&gt;string -->
<g id="edge13" class="edge">
<title>coin&#45;&gt;string</title>
<path fill="none" stroke="black" d="M827.79,-520.22C727.58,-517.07 383.16,-503.72 351,-468 280.39,-389.58 327.48,-248.64 351.9,-189.88"/>
<polygon fill="black" stroke="black" points="355.45,-191.46 356.16,-180.89 349.01,-188.72 355.45,-191.46"/>
</g>
<!-- coin&#45;&gt;error -->
<g id="edge15" class="edge">
<title>coin&#45;&gt;error</title>
<path fill="none" stroke="black" d="M873.21,-508.23C902.54,-487.1 961.09,-442.55 1002,-396 1084.21,-302.44 1157.3,-171.95 1186.51,-117.01"/>
<polygon fill="black" stroke="black" points="1190.03,-118.84 1191.6,-108.36 1183.83,-115.57 1190.03,-118.84"/>
</g>
<!-- option -->
<g id="node13" class="node">
<title>option</title>
<ellipse fill="none" stroke="black" cx="266" cy="-90" rx="34.46" ry="18"/>
<text text-anchor="middle" x="266" y="-84.95" font-family="Times,serif" font-size="14.00">option</text>
</g>
<!-- coin&#45;&gt;option -->
<g id="edge12" class="edge">
<title>coin&#45;&gt;option</title>
<path fill="none" stroke="black" d="M827.66,-521.09C703.28,-521.22 194.99,-518.64 148,-468 98.56,-414.71 152.72,-204.51 193,-144 202.73,-129.38 217.94,-117.4 231.97,-108.55"/>
<polygon fill="black" stroke="black" points="233.6,-111.06 240.4,-102.93 230.02,-105.04 233.6,-111.06"/>
</g>
<!-- system_addresses -->
<g id="node14" class="node">
<title>system_addresses</title>
<ellipse fill="none" stroke="black" cx="1278" cy="-306" rx="76.94" ry="18"/>
<text text-anchor="middle" x="1278" y="-300.95" font-family="Times,serif" font-size="14.00">system_addresses</text>
</g>
<!-- coin&#45;&gt;system_addresses -->
<g id="edge17" class="edge">
<title>coin&#45;&gt;system_addresses</title>
<path fill="none" stroke="black" d="M882.07,-520.27C930.66,-517.95 1034.74,-508.25 1111,-468 1144.25,-450.45 1217.84,-372.85 1255.23,-332.14"/>
<polygon fill="black" stroke="black" points="1257.47,-334.78 1261.64,-325.04 1252.3,-330.06 1257.47,-334.78"/>
</g>
<!-- event -->
<g id="node15" class="node">
<title>event</title>
<ellipse fill="none" stroke="black" cx="1930" cy="-378" rx="30.88" ry="18"/>
<text text-anchor="middle" x="1930" y="-372.95" font-family="Times,serif" font-size="14.00">event</text>
</g>
<!-- coin&#45;&gt;event -->
<g id="edge18" class="edge">
<title>coin&#45;&gt;event</title>
<path fill="none" stroke="black" d="M882.27,-521.49C984.01,-522.84 1350.76,-523.34 1646,-468 1737.94,-450.77 1841.86,-413.4 1894.85,-392.99"/>
<polygon fill="black" stroke="black" points="1896,-395.91 1904.05,-389.03 1893.47,-389.39 1896,-395.91"/>
</g>
<!-- account -->
<g id="node16" class="node">
<title>account</title>
<ellipse fill="none" stroke="black" cx="1597" cy="-450" rx="39.58" ry="18"/>
<text text-anchor="middle" x="1597" y="-444.95" font-family="Times,serif" font-size="14.00">account</text>
</g>
<!-- coin&#45;&gt;account -->
<g id="edge19" class="edge">
<title>coin&#45;&gt;account</title>
<path fill="none" stroke="black" d="M881.85,-518.47C991.24,-508.15 1404.32,-469.18 1547.65,-455.66"/>
<polygon fill="black" stroke="black" points="1547.67,-459.08 1557.3,-454.65 1547.01,-452.11 1547.67,-459.08"/>
</g>
<!-- aggregator -->
<g id="node17" class="node">
<title>aggregator</title>
<ellipse fill="none" stroke="black" cx="481" cy="-306" rx="50.33" ry="18"/>
<text text-anchor="middle" x="481" y="-300.95" font-family="Times,serif" font-size="14.00">aggregator</text>
</g>
<!-- coin&#45;&gt;aggregator -->
<g id="edge20" class="edge">
<title>coin&#45;&gt;aggregator</title>
<path fill="none" stroke="black" d="M827.72,-521.65C756.3,-521.7 563.62,-510.72 481,-396 468.45,-378.58 469.53,-353.85 473.13,-334.88"/>
<polygon fill="black" stroke="black" points="476.75,-335.72 475.53,-325.2 469.92,-334.19 476.75,-335.72"/>
</g>
<!-- aggregator_factory -->
<g id="node18" class="node">
<title>aggregator_factory</title>
<ellipse fill="none" stroke="black" cx="912" cy="-378" rx="81.04" ry="18"/>
<text text-anchor="middle" x="912" y="-372.95" font-family="Times,serif" font-size="14.00">aggregator_factory</text>
</g>
<!-- coin&#45;&gt;aggregator_factory -->
<g id="edge21" class="edge">
<title>coin&#45;&gt;aggregator_factory</title>
<path fill="none" stroke="black" d="M868.12,-506.26C876.44,-496.16 886.78,-482.08 893,-468 901.58,-448.59 906.39,-425.04 909.02,-407.04"/>
<polygon fill="black" stroke="black" points="912.59,-407.75 910.42,-397.38 905.65,-406.84 912.59,-407.75"/>
</g>
<!-- optional_aggregator -->
<g id="node19" class="node">
<title>optional_aggregator</title>
<ellipse fill="none" stroke="black" cx="799" cy="-450" rx="85.13" ry="18"/>
<text text-anchor="middle" x="799" y="-444.95" font-family="Times,serif" font-size="14.00">optional_aggregator</text>
</g>
<!-- coin&#45;&gt;optional_aggregator -->
<g id="edge22" class="edge">
<title>coin&#45;&gt;optional_aggregator</title>
<path fill="none" stroke="black" d="M842.85,-505.81C835.98,-497.23 827.22,-486.27 819.33,-476.42"/>
<polygon fill="black" stroke="black" points="821.68,-474.75 812.7,-469.13 816.22,-479.12 821.68,-474.75"/>
</g>
<!-- aptos_coin&#45;&gt;vector -->
<g id="edge23" class="edge">
<title>aptos_coin&#45;&gt;vector</title>
<path fill="none" stroke="black" d="M453.94,-590.45C362.91,-585.11 174.35,-570.63 117,-540 70.34,-515.09 38,-503.89 38,-451 38,-451 38,-451 38,-161 38,-39.93 229.31,-21.02 318.82,-18.8"/>
<polygon fill="black" stroke="black" points="318.79,-22.28 328.73,-18.6 318.67,-15.28 318.79,-22.28"/>
</g>
<!-- aptos_coin&#45;&gt;signer -->
<g id="edge26" class="edge">
<title>aptos_coin&#45;&gt;signer</title>
<path fill="none" stroke="black" d="M459.25,-585.22C408.1,-575.63 328.3,-558.34 304,-540 267.25,-512.27 251,-497.04 251,-451 251,-451 251,-451 251,-377 251,-268.61 244.5,-218.74 323,-144 366.81,-102.29 438.79,-92.21 485.28,-90.39"/>
<polygon fill="black" stroke="black" points="485.33,-93.86 495.23,-90.1 485.14,-86.87 485.33,-93.86"/>
</g>
<!-- aptos_coin&#45;&gt;coin -->
<g id="edge29" class="edge">
<title>aptos_coin&#45;&gt;coin</title>
<path fill="none" stroke="black" d="M547.39,-584.35C617.27,-570.41 753.46,-543.25 818.6,-530.26"/>
<polygon fill="black" stroke="black" points="819.04,-533.54 828.16,-528.15 817.67,-526.68 819.04,-533.54"/>
</g>
<!-- aptos_coin&#45;&gt;string -->
<g id="edge25" class="edge">
<title>aptos_coin&#45;&gt;string</title>
<path fill="none" stroke="black" d="M459.97,-584.55C397.07,-569.63 289,-532.19 289,-451 289,-451 289,-451 289,-377 289,-303.48 296.98,-283.11 327,-216 331.44,-206.07 337.82,-196.06 344.04,-187.46"/>
<polygon fill="black" stroke="black" points="347.39,-189.83 350.62,-179.74 341.8,-185.61 347.39,-189.83"/>
</g>
<!-- aptos_coin&#45;&gt;error -->
<g id="edge27" class="edge">
<title>aptos_coin&#45;&gt;error</title>
<path fill="none" stroke="black" d="M553.95,-590.24C644.8,-584.56 833.07,-569.53 891,-540 982.03,-493.6 1139.36,-205.98 1186.36,-117.12"/>
<polygon fill="black" stroke="black" points="1189.85,-119.01 1191.41,-108.53 1183.66,-115.75 1189.85,-119.01"/>
</g>
<!-- aptos_coin&#45;&gt;option -->
<g id="edge24" class="edge">
<title>aptos_coin&#45;&gt;option</title>
<path fill="none" stroke="black" d="M456.15,-587.43C344.46,-573.09 76,-530.36 76,-451 76,-451 76,-451 76,-233 76,-192.03 71.7,-173.62 100,-144 131.48,-111.05 183.39,-98.53 220.78,-93.8"/>
<polygon fill="black" stroke="black" points="220.85,-97.2 230.4,-92.61 220.07,-90.24 220.85,-97.2"/>
</g>
<!-- aptos_coin&#45;&gt;system_addresses -->
<g id="edge28" class="edge">
<title>aptos_coin&#45;&gt;system_addresses</title>
<path fill="none" stroke="black" d="M554.95,-592.13C704.78,-589.15 1136.57,-577.39 1187,-540 1221.27,-514.59 1256.54,-390.95 1271.08,-334.82"/>
<polygon fill="black" stroke="black" points="1274.7,-335.79 1273.79,-325.24 1267.92,-334.06 1274.7,-335.79"/>
</g>
<!-- tablist&#45;&gt;option -->
<g id="edge30" class="edge">
<title>tablist&#45;&gt;option</title>
<path fill="none" stroke="black" d="M190,-431.51C190,-404.71 190,-351.87 190,-307 190,-307 190,-307 190,-233 190,-192.03 193.66,-179.56 214,-144 220.58,-132.49 230.27,-121.67 239.51,-112.85"/>
<polygon fill="black" stroke="black" points="241.38,-115.96 246.42,-106.64 236.67,-110.79 241.38,-115.96"/>
</g>
<!-- table_with_length -->
<g id="node20" class="node">
<title>table_with_length</title>
<ellipse fill="none" stroke="black" cx="698" cy="-378" rx="77.45" ry="18"/>
<text text-anchor="middle" x="698" y="-372.95" font-family="Times,serif" font-size="14.00">table_with_length</text>
</g>
<!-- tablist&#45;&gt;table_with_length -->
<g id="edge31" class="edge">
<title>tablist&#45;&gt;table_with_length</title>
<path fill="none" stroke="black" d="M222.16,-444.57C301.71,-433.61 509.4,-404.99 622.29,-389.43"/>
<polygon fill="black" stroke="black" points="622.48,-392.8 631.91,-387.97 621.53,-385.87 622.48,-392.8"/>
</g>
<!-- resource_account&#45;&gt;bcs -->
<g id="edge32" class="edge">
<title>resource_account&#45;&gt;bcs</title>
<path fill="none" stroke="black" d="M1820.97,-518.08C1949.36,-509.87 2193.6,-478.64 2126,-360 2047.49,-222.21 1839.72,-179.32 1754.39,-167.27"/>
<polygon fill="black" stroke="black" points="1755.04,-163.69 1744.66,-165.83 1754.1,-170.63 1755.04,-163.69"/>
</g>
<!-- resource_account&#45;&gt;account -->
<g id="edge33" class="edge">
<title>resource_account&#45;&gt;account</title>
<path fill="none" stroke="black" d="M1713.71,-505.46C1689.89,-494.35 1657.84,-479.39 1633.35,-467.96"/>
<polygon fill="black" stroke="black" points="1635.25,-464.52 1624.7,-463.46 1632.29,-470.86 1635.25,-464.52"/>
</g>
<!-- timestamp -->
<g id="node21" class="node">
<title>timestamp</title>
<ellipse fill="none" stroke="black" cx="2067" cy="-378" rx="50.33" ry="18"/>
<text text-anchor="middle" x="2067" y="-372.95" font-family="Times,serif" font-size="14.00">timestamp</text>
</g>
<!-- resource_account&#45;&gt;timestamp -->
<g id="edge34" class="edge">
<title>resource_account&#45;&gt;timestamp</title>
<path fill="none" stroke="black" d="M1781.55,-505.67C1841.1,-479.24 1962.79,-425.24 2026.33,-397.05"/>
<polygon fill="black" stroke="black" points="2027.66,-399.84 2035.38,-392.59 2024.82,-393.45 2027.66,-399.84"/>
</g>
<!-- string&#45;&gt;vector -->
<g id="edge35" class="edge">
<title>string&#45;&gt;vector</title>
<path fill="none" stroke="black" d="M364,-143.59C364,-119.5 364,-75.75 364,-47.03"/>
<polygon fill="black" stroke="black" points="367.5,-47.11 364,-37.11 360.5,-47.11 367.5,-47.11"/>
</g>
<!-- string&#45;&gt;option -->
<g id="edge36" class="edge">
<title>string&#45;&gt;option</title>
<path fill="none" stroke="black" d="M344.64,-147.17C330.24,-136.88 310.36,-122.69 294.2,-111.14"/>
<polygon fill="black" stroke="black" points="296.83,-108 286.66,-105.04 292.76,-113.7 296.83,-108"/>
</g>
<!-- features&#45;&gt;signer -->
<g id="edge37" class="edge">
<title>features&#45;&gt;signer</title>
<path fill="none" stroke="black" d="M1198.3,-153.58C1181.31,-150.25 1160.67,-146.53 1142,-144 930.34,-115.35 675.28,-99.09 574.27,-93.37"/>
<polygon fill="black" stroke="black" points="574.47,-89.82 564.29,-92.75 574.08,-96.81 574.47,-89.82"/>
</g>
<!-- features&#45;&gt;error -->
<g id="edge38" class="edge">
<title>features&#45;&gt;error</title>
<path fill="none" stroke="black" d="M1225.77,-144.05C1221.83,-135.94 1217.02,-126.04 1212.63,-117.01"/>
<polygon fill="black" stroke="black" points="1215.44,-115.77 1207.92,-108.31 1209.14,-118.83 1215.44,-115.77"/>
</g>
<!-- option&#45;&gt;vector -->
<g id="edge39" class="edge">
<title>option&#45;&gt;vector</title>
<path fill="none" stroke="black" d="M285.83,-74.83C300.14,-64.62 319.66,-50.67 335.62,-39.27"/>
<polygon fill="black" stroke="black" points="337.43,-41.57 343.53,-32.91 333.36,-35.87 337.43,-41.57"/>
</g>
<!-- system_addresses&#45;&gt;signer -->
<g id="edge40" class="edge">
<title>system_addresses&#45;&gt;signer</title>
<path fill="none" stroke="black" d="M1230.64,-291.45C1093.18,-252.12 695.89,-138.46 569.27,-102.23"/>
<polygon fill="black" stroke="black" points="570.48,-98.65 559.9,-99.27 568.55,-105.38 570.48,-98.65"/>
</g>
<!-- system_addresses&#45;&gt;error -->
<g id="edge41" class="edge">
<title>system_addresses&#45;&gt;error</title>
<path fill="none" stroke="black" d="M1283.92,-287.71C1293.41,-256.71 1308.53,-190.6 1283,-144 1272.67,-125.15 1252.47,-112.03 1234.58,-103.56"/>
<polygon fill="black" stroke="black" points="1236.53,-100.15 1225.96,-99.33 1233.71,-106.56 1236.53,-100.15"/>
</g>
<!-- event&#45;&gt;bcs -->
<g id="edge42" class="edge">
<title>event&#45;&gt;bcs</title>
<path fill="none" stroke="black" d="M1932.45,-359.67C1934.29,-341.02 1934.89,-310.94 1924,-288 1913.96,-266.84 1866.73,-228.63 1847,-216 1816.92,-196.74 1778.68,-182.16 1751.48,-173.22"/>
<polygon fill="black" stroke="black" points="1752.86,-169.67 1742.27,-169.96 1750.73,-176.34 1752.86,-169.67"/>
</g>
<!-- guid -->
<g id="node22" class="node">
<title>guid</title>
<ellipse fill="none" stroke="black" cx="1888" cy="-306" rx="27.3" ry="18"/>
<text text-anchor="middle" x="1888" y="-300.95" font-family="Times,serif" font-size="14.00">guid</text>
</g>
<!-- event&#45;&gt;guid -->
<g id="edge43" class="edge">
<title>event&#45;&gt;guid</title>
<path fill="none" stroke="black" d="M1920.26,-360.76C1915.22,-352.37 1908.96,-341.93 1903.3,-332.5"/>
<polygon fill="black" stroke="black" points="1905.83,-330.92 1897.69,-324.15 1899.83,-334.52 1905.83,-330.92"/>
</g>
<!-- account&#45;&gt;vector -->
<g id="edge44" class="edge">
<title>account&#45;&gt;vector</title>
<path fill="none" stroke="black" d="M1636.51,-447.69C1753.08,-443.46 2089.68,-428.51 2126,-396 2156.14,-369.02 2145,-347.45 2145,-307 2145,-307 2145,-307 2145,-161 2145,-71.13 684.97,-27.59 408.78,-20.16"/>
<polygon fill="black" stroke="black" points="409.08,-16.64 398.99,-19.87 408.89,-23.64 409.08,-16.64"/>
</g>
<!-- account&#45;&gt;signer -->
<g id="edge46" class="edge">
<title>account&#45;&gt;signer</title>
<path fill="none" stroke="black" d="M1557.25,-448.24C1377.49,-444.65 647.71,-428.12 612,-396 596.94,-382.45 588.61,-235.47 583,-216 572.84,-180.72 555.43,-142.1 543.34,-117.26"/>
<polygon fill="black" stroke="black" points="546.09,-115.93 538.53,-108.51 539.82,-119.03 546.09,-115.93"/>
</g>
<!-- account&#45;&gt;type_info -->
<g id="edge49" class="edge">
<title>account&#45;&gt;type_info</title>
<path fill="none" stroke="black" d="M1560.9,-442.19C1528.92,-434.82 1482.16,-420.68 1448,-396 1398.71,-360.38 1412.75,-324.35 1364,-288 1338.26,-268.81 1304.69,-255.63 1277.35,-247.22"/>
<polygon fill="black" stroke="black" points="1278.4,-243.59 1267.82,-244.12 1276.42,-250.3 1278.4,-243.59"/>
</g>
<!-- account&#45;&gt;error -->
<g id="edge47" class="edge">
<title>account&#45;&gt;error</title>
<path fill="none" stroke="black" d="M1635.89,-445.98C1726.49,-438.6 1945.79,-418.59 1970,-396 1999.57,-368.41 1989,-347.45 1989,-307 1989,-307 1989,-307 1989,-233 1989,-130.4 1875.56,-168.76 1776,-144 1579.34,-95.09 1334.81,-90.35 1240.08,-90.54"/>
<polygon fill="black" stroke="black" points="1240.27,-87.05 1230.29,-90.59 1240.3,-94.05 1240.27,-87.05"/>
</g>
<!-- account&#45;&gt;bcs -->
<g id="edge48" class="edge">
<title>account&#45;&gt;bcs</title>
<path fill="none" stroke="black" d="M1626.39,-437.44C1631.56,-435.54 1636.92,-433.65 1642,-432 1699.84,-413.23 1737.09,-444.33 1774,-396 1822.5,-332.51 1766.29,-233.32 1735.08,-187.6"/>
<polygon fill="black" stroke="black" points="1737.44,-185.87 1728.84,-179.68 1731.71,-189.88 1737.44,-185.87"/>
</g>
<!-- account&#45;&gt;option -->
<g id="edge45" class="edge">
<title>account&#45;&gt;option</title>
<path fill="none" stroke="black" d="M1557.19,-448.31C1371.91,-444.9 601.49,-428.82 563,-396 525.66,-364.16 570.07,-326.79 540,-288 531.75,-277.36 333.02,-189 323,-180 303.55,-162.55 288.11,-136.97 278.22,-117.71"/>
<polygon fill="black" stroke="black" points="281.01,-116.44 273.44,-109.02 274.73,-119.54 281.01,-116.44"/>
</g>
<!-- account&#45;&gt;system_addresses -->
<g id="edge51" class="edge">
<title>account&#45;&gt;system_addresses</title>
<path fill="none" stroke="black" d="M1560.08,-442.89C1522.05,-435.57 1461.89,-421.02 1415,-396 1393.01,-384.27 1392.5,-374.18 1372,-360 1355.26,-348.42 1335.79,-337.12 1318.93,-327.95"/>
<polygon fill="black" stroke="black" points="1320.81,-324.45 1310.34,-322.81 1317.5,-330.62 1320.81,-324.45"/>
</g>
<!-- account&#45;&gt;event -->
<g id="edge57" class="edge">
<title>account&#45;&gt;event</title>
<path fill="none" stroke="black" d="M1634.77,-444.25C1690.27,-436.78 1796.84,-420.55 1885,-396 1888.38,-395.06 1891.86,-393.97 1895.32,-392.8"/>
<polygon fill="black" stroke="black" points="1896.27,-395.82 1904.51,-389.16 1893.91,-389.23 1896.27,-395.82"/>
</g>
<!-- account&#45;&gt;guid -->
<g id="edge55" class="edge">
<title>account&#45;&gt;guid</title>
<path fill="none" stroke="black" d="M1635.13,-445.11C1696.76,-438.15 1814.67,-421.82 1847,-396 1865.98,-380.84 1876.54,-354.91 1882.17,-334.93"/>
<polygon fill="black" stroke="black" points="1885.81,-335.83 1884.88,-325.27 1879.02,-334.1 1885.81,-335.83"/>
</g>
<!-- table -->
<g id="node23" class="node">
<title>table</title>
<ellipse fill="none" stroke="black" cx="912" cy="-306" rx="28.83" ry="18"/>
<text text-anchor="middle" x="912" y="-300.95" font-family="Times,serif" font-size="14.00">table</text>
</g>
<!-- account&#45;&gt;table -->
<g id="edge50" class="edge">
<title>account&#45;&gt;table</title>
<path fill="none" stroke="black" d="M1559.31,-443.99C1497.97,-435.61 1372.85,-417.51 1268,-396 1150.01,-371.79 1012.13,-334.8 948.09,-317.11"/>
<polygon fill="black" stroke="black" points="949.31,-313.54 938.73,-314.24 947.44,-320.28 949.31,-313.54"/>
</g>
<!-- hash -->
<g id="node24" class="node">
<title>hash</title>
<ellipse fill="none" stroke="black" cx="1657" cy="-234" rx="27.81" ry="18"/>
<text text-anchor="middle" x="1657" y="-228.95" font-family="Times,serif" font-size="14.00">hash</text>
</g>
<!-- account&#45;&gt;hash -->
<g id="edge52" class="edge">
<title>account&#45;&gt;hash</title>
<path fill="none" stroke="black" d="M1626.45,-437.62C1631.62,-435.7 1636.95,-433.76 1642,-432 1691.78,-414.68 1723.9,-438.55 1755,-396 1790.63,-347.25 1723.97,-285.12 1683.97,-254.23"/>
<polygon fill="black" stroke="black" points="1686.5,-251.01 1676.41,-247.78 1682.29,-256.6 1686.5,-251.01"/>
</g>
<!-- ed25519 -->
<g id="node25" class="node">
<title>ed25519</title>
<ellipse fill="none" stroke="black" cx="1530" cy="-306" rx="42.65" ry="18"/>
<text text-anchor="middle" x="1530" y="-300.95" font-family="Times,serif" font-size="14.00">ed25519</text>
</g>
<!-- account&#45;&gt;ed25519 -->
<g id="edge53" class="edge">
<title>account&#45;&gt;ed25519</title>
<path fill="none" stroke="black" d="M1636.05,-446.14C1669.31,-441.4 1715.22,-428.9 1738,-396 1747.11,-382.85 1747.82,-372.63 1738,-360 1718.97,-335.52 1636.8,-320.47 1581.61,-312.94"/>
<polygon fill="black" stroke="black" points="1582.33,-309.37 1571.95,-311.53 1581.41,-316.31 1582.33,-309.37"/>
</g>
<!-- multi_ed25519 -->
<g id="node26" class="node">
<title>multi_ed25519</title>
<ellipse fill="none" stroke="black" cx="1524" cy="-378" rx="67.22" ry="18"/>
<text text-anchor="middle" x="1524" y="-372.95" font-family="Times,serif" font-size="14.00">multi_ed25519</text>
</g>
<!-- account&#45;&gt;multi_ed25519 -->
<g id="edge54" class="edge">
<title>account&#45;&gt;multi_ed25519</title>
<path fill="none" stroke="black" d="M1580.8,-433.46C1571.49,-424.54 1559.61,-413.14 1549.12,-403.08"/>
<polygon fill="black" stroke="black" points="1552.07,-401.11 1542.43,-396.71 1547.23,-406.16 1552.07,-401.11"/>
</g>
<!-- from_bcs -->
<g id="node27" class="node">
<title>from_bcs</title>
<ellipse fill="none" stroke="black" cx="528" cy="-234" rx="46.23" ry="18"/>
<text text-anchor="middle" x="528" y="-228.95" font-family="Times,serif" font-size="14.00">from_bcs</text>
</g>
<!-- account&#45;&gt;from_bcs -->
<g id="edge56" class="edge">
<title>account&#45;&gt;from_bcs</title>
<path fill="none" stroke="black" d="M1557.08,-448.4C1373.08,-445.43 614.24,-431.11 579,-396 544.95,-362.07 590.82,-332.65 573,-288 568.7,-277.24 561.3,-267.09 553.73,-258.62"/>
<polygon fill="black" stroke="black" points="556.64,-256.55 547.2,-251.74 551.58,-261.39 556.64,-256.55"/>
</g>
<!-- create_signer -->
<g id="node28" class="node">
<title>create_signer</title>
<ellipse fill="none" stroke="black" cx="1669" cy="-378" rx="60.05" ry="18"/>
<text text-anchor="middle" x="1669" y="-372.95" font-family="Times,serif" font-size="14.00">create_signer</text>
</g>
<!-- account&#45;&gt;create_signer -->
<g id="edge58" class="edge">
<title>account&#45;&gt;create_signer</title>
<path fill="none" stroke="black" d="M1613.34,-433.12C1622.44,-424.27 1633.96,-413.07 1644.15,-403.16"/>
<polygon fill="black" stroke="black" points="1646.25,-406.03 1650.98,-396.55 1641.37,-401.01 1646.25,-406.03"/>
</g>
<!-- chain_id -->
<g id="node29" class="node">
<title>chain_id</title>
<ellipse fill="none" stroke="black" cx="1320" cy="-378" rx="42.65" ry="18"/>
<text text-anchor="middle" x="1320" y="-372.95" font-family="Times,serif" font-size="14.00">chain_id</text>
</g>
<!-- account&#45;&gt;chain_id -->
<g id="edge59" class="edge">
<title>account&#45;&gt;chain_id</title>
<path fill="none" stroke="black" d="M1562.18,-441.22C1518.68,-431.36 1442.06,-413.52 1377,-396 1372.74,-394.85 1368.31,-393.61 1363.89,-392.35"/>
<polygon fill="black" stroke="black" points="1365.25,-388.81 1354.67,-389.37 1363.29,-395.53 1365.25,-388.81"/>
</g>
<!-- aggregator_factory&#45;&gt;error -->
<g id="edge60" class="edge">
<title>aggregator_factory&#45;&gt;error</title>
<path fill="none" stroke="black" d="M925.69,-359.98C933.42,-349.89 942.92,-336.64 950,-324 992.45,-248.24 961.49,-202.13 1026,-144 1063.36,-110.33 1121.59,-98.04 1160.25,-93.56"/>
<polygon fill="black" stroke="black" points="1160.5,-96.95 1170.09,-92.45 1159.79,-89.99 1160.5,-96.95"/>
</g>
<!-- aggregator_factory&#45;&gt;system_addresses -->
<g id="edge62" class="edge">
<title>aggregator_factory&#45;&gt;system_addresses</title>
<path fill="none" stroke="black" d="M972.03,-365.52C1037.09,-353.08 1140.76,-333.25 1209.1,-320.18"/>
<polygon fill="black" stroke="black" points="1209.59,-323.46 1218.75,-318.14 1208.28,-316.58 1209.59,-323.46"/>
</g>
<!-- aggregator_factory&#45;&gt;aggregator -->
<g id="edge63" class="edge">
<title>aggregator_factory&#45;&gt;aggregator</title>
<path fill="none" stroke="black" d="M847.94,-366.6C763.73,-352.92 617.13,-329.11 537.09,-316.11"/>
<polygon fill="black" stroke="black" points="537.68,-312.5 527.25,-314.35 536.56,-319.41 537.68,-312.5"/>
</g>
<!-- aggregator_factory&#45;&gt;table -->
<g id="edge61" class="edge">
<title>aggregator_factory&#45;&gt;table</title>
<path fill="none" stroke="black" d="M912,-359.7C912,-352.24 912,-343.32 912,-334.97"/>
<polygon fill="black" stroke="black" points="915.5,-335.1 912,-325.1 908.5,-335.1 915.5,-335.1"/>
</g>
<!-- optional_aggregator&#45;&gt;error -->
<g id="edge65" class="edge">
<title>optional_aggregator&#45;&gt;error</title>
<path fill="none" stroke="black" d="M801.52,-431.62C804.64,-413.19 810.94,-383.54 822,-360 847.01,-306.76 979.9,-151.7 992,-144 1044.2,-110.77 1116.19,-98.35 1160.34,-93.72"/>
<polygon fill="black" stroke="black" points="1160.58,-97.12 1170.2,-92.68 1159.91,-90.15 1160.58,-97.12"/>
</g>
<!-- optional_aggregator&#45;&gt;option -->
<g id="edge64" class="edge">
<title>optional_aggregator&#45;&gt;option</title>
<path fill="none" stroke="black" d="M713.87,-448.15C647.35,-444.42 554.22,-432.29 481,-396 355.64,-333.87 307.28,-308.52 252,-180 243.52,-160.27 248.16,-136.11 254.29,-117.94"/>
<polygon fill="black" stroke="black" points="257.87,-119.35 258.08,-108.76 251.31,-116.9 257.87,-119.35"/>
</g>
<!-- optional_aggregator&#45;&gt;aggregator -->
<g id="edge66" class="edge">
<title>optional_aggregator&#45;&gt;aggregator</title>
<path fill="none" stroke="black" d="M717.84,-444.25C641.15,-438.08 533.43,-424.51 503,-396 486.59,-380.63 481.59,-355.12 480.41,-335.34"/>
<polygon fill="black" stroke="black" points="483.88,-335.37 480.09,-325.48 476.88,-335.58 483.88,-335.37"/>
</g>
<!-- optional_aggregator&#45;&gt;aggregator_factory -->
<g id="edge67" class="edge">
<title>optional_aggregator&#45;&gt;aggregator_factory</title>
<path fill="none" stroke="black" d="M825.49,-432.59C840.65,-423.2 859.87,-411.29 876.34,-401.09"/>
<polygon fill="black" stroke="black" points="878.01,-403.55 884.67,-395.31 874.33,-397.6 878.01,-403.55"/>
</g>
<!-- table_with_length&#45;&gt;error -->
<g id="edge68" class="edge">
<title>table_with_length&#45;&gt;error</title>
<path fill="none" stroke="black" d="M701.03,-359.7C709.76,-315.5 739.35,-198.13 815,-144 869.73,-104.83 1072.98,-94.52 1160.02,-91.88"/>
<polygon fill="black" stroke="black" points="1159.88,-95.36 1169.78,-91.58 1159.68,-88.36 1159.88,-95.36"/>
</g>
<!-- table_with_length&#45;&gt;table -->
<g id="edge69" class="edge">
<title>table_with_length&#45;&gt;table</title>
<path fill="none" stroke="black" d="M741.56,-362.75C781.38,-349.72 839.55,-330.7 876.58,-318.59"/>
<polygon fill="black" stroke="black" points="877.48,-321.65 885.89,-315.21 875.3,-315 877.48,-321.65"/>
</g>
<!-- timestamp&#45;&gt;error -->
<g id="edge70" class="edge">
<title>timestamp&#45;&gt;error</title>
<path fill="none" stroke="black" d="M2068.31,-359.74C2070.59,-315.64 2069.8,-198.49 2003,-144 1943.46,-95.43 1393.25,-91.2 1239.65,-90.97"/>
<polygon fill="black" stroke="black" points="1239.88,-87.47 1229.88,-90.96 1239.88,-94.47 1239.88,-87.47"/>
</g>
<!-- timestamp&#45;&gt;system_addresses -->
<g id="edge71" class="edge">
<title>timestamp&#45;&gt;system_addresses</title>
<path fill="none" stroke="black" d="M2023.68,-368.45C2006.96,-365.4 1987.65,-362.19 1970,-360 1752.41,-333.04 1696.57,-341.28 1478,-324 1438.95,-320.91 1395.64,-317.26 1359.33,-314.13"/>
<polygon fill="black" stroke="black" points="1360.06,-310.59 1349.79,-313.22 1359.45,-317.57 1360.06,-310.59"/>
</g>
<!-- ed25519&#45;&gt;type_info -->
<g id="edge75" class="edge">
<title>ed25519&#45;&gt;type_info</title>
<path fill="none" stroke="black" d="M1493.27,-296.49C1439.14,-283.94 1337.84,-260.46 1277.3,-246.43"/>
<polygon fill="black" stroke="black" points="1278.39,-242.85 1267.86,-244.01 1276.81,-249.67 1278.39,-242.85"/>
</g>
<!-- ed25519&#45;&gt;error -->
<g id="edge73" class="edge">
<title>ed25519&#45;&gt;error</title>
<path fill="none" stroke="black" d="M1510.19,-289.62C1471.36,-259.8 1382.08,-192.77 1302,-144 1279.25,-130.15 1252.5,-116.33 1232.11,-106.28"/>
<polygon fill="black" stroke="black" points="1233.88,-102.77 1223.36,-101.53 1230.81,-109.06 1233.88,-102.77"/>
</g>
<!-- ed25519&#45;&gt;bcs -->
<g id="edge74" class="edge">
<title>ed25519&#45;&gt;bcs</title>
<path fill="none" stroke="black" d="M1537.02,-288.02C1545.96,-268.27 1563.17,-235.84 1587,-216 1614.37,-193.22 1652.84,-179.18 1680.83,-171.32"/>
<polygon fill="black" stroke="black" points="1681.61,-174.47 1690.37,-168.51 1679.81,-167.71 1681.61,-174.47"/>
</g>
<!-- ed25519&#45;&gt;option -->
<g id="edge72" class="edge">
<title>ed25519&#45;&gt;option</title>
<path fill="none" stroke="black" d="M1499.95,-292.91C1453.81,-274.64 1362.52,-239.63 1283,-216 1149.49,-176.33 1115.66,-165.17 978,-144 762.17,-110.81 705.75,-124.34 488,-108 426.7,-103.4 355.9,-97.96 311.05,-94.49"/>
<polygon fill="black" stroke="black" points="311.47,-90.94 301.23,-93.65 310.93,-97.91 311.47,-90.94"/>
</g>
<!-- ed25519&#45;&gt;hash -->
<g id="edge76" class="edge">
<title>ed25519&#45;&gt;hash</title>
<path fill="none" stroke="black" d="M1555.09,-291.17C1575.65,-279.84 1604.82,-263.76 1626.69,-251.71"/>
<polygon fill="black" stroke="black" points="1628.09,-254.38 1635.16,-246.49 1624.71,-248.25 1628.09,-254.38"/>
</g>
<!-- multi_ed25519&#45;&gt;error -->
<g id="edge78" class="edge">
<title>multi_ed25519&#45;&gt;error</title>
<path fill="none" stroke="black" d="M1565.57,-363.55C1588.96,-354.68 1617.82,-341.46 1640,-324 1714.21,-265.56 1816.53,-213.91 1753,-144 1718.6,-106.14 1361.41,-94.63 1240.08,-91.8"/>
<polygon fill="black" stroke="black" points="1240.17,-88.28 1230.09,-91.55 1240.01,-95.28 1240.17,-88.28"/>
</g>
<!-- multi_ed25519&#45;&gt;features -->
<g id="edge79" class="edge">
<title>multi_ed25519&#45;&gt;features</title>
<path fill="none" stroke="black" d="M1509.27,-360.1C1492.4,-341.28 1463.41,-310.55 1435,-288 1380.58,-244.81 1310.38,-204.15 1268.97,-181.51"/>
<polygon fill="black" stroke="black" points="1270.8,-177.98 1260.34,-176.29 1267.46,-184.14 1270.8,-177.98"/>
</g>
<!-- multi_ed25519&#45;&gt;bcs -->
<g id="edge80" class="edge">
<title>multi_ed25519&#45;&gt;bcs</title>
<path fill="none" stroke="black" d="M1546.63,-360.74C1558.55,-351.19 1572.59,-338.22 1582,-324 1610.07,-281.56 1587.04,-254.77 1620,-216 1636.59,-196.49 1662.24,-182.92 1683,-174.39"/>
<polygon fill="black" stroke="black" points="1683.98,-177.38 1692.04,-170.5 1681.45,-170.85 1683.98,-177.38"/>
</g>
<!-- multi_ed25519&#45;&gt;option -->
<g id="edge77" class="edge">
<title>multi_ed25519&#45;&gt;option</title>
<path fill="none" stroke="black" d="M1497.82,-361.05C1459.86,-338.15 1391.09,-297.66 1364,-288 1351.16,-283.42 510.91,-134.39 309.19,-98.65"/>
<polygon fill="black" stroke="black" points="309.9,-95.04 299.44,-96.75 308.68,-101.94 309.9,-95.04"/>
</g>
<!-- multi_ed25519&#45;&gt;hash -->
<g id="edge81" class="edge">
<title>multi_ed25519&#45;&gt;hash</title>
<path fill="none" stroke="black" d="M1559.86,-362.37C1578.2,-353.46 1599.8,-340.57 1615,-324 1631.12,-306.42 1642.15,-281.55 1648.85,-262.56"/>
<polygon fill="black" stroke="black" points="1652.47,-263.76 1652.29,-253.17 1645.82,-261.56 1652.47,-263.76"/>
</g>
<!-- multi_ed25519&#45;&gt;ed25519 -->
<g id="edge82" class="edge">
<title>multi_ed25519&#45;&gt;ed25519</title>
<path fill="none" stroke="black" d="M1525.48,-359.7C1526.12,-352.24 1526.89,-343.32 1527.6,-334.97"/>
<polygon fill="black" stroke="black" points="1531.17,-335.37 1528.53,-325.1 1524.19,-334.77 1531.17,-335.37"/>
</g>
<!-- from_bcs&#45;&gt;string -->
<g id="edge83" class="edge">
<title>from_bcs&#45;&gt;string</title>
<path fill="none" stroke="black" d="M497.54,-220C469.53,-208.04 428.03,-190.33 398.75,-177.83"/>
<polygon fill="black" stroke="black" points="400.51,-174.35 389.94,-173.64 397.76,-180.79 400.51,-174.35"/>
</g>
<!-- chain_id&#45;&gt;system_addresses -->
<g id="edge84" class="edge">
<title>chain_id&#45;&gt;system_addresses</title>
<path fill="none" stroke="black" d="M1309.83,-360.05C1305.05,-352.09 1299.25,-342.41 1293.91,-333.51"/>
<polygon fill="black" stroke="black" points="1296.51,-332.05 1288.37,-325.28 1290.51,-335.65 1296.51,-332.05"/>
</g>
</g>
</svg>
