<?xml version="1.0" encoding="UTF-8" standalone="no"?>
<!DOCTYPE svg PUBLIC "-//W3C//DTD SVG 1.1//EN"
 "http://www.w3.org/Graphics/SVG/1.1/DTD/svg11.dtd">
<!-- Generated by graphviz version 8.0.2 (20230410.1723)
 -->
<!-- Title: G Pages: 1 -->
<svg width="2196pt" height="692pt"
 viewBox="0.00 0.00 2196.03 692.00" xmlns="http://www.w3.org/2000/svg" xmlns:xlink="http://www.w3.org/1999/xlink">
<g id="graph0" class="graph" transform="scale(1 1) rotate(0) translate(4 688)">
<title>G</title>
<polygon fill="white" stroke="none" points="-4,4 -4,-688 2192.03,-688 2192.03,4 -4,4"/>
<!-- incentives -->
<g id="node1" class="node">
<title>incentives</title>
<ellipse fill="none" stroke="black" cx="846" cy="-666" rx="46.29" ry="18"/>
<text text-anchor="middle" x="846" y="-662.3" font-family="Times,serif" font-size="14.00">incentives</text>
</g>
<!-- vector -->
<g id="node2" class="node">
<title>vector</title>
<ellipse fill="none" stroke="black" cx="363" cy="-18" rx="32.49" ry="18"/>
<text text-anchor="middle" x="363" y="-14.3" font-family="Times,serif" font-size="14.00">vector</text>
</g>
<!-- incentives&#45;&gt;vector -->
<g id="edge1" class="edge">
<title>incentives&#45;&gt;vector</title>
<path fill="none" stroke="black" d="M892.51,-665.06C1128.91,-664.76 2186,-655.98 2186,-523 2186,-523 2186,-523 2186,-161 2186,-143.59 2240.82,-128.28 1733,-72 1466.71,-42.49 609.34,-23.89 406.37,-19.84"/>
<polygon fill="black" stroke="black" points="406.64,-16.32 396.57,-19.62 406.5,-23.32 406.64,-16.32"/>
</g>
<!-- signer -->
<g id="node3" class="node">
<title>signer</title>
<ellipse fill="none" stroke="black" cx="526" cy="-90" rx="32.49" ry="18"/>
<text text-anchor="middle" x="526" y="-86.3" font-family="Times,serif" font-size="14.00">signer</text>
</g>
<!-- incentives&#45;&gt;signer -->
<g id="edge2" class="edge">
<title>incentives&#45;&gt;signer</title>
<path fill="none" stroke="black" d="M800.1,-663.15C672.94,-657.72 318.04,-640.39 205,-612 108.66,-587.81 0,-622.33 0,-523 0,-523 0,-523 0,-449 0,-262.87 122.2,-230.52 287,-144 350.15,-110.85 433.2,-98.39 482.93,-93.73"/>
<polygon fill="black" stroke="black" points="482.96,-97.16 492.62,-92.81 482.36,-90.18 482.96,-97.16"/>
</g>
<!-- type_info -->
<g id="node4" class="node">
<title>type_info</title>
<ellipse fill="none" stroke="black" cx="1211" cy="-234" rx="44.39" ry="18"/>
<text text-anchor="middle" x="1211" y="-230.3" font-family="Times,serif" font-size="14.00">type_info</text>
</g>
<!-- incentives&#45;&gt;type_info -->
<g id="edge3" class="edge">
<title>incentives&#45;&gt;type_info</title>
<path fill="none" stroke="black" d="M891.85,-662.72C965.24,-656.31 1107.38,-632.02 1172,-540 1236.38,-448.33 1144.42,-395.18 1177,-288 1179.96,-278.27 1185.25,-268.62 1190.8,-260.27"/>
<polygon fill="black" stroke="black" points="1194.12,-262.64 1197.05,-252.46 1188.41,-258.59 1194.12,-262.64"/>
</g>
<!-- coin -->
<g id="node5" class="node">
<title>coin</title>
<ellipse fill="none" stroke="black" cx="846" cy="-522" rx="27" ry="18"/>
<text text-anchor="middle" x="846" y="-518.3" font-family="Times,serif" font-size="14.00">coin</text>
</g>
<!-- incentives&#45;&gt;coin -->
<g id="edge4" class="edge">
<title>incentives&#45;&gt;coin</title>
<path fill="none" stroke="black" d="M846,-647.59C846,-623.5 846,-579.75 846,-551.03"/>
<polygon fill="black" stroke="black" points="849.5,-551.11 846,-541.11 842.5,-551.11 849.5,-551.11"/>
</g>
<!-- aptos_coin -->
<g id="node6" class="node">
<title>aptos_coin</title>
<ellipse fill="none" stroke="black" cx="293" cy="-594" rx="48.99" ry="18"/>
<text text-anchor="middle" x="293" y="-590.3" font-family="Times,serif" font-size="14.00">aptos_coin</text>
</g>
<!-- incentives&#45;&gt;aptos_coin -->
<g id="edge5" class="edge">
<title>incentives&#45;&gt;aptos_coin</title>
<path fill="none" stroke="black" d="M802.61,-659.51C703.43,-646.95 460.19,-616.16 349.5,-602.15"/>
<polygon fill="black" stroke="black" points="350.25,-598.59 339.89,-600.81 349.38,-605.54 350.25,-598.59"/>
</g>
<!-- tablist -->
<g id="node7" class="node">
<title>tablist</title>
<ellipse fill="none" stroke="black" cx="190" cy="-450" rx="32.49" ry="18"/>
<text text-anchor="middle" x="190" y="-446.3" font-family="Times,serif" font-size="14.00">tablist</text>
</g>
<!-- incentives&#45;&gt;tablist -->
<g id="edge6" class="edge">
<title>incentives&#45;&gt;tablist</title>
<path fill="none" stroke="black" d="M799.53,-663.97C664.36,-660.58 278.18,-647.81 235,-612 195.89,-579.57 189.23,-516.21 188.92,-479.38"/>
<polygon fill="black" stroke="black" points="192.43,-479.46 189.01,-469.43 185.43,-479.4 192.43,-479.46"/>
</g>
<!-- resource_account -->
<g id="node8" class="node">
<title>resource_account</title>
<ellipse fill="none" stroke="black" cx="1720" cy="-522" rx="72.29" ry="18"/>
<text text-anchor="middle" x="1720" y="-518.3" font-family="Times,serif" font-size="14.00">resource_account</text>
</g>
<!-- incentives&#45;&gt;resource_account -->
<g id="edge7" class="edge">
<title>incentives&#45;&gt;resource_account</title>
<path fill="none" stroke="black" d="M890.13,-659.99C964.26,-651.4 1118.36,-632.75 1248,-612 1393.98,-588.63 1564.15,-554.94 1654.98,-536.44"/>
<polygon fill="black" stroke="black" points="1655.56,-539.69 1664.66,-534.26 1654.16,-532.83 1655.56,-539.69"/>
</g>
<!-- string -->
<g id="node9" class="node">
<title>string</title>
<ellipse fill="none" stroke="black" cx="363" cy="-162" rx="30.59" ry="18"/>
<text text-anchor="middle" x="363" y="-158.3" font-family="Times,serif" font-size="14.00">string</text>
</g>
<!-- type_info&#45;&gt;string -->
<g id="edge8" class="edge">
<title>type_info&#45;&gt;string</title>
<path fill="none" stroke="black" d="M1167.78,-229.43C1021.71,-217.37 547.57,-178.24 404.35,-166.41"/>
<polygon fill="black" stroke="black" points="404.71,-162.85 394.45,-165.51 404.13,-169.82 404.71,-162.85"/>
</g>
<!-- error -->
<g id="node10" class="node">
<title>error</title>
<ellipse fill="none" stroke="black" cx="1184" cy="-90" rx="27.9" ry="18"/>
<text text-anchor="middle" x="1184" y="-86.3" font-family="Times,serif" font-size="14.00">error</text>
</g>
<!-- type_info&#45;&gt;error -->
<g id="edge9" class="edge">
<title>type_info&#45;&gt;error</title>
<path fill="none" stroke="black" d="M1194.11,-217.07C1185.06,-207.34 1174.81,-194.09 1170,-180 1163.13,-159.9 1167.49,-136.08 1173.1,-118.14"/>
<polygon fill="black" stroke="black" points="1176.71,-119.41 1176.66,-108.82 1170.09,-117.13 1176.71,-119.41"/>
</g>
<!-- features -->
<g id="node11" class="node">
<title>features</title>
<ellipse fill="none" stroke="black" cx="1217" cy="-162" rx="38.19" ry="18"/>
<text text-anchor="middle" x="1217" y="-158.3" font-family="Times,serif" font-size="14.00">features</text>
</g>
<!-- type_info&#45;&gt;features -->
<g id="edge10" class="edge">
<title>type_info&#45;&gt;features</title>
<path fill="none" stroke="black" d="M1212.48,-215.7C1213.12,-208.24 1213.89,-199.32 1214.6,-190.97"/>
<polygon fill="black" stroke="black" points="1218.17,-191.37 1215.53,-181.1 1211.19,-190.77 1218.17,-191.37"/>
</g>
<!-- bcs -->
<g id="node12" class="node">
<title>bcs</title>
<ellipse fill="none" stroke="black" cx="1689" cy="-162" rx="27" ry="18"/>
<text text-anchor="middle" x="1689" y="-158.3" font-family="Times,serif" font-size="14.00">bcs</text>
</g>
<!-- type_info&#45;&gt;bcs -->
<g id="edge11" class="edge">
<title>type_info&#45;&gt;bcs</title>
<path fill="none" stroke="black" d="M1252.17,-226.97C1343.94,-213.53 1564.09,-181.29 1651.91,-168.43"/>
<polygon fill="black" stroke="black" points="1652.29,-171.77 1661.67,-166.86 1651.27,-164.84 1652.29,-171.77"/>
</g>
<!-- coin&#45;&gt;signer -->
<g id="edge14" class="edge">
<title>coin&#45;&gt;signer</title>
<path fill="none" stroke="black" d="M818.88,-519.59C748.29,-515.49 560.86,-501.64 510,-468 435.56,-418.77 399.37,-374.58 421,-288 437.82,-220.69 482.45,-151.19 507.78,-115.48"/>
<polygon fill="black" stroke="black" points="511.07,-117.9 514.08,-107.74 505.39,-113.81 511.07,-117.9"/>
</g>
<!-- coin&#45;&gt;type_info -->
<g id="edge16" class="edge">
<title>coin&#45;&gt;type_info</title>
<path fill="none" stroke="black" d="M873.33,-521.28C917.14,-520.31 1003.65,-512.41 1058,-468 1126.66,-411.9 1088.69,-357.3 1144,-288 1153.66,-275.9 1166.58,-264.85 1178.5,-256.02"/>
<polygon fill="black" stroke="black" points="1180.24,-258.36 1186.35,-249.71 1176.17,-252.66 1180.24,-258.36"/>
</g>
<!-- coin&#45;&gt;string -->
<g id="edge13" class="edge">
<title>coin&#45;&gt;string</title>
<path fill="none" stroke="black" d="M818.89,-520.17C719.82,-516.89 381.59,-503.14 350,-468 279.46,-389.52 326.51,-248.62 350.91,-189.87"/>
<polygon fill="black" stroke="black" points="354.46,-191.46 355.17,-180.89 348.02,-188.71 354.46,-191.46"/>
</g>
<!-- coin&#45;&gt;error -->
<g id="edge15" class="edge">
<title>coin&#45;&gt;error</title>
<path fill="none" stroke="black" d="M863.42,-508.08C891.5,-486.75 947.57,-441.92 987,-396 1067.82,-301.87 1140.81,-172.2 1170.24,-117.27"/>
<polygon fill="black" stroke="black" points="1173.77,-119.09 1175.38,-108.62 1167.59,-115.8 1173.77,-119.09"/>
</g>
<!-- option -->
<g id="node13" class="node">
<title>option</title>
<ellipse fill="none" stroke="black" cx="266" cy="-90" rx="33.29" ry="18"/>
<text text-anchor="middle" x="266" y="-86.3" font-family="Times,serif" font-size="14.00">option</text>
</g>
<!-- coin&#45;&gt;option -->
<g id="edge12" class="edge">
<title>coin&#45;&gt;option</title>
<path fill="none" stroke="black" d="M818.63,-521.06C695.3,-521.05 195.25,-517.9 149,-468 99.61,-414.71 152.74,-204.48 193,-144 202.9,-129.13 218.46,-117 232.68,-108.11"/>
<polygon fill="black" stroke="black" points="233.93,-110.84 240.75,-102.74 230.36,-104.82 233.93,-110.84"/>
</g>
<!-- system_addresses -->
<g id="node14" class="node">
<title>system_addresses</title>
<ellipse fill="none" stroke="black" cx="1259" cy="-306" rx="73.39" ry="18"/>
<text text-anchor="middle" x="1259" y="-302.3" font-family="Times,serif" font-size="14.00">system_addresses</text>
</g>
<!-- coin&#45;&gt;system_addresses -->
<g id="edge17" class="edge">
<title>coin&#45;&gt;system_addresses</title>
<path fill="none" stroke="black" d="M873.24,-520.18C921.09,-517.7 1022.17,-507.76 1096,-468 1158.79,-434.18 1213.59,-368.75 1240.78,-332.59"/>
<polygon fill="black" stroke="black" points="1243.96,-335.18 1247.09,-325.06 1238.33,-331.02 1243.96,-335.18"/>
</g>
<!-- event -->
<g id="node15" class="node">
<title>event</title>
<ellipse fill="none" stroke="black" cx="1900" cy="-378" rx="29.8" ry="18"/>
<text text-anchor="middle" x="1900" y="-374.3" font-family="Times,serif" font-size="14.00">event</text>
</g>
<!-- coin&#45;&gt;event -->
<g id="edge18" class="edge">
<title>coin&#45;&gt;event</title>
<path fill="none" stroke="black" d="M873.34,-521.46C973.74,-522.67 1331.23,-522.63 1619,-468 1710.25,-450.68 1813.35,-413.18 1865.64,-392.83"/>
<polygon fill="black" stroke="black" points="1866.67,-395.79 1874.7,-388.87 1864.11,-389.27 1866.67,-395.79"/>
</g>
<!-- account -->
<g id="node16" class="node">
<title>account</title>
<ellipse fill="none" stroke="black" cx="1572" cy="-450" rx="38.19" ry="18"/>
<text text-anchor="middle" x="1572" y="-446.3" font-family="Times,serif" font-size="14.00">account</text>
</g>
<!-- coin&#45;&gt;account -->
<g id="edge19" class="edge">
<title>coin&#45;&gt;account</title>
<path fill="none" stroke="black" d="M872.7,-518.43C980.42,-508.04 1383.98,-469.13 1523.88,-455.64"/>
<polygon fill="black" stroke="black" points="1524.04,-459.04 1533.66,-454.6 1523.37,-452.08 1524.04,-459.04"/>
</g>
<!-- aggregator -->
<g id="node17" class="node">
<title>aggregator</title>
<ellipse fill="none" stroke="black" cx="478" cy="-306" rx="48.19" ry="18"/>
<text text-anchor="middle" x="478" y="-302.3" font-family="Times,serif" font-size="14.00">aggregator</text>
</g>
<!-- coin&#45;&gt;aggregator -->
<g id="edge20" class="edge">
<title>coin&#45;&gt;aggregator</title>
<path fill="none" stroke="black" d="M818.52,-521.41C747.96,-520.77 560.24,-508.16 479,-396 466.4,-378.61 467.19,-353.88 470.54,-334.9"/>
<polygon fill="black" stroke="black" points="474.15,-335.72 472.79,-325.21 467.3,-334.28 474.15,-335.72"/>
</g>
<!-- aggregator_factory -->
<g id="node18" class="node">
<title>aggregator_factory</title>
<ellipse fill="none" stroke="black" cx="901" cy="-378" rx="77.19" ry="18"/>
<text text-anchor="middle" x="901" y="-374.3" font-family="Times,serif" font-size="14.00">aggregator_factory</text>
</g>
<!-- coin&#45;&gt;aggregator_factory -->
<g id="edge21" class="edge">
<title>coin&#45;&gt;aggregator_factory</title>
<path fill="none" stroke="black" d="M858.75,-505.7C866.56,-495.59 876.15,-481.71 882,-468 890.29,-448.57 895.11,-425.16 897.81,-407.22"/>
<polygon fill="black" stroke="black" points="901.42,-407.71 899.3,-397.33 894.48,-406.76 901.42,-407.71"/>
</g>
<!-- optional_aggregator -->
<g id="node19" class="node">
<title>optional_aggregator</title>
<ellipse fill="none" stroke="black" cx="792" cy="-450" rx="81.49" ry="18"/>
<text text-anchor="middle" x="792" y="-446.3" font-family="Times,serif" font-size="14.00">optional_aggregator</text>
</g>
<!-- coin&#45;&gt;optional_aggregator -->
<g id="edge22" class="edge">
<title>coin&#45;&gt;optional_aggregator</title>
<path fill="none" stroke="black" d="M834.02,-505.46C827.45,-496.95 819.15,-486.19 811.66,-476.48"/>
<polygon fill="black" stroke="black" points="813.96,-474.74 805.08,-468.96 808.42,-479.02 813.96,-474.74"/>
</g>
<!-- aptos_coin&#45;&gt;vector -->
<g id="edge23" class="edge">
<title>aptos_coin&#45;&gt;vector</title>
<path fill="none" stroke="black" d="M244.45,-590.54C200.48,-586.09 135.9,-573.79 91,-540 54.21,-512.32 38,-497.04 38,-451 38,-451 38,-451 38,-161 38,-39.65 230.6,-20.98 319.27,-18.82"/>
<polygon fill="black" stroke="black" points="319.11,-22.3 329.05,-18.63 318.99,-15.31 319.11,-22.3"/>
</g>
<!-- aptos_coin&#45;&gt;signer -->
<g id="edge26" class="edge">
<title>aptos_coin&#45;&gt;signer</title>
<path fill="none" stroke="black" d="M284.3,-576.02C271.73,-549.87 250,-497.88 250,-451 250,-451 250,-451 250,-377 250,-268.48 244.44,-218.86 323,-144 366.12,-102.91 436.98,-92.69 482.54,-90.67"/>
<polygon fill="black" stroke="black" points="482.39,-94.14 492.27,-90.32 482.16,-87.14 482.39,-94.14"/>
</g>
<!-- aptos_coin&#45;&gt;coin -->
<g id="edge29" class="edge">
<title>aptos_coin&#45;&gt;coin</title>
<path fill="none" stroke="black" d="M338.72,-587.21C445.63,-573.68 710.31,-540.18 808.53,-527.74"/>
<polygon fill="black" stroke="black" points="808.91,-531.1 818.39,-526.37 808.03,-524.15 808.91,-531.1"/>
</g>
<!-- aptos_coin&#45;&gt;string -->
<g id="edge25" class="edge">
<title>aptos_coin&#45;&gt;string</title>
<path fill="none" stroke="black" d="M291.99,-575.52C290.53,-548.73 288,-495.9 288,-451 288,-451 288,-451 288,-377 288,-303.48 295.98,-283.11 326,-216 330.56,-205.81 337.16,-195.54 343.53,-186.79"/>
<polygon fill="black" stroke="black" points="346.72,-189.37 349.98,-179.29 341.15,-185.13 346.72,-189.37"/>
</g>
<!-- aptos_coin&#45;&gt;error -->
<g id="edge27" class="edge">
<title>aptos_coin&#45;&gt;error</title>
<path fill="none" stroke="black" d="M342.15,-593.13C466.01,-592.73 787.73,-587.07 882,-540 972.75,-494.69 1125.29,-206.32 1170.8,-117.2"/>
<polygon fill="black" stroke="black" points="1174.28,-119.08 1175.69,-108.58 1168.04,-115.91 1174.28,-119.08"/>
</g>
<!-- aptos_coin&#45;&gt;option -->
<g id="edge24" class="edge">
<title>aptos_coin&#45;&gt;option</title>
<path fill="none" stroke="black" d="M249.87,-584.98C186.58,-570.45 76,-533.28 76,-451 76,-451 76,-451 76,-233 76,-192.03 71.7,-173.62 100,-144 131.86,-110.65 184.64,-98.23 222.13,-93.63"/>
<polygon fill="black" stroke="black" points="222.18,-97.04 231.75,-92.49 221.43,-90.08 222.18,-97.04"/>
</g>
<!-- aptos_coin&#45;&gt;system_addresses -->
<g id="edge28" class="edge">
<title>aptos_coin&#45;&gt;system_addresses</title>
<path fill="none" stroke="black" d="M342.43,-593.12C518.08,-593.12 1105.2,-589.4 1172,-540 1206.1,-514.78 1239.1,-391.04 1252.61,-334.85"/>
<polygon fill="black" stroke="black" points="1256.22,-335.79 1255.11,-325.25 1249.4,-334.18 1256.22,-335.79"/>
</g>
<!-- tablist&#45;&gt;option -->
<g id="edge30" class="edge">
<title>tablist&#45;&gt;option</title>
<path fill="none" stroke="black" d="M190,-431.51C190,-404.71 190,-351.87 190,-307 190,-307 190,-307 190,-233 190,-192.03 193.66,-179.56 214,-144 220.63,-132.4 230.42,-121.51 239.72,-112.65"/>
<polygon fill="black" stroke="black" points="241.62,-115.74 246.67,-106.42 236.92,-110.56 241.62,-115.74"/>
</g>
<!-- table_with_length -->
<g id="node20" class="node">
<title>table_with_length</title>
<ellipse fill="none" stroke="black" cx="694" cy="-378" rx="74.19" ry="18"/>
<text text-anchor="middle" x="694" y="-374.3" font-family="Times,serif" font-size="14.00">table_with_length</text>
</g>
<!-- tablist&#45;&gt;table_with_length -->
<g id="edge31" class="edge">
<title>tablist&#45;&gt;table_with_length</title>
<path fill="none" stroke="black" d="M221.53,-444.62C300.47,-433.66 508.29,-404.79 620.17,-389.25"/>
<polygon fill="black" stroke="black" points="620.6,-392.59 630.02,-387.75 619.64,-385.66 620.6,-392.59"/>
</g>
<!-- resource_account&#45;&gt;bcs -->
<g id="edge32" class="edge">
<title>resource_account&#45;&gt;bcs</title>
<path fill="none" stroke="black" d="M1790.85,-517.84C1915.99,-509.23 2157.01,-477.34 2091,-360 2014.59,-224.16 1811.22,-180.25 1726.68,-167.61"/>
<polygon fill="black" stroke="black" points="1727.19,-164 1716.8,-166.05 1726.2,-170.93 1727.19,-164"/>
</g>
<!-- resource_account&#45;&gt;account -->
<g id="edge33" class="edge">
<title>resource_account&#45;&gt;account</title>
<path fill="none" stroke="black" d="M1687.52,-505.64C1663.99,-494.51 1632.19,-479.47 1607.9,-467.98"/>
<polygon fill="black" stroke="black" points="1609.54,-464.41 1599,-463.3 1606.55,-470.74 1609.54,-464.41"/>
</g>
<!-- timestamp -->
<g id="node21" class="node">
<title>timestamp</title>
<ellipse fill="none" stroke="black" cx="2034" cy="-378" rx="48.19" ry="18"/>
<text text-anchor="middle" x="2034" y="-374.3" font-family="Times,serif" font-size="14.00">timestamp</text>
</g>
<!-- resource_account&#45;&gt;timestamp -->
<g id="edge34" class="edge">
<title>resource_account&#45;&gt;timestamp</title>
<path fill="none" stroke="black" d="M1753.9,-505.67C1812.49,-479.17 1932.36,-424.97 1994.57,-396.83"/>
<polygon fill="black" stroke="black" points="1995.73,-399.69 2003.4,-392.38 1992.85,-393.32 1995.73,-399.69"/>
</g>
<!-- string&#45;&gt;vector -->
<g id="edge35" class="edge">
<title>string&#45;&gt;vector</title>
<path fill="none" stroke="black" d="M363,-143.59C363,-119.5 363,-75.75 363,-47.03"/>
<polygon fill="black" stroke="black" points="366.5,-47.11 363,-37.11 359.5,-47.11 366.5,-47.11"/>
</g>
<!-- string&#45;&gt;option -->
<g id="edge36" class="edge">
<title>string&#45;&gt;option</title>
<path fill="none" stroke="black" d="M344.3,-147.5C329.99,-137.18 310.04,-122.78 293.85,-111.1"/>
<polygon fill="black" stroke="black" points="296.47,-107.95 286.31,-104.93 292.37,-113.62 296.47,-107.95"/>
</g>
<!-- features&#45;&gt;signer -->
<g id="edge37" class="edge">
<title>features&#45;&gt;signer</title>
<path fill="none" stroke="black" d="M1182.51,-153.66C1165.81,-150.32 1145.43,-146.55 1127,-144 918.94,-115.25 668.08,-99.02 569.13,-93.34"/>
<polygon fill="black" stroke="black" points="569.56,-89.8 559.38,-92.73 569.16,-96.79 569.56,-89.8"/>
</g>
<!-- features&#45;&gt;error -->
<g id="edge38" class="edge">
<title>features&#45;&gt;error</title>
<path fill="none" stroke="black" d="M1209.01,-144.05C1205.19,-135.94 1200.52,-126.04 1196.26,-117.01"/>
<polygon fill="black" stroke="black" points="1199.12,-115.86 1191.69,-108.31 1192.79,-118.84 1199.12,-115.86"/>
</g>
<!-- option&#45;&gt;vector -->
<g id="edge39" class="edge">
<title>option&#45;&gt;vector</title>
<path fill="none" stroke="black" d="M285.16,-75.17C299.38,-64.91 318.98,-50.77 334.96,-39.24"/>
<polygon fill="black" stroke="black" points="336.81,-41.49 342.88,-32.8 332.72,-35.81 336.81,-41.49"/>
</g>
<!-- system_addresses&#45;&gt;signer -->
<g id="edge40" class="edge">
<title>system_addresses&#45;&gt;signer</title>
<path fill="none" stroke="black" d="M1213.15,-291.61C1079.13,-252.49 689.7,-138.79 564.94,-102.37"/>
<polygon fill="black" stroke="black" points="565.96,-98.73 555.38,-99.29 564,-105.45 565.96,-98.73"/>
</g>
<!-- system_addresses&#45;&gt;error -->
<g id="edge41" class="edge">
<title>system_addresses&#45;&gt;error</title>
<path fill="none" stroke="black" d="M1264.84,-287.75C1274.21,-256.82 1289.14,-190.81 1264,-144 1254.18,-125.72 1234.98,-112.68 1217.85,-104.11"/>
<polygon fill="black" stroke="black" points="1219.63,-100.62 1209.09,-99.58 1216.68,-106.96 1219.63,-100.62"/>
</g>
<!-- event&#45;&gt;bcs -->
<g id="edge42" class="edge">
<title>event&#45;&gt;bcs</title>
<path fill="none" stroke="black" d="M1902.69,-359.69C1904.78,-341.05 1905.75,-310.99 1895,-288 1885.07,-266.78 1837.71,-228.66 1818,-216 1788.32,-196.94 1750.65,-182.41 1723.69,-173.43"/>
<polygon fill="black" stroke="black" points="1725.16,-169.9 1714.57,-170.15 1723,-176.56 1725.16,-169.9"/>
</g>
<!-- guid -->
<g id="node22" class="node">
<title>guid</title>
<ellipse fill="none" stroke="black" cx="1859" cy="-306" rx="27" ry="18"/>
<text text-anchor="middle" x="1859" y="-302.3" font-family="Times,serif" font-size="14.00">guid</text>
</g>
<!-- event&#45;&gt;guid -->
<g id="edge43" class="edge">
<title>event&#45;&gt;guid</title>
<path fill="none" stroke="black" d="M1890.49,-360.76C1885.57,-352.37 1879.46,-341.93 1873.93,-332.5"/>
<polygon fill="black" stroke="black" points="1876.53,-331.01 1868.46,-324.15 1870.49,-334.55 1876.53,-331.01"/>
</g>
<!-- account&#45;&gt;vector -->
<g id="edge44" class="edge">
<title>account&#45;&gt;vector</title>
<path fill="none" stroke="black" d="M1610.36,-447.65C1724.36,-443.29 2055.35,-427.98 2091,-396 2121.11,-368.99 2110,-347.45 2110,-307 2110,-307 2110,-307 2110,-161 2110,-72.78 676.21,-27.86 406.47,-20.19"/>
<polygon fill="black" stroke="black" points="406.67,-16.67 396.57,-19.88 406.47,-23.66 406.67,-16.67"/>
</g>
<!-- account&#45;&gt;signer -->
<g id="edge46" class="edge">
<title>account&#45;&gt;signer</title>
<path fill="none" stroke="black" d="M1533.53,-448.2C1358.71,-444.39 646.18,-427 611,-396 580.49,-369.12 589.54,-254.99 578,-216 567.61,-180.9 550.61,-142.24 538.9,-117.34"/>
<polygon fill="black" stroke="black" points="541.7,-116.09 534.23,-108.57 535.38,-119.1 541.7,-116.09"/>
</g>
<!-- account&#45;&gt;type_info -->
<g id="edge49" class="edge">
<title>account&#45;&gt;type_info</title>
<path fill="none" stroke="black" d="M1537.48,-441.69C1506.88,-433.99 1462.05,-419.65 1429,-396 1378.64,-359.97 1390.77,-324.83 1341,-288 1316.2,-269.65 1284.15,-256.49 1258.08,-247.87"/>
<polygon fill="black" stroke="black" points="1259.27,-244.26 1248.68,-244.57 1257.15,-250.93 1259.27,-244.26"/>
</g>
<!-- account&#45;&gt;error -->
<g id="edge47" class="edge">
<title>account&#45;&gt;error</title>
<path fill="none" stroke="black" d="M1610.57,-448.81C1694.92,-447.57 1892.04,-439.92 1939,-396 1968.54,-368.37 1958,-347.45 1958,-307 1958,-307 1958,-307 1958,-233 1958,-131.63 1846.29,-168.81 1748,-144 1555.31,-95.36 1315.41,-90.48 1222.89,-90.59"/>
<polygon fill="black" stroke="black" points="1223.08,-87.09 1213.09,-90.63 1223.11,-94.09 1223.08,-87.09"/>
</g>
<!-- account&#45;&gt;bcs -->
<g id="edge48" class="edge">
<title>account&#45;&gt;bcs</title>
<path fill="none" stroke="black" d="M1600.06,-437.41C1605.01,-435.51 1610.13,-433.63 1615,-432 1671.85,-412.95 1708.7,-443.72 1745,-396 1793.32,-332.47 1737.77,-233.3 1706.89,-187.59"/>
<polygon fill="black" stroke="black" points="1709.29,-185.91 1700.72,-179.68 1703.53,-189.89 1709.29,-185.91"/>
</g>
<!-- account&#45;&gt;option -->
<g id="edge45" class="edge">
<title>account&#45;&gt;option</title>
<path fill="none" stroke="black" d="M1533.65,-448.27C1353.44,-444.7 597.98,-427.85 560,-396 522.25,-364.34 565.35,-326.81 535,-288 518.72,-267.17 342.59,-197.75 323,-180 303.64,-162.46 288.18,-136.89 278.27,-117.66"/>
<polygon fill="black" stroke="black" points="281.05,-116.39 273.48,-108.98 274.78,-119.5 281.05,-116.39"/>
</g>
<!-- account&#45;&gt;system_addresses -->
<g id="edge51" class="edge">
<title>account&#45;&gt;system_addresses</title>
<path fill="none" stroke="black" d="M1536.64,-442.74C1499.89,-435.25 1441.5,-420.55 1396,-396 1374.06,-384.17 1373.5,-374.18 1353,-360 1336.13,-348.33 1316.49,-336.94 1299.54,-327.74"/>
<polygon fill="black" stroke="black" points="1301.38,-324.22 1290.91,-322.58 1298.08,-330.39 1301.38,-324.22"/>
</g>
<!-- account&#45;&gt;event -->
<g id="edge57" class="edge">
<title>account&#45;&gt;event</title>
<path fill="none" stroke="black" d="M1608.81,-444.34C1663.44,-436.93 1768.91,-420.72 1856,-396 1859.21,-395.09 1862.5,-394.04 1865.78,-392.92"/>
<polygon fill="black" stroke="black" points="1866.87,-395.88 1875.06,-389.17 1864.47,-389.31 1866.87,-395.88"/>
</g>
<!-- account&#45;&gt;guid -->
<g id="edge55" class="edge">
<title>account&#45;&gt;guid</title>
<path fill="none" stroke="black" d="M1609.03,-445.09C1669.56,-438.05 1786.13,-421.55 1818,-396 1836.95,-380.81 1847.52,-354.88 1853.16,-334.92"/>
<polygon fill="black" stroke="black" points="1856.79,-335.81 1855.87,-325.26 1850.01,-334.09 1856.79,-335.81"/>
</g>
<!-- table -->
<g id="node23" class="node">
<title>table</title>
<ellipse fill="none" stroke="black" cx="901" cy="-306" rx="27.9" ry="18"/>
<text text-anchor="middle" x="901" y="-302.3" font-family="Times,serif" font-size="14.00">table</text>
</g>
<!-- account&#45;&gt;table -->
<g id="edge50" class="edge">
<title>account&#45;&gt;table</title>
<path fill="none" stroke="black" d="M1535.46,-443.94C1475.98,-435.47 1354.66,-417.26 1253,-396 1136.3,-371.6 999.89,-334.67 936.61,-317.05"/>
<polygon fill="black" stroke="black" points="937.59,-313.41 927.02,-314.09 935.71,-320.15 937.59,-313.41"/>
</g>
<!-- hash -->
<g id="node24" class="node">
<title>hash</title>
<ellipse fill="none" stroke="black" cx="1629" cy="-234" rx="27" ry="18"/>
<text text-anchor="middle" x="1629" y="-230.3" font-family="Times,serif" font-size="14.00">hash</text>
</g>
<!-- account&#45;&gt;hash -->
<g id="edge52" class="edge">
<title>account&#45;&gt;hash</title>
<path fill="none" stroke="black" d="M1600.12,-437.59C1605.06,-435.67 1610.17,-433.74 1615,-432 1663.81,-414.46 1695.5,-437.95 1726,-396 1761.34,-347.39 1695.64,-285.4 1655.98,-254.44"/>
<polygon fill="black" stroke="black" points="1658.32,-251.06 1648.25,-247.79 1654.08,-256.63 1658.32,-251.06"/>
</g>
<!-- ed25519 -->
<g id="node25" class="node">
<title>ed25519</title>
<ellipse fill="none" stroke="black" cx="1505" cy="-306" rx="40.89" ry="18"/>
<text text-anchor="middle" x="1505" y="-302.3" font-family="Times,serif" font-size="14.00">ed25519</text>
</g>
<!-- account&#45;&gt;ed25519 -->
<g id="edge53" class="edge">
<title>account&#45;&gt;ed25519</title>
<path fill="none" stroke="black" d="M1609.66,-445.84C1642.02,-440.91 1686.87,-428.29 1709,-396 1718.05,-382.8 1718.79,-372.66 1709,-360 1690.31,-335.83 1609.19,-320.64 1555.05,-313"/>
<polygon fill="black" stroke="black" points="1555.66,-309.41 1545.28,-311.53 1554.71,-316.35 1555.66,-309.41"/>
</g>
<!-- multi_ed25519 -->
<g id="node26" class="node">
<title>multi_ed25519</title>
<ellipse fill="none" stroke="black" cx="1502" cy="-378" rx="64.19" ry="18"/>
<text text-anchor="middle" x="1502" y="-374.3" font-family="Times,serif" font-size="14.00">multi_ed25519</text>
</g>
<!-- account&#45;&gt;multi_ed25519 -->
<g id="edge54" class="edge">
<title>account&#45;&gt;multi_ed25519</title>
<path fill="none" stroke="black" d="M1556.46,-433.46C1547.57,-424.57 1536.21,-413.21 1526.16,-403.16"/>
<polygon fill="black" stroke="black" points="1529.01,-401.06 1519.47,-396.47 1524.06,-406.01 1529.01,-401.06"/>
</g>
<!-- from_bcs -->
<g id="node27" class="node">
<title>from_bcs</title>
<ellipse fill="none" stroke="black" cx="525" cy="-234" rx="44.39" ry="18"/>
<text text-anchor="middle" x="525" y="-230.3" font-family="Times,serif" font-size="14.00">from_bcs</text>
</g>
<!-- account&#45;&gt;from_bcs -->
<g id="edge56" class="edge">
<title>account&#45;&gt;from_bcs</title>
<path fill="none" stroke="black" d="M1533.64,-448.34C1355.15,-445.12 613.05,-429.71 578,-396 543.25,-362.59 586.19,-332.64 568,-288 563.71,-277.47 556.59,-267.38 549.36,-258.89"/>
<polygon fill="black" stroke="black" points="552.51,-257.04 543.21,-251.97 547.32,-261.73 552.51,-257.04"/>
</g>
<!-- create_signer -->
<g id="node28" class="node">
<title>create_signer</title>
<ellipse fill="none" stroke="black" cx="1642" cy="-378" rx="57.69" ry="18"/>
<text text-anchor="middle" x="1642" y="-374.3" font-family="Times,serif" font-size="14.00">create_signer</text>
</g>
<!-- account&#45;&gt;create_signer -->
<g id="edge58" class="edge">
<title>account&#45;&gt;create_signer</title>
<path fill="none" stroke="black" d="M1587.54,-433.46C1596.43,-424.57 1607.79,-413.21 1617.84,-403.16"/>
<polygon fill="black" stroke="black" points="1619.94,-406.01 1624.53,-396.47 1614.99,-401.06 1619.94,-406.01"/>
</g>
<!-- chain_id -->
<g id="node29" class="node">
<title>chain_id</title>
<ellipse fill="none" stroke="black" cx="1303" cy="-378" rx="40.89" ry="18"/>
<text text-anchor="middle" x="1303" y="-374.3" font-family="Times,serif" font-size="14.00">chain_id</text>
</g>
<!-- account&#45;&gt;chain_id -->
<g id="edge59" class="edge">
<title>account&#45;&gt;chain_id</title>
<path fill="none" stroke="black" d="M1538.12,-441.24C1495.79,-431.4 1421.24,-413.59 1358,-396 1354,-394.89 1349.85,-393.69 1345.7,-392.46"/>
<polygon fill="black" stroke="black" points="1347.07,-388.91 1336.48,-389.38 1345.04,-395.62 1347.07,-388.91"/>
</g>
<!-- aggregator_factory&#45;&gt;error -->
<g id="edge60" class="edge">
<title>aggregator_factory&#45;&gt;error</title>
<path fill="none" stroke="black" d="M914.36,-359.97C921.9,-349.87 931.15,-336.62 938,-324 979.19,-248.13 947.33,-202.3 1011,-144 1048.22,-109.92 1106.85,-97.74 1145.36,-93.4"/>
<polygon fill="black" stroke="black" points="1145.54,-96.8 1155.14,-92.33 1144.84,-89.83 1145.54,-96.8"/>
</g>
<!-- aggregator_factory&#45;&gt;system_addresses -->
<g id="edge62" class="edge">
<title>aggregator_factory&#45;&gt;system_addresses</title>
<path fill="none" stroke="black" d="M958.92,-365.68C1022.78,-353.19 1125.37,-333.13 1192.48,-320.01"/>
<polygon fill="black" stroke="black" points="1192.79,-323.32 1201.94,-317.96 1191.45,-316.45 1192.79,-323.32"/>
</g>
<!-- aggregator_factory&#45;&gt;aggregator -->
<g id="edge63" class="edge">
<title>aggregator_factory&#45;&gt;aggregator</title>
<path fill="none" stroke="black" d="M839.49,-366.82C756.77,-353.13 610.98,-329.01 532.18,-315.97"/>
<polygon fill="black" stroke="black" points="532.96,-312.38 522.52,-314.2 531.82,-319.29 532.96,-312.38"/>
</g>
<!-- aggregator_factory&#45;&gt;table -->
<g id="edge61" class="edge">
<title>aggregator_factory&#45;&gt;table</title>
<path fill="none" stroke="black" d="M901,-359.7C901,-352.24 901,-343.32 901,-334.97"/>
<polygon fill="black" stroke="black" points="904.5,-335.1 901,-325.1 897.5,-335.1 904.5,-335.1"/>
</g>
<!-- optional_aggregator&#45;&gt;error -->
<g id="edge65" class="edge">
<title>optional_aggregator&#45;&gt;error</title>
<path fill="none" stroke="black" d="M794.65,-431.68C797.88,-413.3 804.27,-383.7 815,-360 840.14,-304.48 970.89,-147.99 977,-144 1028.88,-110.16 1101.14,-97.91 1145.13,-93.49"/>
<polygon fill="black" stroke="black" points="1145.3,-96.9 1154.94,-92.51 1144.66,-89.93 1145.3,-96.9"/>
</g>
<!-- optional_aggregator&#45;&gt;option -->
<g id="edge64" class="edge">
<title>optional_aggregator&#45;&gt;option</title>
<path fill="none" stroke="black" d="M710.49,-448.14C644.84,-444.48 551.82,-432.45 479,-396 354.47,-333.66 306.89,-307.99 252,-180 243.54,-160.26 248.18,-136.1 254.3,-117.93"/>
<polygon fill="black" stroke="black" points="257.88,-119.34 258.09,-108.75 251.32,-116.9 257.88,-119.34"/>
</g>
<!-- optional_aggregator&#45;&gt;aggregator -->
<g id="edge66" class="edge">
<title>optional_aggregator&#45;&gt;aggregator</title>
<path fill="none" stroke="black" d="M714.7,-444.08C639.53,-437.72 532.36,-423.95 502,-396 485.27,-380.6 479.72,-354.87 478.09,-335.03"/>
<polygon fill="black" stroke="black" points="481.54,-334.95 477.53,-325.15 474.55,-335.31 481.54,-334.95"/>
</g>
<!-- optional_aggregator&#45;&gt;aggregator_factory -->
<g id="edge67" class="edge">
<title>optional_aggregator&#45;&gt;aggregator_factory</title>
<path fill="none" stroke="black" d="M817.56,-432.59C832.18,-423.2 850.72,-411.29 866.61,-401.09"/>
<polygon fill="black" stroke="black" points="868.08,-403.66 874.6,-395.31 864.3,-397.77 868.08,-403.66"/>
</g>
<!-- table_with_length&#45;&gt;error -->
<g id="edge68" class="edge">
<title>table_with_length&#45;&gt;error</title>
<path fill="none" stroke="black" d="M696.74,-359.73C704.72,-315.6 732.32,-198.39 807,-144 860.37,-105.13 1060.04,-94.65 1145.16,-91.92"/>
<polygon fill="black" stroke="black" points="1145.02,-95.4 1154.91,-91.6 1144.81,-88.4 1145.02,-95.4"/>
</g>
<!-- table_with_length&#45;&gt;table -->
<g id="edge69" class="edge">
<title>table_with_length&#45;&gt;table</title>
<path fill="none" stroke="black" d="M736.14,-362.75C774.66,-349.72 830.92,-330.7 866.74,-318.59"/>
<polygon fill="black" stroke="black" points="867.36,-321.73 875.71,-315.21 865.12,-315.1 867.36,-321.73"/>
</g>
<!-- timestamp&#45;&gt;error -->
<g id="edge70" class="edge">
<title>timestamp&#45;&gt;error</title>
<path fill="none" stroke="black" d="M2035.47,-359.76C2038.15,-315.72 2038.4,-198.68 1972,-144 1913.79,-96.06 1373.7,-91.37 1222.92,-91.01"/>
<polygon fill="black" stroke="black" points="1223.36,-87.5 1213.35,-90.99 1223.34,-94.5 1223.36,-87.5"/>
</g>
<!-- timestamp&#45;&gt;system_addresses -->
<g id="edge71" class="edge">
<title>timestamp&#45;&gt;system_addresses</title>
<path fill="none" stroke="black" d="M1992.52,-368.62C1975.94,-365.52 1956.62,-362.23 1939,-360 1725,-332.97 1670.01,-341.32 1455,-324 1416.43,-320.89 1373.62,-317.21 1337.87,-314.06"/>
<polygon fill="black" stroke="black" points="1338.28,-310.5 1328.01,-313.11 1337.67,-317.47 1338.28,-310.5"/>
</g>
<!-- ed25519&#45;&gt;type_info -->
<g id="edge75" class="edge">
<title>ed25519&#45;&gt;type_info</title>
<path fill="none" stroke="black" d="M1469.54,-296.56C1416.91,-284.03 1318.03,-260.48 1258.98,-246.42"/>
<polygon fill="black" stroke="black" points="1259.98,-242.83 1249.44,-243.91 1258.36,-249.64 1259.98,-242.83"/>
</g>
<!-- ed25519&#45;&gt;error -->
<g id="edge73" class="edge">
<title>ed25519&#45;&gt;error</title>
<path fill="none" stroke="black" d="M1485.73,-289.64C1447.96,-259.86 1361.08,-192.9 1283,-144 1261.05,-130.25 1235.22,-116.5 1215.45,-106.45"/>
<polygon fill="black" stroke="black" points="1217.22,-102.92 1206.72,-101.55 1214.08,-109.18 1217.22,-102.92"/>
</g>
<!-- ed25519&#45;&gt;bcs -->
<g id="edge74" class="edge">
<title>ed25519&#45;&gt;bcs</title>
<path fill="none" stroke="black" d="M1511.63,-288.03C1520.12,-268.28 1536.59,-235.86 1560,-216 1586.98,-193.11 1625.18,-179.09 1653.01,-171.26"/>
<polygon fill="black" stroke="black" points="1653.73,-174.43 1662.49,-168.47 1651.93,-167.66 1653.73,-174.43"/>
</g>
<!-- ed25519&#45;&gt;option -->
<g id="edge72" class="edge">
<title>ed25519&#45;&gt;option</title>
<path fill="none" stroke="black" d="M1476.07,-293.04C1431.21,-274.79 1341.9,-239.61 1264,-216 1132.36,-176.1 1098.9,-165.23 963,-144 752.51,-111.11 697.43,-124.24 485,-108 424.31,-103.36 354.17,-97.9 309.95,-94.44"/>
<polygon fill="black" stroke="black" points="310.26,-90.88 300.02,-93.59 309.72,-97.86 310.26,-90.88"/>
</g>
<!-- ed25519&#45;&gt;hash -->
<g id="edge76" class="edge">
<title>ed25519&#45;&gt;hash</title>
<path fill="none" stroke="black" d="M1529.5,-291.17C1549.61,-279.82 1578.14,-263.71 1599.5,-251.65"/>
<polygon fill="black" stroke="black" points="1601.06,-254.23 1608.05,-246.26 1597.62,-248.13 1601.06,-254.23"/>
</g>
<!-- multi_ed25519&#45;&gt;error -->
<g id="edge78" class="edge">
<title>multi_ed25519&#45;&gt;error</title>
<path fill="none" stroke="black" d="M1541.27,-363.46C1563.74,-354.49 1591.62,-341.2 1613,-324 1686.41,-264.93 1788.29,-213.8 1725,-144 1691.34,-106.88 1341.12,-94.87 1222.81,-91.86"/>
<polygon fill="black" stroke="black" points="1223.18,-88.34 1213.1,-91.59 1223.01,-95.34 1223.18,-88.34"/>
</g>
<!-- multi_ed25519&#45;&gt;features -->
<g id="edge79" class="edge">
<title>multi_ed25519&#45;&gt;features</title>
<path fill="none" stroke="black" d="M1487.01,-360.19C1469.87,-341.45 1440.48,-310.79 1412,-288 1358.89,-245.5 1290.82,-204.58 1250.76,-181.72"/>
<polygon fill="black" stroke="black" points="1252.62,-178.19 1242.2,-176.3 1249.17,-184.28 1252.62,-178.19"/>
</g>
<!-- multi_ed25519&#45;&gt;bcs -->
<g id="edge80" class="edge">
<title>multi_ed25519&#45;&gt;bcs</title>
<path fill="none" stroke="black" d="M1522.36,-360.61C1533.29,-350.93 1546.26,-337.88 1555,-324 1582.11,-280.94 1560.13,-254.84 1593,-216 1609.23,-196.82 1634.25,-183.33 1654.67,-174.76"/>
<polygon fill="black" stroke="black" points="1655.86,-177.66 1663.86,-170.72 1653.28,-171.15 1655.86,-177.66"/>
</g>
<!-- multi_ed25519&#45;&gt;option -->
<g id="edge77" class="edge">
<title>multi_ed25519&#45;&gt;option</title>
<path fill="none" stroke="black" d="M1474.93,-361.41C1432.8,-337.24 1354.91,-292.97 1341,-288 1315.86,-279.02 503.57,-133.48 308.03,-98.51"/>
<polygon fill="black" stroke="black" points="308.81,-94.92 298.35,-96.6 307.58,-101.81 308.81,-94.92"/>
</g>
<!-- multi_ed25519&#45;&gt;hash -->
<g id="edge81" class="edge">
<title>multi_ed25519&#45;&gt;hash</title>
<path fill="none" stroke="black" d="M1535.51,-362.24C1552.95,-353.22 1573.58,-340.28 1588,-324 1603.75,-306.23 1614.52,-281.37 1621.05,-262.44"/>
<polygon fill="black" stroke="black" points="1624.65,-263.67 1624.41,-253.08 1617.99,-261.51 1624.65,-263.67"/>
</g>
<!-- multi_ed25519&#45;&gt;ed25519 -->
<g id="edge82" class="edge">
<title>multi_ed25519&#45;&gt;ed25519</title>
<path fill="none" stroke="black" d="M1502.74,-359.7C1503.06,-352.24 1503.44,-343.32 1503.8,-334.97"/>
<polygon fill="black" stroke="black" points="1507.34,-335.25 1504.27,-325.1 1500.34,-334.95 1507.34,-335.25"/>
</g>
<!-- from_bcs&#45;&gt;string -->
<g id="edge83" class="edge">
<title>from_bcs&#45;&gt;string</title>
<path fill="none" stroke="black" d="M495.29,-220.16C467.51,-208.16 426.05,-190.24 396.97,-177.68"/>
<polygon fill="black" stroke="black" points="398.81,-174.23 388.24,-173.47 396.03,-180.65 398.81,-174.23"/>
</g>
<!-- chain_id&#45;&gt;system_addresses -->
<g id="edge84" class="edge">
<title>chain_id&#45;&gt;system_addresses</title>
<path fill="none" stroke="black" d="M1292.57,-360.41C1287.44,-352.25 1281.14,-342.22 1275.38,-333.07"/>
<polygon fill="black" stroke="black" points="1277.94,-331.56 1269.66,-324.96 1272.02,-335.29 1277.94,-331.56"/>
</g>
</g>
</svg>
