<?xml version="1.0" encoding="UTF-8" standalone="no"?>
<!DOCTYPE svg PUBLIC "-//W3C//DTD SVG 1.1//EN"
 "http://www.w3.org/Graphics/SVG/1.1/DTD/svg11.dtd">
<!-- Generated by graphviz version 8.0.2 (20230410.1723)
 -->
<!-- Title: G Pages: 1 -->
<svg width="198pt" height="260pt"
 viewBox="0.00 0.00 197.84 260.00" xmlns="http://www.w3.org/2000/svg" xmlns:xlink="http://www.w3.org/1999/xlink">
<g id="graph0" class="graph" transform="scale(1 1) rotate(0) translate(4 256)">
<title>G</title>
<polygon fill="white" stroke="none" points="-4,4 -4,-256 193.84,-256 193.84,4 -4,4"/>
<!-- incentives -->
<g id="node1" class="node">
<title>incentives</title>
<ellipse fill="none" stroke="black" cx="63.75" cy="-18" rx="46.29" ry="18"/>
<text text-anchor="middle" x="63.75" y="-14.3" font-family="Times,serif" font-size="14.00">incentives</text>
</g>
<!-- registry -->
<g id="node2" class="node">
<title>registry</title>
<ellipse fill="none" stroke="black" cx="63.75" cy="-90" rx="37.89" ry="18"/>
<text text-anchor="middle" x="63.75" y="-86.3" font-family="Times,serif" font-size="14.00">registry</text>
</g>
<!-- registry&#45;&gt;incentives -->
<g id="edge1" class="edge">
<title>registry&#45;&gt;incentives</title>
<path fill="none" stroke="black" d="M63.75,-71.7C63.75,-64.24 63.75,-55.32 63.75,-46.97"/>
<polygon fill="black" stroke="black" points="67.25,-47.1 63.75,-37.1 60.25,-47.1 67.25,-47.1"/>
</g>
<!-- market -->
<g id="node3" class="node">
<title>market</title>
<ellipse fill="none" stroke="black" cx="35.75" cy="-234" rx="36" ry="18"/>
<text text-anchor="middle" x="35.75" y="-230.3" font-family="Times,serif" font-size="14.00">market</text>
</g>
<!-- market&#45;&gt;incentives -->
<g id="edge2" class="edge">
<title>market&#45;&gt;incentives</title>
<path fill="none" stroke="black" d="M28.65,-215.91C17.22,-185.79 -2.13,-121.73 16.75,-72 20.98,-60.85 28.75,-50.54 36.78,-42.03"/>
<polygon fill="black" stroke="black" points="38.78,-44.98 43.44,-35.46 33.86,-40 38.78,-44.98"/>
</g>
<!-- market&#45;&gt;registry -->
<g id="edge5" class="edge">
<title>market&#45;&gt;registry</title>
<path fill="none" stroke="black" d="M39.18,-215.59C43.95,-191.4 52.63,-147.36 58.29,-118.65"/>
<polygon fill="black" stroke="black" points="61.87,-119.6 60.37,-109.11 55,-118.24 61.87,-119.6"/>
</g>
<!-- user -->
<g id="node5" class="node">
<title>user</title>
<ellipse fill="none" stroke="black" cx="90.75" cy="-162" rx="27" ry="18"/>
<text text-anchor="middle" x="90.75" y="-158.3" font-family="Times,serif" font-size="14.00">user</text>
</g>
<!-- market&#45;&gt;user -->
<g id="edge6" class="edge">
<title>market&#45;&gt;user</title>
<path fill="none" stroke="black" d="M48.5,-216.76C55.5,-207.86 64.31,-196.65 72.06,-186.78"/>
<polygon fill="black" stroke="black" points="75.39,-189.21 78.81,-179.19 69.88,-184.89 75.39,-189.21"/>
</g>
<!-- govern -->
<g id="node4" class="node">
<title>govern</title>
<ellipse fill="none" stroke="black" cx="154.75" cy="-90" rx="35.19" ry="18"/>
<text text-anchor="middle" x="154.75" y="-86.3" font-family="Times,serif" font-size="14.00">govern</text>
</g>
<!-- govern&#45;&gt;incentives -->
<g id="edge3" class="edge">
<title>govern&#45;&gt;incentives</title>
<path fill="none" stroke="black" d="M135.89,-74.5C123.3,-64.81 106.51,-51.9 92.3,-40.96"/>
<polygon fill="black" stroke="black" points="94.9,-37.78 84.84,-34.46 90.63,-43.33 94.9,-37.78"/>
</g>
<!-- user&#45;&gt;registry -->
<g id="edge4" class="edge">
<title>user&#45;&gt;registry</title>
<path fill="none" stroke="black" d="M84.21,-144.05C81.19,-136.23 77.54,-126.75 74.15,-117.98"/>
<polygon fill="black" stroke="black" points="77.09,-116.86 70.22,-108.79 70.56,-119.38 77.09,-116.86"/>
</g>
</g>
</svg>
