<?xml version="1.0" encoding="UTF-8" standalone="no"?>
<!DOCTYPE svg PUBLIC "-//W3C//DTD SVG 1.1//EN"
 "http://www.w3.org/Graphics/SVG/1.1/DTD/svg11.dtd">
<!-- Generated by graphviz version 9.0.0 (20230911.1827)
 -->
<!-- Title: G Pages: 1 -->
<svg width="143pt" height="260pt"
 viewBox="0.00 0.00 143.28 260.00" xmlns="http://www.w3.org/2000/svg" xmlns:xlink="http://www.w3.org/1999/xlink">
<g id="graph0" class="graph" transform="scale(1 1) rotate(0) translate(4 256)">
<title>G</title>
<polygon fill="white" stroke="none" points="-4,4 -4,-256 139.28,-256 139.28,4 -4,4"/>
<!-- incentives -->
<g id="node1" class="node">
<title>incentives</title>
<ellipse fill="none" stroke="black" cx="48.28" cy="-18" rx="48.28" ry="18"/>
<text text-anchor="middle" x="48.28" y="-12.95" font-family="Times,serif" font-size="14.00">incentives</text>
</g>
<!-- registry -->
<g id="node2" class="node">
<title>registry</title>
<ellipse fill="none" stroke="black" cx="82.28" cy="-90" rx="39.07" ry="18"/>
<text text-anchor="middle" x="82.28" y="-84.95" font-family="Times,serif" font-size="14.00">registry</text>
</g>
<!-- registry&#45;&gt;incentives -->
<g id="edge1" class="edge">
<title>registry&#45;&gt;incentives</title>
<path fill="none" stroke="black" d="M74.05,-72.05C70.25,-64.23 65.64,-54.75 61.38,-45.98"/>
<polygon fill="black" stroke="black" points="64.61,-44.62 57.1,-37.15 58.32,-47.67 64.61,-44.62"/>
</g>
<!-- market -->
<g id="node3" class="node">
<title>market</title>
<ellipse fill="none" stroke="black" cx="53.28" cy="-234" rx="37.02" ry="18"/>
<text text-anchor="middle" x="53.28" y="-228.95" font-family="Times,serif" font-size="14.00">market</text>
</g>
<!-- market&#45;&gt;incentives -->
<g id="edge2" class="edge">
<title>market&#45;&gt;incentives</title>
<path fill="none" stroke="black" d="M48.53,-216.06C40.91,-186.7 27.47,-124.47 34.28,-72 35.35,-63.76 37.32,-54.97 39.45,-46.97"/>
<polygon fill="black" stroke="black" points="42.8,-47.99 42.19,-37.42 36.07,-46.07 42.8,-47.99"/>
</g>
<!-- market&#45;&gt;registry -->
<g id="edge4" class="edge">
<title>market&#45;&gt;registry</title>
<path fill="none" stroke="black" d="M56.84,-215.59C61.76,-191.5 70.69,-147.75 76.56,-119.03"/>
<polygon fill="black" stroke="black" points="79.91,-120.09 78.48,-109.59 73.05,-118.69 79.91,-120.09"/>
</g>
<!-- user -->
<g id="node4" class="node">
<title>user</title>
<ellipse fill="none" stroke="black" cx="108.28" cy="-162" rx="27" ry="18"/>
<text text-anchor="middle" x="108.28" y="-156.95" font-family="Times,serif" font-size="14.00">user</text>
</g>
<!-- market&#45;&gt;user -->
<g id="edge5" class="edge">
<title>market&#45;&gt;user</title>
<path fill="none" stroke="black" d="M66.04,-216.76C72.96,-207.95 81.66,-196.88 89.36,-187.08"/>
<polygon fill="black" stroke="black" points="91.99,-189.4 95.41,-179.38 86.48,-185.08 91.99,-189.4"/>
</g>
<!-- user&#45;&gt;registry -->
<g id="edge3" class="edge">
<title>user&#45;&gt;registry</title>
<path fill="none" stroke="black" d="M101.99,-144.05C99.14,-136.4 95.71,-127.16 92.52,-118.56"/>
<polygon fill="black" stroke="black" points="95.81,-117.36 89.04,-109.21 89.24,-119.8 95.81,-117.36"/>
</g>
</g>
</svg>
