<?xml version="1.0" encoding="UTF-8" standalone="no"?>
<!DOCTYPE svg PUBLIC "-//W3C//DTD SVG 1.1//EN"
 "http://www.w3.org/Graphics/SVG/1.1/DTD/svg11.dtd">
<!-- Generated by graphviz version 8.0.5 (20230430.1635)
 -->
<!-- Title: G Pages: 1 -->
<svg width="2890pt" height="908pt"
 viewBox="0.00 0.00 2890.00 908.00" xmlns="http://www.w3.org/2000/svg" xmlns:xlink="http://www.w3.org/1999/xlink">
<g id="graph0" class="graph" transform="scale(1 1) rotate(0) translate(4 904)">
<title>G</title>
<polygon fill="white" stroke="none" points="-4,4 -4,-904 2886,-904 2886,4 -4,4"/>
<!-- market -->
<g id="node1" class="node">
<title>market</title>
<ellipse fill="none" stroke="black" cx="1407" cy="-882" rx="37.02" ry="18"/>
<text text-anchor="middle" x="1407" y="-876.95" font-family="Times,serif" font-size="14.00">market</text>
</g>
<!-- vector -->
<g id="node2" class="node">
<title>vector</title>
<ellipse fill="none" stroke="black" cx="1302" cy="-18" rx="33.95" ry="18"/>
<text text-anchor="middle" x="1302" y="-12.95" font-family="Times,serif" font-size="14.00">vector</text>
</g>
<!-- market&#45;&gt;vector -->
<g id="edge1" class="edge">
<title>market&#45;&gt;vector</title>
<path fill="none" stroke="black" d="M1444.43,-881.32C1628.32,-882.62 2436.99,-884.93 2681,-828 2776.14,-805.8 2882,-836.7 2882,-739 2882,-739 2882,-739 2882,-161 2882,-47.24 2753.56,-94.3 2642,-72 2386.14,-20.85 1551.11,-18.64 1347.22,-18.88"/>
<polygon fill="black" stroke="black" points="1347.33,-15.38 1337.34,-18.9 1347.34,-22.38 1347.33,-15.38"/>
</g>
<!-- option -->
<g id="node3" class="node">
<title>option</title>
<ellipse fill="none" stroke="black" cx="685" cy="-90" rx="34.46" ry="18"/>
<text text-anchor="middle" x="685" y="-84.95" font-family="Times,serif" font-size="14.00">option</text>
</g>
<!-- market&#45;&gt;option -->
<g id="edge2" class="edge">
<title>market&#45;&gt;option</title>
<path fill="none" stroke="black" d="M1370.06,-879.19C1271.19,-874.01 1002.34,-857.53 919,-828 774.63,-776.84 342,-604.17 342,-451 342,-451 342,-451 342,-377 342,-220.73 554.62,-133.24 645.06,-103.1"/>
<polygon fill="black" stroke="black" points="646.04,-106.14 654.46,-99.71 643.87,-99.48 646.04,-106.14"/>
</g>
<!-- string -->
<g id="node4" class="node">
<title>string</title>
<ellipse fill="none" stroke="black" cx="206" cy="-162" rx="31.9" ry="18"/>
<text text-anchor="middle" x="206" y="-156.95" font-family="Times,serif" font-size="14.00">string</text>
</g>
<!-- market&#45;&gt;string -->
<g id="edge3" class="edge">
<title>market&#45;&gt;string</title>
<path fill="none" stroke="black" d="M1369.67,-881.15C1150.26,-881.56 38,-876.84 38,-739 38,-739 38,-739 38,-305 38,-237.08 119.08,-195 168.59,-175.63"/>
<polygon fill="black" stroke="black" points="169.51,-178.65 177.63,-171.84 167.04,-172.1 169.51,-178.65"/>
</g>
<!-- signer -->
<g id="node5" class="node">
<title>signer</title>
<ellipse fill="none" stroke="black" cx="2555" cy="-90" rx="33.44" ry="18"/>
<text text-anchor="middle" x="2555" y="-84.95" font-family="Times,serif" font-size="14.00">signer</text>
</g>
<!-- market&#45;&gt;signer -->
<g id="edge4" class="edge">
<title>market&#45;&gt;signer</title>
<path fill="none" stroke="black" d="M1444.42,-881.24C1666.9,-882.16 2806,-879.99 2806,-739 2806,-739 2806,-739 2806,-233 2806,-138.71 2670.16,-106.3 2598.34,-95.76"/>
<polygon fill="black" stroke="black" points="2599.2,-92.2 2588.81,-94.3 2598.24,-99.14 2599.2,-92.2"/>
</g>
<!-- type_info -->
<g id="node6" class="node">
<title>type_info</title>
<ellipse fill="none" stroke="black" cx="1454" cy="-234" rx="46.23" ry="18"/>
<text text-anchor="middle" x="1454" y="-228.95" font-family="Times,serif" font-size="14.00">type_info</text>
</g>
<!-- market&#45;&gt;type_info -->
<g id="edge5" class="edge">
<title>market&#45;&gt;type_info</title>
<path fill="none" stroke="black" d="M1408.82,-863.53C1411.45,-836.76 1416,-783.96 1416,-739 1416,-739 1416,-739 1416,-665 1416,-512.68 1439.95,-331.19 1449.82,-262.85"/>
<polygon fill="black" stroke="black" points="1453.4,-263.56 1451.39,-253.16 1446.48,-262.54 1453.4,-263.56"/>
</g>
<!-- event -->
<g id="node7" class="node">
<title>event</title>
<ellipse fill="none" stroke="black" cx="2135" cy="-378" rx="30.88" ry="18"/>
<text text-anchor="middle" x="2135" y="-372.95" font-family="Times,serif" font-size="14.00">event</text>
</g>
<!-- market&#45;&gt;event -->
<g id="edge6" class="edge">
<title>market&#45;&gt;event</title>
<path fill="none" stroke="black" d="M1441.71,-875.06C1532.32,-858.59 1769,-808.87 1769,-739 1769,-739 1769,-739 1769,-521 1769,-518.8 2007.31,-427.69 2099.33,-392.59"/>
<polygon fill="black" stroke="black" points="2100.46,-395.53 2108.55,-388.69 2097.96,-388.99 2100.46,-395.53"/>
</g>
<!-- account -->
<g id="node8" class="node">
<title>account</title>
<ellipse fill="none" stroke="black" cx="1574" cy="-450" rx="39.58" ry="18"/>
<text text-anchor="middle" x="1574" y="-444.95" font-family="Times,serif" font-size="14.00">account</text>
</g>
<!-- market&#45;&gt;account -->
<g id="edge7" class="edge">
<title>market&#45;&gt;account</title>
<path fill="none" stroke="black" d="M1442.44,-876.19C1508.09,-865.08 1642,-831.12 1642,-739 1642,-739 1642,-739 1642,-593 1642,-548.31 1614.26,-502.77 1594.21,-475.71"/>
<polygon fill="black" stroke="black" points="1596.61,-474.09 1587.76,-468.27 1591.05,-478.34 1596.61,-474.09"/>
</g>
<!-- coin -->
<g id="node9" class="node">
<title>coin</title>
<ellipse fill="none" stroke="black" cx="1255" cy="-522" rx="27" ry="18"/>
<text text-anchor="middle" x="1255" y="-516.95" font-family="Times,serif" font-size="14.00">coin</text>
</g>
<!-- market&#45;&gt;coin -->
<g id="edge8" class="edge">
<title>market&#45;&gt;coin</title>
<path fill="none" stroke="black" d="M1370.15,-879.09C1249.96,-871.89 877,-841.28 877,-739 877,-739 877,-739 877,-665 877,-592.67 1122.62,-544.68 1217.88,-528.79"/>
<polygon fill="black" stroke="black" points="1218.42,-532.08 1227.72,-527.01 1217.29,-525.17 1218.42,-532.08"/>
</g>
<!-- avl_queue -->
<g id="node10" class="node">
<title>avl_queue</title>
<ellipse fill="none" stroke="black" cx="419" cy="-450" rx="48.79" ry="18"/>
<text text-anchor="middle" x="419" y="-444.95" font-family="Times,serif" font-size="14.00">avl_queue</text>
</g>
<!-- market&#45;&gt;avl_queue -->
<g id="edge9" class="edge">
<title>market&#45;&gt;avl_queue</title>
<path fill="none" stroke="black" d="M1369.94,-880.3C1232.58,-877.42 752.92,-864.89 605,-828 529.34,-809.13 490.09,-819.62 445,-756 384.51,-670.63 401.68,-536.18 412.84,-478.63"/>
<polygon fill="black" stroke="black" points="416.4,-479.68 414.97,-469.18 409.54,-478.28 416.4,-479.68"/>
</g>
<!-- tablist -->
<g id="node11" class="node">
<title>tablist</title>
<ellipse fill="none" stroke="black" cx="630" cy="-594" rx="33.44" ry="18"/>
<text text-anchor="middle" x="630" y="-588.95" font-family="Times,serif" font-size="14.00">tablist</text>
</g>
<!-- market&#45;&gt;tablist -->
<g id="edge10" class="edge">
<title>market&#45;&gt;tablist</title>
<path fill="none" stroke="black" d="M1369.51,-881.37C1221.17,-882.43 680.91,-882.5 630,-828 577.48,-771.78 603,-670.5 619.59,-622.13"/>
<polygon fill="black" stroke="black" points="623.2,-623.44 623.26,-612.84 616.6,-621.08 623.2,-623.44"/>
</g>
<!-- resource_account -->
<g id="node12" class="node">
<title>resource_account</title>
<ellipse fill="none" stroke="black" cx="2270" cy="-522" rx="75.41" ry="18"/>
<text text-anchor="middle" x="2270" y="-516.95" font-family="Times,serif" font-size="14.00">resource_account</text>
</g>
<!-- market&#45;&gt;resource_account -->
<g id="edge11" class="edge">
<title>market&#45;&gt;resource_account</title>
<path fill="none" stroke="black" d="M1444.3,-881.68C1592.14,-883.42 2129,-880 2129,-739 2129,-739 2129,-739 2129,-665 2129,-608.71 2185.47,-566.8 2226.94,-543.61"/>
<polygon fill="black" stroke="black" points="2228.45,-546.23 2235.58,-538.39 2225.12,-540.07 2228.45,-546.23"/>
</g>
<!-- incentives -->
<g id="node13" class="node">
<title>incentives</title>
<ellipse fill="none" stroke="black" cx="2205" cy="-666" rx="48.28" ry="18"/>
<text text-anchor="middle" x="2205" y="-660.95" font-family="Times,serif" font-size="14.00">incentives</text>
</g>
<!-- market&#45;&gt;incentives -->
<g id="edge12" class="edge">
<title>market&#45;&gt;incentives</title>
<path fill="none" stroke="black" d="M1444.17,-880.63C1585.8,-878.9 2086.51,-869.84 2143,-828 2185.42,-796.57 2198.82,-732.1 2203.05,-694.98"/>
<polygon fill="black" stroke="black" points="2206.59,-695.7 2204.09,-685.41 2199.63,-695.02 2206.59,-695.7"/>
</g>
<!-- registry -->
<g id="node14" class="node">
<title>registry</title>
<ellipse fill="none" stroke="black" cx="1304" cy="-738" rx="39.07" ry="18"/>
<text text-anchor="middle" x="1304" y="-732.95" font-family="Times,serif" font-size="14.00">registry</text>
</g>
<!-- market&#45;&gt;registry -->
<g id="edge13" class="edge">
<title>market&#45;&gt;registry</title>
<path fill="none" stroke="black" d="M1395.18,-864.71C1377.35,-840.13 1343.41,-793.33 1322.35,-764.29"/>
<polygon fill="black" stroke="black" points="1324.7,-762.58 1315.99,-756.54 1319.03,-766.69 1324.7,-762.58"/>
</g>
<!-- user -->
<g id="node15" class="node">
<title>user</title>
<ellipse fill="none" stroke="black" cx="666" cy="-810" rx="27" ry="18"/>
<text text-anchor="middle" x="666" y="-804.95" font-family="Times,serif" font-size="14.00">user</text>
</g>
<!-- market&#45;&gt;user -->
<g id="edge14" class="edge">
<title>market&#45;&gt;user</title>
<path fill="none" stroke="black" d="M1370.01,-879.75C1244.4,-875.24 834.88,-858.52 707,-828 703.81,-827.24 700.54,-826.26 697.31,-825.15"/>
<polygon fill="black" stroke="black" points="698.87,-821.62 688.27,-821.32 696.37,-828.16 698.87,-821.62"/>
</g>
<!-- option&#45;&gt;vector -->
<g id="edge15" class="edge">
<title>option&#45;&gt;vector</title>
<path fill="none" stroke="black" d="M718.61,-85.19C822.88,-73.36 1140.86,-37.28 1258.04,-23.99"/>
<polygon fill="black" stroke="black" points="1258.19,-27.38 1267.74,-22.77 1257.4,-20.42 1258.19,-27.38"/>
</g>
<!-- string&#45;&gt;vector -->
<g id="edge16" class="edge">
<title>string&#45;&gt;vector</title>
<path fill="none" stroke="black" d="M231.53,-150.68C238.13,-148.26 245.27,-145.85 252,-144 421.96,-97.28 467.26,-95.08 642,-72 872.36,-41.57 1150.42,-26.15 1257.23,-21.01"/>
<polygon fill="black" stroke="black" points="1257.39,-24.46 1267.22,-20.49 1257.06,-17.47 1257.39,-24.46"/>
</g>
<!-- string&#45;&gt;option -->
<g id="edge17" class="edge">
<title>string&#45;&gt;option</title>
<path fill="none" stroke="black" d="M230.98,-150.57C237.71,-148.1 245.05,-145.69 252,-144 391.01,-110.29 560.59,-97.47 639.96,-93.07"/>
<polygon fill="black" stroke="black" points="639.76,-96.53 649.55,-92.5 639.38,-89.54 639.76,-96.53"/>
</g>
<!-- type_info&#45;&gt;string -->
<g id="edge18" class="edge">
<title>type_info&#45;&gt;string</title>
<path fill="none" stroke="black" d="M1408.48,-230.45C1212.25,-219.44 440.09,-176.13 248.97,-165.41"/>
<polygon fill="black" stroke="black" points="249.17,-161.86 238.99,-164.79 248.78,-168.85 249.17,-161.86"/>
</g>
<!-- error -->
<g id="node16" class="node">
<title>error</title>
<ellipse fill="none" stroke="black" cx="1584" cy="-90" rx="28.83" ry="18"/>
<text text-anchor="middle" x="1584" y="-84.95" font-family="Times,serif" font-size="14.00">error</text>
</g>
<!-- type_info&#45;&gt;error -->
<g id="edge19" class="edge">
<title>type_info&#45;&gt;error</title>
<path fill="none" stroke="black" d="M1468.91,-216.71C1491.98,-191.52 1536.4,-143 1562.8,-114.16"/>
<polygon fill="black" stroke="black" points="1564.88,-116.98 1569.05,-107.24 1559.72,-112.25 1564.88,-116.98"/>
</g>
<!-- features -->
<g id="node17" class="node">
<title>features</title>
<ellipse fill="none" stroke="black" cx="1781" cy="-162" rx="40.09" ry="18"/>
<text text-anchor="middle" x="1781" y="-156.95" font-family="Times,serif" font-size="14.00">features</text>
</g>
<!-- type_info&#45;&gt;features -->
<g id="edge20" class="edge">
<title>type_info&#45;&gt;features</title>
<path fill="none" stroke="black" d="M1488.76,-221.64C1495.44,-219.63 1502.41,-217.66 1509,-216 1586.7,-196.48 1678.41,-179.93 1733.02,-170.74"/>
<polygon fill="black" stroke="black" points="1733.48,-174.05 1742.77,-168.95 1732.33,-167.15 1733.48,-174.05"/>
</g>
<!-- bcs -->
<g id="node18" class="node">
<title>bcs</title>
<ellipse fill="none" stroke="black" cx="1881" cy="-162" rx="27" ry="18"/>
<text text-anchor="middle" x="1881" y="-156.95" font-family="Times,serif" font-size="14.00">bcs</text>
</g>
<!-- type_info&#45;&gt;bcs -->
<g id="edge21" class="edge">
<title>type_info&#45;&gt;bcs</title>
<path fill="none" stroke="black" d="M1488.07,-221.38C1494.94,-219.35 1502.15,-217.43 1509,-216 1649.53,-186.67 1689.8,-210.87 1830,-180 1835.81,-178.72 1841.89,-177.02 1847.74,-175.2"/>
<polygon fill="black" stroke="black" points="1848.53,-178.29 1856.93,-171.83 1846.34,-171.65 1848.53,-178.29"/>
</g>
<!-- event&#45;&gt;bcs -->
<g id="edge22" class="edge">
<title>event&#45;&gt;bcs</title>
<path fill="none" stroke="black" d="M2117.94,-362.63C2073.99,-325.6 1956.75,-226.82 1905.53,-183.66"/>
<polygon fill="black" stroke="black" points="1908.23,-180.52 1898.33,-176.75 1903.72,-185.87 1908.23,-180.52"/>
</g>
<!-- guid -->
<g id="node19" class="node">
<title>guid</title>
<ellipse fill="none" stroke="black" cx="1959" cy="-306" rx="27.3" ry="18"/>
<text text-anchor="middle" x="1959" y="-300.95" font-family="Times,serif" font-size="14.00">guid</text>
</g>
<!-- event&#45;&gt;guid -->
<g id="edge23" class="edge">
<title>event&#45;&gt;guid</title>
<path fill="none" stroke="black" d="M2110.16,-367.12C2079.24,-354.82 2026.35,-333.79 1992.04,-320.14"/>
<polygon fill="black" stroke="black" points="1993.62,-316.61 1983.04,-316.16 1991.04,-323.11 1993.62,-316.61"/>
</g>
<!-- account&#45;&gt;vector -->
<g id="edge24" class="edge">
<title>account&#45;&gt;vector</title>
<path fill="none" stroke="black" d="M1539.48,-440.71C1511.55,-432.73 1472.35,-418.5 1444,-396 1331.64,-306.84 1308.17,-118.58 1303.28,-47.23"/>
<polygon fill="black" stroke="black" points="1306.73,-47.2 1302.63,-37.43 1299.74,-47.63 1306.73,-47.2"/>
</g>
<!-- account&#45;&gt;option -->
<g id="edge25" class="edge">
<title>account&#45;&gt;option</title>
<path fill="none" stroke="black" d="M1539.59,-440.79C1504.29,-431.81 1448.16,-416.01 1402,-396 1254.06,-331.87 1234.86,-280.32 1087,-216 959.88,-160.7 800.45,-118.73 726.37,-100.69"/>
<polygon fill="black" stroke="black" points="727.62,-97.15 717.08,-98.2 725.98,-103.95 727.62,-97.15"/>
</g>
<!-- account&#45;&gt;signer -->
<g id="edge26" class="edge">
<title>account&#45;&gt;signer</title>
<path fill="none" stroke="black" d="M1613.8,-448.68C1774.8,-447.11 2372.74,-438.43 2445,-396 2485.51,-372.21 2502,-353.97 2502,-307 2502,-307 2502,-307 2502,-233 2502,-190.11 2523.48,-144.28 2539.09,-116.63"/>
<polygon fill="black" stroke="black" points="2542.52,-118.71 2544.53,-108.31 2536.47,-115.18 2542.52,-118.71"/>
</g>
<!-- account&#45;&gt;type_info -->
<g id="edge29" class="edge">
<title>account&#45;&gt;type_info</title>
<path fill="none" stroke="black" d="M1602.86,-437.36C1634.7,-424.23 1682.1,-403.7 1687,-396 1695.58,-382.5 1696.65,-372.76 1687,-360 1651.62,-313.2 1611.84,-351.47 1560,-324 1527.9,-306.99 1496.75,-279.03 1476.62,-258.99"/>
<polygon fill="black" stroke="black" points="1479.46,-256.88 1469.95,-252.21 1474.48,-261.79 1479.46,-256.88"/>
</g>
<!-- account&#45;&gt;event -->
<g id="edge37" class="edge">
<title>account&#45;&gt;event</title>
<path fill="none" stroke="black" d="M1604.53,-438.06C1612.11,-435.72 1620.28,-433.5 1628,-432 1830.2,-392.82 1888.99,-440.84 2090,-396 2093.42,-395.24 2096.93,-394.27 2100.41,-393.18"/>
<polygon fill="black" stroke="black" points="2101.32,-396.22 2109.63,-389.64 2099.03,-389.6 2101.32,-396.22"/>
</g>
<!-- account&#45;&gt;error -->
<g id="edge27" class="edge">
<title>account&#45;&gt;error</title>
<path fill="none" stroke="black" d="M1549.42,-435.42C1490.92,-401.23 1351.73,-307.74 1399,-216 1429.9,-156.03 1504.29,-119.82 1548.76,-102.79"/>
<polygon fill="black" stroke="black" points="1549.68,-105.81 1557.84,-99.06 1547.25,-99.25 1549.68,-105.81"/>
</g>
<!-- account&#45;&gt;bcs -->
<g id="edge28" class="edge">
<title>account&#45;&gt;bcs</title>
<path fill="none" stroke="black" d="M1602.26,-437.23C1607.74,-435.26 1613.5,-433.4 1619,-432 1675.09,-417.68 1838.63,-439.34 1877,-396 1927.88,-338.53 1905.54,-238.27 1890.57,-190.21"/>
<polygon fill="black" stroke="black" points="1893.66,-189.4 1887.24,-180.97 1887,-191.57 1893.66,-189.4"/>
</g>
<!-- account&#45;&gt;guid -->
<g id="edge35" class="edge">
<title>account&#45;&gt;guid</title>
<path fill="none" stroke="black" d="M1604.87,-438.24C1612.37,-435.92 1620.42,-433.66 1628,-432 1751.41,-404.92 1805.52,-467.06 1910,-396 1931.26,-381.54 1944.2,-354.68 1951.4,-334.24"/>
<polygon fill="black" stroke="black" points="1954.98,-335.54 1954.74,-324.95 1948.32,-333.38 1954.98,-335.54"/>
</g>
<!-- table -->
<g id="node20" class="node">
<title>table</title>
<ellipse fill="none" stroke="black" cx="628" cy="-306" rx="28.83" ry="18"/>
<text text-anchor="middle" x="628" y="-300.95" font-family="Times,serif" font-size="14.00">table</text>
</g>
<!-- account&#45;&gt;table -->
<g id="edge30" class="edge">
<title>account&#45;&gt;table</title>
<path fill="none" stroke="black" d="M1534.31,-448.15C1435.17,-445.48 1168.99,-434.96 951,-396 844.27,-376.92 721.72,-338.44 662.98,-318.93"/>
<polygon fill="black" stroke="black" points="664.36,-315.37 653.77,-315.51 662.14,-322.01 664.36,-315.37"/>
</g>
<!-- system_addresses -->
<g id="node21" class="node">
<title>system_addresses</title>
<ellipse fill="none" stroke="black" cx="2165" cy="-306" rx="76.94" ry="18"/>
<text text-anchor="middle" x="2165" y="-300.95" font-family="Times,serif" font-size="14.00">system_addresses</text>
</g>
<!-- account&#45;&gt;system_addresses -->
<g id="edge31" class="edge">
<title>account&#45;&gt;system_addresses</title>
<path fill="none" stroke="black" d="M1604.54,-438.1C1612.12,-435.75 1620.29,-433.52 1628,-432 1721.87,-413.52 1969.69,-435.1 2057,-396 2078.23,-386.49 2077.25,-375.04 2095,-360 2107.16,-349.69 2121.07,-338.95 2133.27,-329.86"/>
<polygon fill="black" stroke="black" points="2134.84,-332.32 2140.81,-323.57 2130.68,-326.69 2134.84,-332.32"/>
</g>
<!-- hash -->
<g id="node22" class="node">
<title>hash</title>
<ellipse fill="none" stroke="black" cx="1546" cy="-234" rx="27.81" ry="18"/>
<text text-anchor="middle" x="1546" y="-228.95" font-family="Times,serif" font-size="14.00">hash</text>
</g>
<!-- account&#45;&gt;hash -->
<g id="edge32" class="edge">
<title>account&#45;&gt;hash</title>
<path fill="none" stroke="black" d="M1560.3,-433.03C1552.7,-423.09 1544,-409.64 1540,-396 1526.7,-350.62 1533.58,-294.96 1539.79,-262.39"/>
<polygon fill="black" stroke="black" points="1543.36,-263.38 1541.93,-252.89 1536.5,-261.99 1543.36,-263.38"/>
</g>
<!-- ed25519 -->
<g id="node23" class="node">
<title>ed25519</title>
<ellipse fill="none" stroke="black" cx="1641" cy="-306" rx="42.65" ry="18"/>
<text text-anchor="middle" x="1641" y="-300.95" font-family="Times,serif" font-size="14.00">ed25519</text>
</g>
<!-- account&#45;&gt;ed25519 -->
<g id="edge33" class="edge">
<title>account&#45;&gt;ed25519</title>
<path fill="none" stroke="black" d="M1562.17,-432.62C1550.31,-414.01 1535.59,-383.21 1549,-360 1559.43,-341.96 1578.59,-329.51 1596.74,-321.24"/>
<polygon fill="black" stroke="black" points="1597.8,-324.17 1605.65,-317.07 1595.08,-317.72 1597.8,-324.17"/>
</g>
<!-- multi_ed25519 -->
<g id="node24" class="node">
<title>multi_ed25519</title>
<ellipse fill="none" stroke="black" cx="1801" cy="-378" rx="67.22" ry="18"/>
<text text-anchor="middle" x="1801" y="-372.95" font-family="Times,serif" font-size="14.00">multi_ed25519</text>
</g>
<!-- account&#45;&gt;multi_ed25519 -->
<g id="edge34" class="edge">
<title>account&#45;&gt;multi_ed25519</title>
<path fill="none" stroke="black" d="M1605.97,-438.89C1613.21,-436.61 1620.87,-434.22 1628,-432 1667.96,-419.59 1713.18,-405.74 1747.37,-395.31"/>
<polygon fill="black" stroke="black" points="1748.06,-398.46 1756.6,-392.19 1746.02,-391.76 1748.06,-398.46"/>
</g>
<!-- from_bcs -->
<g id="node25" class="node">
<title>from_bcs</title>
<ellipse fill="none" stroke="black" cx="1032" cy="-234" rx="46.23" ry="18"/>
<text text-anchor="middle" x="1032" y="-228.95" font-family="Times,serif" font-size="14.00">from_bcs</text>
</g>
<!-- account&#45;&gt;from_bcs -->
<g id="edge36" class="edge">
<title>account&#45;&gt;from_bcs</title>
<path fill="none" stroke="black" d="M1534.29,-447.58C1471.86,-444.25 1347.79,-433.11 1250,-396 1169.23,-365.35 1092.18,-295.84 1055.06,-258.99"/>
<polygon fill="black" stroke="black" points="1057.87,-256.84 1048.34,-252.21 1052.9,-261.78 1057.87,-256.84"/>
</g>
<!-- create_signer -->
<g id="node26" class="node">
<title>create_signer</title>
<ellipse fill="none" stroke="black" cx="1618" cy="-378" rx="60.05" ry="18"/>
<text text-anchor="middle" x="1618" y="-372.95" font-family="Times,serif" font-size="14.00">create_signer</text>
</g>
<!-- account&#45;&gt;create_signer -->
<g id="edge38" class="edge">
<title>account&#45;&gt;create_signer</title>
<path fill="none" stroke="black" d="M1584.43,-432.41C1589.56,-424.25 1595.86,-414.22 1601.62,-405.07"/>
<polygon fill="black" stroke="black" points="1604.98,-407.29 1607.34,-396.96 1599.06,-403.56 1604.98,-407.29"/>
</g>
<!-- chain_id -->
<g id="node27" class="node">
<title>chain_id</title>
<ellipse fill="none" stroke="black" cx="2005" cy="-378" rx="42.65" ry="18"/>
<text text-anchor="middle" x="2005" y="-372.95" font-family="Times,serif" font-size="14.00">chain_id</text>
</g>
<!-- account&#45;&gt;chain_id -->
<g id="edge39" class="edge">
<title>account&#45;&gt;chain_id</title>
<path fill="none" stroke="black" d="M1604.57,-438.25C1612.15,-435.9 1620.31,-433.63 1628,-432 1768.02,-402.37 1807.76,-424.56 1948,-396 1952.44,-395.1 1957.03,-394 1961.59,-392.81"/>
<polygon fill="black" stroke="black" points="1962.4,-395.94 1971.1,-389.9 1960.53,-389.2 1962.4,-395.94"/>
</g>
<!-- coin&#45;&gt;option -->
<g id="edge40" class="edge">
<title>coin&#45;&gt;option</title>
<path fill="none" stroke="black" d="M1227.63,-520.25C1143.42,-517.56 889.56,-506.38 818,-468 772.16,-443.41 742,-431.02 742,-379 742,-379 742,-379 742,-233 742,-189.7 718.9,-143.98 702.11,-116.47"/>
<polygon fill="black" stroke="black" points="704.55,-114.79 696.26,-108.2 698.63,-118.52 704.55,-114.79"/>
</g>
<!-- coin&#45;&gt;string -->
<g id="edge41" class="edge">
<title>coin&#45;&gt;string</title>
<path fill="none" stroke="black" d="M1227.92,-520.98C1086.35,-520.66 435.13,-516.56 361,-468 261.37,-402.74 222.72,-252.59 210.65,-190.57"/>
<polygon fill="black" stroke="black" points="213.96,-190.25 208.69,-181.06 207.08,-191.53 213.96,-190.25"/>
</g>
<!-- coin&#45;&gt;signer -->
<g id="edge42" class="edge">
<title>coin&#45;&gt;signer</title>
<path fill="none" stroke="black" d="M1282.43,-520.94C1468.66,-520.19 2540,-510.16 2540,-379 2540,-379 2540,-379 2540,-233 2540,-193.13 2545.92,-147.3 2550.32,-118.75"/>
<polygon fill="black" stroke="black" points="2553.92,-119.41 2552.04,-108.99 2547.01,-118.31 2553.92,-119.41"/>
</g>
<!-- coin&#45;&gt;type_info -->
<g id="edge44" class="edge">
<title>coin&#45;&gt;type_info</title>
<path fill="none" stroke="black" d="M1260.13,-503.93C1269.84,-473.28 1292.93,-407.7 1326,-360 1354.39,-319.06 1397.46,-280.35 1425.66,-257.15"/>
<polygon fill="black" stroke="black" points="1427.34,-259.48 1432.9,-250.46 1422.93,-254.04 1427.34,-259.48"/>
</g>
<!-- coin&#45;&gt;event -->
<g id="edge46" class="edge">
<title>coin&#45;&gt;event</title>
<path fill="none" stroke="black" d="M1281.96,-519.04C1356.09,-513.34 1561.56,-495.44 1623,-468 1645.76,-457.84 1642.96,-441.5 1666,-432 1840.86,-359.95 1905.56,-437.82 2090,-396 2093.42,-395.22 2096.93,-394.25 2100.41,-393.15"/>
<polygon fill="black" stroke="black" points="2101.32,-396.19 2109.62,-389.61 2099.03,-389.58 2101.32,-396.19"/>
</g>
<!-- coin&#45;&gt;account -->
<g id="edge47" class="edge">
<title>coin&#45;&gt;account</title>
<path fill="none" stroke="black" d="M1280.57,-515.39C1334.46,-503.56 1460.33,-475.94 1528.39,-461.01"/>
<polygon fill="black" stroke="black" points="1528.78,-464.29 1537.8,-458.73 1527.28,-457.45 1528.78,-464.29"/>
</g>
<!-- coin&#45;&gt;error -->
<g id="edge43" class="edge">
<title>coin&#45;&gt;error</title>
<path fill="none" stroke="black" d="M1256.32,-503.63C1258.02,-485.46 1261.68,-456.26 1269,-432 1295.67,-343.56 1402.28,-160.28 1422,-144 1457.47,-114.73 1509.59,-101.46 1545.06,-95.56"/>
<polygon fill="black" stroke="black" points="1545.14,-98.93 1554.5,-93.95 1544.08,-92.01 1545.14,-98.93"/>
</g>
<!-- coin&#45;&gt;system_addresses -->
<g id="edge45" class="edge">
<title>coin&#45;&gt;system_addresses</title>
<path fill="none" stroke="black" d="M1282,-519.42C1427.55,-510.61 2114.49,-465.54 2175,-396 2189.47,-379.37 2184.85,-353.87 2177.84,-334.42"/>
<polygon fill="black" stroke="black" points="2180.77,-333.32 2173.81,-325.33 2174.27,-335.92 2180.77,-333.32"/>
</g>
<!-- aggregator -->
<g id="node28" class="node">
<title>aggregator</title>
<ellipse fill="none" stroke="black" cx="858" cy="-306" rx="50.33" ry="18"/>
<text text-anchor="middle" x="858" y="-300.95" font-family="Times,serif" font-size="14.00">aggregator</text>
</g>
<!-- coin&#45;&gt;aggregator -->
<g id="edge48" class="edge">
<title>coin&#45;&gt;aggregator</title>
<path fill="none" stroke="black" d="M1227.96,-519.61C1139.51,-514.79 862.96,-497.46 837,-468 804.26,-430.85 826.34,-368.88 843.42,-333.64"/>
<polygon fill="black" stroke="black" points="846.89,-335.54 848.28,-325.04 840.64,-332.38 846.89,-335.54"/>
</g>
<!-- aggregator_factory -->
<g id="node29" class="node">
<title>aggregator_factory</title>
<ellipse fill="none" stroke="black" cx="1041" cy="-378" rx="81.04" ry="18"/>
<text text-anchor="middle" x="1041" y="-372.95" font-family="Times,serif" font-size="14.00">aggregator_factory</text>
</g>
<!-- coin&#45;&gt;aggregator_factory -->
<g id="edge49" class="edge">
<title>coin&#45;&gt;aggregator_factory</title>
<path fill="none" stroke="black" d="M1236.38,-508.65C1200.33,-484.72 1120.51,-431.76 1074.83,-401.45"/>
<polygon fill="black" stroke="black" points="1077.17,-398.14 1066.9,-395.52 1073.3,-403.97 1077.17,-398.14"/>
</g>
<!-- optional_aggregator -->
<g id="node30" class="node">
<title>optional_aggregator</title>
<ellipse fill="none" stroke="black" cx="931" cy="-450" rx="85.13" ry="18"/>
<text text-anchor="middle" x="931" y="-444.95" font-family="Times,serif" font-size="14.00">optional_aggregator</text>
</g>
<!-- coin&#45;&gt;optional_aggregator -->
<g id="edge50" class="edge">
<title>coin&#45;&gt;optional_aggregator</title>
<path fill="none" stroke="black" d="M1229.31,-515.45C1180.19,-504.84 1071.49,-481.35 999.77,-465.86"/>
<polygon fill="black" stroke="black" points="1000.54,-462.23 990.02,-463.54 999.06,-469.07 1000.54,-462.23"/>
</g>
<!-- avl_queue&#45;&gt;option -->
<g id="edge51" class="edge">
<title>avl_queue&#45;&gt;option</title>
<path fill="none" stroke="black" d="M411.11,-431.93C399.71,-405.67 380,-353.53 380,-307 380,-307 380,-307 380,-233 380,-175.56 560.01,-122.57 643.45,-101.09"/>
<polygon fill="black" stroke="black" points="644.25,-104.25 653.08,-98.39 642.52,-97.46 644.25,-104.25"/>
</g>
<!-- avl_queue&#45;&gt;table -->
<g id="edge52" class="edge">
<title>avl_queue&#45;&gt;table</title>
<path fill="none" stroke="black" d="M463.03,-441.69C495.58,-434.5 539.52,-420.85 571,-396 591.75,-379.62 607.2,-353.48 616.74,-333.76"/>
<polygon fill="black" stroke="black" points="620.31,-335.39 621.31,-324.84 613.95,-332.46 620.31,-335.39"/>
</g>
<!-- table_with_length -->
<g id="node31" class="node">
<title>table_with_length</title>
<ellipse fill="none" stroke="black" cx="485" cy="-378" rx="77.45" ry="18"/>
<text text-anchor="middle" x="485" y="-372.95" font-family="Times,serif" font-size="14.00">table_with_length</text>
</g>
<!-- avl_queue&#45;&gt;table_with_length -->
<g id="edge53" class="edge">
<title>avl_queue&#45;&gt;table_with_length</title>
<path fill="none" stroke="black" d="M434.31,-432.76C442.52,-424.06 452.8,-413.15 461.96,-403.43"/>
<polygon fill="black" stroke="black" points="464,-406.31 468.32,-396.63 458.91,-401.51 464,-406.31"/>
</g>
<!-- tablist&#45;&gt;option -->
<g id="edge54" class="edge">
<title>tablist&#45;&gt;option</title>
<path fill="none" stroke="black" d="M598.36,-587.39C515.18,-571.93 293.9,-525.99 252,-468 242.63,-455.03 250.95,-447.97 252,-432 260.46,-303.17 198.81,-235.39 290,-144 296.18,-137.81 538.95,-108.34 640.77,-96.22"/>
<polygon fill="black" stroke="black" points="641.09,-99.59 650.61,-94.94 640.26,-92.64 641.09,-99.59"/>
</g>
<!-- tablist&#45;&gt;table_with_length -->
<g id="edge55" class="edge">
<title>tablist&#45;&gt;table_with_length</title>
<path fill="none" stroke="black" d="M618.86,-576.56C593.84,-539.63 533,-449.84 502.72,-405.15"/>
<polygon fill="black" stroke="black" points="505.08,-403.4 496.58,-397.09 499.29,-407.33 505.08,-403.4"/>
</g>
<!-- resource_account&#45;&gt;account -->
<g id="edge57" class="edge">
<title>resource_account&#45;&gt;account</title>
<path fill="none" stroke="black" d="M2201.68,-514.13C2061.68,-500.05 1745.18,-468.22 1623.21,-455.95"/>
<polygon fill="black" stroke="black" points="1623.67,-452.38 1613.37,-454.86 1622.97,-459.34 1623.67,-452.38"/>
</g>
<!-- resource_account&#45;&gt;bcs -->
<g id="edge56" class="edge">
<title>resource_account&#45;&gt;bcs</title>
<path fill="none" stroke="black" d="M2270,-503.51C2270,-476.71 2270,-423.87 2270,-379 2270,-379 2270,-379 2270,-305 2270,-267.57 2012.57,-197.07 1916.55,-172.07"/>
<polygon fill="black" stroke="black" points="1917.48,-168.44 1906.93,-169.32 1915.73,-175.21 1917.48,-168.44"/>
</g>
<!-- timestamp -->
<g id="node32" class="node">
<title>timestamp</title>
<ellipse fill="none" stroke="black" cx="2386" cy="-378" rx="50.33" ry="18"/>
<text text-anchor="middle" x="2386" y="-372.95" font-family="Times,serif" font-size="14.00">timestamp</text>
</g>
<!-- resource_account&#45;&gt;timestamp -->
<g id="edge58" class="edge">
<title>resource_account&#45;&gt;timestamp</title>
<path fill="none" stroke="black" d="M2283.99,-503.87C2304.31,-479 2342.1,-432.75 2365.54,-404.05"/>
<polygon fill="black" stroke="black" points="2368.7,-406.71 2372.32,-396.75 2363.28,-402.28 2368.7,-406.71"/>
</g>
<!-- incentives&#45;&gt;vector -->
<g id="edge59" class="edge">
<title>incentives&#45;&gt;vector</title>
<path fill="none" stroke="black" d="M2253.62,-665.95C2326.92,-665.68 2468.75,-658.45 2578,-612 2637.15,-586.85 2692,-587.28 2692,-523 2692,-523 2692,-523 2692,-305 2692,-264.64 2627.01,-76.55 2621,-72 2569.13,-32.76 1571.79,-21.43 1346.82,-19.37"/>
<polygon fill="black" stroke="black" points="1347.13,-15.87 1337.1,-19.28 1347.07,-22.87 1347.13,-15.87"/>
</g>
<!-- incentives&#45;&gt;signer -->
<g id="edge60" class="edge">
<title>incentives&#45;&gt;signer</title>
<path fill="none" stroke="black" d="M2251.36,-660.32C2366.08,-647.45 2654,-606.8 2654,-523 2654,-523 2654,-523 2654,-233 2654,-182.67 2611.63,-137.42 2582.33,-112.14"/>
<polygon fill="black" stroke="black" points="2585.01,-108.98 2575.09,-105.26 2580.52,-114.35 2585.01,-108.98"/>
</g>
<!-- incentives&#45;&gt;type_info -->
<g id="edge61" class="edge">
<title>incentives&#45;&gt;type_info</title>
<path fill="none" stroke="black" d="M2201.86,-647.67C2197.62,-623.6 2190.11,-578.63 2186,-540 2177.52,-460.3 2222.64,-424.45 2175,-360 2147.91,-323.36 2121.29,-340.98 2079,-324 2041.31,-308.87 2034.46,-297.63 1995,-288 1784.59,-236.64 1721.82,-292.24 1509,-252 1505.4,-251.32 1501.71,-250.49 1498.03,-249.56"/>
<polygon fill="black" stroke="black" points="1499.3,-246.01 1488.73,-246.74 1497.45,-252.76 1499.3,-246.01"/>
</g>
<!-- incentives&#45;&gt;coin -->
<g id="edge62" class="edge">
<title>incentives&#45;&gt;coin</title>
<path fill="none" stroke="black" d="M2160.77,-658.39C1999.06,-634.22 1441.56,-550.89 1292.11,-528.55"/>
<polygon fill="black" stroke="black" points="1292.68,-524.94 1282.27,-526.93 1291.65,-531.87 1292.68,-524.94"/>
</g>
<!-- incentives&#45;&gt;tablist -->
<g id="edge64" class="edge">
<title>incentives&#45;&gt;tablist</title>
<path fill="none" stroke="black" d="M2157,-662.87C1922.52,-652.45 899.64,-606.98 674.11,-596.96"/>
<polygon fill="black" stroke="black" points="674.52,-593.43 664.37,-596.48 674.21,-600.42 674.52,-593.43"/>
</g>
<!-- incentives&#45;&gt;resource_account -->
<g id="edge65" class="edge">
<title>incentives&#45;&gt;resource_account</title>
<path fill="none" stroke="black" d="M2212.84,-647.87C2223.97,-623.56 2244.45,-578.82 2257.63,-550.01"/>
<polygon fill="black" stroke="black" points="2261.15,-551.74 2262.13,-541.19 2254.79,-548.83 2261.15,-551.74"/>
</g>
<!-- aptos_coin -->
<g id="node33" class="node">
<title>aptos_coin</title>
<ellipse fill="none" stroke="black" cx="2345" cy="-594" rx="50.84" ry="18"/>
<text text-anchor="middle" x="2345" y="-588.95" font-family="Times,serif" font-size="14.00">aptos_coin</text>
</g>
<!-- incentives&#45;&gt;aptos_coin -->
<g id="edge63" class="edge">
<title>incentives&#45;&gt;aptos_coin</title>
<path fill="none" stroke="black" d="M2232.99,-651C2254.22,-640.39 2283.62,-625.69 2306.98,-614.01"/>
<polygon fill="black" stroke="black" points="2308.2,-616.82 2315.57,-609.21 2305.06,-610.55 2308.2,-616.82"/>
</g>
<!-- registry&#45;&gt;option -->
<g id="edge66" class="edge">
<title>registry&#45;&gt;option</title>
<path fill="none" stroke="black" d="M1268.92,-729.89C1222.98,-720.39 1140.06,-702.58 1070,-684 1030.2,-673.45 390.76,-496.46 361,-468 306.14,-415.53 304,-382.91 304,-307 304,-307 304,-307 304,-233 304,-165.16 365.87,-171.22 428,-144 498.32,-113.19 587.42,-99.98 640.11,-94.54"/>
<polygon fill="black" stroke="black" points="640.17,-97.96 649.78,-93.5 639.48,-90.99 640.17,-97.96"/>
</g>
<!-- registry&#45;&gt;string -->
<g id="edge67" class="edge">
<title>registry&#45;&gt;string</title>
<path fill="none" stroke="black" d="M1265.01,-735.89C1063.78,-729.15 152,-685.66 152,-451 152,-451 152,-451 152,-305 152,-262.01 173.89,-216.2 189.79,-188.59"/>
<polygon fill="black" stroke="black" points="193.23,-190.66 195.33,-180.28 187.21,-187.09 193.23,-190.66"/>
</g>
<!-- registry&#45;&gt;signer -->
<g id="edge68" class="edge">
<title>registry&#45;&gt;signer</title>
<path fill="none" stroke="black" d="M1343.4,-736.69C1474.44,-735.26 1907.34,-727.34 2262,-684 2472.16,-658.32 2730,-806.73 2730,-595 2730,-595 2730,-595 2730,-233 2730,-163.45 2645.63,-122.02 2594.05,-103.2"/>
<polygon fill="black" stroke="black" points="2595.49,-99.64 2584.9,-99.63 2593.17,-106.24 2595.49,-99.64"/>
</g>
<!-- registry&#45;&gt;type_info -->
<g id="edge69" class="edge">
<title>registry&#45;&gt;type_info</title>
<path fill="none" stroke="black" d="M1311.29,-719.87C1321.8,-693.53 1340,-641.29 1340,-595 1340,-595 1340,-595 1340,-521 1340,-418.52 1403.94,-309.13 1436.05,-260.66"/>
<polygon fill="black" stroke="black" points="1439.33,-263.04 1442.02,-252.8 1433.53,-259.13 1439.33,-263.04"/>
</g>
<!-- registry&#45;&gt;event -->
<g id="edge71" class="edge">
<title>registry&#45;&gt;event</title>
<path fill="none" stroke="black" d="M1326.07,-722.71C1342.4,-712.11 1365.15,-697.25 1385,-684 1550.47,-573.53 1568.27,-500.69 1755,-432 1895.54,-380.3 1944.34,-430.74 2090,-396 2093.41,-395.19 2096.92,-394.18 2100.39,-393.07"/>
<polygon fill="black" stroke="black" points="2101.31,-396.11 2109.6,-389.51 2099,-389.5 2101.31,-396.11"/>
</g>
<!-- registry&#45;&gt;account -->
<g id="edge72" class="edge">
<title>registry&#45;&gt;account</title>
<path fill="none" stroke="black" d="M1318.9,-721.22C1363.79,-673.67 1497.91,-531.6 1551.51,-474.82"/>
<polygon fill="black" stroke="black" points="1553.49,-477.76 1557.81,-468.09 1548.4,-472.96 1553.49,-477.76"/>
</g>
<!-- registry&#45;&gt;coin -->
<g id="edge73" class="edge">
<title>registry&#45;&gt;coin</title>
<path fill="none" stroke="black" d="M1300.07,-719.85C1291.61,-682.91 1271.61,-595.55 1261.34,-550.67"/>
<polygon fill="black" stroke="black" points="1264.59,-550.2 1258.95,-541.23 1257.77,-551.76 1264.59,-550.2"/>
</g>
<!-- registry&#45;&gt;tablist -->
<g id="edge74" class="edge">
<title>registry&#45;&gt;tablist</title>
<path fill="none" stroke="black" d="M1264.72,-736.84C1181.89,-735.59 983.89,-727.83 825,-684 764.41,-667.28 698.88,-633.88 661.31,-613.09"/>
<polygon fill="black" stroke="black" points="663.37,-609.67 652.93,-607.84 659.95,-615.78 663.37,-609.67"/>
</g>
<!-- registry&#45;&gt;incentives -->
<g id="edge75" class="edge">
<title>registry&#45;&gt;incentives</title>
<path fill="none" stroke="black" d="M1342.43,-734.01C1484.01,-723.01 1977.14,-684.7 2146.98,-671.51"/>
<polygon fill="black" stroke="black" points="2147.24,-674.92 2156.93,-670.66 2146.69,-667.94 2147.24,-674.92"/>
</g>
<!-- registry&#45;&gt;table -->
<g id="edge70" class="edge">
<title>registry&#45;&gt;table</title>
<path fill="none" stroke="black" d="M1272.67,-726.97C1184.64,-697.73 930.26,-605.79 758,-468 708.25,-428.21 665.05,-366.29 643.19,-332"/>
<polygon fill="black" stroke="black" points="645.89,-330.7 637.6,-324.1 639.96,-334.43 645.89,-330.7"/>
</g>
<!-- user&#45;&gt;vector -->
<g id="edge76" class="edge">
<title>user&#45;&gt;vector</title>
<path fill="none" stroke="black" d="M638.73,-809.68C571.21,-810.47 391.73,-807.19 254,-756 88.65,-694.54 0,-627.41 0,-451 0,-451 0,-451 0,-161 0,-31.73 1027.43,-20.07 1256.91,-19.08"/>
<polygon fill="black" stroke="black" points="1256.86,-22.58 1266.84,-19.04 1256.83,-15.58 1256.86,-22.58"/>
</g>
<!-- user&#45;&gt;option -->
<g id="edge77" class="edge">
<title>user&#45;&gt;option</title>
<path fill="none" stroke="black" d="M638.66,-808.02C581.74,-805.23 447.09,-794.73 342,-756 173.23,-693.8 76,-630.87 76,-451 76,-451 76,-451 76,-233 76,-177.06 114.47,-168 165,-144 248.6,-104.28 529.15,-94.21 639.69,-91.76"/>
<polygon fill="black" stroke="black" points="639.54,-95.24 649.46,-91.53 639.39,-88.24 639.54,-95.24"/>
</g>
<!-- user&#45;&gt;string -->
<g id="edge78" class="edge">
<title>user&#45;&gt;string</title>
<path fill="none" stroke="black" d="M639.75,-805.21C530.05,-787.76 114,-704.86 114,-451 114,-451 114,-451 114,-305 114,-255.75 153.46,-210.11 180.69,-184.47"/>
<polygon fill="black" stroke="black" points="182.66,-187.49 187.7,-178.17 177.95,-182.32 182.66,-187.49"/>
</g>
<!-- user&#45;&gt;signer -->
<g id="edge79" class="edge">
<title>user&#45;&gt;signer</title>
<path fill="none" stroke="black" d="M693.35,-809.2C939.73,-810.64 2768,-813.94 2768,-595 2768,-595 2768,-595 2768,-233 2768,-151.66 2659.14,-114.05 2597.07,-99.21"/>
<polygon fill="black" stroke="black" points="2597.96,-95.6 2587.43,-96.78 2596.4,-102.42 2597.96,-95.6"/>
</g>
<!-- user&#45;&gt;type_info -->
<g id="edge80" class="edge">
<title>user&#45;&gt;type_info</title>
<path fill="none" stroke="black" d="M673.23,-792.26C691.83,-750.85 745.03,-642.2 818,-576 894.85,-506.27 933.57,-517.08 1025,-468 1170.82,-389.72 1204.96,-365.87 1351,-288 1372.76,-276.4 1397.31,-263.75 1416.98,-253.72"/>
<polygon fill="black" stroke="black" points="1418.45,-256.39 1425.78,-248.73 1415.28,-250.15 1418.45,-256.39"/>
</g>
<!-- user&#45;&gt;coin -->
<g id="edge82" class="edge">
<title>user&#45;&gt;coin</title>
<path fill="none" stroke="black" d="M685.69,-797.32C701.24,-787.51 722.92,-772.48 739,-756 806.84,-686.46 780.23,-626.86 863,-576 921.87,-539.83 1130.37,-527.78 1216.91,-524.27"/>
<polygon fill="black" stroke="black" points="1216.95,-527.74 1226.81,-523.85 1216.68,-520.74 1216.95,-527.74"/>
</g>
<!-- user&#45;&gt;tablist -->
<g id="edge83" class="edge">
<title>user&#45;&gt;tablist</title>
<path fill="none" stroke="black" d="M663.11,-791.85C656.91,-754.99 642.27,-667.92 634.7,-622.96"/>
<polygon fill="black" stroke="black" points="638.01,-622.51 632.9,-613.23 631.11,-623.67 638.01,-622.51"/>
</g>
<!-- user&#45;&gt;registry -->
<g id="edge84" class="edge">
<title>user&#45;&gt;registry</title>
<path fill="none" stroke="black" d="M692.6,-806.08C790.01,-795.39 1128.14,-758.29 1255.22,-744.35"/>
<polygon fill="black" stroke="black" points="1255.58,-747.72 1265.14,-743.15 1254.81,-740.77 1255.58,-747.72"/>
</g>
<!-- user&#45;&gt;table -->
<g id="edge81" class="edge">
<title>user&#45;&gt;table</title>
<path fill="none" stroke="black" d="M657.11,-792.78C639.66,-759.88 601.44,-682.46 588,-612 568.61,-510.38 601.47,-387.9 618.61,-334.33"/>
<polygon fill="black" stroke="black" points="622.21,-335.57 622,-324.97 615.56,-333.39 622.21,-335.57"/>
</g>
<!-- features&#45;&gt;signer -->
<g id="edge85" class="edge">
<title>features&#45;&gt;signer</title>
<path fill="none" stroke="black" d="M1813.63,-151.09C1823.62,-148.39 1834.68,-145.74 1845,-144 2094.23,-101.97 2398.29,-93.27 2510.58,-91.47"/>
<polygon fill="black" stroke="black" points="2510.52,-94.96 2520.47,-91.31 2510.42,-87.96 2510.52,-94.96"/>
</g>
<!-- features&#45;&gt;error -->
<g id="edge86" class="edge">
<title>features&#45;&gt;error</title>
<path fill="none" stroke="black" d="M1750.22,-150.06C1714.51,-137.37 1655.79,-116.51 1618.55,-103.28"/>
<polygon fill="black" stroke="black" points="1620.25,-99.81 1609.65,-99.76 1617.9,-106.41 1620.25,-99.81"/>
</g>
<!-- system_addresses&#45;&gt;signer -->
<g id="edge87" class="edge">
<title>system_addresses&#45;&gt;signer</title>
<path fill="none" stroke="black" d="M2215.22,-291.94C2246.76,-282.8 2287.8,-269.16 2322,-252 2364.39,-230.73 2475.21,-150.09 2527.25,-111.64"/>
<polygon fill="black" stroke="black" points="2529.01,-113.95 2534.96,-105.19 2524.84,-108.32 2529.01,-113.95"/>
</g>
<!-- system_addresses&#45;&gt;error -->
<g id="edge88" class="edge">
<title>system_addresses&#45;&gt;error</title>
<path fill="none" stroke="black" d="M2145.69,-288.3C2105.91,-254.91 2010.68,-179.99 1917,-144 1816.22,-105.28 1687.82,-94.84 1623.9,-92.03"/>
<polygon fill="black" stroke="black" points="1624.24,-88.5 1614.1,-91.6 1623.96,-95.5 1624.24,-88.5"/>
</g>
<!-- ed25519&#45;&gt;option -->
<g id="edge89" class="edge">
<title>ed25519&#45;&gt;option</title>
<path fill="none" stroke="black" d="M1632.2,-288.09C1619.74,-264.84 1596.93,-224.85 1583,-216 1438.67,-124.28 892.42,-98.21 730.5,-92.42"/>
<polygon fill="black" stroke="black" points="730.63,-88.89 720.52,-92.04 730.39,-95.88 730.63,-88.89"/>
</g>
<!-- ed25519&#45;&gt;type_info -->
<g id="edge92" class="edge">
<title>ed25519&#45;&gt;type_info</title>
<path fill="none" stroke="black" d="M1609.7,-293.28C1578.79,-281.71 1531.29,-263.93 1496.89,-251.05"/>
<polygon fill="black" stroke="black" points="1498.25,-247.45 1487.66,-247.23 1495.8,-254.01 1498.25,-247.45"/>
</g>
<!-- ed25519&#45;&gt;error -->
<g id="edge90" class="edge">
<title>ed25519&#45;&gt;error</title>
<path fill="none" stroke="black" d="M1636.43,-287.85C1626.59,-250.91 1603.32,-163.55 1591.37,-118.67"/>
<polygon fill="black" stroke="black" points="1594.55,-117.99 1588.59,-109.23 1587.78,-119.8 1594.55,-117.99"/>
</g>
<!-- ed25519&#45;&gt;bcs -->
<g id="edge91" class="edge">
<title>ed25519&#45;&gt;bcs</title>
<path fill="none" stroke="black" d="M1664.89,-290.87C1709.26,-264.61 1804.22,-208.43 1852.11,-180.09"/>
<polygon fill="black" stroke="black" points="1853.48,-182.76 1860.31,-174.65 1849.92,-176.73 1853.48,-182.76"/>
</g>
<!-- ed25519&#45;&gt;hash -->
<g id="edge93" class="edge">
<title>ed25519&#45;&gt;hash</title>
<path fill="none" stroke="black" d="M1620.39,-289.81C1606.34,-279.46 1587.61,-265.66 1572.46,-254.49"/>
<polygon fill="black" stroke="black" points="1575.14,-251.39 1565.01,-248.27 1570.99,-257.02 1575.14,-251.39"/>
</g>
<!-- multi_ed25519&#45;&gt;option -->
<g id="edge94" class="edge">
<title>multi_ed25519&#45;&gt;option</title>
<path fill="none" stroke="black" d="M1746.98,-366.9C1697.85,-357.3 1623.55,-341.72 1560,-324 1320.37,-257.18 1271.64,-203.11 1030,-144 923.72,-118 795.74,-102.31 729.54,-95.32"/>
<polygon fill="black" stroke="black" points="729.99,-91.75 719.69,-94.2 729.27,-98.71 729.99,-91.75"/>
</g>
<!-- multi_ed25519&#45;&gt;error -->
<g id="edge95" class="edge">
<title>multi_ed25519&#45;&gt;error</title>
<path fill="none" stroke="black" d="M1788.08,-359.97C1751.17,-311.32 1645.21,-171.67 1602.34,-115.17"/>
<polygon fill="black" stroke="black" points="1604.62,-113.38 1595.78,-107.53 1599.04,-117.61 1604.62,-113.38"/>
</g>
<!-- multi_ed25519&#45;&gt;features -->
<g id="edge96" class="edge">
<title>multi_ed25519&#45;&gt;features</title>
<path fill="none" stroke="black" d="M1799.4,-359.85C1795.95,-322.99 1787.82,-235.92 1783.61,-190.96"/>
<polygon fill="black" stroke="black" points="1787.03,-190.86 1782.61,-181.23 1780.06,-191.51 1787.03,-190.86"/>
</g>
<!-- multi_ed25519&#45;&gt;bcs -->
<g id="edge97" class="edge">
<title>multi_ed25519&#45;&gt;bcs</title>
<path fill="none" stroke="black" d="M1807.41,-359.85C1821.28,-322.74 1854.18,-234.75 1870.89,-190.05"/>
<polygon fill="black" stroke="black" points="1874.45,-191.53 1874.67,-180.94 1867.89,-189.08 1874.45,-191.53"/>
</g>
<!-- multi_ed25519&#45;&gt;hash -->
<g id="edge98" class="edge">
<title>multi_ed25519&#45;&gt;hash</title>
<path fill="none" stroke="black" d="M1750.87,-365.59C1690.22,-351.63 1595.37,-329.18 1589,-324 1569.9,-308.47 1558.71,-282.4 1552.55,-262.48"/>
<polygon fill="black" stroke="black" points="1555.72,-261.82 1549.64,-253.15 1548.99,-263.73 1555.72,-261.82"/>
</g>
<!-- multi_ed25519&#45;&gt;ed25519 -->
<g id="edge99" class="edge">
<title>multi_ed25519&#45;&gt;ed25519</title>
<path fill="none" stroke="black" d="M1767.07,-362.15C1741.45,-350.95 1706.26,-335.55 1679.57,-323.87"/>
<polygon fill="black" stroke="black" points="1681.36,-320.4 1670.8,-319.6 1678.55,-326.81 1681.36,-320.4"/>
</g>
<!-- from_bcs&#45;&gt;string -->
<g id="edge100" class="edge">
<title>from_bcs&#45;&gt;string</title>
<path fill="none" stroke="black" d="M987,-229.19C842.13,-216.91 389.04,-178.51 248.2,-166.58"/>
<polygon fill="black" stroke="black" points="248.72,-163.02 238.46,-165.67 248.13,-170 248.72,-163.02"/>
</g>
<!-- chain_id&#45;&gt;system_addresses -->
<g id="edge101" class="edge">
<title>chain_id&#45;&gt;system_addresses</title>
<path fill="none" stroke="black" d="M2033.97,-364.32C2057.96,-353.83 2092.44,-338.75 2120.01,-326.68"/>
<polygon fill="black" stroke="black" points="2121.06,-329.61 2128.82,-322.39 2118.25,-323.19 2121.06,-329.61"/>
</g>
<!-- aggregator_factory&#45;&gt;error -->
<g id="edge102" class="edge">
<title>aggregator_factory&#45;&gt;error</title>
<path fill="none" stroke="black" d="M1055.65,-360.03C1094.62,-316.1 1206.09,-198.35 1326,-144 1398.75,-111.02 1492.35,-98.37 1544.46,-93.66"/>
<polygon fill="black" stroke="black" points="1544.57,-97.08 1554.24,-92.75 1543.98,-90.11 1544.57,-97.08"/>
</g>
<!-- aggregator_factory&#45;&gt;table -->
<g id="edge103" class="edge">
<title>aggregator_factory&#45;&gt;table</title>
<path fill="none" stroke="black" d="M979.44,-365.87C968.31,-363.89 956.81,-361.87 946,-360 845.22,-342.59 726.3,-323.03 666.48,-313.26"/>
<polygon fill="black" stroke="black" points="667.1,-309.65 656.67,-311.5 665.97,-316.56 667.1,-309.65"/>
</g>
<!-- aggregator_factory&#45;&gt;system_addresses -->
<g id="edge104" class="edge">
<title>aggregator_factory&#45;&gt;system_addresses</title>
<path fill="none" stroke="black" d="M1120.23,-373.78C1283.84,-366.88 1670.85,-349.2 1995,-324 2024.63,-321.7 2057.11,-318.59 2085.67,-315.67"/>
<polygon fill="black" stroke="black" points="2085.82,-319.07 2095.41,-314.56 2085.1,-312.1 2085.82,-319.07"/>
</g>
<!-- aggregator_factory&#45;&gt;aggregator -->
<g id="edge105" class="edge">
<title>aggregator_factory&#45;&gt;aggregator</title>
<path fill="none" stroke="black" d="M1001.74,-361.98C972.21,-350.69 931.76,-335.21 901.29,-323.56"/>
<polygon fill="black" stroke="black" points="902.96,-320.07 892.37,-319.76 900.46,-326.6 902.96,-320.07"/>
</g>
<!-- optional_aggregator&#45;&gt;option -->
<g id="edge106" class="edge">
<title>optional_aggregator&#45;&gt;option</title>
<path fill="none" stroke="black" d="M893.67,-433.53C848.96,-412.22 780,-369.26 780,-307 780,-307 780,-307 780,-233 780,-192.03 779.01,-177.89 756,-144 746.38,-129.83 731.7,-117.97 718.19,-109.08"/>
<polygon fill="black" stroke="black" points="720.43,-105.73 710.09,-103.41 716.72,-111.67 720.43,-105.73"/>
</g>
<!-- optional_aggregator&#45;&gt;error -->
<g id="edge107" class="edge">
<title>optional_aggregator&#45;&gt;error</title>
<path fill="none" stroke="black" d="M928.77,-431.63C924.3,-388.78 919.18,-277.09 977,-216 1055.62,-132.93 1422.33,-101.62 1544.38,-93.4"/>
<polygon fill="black" stroke="black" points="1544.33,-96.84 1554.08,-92.69 1543.87,-89.86 1544.33,-96.84"/>
</g>
<!-- optional_aggregator&#45;&gt;aggregator -->
<g id="edge108" class="edge">
<title>optional_aggregator&#45;&gt;aggregator</title>
<path fill="none" stroke="black" d="M910.15,-432.08C899.66,-422.52 887.59,-409.75 880,-396 869.61,-377.16 864.05,-353.41 861.13,-335.18"/>
<polygon fill="black" stroke="black" points="864.47,-334.78 859.6,-325.37 857.54,-335.76 864.47,-334.78"/>
</g>
<!-- optional_aggregator&#45;&gt;aggregator_factory -->
<g id="edge109" class="edge">
<title>optional_aggregator&#45;&gt;aggregator_factory</title>
<path fill="none" stroke="black" d="M957.07,-432.41C971.73,-423.08 990.22,-411.32 1006.11,-401.2"/>
<polygon fill="black" stroke="black" points="1007.56,-403.79 1014.12,-395.47 1003.8,-397.89 1007.56,-403.79"/>
</g>
<!-- table_with_length&#45;&gt;error -->
<g id="edge110" class="edge">
<title>table_with_length&#45;&gt;error</title>
<path fill="none" stroke="black" d="M500.37,-359.93C519.44,-339.77 553.9,-306.63 590,-288 927.93,-113.55 1403.92,-93.25 1543.85,-91.15"/>
<polygon fill="black" stroke="black" points="1543.89,-94.64 1553.84,-91.02 1543.8,-87.64 1543.89,-94.64"/>
</g>
<!-- table_with_length&#45;&gt;table -->
<g id="edge111" class="edge">
<title>table_with_length&#45;&gt;table</title>
<path fill="none" stroke="black" d="M517.09,-361.29C540.62,-349.77 572.43,-334.2 595.95,-322.69"/>
<polygon fill="black" stroke="black" points="597.35,-325.41 604.79,-317.87 594.27,-319.13 597.35,-325.41"/>
</g>
<!-- timestamp&#45;&gt;error -->
<g id="edge112" class="edge">
<title>timestamp&#45;&gt;error</title>
<path fill="none" stroke="black" d="M2370.24,-360.6C2351.15,-341.4 2317.4,-309.5 2284,-288 2153.88,-204.25 2115.63,-187.05 1967,-144 1844.9,-108.63 1693.87,-96.59 1623.52,-92.71"/>
<polygon fill="black" stroke="black" points="1624.11,-89.19 1613.94,-92.16 1623.74,-96.18 1624.11,-89.19"/>
</g>
<!-- timestamp&#45;&gt;system_addresses -->
<g id="edge113" class="edge">
<title>timestamp&#45;&gt;system_addresses</title>
<path fill="none" stroke="black" d="M2349.51,-365.44C2314.21,-354.26 2260.26,-337.17 2219.8,-324.36"/>
<polygon fill="black" stroke="black" points="2221.15,-320.8 2210.56,-321.11 2219.04,-327.47 2221.15,-320.8"/>
</g>
<!-- aptos_coin&#45;&gt;vector -->
<g id="edge114" class="edge">
<title>aptos_coin&#45;&gt;vector</title>
<path fill="none" stroke="black" d="M2394.39,-589.15C2472.56,-580.07 2616,-549.93 2616,-451 2616,-451 2616,-451 2616,-161 2616,-120.55 2627.92,-98.08 2597,-72 2548.26,-30.89 1570.45,-21.03 1347.14,-19.31"/>
<polygon fill="black" stroke="black" points="1347.21,-15.8 1337.19,-19.23 1347.16,-22.8 1347.21,-15.8"/>
</g>
<!-- aptos_coin&#45;&gt;option -->
<g id="edge115" class="edge">
<title>aptos_coin&#45;&gt;option</title>
<path fill="none" stroke="black" d="M2293.89,-592.57C2034.9,-589.95 875.28,-572.4 758,-468 655.88,-377.09 670.53,-189.89 680.4,-119.02"/>
<polygon fill="black" stroke="black" points="683.98,-119.71 681.98,-109.3 677.05,-118.68 683.98,-119.71"/>
</g>
<!-- aptos_coin&#45;&gt;string -->
<g id="edge116" class="edge">
<title>aptos_coin&#45;&gt;string</title>
<path fill="none" stroke="black" d="M2294.23,-592.3C2055.47,-588.84 1042.67,-572.49 728,-540 479.73,-514.37 190,-628.59 190,-379 190,-379 190,-379 190,-305 190,-265.1 196.32,-219.28 201.01,-190.74"/>
<polygon fill="black" stroke="black" points="204.61,-191.42 202.84,-180.98 197.71,-190.25 204.61,-191.42"/>
</g>
<!-- aptos_coin&#45;&gt;signer -->
<g id="edge117" class="edge">
<title>aptos_coin&#45;&gt;signer</title>
<path fill="none" stroke="black" d="M2391.31,-586.04C2459.26,-572.91 2578,-537.57 2578,-451 2578,-451 2578,-451 2578,-233 2578,-192.65 2568.84,-146.68 2562.08,-118.25"/>
<polygon fill="black" stroke="black" points="2565.33,-117.78 2559.54,-108.91 2558.53,-119.45 2565.33,-117.78"/>
</g>
<!-- aptos_coin&#45;&gt;coin -->
<g id="edge120" class="edge">
<title>aptos_coin&#45;&gt;coin</title>
<path fill="none" stroke="black" d="M2295.33,-589.81C2109.28,-577.86 1455.89,-535.9 1292.33,-525.4"/>
<polygon fill="black" stroke="black" points="1293.05,-521.87 1282.85,-524.72 1292.6,-528.86 1293.05,-521.87"/>
</g>
<!-- aptos_coin&#45;&gt;error -->
<g id="edge118" class="edge">
<title>aptos_coin&#45;&gt;error</title>
<path fill="none" stroke="black" d="M2370.53,-578C2405.49,-555.32 2464,-508.74 2464,-451 2464,-451 2464,-451 2464,-305 2464,-129.5 1794.85,-97.35 1623.56,-91.99"/>
<polygon fill="black" stroke="black" points="1623.88,-88.47 1613.78,-91.67 1623.67,-95.47 1623.88,-88.47"/>
</g>
<!-- aptos_coin&#45;&gt;system_addresses -->
<g id="edge119" class="edge">
<title>aptos_coin&#45;&gt;system_addresses</title>
<path fill="none" stroke="black" d="M2351.33,-575.93C2357.14,-557.51 2363.5,-527.63 2354,-504 2322.73,-426.25 2244.49,-361.92 2199.09,-329.57"/>
<polygon fill="black" stroke="black" points="2201.39,-326.21 2191.19,-323.34 2197.38,-331.94 2201.39,-326.21"/>
</g>
</g>
</svg>
