<?xml version="1.0" encoding="UTF-8" standalone="no"?>
<!DOCTYPE svg PUBLIC "-//W3C//DTD SVG 1.1//EN"
 "http://www.w3.org/Graphics/SVG/1.1/DTD/svg11.dtd">
<!-- Generated by graphviz version 7.1.0 (20230121.1956)
 -->
<!-- Title: G Pages: 1 -->
<svg width="2604pt" height="908pt"
 viewBox="0.00 0.00 2603.90 908.00" xmlns="http://www.w3.org/2000/svg" xmlns:xlink="http://www.w3.org/1999/xlink">
<g id="graph0" class="graph" transform="scale(1 1) rotate(0) translate(4 904)">
<title>G</title>
<polygon fill="white" stroke="none" points="-4,4 -4,-904 2599.9,-904 2599.9,4 -4,4"/>
<!-- market -->
<g id="node1" class="node">
<title>market</title>
<ellipse fill="none" stroke="black" cx="1085" cy="-882" rx="36" ry="18"/>
<text text-anchor="middle" x="1085" y="-878.3" font-family="Times,serif" font-size="14.00">market</text>
</g>
<!-- option -->
<g id="node2" class="node">
<title>option</title>
<ellipse fill="none" stroke="black" cx="1916" cy="-90" rx="33.29" ry="18"/>
<text text-anchor="middle" x="1916" y="-86.3" font-family="Times,serif" font-size="14.00">option</text>
</g>
<!-- market&#45;&gt;option -->
<g id="edge1" class="edge">
<title>market&#45;&gt;option</title>
<path fill="none" stroke="black" d="M1121.14,-880.42C1314.13,-877.22 2218.85,-860.55 2339,-828 2417.92,-806.62 2500,-820.76 2500,-739 2500,-739 2500,-739 2500,-449 2500,-301.47 2501.09,-209.7 2369,-144 2297.98,-108.67 2060.65,-96.18 1960.84,-92.42"/>
<polygon fill="black" stroke="black" points="1961,-88.92 1950.88,-92.05 1960.75,-95.92 1961,-88.92"/>
</g>
<!-- string -->
<g id="node3" class="node">
<title>string</title>
<ellipse fill="none" stroke="black" cx="1158" cy="-162" rx="30.59" ry="18"/>
<text text-anchor="middle" x="1158" y="-158.3" font-family="Times,serif" font-size="14.00">string</text>
</g>
<!-- market&#45;&gt;string -->
<g id="edge2" class="edge">
<title>market&#45;&gt;string</title>
<path fill="none" stroke="black" d="M1049.45,-878.06C939.45,-867.98 612,-830.31 612,-739 612,-739 612,-739 612,-665 612,-522.6 799.79,-633.71 907,-540 1033.03,-429.84 992.85,-345.42 1099,-216 1108.48,-204.44 1120.54,-193.15 1131.27,-183.98"/>
<polygon fill="black" stroke="black" points="1133.28,-186.87 1138.73,-177.79 1128.81,-181.48 1133.28,-186.87"/>
</g>
<!-- signer -->
<g id="node4" class="node">
<title>signer</title>
<ellipse fill="none" stroke="black" cx="196" cy="-90" rx="32.49" ry="18"/>
<text text-anchor="middle" x="196" y="-86.3" font-family="Times,serif" font-size="14.00">signer</text>
</g>
<!-- market&#45;&gt;signer -->
<g id="edge3" class="edge">
<title>market&#45;&gt;signer</title>
<path fill="none" stroke="black" d="M1048.75,-880.66C879.78,-878.84 173.91,-868.85 85,-828 35.3,-805.17 0,-793.7 0,-739 0,-739 0,-739 0,-233 0,-187.41 16.14,-173.38 51,-144 80.48,-119.15 122.6,-105.49 153.86,-98.3"/>
<polygon fill="black" stroke="black" points="154.32,-101.78 163.36,-96.25 152.85,-94.93 154.32,-101.78"/>
</g>
<!-- type_info -->
<g id="node5" class="node">
<title>type_info</title>
<ellipse fill="none" stroke="black" cx="604" cy="-234" rx="44.39" ry="18"/>
<text text-anchor="middle" x="604" y="-230.3" font-family="Times,serif" font-size="14.00">type_info</text>
</g>
<!-- market&#45;&gt;type_info -->
<g id="edge4" class="edge">
<title>market&#45;&gt;type_info</title>
<path fill="none" stroke="black" d="M1048.68,-880.92C884.13,-880.28 213.19,-874.81 133,-828 92.43,-804.32 76,-785.97 76,-739 76,-739 76,-739 76,-593 76,-435.14 119.32,-363.41 258,-288 307.08,-261.31 464.12,-245.62 548.74,-238.9"/>
<polygon fill="black" stroke="black" points="548.97,-242.39 558.67,-238.12 548.43,-235.41 548.97,-242.39"/>
</g>
<!-- event -->
<g id="node6" class="node">
<title>event</title>
<ellipse fill="none" stroke="black" cx="438" cy="-378" rx="29.8" ry="18"/>
<text text-anchor="middle" x="438" y="-374.3" font-family="Times,serif" font-size="14.00">event</text>
</g>
<!-- market&#45;&gt;event -->
<g id="edge5" class="edge">
<title>market&#45;&gt;event</title>
<path fill="none" stroke="black" d="M1048.67,-880.27C892.9,-876.92 285.97,-861.82 208,-828 155.22,-805.11 114,-796.53 114,-739 114,-739 114,-739 114,-665 114,-512.95 317.03,-422.41 401.65,-391.27"/>
<polygon fill="black" stroke="black" points="402.66,-394.63 410.88,-387.95 400.29,-388.05 402.66,-394.63"/>
</g>
<!-- account -->
<g id="node7" class="node">
<title>account</title>
<ellipse fill="none" stroke="black" cx="806" cy="-450" rx="38.19" ry="18"/>
<text text-anchor="middle" x="806" y="-446.3" font-family="Times,serif" font-size="14.00">account</text>
</g>
<!-- market&#45;&gt;account -->
<g id="edge6" class="edge">
<title>market&#45;&gt;account</title>
<path fill="none" stroke="black" d="M1048.89,-880.41C920.37,-877.99 485.78,-867.05 353,-828 273.81,-804.71 190,-821.54 190,-739 190,-739 190,-739 190,-665 190,-544.85 613.45,-476.83 758.18,-457.09"/>
<polygon fill="black" stroke="black" points="758.37,-460.59 767.81,-455.79 757.43,-453.66 758.37,-460.59"/>
</g>
<!-- coin -->
<g id="node8" class="node">
<title>coin</title>
<ellipse fill="none" stroke="black" cx="1490" cy="-522" rx="27" ry="18"/>
<text text-anchor="middle" x="1490" y="-518.3" font-family="Times,serif" font-size="14.00">coin</text>
</g>
<!-- market&#45;&gt;coin -->
<g id="edge7" class="edge">
<title>market&#45;&gt;coin</title>
<path fill="none" stroke="black" d="M1119.53,-876.47C1217.47,-862.67 1490,-817.23 1490,-739 1490,-739 1490,-739 1490,-665 1490,-625.74 1490,-580.38 1490,-551.69"/>
<polygon fill="black" stroke="black" points="1493.5,-552 1490,-542 1486.5,-552 1493.5,-552"/>
</g>
<!-- avl_queue -->
<g id="node9" class="node">
<title>avl_queue</title>
<ellipse fill="none" stroke="black" cx="2349" cy="-450" rx="46.59" ry="18"/>
<text text-anchor="middle" x="2349" y="-446.3" font-family="Times,serif" font-size="14.00">avl_queue</text>
</g>
<!-- market&#45;&gt;avl_queue -->
<g id="edge8" class="edge">
<title>market&#45;&gt;avl_queue</title>
<path fill="none" stroke="black" d="M1121.12,-881.17C1338.39,-881.74 2462,-877.94 2462,-739 2462,-739 2462,-739 2462,-593 2462,-541.02 2415.06,-497.06 2381.69,-472.37"/>
<polygon fill="black" stroke="black" points="2384.09,-469.78 2373.92,-466.81 2380.01,-475.48 2384.09,-469.78"/>
</g>
<!-- tablist -->
<g id="node10" class="node">
<title>tablist</title>
<ellipse fill="none" stroke="black" cx="2170" cy="-594" rx="32.49" ry="18"/>
<text text-anchor="middle" x="2170" y="-590.3" font-family="Times,serif" font-size="14.00">tablist</text>
</g>
<!-- market&#45;&gt;tablist -->
<g id="edge9" class="edge">
<title>market&#45;&gt;tablist</title>
<path fill="none" stroke="black" d="M1121.31,-881.14C1210.83,-880.72 1448.69,-874.87 1640,-828 1805.37,-787.48 1840.09,-754.66 1995,-684 2045.45,-660.99 2102.44,-631.29 2137.3,-612.69"/>
<polygon fill="black" stroke="black" points="2138.87,-615.81 2146.04,-608.01 2135.57,-609.64 2138.87,-615.81"/>
</g>
<!-- resource_account -->
<g id="node11" class="node">
<title>resource_account</title>
<ellipse fill="none" stroke="black" cx="826" cy="-522" rx="72.29" ry="18"/>
<text text-anchor="middle" x="826" y="-518.3" font-family="Times,serif" font-size="14.00">resource_account</text>
</g>
<!-- market&#45;&gt;resource_account -->
<g id="edge10" class="edge">
<title>market&#45;&gt;resource_account</title>
<path fill="none" stroke="black" d="M1048.89,-879.45C967.6,-875.44 764.34,-862.53 598,-828 480.06,-803.52 342,-859.46 342,-739 342,-739 342,-739 342,-665 342,-581.63 609.72,-543.73 746.94,-529.77"/>
<polygon fill="black" stroke="black" points="747.08,-533.28 756.69,-528.8 746.39,-526.31 747.08,-533.28"/>
</g>
<!-- incentives -->
<g id="node12" class="node">
<title>incentives</title>
<ellipse fill="none" stroke="black" cx="1151" cy="-666" rx="46.29" ry="18"/>
<text text-anchor="middle" x="1151" y="-662.3" font-family="Times,serif" font-size="14.00">incentives</text>
</g>
<!-- market&#45;&gt;incentives -->
<g id="edge11" class="edge">
<title>market&#45;&gt;incentives</title>
<path fill="none" stroke="black" d="M1092.37,-863.89C1102.41,-840.06 1120.46,-795.38 1132,-756 1137.85,-736.04 1142.7,-713.08 1146.04,-695.48"/>
<polygon fill="black" stroke="black" points="1149.47,-696.21 1147.83,-685.74 1142.58,-694.94 1149.47,-696.21"/>
</g>
<!-- registry -->
<g id="node13" class="node">
<title>registry</title>
<ellipse fill="none" stroke="black" cx="1085" cy="-738" rx="37.89" ry="18"/>
<text text-anchor="middle" x="1085" y="-734.3" font-family="Times,serif" font-size="14.00">registry</text>
</g>
<!-- market&#45;&gt;registry -->
<g id="edge12" class="edge">
<title>market&#45;&gt;registry</title>
<path fill="none" stroke="black" d="M1085,-863.59C1085,-839.61 1085,-796.14 1085,-767.42"/>
<polygon fill="black" stroke="black" points="1088.5,-767.62 1085,-757.62 1081.5,-767.62 1088.5,-767.62"/>
</g>
<!-- user -->
<g id="node14" class="node">
<title>user</title>
<ellipse fill="none" stroke="black" cx="1604" cy="-810" rx="27" ry="18"/>
<text text-anchor="middle" x="1604" y="-806.3" font-family="Times,serif" font-size="14.00">user</text>
</g>
<!-- market&#45;&gt;user -->
<g id="edge13" class="edge">
<title>market&#45;&gt;user</title>
<path fill="none" stroke="black" d="M1120.11,-877.07C1192.19,-868.89 1362.02,-849.04 1504,-828 1524.92,-824.9 1548.21,-820.97 1567.05,-817.67"/>
<polygon fill="black" stroke="black" points="1567.42,-821.16 1576.66,-815.97 1566.2,-814.26 1567.42,-821.16"/>
</g>
<!-- vector -->
<g id="node15" class="node">
<title>vector</title>
<ellipse fill="none" stroke="black" cx="1594" cy="-18" rx="32.49" ry="18"/>
<text text-anchor="middle" x="1594" y="-14.3" font-family="Times,serif" font-size="14.00">vector</text>
</g>
<!-- option&#45;&gt;vector -->
<g id="edge14" class="edge">
<title>option&#45;&gt;vector</title>
<path fill="none" stroke="black" d="M1885.42,-82.35C1827.22,-69.7 1700.51,-42.15 1635.02,-27.92"/>
<polygon fill="black" stroke="black" points="1635.91,-24.53 1625.39,-25.82 1634.42,-31.37 1635.91,-24.53"/>
</g>
<!-- string&#45;&gt;option -->
<g id="edge16" class="edge">
<title>string&#45;&gt;option</title>
<path fill="none" stroke="black" d="M1188.18,-158.21C1305.64,-147.37 1732.57,-107.94 1871.78,-95.08"/>
<polygon fill="black" stroke="black" points="1872.06,-98.57 1881.7,-94.17 1871.42,-91.6 1872.06,-98.57"/>
</g>
<!-- string&#45;&gt;vector -->
<g id="edge15" class="edge">
<title>string&#45;&gt;vector</title>
<path fill="none" stroke="black" d="M1170.66,-145.13C1188,-124.6 1221.23,-89.39 1258,-72 1354.94,-26.14 1483.42,-18.67 1549.92,-18.21"/>
<polygon fill="black" stroke="black" points="1549.7,-21.71 1559.69,-18.19 1549.69,-14.71 1549.7,-21.71"/>
</g>
<!-- type_info&#45;&gt;string -->
<g id="edge17" class="edge">
<title>type_info&#45;&gt;string</title>
<path fill="none" stroke="black" d="M636.51,-221.42C643.22,-219.35 650.29,-217.42 657,-216 824.56,-180.65 1028.87,-168.37 1115.7,-164.55"/>
<polygon fill="black" stroke="black" points="1115.8,-168.05 1125.65,-164.13 1115.51,-161.06 1115.8,-168.05"/>
</g>
<!-- error -->
<g id="node16" class="node">
<title>error</title>
<ellipse fill="none" stroke="black" cx="1414" cy="-90" rx="27.9" ry="18"/>
<text text-anchor="middle" x="1414" y="-86.3" font-family="Times,serif" font-size="14.00">error</text>
</g>
<!-- type_info&#45;&gt;error -->
<g id="edge18" class="edge">
<title>type_info&#45;&gt;error</title>
<path fill="none" stroke="black" d="M632.57,-219.84C677.41,-199.82 767.5,-162.13 848,-144 1042.16,-100.26 1281.65,-92.54 1374.57,-91.24"/>
<polygon fill="black" stroke="black" points="1374.45,-94.74 1384.41,-91.12 1374.37,-87.74 1374.45,-94.74"/>
</g>
<!-- features -->
<g id="node17" class="node">
<title>features</title>
<ellipse fill="none" stroke="black" cx="615" cy="-162" rx="38.19" ry="18"/>
<text text-anchor="middle" x="615" y="-158.3" font-family="Times,serif" font-size="14.00">features</text>
</g>
<!-- type_info&#45;&gt;features -->
<g id="edge19" class="edge">
<title>type_info&#45;&gt;features</title>
<path fill="none" stroke="black" d="M606.72,-215.7C607.88,-208.32 609.26,-199.52 610.56,-191.25"/>
<polygon fill="black" stroke="black" points="613.98,-192.02 612.08,-181.6 607.07,-190.93 613.98,-192.02"/>
</g>
<!-- bcs -->
<g id="node18" class="node">
<title>bcs</title>
<ellipse fill="none" stroke="black" cx="532" cy="-162" rx="27" ry="18"/>
<text text-anchor="middle" x="532" y="-158.3" font-family="Times,serif" font-size="14.00">bcs</text>
</g>
<!-- type_info&#45;&gt;bcs -->
<g id="edge20" class="edge">
<title>type_info&#45;&gt;bcs</title>
<path fill="none" stroke="black" d="M587.66,-217.12C577.97,-207.69 565.54,-195.61 554.88,-185.25"/>
<polygon fill="black" stroke="black" points="557.5,-182.91 547.89,-178.45 552.62,-187.93 557.5,-182.91"/>
</g>
<!-- event&#45;&gt;bcs -->
<g id="edge21" class="edge">
<title>event&#45;&gt;bcs</title>
<path fill="none" stroke="black" d="M436.19,-359.72C434.91,-341.38 434.65,-311.8 443,-288 457.08,-247.88 488.2,-209.2 509.64,-185.75"/>
<polygon fill="black" stroke="black" points="512.01,-188.34 516.29,-178.65 506.9,-183.56 512.01,-188.34"/>
</g>
<!-- guid -->
<g id="node19" class="node">
<title>guid</title>
<ellipse fill="none" stroke="black" cx="479" cy="-306" rx="27" ry="18"/>
<text text-anchor="middle" x="479" y="-302.3" font-family="Times,serif" font-size="14.00">guid</text>
</g>
<!-- event&#45;&gt;guid -->
<g id="edge22" class="edge">
<title>event&#45;&gt;guid</title>
<path fill="none" stroke="black" d="M447.51,-360.76C452.37,-352.46 458.41,-342.15 463.89,-332.79"/>
<polygon fill="black" stroke="black" points="466.74,-334.85 468.78,-324.45 460.7,-331.31 466.74,-334.85"/>
</g>
<!-- account&#45;&gt;option -->
<g id="edge24" class="edge">
<title>account&#45;&gt;option</title>
<path fill="none" stroke="black" d="M844.45,-449.44C928.88,-449.44 1136.08,-444.05 1301,-396 1540.66,-326.17 1799.85,-166.43 1886.17,-110.65"/>
<polygon fill="black" stroke="black" points="1887.85,-113.74 1894.33,-105.35 1884.04,-107.87 1887.85,-113.74"/>
</g>
<!-- account&#45;&gt;signer -->
<g id="edge25" class="edge">
<title>account&#45;&gt;signer</title>
<path fill="none" stroke="black" d="M772.07,-441.16C726.95,-430.39 649.99,-410.66 625,-396 565.9,-361.33 568.93,-330.26 515,-288 417.61,-211.68 288.97,-140.08 229.18,-108.28"/>
<polygon fill="black" stroke="black" points="231,-105.27 220.52,-103.69 227.72,-111.46 231,-105.27"/>
</g>
<!-- account&#45;&gt;type_info -->
<g id="edge28" class="edge">
<title>account&#45;&gt;type_info</title>
<path fill="none" stroke="black" d="M777.87,-437.38C757.93,-428.2 731.39,-413.94 712,-396 669.31,-356.5 635.05,-296.97 617.28,-262.45"/>
<polygon fill="black" stroke="black" points="620.41,-260.88 612.78,-253.53 614.16,-264.03 620.41,-260.88"/>
</g>
<!-- account&#45;&gt;event -->
<g id="edge36" class="edge">
<title>account&#45;&gt;event</title>
<path fill="none" stroke="black" d="M772.69,-440.61C760.28,-437.65 746.04,-434.45 733,-432 622.24,-411.2 591.04,-424.49 482,-396 478.88,-395.18 475.68,-394.22 472.5,-393.17"/>
<polygon fill="black" stroke="black" points="473.9,-389.95 463.31,-389.87 471.54,-396.54 473.9,-389.95"/>
</g>
<!-- account&#45;&gt;vector -->
<g id="edge23" class="edge">
<title>account&#45;&gt;vector</title>
<path fill="none" stroke="black" d="M834.76,-437.96C853.23,-429.35 876.09,-415.54 889,-396 933.71,-328.33 871,-281.37 919,-216 1002.76,-101.93 1067.88,-114.09 1203,-72 1324.99,-34 1476.78,-23.24 1550.19,-20.19"/>
<polygon fill="black" stroke="black" points="1549.91,-23.71 1559.77,-19.83 1549.64,-16.71 1549.91,-23.71"/>
</g>
<!-- account&#45;&gt;error -->
<g id="edge26" class="edge">
<title>account&#45;&gt;error</title>
<path fill="none" stroke="black" d="M837.36,-439.41C866.5,-429.99 910.73,-414.38 947,-396 1124.78,-305.91 1318.56,-163.53 1387.7,-111.18"/>
<polygon fill="black" stroke="black" points="1389.56,-114.16 1395.41,-105.32 1385.33,-108.58 1389.56,-114.16"/>
</g>
<!-- account&#45;&gt;bcs -->
<g id="edge27" class="edge">
<title>account&#45;&gt;bcs</title>
<path fill="none" stroke="black" d="M773.43,-440.22C746.01,-431.79 706.64,-417.2 677,-396 607.83,-346.53 589.1,-328.03 551,-252 541.52,-233.09 536.76,-209.61 534.38,-191.52"/>
<polygon fill="black" stroke="black" points="537.87,-191.29 533.27,-181.75 530.92,-192.08 537.87,-191.29"/>
</g>
<!-- account&#45;&gt;guid -->
<g id="edge34" class="edge">
<title>account&#45;&gt;guid</title>
<path fill="none" stroke="black" d="M772.66,-440.78C760.25,-437.84 746.01,-434.61 733,-432 638.87,-413.1 596.24,-454.35 520,-396 500.69,-381.22 490.16,-355.2 484.63,-335.09"/>
<polygon fill="black" stroke="black" points="488.07,-334.42 482.28,-325.54 481.27,-336.09 488.07,-334.42"/>
</g>
<!-- table -->
<g id="node20" class="node">
<title>table</title>
<ellipse fill="none" stroke="black" cx="2221" cy="-306" rx="27.9" ry="18"/>
<text text-anchor="middle" x="2221" y="-302.3" font-family="Times,serif" font-size="14.00">table</text>
</g>
<!-- account&#45;&gt;table -->
<g id="edge29" class="edge">
<title>account&#45;&gt;table</title>
<path fill="none" stroke="black" d="M844.17,-448.6C972.05,-446.89 1396.9,-438.19 1745,-396 1910.06,-375.99 2104.18,-333.78 2183.94,-315.61"/>
<polygon fill="black" stroke="black" points="2184.42,-319.09 2193.39,-313.45 2182.86,-312.27 2184.42,-319.09"/>
</g>
<!-- system_addresses -->
<g id="node21" class="node">
<title>system_addresses</title>
<ellipse fill="none" stroke="black" cx="1351" cy="-306" rx="73.39" ry="18"/>
<text text-anchor="middle" x="1351" y="-302.3" font-family="Times,serif" font-size="14.00">system_addresses</text>
</g>
<!-- account&#45;&gt;system_addresses -->
<g id="edge30" class="edge">
<title>account&#45;&gt;system_addresses</title>
<path fill="none" stroke="black" d="M844.29,-448.02C941.41,-445.01 1194.89,-433.66 1269,-396 1283.8,-388.48 1311.57,-356.33 1330.66,-332.83"/>
<polygon fill="black" stroke="black" points="1333.27,-335.17 1336.81,-325.18 1327.82,-330.78 1333.27,-335.17"/>
</g>
<!-- hash -->
<g id="node22" class="node">
<title>hash</title>
<ellipse fill="none" stroke="black" cx="693" cy="-234" rx="27" ry="18"/>
<text text-anchor="middle" x="693" y="-230.3" font-family="Times,serif" font-size="14.00">hash</text>
</g>
<!-- account&#45;&gt;hash -->
<g id="edge31" class="edge">
<title>account&#45;&gt;hash</title>
<path fill="none" stroke="black" d="M780.92,-436.23C765.27,-427.05 745.89,-413.25 734,-396 706.15,-355.6 697.21,-297.8 694.34,-263.57"/>
<polygon fill="black" stroke="black" points="697.84,-263.34 693.65,-253.61 690.85,-263.83 697.84,-263.34"/>
</g>
<!-- ed25519 -->
<g id="node23" class="node">
<title>ed25519</title>
<ellipse fill="none" stroke="black" cx="793" cy="-306" rx="40.89" ry="18"/>
<text text-anchor="middle" x="793" y="-302.3" font-family="Times,serif" font-size="14.00">ed25519</text>
</g>
<!-- account&#45;&gt;ed25519 -->
<g id="edge32" class="edge">
<title>account&#45;&gt;ed25519</title>
<path fill="none" stroke="black" d="M781.58,-435.78C767.46,-426.66 750.96,-413.1 743,-396 736.25,-381.49 737.09,-374.87 743,-360 747.57,-348.51 755.94,-338.06 764.54,-329.54"/>
<polygon fill="black" stroke="black" points="766.64,-332.37 771.63,-323.02 761.9,-327.22 766.64,-332.37"/>
</g>
<!-- multi_ed25519 -->
<g id="node24" class="node">
<title>multi_ed25519</title>
<ellipse fill="none" stroke="black" cx="816" cy="-378" rx="64.19" ry="18"/>
<text text-anchor="middle" x="816" y="-374.3" font-family="Times,serif" font-size="14.00">multi_ed25519</text>
</g>
<!-- account&#45;&gt;multi_ed25519 -->
<g id="edge33" class="edge">
<title>account&#45;&gt;multi_ed25519</title>
<path fill="none" stroke="black" d="M808.47,-431.7C809.53,-424.32 810.78,-415.52 811.96,-407.25"/>
<polygon fill="black" stroke="black" points="815.39,-408 813.34,-397.6 808.46,-407.01 815.39,-408"/>
</g>
<!-- from_bcs -->
<g id="node25" class="node">
<title>from_bcs</title>
<ellipse fill="none" stroke="black" cx="972" cy="-234" rx="44.39" ry="18"/>
<text text-anchor="middle" x="972" y="-230.3" font-family="Times,serif" font-size="14.00">from_bcs</text>
</g>
<!-- account&#45;&gt;from_bcs -->
<g id="edge35" class="edge">
<title>account&#45;&gt;from_bcs</title>
<path fill="none" stroke="black" d="M839.4,-440.93C864.96,-433.21 899.53,-419.24 922,-396 957.18,-359.61 967.65,-298.9 970.74,-263.35"/>
<polygon fill="black" stroke="black" points="974.19,-264.06 971.42,-253.84 967.21,-263.56 974.19,-264.06"/>
</g>
<!-- coin&#45;&gt;option -->
<g id="edge37" class="edge">
<title>coin&#45;&gt;option</title>
<path fill="none" stroke="black" d="M1517.1,-519.4C1589.58,-514.75 1786.15,-499.49 1842,-468 1886.81,-442.74 1916,-430.44 1916,-379 1916,-379 1916,-379 1916,-233 1916,-193.74 1916,-148.38 1916,-119.69"/>
<polygon fill="black" stroke="black" points="1919.5,-120 1916,-110 1912.5,-120 1919.5,-120"/>
</g>
<!-- coin&#45;&gt;string -->
<g id="edge38" class="edge">
<title>coin&#45;&gt;string</title>
<path fill="none" stroke="black" d="M1490.93,-503.58C1492.22,-461.11 1489.58,-351.1 1433,-288 1401.74,-253.14 1376.97,-270.6 1334,-252 1282.46,-229.69 1224.71,-199.43 1189.87,-180.57"/>
<polygon fill="black" stroke="black" points="1191.61,-177.53 1181.15,-175.83 1188.26,-183.68 1191.61,-177.53"/>
</g>
<!-- coin&#45;&gt;signer -->
<g id="edge39" class="edge">
<title>coin&#45;&gt;signer</title>
<path fill="none" stroke="black" d="M1462.54,-521.28C1357.56,-521.93 971.84,-520.4 660,-468 541.33,-448.06 496.49,-466.54 399,-396 296.37,-321.74 230.56,-178.42 206.4,-118.44"/>
<polygon fill="black" stroke="black" points="209.73,-117.35 202.8,-109.34 203.22,-119.92 209.73,-117.35"/>
</g>
<!-- coin&#45;&gt;type_info -->
<g id="edge41" class="edge">
<title>coin&#45;&gt;type_info</title>
<path fill="none" stroke="black" d="M1463.44,-517.69C1337.85,-501.91 806.99,-433.43 743,-396 729.7,-388.22 666.24,-299.51 656,-288 647.3,-278.22 637.32,-267.86 628.44,-258.92"/>
<polygon fill="black" stroke="black" points="630.97,-256.5 621.42,-251.91 626.03,-261.45 630.97,-256.5"/>
</g>
<!-- coin&#45;&gt;event -->
<g id="edge43" class="edge">
<title>coin&#45;&gt;event</title>
<path fill="none" stroke="black" d="M1462.82,-520.08C1347.38,-516.02 897.23,-498.52 759,-468 714.91,-458.27 707.36,-444.59 664,-432 587.74,-409.86 565.69,-416.59 489,-396 484.1,-394.68 478.98,-393.16 473.96,-391.58"/>
<polygon fill="black" stroke="black" points="475.27,-388.32 464.68,-388.54 473.1,-394.98 475.27,-388.32"/>
</g>
<!-- coin&#45;&gt;account -->
<g id="edge44" class="edge">
<title>coin&#45;&gt;account</title>
<path fill="none" stroke="black" d="M1463.01,-518.54C1384.05,-511.3 1146.68,-489.26 950,-468 917.88,-464.53 881.78,-460.27 853.76,-456.88"/>
<polygon fill="black" stroke="black" points="854.52,-453.44 844.18,-455.71 853.68,-460.39 854.52,-453.44"/>
</g>
<!-- coin&#45;&gt;error -->
<g id="edge40" class="edge">
<title>coin&#45;&gt;error</title>
<path fill="none" stroke="black" d="M1500.24,-504.98C1520.35,-472.45 1564.41,-395.65 1580,-324 1597.01,-245.83 1627.19,-208.6 1580,-144 1551.23,-104.62 1492.87,-93.82 1453.59,-91.22"/>
<polygon fill="black" stroke="black" points="1453.99,-87.74 1443.83,-90.74 1453.65,-94.73 1453.99,-87.74"/>
</g>
<!-- coin&#45;&gt;system_addresses -->
<g id="edge42" class="edge">
<title>coin&#45;&gt;system_addresses</title>
<path fill="none" stroke="black" d="M1479.55,-504.92C1455.78,-468.32 1397.45,-378.51 1368.25,-333.55"/>
<polygon fill="black" stroke="black" points="1371.35,-331.91 1362.97,-325.43 1365.48,-335.72 1371.35,-331.91"/>
</g>
<!-- aggregator -->
<g id="node26" class="node">
<title>aggregator</title>
<ellipse fill="none" stroke="black" cx="1802" cy="-306" rx="48.19" ry="18"/>
<text text-anchor="middle" x="1802" y="-302.3" font-family="Times,serif" font-size="14.00">aggregator</text>
</g>
<!-- coin&#45;&gt;aggregator -->
<g id="edge45" class="edge">
<title>coin&#45;&gt;aggregator</title>
<path fill="none" stroke="black" d="M1517.44,-520.96C1589.62,-520.2 1781.92,-513.84 1821,-468 1852.94,-430.54 1832.37,-369.11 1816.13,-333.95"/>
<polygon fill="black" stroke="black" points="1819.45,-332.79 1811.95,-325.31 1813.15,-335.83 1819.45,-332.79"/>
</g>
<!-- aggregator_factory -->
<g id="node27" class="node">
<title>aggregator_factory</title>
<ellipse fill="none" stroke="black" cx="1659" cy="-378" rx="77.19" ry="18"/>
<text text-anchor="middle" x="1659" y="-374.3" font-family="Times,serif" font-size="14.00">aggregator_factory</text>
</g>
<!-- coin&#45;&gt;aggregator_factory -->
<g id="edge46" class="edge">
<title>coin&#45;&gt;aggregator_factory</title>
<path fill="none" stroke="black" d="M1509.59,-509.06C1525.79,-498.86 1549.12,-483.44 1568,-468 1592.37,-448.07 1617.79,-422.77 1635.55,-404.24"/>
<polygon fill="black" stroke="black" points="1637.99,-406.75 1642.34,-397.09 1632.91,-401.93 1637.99,-406.75"/>
</g>
<!-- optional_aggregator -->
<g id="node28" class="node">
<title>optional_aggregator</title>
<ellipse fill="none" stroke="black" cx="1731" cy="-450" rx="81.49" ry="18"/>
<text text-anchor="middle" x="1731" y="-446.3" font-family="Times,serif" font-size="14.00">optional_aggregator</text>
</g>
<!-- coin&#45;&gt;optional_aggregator -->
<g id="edge47" class="edge">
<title>coin&#45;&gt;optional_aggregator</title>
<path fill="none" stroke="black" d="M1514.43,-513.9C1551.23,-503.22 1621.92,-482.68 1672.53,-467.98"/>
<polygon fill="black" stroke="black" points="1673.25,-471.42 1681.88,-465.27 1671.3,-464.7 1673.25,-471.42"/>
</g>
<!-- avl_queue&#45;&gt;option -->
<g id="edge48" class="edge">
<title>avl_queue&#45;&gt;option</title>
<path fill="none" stroke="black" d="M2356.49,-431.89C2367.3,-405.58 2386,-353.37 2386,-307 2386,-307 2386,-307 2386,-233 2386,-144.62 2077.58,-106.24 1960.42,-94.86"/>
<polygon fill="black" stroke="black" points="1960.84,-91.38 1950.56,-93.92 1960.18,-98.35 1960.84,-91.38"/>
</g>
<!-- avl_queue&#45;&gt;table -->
<g id="edge49" class="edge">
<title>avl_queue&#45;&gt;table</title>
<path fill="none" stroke="black" d="M2348.18,-431.74C2346.43,-412.31 2340.95,-380.76 2324,-360 2306.92,-339.08 2279.41,-325.52 2257.12,-317.36"/>
<polygon fill="black" stroke="black" points="2258.37,-314.09 2247.77,-314.17 2256.1,-320.71 2258.37,-314.09"/>
</g>
<!-- table_with_length -->
<g id="node29" class="node">
<title>table_with_length</title>
<ellipse fill="none" stroke="black" cx="2170" cy="-378" rx="74.19" ry="18"/>
<text text-anchor="middle" x="2170" y="-374.3" font-family="Times,serif" font-size="14.00">table_with_length</text>
</g>
<!-- avl_queue&#45;&gt;table_with_length -->
<g id="edge50" class="edge">
<title>avl_queue&#45;&gt;table_with_length</title>
<path fill="none" stroke="black" d="M2317,-436.49C2289.65,-425.79 2249.89,-410.24 2218.61,-398.01"/>
<polygon fill="black" stroke="black" points="2219.93,-394.77 2209.34,-394.39 2217.38,-401.29 2219.93,-394.77"/>
</g>
<!-- tablist&#45;&gt;option -->
<g id="edge51" class="edge">
<title>tablist&#45;&gt;option</title>
<path fill="none" stroke="black" d="M2161.43,-576.35C2144.63,-543.01 2107.22,-465.3 2087,-396 2055.18,-286.93 2114.88,-232.8 2044,-144 2023.2,-117.95 1987.41,-104.57 1958.95,-97.78"/>
<polygon fill="black" stroke="black" points="1960.05,-94.43 1949.53,-95.73 1958.56,-101.27 1960.05,-94.43"/>
</g>
<!-- tablist&#45;&gt;table_with_length -->
<g id="edge52" class="edge">
<title>tablist&#45;&gt;table_with_length</title>
<path fill="none" stroke="black" d="M2170,-575.85C2170,-539.14 2170,-452.66 2170,-407.53"/>
<polygon fill="black" stroke="black" points="2173.5,-407.75 2170,-397.75 2166.5,-407.75 2173.5,-407.75"/>
</g>
<!-- resource_account&#45;&gt;account -->
<g id="edge54" class="edge">
<title>resource_account&#45;&gt;account</title>
<path fill="none" stroke="black" d="M821.06,-503.7C818.92,-496.24 816.38,-487.32 813.99,-478.97"/>
<polygon fill="black" stroke="black" points="817.42,-478.21 811.3,-469.56 810.68,-480.14 817.42,-478.21"/>
</g>
<!-- resource_account&#45;&gt;bcs -->
<g id="edge53" class="edge">
<title>resource_account&#45;&gt;bcs</title>
<path fill="none" stroke="black" d="M764.69,-512.14C657.46,-495.24 443.06,-454.8 399,-396 363.29,-348.33 384.26,-306.67 456,-216 468.12,-200.68 485.84,-187.98 501.12,-178.85"/>
<polygon fill="black" stroke="black" points="502.45,-182.11 509.41,-174.12 498.99,-176.03 502.45,-182.11"/>
</g>
<!-- timestamp -->
<g id="node30" class="node">
<title>timestamp</title>
<ellipse fill="none" stroke="black" cx="1212" cy="-378" rx="48.19" ry="18"/>
<text text-anchor="middle" x="1212" y="-374.3" font-family="Times,serif" font-size="14.00">timestamp</text>
</g>
<!-- resource_account&#45;&gt;timestamp -->
<g id="edge55" class="edge">
<title>resource_account&#45;&gt;timestamp</title>
<path fill="none" stroke="black" d="M865.49,-506.47C938.02,-479.79 1091.92,-423.17 1167.81,-395.26"/>
<polygon fill="black" stroke="black" points="1168.82,-398.61 1177,-391.88 1166.4,-392.04 1168.82,-398.61"/>
</g>
<!-- incentives&#45;&gt;signer -->
<g id="edge57" class="edge">
<title>incentives&#45;&gt;signer</title>
<path fill="none" stroke="black" d="M1104.69,-663.9C1012.9,-660.94 801.77,-650.2 629,-612 438.37,-569.85 347.63,-610.33 214,-468 122.42,-370.46 165.48,-188.68 186.66,-119.09"/>
<polygon fill="black" stroke="black" points="189.98,-120.21 189.63,-109.62 183.3,-118.11 189.98,-120.21"/>
</g>
<!-- incentives&#45;&gt;type_info -->
<g id="edge58" class="edge">
<title>incentives&#45;&gt;type_info</title>
<path fill="none" stroke="black" d="M1104.51,-665.55C966.93,-664.31 561.34,-639.4 399,-396 370.24,-352.88 402.38,-320.19 443,-288 474.18,-263.29 517.34,-249.89 551.13,-242.76"/>
<polygon fill="black" stroke="black" points="551.58,-246.24 560.71,-240.86 550.22,-239.37 551.58,-246.24"/>
</g>
<!-- incentives&#45;&gt;coin -->
<g id="edge59" class="edge">
<title>incentives&#45;&gt;coin</title>
<path fill="none" stroke="black" d="M1179.96,-651.5C1201.7,-641.17 1232.04,-626.31 1258,-612 1284.9,-597.17 1288.79,-588.16 1317,-576 1372.84,-551.93 1391.46,-559.69 1449,-540 1451.74,-539.06 1454.57,-538.03 1457.38,-536.96"/>
<polygon fill="black" stroke="black" points="1458.67,-540.21 1466.66,-533.26 1456.08,-533.71 1458.67,-540.21"/>
</g>
<!-- incentives&#45;&gt;tablist -->
<g id="edge61" class="edge">
<title>incentives&#45;&gt;tablist</title>
<path fill="none" stroke="black" d="M1197.07,-662.87C1384,-654.2 2078.16,-621.49 2124,-612 2127.39,-611.3 2130.87,-610.39 2134.32,-609.36"/>
<polygon fill="black" stroke="black" points="2135.29,-612.72 2143.66,-606.23 2133.06,-606.09 2135.29,-612.72"/>
</g>
<!-- incentives&#45;&gt;resource_account -->
<g id="edge62" class="edge">
<title>incentives&#45;&gt;resource_account</title>
<path fill="none" stroke="black" d="M1121.01,-651.9C1063.73,-626.87 938.49,-572.15 871.08,-542.7"/>
<polygon fill="black" stroke="black" points="872.73,-539.6 862.17,-538.8 869.93,-546.01 872.73,-539.6"/>
</g>
<!-- incentives&#45;&gt;vector -->
<g id="edge56" class="edge">
<title>incentives&#45;&gt;vector</title>
<path fill="none" stroke="black" d="M1195.59,-660.51C1407.41,-638.84 2305.92,-543.07 2405,-468 2437.19,-443.61 2500,-295.31 2500,-235 2500,-235 2500,-235 2500,-161 2500,-72.68 1819.35,-30.78 1637.97,-21.19"/>
<polygon fill="black" stroke="black" points="1638.19,-17.69 1628.02,-20.67 1637.83,-24.68 1638.19,-17.69"/>
</g>
<!-- aptos_coin -->
<g id="node31" class="node">
<title>aptos_coin</title>
<ellipse fill="none" stroke="black" cx="1200" cy="-594" rx="48.99" ry="18"/>
<text text-anchor="middle" x="1200" y="-590.3" font-family="Times,serif" font-size="14.00">aptos_coin</text>
</g>
<!-- incentives&#45;&gt;aptos_coin -->
<g id="edge60" class="edge">
<title>incentives&#45;&gt;aptos_coin</title>
<path fill="none" stroke="black" d="M1162.61,-648.41C1168.27,-640.34 1175.2,-630.43 1181.55,-621.35"/>
<polygon fill="black" stroke="black" points="1184.4,-623.4 1187.26,-613.2 1178.66,-619.38 1184.4,-623.4"/>
</g>
<!-- registry&#45;&gt;option -->
<g id="edge63" class="edge">
<title>registry&#45;&gt;option</title>
<path fill="none" stroke="black" d="M1118.75,-729.2C1273.66,-693.07 1911.41,-540.63 1964,-468 2048.55,-351.22 1999.82,-278.54 1948,-144 1944.37,-134.59 1939.11,-124.95 1933.89,-116.53"/>
<polygon fill="black" stroke="black" points="1936.87,-114.69 1928.49,-108.21 1931,-118.5 1936.87,-114.69"/>
</g>
<!-- registry&#45;&gt;string -->
<g id="edge64" class="edge">
<title>registry&#45;&gt;string</title>
<path fill="none" stroke="black" d="M1072.25,-720.57C1053.84,-695.15 1022,-644.09 1022,-595 1022,-595 1022,-595 1022,-521 1022,-449.88 1086.72,-279.37 1119,-216 1124.1,-205.98 1131.05,-195.84 1137.66,-187.14"/>
<polygon fill="black" stroke="black" points="1140.22,-189.55 1143.67,-179.53 1134.72,-185.21 1140.22,-189.55"/>
</g>
<!-- registry&#45;&gt;signer -->
<g id="edge65" class="edge">
<title>registry&#45;&gt;signer</title>
<path fill="none" stroke="black" d="M1046.66,-737.54C948.49,-738.11 680.63,-734.5 465,-684 379.9,-664.07 353.6,-662.13 282,-612 225.39,-572.36 76,-448.11 76,-379 76,-379 76,-379 76,-233 76,-178.12 128.93,-133.51 164.48,-109.73"/>
<polygon fill="black" stroke="black" points="166.22,-112.77 172.72,-104.4 162.42,-106.89 166.22,-112.77"/>
</g>
<!-- registry&#45;&gt;type_info -->
<g id="edge66" class="edge">
<title>registry&#45;&gt;type_info</title>
<path fill="none" stroke="black" d="M1047.3,-734.59C976.59,-729.48 819.57,-715.36 691,-684 464.91,-628.85 305.96,-681.79 214,-468 195.03,-423.91 188.03,-400.37 214,-360 251.18,-302.19 454.66,-260.4 552.03,-243.41"/>
<polygon fill="black" stroke="black" points="552.33,-246.91 561.59,-241.76 551.14,-240.01 552.33,-246.91"/>
</g>
<!-- registry&#45;&gt;event -->
<g id="edge68" class="edge">
<title>registry&#45;&gt;event</title>
<path fill="none" stroke="black" d="M1048.29,-733.02C943.41,-720.63 650,-678.51 650,-595 650,-595 650,-595 650,-521 650,-478.78 532.44,-420.69 472.41,-393.79"/>
<polygon fill="black" stroke="black" points="473.85,-390.6 463.29,-389.75 471.02,-397 473.85,-390.6"/>
</g>
<!-- registry&#45;&gt;account -->
<g id="edge69" class="edge">
<title>registry&#45;&gt;account</title>
<path fill="none" stroke="black" d="M1051.21,-729.34C979.37,-711.01 812.53,-657.18 745,-540 737.01,-526.14 738.36,-518.56 745,-504 751,-490.84 762.07,-479.68 773.14,-471.04"/>
<polygon fill="black" stroke="black" points="775.06,-473.98 781.11,-465.28 770.95,-468.31 775.06,-473.98"/>
</g>
<!-- registry&#45;&gt;coin -->
<g id="edge70" class="edge">
<title>registry&#45;&gt;coin</title>
<path fill="none" stroke="black" d="M1113.25,-725.59C1138.02,-715.37 1174.83,-699.61 1206,-684 1301.53,-636.16 1410.37,-571.47 1461.11,-540.69"/>
<polygon fill="black" stroke="black" points="1462.73,-543.8 1469.46,-535.62 1459.09,-537.82 1462.73,-543.8"/>
</g>
<!-- registry&#45;&gt;tablist -->
<g id="edge71" class="edge">
<title>registry&#45;&gt;tablist</title>
<path fill="none" stroke="black" d="M1122.09,-733.64C1190.57,-727.03 1341.26,-710.64 1466,-684 1522.12,-672.02 1533.49,-657.99 1590,-648 1824.24,-606.6 1891.39,-661.74 2124,-612 2127.39,-611.28 2130.86,-610.35 2134.31,-609.31"/>
<polygon fill="black" stroke="black" points="2135.28,-612.67 2143.64,-606.17 2133.05,-606.04 2135.28,-612.67"/>
</g>
<!-- registry&#45;&gt;incentives -->
<g id="edge72" class="edge">
<title>registry&#45;&gt;incentives</title>
<path fill="none" stroke="black" d="M1099.98,-721.12C1108.21,-712.38 1118.61,-701.35 1127.87,-691.54"/>
<polygon fill="black" stroke="black" points="1130.27,-694.09 1134.59,-684.41 1125.18,-689.28 1130.27,-694.09"/>
</g>
<!-- registry&#45;&gt;table -->
<g id="edge67" class="edge">
<title>registry&#45;&gt;table</title>
<path fill="none" stroke="black" d="M1122.84,-735.42C1309.78,-727.29 2129.06,-687.52 2211,-612 2252.75,-573.52 2268.23,-414.69 2253,-360 2250.22,-350.03 2245.01,-340.06 2239.58,-331.5"/>
<polygon fill="black" stroke="black" points="2242.61,-329.74 2234.09,-323.44 2236.82,-333.67 2242.61,-329.74"/>
</g>
<!-- user&#45;&gt;option -->
<g id="edge74" class="edge">
<title>user&#45;&gt;option</title>
<path fill="none" stroke="black" d="M1631.15,-809.03C1735.08,-808.79 2107.09,-804.48 2213,-756 2387.59,-676.09 2424,-571.01 2424,-379 2424,-379 2424,-379 2424,-233 2424,-169.42 2370.51,-168.89 2312,-144 2249.39,-117.36 2050.16,-100.42 1960.49,-93.96"/>
<polygon fill="black" stroke="black" points="1960.83,-90.48 1950.61,-93.27 1960.34,-97.46 1960.83,-90.48"/>
</g>
<!-- user&#45;&gt;string -->
<g id="edge75" class="edge">
<title>user&#45;&gt;string</title>
<path fill="none" stroke="black" d="M1604.67,-791.76C1606.51,-719.42 1603.75,-437.15 1458,-288 1385.42,-213.73 1262.14,-181.64 1198.58,-169.47"/>
<polygon fill="black" stroke="black" points="1199.38,-166.06 1188.92,-167.7 1198.12,-172.95 1199.38,-166.06"/>
</g>
<!-- user&#45;&gt;signer -->
<g id="edge76" class="edge">
<title>user&#45;&gt;signer</title>
<path fill="none" stroke="black" d="M1576.64,-808.33C1414.09,-804.05 574.34,-777.67 337,-684 160.43,-614.31 38,-568.83 38,-379 38,-379 38,-379 38,-233 38,-187.41 55.8,-175.25 89,-144 108.5,-125.65 135.56,-112.32 157.59,-103.62"/>
<polygon fill="black" stroke="black" points="158.72,-106.94 166.85,-100.14 156.26,-100.38 158.72,-106.94"/>
</g>
<!-- user&#45;&gt;type_info -->
<g id="edge77" class="edge">
<title>user&#45;&gt;type_info</title>
<path fill="none" stroke="black" d="M1576.99,-807.39C1443.72,-799.13 855.95,-758.96 691,-684 520.38,-606.46 430.97,-577.17 383,-396 370.56,-349.03 366.03,-322.74 400,-288 420.86,-266.67 497.89,-251.01 551.09,-242.45"/>
<polygon fill="black" stroke="black" points="551.55,-245.92 560.88,-240.92 550.46,-239.01 551.55,-245.92"/>
</g>
<!-- user&#45;&gt;coin -->
<g id="edge79" class="edge">
<title>user&#45;&gt;coin</title>
<path fill="none" stroke="black" d="M1597.38,-792.39C1578.49,-745 1524.21,-608.82 1500.87,-550.28"/>
<polygon fill="black" stroke="black" points="1504.15,-549.06 1497.2,-541.06 1497.65,-551.65 1504.15,-549.06"/>
</g>
<!-- user&#45;&gt;tablist -->
<g id="edge80" class="edge">
<title>user&#45;&gt;tablist</title>
<path fill="none" stroke="black" d="M1627.24,-800.21C1714.84,-767.09 2025.49,-649.64 2133.03,-608.98"/>
<polygon fill="black" stroke="black" points="2134.14,-612.3 2142.25,-605.49 2131.66,-605.75 2134.14,-612.3"/>
</g>
<!-- user&#45;&gt;registry -->
<g id="edge81" class="edge">
<title>user&#45;&gt;registry</title>
<path fill="none" stroke="black" d="M1577.55,-805.43C1494.62,-794.25 1238.93,-759.76 1132.37,-745.39"/>
<polygon fill="black" stroke="black" points="1132.91,-741.93 1122.54,-744.06 1131.98,-748.87 1132.91,-741.93"/>
</g>
<!-- user&#45;&gt;vector -->
<g id="edge73" class="edge">
<title>user&#45;&gt;vector</title>
<path fill="none" stroke="black" d="M1631.37,-808.38C1739.76,-805.7 2138.91,-793.42 2259,-756 2395.68,-713.41 2538,-738.16 2538,-595 2538,-595 2538,-595 2538,-161 2538,-118.26 2759.38,-169.63 2333,-72 2199.29,-41.38 1775.42,-24.99 1637.69,-20.38"/>
<polygon fill="black" stroke="black" points="1638.02,-16.89 1627.91,-20.05 1637.78,-23.88 1638.02,-16.89"/>
</g>
<!-- user&#45;&gt;table -->
<g id="edge78" class="edge">
<title>user&#45;&gt;table</title>
<path fill="none" stroke="black" d="M1631.09,-809.14C1756.44,-809.09 2274,-800.77 2274,-667 2274,-667 2274,-667 2274,-521 2274,-449.41 2295.79,-426.39 2269,-360 2264.14,-347.96 2255.24,-336.91 2246.42,-328.06"/>
<polygon fill="black" stroke="black" points="2248.9,-325.59 2239.21,-321.31 2244.12,-330.7 2248.9,-325.59"/>
</g>
<!-- features&#45;&gt;signer -->
<g id="edge82" class="edge">
<title>features&#45;&gt;signer</title>
<path fill="none" stroke="black" d="M586.46,-149.62C580.43,-147.52 574.06,-145.51 568,-144 451.32,-114.91 309.79,-100.24 239.7,-94.3"/>
<polygon fill="black" stroke="black" points="240.04,-90.81 229.78,-93.48 239.46,-97.79 240.04,-90.81"/>
</g>
<!-- features&#45;&gt;error -->
<g id="edge83" class="edge">
<title>features&#45;&gt;error</title>
<path fill="none" stroke="black" d="M652.47,-157.72C786.17,-146 1239.12,-106.32 1375.09,-94.41"/>
<polygon fill="black" stroke="black" points="1375,-97.93 1384.65,-93.57 1374.38,-90.96 1375,-97.93"/>
</g>
<!-- system_addresses&#45;&gt;signer -->
<g id="edge84" class="edge">
<title>system_addresses&#45;&gt;signer</title>
<path fill="none" stroke="black" d="M1341.04,-287.83C1319.86,-253.2 1266.64,-175.63 1198,-144 1110.29,-103.58 422.6,-93.42 240.25,-91.42"/>
<polygon fill="black" stroke="black" points="240.29,-87.92 230.25,-91.31 240.22,-94.92 240.29,-87.92"/>
</g>
<!-- system_addresses&#45;&gt;error -->
<g id="edge85" class="edge">
<title>system_addresses&#45;&gt;error</title>
<path fill="none" stroke="black" d="M1391.58,-290.83C1409.15,-282.45 1427.95,-269.89 1438,-252 1461.88,-209.5 1442.68,-151.17 1427.61,-117.65"/>
<polygon fill="black" stroke="black" points="1430.81,-116.21 1423.38,-108.66 1424.47,-119.19 1430.81,-116.21"/>
</g>
<!-- ed25519&#45;&gt;option -->
<g id="edge86" class="edge">
<title>ed25519&#45;&gt;option</title>
<path fill="none" stroke="black" d="M830.02,-297.75C947.01,-274.85 1319.34,-202.16 1628,-144 1715.22,-127.57 1817.42,-108.9 1873.6,-98.69"/>
<polygon fill="black" stroke="black" points="1874.17,-102.14 1883.38,-96.91 1872.92,-95.25 1874.17,-102.14"/>
</g>
<!-- ed25519&#45;&gt;type_info -->
<g id="edge89" class="edge">
<title>ed25519&#45;&gt;type_info</title>
<path fill="none" stroke="black" d="M762.63,-293.75C731.14,-282.09 681.66,-263.76 646.34,-250.68"/>
<polygon fill="black" stroke="black" points="647.88,-247.52 637.29,-247.33 645.45,-254.08 647.88,-247.52"/>
</g>
<!-- ed25519&#45;&gt;error -->
<g id="edge87" class="edge">
<title>ed25519&#45;&gt;error</title>
<path fill="none" stroke="black" d="M797.32,-287.75C806.84,-253.69 833.13,-178.15 886,-144 966.65,-91.9 1266,-89.51 1374.45,-90.41"/>
<polygon fill="black" stroke="black" points="1374.27,-93.91 1384.3,-90.51 1374.34,-86.91 1374.27,-93.91"/>
</g>
<!-- ed25519&#45;&gt;bcs -->
<g id="edge88" class="edge">
<title>ed25519&#45;&gt;bcs</title>
<path fill="none" stroke="black" d="M785.5,-288.01C775.59,-267.62 756.16,-233.93 729,-216 667.82,-175.59 637.35,-203.8 568,-180 566.45,-179.47 564.87,-178.89 563.29,-178.27"/>
<polygon fill="black" stroke="black" points="564.96,-175.18 554.39,-174.46 562.2,-181.61 564.96,-175.18"/>
</g>
<!-- ed25519&#45;&gt;hash -->
<g id="edge90" class="edge">
<title>ed25519&#45;&gt;hash</title>
<path fill="none" stroke="black" d="M771.79,-290.15C756.74,-279.62 736.42,-265.39 720.18,-254.02"/>
<polygon fill="black" stroke="black" points="722.6,-251.45 712.4,-248.58 718.59,-257.18 722.6,-251.45"/>
</g>
<!-- multi_ed25519&#45;&gt;option -->
<g id="edge91" class="edge">
<title>multi_ed25519&#45;&gt;option</title>
<path fill="none" stroke="black" d="M861.87,-365.08C1042.72,-318.05 1704.87,-145.89 1875.61,-101.5"/>
<polygon fill="black" stroke="black" points="1876.33,-104.93 1885.13,-99.03 1874.57,-98.16 1876.33,-104.93"/>
</g>
<!-- multi_ed25519&#45;&gt;error -->
<g id="edge92" class="edge">
<title>multi_ed25519&#45;&gt;error</title>
<path fill="none" stroke="black" d="M830.32,-360.32C838.78,-350.13 849.48,-336.66 858,-324 888.77,-278.26 876.9,-251.59 919,-216 989.3,-156.55 1271.48,-111.27 1375.36,-96.31"/>
<polygon fill="black" stroke="black" points="1375.65,-99.81 1385.05,-94.93 1374.66,-92.88 1375.65,-99.81"/>
</g>
<!-- multi_ed25519&#45;&gt;bcs -->
<g id="edge93" class="edge">
<title>multi_ed25519&#45;&gt;bcs</title>
<path fill="none" stroke="black" d="M828.21,-360.11C839.82,-341.84 853.99,-312.09 843,-288 822.73,-243.57 803.97,-237.24 760,-216 681.82,-178.24 650.6,-206.76 568,-180 566.4,-179.48 564.77,-178.91 563.15,-178.29"/>
<polygon fill="black" stroke="black" points="564.54,-175.08 553.97,-174.41 561.81,-181.53 564.54,-175.08"/>
</g>
<!-- multi_ed25519&#45;&gt;hash -->
<g id="edge94" class="edge">
<title>multi_ed25519&#45;&gt;hash</title>
<path fill="none" stroke="black" d="M788.79,-361.28C774.01,-351.81 756.12,-338.74 743,-324 726.63,-305.61 713.3,-280.96 704.53,-262.27"/>
<polygon fill="black" stroke="black" points="707.72,-260.83 700.42,-253.15 701.34,-263.71 707.72,-260.83"/>
</g>
<!-- multi_ed25519&#45;&gt;ed25519 -->
<g id="edge95" class="edge">
<title>multi_ed25519&#45;&gt;ed25519</title>
<path fill="none" stroke="black" d="M810.31,-359.7C807.86,-352.24 804.93,-343.32 802.19,-334.97"/>
<polygon fill="black" stroke="black" points="805.54,-333.95 799.09,-325.54 798.89,-336.14 805.54,-333.95"/>
</g>
<!-- from_bcs&#45;&gt;string -->
<g id="edge96" class="edge">
<title>from_bcs&#45;&gt;string</title>
<path fill="none" stroke="black" d="M1003.55,-221.13C1036.38,-208.77 1087.69,-189.46 1122.06,-176.52"/>
<polygon fill="black" stroke="black" points="1123.04,-179.9 1131.16,-173.1 1120.57,-173.35 1123.04,-179.9"/>
</g>
<!-- aggregator_factory&#45;&gt;error -->
<g id="edge97" class="edge">
<title>aggregator_factory&#45;&gt;error</title>
<path fill="none" stroke="black" d="M1661.65,-359.69C1667.12,-316.97 1674.83,-205.57 1618,-144 1595.85,-120 1505.41,-103.7 1452.68,-96.03"/>
<polygon fill="black" stroke="black" points="1453.3,-92.59 1442.91,-94.65 1452.32,-99.52 1453.3,-92.59"/>
</g>
<!-- aggregator_factory&#45;&gt;table -->
<g id="edge98" class="edge">
<title>aggregator_factory&#45;&gt;table</title>
<path fill="none" stroke="black" d="M1725.95,-368.66C1844.58,-353.89 2088.04,-323.56 2182.42,-311.81"/>
<polygon fill="black" stroke="black" points="2182.7,-315.3 2192.19,-310.59 2181.83,-308.35 2182.7,-315.3"/>
</g>
<!-- aggregator_factory&#45;&gt;system_addresses -->
<g id="edge99" class="edge">
<title>aggregator_factory&#45;&gt;system_addresses</title>
<path fill="none" stroke="black" d="M1605,-364.73C1551.87,-352.65 1470.75,-334.22 1414.55,-321.44"/>
<polygon fill="black" stroke="black" points="1415.66,-318.11 1405.13,-319.3 1414.1,-324.93 1415.66,-318.11"/>
</g>
<!-- aggregator_factory&#45;&gt;aggregator -->
<g id="edge100" class="edge">
<title>aggregator_factory&#45;&gt;aggregator</title>
<path fill="none" stroke="black" d="M1691.09,-361.29C1712.56,-350.78 1740.92,-336.9 1763.59,-325.8"/>
<polygon fill="black" stroke="black" points="1765.08,-328.97 1772.52,-321.43 1762,-322.68 1765.08,-328.97"/>
</g>
<!-- optional_aggregator&#45;&gt;option -->
<g id="edge101" class="edge">
<title>optional_aggregator&#45;&gt;option</title>
<path fill="none" stroke="black" d="M1766.96,-433.44C1810.48,-411.9 1878,-368.56 1878,-307 1878,-307 1878,-307 1878,-233 1878,-191.95 1893,-146.43 1904.15,-118.26"/>
<polygon fill="black" stroke="black" points="1907.37,-119.64 1907.92,-109.06 1900.89,-116.99 1907.37,-119.64"/>
</g>
<!-- optional_aggregator&#45;&gt;error -->
<g id="edge102" class="edge">
<title>optional_aggregator&#45;&gt;error</title>
<path fill="none" stroke="black" d="M1737.52,-431.81C1743.47,-413.8 1750.54,-384.73 1745,-360 1721.77,-256.41 1725.65,-210.63 1643,-144 1588.15,-99.78 1503.12,-91.1 1453.57,-90.13"/>
<polygon fill="black" stroke="black" points="1453.91,-86.64 1443.88,-90.05 1453.85,-93.64 1453.91,-86.64"/>
</g>
<!-- optional_aggregator&#45;&gt;aggregator -->
<g id="edge103" class="edge">
<title>optional_aggregator&#45;&gt;aggregator</title>
<path fill="none" stroke="black" d="M1749.36,-432.43C1759.15,-422.69 1770.65,-409.64 1778,-396 1788.17,-377.14 1794.26,-353.66 1797.77,-335.56"/>
<polygon fill="black" stroke="black" points="1801.21,-336.22 1799.49,-325.76 1794.31,-335 1801.21,-336.22"/>
</g>
<!-- optional_aggregator&#45;&gt;aggregator_factory -->
<g id="edge104" class="edge">
<title>optional_aggregator&#45;&gt;aggregator_factory</title>
<path fill="none" stroke="black" d="M1713.57,-432.05C1704.82,-423.54 1694.04,-413.07 1684.39,-403.68"/>
<polygon fill="black" stroke="black" points="1686.96,-401.31 1677.35,-396.84 1682.08,-406.32 1686.96,-401.31"/>
</g>
<!-- table_with_length&#45;&gt;error -->
<g id="edge105" class="edge">
<title>table_with_length&#45;&gt;error</title>
<path fill="none" stroke="black" d="M2146.16,-360.64C2082.36,-317.68 1901.12,-201.07 1733,-144 1635.81,-111.01 1514.76,-98.11 1453.48,-93.43"/>
<polygon fill="black" stroke="black" points="1453.78,-89.94 1443.56,-92.71 1453.28,-96.92 1453.78,-89.94"/>
</g>
<!-- table_with_length&#45;&gt;table -->
<g id="edge106" class="edge">
<title>table_with_length&#45;&gt;table</title>
<path fill="none" stroke="black" d="M2182.35,-360.05C2188.47,-351.65 2195.99,-341.32 2202.77,-332.02"/>
<polygon fill="black" stroke="black" points="2205.52,-334.2 2208.58,-324.05 2199.86,-330.07 2205.52,-334.2"/>
</g>
<!-- timestamp&#45;&gt;error -->
<g id="edge107" class="edge">
<title>timestamp&#45;&gt;error</title>
<path fill="none" stroke="black" d="M1221.83,-360.13C1232.69,-341.87 1251.02,-312.13 1269,-288 1306.84,-237.2 1325.2,-231.56 1362,-180 1376.27,-160 1390.19,-135.86 1400.03,-117.77"/>
<polygon fill="black" stroke="black" points="1403.11,-119.43 1404.75,-108.97 1396.94,-116.13 1403.11,-119.43"/>
</g>
<!-- timestamp&#45;&gt;system_addresses -->
<g id="edge108" class="edge">
<title>timestamp&#45;&gt;system_addresses</title>
<path fill="none" stroke="black" d="M1239.79,-363C1259.86,-352.9 1287.27,-339.09 1309.87,-327.71"/>
<polygon fill="black" stroke="black" points="1311.15,-330.99 1318.51,-323.36 1308.01,-324.73 1311.15,-330.99"/>
</g>
<!-- aptos_coin&#45;&gt;option -->
<g id="edge110" class="edge">
<title>aptos_coin&#45;&gt;option</title>
<path fill="none" stroke="black" d="M1247.45,-589.12C1412.86,-574.99 1954,-523.22 1954,-451 1954,-451 1954,-451 1954,-305 1954,-237.34 1935.36,-159.48 1924.19,-118.9"/>
<polygon fill="black" stroke="black" points="1927.61,-118.15 1921.54,-109.47 1920.88,-120.05 1927.61,-118.15"/>
</g>
<!-- aptos_coin&#45;&gt;string -->
<g id="edge111" class="edge">
<title>aptos_coin&#45;&gt;string</title>
<path fill="none" stroke="black" d="M1167.96,-580.19C1151,-571.56 1131.73,-558.38 1122,-540 1059.74,-422.42 1118.4,-255.18 1145.72,-190.24"/>
<polygon fill="black" stroke="black" points="1148.92,-191.64 1149.67,-181.07 1142.49,-188.87 1148.92,-191.64"/>
</g>
<!-- aptos_coin&#45;&gt;signer -->
<g id="edge112" class="edge">
<title>aptos_coin&#45;&gt;signer</title>
<path fill="none" stroke="black" d="M1150.81,-593.47C1027.62,-592.85 698.34,-579.99 455,-468 334.21,-412.41 311.81,-368.66 248,-252 230.93,-220.78 224.21,-213.77 213,-180 206.47,-160.35 202.17,-137.38 199.52,-119.7"/>
<polygon fill="black" stroke="black" points="203,-119.32 198.15,-109.9 196.07,-120.29 203,-119.32"/>
</g>
<!-- aptos_coin&#45;&gt;coin -->
<g id="edge115" class="edge">
<title>aptos_coin&#45;&gt;coin</title>
<path fill="none" stroke="black" d="M1239.34,-582.99C1249.02,-580.61 1259.37,-578.15 1269,-576 1348.63,-558.24 1370.95,-563.74 1449,-540 1451.77,-539.16 1454.62,-538.19 1457.45,-537.16"/>
<polygon fill="black" stroke="black" points="1458.71,-540.43 1466.75,-533.53 1456.16,-533.91 1458.71,-540.43"/>
</g>
<!-- aptos_coin&#45;&gt;vector -->
<g id="edge109" class="edge">
<title>aptos_coin&#45;&gt;vector</title>
<path fill="none" stroke="black" d="M1190.82,-575.92C1171.05,-536.83 1128.36,-438.19 1155,-360 1207.12,-207.02 1241.54,-160.14 1377,-72 1430.08,-37.47 1503.73,-25.42 1550.11,-21.23"/>
<polygon fill="black" stroke="black" points="1550.38,-24.72 1560.07,-20.43 1549.82,-17.74 1550.38,-24.72"/>
</g>
<!-- aptos_coin&#45;&gt;error -->
<g id="edge113" class="edge">
<title>aptos_coin&#45;&gt;error</title>
<path fill="none" stroke="black" d="M1218.26,-576.96C1261.64,-537.93 1371.82,-433.13 1433,-324 1472.44,-253.65 1483.05,-219.98 1456,-144 1452.03,-132.84 1444.66,-122.24 1437.19,-113.49"/>
<polygon fill="black" stroke="black" points="1439.86,-111.23 1430.53,-106.22 1434.7,-115.96 1439.86,-111.23"/>
</g>
<!-- aptos_coin&#45;&gt;system_addresses -->
<g id="edge114" class="edge">
<title>aptos_coin&#45;&gt;system_addresses</title>
<path fill="none" stroke="black" d="M1208.99,-575.97C1234.22,-528.19 1305.79,-392.62 1336.6,-334.27"/>
<polygon fill="black" stroke="black" points="1339.58,-336.12 1341.16,-325.64 1333.39,-332.85 1339.58,-336.12"/>
</g>
</g>
</svg>
