<?xml version="1.0" encoding="UTF-8" standalone="no"?>
<!DOCTYPE svg PUBLIC "-//W3C//DTD SVG 1.1//EN"
 "http://www.w3.org/Graphics/SVG/1.1/DTD/svg11.dtd">
<!-- Generated by graphviz version 8.0.5 (20230430.1635)
 -->
<!-- Title: G Pages: 1 -->
<svg width="2890pt" height="908pt"
 viewBox="0.00 0.00 2890.00 908.00" xmlns="http://www.w3.org/2000/svg" xmlns:xlink="http://www.w3.org/1999/xlink">
<g id="graph0" class="graph" transform="scale(1 1) rotate(0) translate(4 904)">
<title>G</title>
<polygon fill="white" stroke="none" points="-4,4 -4,-904 2886,-904 2886,4 -4,4"/>
<!-- market -->
<g id="node1" class="node">
<title>market</title>
<ellipse fill="none" stroke="black" cx="1656" cy="-882" rx="37.02" ry="18"/>
<text text-anchor="middle" x="1656" y="-876.95" font-family="Times,serif" font-size="14.00">market</text>
</g>
<!-- vector -->
<g id="node2" class="node">
<title>vector</title>
<ellipse fill="none" stroke="black" cx="2464" cy="-18" rx="33.95" ry="18"/>
<text text-anchor="middle" x="2464" y="-12.95" font-family="Times,serif" font-size="14.00">vector</text>
</g>
<!-- market&#45;&gt;vector -->
<g id="edge1" class="edge">
<title>market&#45;&gt;vector</title>
<path fill="none" stroke="black" d="M1693.35,-881.05C1856.34,-880.99 2505.98,-877.57 2703,-828 2789.16,-806.32 2882,-827.85 2882,-739 2882,-739 2882,-739 2882,-161 2882,-96.37 2826.12,-98.11 2767,-72 2681,-34.02 2570,-23.21 2509.04,-20.17"/>
<polygon fill="black" stroke="black" points="2509.41,-16.63 2499.26,-19.68 2509.09,-23.63 2509.41,-16.63"/>
</g>
<!-- option -->
<g id="node3" class="node">
<title>option</title>
<ellipse fill="none" stroke="black" cx="1870" cy="-90" rx="34.46" ry="18"/>
<text text-anchor="middle" x="1870" y="-84.95" font-family="Times,serif" font-size="14.00">option</text>
</g>
<!-- market&#45;&gt;option -->
<g id="edge2" class="edge">
<title>market&#45;&gt;option</title>
<path fill="none" stroke="black" d="M1618.96,-881.24C1477.06,-881.16 976,-871.51 976,-739 976,-739 976,-739 976,-665 976,-488.47 1206.1,-637.88 1353,-540 1383.87,-519.43 1544.48,-312.88 1572,-288 1654.33,-213.58 1682.21,-203.33 1776,-144 1795.77,-131.49 1818.62,-118.58 1836.84,-108.63"/>
<polygon fill="black" stroke="black" points="1838.31,-111.27 1845.44,-103.43 1834.98,-105.11 1838.31,-111.27"/>
</g>
<!-- string -->
<g id="node4" class="node">
<title>string</title>
<ellipse fill="none" stroke="black" cx="282" cy="-162" rx="31.9" ry="18"/>
<text text-anchor="middle" x="282" y="-156.95" font-family="Times,serif" font-size="14.00">string</text>
</g>
<!-- market&#45;&gt;string -->
<g id="edge3" class="edge">
<title>market&#45;&gt;string</title>
<path fill="none" stroke="black" d="M1618.88,-880.46C1434.66,-877.66 617.51,-863.39 366,-828 200.23,-804.67 0,-906.41 0,-739 0,-739 0,-739 0,-305 0,-258.5 17.25,-243.14 55,-216 110.02,-176.44 190.19,-165.96 239.07,-163.44"/>
<polygon fill="black" stroke="black" points="239.05,-166.9 248.89,-162.98 238.75,-159.91 239.05,-166.9"/>
</g>
<!-- signer -->
<g id="node5" class="node">
<title>signer</title>
<ellipse fill="none" stroke="black" cx="2578" cy="-90" rx="33.44" ry="18"/>
<text text-anchor="middle" x="2578" y="-84.95" font-family="Times,serif" font-size="14.00">signer</text>
</g>
<!-- market&#45;&gt;signer -->
<g id="edge4" class="edge">
<title>market&#45;&gt;signer</title>
<path fill="none" stroke="black" d="M1693.19,-880.56C1894.42,-877.69 2844,-857.85 2844,-739 2844,-739 2844,-739 2844,-521 2844,-380.97 2831.38,-339.29 2765,-216 2744.56,-178.04 2735.01,-169.16 2700,-144 2674.73,-125.84 2642.26,-112.11 2617.17,-103.18"/>
<polygon fill="black" stroke="black" points="2618.51,-99.6 2607.92,-99.65 2616.23,-106.22 2618.51,-99.6"/>
</g>
<!-- type_info -->
<g id="node6" class="node">
<title>type_info</title>
<ellipse fill="none" stroke="black" cx="416" cy="-234" rx="46.23" ry="18"/>
<text text-anchor="middle" x="416" y="-228.95" font-family="Times,serif" font-size="14.00">type_info</text>
</g>
<!-- market&#45;&gt;type_info -->
<g id="edge5" class="edge">
<title>market&#45;&gt;type_info</title>
<path fill="none" stroke="black" d="M1619.2,-879.51C1388.55,-869.94 152,-815.1 152,-739 152,-739 152,-739 152,-377 152,-283.06 283.26,-251 360.67,-240.25"/>
<polygon fill="black" stroke="black" points="360.75,-243.64 370.22,-238.88 359.85,-236.7 360.75,-243.64"/>
</g>
<!-- table -->
<g id="node7" class="node">
<title>table</title>
<ellipse fill="none" stroke="black" cx="2369" cy="-306" rx="28.83" ry="18"/>
<text text-anchor="middle" x="2369" y="-300.95" font-family="Times,serif" font-size="14.00">table</text>
</g>
<!-- market&#45;&gt;table -->
<g id="edge6" class="edge">
<title>market&#45;&gt;table</title>
<path fill="none" stroke="black" d="M1693.13,-879.94C1829.64,-875.81 2303.37,-859.49 2451,-828 2562.67,-804.18 2692,-853.18 2692,-739 2692,-739 2692,-739 2692,-521 2692,-385.83 2492.99,-331.01 2407.39,-313.68"/>
<polygon fill="black" stroke="black" points="2408.3,-310.1 2397.82,-311.62 2406.96,-316.97 2408.3,-310.1"/>
</g>
<!-- event -->
<g id="node8" class="node">
<title>event</title>
<ellipse fill="none" stroke="black" cx="1175" cy="-378" rx="30.88" ry="18"/>
<text text-anchor="middle" x="1175" y="-372.95" font-family="Times,serif" font-size="14.00">event</text>
</g>
<!-- market&#45;&gt;event -->
<g id="edge7" class="edge">
<title>market&#45;&gt;event</title>
<path fill="none" stroke="black" d="M1619.02,-880.47C1490.5,-878.3 1063.99,-868.16 934,-828 860.67,-805.34 786,-815.76 786,-739 786,-739 786,-739 786,-665 786,-577.04 1047.47,-441.07 1141.68,-394.94"/>
<polygon fill="black" stroke="black" points="1143.08,-397.66 1150.54,-390.13 1140.02,-391.36 1143.08,-397.66"/>
</g>
<!-- account -->
<g id="node9" class="node">
<title>account</title>
<ellipse fill="none" stroke="black" cx="803" cy="-450" rx="39.58" ry="18"/>
<text text-anchor="middle" x="803" y="-444.95" font-family="Times,serif" font-size="14.00">account</text>
</g>
<!-- market&#45;&gt;account -->
<g id="edge8" class="edge">
<title>market&#45;&gt;account</title>
<path fill="none" stroke="black" d="M1618.76,-881.29C1459.22,-882.17 838.42,-882.11 772,-828 740.24,-802.12 748,-779.97 748,-739 748,-739 748,-739 748,-593 748,-550.15 770.05,-504.63 786.23,-477.01"/>
<polygon fill="black" stroke="black" points="789.69,-479.04 791.87,-468.67 783.7,-475.42 789.69,-479.04"/>
</g>
<!-- coin -->
<g id="node10" class="node">
<title>coin</title>
<ellipse fill="none" stroke="black" cx="1466" cy="-522" rx="27" ry="18"/>
<text text-anchor="middle" x="1466" y="-516.95" font-family="Times,serif" font-size="14.00">coin</text>
</g>
<!-- market&#45;&gt;coin -->
<g id="edge9" class="edge">
<title>market&#45;&gt;coin</title>
<path fill="none" stroke="black" d="M1623.77,-872.91C1569.56,-857.14 1466,-816.83 1466,-739 1466,-739 1466,-739 1466,-665 1466,-625.57 1466,-579.97 1466,-551.31"/>
<polygon fill="black" stroke="black" points="1469.5,-551.49 1466,-541.49 1462.5,-551.49 1469.5,-551.49"/>
</g>
<!-- avl_queue -->
<g id="node11" class="node">
<title>avl_queue</title>
<ellipse fill="none" stroke="black" cx="2425" cy="-450" rx="48.79" ry="18"/>
<text text-anchor="middle" x="2425" y="-444.95" font-family="Times,serif" font-size="14.00">avl_queue</text>
</g>
<!-- market&#45;&gt;avl_queue -->
<g id="edge10" class="edge">
<title>market&#45;&gt;avl_queue</title>
<path fill="none" stroke="black" d="M1693.04,-879.5C1869.47,-871.9 2616,-834.09 2616,-739 2616,-739 2616,-739 2616,-593 2616,-522.4 2530.91,-482.78 2474.32,-464.24"/>
<polygon fill="black" stroke="black" points="2475.7,-460.69 2465.11,-461.02 2473.6,-467.37 2475.7,-460.69"/>
</g>
<!-- tablist -->
<g id="node12" class="node">
<title>tablist</title>
<ellipse fill="none" stroke="black" cx="2155" cy="-594" rx="33.44" ry="18"/>
<text text-anchor="middle" x="2155" y="-588.95" font-family="Times,serif" font-size="14.00">tablist</text>
</g>
<!-- market&#45;&gt;tablist -->
<g id="edge11" class="edge">
<title>market&#45;&gt;tablist</title>
<path fill="none" stroke="black" d="M1679.4,-867.59C1760.64,-821.03 2030.61,-666.29 2123.38,-613.12"/>
<polygon fill="black" stroke="black" points="2124.86,-615.74 2131.79,-607.73 2121.38,-609.66 2124.86,-615.74"/>
</g>
<!-- resource_account -->
<g id="node13" class="node">
<title>resource_account</title>
<ellipse fill="none" stroke="black" cx="1269" cy="-522" rx="75.41" ry="18"/>
<text text-anchor="middle" x="1269" y="-516.95" font-family="Times,serif" font-size="14.00">resource_account</text>
</g>
<!-- market&#45;&gt;resource_account -->
<g id="edge12" class="edge">
<title>market&#45;&gt;resource_account</title>
<path fill="none" stroke="black" d="M1618.96,-880.63C1482.46,-878.95 1012.83,-870.11 962,-828 930.45,-801.86 938,-779.97 938,-739 938,-739 938,-739 938,-665 938,-624.03 931.72,-603.6 962,-576 993.99,-546.84 1105.99,-533.42 1185.45,-527.46"/>
<polygon fill="black" stroke="black" points="1185.22,-530.92 1194.94,-526.71 1184.72,-523.94 1185.22,-530.92"/>
</g>
<!-- incentives -->
<g id="node14" class="node">
<title>incentives</title>
<ellipse fill="none" stroke="black" cx="1732" cy="-666" rx="48.28" ry="18"/>
<text text-anchor="middle" x="1732" y="-660.95" font-family="Times,serif" font-size="14.00">incentives</text>
</g>
<!-- market&#45;&gt;incentives -->
<g id="edge13" class="edge">
<title>market&#45;&gt;incentives</title>
<path fill="none" stroke="black" d="M1662.86,-864.14C1672.49,-840.24 1690.37,-795.07 1704,-756 1711.13,-735.58 1718.44,-712.25 1723.8,-694.6"/>
<polygon fill="black" stroke="black" points="1727.41,-695.75 1726.94,-685.17 1720.71,-693.73 1727.41,-695.75"/>
</g>
<!-- registry -->
<g id="node15" class="node">
<title>registry</title>
<ellipse fill="none" stroke="black" cx="1656" cy="-738" rx="39.07" ry="18"/>
<text text-anchor="middle" x="1656" y="-732.95" font-family="Times,serif" font-size="14.00">registry</text>
</g>
<!-- market&#45;&gt;registry -->
<g id="edge14" class="edge">
<title>market&#45;&gt;registry</title>
<path fill="none" stroke="black" d="M1656,-863.59C1656,-839.5 1656,-795.75 1656,-767.03"/>
<polygon fill="black" stroke="black" points="1659.5,-767.11 1656,-757.11 1652.5,-767.11 1659.5,-767.11"/>
</g>
<!-- user -->
<g id="node16" class="node">
<title>user</title>
<ellipse fill="none" stroke="black" cx="2183" cy="-810" rx="27" ry="18"/>
<text text-anchor="middle" x="2183" y="-804.95" font-family="Times,serif" font-size="14.00">user</text>
</g>
<!-- market&#45;&gt;user -->
<g id="edge15" class="edge">
<title>market&#45;&gt;user</title>
<path fill="none" stroke="black" d="M1692.57,-878.24C1770.23,-872.05 1957.2,-855.43 2112,-828 2123.73,-825.92 2136.41,-823.08 2147.77,-820.31"/>
<polygon fill="black" stroke="black" points="2148.33,-823.53 2157.18,-817.71 2146.63,-816.74 2148.33,-823.53"/>
</g>
<!-- option&#45;&gt;vector -->
<g id="edge16" class="edge">
<title>option&#45;&gt;vector</title>
<path fill="none" stroke="black" d="M1903.64,-85.04C2004.94,-73.1 2307.09,-37.49 2420.42,-24.14"/>
<polygon fill="black" stroke="black" points="2420.57,-27.52 2430.1,-22.88 2419.76,-20.57 2420.57,-27.52"/>
</g>
<!-- string&#45;&gt;vector -->
<g id="edge17" class="edge">
<title>string&#45;&gt;vector</title>
<path fill="none" stroke="black" d="M285.42,-143.67C290.59,-122.59 302.64,-87.87 328,-72 419.72,-14.59 2119.33,-17.81 2419.04,-18.82"/>
<polygon fill="black" stroke="black" points="2418.89,-22.33 2428.9,-18.86 2418.92,-15.33 2418.89,-22.33"/>
</g>
<!-- string&#45;&gt;option -->
<g id="edge18" class="edge">
<title>string&#45;&gt;option</title>
<path fill="none" stroke="black" d="M314.08,-159.59C514.16,-150.77 1589.89,-103.35 1824.71,-93"/>
<polygon fill="black" stroke="black" points="1824.73,-96.46 1834.56,-92.52 1824.42,-89.46 1824.73,-96.46"/>
</g>
<!-- type_info&#45;&gt;string -->
<g id="edge19" class="edge">
<title>type_info&#45;&gt;string</title>
<path fill="none" stroke="black" d="M389.21,-219C367.65,-207.74 337.28,-191.88 314.37,-179.91"/>
<polygon fill="black" stroke="black" points="316.22,-176.41 305.74,-174.88 312.98,-182.61 316.22,-176.41"/>
</g>
<!-- error -->
<g id="node17" class="node">
<title>error</title>
<ellipse fill="none" stroke="black" cx="1272" cy="-90" rx="28.83" ry="18"/>
<text text-anchor="middle" x="1272" y="-84.95" font-family="Times,serif" font-size="14.00">error</text>
</g>
<!-- type_info&#45;&gt;error -->
<g id="edge20" class="edge">
<title>type_info&#45;&gt;error</title>
<path fill="none" stroke="black" d="M437.86,-217.81C469.08,-197 529.01,-160.37 586,-144 708.73,-108.75 1104.93,-95.41 1232.22,-91.97"/>
<polygon fill="black" stroke="black" points="1232.1,-95.45 1242,-91.69 1231.91,-88.45 1232.1,-95.45"/>
</g>
<!-- features -->
<g id="node18" class="node">
<title>features</title>
<ellipse fill="none" stroke="black" cx="888" cy="-162" rx="40.09" ry="18"/>
<text text-anchor="middle" x="888" y="-156.95" font-family="Times,serif" font-size="14.00">features</text>
</g>
<!-- type_info&#45;&gt;features -->
<g id="edge21" class="edge">
<title>type_info&#45;&gt;features</title>
<path fill="none" stroke="black" d="M450.08,-221.46C456.95,-219.42 464.16,-217.48 471,-216 601.8,-187.7 759.17,-172.75 837.94,-166.54"/>
<polygon fill="black" stroke="black" points="837.82,-169.99 847.52,-165.72 837.28,-163.01 837.82,-169.99"/>
</g>
<!-- bcs -->
<g id="node19" class="node">
<title>bcs</title>
<ellipse fill="none" stroke="black" cx="1011" cy="-162" rx="27" ry="18"/>
<text text-anchor="middle" x="1011" y="-156.95" font-family="Times,serif" font-size="14.00">bcs</text>
</g>
<!-- type_info&#45;&gt;bcs -->
<g id="edge22" class="edge">
<title>type_info&#45;&gt;bcs</title>
<path fill="none" stroke="black" d="M449.73,-221.28C456.7,-219.23 464.03,-217.33 471,-216 675.05,-177.09 731.65,-211.34 937,-180 949.67,-178.07 963.39,-175.15 975.54,-172.27"/>
<polygon fill="black" stroke="black" points="976.29,-175.45 985.17,-169.68 974.63,-168.65 976.29,-175.45"/>
</g>
<!-- event&#45;&gt;bcs -->
<g id="edge23" class="edge">
<title>event&#45;&gt;bcs</title>
<path fill="none" stroke="black" d="M1170.39,-359.92C1164.85,-341.21 1154.32,-310.84 1139,-288 1110.43,-245.4 1065.46,-205.75 1037.13,-182.97"/>
<polygon fill="black" stroke="black" points="1039.58,-179.65 1029.56,-176.18 1035.23,-185.13 1039.58,-179.65"/>
</g>
<!-- guid -->
<g id="node20" class="node">
<title>guid</title>
<ellipse fill="none" stroke="black" cx="1103" cy="-306" rx="27.3" ry="18"/>
<text text-anchor="middle" x="1103" y="-300.95" font-family="Times,serif" font-size="14.00">guid</text>
</g>
<!-- event&#45;&gt;guid -->
<g id="edge24" class="edge">
<title>event&#45;&gt;guid</title>
<path fill="none" stroke="black" d="M1159.73,-362.15C1149.77,-352.47 1136.59,-339.65 1125.44,-328.81"/>
<polygon fill="black" stroke="black" points="1128.36,-326.81 1118.75,-322.35 1123.49,-331.83 1128.36,-326.81"/>
</g>
<!-- account&#45;&gt;vector -->
<g id="edge25" class="edge">
<title>account&#45;&gt;vector</title>
<path fill="none" stroke="black" d="M763.89,-446.56C680.67,-440.87 488.92,-424.94 431,-396 380.96,-370.99 342,-362.94 342,-307 342,-307 342,-307 342,-161 342,-53.07 2112.83,-23.83 2419.13,-19.58"/>
<polygon fill="black" stroke="black" points="2418.86,-23.07 2428.81,-19.43 2418.76,-16.07 2418.86,-23.07"/>
</g>
<!-- account&#45;&gt;option -->
<g id="edge26" class="edge">
<title>account&#45;&gt;option</title>
<path fill="none" stroke="black" d="M832.77,-438.02C856.02,-428.71 888.54,-414 914,-396 932.48,-382.94 932.24,-374.03 950,-360 997.91,-322.15 1011.31,-313.03 1067,-288 1340.24,-165.18 1701.66,-111.69 1825.88,-96.11"/>
<polygon fill="black" stroke="black" points="1825.97,-99.5 1835.47,-94.8 1825.11,-92.56 1825.97,-99.5"/>
</g>
<!-- account&#45;&gt;signer -->
<g id="edge27" class="edge">
<title>account&#45;&gt;signer</title>
<path fill="none" stroke="black" d="M842.89,-448.23C944.44,-445.71 1220.72,-435.49 1447,-396 1670.84,-356.94 2365.64,-153.68 2538.67,-102.64"/>
<polygon fill="black" stroke="black" points="2539.47,-105.76 2548.07,-99.57 2537.49,-99.04 2539.47,-105.76"/>
</g>
<!-- account&#45;&gt;type_info -->
<g id="edge30" class="edge">
<title>account&#45;&gt;type_info</title>
<path fill="none" stroke="black" d="M763.15,-448.05C682.97,-445.31 506.07,-434.91 462,-396 423.95,-362.4 416.41,-299.74 415.45,-263.29"/>
<polygon fill="black" stroke="black" points="418.95,-263.41 415.35,-253.45 411.95,-263.48 418.95,-263.41"/>
</g>
<!-- account&#45;&gt;table -->
<g id="edge31" class="edge">
<title>account&#45;&gt;table</title>
<path fill="none" stroke="black" d="M842.79,-448.73C982.28,-447.41 1461.97,-439.76 1855,-396 2034.6,-376 2246.5,-333.11 2331.23,-315.16"/>
<polygon fill="black" stroke="black" points="2331.81,-318.4 2340.86,-312.9 2330.35,-311.56 2331.81,-318.4"/>
</g>
<!-- account&#45;&gt;event -->
<g id="edge38" class="edge">
<title>account&#45;&gt;event</title>
<path fill="none" stroke="black" d="M833.87,-438.25C841.37,-435.93 849.42,-433.67 857,-432 978.67,-405.19 1014.77,-428.67 1135,-396 1137.16,-395.41 1139.36,-394.73 1141.56,-393.99"/>
<polygon fill="black" stroke="black" points="1142.57,-396.97 1150.69,-390.16 1140.1,-390.42 1142.57,-396.97"/>
</g>
<!-- account&#45;&gt;error -->
<g id="edge28" class="edge">
<title>account&#45;&gt;error</title>
<path fill="none" stroke="black" d="M763.31,-447.78C691.47,-444.65 544.42,-433.69 513,-396 502.75,-383.71 507.43,-375 513,-360 537.35,-294.42 676.3,-168.01 742,-144 832.19,-111.04 1124.86,-96.68 1232.13,-92.43"/>
<polygon fill="black" stroke="black" points="1232.24,-95.89 1242.09,-92 1231.97,-88.89 1232.24,-95.89"/>
</g>
<!-- account&#45;&gt;bcs -->
<g id="edge29" class="edge">
<title>account&#45;&gt;bcs</title>
<path fill="none" stroke="black" d="M824.65,-434.64C840.06,-424.25 861.11,-409.68 879,-396 898.8,-380.86 902.32,-375.29 922,-360 943.62,-343.2 955.77,-346.06 972,-324 1001.25,-284.25 1008.81,-225.45 1010.61,-191"/>
<polygon fill="black" stroke="black" points="1014.14,-191.44 1011.03,-181.31 1007.14,-191.17 1014.14,-191.44"/>
</g>
<!-- account&#45;&gt;guid -->
<g id="edge36" class="edge">
<title>account&#45;&gt;guid</title>
<path fill="none" stroke="black" d="M834.75,-438.78C871.54,-426.73 929.71,-406.95 950,-396 973.47,-383.34 975.34,-374.06 998,-360 1021.56,-345.38 1049.66,-331.36 1070.87,-321.41"/>
<polygon fill="black" stroke="black" points="1072.07,-324.25 1079.67,-316.87 1069.13,-317.9 1072.07,-324.25"/>
</g>
<!-- system_addresses -->
<g id="node21" class="node">
<title>system_addresses</title>
<ellipse fill="none" stroke="black" cx="1453" cy="-306" rx="76.94" ry="18"/>
<text text-anchor="middle" x="1453" y="-300.95" font-family="Times,serif" font-size="14.00">system_addresses</text>
</g>
<!-- account&#45;&gt;system_addresses -->
<g id="edge32" class="edge">
<title>account&#45;&gt;system_addresses</title>
<path fill="none" stroke="black" d="M834.64,-438.83C841.96,-436.53 849.74,-434.14 857,-432 914.92,-414.93 934.52,-424.02 988,-396 1010.08,-384.43 1008.15,-369.96 1031,-360 1089.76,-334.39 1262.89,-319.14 1368.26,-311.98"/>
<polygon fill="black" stroke="black" points="1368.44,-315.41 1378.18,-311.25 1367.97,-308.42 1368.44,-315.41"/>
</g>
<!-- hash -->
<g id="node22" class="node">
<title>hash</title>
<ellipse fill="none" stroke="black" cx="674" cy="-234" rx="27.81" ry="18"/>
<text text-anchor="middle" x="674" y="-228.95" font-family="Times,serif" font-size="14.00">hash</text>
</g>
<!-- account&#45;&gt;hash -->
<g id="edge33" class="edge">
<title>account&#45;&gt;hash</title>
<path fill="none" stroke="black" d="M775.92,-436.53C757.74,-427.21 734.08,-413.15 717,-396 690.53,-369.43 683.16,-360.1 673,-324 667.4,-304.11 667.93,-280.72 669.7,-262.91"/>
<polygon fill="black" stroke="black" points="673.28,-263.45 671,-253.1 666.33,-262.62 673.28,-263.45"/>
</g>
<!-- ed25519 -->
<g id="node23" class="node">
<title>ed25519</title>
<ellipse fill="none" stroke="black" cx="745" cy="-306" rx="42.65" ry="18"/>
<text text-anchor="middle" x="745" y="-300.95" font-family="Times,serif" font-size="14.00">ed25519</text>
</g>
<!-- account&#45;&gt;ed25519 -->
<g id="edge34" class="edge">
<title>account&#45;&gt;ed25519</title>
<path fill="none" stroke="black" d="M774.46,-437.38C757.33,-428.74 736.97,-415.11 727,-396 716.89,-376.63 723,-352.15 730.73,-333.77"/>
<polygon fill="black" stroke="black" points="734.23,-335.55 735.23,-325 727.87,-332.62 734.23,-335.55"/>
</g>
<!-- multi_ed25519 -->
<g id="node24" class="node">
<title>multi_ed25519</title>
<ellipse fill="none" stroke="black" cx="803" cy="-378" rx="67.22" ry="18"/>
<text text-anchor="middle" x="803" y="-372.95" font-family="Times,serif" font-size="14.00">multi_ed25519</text>
</g>
<!-- account&#45;&gt;multi_ed25519 -->
<g id="edge35" class="edge">
<title>account&#45;&gt;multi_ed25519</title>
<path fill="none" stroke="black" d="M803,-431.7C803,-424.24 803,-415.32 803,-406.97"/>
<polygon fill="black" stroke="black" points="806.5,-407.1 803,-397.1 799.5,-407.1 806.5,-407.1"/>
</g>
<!-- from_bcs -->
<g id="node25" class="node">
<title>from_bcs</title>
<ellipse fill="none" stroke="black" cx="526" cy="-234" rx="46.23" ry="18"/>
<text text-anchor="middle" x="526" y="-228.95" font-family="Times,serif" font-size="14.00">from_bcs</text>
</g>
<!-- account&#45;&gt;from_bcs -->
<g id="edge37" class="edge">
<title>account&#45;&gt;from_bcs</title>
<path fill="none" stroke="black" d="M763.13,-448.61C684.93,-446.9 515.91,-438.28 480,-396 446.66,-356.74 481.5,-294.71 506.12,-260.23"/>
<polygon fill="black" stroke="black" points="509.3,-262.81 512.42,-252.68 503.67,-258.66 509.3,-262.81"/>
</g>
<!-- create_signer -->
<g id="node26" class="node">
<title>create_signer</title>
<ellipse fill="none" stroke="black" cx="582" cy="-378" rx="60.05" ry="18"/>
<text text-anchor="middle" x="582" y="-372.95" font-family="Times,serif" font-size="14.00">create_signer</text>
</g>
<!-- account&#45;&gt;create_signer -->
<g id="edge39" class="edge">
<title>account&#45;&gt;create_signer</title>
<path fill="none" stroke="black" d="M771.34,-438.97C735.14,-427.5 675.38,-408.58 632.69,-395.05"/>
<polygon fill="black" stroke="black" points="633.81,-391.42 623.22,-391.74 631.7,-398.1 633.81,-391.42"/>
</g>
<!-- chain_id -->
<g id="node27" class="node">
<title>chain_id</title>
<ellipse fill="none" stroke="black" cx="1083" cy="-378" rx="42.65" ry="18"/>
<text text-anchor="middle" x="1083" y="-372.95" font-family="Times,serif" font-size="14.00">chain_id</text>
</g>
<!-- account&#45;&gt;chain_id -->
<g id="edge40" class="edge">
<title>account&#45;&gt;chain_id</title>
<path fill="none" stroke="black" d="M834.26,-438.6C841.68,-436.29 849.59,-433.95 857,-432 931.27,-412.45 951.59,-414.99 1026,-396 1030.28,-394.91 1034.72,-393.71 1039.14,-392.46"/>
<polygon fill="black" stroke="black" points="1039.73,-395.65 1048.37,-389.52 1037.79,-388.92 1039.73,-395.65"/>
</g>
<!-- coin&#45;&gt;option -->
<g id="edge41" class="edge">
<title>coin&#45;&gt;option</title>
<path fill="none" stroke="black" d="M1493.18,-520.06C1579.97,-516.71 1849.42,-503.64 1928,-468 1981.58,-443.7 2026,-437.84 2026,-379 2026,-379 2026,-379 2026,-233 2026,-169.16 1953.67,-126.42 1907.51,-105.65"/>
<polygon fill="black" stroke="black" points="1909.1,-102.08 1898.53,-101.31 1906.31,-108.51 1909.1,-102.08"/>
</g>
<!-- coin&#45;&gt;string -->
<g id="edge42" class="edge">
<title>coin&#45;&gt;string</title>
<path fill="none" stroke="black" d="M1440.07,-516.28C1417.23,-512.33 1383.02,-506.87 1353,-504 1160.38,-485.58 671.04,-513.64 483,-468 409.18,-450.08 374.9,-455.75 328,-396 280.36,-335.3 277.79,-238.83 279.85,-191.33"/>
<polygon fill="black" stroke="black" points="283.4,-191.53 280.45,-181.36 276.41,-191.15 283.4,-191.53"/>
</g>
<!-- coin&#45;&gt;signer -->
<g id="edge43" class="edge">
<title>coin&#45;&gt;signer</title>
<path fill="none" stroke="black" d="M1493.35,-520.49C1651.54,-517.4 2443.7,-500.37 2483,-468 2597.58,-373.64 2527.05,-287.76 2564,-144 2566.12,-135.76 2568.46,-126.82 2570.62,-118.66"/>
<polygon fill="black" stroke="black" points="2574.22,-119.73 2573.4,-109.17 2567.45,-117.94 2574.22,-119.73"/>
</g>
<!-- coin&#45;&gt;type_info -->
<g id="edge45" class="edge">
<title>coin&#45;&gt;type_info</title>
<path fill="none" stroke="black" d="M1440.05,-516.42C1417.2,-512.55 1382.99,-507.15 1353,-504 1147.84,-482.45 578.73,-539.99 431,-396 395.75,-361.64 401.75,-298.81 409.03,-262.63"/>
<polygon fill="black" stroke="black" points="412.57,-263.84 411.29,-253.32 405.73,-262.34 412.57,-263.84"/>
</g>
<!-- coin&#45;&gt;event -->
<g id="edge47" class="edge">
<title>coin&#45;&gt;event</title>
<path fill="none" stroke="black" d="M1440.21,-515.77C1405.99,-508.22 1344.28,-492.41 1296,-468 1259.68,-449.63 1222.68,-420.59 1199.32,-400.7"/>
<polygon fill="black" stroke="black" points="1201.92,-397.46 1192.06,-393.57 1197.34,-402.76 1201.92,-397.46"/>
</g>
<!-- coin&#45;&gt;account -->
<g id="edge48" class="edge">
<title>coin&#45;&gt;account</title>
<path fill="none" stroke="black" d="M1440.02,-516.69C1417.15,-512.99 1382.93,-507.69 1353,-504 1169.15,-481.33 949.72,-462.7 852.99,-454.92"/>
<polygon fill="black" stroke="black" points="853.34,-451.36 843.09,-454.05 852.78,-458.33 853.34,-451.36"/>
</g>
<!-- coin&#45;&gt;error -->
<g id="edge44" class="edge">
<title>coin&#45;&gt;error</title>
<path fill="none" stroke="black" d="M1443.17,-511.83C1405.06,-495.18 1329.39,-456.03 1296,-396 1245.51,-305.24 1258.15,-175.2 1266.93,-118.82"/>
<polygon fill="black" stroke="black" points="1270.5,-119.69 1268.67,-109.26 1263.6,-118.56 1270.5,-119.69"/>
</g>
<!-- coin&#45;&gt;system_addresses -->
<g id="edge46" class="edge">
<title>coin&#45;&gt;system_addresses</title>
<path fill="none" stroke="black" d="M1464.96,-503.85C1462.72,-466.99 1457.43,-379.92 1454.7,-334.96"/>
<polygon fill="black" stroke="black" points="1458.15,-335 1454.05,-325.23 1451.16,-335.43 1458.15,-335"/>
</g>
<!-- aggregator -->
<g id="node28" class="node">
<title>aggregator</title>
<ellipse fill="none" stroke="black" cx="1948" cy="-306" rx="50.33" ry="18"/>
<text text-anchor="middle" x="1948" y="-300.95" font-family="Times,serif" font-size="14.00">aggregator</text>
</g>
<!-- coin&#45;&gt;aggregator -->
<g id="edge49" class="edge">
<title>coin&#45;&gt;aggregator</title>
<path fill="none" stroke="black" d="M1493.47,-521.46C1579.11,-522.31 1839.24,-520.45 1901,-468 1939.85,-435.01 1947.55,-371.85 1948.53,-335.21"/>
<polygon fill="black" stroke="black" points="1952.04,-335.36 1948.64,-325.32 1945.04,-335.29 1952.04,-335.36"/>
</g>
<!-- aggregator_factory -->
<g id="node29" class="node">
<title>aggregator_factory</title>
<ellipse fill="none" stroke="black" cx="1765" cy="-378" rx="81.04" ry="18"/>
<text text-anchor="middle" x="1765" y="-372.95" font-family="Times,serif" font-size="14.00">aggregator_factory</text>
</g>
<!-- coin&#45;&gt;aggregator_factory -->
<g id="edge50" class="edge">
<title>coin&#45;&gt;aggregator_factory</title>
<path fill="none" stroke="black" d="M1487.5,-510.79C1536.44,-487.55 1656.89,-430.34 1721.84,-399.5"/>
<polygon fill="black" stroke="black" points="1723.23,-402.24 1730.76,-394.78 1720.23,-395.91 1723.23,-402.24"/>
</g>
<!-- optional_aggregator -->
<g id="node30" class="node">
<title>optional_aggregator</title>
<ellipse fill="none" stroke="black" cx="1807" cy="-450" rx="85.13" ry="18"/>
<text text-anchor="middle" x="1807" y="-444.95" font-family="Times,serif" font-size="14.00">optional_aggregator</text>
</g>
<!-- coin&#45;&gt;optional_aggregator -->
<g id="edge51" class="edge">
<title>coin&#45;&gt;optional_aggregator</title>
<path fill="none" stroke="black" d="M1491.63,-515.74C1543.18,-505.16 1660.99,-480.97 1737.12,-465.35"/>
<polygon fill="black" stroke="black" points="1737.48,-468.64 1746.57,-463.2 1736.07,-461.78 1737.48,-468.64"/>
</g>
<!-- avl_queue&#45;&gt;option -->
<g id="edge52" class="edge">
<title>avl_queue&#45;&gt;option</title>
<path fill="none" stroke="black" d="M2425.29,-431.54C2425.39,-413.54 2424.97,-384.71 2422,-360 2408.53,-247.83 2386.97,-198.47 2288,-144 2224.72,-109.17 2010.35,-96.54 1915.63,-92.58"/>
<polygon fill="black" stroke="black" points="1915.83,-89.05 1905.69,-92.14 1915.54,-96.04 1915.83,-89.05"/>
</g>
<!-- avl_queue&#45;&gt;table -->
<g id="edge53" class="edge">
<title>avl_queue&#45;&gt;table</title>
<path fill="none" stroke="black" d="M2422.16,-431.76C2418.77,-413.45 2412.25,-383.91 2402,-360 2397.84,-350.3 2392.07,-340.31 2386.52,-331.66"/>
<polygon fill="black" stroke="black" points="2388.9,-329.92 2380.44,-323.54 2383.08,-333.8 2388.9,-329.92"/>
</g>
<!-- table_with_length -->
<g id="node31" class="node">
<title>table_with_length</title>
<ellipse fill="none" stroke="black" cx="2207" cy="-378" rx="77.45" ry="18"/>
<text text-anchor="middle" x="2207" y="-372.95" font-family="Times,serif" font-size="14.00">table_with_length</text>
</g>
<!-- avl_queue&#45;&gt;table_with_length -->
<g id="edge54" class="edge">
<title>avl_queue&#45;&gt;table_with_length</title>
<path fill="none" stroke="black" d="M2389,-437.44C2354.25,-426.28 2301.19,-409.24 2261.31,-396.44"/>
<polygon fill="black" stroke="black" points="2262.55,-392.84 2251.96,-393.11 2260.41,-399.5 2262.55,-392.84"/>
</g>
<!-- tablist&#45;&gt;option -->
<g id="edge55" class="edge">
<title>tablist&#45;&gt;option</title>
<path fill="none" stroke="black" d="M2152.16,-575.98C2141.36,-511.85 2102.26,-285.01 2078,-216 2066.07,-182.06 2068.56,-167.13 2041,-144 2005.03,-113.81 1951.96,-100.79 1914.5,-95.2"/>
<polygon fill="black" stroke="black" points="1915.27,-91.63 1904.89,-93.75 1914.33,-98.57 1915.27,-91.63"/>
</g>
<!-- tablist&#45;&gt;table_with_length -->
<g id="edge56" class="edge">
<title>tablist&#45;&gt;table_with_length</title>
<path fill="none" stroke="black" d="M2159.17,-575.85C2168.14,-538.91 2189.37,-451.55 2200.28,-406.67"/>
<polygon fill="black" stroke="black" points="2203.85,-407.78 2202.81,-397.23 2197.05,-406.12 2203.85,-407.78"/>
</g>
<!-- resource_account&#45;&gt;account -->
<g id="edge58" class="edge">
<title>resource_account&#45;&gt;account</title>
<path fill="none" stroke="black" d="M1212.58,-509.79C1201.78,-507.77 1190.55,-505.75 1180,-504 1062.47,-484.53 923.55,-466.2 851.62,-457.06"/>
<polygon fill="black" stroke="black" points="852.45,-453.51 842.09,-455.73 851.57,-460.45 852.45,-453.51"/>
</g>
<!-- resource_account&#45;&gt;bcs -->
<g id="edge57" class="edge">
<title>resource_account&#45;&gt;bcs</title>
<path fill="none" stroke="black" d="M1265.12,-503.85C1257.88,-473.64 1240.69,-409.45 1215,-360 1178,-288.77 1166.91,-268.28 1106,-216 1087.17,-199.84 1062.65,-186.31 1043.23,-176.96"/>
<polygon fill="black" stroke="black" points="1044.86,-173.39 1034.32,-172.34 1041.9,-179.74 1044.86,-173.39"/>
</g>
<!-- timestamp -->
<g id="node32" class="node">
<title>timestamp</title>
<ellipse fill="none" stroke="black" cx="1388" cy="-378" rx="50.33" ry="18"/>
<text text-anchor="middle" x="1388" y="-372.95" font-family="Times,serif" font-size="14.00">timestamp</text>
</g>
<!-- resource_account&#45;&gt;timestamp -->
<g id="edge59" class="edge">
<title>resource_account&#45;&gt;timestamp</title>
<path fill="none" stroke="black" d="M1283.35,-503.87C1304.19,-479 1342.96,-432.75 1367.01,-404.05"/>
<polygon fill="black" stroke="black" points="1370.22,-406.66 1373.96,-396.75 1364.86,-402.16 1370.22,-406.66"/>
</g>
<!-- incentives&#45;&gt;vector -->
<g id="edge60" class="edge">
<title>incentives&#45;&gt;vector</title>
<path fill="none" stroke="black" d="M1777.68,-659.66C1835.73,-652.2 1938.63,-636.73 2024,-612 2064.98,-600.13 2072.04,-587.97 2113,-576 2196.75,-551.52 2222.4,-564.99 2306,-540 2345.7,-528.13 2352.17,-515.42 2392,-504 2487.24,-476.68 2528.72,-521.67 2612,-468 2738.03,-386.77 2769.44,-279.85 2706,-144 2670.31,-67.56 2566.84,-36.96 2507.39,-25.42"/>
<polygon fill="black" stroke="black" points="2508.3,-21.85 2497.83,-23.49 2507.03,-28.73 2508.3,-21.85"/>
</g>
<!-- incentives&#45;&gt;signer -->
<g id="edge61" class="edge">
<title>incentives&#45;&gt;signer</title>
<path fill="none" stroke="black" d="M1770.83,-654.87C1835.08,-638.15 1967.57,-603.87 2080,-576 2146.55,-559.51 2163.73,-557.56 2230,-540 2285.47,-525.3 2298,-516.56 2354,-504 2452.82,-481.84 2498.18,-529.03 2579,-468 2642,-420.43 2654,-385.94 2654,-307 2654,-307 2654,-307 2654,-233 2654,-187.03 2622.65,-141.53 2600.22,-114.87"/>
<polygon fill="black" stroke="black" points="2602.22,-112.83 2593.02,-107.57 2596.93,-117.42 2602.22,-112.83"/>
</g>
<!-- incentives&#45;&gt;type_info -->
<g id="edge62" class="edge">
<title>incentives&#45;&gt;type_info</title>
<path fill="none" stroke="black" d="M1689.05,-657.48C1632.23,-647.47 1528.98,-629.02 1441,-612 1206.26,-566.58 1150.96,-535.83 914,-504 852.86,-495.79 402.18,-513.01 360,-468 305.33,-409.66 364.3,-307.6 397.1,-260.34"/>
<polygon fill="black" stroke="black" points="400.34,-262.83 403.27,-252.65 394.63,-258.78 400.34,-262.83"/>
</g>
<!-- incentives&#45;&gt;coin -->
<g id="edge63" class="edge">
<title>incentives&#45;&gt;coin</title>
<path fill="none" stroke="black" d="M1696.94,-653.19C1670.57,-643.67 1633.99,-629.09 1604,-612 1580.83,-598.8 1578.19,-590.79 1556,-576 1536.39,-562.93 1513.5,-549.48 1495.72,-539.39"/>
<polygon fill="black" stroke="black" points="1497.84,-536.01 1487.41,-534.16 1494.41,-542.11 1497.84,-536.01"/>
</g>
<!-- incentives&#45;&gt;tablist -->
<g id="edge65" class="edge">
<title>incentives&#45;&gt;tablist</title>
<path fill="none" stroke="black" d="M1777.89,-659.74C1863.9,-649.67 2046.26,-627.34 2108,-612 2111.45,-611.14 2115,-610.12 2118.54,-609.02"/>
<polygon fill="black" stroke="black" points="2119.59,-612.02 2127.95,-605.51 2117.35,-605.38 2119.59,-612.02"/>
</g>
<!-- incentives&#45;&gt;resource_account -->
<g id="edge66" class="edge">
<title>incentives&#45;&gt;resource_account</title>
<path fill="none" stroke="black" d="M1695.23,-654.02C1659.61,-643.37 1604.07,-626.69 1556,-612 1474.98,-587.24 1381.26,-558.08 1323.56,-540.07"/>
<polygon fill="black" stroke="black" points="1324.8,-536.47 1314.21,-536.83 1322.72,-543.16 1324.8,-536.47"/>
</g>
<!-- aptos_coin -->
<g id="node33" class="node">
<title>aptos_coin</title>
<ellipse fill="none" stroke="black" cx="1735" cy="-594" rx="50.84" ry="18"/>
<text text-anchor="middle" x="1735" y="-588.95" font-family="Times,serif" font-size="14.00">aptos_coin</text>
</g>
<!-- incentives&#45;&gt;aptos_coin -->
<g id="edge64" class="edge">
<title>incentives&#45;&gt;aptos_coin</title>
<path fill="none" stroke="black" d="M1732.74,-647.7C1733.06,-640.24 1733.44,-631.32 1733.8,-622.97"/>
<polygon fill="black" stroke="black" points="1737.34,-623.25 1734.27,-613.1 1730.34,-622.95 1737.34,-623.25"/>
</g>
<!-- registry&#45;&gt;option -->
<g id="edge67" class="edge">
<title>registry&#45;&gt;option</title>
<path fill="none" stroke="black" d="M1656,-719.51C1656,-692.71 1656,-639.87 1656,-595 1656,-595 1656,-595 1656,-449 1656,-303.33 1788.15,-165.53 1844.76,-113.18"/>
<polygon fill="black" stroke="black" points="1846.82,-116.13 1851.85,-106.81 1842.1,-110.96 1846.82,-116.13"/>
</g>
<!-- registry&#45;&gt;string -->
<g id="edge68" class="edge">
<title>registry&#45;&gt;string</title>
<path fill="none" stroke="black" d="M1616.69,-736.41C1517.25,-734.32 1247.97,-725 1028,-684 691.61,-621.3 577.43,-652.13 289,-468 214.43,-420.39 197.9,-376.26 204,-288 206.23,-255.77 197.85,-243.98 214,-216 222.45,-201.36 236.68,-189.32 249.94,-180.44"/>
<polygon fill="black" stroke="black" points="251.29,-183.09 257.89,-174.8 247.56,-177.17 251.29,-183.09"/>
</g>
<!-- registry&#45;&gt;signer -->
<g id="edge69" class="edge">
<title>registry&#45;&gt;signer</title>
<path fill="none" stroke="black" d="M1695.4,-736.37C1835.83,-732.18 2319.02,-700.69 2612,-468 2701.84,-396.64 2684.95,-329.47 2668,-216 2663.06,-182.91 2664.97,-171.57 2646,-144 2636.58,-130.31 2622.54,-118.52 2609.65,-109.56"/>
<polygon fill="black" stroke="black" points="2611.83,-106.15 2601.56,-103.55 2607.97,-111.99 2611.83,-106.15"/>
</g>
<!-- registry&#45;&gt;type_info -->
<g id="edge70" class="edge">
<title>registry&#45;&gt;type_info</title>
<path fill="none" stroke="black" d="M1616.57,-736.73C1501.14,-735.43 1165.89,-727.88 1067,-684 1045.44,-674.43 1046.32,-662.85 1028,-648 942.07,-578.34 929.09,-541.44 825,-504 773.84,-485.6 374.83,-507.06 337,-468 281.03,-410.21 312.46,-355.64 356,-288 363.58,-276.22 374.49,-265.5 384.94,-256.84"/>
<polygon fill="black" stroke="black" points="386.84,-259 392.52,-250.06 382.5,-253.51 386.84,-259"/>
</g>
<!-- registry&#45;&gt;table -->
<g id="edge71" class="edge">
<title>registry&#45;&gt;table</title>
<path fill="none" stroke="black" d="M1692.59,-731.15C1746.42,-722.31 1850,-704.4 1937,-684 1994.54,-670.51 2008.05,-663.77 2065,-648 2123.6,-631.77 2149.03,-649.37 2197,-612 2292.51,-537.6 2343.52,-394.36 2361.45,-334.42"/>
<polygon fill="black" stroke="black" points="2365.08,-335.49 2364.51,-324.91 2358.36,-333.54 2365.08,-335.49"/>
</g>
<!-- registry&#45;&gt;event -->
<g id="edge72" class="edge">
<title>registry&#45;&gt;event</title>
<path fill="none" stroke="black" d="M1617.17,-734.94C1495.24,-727.41 1128,-696.33 1128,-595 1128,-595 1128,-595 1128,-521 1128,-478.86 1146.88,-433.09 1160.71,-405.22"/>
<polygon fill="black" stroke="black" points="1164.27,-406.96 1165.71,-396.46 1158.04,-403.76 1164.27,-406.96"/>
</g>
<!-- registry&#45;&gt;account -->
<g id="edge73" class="edge">
<title>registry&#45;&gt;account</title>
<path fill="none" stroke="black" d="M1616.65,-736.32C1507.72,-733.93 1204.3,-723.8 1114,-684 1086.64,-671.94 938.86,-520.61 914,-504 891.62,-489.04 864.37,-475.97 842.47,-466.55"/>
<polygon fill="black" stroke="black" points="844.09,-463.01 833.51,-462.35 841.37,-469.46 844.09,-463.01"/>
</g>
<!-- registry&#45;&gt;coin -->
<g id="edge74" class="edge">
<title>registry&#45;&gt;coin</title>
<path fill="none" stroke="black" d="M1641.72,-720.92C1608.38,-683.37 1525.34,-589.84 1486.56,-546.16"/>
<polygon fill="black" stroke="black" points="1489.68,-544.27 1480.42,-539.12 1484.44,-548.92 1489.68,-544.27"/>
</g>
<!-- registry&#45;&gt;tablist -->
<g id="edge75" class="edge">
<title>registry&#45;&gt;tablist</title>
<path fill="none" stroke="black" d="M1690,-728.56C1765.66,-709.56 1953.43,-661.25 2108,-612 2111.31,-610.95 2114.73,-609.81 2118.15,-608.63"/>
<polygon fill="black" stroke="black" points="2119.01,-611.69 2127.28,-605.07 2116.68,-605.09 2119.01,-611.69"/>
</g>
<!-- registry&#45;&gt;incentives -->
<g id="edge76" class="edge">
<title>registry&#45;&gt;incentives</title>
<path fill="none" stroke="black" d="M1672.87,-721.46C1682.69,-712.41 1695.29,-700.82 1706.32,-690.65"/>
<polygon fill="black" stroke="black" points="1708.4,-693.57 1713.39,-684.22 1703.66,-688.42 1708.4,-693.57"/>
</g>
<!-- user&#45;&gt;vector -->
<g id="edge77" class="edge">
<title>user&#45;&gt;vector</title>
<path fill="none" stroke="black" d="M2209.75,-806.73C2260.69,-801.81 2374.58,-787.93 2465,-756 2711.25,-669.06 2844,-568.14 2844,-307 2844,-307 2844,-307 2844,-161 2844,-89.72 2606.44,-42.39 2506.98,-25.69"/>
<polygon fill="black" stroke="black" points="2507.84,-22.12 2497.4,-23.94 2506.69,-29.03 2507.84,-22.12"/>
</g>
<!-- user&#45;&gt;option -->
<g id="edge78" class="edge">
<title>user&#45;&gt;option</title>
<path fill="none" stroke="black" d="M2201.99,-796.63C2233.22,-774.62 2292,-725.43 2292,-667 2292,-667 2292,-667 2292,-593 2292,-489.44 2333.71,-455.22 2293,-360 2238.38,-232.24 2188.07,-212.17 2067,-144 2018.8,-116.86 1956.09,-103.11 1914.51,-96.51"/>
<polygon fill="black" stroke="black" points="1915.05,-92.9 1904.64,-94.87 1914,-99.82 1915.05,-92.9"/>
</g>
<!-- user&#45;&gt;string -->
<g id="edge79" class="edge">
<title>user&#45;&gt;string</title>
<path fill="none" stroke="black" d="M2155.67,-809.39C2013.7,-810.8 1346.86,-810.15 822,-684 607.92,-632.55 551.89,-623.09 348,-540 204.23,-481.41 38,-534.25 38,-379 38,-379 38,-379 38,-305 38,-212.65 170.18,-179.32 239.97,-168.16"/>
<polygon fill="black" stroke="black" points="240.24,-171.5 249.6,-166.55 239.19,-164.58 240.24,-171.5"/>
</g>
<!-- user&#45;&gt;signer -->
<g id="edge80" class="edge">
<title>user&#45;&gt;signer</title>
<path fill="none" stroke="black" d="M2210.11,-808.12C2256.21,-805.55 2351.5,-795.46 2420,-756 2617.58,-642.17 2768,-607.03 2768,-379 2768,-379 2768,-379 2768,-305 2768,-220.77 2728.26,-202.86 2668,-144 2652.13,-128.5 2630.87,-115.71 2613,-106.58"/>
<polygon fill="black" stroke="black" points="2615,-103.17 2604.48,-101.89 2611.9,-109.45 2615,-103.17"/>
</g>
<!-- user&#45;&gt;type_info -->
<g id="edge81" class="edge">
<title>user&#45;&gt;type_info</title>
<path fill="none" stroke="black" d="M2156.03,-806.81C2073.76,-800.07 1818.81,-778.71 1608,-756 1347.98,-727.99 1279.89,-737.96 1024,-684 861.38,-649.71 411.67,-597.9 308,-468 257.73,-405.01 278.78,-350.23 330,-288 342.18,-273.2 359.64,-261.37 375.65,-252.68"/>
<polygon fill="black" stroke="black" points="377.08,-255.37 384.37,-247.68 373.88,-249.14 377.08,-255.37"/>
</g>
<!-- user&#45;&gt;table -->
<g id="edge82" class="edge">
<title>user&#45;&gt;table</title>
<path fill="none" stroke="black" d="M2209.95,-806.93C2276.63,-800.19 2444,-772.75 2444,-667 2444,-667 2444,-667 2444,-593 2444,-527.75 2384.78,-530.78 2367,-468 2360.17,-443.88 2363.89,-374.52 2366.73,-335.16"/>
<polygon fill="black" stroke="black" points="2370.3,-335.45 2367.56,-325.22 2363.32,-334.93 2370.3,-335.45"/>
</g>
<!-- user&#45;&gt;coin -->
<g id="edge83" class="edge">
<title>user&#45;&gt;coin</title>
<path fill="none" stroke="black" d="M2161.03,-799.28C2101.67,-773.17 1932.85,-700 1789,-648 1739.03,-629.94 1724.69,-630.82 1675,-612 1638.16,-598.05 1630.2,-591.53 1594,-576 1555.54,-559.5 1545.66,-556.01 1507,-540 1504.29,-538.88 1501.48,-537.71 1498.66,-536.54"/>
<polygon fill="black" stroke="black" points="1500.13,-532.95 1489.56,-532.36 1497.45,-539.42 1500.13,-532.95"/>
</g>
<!-- user&#45;&gt;tablist -->
<g id="edge84" class="edge">
<title>user&#45;&gt;tablist</title>
<path fill="none" stroke="black" d="M2182.48,-791.96C2181.36,-762.43 2178.05,-699.96 2169,-648 2167.54,-639.62 2165.39,-630.63 2163.22,-622.48"/>
<polygon fill="black" stroke="black" points="2166.36,-621.71 2160.29,-613.02 2159.61,-623.59 2166.36,-621.71"/>
</g>
<!-- user&#45;&gt;registry -->
<g id="edge85" class="edge">
<title>user&#45;&gt;registry</title>
<path fill="none" stroke="black" d="M2156.5,-805.48C2072.66,-794.34 1812.29,-759.76 1704,-745.38"/>
<polygon fill="black" stroke="black" points="1704.77,-741.81 1694.39,-743.97 1703.85,-748.75 1704.77,-741.81"/>
</g>
<!-- features&#45;&gt;signer -->
<g id="edge86" class="edge">
<title>features&#45;&gt;signer</title>
<path fill="none" stroke="black" d="M922.94,-152.85C938.74,-149.5 957.72,-145.96 975,-144 1054.49,-134.98 2283.4,-99.43 2533.7,-92.26"/>
<polygon fill="black" stroke="black" points="2533.65,-95.74 2543.54,-91.95 2533.45,-88.74 2533.65,-95.74"/>
</g>
<!-- features&#45;&gt;error -->
<g id="edge87" class="edge">
<title>features&#45;&gt;error</title>
<path fill="none" stroke="black" d="M919.19,-150.33C926.61,-148.03 934.54,-145.76 942,-144 1045.66,-119.5 1170.35,-102.88 1232.6,-95.44"/>
<polygon fill="black" stroke="black" points="1232.95,-98.81 1242.48,-94.16 1232.13,-91.85 1232.95,-98.81"/>
</g>
<!-- system_addresses&#45;&gt;signer -->
<g id="edge88" class="edge">
<title>system_addresses&#45;&gt;signer</title>
<path fill="none" stroke="black" d="M1511.12,-293.95C1710.45,-256.03 2363.61,-131.78 2535.98,-98.99"/>
<polygon fill="black" stroke="black" points="2536.46,-102.27 2545.63,-96.97 2535.15,-95.4 2536.46,-102.27"/>
</g>
<!-- system_addresses&#45;&gt;error -->
<g id="edge89" class="edge">
<title>system_addresses&#45;&gt;error</title>
<path fill="none" stroke="black" d="M1446.69,-287.59C1434.48,-255.84 1404.98,-187.75 1362,-144 1345.92,-127.63 1323.74,-114.49 1305.42,-105.39"/>
<polygon fill="black" stroke="black" points="1307.24,-101.9 1296.71,-100.76 1304.23,-108.22 1307.24,-101.9"/>
</g>
<!-- ed25519&#45;&gt;option -->
<g id="edge90" class="edge">
<title>ed25519&#45;&gt;option</title>
<path fill="none" stroke="black" d="M749.21,-287.79C758.63,-253.45 784.95,-176.9 839,-144 881.61,-118.06 1630.24,-97.14 1824.34,-92.14"/>
<polygon fill="black" stroke="black" points="1824.36,-95.62 1834.27,-91.86 1824.18,-88.62 1824.36,-95.62"/>
</g>
<!-- ed25519&#45;&gt;type_info -->
<g id="edge93" class="edge">
<title>ed25519&#45;&gt;type_info</title>
<path fill="none" stroke="black" d="M705.68,-298.78C652.21,-290 553.72,-272.72 471,-252 467.81,-251.2 464.52,-250.32 461.23,-249.41"/>
<polygon fill="black" stroke="black" points="462.33,-245.79 451.75,-246.37 460.38,-252.51 462.33,-245.79"/>
</g>
<!-- ed25519&#45;&gt;error -->
<g id="edge91" class="edge">
<title>ed25519&#45;&gt;error</title>
<path fill="none" stroke="black" d="M741.41,-287.68C735.65,-254.49 728.66,-181.91 768,-144 801.23,-111.98 1118.48,-96.85 1231.92,-92.43"/>
<polygon fill="black" stroke="black" points="1232.01,-95.89 1241.87,-92.01 1231.74,-88.89 1232.01,-95.89"/>
</g>
<!-- ed25519&#45;&gt;bcs -->
<g id="edge92" class="edge">
<title>ed25519&#45;&gt;bcs</title>
<path fill="none" stroke="black" d="M770.51,-291.38C819.86,-265.04 928.2,-207.2 980.95,-179.04"/>
<polygon fill="black" stroke="black" points="982.25,-181.78 989.42,-173.98 978.95,-175.61 982.25,-181.78"/>
</g>
<!-- ed25519&#45;&gt;hash -->
<g id="edge94" class="edge">
<title>ed25519&#45;&gt;hash</title>
<path fill="none" stroke="black" d="M728.89,-289.12C719.24,-279.6 706.83,-267.37 696.25,-256.94"/>
<polygon fill="black" stroke="black" points="699.18,-254.92 689.6,-250.39 694.26,-259.91 699.18,-254.92"/>
</g>
<!-- multi_ed25519&#45;&gt;option -->
<g id="edge95" class="edge">
<title>multi_ed25519&#45;&gt;option</title>
<path fill="none" stroke="black" d="M818.77,-360.26C828.15,-350.04 840.12,-336.57 850,-324 880.1,-285.71 932.53,-167.84 975,-144 1012.35,-123.03 1647.44,-98.93 1824.5,-92.59"/>
<polygon fill="black" stroke="black" points="1824.62,-96.05 1834.49,-92.2 1824.37,-89.06 1824.62,-96.05"/>
</g>
<!-- multi_ed25519&#45;&gt;error -->
<g id="edge96" class="edge">
<title>multi_ed25519&#45;&gt;error</title>
<path fill="none" stroke="black" d="M803.08,-359.68C803.7,-310.88 808.21,-173.84 839,-144 867.05,-116.82 1131,-99.03 1232.5,-93.15"/>
<polygon fill="black" stroke="black" points="1232.43,-96.6 1242.21,-92.53 1232.03,-89.61 1232.43,-96.6"/>
</g>
<!-- multi_ed25519&#45;&gt;features -->
<g id="edge97" class="edge">
<title>multi_ed25519&#45;&gt;features</title>
<path fill="none" stroke="black" d="M812.31,-360.07C817.79,-349.79 824.67,-336.32 830,-324 849.85,-278.15 868.65,-223.06 879.21,-190.66"/>
<polygon fill="black" stroke="black" points="882.85,-191.79 882.59,-181.19 876.19,-189.63 882.85,-191.79"/>
</g>
<!-- multi_ed25519&#45;&gt;bcs -->
<g id="edge98" class="edge">
<title>multi_ed25519&#45;&gt;bcs</title>
<path fill="none" stroke="black" d="M849.23,-364.6C886,-353.94 933.58,-338.1 948,-324 967.57,-304.87 991.23,-231.3 1003.22,-190.56"/>
<polygon fill="black" stroke="black" points="1006.85,-191.59 1006.28,-181.01 1000.13,-189.64 1006.85,-191.59"/>
</g>
<!-- multi_ed25519&#45;&gt;hash -->
<g id="edge99" class="edge">
<title>multi_ed25519&#45;&gt;hash</title>
<path fill="none" stroke="black" d="M755.88,-364.85C733.66,-356.79 708.65,-343.92 693,-324 679.5,-306.82 675.04,-282.23 673.79,-263.25"/>
<polygon fill="black" stroke="black" points="677.25,-263.13 673.38,-253.27 670.26,-263.39 677.25,-263.13"/>
</g>
<!-- multi_ed25519&#45;&gt;ed25519 -->
<g id="edge100" class="edge">
<title>multi_ed25519&#45;&gt;ed25519</title>
<path fill="none" stroke="black" d="M788.96,-360.05C781.88,-351.5 773.15,-340.97 765.35,-331.56"/>
<polygon fill="black" stroke="black" points="767.59,-329.77 758.51,-324.31 762.2,-334.24 767.59,-329.77"/>
</g>
<!-- from_bcs&#45;&gt;string -->
<g id="edge101" class="edge">
<title>from_bcs&#45;&gt;string</title>
<path fill="none" stroke="black" d="M490.83,-221.98C484.25,-219.96 477.42,-217.89 471,-216 419.01,-200.68 358.67,-183.94 320.42,-173.45"/>
<polygon fill="black" stroke="black" points="321.81,-169.93 311.24,-170.67 319.97,-176.69 321.81,-169.93"/>
</g>
<!-- chain_id&#45;&gt;system_addresses -->
<g id="edge102" class="edge">
<title>chain_id&#45;&gt;system_addresses</title>
<path fill="none" stroke="black" d="M1114.96,-365.71C1121.53,-363.63 1128.45,-361.61 1135,-360 1216.1,-340.11 1310.68,-325.4 1375.48,-316.59"/>
<polygon fill="black" stroke="black" points="1375.57,-319.97 1385.02,-315.17 1374.64,-313.04 1375.57,-319.97"/>
</g>
<!-- aggregator_factory&#45;&gt;table -->
<g id="edge104" class="edge">
<title>aggregator_factory&#45;&gt;table</title>
<path fill="none" stroke="black" d="M1833.66,-368.02C1854.33,-365.37 1877.08,-362.51 1898,-360 2058.15,-340.75 2249.21,-319.91 2329.93,-311.19"/>
<polygon fill="black" stroke="black" points="2330.01,-314.6 2339.58,-310.05 2329.26,-307.64 2330.01,-314.6"/>
</g>
<!-- aggregator_factory&#45;&gt;error -->
<g id="edge103" class="edge">
<title>aggregator_factory&#45;&gt;error</title>
<path fill="none" stroke="black" d="M1761.96,-359.71C1753.2,-315.55 1723.56,-198.25 1648,-144 1594.77,-105.78 1397.42,-94.96 1311.92,-92.03"/>
<polygon fill="black" stroke="black" points="1312.22,-88.51 1302.11,-91.68 1311.99,-95.5 1312.22,-88.51"/>
</g>
<!-- aggregator_factory&#45;&gt;system_addresses -->
<g id="edge105" class="edge">
<title>aggregator_factory&#45;&gt;system_addresses</title>
<path fill="none" stroke="black" d="M1709.58,-364.57C1655.87,-352.52 1574.43,-334.24 1517.75,-321.53"/>
<polygon fill="black" stroke="black" points="1518.64,-317.92 1508.12,-319.14 1517.11,-324.75 1518.64,-317.92"/>
</g>
<!-- aggregator_factory&#45;&gt;aggregator -->
<g id="edge106" class="edge">
<title>aggregator_factory&#45;&gt;aggregator</title>
<path fill="none" stroke="black" d="M1804.26,-361.98C1833.79,-350.69 1874.24,-335.21 1904.71,-323.56"/>
<polygon fill="black" stroke="black" points="1905.54,-326.6 1913.63,-319.76 1903.04,-320.07 1905.54,-326.6"/>
</g>
<!-- optional_aggregator&#45;&gt;option -->
<g id="edge107" class="edge">
<title>optional_aggregator&#45;&gt;option</title>
<path fill="none" stroke="black" d="M1827.92,-432.14C1838.03,-422.69 1849.21,-409.99 1855,-396 1894.38,-300.88 1882.65,-174.57 1874.69,-119.12"/>
<polygon fill="black" stroke="black" points="1878.02,-118.77 1873.06,-109.4 1871.1,-119.81 1878.02,-118.77"/>
</g>
<!-- optional_aggregator&#45;&gt;error -->
<g id="edge108" class="edge">
<title>optional_aggregator&#45;&gt;error</title>
<path fill="none" stroke="black" d="M1758.13,-434.96C1732.11,-426.15 1700.35,-413.18 1675,-396 1620.09,-358.8 1621.08,-332.62 1572,-288 1495.43,-218.38 1477.45,-197.74 1389,-144 1362.44,-127.86 1330.12,-113.59 1306.19,-103.93"/>
<polygon fill="black" stroke="black" points="1307.74,-100.38 1297.16,-99.95 1305.16,-106.89 1307.74,-100.38"/>
</g>
<!-- optional_aggregator&#45;&gt;aggregator -->
<g id="edge109" class="edge">
<title>optional_aggregator&#45;&gt;aggregator</title>
<path fill="none" stroke="black" d="M1837.56,-432.93C1853.7,-423.53 1873.16,-410.63 1888,-396 1906.67,-377.59 1922.94,-352.53 1933.81,-333.69"/>
<polygon fill="black" stroke="black" points="1937.29,-335.64 1939.13,-325.21 1931.19,-332.22 1937.29,-335.64"/>
</g>
<!-- optional_aggregator&#45;&gt;aggregator_factory -->
<g id="edge110" class="edge">
<title>optional_aggregator&#45;&gt;aggregator_factory</title>
<path fill="none" stroke="black" d="M1796.62,-431.7C1791.84,-423.73 1786.06,-414.1 1780.76,-405.26"/>
<polygon fill="black" stroke="black" points="1783.41,-403.88 1775.26,-397.1 1777.41,-407.48 1783.41,-403.88"/>
</g>
<!-- table_with_length&#45;&gt;table -->
<g id="edge112" class="edge">
<title>table_with_length&#45;&gt;table</title>
<path fill="none" stroke="black" d="M2242.55,-361.64C2270.47,-349.58 2309.03,-332.91 2336.21,-321.17"/>
<polygon fill="black" stroke="black" points="2337.23,-324.11 2345.02,-316.93 2334.45,-317.68 2337.23,-324.11"/>
</g>
<!-- table_with_length&#45;&gt;error -->
<g id="edge111" class="edge">
<title>table_with_length&#45;&gt;error</title>
<path fill="none" stroke="black" d="M2172.33,-361.52C2132.46,-343.74 2065.04,-313.69 2007,-288 1861.79,-223.72 1832.96,-186.66 1680,-144 1548.3,-107.27 1385.43,-95.83 1311.65,-92.4"/>
<polygon fill="black" stroke="black" points="1312.15,-88.88 1302,-91.94 1311.84,-95.87 1312.15,-88.88"/>
</g>
<!-- timestamp&#45;&gt;error -->
<g id="edge113" class="edge">
<title>timestamp&#45;&gt;error</title>
<path fill="none" stroke="black" d="M1380.56,-360.04C1376.23,-349.74 1370.87,-336.27 1367,-324 1342.23,-245.57 1363.81,-215.98 1324,-144 1317.34,-131.96 1307.2,-120.75 1297.63,-111.76"/>
<polygon fill="black" stroke="black" points="1300.26,-109.53 1290.47,-105.48 1295.6,-114.75 1300.26,-109.53"/>
</g>
<!-- timestamp&#45;&gt;system_addresses -->
<g id="edge114" class="edge">
<title>timestamp&#45;&gt;system_addresses</title>
<path fill="none" stroke="black" d="M1403.4,-360.41C1411.3,-351.91 1421.08,-341.37 1429.87,-331.91"/>
<polygon fill="black" stroke="black" points="1432.02,-334.67 1436.25,-324.96 1426.89,-329.9 1432.02,-334.67"/>
</g>
<!-- aptos_coin&#45;&gt;vector -->
<g id="edge115" class="edge">
<title>aptos_coin&#45;&gt;vector</title>
<path fill="none" stroke="black" d="M1784.43,-589.15C1846.55,-583.27 1955.83,-569.48 2045,-540 2078.59,-528.89 2082.03,-513.9 2116,-504 2194.68,-481.08 2427.96,-528.71 2483,-468 2593.12,-346.55 2509.67,-121.99 2476.22,-45.4"/>
<polygon fill="black" stroke="black" points="2479.13,-44.31 2471.86,-36.6 2472.73,-47.16 2479.13,-44.31"/>
</g>
<!-- aptos_coin&#45;&gt;option -->
<g id="edge116" class="edge">
<title>aptos_coin&#45;&gt;option</title>
<path fill="none" stroke="black" d="M1786.05,-593.22C1878.46,-590.65 2064,-570.6 2064,-451 2064,-451 2064,-451 2064,-233 2064,-157.91 1968.19,-118.23 1911.23,-101.28"/>
<polygon fill="black" stroke="black" points="1912.32,-97.66 1901.74,-98.28 1910.39,-104.39 1912.32,-97.66"/>
</g>
<!-- aptos_coin&#45;&gt;string -->
<g id="edge117" class="edge">
<title>aptos_coin&#45;&gt;string</title>
<path fill="none" stroke="black" d="M1684.06,-592.91C1464.89,-591.85 602.29,-580.46 360,-468 277.33,-429.63 249.17,-408.08 214,-324 193.45,-274.87 233.04,-217.44 259.96,-186.17"/>
<polygon fill="black" stroke="black" points="262.13,-188.88 266.16,-179.08 256.9,-184.23 262.13,-188.88"/>
</g>
<!-- aptos_coin&#45;&gt;signer -->
<g id="edge118" class="edge">
<title>aptos_coin&#45;&gt;signer</title>
<path fill="none" stroke="black" d="M1782.31,-587.04C1854.43,-577.8 1996.14,-559.12 2116,-540 2205.19,-525.78 2226.9,-518.76 2316,-504 2368.77,-495.26 2514.1,-503.62 2554,-468 2584.56,-440.72 2578,-419.97 2578,-379 2578,-379 2578,-379 2578,-233 2578,-193.57 2578,-147.97 2578,-119.31"/>
<polygon fill="black" stroke="black" points="2581.5,-119.49 2578,-109.49 2574.5,-119.49 2581.5,-119.49"/>
</g>
<!-- aptos_coin&#45;&gt;coin -->
<g id="edge121" class="edge">
<title>aptos_coin&#45;&gt;coin</title>
<path fill="none" stroke="black" d="M1690.71,-584.95C1644.34,-576.01 1569.68,-560.13 1507,-540 1504.04,-539.05 1501,-537.98 1497.97,-536.85"/>
<polygon fill="black" stroke="black" points="1499.47,-533.28 1488.88,-532.85 1496.89,-539.79 1499.47,-533.28"/>
</g>
<!-- aptos_coin&#45;&gt;error -->
<g id="edge119" class="edge">
<title>aptos_coin&#45;&gt;error</title>
<path fill="none" stroke="black" d="M1699.96,-580.54C1610.77,-548.16 1378.71,-459.44 1329,-396 1304.05,-364.16 1310,-347.45 1310,-307 1310,-307 1310,-307 1310,-233 1310,-191.59 1294.73,-145.62 1283.55,-117.51"/>
<polygon fill="black" stroke="black" points="1286.54,-116.58 1279.51,-108.66 1280.07,-119.24 1286.54,-116.58"/>
</g>
<!-- aptos_coin&#45;&gt;system_addresses -->
<g id="edge120" class="edge">
<title>aptos_coin&#45;&gt;system_addresses</title>
<path fill="none" stroke="black" d="M1719.03,-576.8C1671.94,-529.05 1533.45,-388.59 1477.18,-331.52"/>
<polygon fill="black" stroke="black" points="1480.01,-329.39 1470.5,-324.73 1475.03,-334.31 1480.01,-329.39"/>
</g>
</g>
</svg>
