<?xml version="1.0" encoding="UTF-8" standalone="no"?>
<!DOCTYPE svg PUBLIC "-//W3C//DTD SVG 1.1//EN"
 "http://www.w3.org/Graphics/SVG/1.1/DTD/svg11.dtd">
<!-- Generated by graphviz version 8.0.2 (20230410.1723)
 -->
<!-- Title: G Pages: 1 -->
<svg width="2742pt" height="908pt"
 viewBox="0.00 0.00 2742.00 908.00" xmlns="http://www.w3.org/2000/svg" xmlns:xlink="http://www.w3.org/1999/xlink">
<g id="graph0" class="graph" transform="scale(1 1) rotate(0) translate(4 904)">
<title>G</title>
<polygon fill="white" stroke="none" points="-4,4 -4,-904 2738,-904 2738,4 -4,4"/>
<!-- market -->
<g id="node1" class="node">
<title>market</title>
<ellipse fill="none" stroke="black" cx="1061" cy="-882" rx="36" ry="18"/>
<text text-anchor="middle" x="1061" y="-878.3" font-family="Times,serif" font-size="14.00">market</text>
</g>
<!-- option -->
<g id="node2" class="node">
<title>option</title>
<ellipse fill="none" stroke="black" cx="2142" cy="-90" rx="33.29" ry="18"/>
<text text-anchor="middle" x="2142" y="-86.3" font-family="Times,serif" font-size="14.00">option</text>
</g>
<!-- market&#45;&gt;option -->
<g id="edge1" class="edge">
<title>market&#45;&gt;option</title>
<path fill="none" stroke="black" d="M1097.29,-881.02C1289.66,-880.9 2191.88,-877.65 2466,-828 2589.5,-805.63 2734,-864.51 2734,-739 2734,-739 2734,-739 2734,-305 2734,-189.15 2635.66,-189.21 2529,-144 2467.91,-118.11 2274.11,-100.83 2186.17,-94.13"/>
<polygon fill="black" stroke="black" points="2186.47,-90.57 2176.23,-93.31 2185.94,-97.55 2186.47,-90.57"/>
</g>
<!-- string -->
<g id="node3" class="node">
<title>string</title>
<ellipse fill="none" stroke="black" cx="2489" cy="-162" rx="30.59" ry="18"/>
<text text-anchor="middle" x="2489" y="-158.3" font-family="Times,serif" font-size="14.00">string</text>
</g>
<!-- market&#45;&gt;string -->
<g id="edge2" class="edge">
<title>market&#45;&gt;string</title>
<path fill="none" stroke="black" d="M1097.12,-880.25C1271.15,-876.5 2024.29,-858.74 2257,-828 2437.99,-804.09 2658,-921.56 2658,-739 2658,-739 2658,-739 2658,-377 2658,-288.24 2567.34,-214.7 2518.82,-181.7"/>
<polygon fill="black" stroke="black" points="2520.99,-178.27 2510.72,-175.65 2517.11,-184.1 2520.99,-178.27"/>
</g>
<!-- signer -->
<g id="node4" class="node">
<title>signer</title>
<ellipse fill="none" stroke="black" cx="338" cy="-90" rx="32.49" ry="18"/>
<text text-anchor="middle" x="338" y="-86.3" font-family="Times,serif" font-size="14.00">signer</text>
</g>
<!-- market&#45;&gt;signer -->
<g id="edge3" class="edge">
<title>market&#45;&gt;signer</title>
<path fill="none" stroke="black" d="M1025.06,-880.8C880.23,-879.7 339.33,-872.62 175,-828 90.79,-805.14 0,-826.26 0,-739 0,-739 0,-739 0,-233 0,-189.45 6.02,-169.94 41,-144 135.06,-74.25 189.76,-141.39 302,-108 303.09,-107.67 304.19,-107.32 305.3,-106.94"/>
<polygon fill="black" stroke="black" points="306.16,-109.97 314.17,-103.04 303.58,-103.46 306.16,-109.97"/>
</g>
<!-- type_info -->
<g id="node5" class="node">
<title>type_info</title>
<ellipse fill="none" stroke="black" cx="1290" cy="-234" rx="44.39" ry="18"/>
<text text-anchor="middle" x="1290" y="-230.3" font-family="Times,serif" font-size="14.00">type_info</text>
</g>
<!-- market&#45;&gt;type_info -->
<g id="edge4" class="edge">
<title>market&#45;&gt;type_info</title>
<path fill="none" stroke="black" d="M1039.02,-867.43C1005.89,-845.08 947,-797.17 947,-739 947,-739 947,-739 947,-665 947,-524.69 1051.05,-520.41 1160,-432 1184.44,-412.16 1200.21,-419.64 1221,-396 1255.61,-356.64 1274.89,-297.31 1283.8,-262.73"/>
<polygon fill="black" stroke="black" points="1287.34,-263.98 1286.33,-253.43 1280.54,-262.31 1287.34,-263.98"/>
</g>
<!-- event -->
<g id="node6" class="node">
<title>event</title>
<ellipse fill="none" stroke="black" cx="210" cy="-378" rx="29.8" ry="18"/>
<text text-anchor="middle" x="210" y="-374.3" font-family="Times,serif" font-size="14.00">event</text>
</g>
<!-- market&#45;&gt;event -->
<g id="edge5" class="edge">
<title>market&#45;&gt;event</title>
<path fill="none" stroke="black" d="M1025.07,-879.69C847.92,-872.75 76,-836.89 76,-739 76,-739 76,-739 76,-521 76,-461.94 138.07,-417.5 177.72,-395.13"/>
<polygon fill="black" stroke="black" points="179.17,-397.78 186.27,-389.92 175.81,-391.64 179.17,-397.78"/>
</g>
<!-- account -->
<g id="node7" class="node">
<title>account</title>
<ellipse fill="none" stroke="black" cx="775" cy="-450" rx="38.19" ry="18"/>
<text text-anchor="middle" x="775" y="-446.3" font-family="Times,serif" font-size="14.00">account</text>
</g>
<!-- market&#45;&gt;account -->
<g id="edge6" class="edge">
<title>market&#45;&gt;account</title>
<path fill="none" stroke="black" d="M1026.73,-876.07C931.56,-861.41 671,-814.39 671,-739 671,-739 671,-739 671,-593 671,-541.89 715.4,-496.94 746.18,-471.93"/>
<polygon fill="black" stroke="black" points="747.76,-474.35 753.45,-465.41 743.43,-468.85 747.76,-474.35"/>
</g>
<!-- coin -->
<g id="node8" class="node">
<title>coin</title>
<ellipse fill="none" stroke="black" cx="1485" cy="-522" rx="27" ry="18"/>
<text text-anchor="middle" x="1485" y="-518.3" font-family="Times,serif" font-size="14.00">coin</text>
</g>
<!-- market&#45;&gt;coin -->
<g id="edge7" class="edge">
<title>market&#45;&gt;coin</title>
<path fill="none" stroke="black" d="M1053.49,-864.34C1042.42,-838.2 1023,-785.7 1023,-739 1023,-739 1023,-739 1023,-665 1023,-576.46 1336.95,-537.4 1447.24,-526.41"/>
<polygon fill="black" stroke="black" points="1447.55,-529.8 1457.16,-525.35 1446.87,-522.83 1447.55,-529.8"/>
</g>
<!-- avl_queue -->
<g id="node9" class="node">
<title>avl_queue</title>
<ellipse fill="none" stroke="black" cx="2355" cy="-450" rx="46.59" ry="18"/>
<text text-anchor="middle" x="2355" y="-446.3" font-family="Times,serif" font-size="14.00">avl_queue</text>
</g>
<!-- market&#45;&gt;avl_queue -->
<g id="edge8" class="edge">
<title>market&#45;&gt;avl_queue</title>
<path fill="none" stroke="black" d="M1097.15,-880.49C1288.88,-877.66 2179.75,-862.67 2226,-828 2339.78,-742.71 2354.01,-551.32 2355.2,-479.21"/>
<polygon fill="black" stroke="black" points="2358.71,-479.34 2355.29,-469.31 2351.71,-479.28 2358.71,-479.34"/>
</g>
<!-- tablist -->
<g id="node10" class="node">
<title>tablist</title>
<ellipse fill="none" stroke="black" cx="2182" cy="-594" rx="32.49" ry="18"/>
<text text-anchor="middle" x="2182" y="-590.3" font-family="Times,serif" font-size="14.00">tablist</text>
</g>
<!-- market&#45;&gt;tablist -->
<g id="edge9" class="edge">
<title>market&#45;&gt;tablist</title>
<path fill="none" stroke="black" d="M1097.25,-880.71C1287.45,-878.99 2162.95,-868.9 2202,-828 2255.67,-771.78 2217.88,-669.33 2195.41,-621.25"/>
<polygon fill="black" stroke="black" points="2198.25,-620.07 2190.75,-612.58 2191.94,-623.11 2198.25,-620.07"/>
</g>
<!-- resource_account -->
<g id="node11" class="node">
<title>resource_account</title>
<ellipse fill="none" stroke="black" cx="885" cy="-522" rx="72.29" ry="18"/>
<text text-anchor="middle" x="885" y="-518.3" font-family="Times,serif" font-size="14.00">resource_account</text>
</g>
<!-- market&#45;&gt;resource_account -->
<g id="edge10" class="edge">
<title>market&#45;&gt;resource_account</title>
<path fill="none" stroke="black" d="M1027.54,-874.72C999.04,-867.77 958.74,-853.96 933,-828 902.95,-797.71 897,-781.67 897,-739 897,-739 897,-739 897,-665 897,-625.42 892.31,-579.86 888.8,-551.25"/>
<polygon fill="black" stroke="black" points="892.16,-550.93 887.43,-541.45 885.22,-551.81 892.16,-550.93"/>
</g>
<!-- incentives -->
<g id="node12" class="node">
<title>incentives</title>
<ellipse fill="none" stroke="black" cx="1409" cy="-666" rx="46.29" ry="18"/>
<text text-anchor="middle" x="1409" y="-662.3" font-family="Times,serif" font-size="14.00">incentives</text>
</g>
<!-- market&#45;&gt;incentives -->
<g id="edge11" class="edge">
<title>market&#45;&gt;incentives</title>
<path fill="none" stroke="black" d="M1083.03,-867.45C1142.25,-831.03 1305.13,-730.87 1375.69,-687.49"/>
<polygon fill="black" stroke="black" points="1377.33,-689.97 1384.01,-681.75 1373.66,-684.01 1377.33,-689.97"/>
</g>
<!-- registry -->
<g id="node13" class="node">
<title>registry</title>
<ellipse fill="none" stroke="black" cx="1570" cy="-738" rx="37.89" ry="18"/>
<text text-anchor="middle" x="1570" y="-734.3" font-family="Times,serif" font-size="14.00">registry</text>
</g>
<!-- market&#45;&gt;registry -->
<g id="edge12" class="edge">
<title>market&#45;&gt;registry</title>
<path fill="none" stroke="black" d="M1092.07,-872.33C1179.54,-847.93 1427.94,-778.63 1527.73,-750.79"/>
<polygon fill="black" stroke="black" points="1528.34,-753.98 1537.03,-747.92 1526.46,-747.23 1528.34,-753.98"/>
</g>
<!-- user -->
<g id="node14" class="node">
<title>user</title>
<ellipse fill="none" stroke="black" cx="2166" cy="-810" rx="27" ry="18"/>
<text text-anchor="middle" x="2166" y="-806.3" font-family="Times,serif" font-size="14.00">user</text>
</g>
<!-- market&#45;&gt;user -->
<g id="edge13" class="edge">
<title>market&#45;&gt;user</title>
<path fill="none" stroke="black" d="M1096.82,-878.73C1262.97,-868.21 1957.55,-824.2 2128.07,-813.4"/>
<polygon fill="black" stroke="black" points="2128.23,-816.84 2137.99,-812.71 2127.78,-809.85 2128.23,-816.84"/>
</g>
<!-- vector -->
<g id="node15" class="node">
<title>vector</title>
<ellipse fill="none" stroke="black" cx="2315" cy="-18" rx="32.49" ry="18"/>
<text text-anchor="middle" x="2315" y="-14.3" font-family="Times,serif" font-size="14.00">vector</text>
</g>
<!-- option&#45;&gt;vector -->
<g id="edge14" class="edge">
<title>option&#45;&gt;vector</title>
<path fill="none" stroke="black" d="M2168.27,-78.37C2197.87,-66.39 2246.14,-46.86 2279.18,-33.49"/>
<polygon fill="black" stroke="black" points="2280.37,-36.38 2288.33,-29.39 2277.74,-29.89 2280.37,-36.38"/>
</g>
<!-- string&#45;&gt;option -->
<g id="edge16" class="edge">
<title>string&#45;&gt;option</title>
<path fill="none" stroke="black" d="M2464.52,-150.8C2457.94,-148.32 2450.77,-145.85 2444,-144 2353.57,-119.22 2244.6,-103.45 2185.42,-96.02"/>
<polygon fill="black" stroke="black" points="2185.97,-92.44 2175.62,-94.69 2185.12,-99.39 2185.97,-92.44"/>
</g>
<!-- string&#45;&gt;vector -->
<g id="edge15" class="edge">
<title>string&#45;&gt;vector</title>
<path fill="none" stroke="black" d="M2471.68,-146.87C2440.96,-121.8 2376.8,-69.43 2340.84,-40.09"/>
<polygon fill="black" stroke="black" points="2343.73,-37.11 2333.77,-33.5 2339.3,-42.53 2343.73,-37.11"/>
</g>
<!-- type_info&#45;&gt;string -->
<g id="edge17" class="edge">
<title>type_info&#45;&gt;string</title>
<path fill="none" stroke="black" d="M1333.74,-230.45C1522.16,-219.45 2263.36,-176.17 2447.45,-165.43"/>
<polygon fill="black" stroke="black" points="2447.49,-168.87 2457.27,-164.79 2447.08,-161.88 2447.49,-168.87"/>
</g>
<!-- error -->
<g id="node16" class="node">
<title>error</title>
<ellipse fill="none" stroke="black" cx="1199" cy="-90" rx="27.9" ry="18"/>
<text text-anchor="middle" x="1199" y="-86.3" font-family="Times,serif" font-size="14.00">error</text>
</g>
<!-- type_info&#45;&gt;error -->
<g id="edge18" class="edge">
<title>type_info&#45;&gt;error</title>
<path fill="none" stroke="black" d="M1279.2,-216.15C1263.3,-191.34 1233.47,-144.78 1215.01,-115.98"/>
<polygon fill="black" stroke="black" points="1217.57,-114.48 1209.22,-107.95 1211.67,-118.26 1217.57,-114.48"/>
</g>
<!-- features -->
<g id="node17" class="node">
<title>features</title>
<ellipse fill="none" stroke="black" cx="956" cy="-162" rx="38.19" ry="18"/>
<text text-anchor="middle" x="956" y="-158.3" font-family="Times,serif" font-size="14.00">features</text>
</g>
<!-- type_info&#45;&gt;features -->
<g id="edge19" class="edge">
<title>type_info&#45;&gt;features</title>
<path fill="none" stroke="black" d="M1251.03,-224.83C1188.6,-211.75 1066.51,-186.16 1000.65,-172.36"/>
<polygon fill="black" stroke="black" points="1001.7,-168.79 991.2,-170.17 1000.27,-175.64 1001.7,-168.79"/>
</g>
<!-- bcs -->
<g id="node18" class="node">
<title>bcs</title>
<ellipse fill="none" stroke="black" cx="873" cy="-162" rx="27" ry="18"/>
<text text-anchor="middle" x="873" y="-158.3" font-family="Times,serif" font-size="14.00">bcs</text>
</g>
<!-- type_info&#45;&gt;bcs -->
<g id="edge20" class="edge">
<title>type_info&#45;&gt;bcs</title>
<path fill="none" stroke="black" d="M1245.66,-231.18C1173.65,-227.26 1027.4,-215.29 909,-180 907.22,-179.47 905.43,-178.87 903.63,-178.21"/>
<polygon fill="black" stroke="black" points="905.09,-174.61 894.52,-173.99 902.4,-181.07 905.09,-174.61"/>
</g>
<!-- event&#45;&gt;bcs -->
<g id="edge21" class="edge">
<title>event&#45;&gt;bcs</title>
<path fill="none" stroke="black" d="M203.79,-359.98C197.79,-340.18 191.86,-307.7 209,-288 246.84,-244.49 409.23,-262.17 466,-252 604.2,-227.25 766.83,-188.86 837.38,-171.75"/>
<polygon fill="black" stroke="black" points="838,-174.96 846.89,-169.19 836.35,-168.15 838,-174.96"/>
</g>
<!-- guid -->
<g id="node19" class="node">
<title>guid</title>
<ellipse fill="none" stroke="black" cx="245" cy="-306" rx="27" ry="18"/>
<text text-anchor="middle" x="245" y="-302.3" font-family="Times,serif" font-size="14.00">guid</text>
</g>
<!-- event&#45;&gt;guid -->
<g id="edge22" class="edge">
<title>event&#45;&gt;guid</title>
<path fill="none" stroke="black" d="M218.29,-360.41C222.35,-352.3 227.32,-342.35 231.88,-333.25"/>
<polygon fill="black" stroke="black" points="235.42,-334.98 236.77,-324.47 229.16,-331.85 235.42,-334.98"/>
</g>
<!-- account&#45;&gt;option -->
<g id="edge24" class="edge">
<title>account&#45;&gt;option</title>
<path fill="none" stroke="black" d="M813.18,-447.75C891.02,-444.49 1073.16,-433.19 1221,-396 1295.22,-377.33 1788.47,-165.21 1862,-144 1944.27,-120.27 2043.28,-104.4 2098.79,-96.61"/>
<polygon fill="black" stroke="black" points="2099.2,-99.95 2108.63,-95.12 2098.24,-93.02 2099.2,-99.95"/>
</g>
<!-- account&#45;&gt;signer -->
<g id="edge25" class="edge">
<title>account&#45;&gt;signer</title>
<path fill="none" stroke="black" d="M745.02,-438.35C737.28,-435.93 728.9,-433.61 721,-432 640.27,-415.54 408.74,-455.74 352,-396 314.82,-356.85 327.95,-186.87 334.86,-119.07"/>
<polygon fill="black" stroke="black" points="338.42,-119.69 335.99,-109.38 331.46,-118.95 338.42,-119.69"/>
</g>
<!-- account&#45;&gt;type_info -->
<g id="edge28" class="edge">
<title>account&#45;&gt;type_info</title>
<path fill="none" stroke="black" d="M812.88,-446.33C910.24,-439.17 1163.66,-418.55 1194,-396 1236.16,-364.66 1213.34,-332.02 1242,-288 1248.67,-277.75 1257.32,-267.54 1265.43,-258.86"/>
<polygon fill="black" stroke="black" points="1267.54,-261.68 1271.96,-252.05 1262.5,-256.82 1267.54,-261.68"/>
</g>
<!-- account&#45;&gt;event -->
<g id="edge36" class="edge">
<title>account&#45;&gt;event</title>
<path fill="none" stroke="black" d="M745.63,-438.04C738.33,-435.7 730.45,-433.48 723,-432 517.96,-391.23 457.9,-442.16 254,-396 250.57,-395.22 247.04,-394.23 243.56,-393.11"/>
<polygon fill="black" stroke="black" points="244.95,-389.53 234.35,-389.48 242.6,-396.13 244.95,-389.53"/>
</g>
<!-- account&#45;&gt;vector -->
<g id="edge23" class="edge">
<title>account&#45;&gt;vector</title>
<path fill="none" stroke="black" d="M745.02,-438.32C737.28,-435.91 728.9,-433.59 721,-432 635.89,-414.87 394.26,-456.5 332,-396 280.06,-345.53 246.47,-123.88 297,-72 332.67,-35.38 1980.47,-21.48 2271.36,-19.31"/>
<polygon fill="black" stroke="black" points="2271.31,-22.8 2281.29,-19.23 2271.26,-15.8 2271.31,-22.8"/>
</g>
<!-- account&#45;&gt;error -->
<g id="edge26" class="edge">
<title>account&#45;&gt;error</title>
<path fill="none" stroke="black" d="M813.35,-448.01C896.31,-445.14 1089.07,-434.42 1140,-396 1174.62,-369.88 1180,-350.37 1180,-307 1180,-307 1180,-307 1180,-233 1180,-193 1187.5,-147.21 1193.08,-118.69"/>
<polygon fill="black" stroke="black" points="1196.7,-119.45 1195.25,-108.95 1189.83,-118.06 1196.7,-119.45"/>
</g>
<!-- account&#45;&gt;bcs -->
<g id="edge27" class="edge">
<title>account&#45;&gt;bcs</title>
<path fill="none" stroke="black" d="M743.9,-439.13C736.41,-436.77 728.42,-434.28 721,-432 667.78,-415.64 634.24,-440.67 601,-396 591.45,-383.16 598.64,-375.82 601,-360 605.94,-326.91 601.4,-313.55 623,-288 680.16,-220.4 782.81,-185.67 837.09,-171.29"/>
<polygon fill="black" stroke="black" points="837.77,-174.47 846.59,-168.6 836.03,-167.69 837.77,-174.47"/>
</g>
<!-- account&#45;&gt;guid -->
<g id="edge34" class="edge">
<title>account&#45;&gt;guid</title>
<path fill="none" stroke="black" d="M744.94,-438.48C737.8,-436.18 730.17,-433.87 723,-432 642.79,-411.08 614.8,-431.73 540,-396 517.51,-385.26 519.42,-370.89 497,-360 426.34,-325.68 333.96,-313.5 282.96,-309.24"/>
<polygon fill="black" stroke="black" points="283.37,-305.69 273.13,-308.4 282.83,-312.66 283.37,-305.69"/>
</g>
<!-- table -->
<g id="node20" class="node">
<title>table</title>
<ellipse fill="none" stroke="black" cx="2247" cy="-306" rx="27.9" ry="18"/>
<text text-anchor="middle" x="2247" y="-302.3" font-family="Times,serif" font-size="14.00">table</text>
</g>
<!-- account&#45;&gt;table -->
<g id="edge29" class="edge">
<title>account&#45;&gt;table</title>
<path fill="none" stroke="black" d="M813.28,-448.62C944.45,-446.94 1387.76,-438.29 1751,-396 1924.22,-375.83 2128.41,-333.11 2210.32,-315.19"/>
<polygon fill="black" stroke="black" points="2210.81,-318.44 2219.82,-312.88 2209.3,-311.61 2210.81,-318.44"/>
</g>
<!-- system_addresses -->
<g id="node21" class="node">
<title>system_addresses</title>
<ellipse fill="none" stroke="black" cx="705" cy="-306" rx="73.39" ry="18"/>
<text text-anchor="middle" x="705" y="-302.3" font-family="Times,serif" font-size="14.00">system_addresses</text>
</g>
<!-- account&#45;&gt;system_addresses -->
<g id="edge30" class="edge">
<title>account&#45;&gt;system_addresses</title>
<path fill="none" stroke="black" d="M744.21,-438.91C737.24,-436.63 729.87,-434.23 723,-432 673.26,-415.88 641.8,-438.25 611,-396 601.57,-383.07 602.93,-373.82 611,-360 620,-344.59 635.31,-333.32 651,-325.23"/>
<polygon fill="black" stroke="black" points="652.22,-328.04 659.75,-320.59 649.22,-321.72 652.22,-328.04"/>
</g>
<!-- hash -->
<g id="node22" class="node">
<title>hash</title>
<ellipse fill="none" stroke="black" cx="873" cy="-234" rx="27" ry="18"/>
<text text-anchor="middle" x="873" y="-230.3" font-family="Times,serif" font-size="14.00">hash</text>
</g>
<!-- account&#45;&gt;hash -->
<g id="edge31" class="edge">
<title>account&#45;&gt;hash</title>
<path fill="none" stroke="black" d="M745.01,-438.36C737.27,-435.95 728.89,-433.62 721,-432 642.68,-415.91 416.64,-455.3 363,-396 352.27,-384.13 353.31,-372.73 363,-360 420.97,-283.79 727.2,-248.49 835.23,-238.27"/>
<polygon fill="black" stroke="black" points="835.3,-241.68 844.94,-237.28 834.66,-234.71 835.3,-241.68"/>
</g>
<!-- ed25519 -->
<g id="node23" class="node">
<title>ed25519</title>
<ellipse fill="none" stroke="black" cx="1073" cy="-306" rx="40.89" ry="18"/>
<text text-anchor="middle" x="1073" y="-302.3" font-family="Times,serif" font-size="14.00">ed25519</text>
</g>
<!-- account&#45;&gt;ed25519 -->
<g id="edge32" class="edge">
<title>account&#45;&gt;ed25519</title>
<path fill="none" stroke="black" d="M813.49,-449.14C895.54,-448.55 1083.42,-442.06 1123,-396 1140.36,-375.8 1120.1,-348.64 1100.41,-329.66"/>
<polygon fill="black" stroke="black" points="1103.14,-327.5 1093.41,-323.32 1098.41,-332.66 1103.14,-327.5"/>
</g>
<!-- multi_ed25519 -->
<g id="node24" class="node">
<title>multi_ed25519</title>
<ellipse fill="none" stroke="black" cx="1050" cy="-378" rx="64.19" ry="18"/>
<text text-anchor="middle" x="1050" y="-374.3" font-family="Times,serif" font-size="14.00">multi_ed25519</text>
</g>
<!-- account&#45;&gt;multi_ed25519 -->
<g id="edge33" class="edge">
<title>account&#45;&gt;multi_ed25519</title>
<path fill="none" stroke="black" d="M808.17,-440.56C854.07,-428.87 937.59,-407.61 993.44,-393.4"/>
<polygon fill="black" stroke="black" points="994.05,-396.6 1002.88,-390.74 992.33,-389.81 994.05,-396.6"/>
</g>
<!-- from_bcs -->
<g id="node25" class="node">
<title>from_bcs</title>
<ellipse fill="none" stroke="black" cx="1994" cy="-234" rx="44.39" ry="18"/>
<text text-anchor="middle" x="1994" y="-230.3" font-family="Times,serif" font-size="14.00">from_bcs</text>
</g>
<!-- account&#45;&gt;from_bcs -->
<g id="edge35" class="edge">
<title>account&#45;&gt;from_bcs</title>
<path fill="none" stroke="black" d="M813.25,-448.43C913.8,-446.38 1193.5,-437.12 1422,-396 1526.61,-377.17 1833.43,-284.34 1949.14,-248.84"/>
<polygon fill="black" stroke="black" points="1949.88,-251.97 1958.41,-245.68 1947.82,-245.27 1949.88,-251.97"/>
</g>
<!-- create_signer -->
<g id="node26" class="node">
<title>create_signer</title>
<ellipse fill="none" stroke="black" cx="430" cy="-378" rx="57.69" ry="18"/>
<text text-anchor="middle" x="430" y="-374.3" font-family="Times,serif" font-size="14.00">create_signer</text>
</g>
<!-- account&#45;&gt;create_signer -->
<g id="edge37" class="edge">
<title>account&#45;&gt;create_signer</title>
<path fill="none" stroke="black" d="M745.26,-438.4C738.03,-436.07 730.29,-433.77 723,-432 626.31,-408.47 599.6,-415.45 502,-396 496.33,-394.87 490.43,-393.61 484.56,-392.31"/>
<polygon fill="black" stroke="black" points="485.59,-388.73 475.06,-389.92 484.04,-395.55 485.59,-388.73"/>
</g>
<!-- chain_id -->
<g id="node27" class="node">
<title>chain_id</title>
<ellipse fill="none" stroke="black" cx="775" cy="-378" rx="40.89" ry="18"/>
<text text-anchor="middle" x="775" y="-374.3" font-family="Times,serif" font-size="14.00">chain_id</text>
</g>
<!-- account&#45;&gt;chain_id -->
<g id="edge38" class="edge">
<title>account&#45;&gt;chain_id</title>
<path fill="none" stroke="black" d="M775,-431.7C775,-424.24 775,-415.32 775,-406.97"/>
<polygon fill="black" stroke="black" points="778.5,-407.1 775,-397.1 771.5,-407.1 778.5,-407.1"/>
</g>
<!-- coin&#45;&gt;option -->
<g id="edge39" class="edge">
<title>coin&#45;&gt;option</title>
<path fill="none" stroke="black" d="M1509.13,-513.33C1520.26,-510.04 1533.7,-506.4 1546,-504 1614.93,-490.53 1806.77,-513.82 1860,-468 1891.05,-441.27 1884,-419.97 1884,-379 1884,-379 1884,-379 1884,-305 1884,-192.4 2031.38,-127.76 2103.36,-102.91"/>
<polygon fill="black" stroke="black" points="2104.04,-106.03 2112.4,-99.53 2101.81,-99.4 2104.04,-106.03"/>
</g>
<!-- coin&#45;&gt;string -->
<g id="edge40" class="edge">
<title>coin&#45;&gt;string</title>
<path fill="none" stroke="black" d="M1512.05,-520.35C1660.96,-516.63 2375.38,-497.33 2411,-468 2454.08,-432.53 2478.06,-259.61 2486,-191.07"/>
<polygon fill="black" stroke="black" points="2489.58,-191.59 2487.22,-181.26 2482.62,-190.81 2489.58,-191.59"/>
</g>
<!-- coin&#45;&gt;signer -->
<g id="edge41" class="edge">
<title>coin&#45;&gt;signer</title>
<path fill="none" stroke="black" d="M1459.74,-514.95C1358.65,-490.71 988.19,-401.67 977,-396 954.77,-384.73 953.45,-375.58 934,-360 913.46,-343.55 906.13,-342.07 887,-324 807.22,-248.66 816.88,-191.58 718,-144 659.2,-115.71 467.85,-99.68 381.26,-93.71"/>
<polygon fill="black" stroke="black" points="381.71,-90.17 371.5,-92.99 381.24,-97.15 381.71,-90.17"/>
</g>
<!-- coin&#45;&gt;type_info -->
<g id="edge43" class="edge">
<title>coin&#45;&gt;type_info</title>
<path fill="none" stroke="black" d="M1477.14,-504.48C1457.9,-464.9 1405.63,-362.44 1346,-288 1337.46,-277.33 1326.82,-266.75 1317.12,-257.87"/>
<polygon fill="black" stroke="black" points="1319.71,-255.59 1309.91,-251.55 1315.05,-260.82 1319.71,-255.59"/>
</g>
<!-- coin&#45;&gt;event -->
<g id="edge45" class="edge">
<title>coin&#45;&gt;event</title>
<path fill="none" stroke="black" d="M1457.85,-519.33C1324.57,-511.1 745.3,-474.98 728,-468 704.89,-458.67 708.05,-441.48 685,-432 507.22,-358.89 441.33,-439.08 254,-396 250.57,-395.21 247.05,-394.21 243.57,-393.08"/>
<polygon fill="black" stroke="black" points="244.95,-389.51 234.36,-389.45 242.6,-396.1 244.95,-389.51"/>
</g>
<!-- coin&#45;&gt;account -->
<g id="edge46" class="edge">
<title>coin&#45;&gt;account</title>
<path fill="none" stroke="black" d="M1458.26,-518.41C1379.49,-510.76 1141.45,-487.6 944,-468 903.09,-463.94 856.62,-459.26 822.77,-455.84"/>
<polygon fill="black" stroke="black" points="823.55,-452.3 813.25,-454.78 822.85,-459.26 823.55,-452.3"/>
</g>
<!-- coin&#45;&gt;error -->
<g id="edge42" class="edge">
<title>coin&#45;&gt;error</title>
<path fill="none" stroke="black" d="M1484.8,-503.51C1484.51,-476.71 1484,-423.87 1484,-379 1484,-379 1484,-379 1484,-233 1484,-124.33 1315.94,-98.82 1237.93,-92.84"/>
<polygon fill="black" stroke="black" points="1238.32,-89.28 1228.11,-92.09 1237.84,-96.27 1238.32,-89.28"/>
</g>
<!-- coin&#45;&gt;system_addresses -->
<g id="edge44" class="edge">
<title>coin&#45;&gt;system_addresses</title>
<path fill="none" stroke="black" d="M1458.85,-516.55C1438.46,-513.09 1409.44,-508.19 1384,-504 1284.94,-487.67 1258.51,-491.88 1161,-468 1062.3,-443.83 1039.16,-431.64 944,-396 905.2,-381.47 896.71,-374.79 858,-360 825,-347.39 787.52,-334.39 757.92,-324.42"/>
<polygon fill="black" stroke="black" points="759.39,-320.88 748.8,-321.02 757.17,-327.52 759.39,-320.88"/>
</g>
<!-- aggregator -->
<g id="node28" class="node">
<title>aggregator</title>
<ellipse fill="none" stroke="black" cx="1560" cy="-306" rx="48.19" ry="18"/>
<text text-anchor="middle" x="1560" y="-302.3" font-family="Times,serif" font-size="14.00">aggregator</text>
</g>
<!-- coin&#45;&gt;aggregator -->
<g id="edge47" class="edge">
<title>coin&#45;&gt;aggregator</title>
<path fill="none" stroke="black" d="M1490.89,-504.21C1503.77,-467.43 1534.6,-379.48 1550.36,-334.5"/>
<polygon fill="black" stroke="black" points="1553.93,-335.9 1553.93,-325.31 1547.32,-333.59 1553.93,-335.9"/>
</g>
<!-- aggregator_factory -->
<g id="node29" class="node">
<title>aggregator_factory</title>
<ellipse fill="none" stroke="black" cx="1665" cy="-378" rx="77.19" ry="18"/>
<text text-anchor="middle" x="1665" y="-374.3" font-family="Times,serif" font-size="14.00">aggregator_factory</text>
</g>
<!-- coin&#45;&gt;aggregator_factory -->
<g id="edge48" class="edge">
<title>coin&#45;&gt;aggregator_factory</title>
<path fill="none" stroke="black" d="M1506.04,-510.31C1524.66,-500.43 1552.19,-484.78 1574,-468 1599.33,-448.52 1625.08,-422.65 1642.69,-403.82"/>
<polygon fill="black" stroke="black" points="1644.73,-406.69 1648.95,-396.97 1639.59,-401.94 1644.73,-406.69"/>
</g>
<!-- optional_aggregator -->
<g id="node30" class="node">
<title>optional_aggregator</title>
<ellipse fill="none" stroke="black" cx="1770" cy="-450" rx="81.49" ry="18"/>
<text text-anchor="middle" x="1770" y="-446.3" font-family="Times,serif" font-size="14.00">optional_aggregator</text>
</g>
<!-- coin&#45;&gt;optional_aggregator -->
<g id="edge49" class="edge">
<title>coin&#45;&gt;optional_aggregator</title>
<path fill="none" stroke="black" d="M1509.58,-513.91C1520.67,-510.77 1533.97,-507.1 1546,-504 1599.02,-490.34 1659.46,-476.12 1704.18,-465.85"/>
<polygon fill="black" stroke="black" points="1704.65,-469.11 1713.62,-463.46 1703.09,-462.28 1704.65,-469.11"/>
</g>
<!-- avl_queue&#45;&gt;option -->
<g id="edge50" class="edge">
<title>avl_queue&#45;&gt;option</title>
<path fill="none" stroke="black" d="M2362.49,-431.89C2373.3,-405.58 2392,-353.37 2392,-307 2392,-307 2392,-307 2392,-233 2392,-138.99 2256.7,-106.45 2185.17,-95.81"/>
<polygon fill="black" stroke="black" points="2186.07,-92.27 2175.68,-94.34 2185.1,-99.2 2186.07,-92.27"/>
</g>
<!-- avl_queue&#45;&gt;table -->
<g id="edge51" class="edge">
<title>avl_queue&#45;&gt;table</title>
<path fill="none" stroke="black" d="M2353.79,-431.67C2351.67,-412.47 2345.87,-381.4 2330,-360 2317.31,-342.9 2297.32,-329.89 2280.14,-321.04"/>
<polygon fill="black" stroke="black" points="2281.95,-317.54 2271.43,-316.31 2278.89,-323.84 2281.95,-317.54"/>
</g>
<!-- table_with_length -->
<g id="node31" class="node">
<title>table_with_length</title>
<ellipse fill="none" stroke="black" cx="2176" cy="-378" rx="74.19" ry="18"/>
<text text-anchor="middle" x="2176" y="-374.3" font-family="Times,serif" font-size="14.00">table_with_length</text>
</g>
<!-- avl_queue&#45;&gt;table_with_length -->
<g id="edge52" class="edge">
<title>avl_queue&#45;&gt;table_with_length</title>
<path fill="none" stroke="black" d="M2323,-436.49C2295.41,-425.7 2255.19,-409.97 2223.79,-397.69"/>
<polygon fill="black" stroke="black" points="2225.52,-394.22 2214.93,-393.83 2222.97,-400.74 2225.52,-394.22"/>
</g>
<!-- tablist&#45;&gt;option -->
<g id="edge53" class="edge">
<title>tablist&#45;&gt;option</title>
<path fill="none" stroke="black" d="M2171.57,-576.46C2151.54,-543.61 2108.33,-467.18 2093,-396 2078.29,-327.71 2137.77,-319.44 2156,-252 2168.53,-205.66 2162.18,-191.6 2156,-144 2154.9,-135.56 2152.87,-126.56 2150.68,-118.41"/>
<polygon fill="black" stroke="black" points="2153.8,-117.61 2147.68,-108.96 2147.08,-119.54 2153.8,-117.61"/>
</g>
<!-- tablist&#45;&gt;table_with_length -->
<g id="edge54" class="edge">
<title>tablist&#45;&gt;table_with_length</title>
<path fill="none" stroke="black" d="M2181.52,-575.85C2180.49,-538.99 2178.04,-451.92 2176.78,-406.96"/>
<polygon fill="black" stroke="black" points="2180.26,-407.13 2176.48,-397.23 2173.26,-407.33 2180.26,-407.13"/>
</g>
<!-- resource_account&#45;&gt;account -->
<g id="edge56" class="edge">
<title>resource_account&#45;&gt;account</title>
<path fill="none" stroke="black" d="M859.49,-504.76C843.53,-494.61 822.87,-481.46 805.97,-470.71"/>
<polygon fill="black" stroke="black" points="808.34,-467.43 798.03,-465.02 804.59,-473.34 808.34,-467.43"/>
</g>
<!-- resource_account&#45;&gt;bcs -->
<g id="edge55" class="edge">
<title>resource_account&#45;&gt;bcs</title>
<path fill="none" stroke="black" d="M823.17,-512.37C653.55,-488.4 192.12,-421.14 171,-396 -14.31,-175.42 664.3,-162.51 834.95,-162.69"/>
<polygon fill="black" stroke="black" points="834.89,-166.19 844.9,-162.72 834.91,-159.19 834.89,-166.19"/>
</g>
<!-- timestamp -->
<g id="node32" class="node">
<title>timestamp</title>
<ellipse fill="none" stroke="black" cx="668" cy="-378" rx="48.19" ry="18"/>
<text text-anchor="middle" x="668" y="-374.3" font-family="Times,serif" font-size="14.00">timestamp</text>
</g>
<!-- resource_account&#45;&gt;timestamp -->
<g id="edge57" class="edge">
<title>resource_account&#45;&gt;timestamp</title>
<path fill="none" stroke="black" d="M876.99,-503.8C866.86,-483.83 847.6,-451.19 822,-432 813.08,-425.32 756.75,-406.77 714.78,-393.5"/>
<polygon fill="black" stroke="black" points="716.05,-389.91 705.46,-390.25 713.95,-396.59 716.05,-389.91"/>
</g>
<!-- incentives&#45;&gt;signer -->
<g id="edge59" class="edge">
<title>incentives&#45;&gt;signer</title>
<path fill="none" stroke="black" d="M1362.6,-665.17C1123.11,-665.46 38,-659.25 38,-523 38,-523 38,-523 38,-233 38,-190.33 40.6,-170.55 74,-144 154.31,-80.17 203.96,-138.21 302,-108 303.09,-107.66 304.19,-107.3 305.29,-106.92"/>
<polygon fill="black" stroke="black" points="306.16,-109.94 314.15,-102.97 303.56,-103.44 306.16,-109.94"/>
</g>
<!-- incentives&#45;&gt;type_info -->
<g id="edge60" class="edge">
<title>incentives&#45;&gt;type_info</title>
<path fill="none" stroke="black" d="M1386.51,-649.86C1374.18,-640.4 1359.68,-627.15 1351,-612 1330.89,-576.91 1332,-563.45 1332,-523 1332,-523 1332,-523 1332,-377 1332,-335.51 1315.31,-289.9 1302.97,-261.85"/>
<polygon fill="black" stroke="black" points="1305.82,-260.66 1298.5,-253.01 1299.45,-263.56 1305.82,-260.66"/>
</g>
<!-- incentives&#45;&gt;coin -->
<g id="edge61" class="edge">
<title>incentives&#45;&gt;coin</title>
<path fill="none" stroke="black" d="M1431.55,-649.9C1443.9,-640.45 1458.4,-627.2 1467,-612 1477.56,-593.34 1481.98,-569.39 1483.8,-551.04"/>
<polygon fill="black" stroke="black" points="1487.36,-551.4 1484.65,-541.16 1480.38,-550.86 1487.36,-551.4"/>
</g>
<!-- incentives&#45;&gt;tablist -->
<g id="edge63" class="edge">
<title>incentives&#45;&gt;tablist</title>
<path fill="none" stroke="black" d="M1454.92,-663.34C1593.34,-658.07 2005.05,-640.37 2136,-612 2139.6,-611.22 2143.31,-610.22 2146.97,-609.09"/>
<polygon fill="black" stroke="black" points="2147.73,-612.19 2156.07,-605.66 2145.48,-605.56 2147.73,-612.19"/>
</g>
<!-- incentives&#45;&gt;resource_account -->
<g id="edge64" class="edge">
<title>incentives&#45;&gt;resource_account</title>
<path fill="none" stroke="black" d="M1371.74,-654.9C1281.56,-630.47 1051.08,-568.01 942.82,-538.67"/>
<polygon fill="black" stroke="black" points="943.98,-535.09 933.42,-535.85 942.15,-541.84 943.98,-535.09"/>
</g>
<!-- incentives&#45;&gt;vector -->
<g id="edge58" class="edge">
<title>incentives&#45;&gt;vector</title>
<path fill="none" stroke="black" d="M1452.41,-659.31C1640.96,-634.27 2383.15,-532.31 2465,-468 2580.42,-377.32 2599.6,-272.69 2529,-144 2492.78,-77.97 2406.03,-43.79 2354.8,-28.78"/>
<polygon fill="black" stroke="black" points="2356.01,-25.21 2345.43,-25.87 2354.11,-31.95 2356.01,-25.21"/>
</g>
<!-- aptos_coin -->
<g id="node33" class="node">
<title>aptos_coin</title>
<ellipse fill="none" stroke="black" cx="1409" cy="-594" rx="48.99" ry="18"/>
<text text-anchor="middle" x="1409" y="-590.3" font-family="Times,serif" font-size="14.00">aptos_coin</text>
</g>
<!-- incentives&#45;&gt;aptos_coin -->
<g id="edge62" class="edge">
<title>incentives&#45;&gt;aptos_coin</title>
<path fill="none" stroke="black" d="M1409,-647.7C1409,-640.24 1409,-631.32 1409,-622.97"/>
<polygon fill="black" stroke="black" points="1412.5,-623.1 1409,-613.1 1405.5,-623.1 1412.5,-623.1"/>
</g>
<!-- registry&#45;&gt;option -->
<g id="edge65" class="edge">
<title>registry&#45;&gt;option</title>
<path fill="none" stroke="black" d="M1595.78,-724.3C1662.08,-690.58 1840.96,-592.82 1951,-468 1986.46,-427.77 2061.75,-301.56 2114,-180 2122.59,-160.01 2129.88,-136.49 2134.86,-118.65"/>
<polygon fill="black" stroke="black" points="2138.48,-119.67 2137.73,-109.1 2131.73,-117.83 2138.48,-119.67"/>
</g>
<!-- registry&#45;&gt;string -->
<g id="edge66" class="edge">
<title>registry&#45;&gt;string</title>
<path fill="none" stroke="black" d="M1607.86,-735.71C1719.55,-731.57 2046.1,-716.89 2147,-684 2341.15,-620.72 2438.95,-589.23 2505,-396 2530.91,-320.21 2532.59,-293.91 2514,-216 2511.78,-206.71 2507.83,-197.11 2503.72,-188.68"/>
<polygon fill="black" stroke="black" points="2506.44,-187.32 2498.72,-180.06 2500.23,-190.55 2506.44,-187.32"/>
</g>
<!-- registry&#45;&gt;signer -->
<g id="edge67" class="edge">
<title>registry&#45;&gt;signer</title>
<path fill="none" stroke="black" d="M1534.45,-731.01C1325.21,-695.42 260.09,-509.41 171,-396 94.96,-299.2 246.01,-163.1 310.63,-111.72"/>
<polygon fill="black" stroke="black" points="312.43,-113.97 318.14,-105.05 308.11,-108.46 312.43,-113.97"/>
</g>
<!-- registry&#45;&gt;type_info -->
<g id="edge68" class="edge">
<title>registry&#45;&gt;type_info</title>
<path fill="none" stroke="black" d="M1575.67,-719.73C1583.85,-693.21 1598,-640.73 1598,-595 1598,-595 1598,-595 1598,-521 1598,-377.58 1416.44,-285.79 1332.11,-250.9"/>
<polygon fill="black" stroke="black" points="1333.67,-247.35 1323.09,-246.83 1331.04,-253.84 1333.67,-247.35"/>
</g>
<!-- registry&#45;&gt;event -->
<g id="edge70" class="edge">
<title>registry&#45;&gt;event</title>
<path fill="none" stroke="black" d="M1532.26,-735.37C1414.28,-730.02 1053.55,-711.77 940,-684 655.9,-614.52 339.36,-449.61 240.9,-396.09"/>
<polygon fill="black" stroke="black" points="242.99,-392.7 232.54,-390.98 239.64,-398.84 242.99,-392.7"/>
</g>
<!-- registry&#45;&gt;account -->
<g id="edge71" class="edge">
<title>registry&#45;&gt;account</title>
<path fill="none" stroke="black" d="M1532.37,-735.29C1428.16,-730.23 1137.48,-713.78 1047,-684 927.75,-644.75 882.49,-637.98 804,-540 789.97,-522.48 782.63,-497.96 778.86,-479.09"/>
<polygon fill="black" stroke="black" points="782.17,-478.7 776.98,-469.46 775.27,-479.92 782.17,-478.7"/>
</g>
<!-- registry&#45;&gt;coin -->
<g id="edge72" class="edge">
<title>registry&#45;&gt;coin</title>
<path fill="none" stroke="black" d="M1563.19,-719.85C1548.45,-682.74 1513.5,-594.75 1495.75,-550.05"/>
<polygon fill="black" stroke="black" points="1498.67,-548.94 1491.73,-540.94 1492.17,-551.52 1498.67,-548.94"/>
</g>
<!-- registry&#45;&gt;tablist -->
<g id="edge73" class="edge">
<title>registry&#45;&gt;tablist</title>
<path fill="none" stroke="black" d="M1608.31,-737.8C1688.55,-738.35 1879.23,-733.78 2029,-684 2076.36,-668.26 2125.22,-636.66 2154.6,-615.67"/>
<polygon fill="black" stroke="black" points="2156.39,-617.97 2162.43,-609.26 2152.28,-612.3 2156.39,-617.97"/>
</g>
<!-- registry&#45;&gt;incentives -->
<g id="edge74" class="edge">
<title>registry&#45;&gt;incentives</title>
<path fill="none" stroke="black" d="M1542.69,-725.13C1517.01,-713.96 1478.25,-697.11 1449.07,-684.42"/>
<polygon fill="black" stroke="black" points="1450.75,-680.9 1440.19,-680.13 1447.96,-687.32 1450.75,-680.9"/>
</g>
<!-- registry&#45;&gt;table -->
<g id="edge69" class="edge">
<title>registry&#45;&gt;table</title>
<path fill="none" stroke="black" d="M1608.33,-737.69C1694.51,-738.24 1909.36,-733.99 2080,-684 2148.29,-663.99 2180.81,-669.3 2223,-612 2280.71,-533.63 2250.97,-492.99 2259,-396 2260.32,-380.05 2260.78,-375.9 2259,-360 2258.06,-351.62 2256.32,-342.63 2254.44,-334.48"/>
<polygon fill="black" stroke="black" points="2257.66,-333.9 2251.87,-325.02 2250.86,-335.57 2257.66,-333.9"/>
</g>
<!-- user&#45;&gt;option -->
<g id="edge76" class="edge">
<title>user&#45;&gt;option</title>
<path fill="none" stroke="black" d="M2190.45,-801.55C2268.41,-777.46 2506,-701.22 2506,-667 2506,-667 2506,-667 2506,-521 2506,-431.94 2439.93,-199.15 2370,-144 2316.75,-102 2236.04,-92.24 2186.3,-90.53"/>
<polygon fill="black" stroke="black" points="2186.65,-87.01 2176.57,-90.27 2186.48,-94.01 2186.65,-87.01"/>
</g>
<!-- user&#45;&gt;string -->
<g id="edge77" class="edge">
<title>user&#45;&gt;string</title>
<path fill="none" stroke="black" d="M2189.74,-800.79C2199.62,-797.64 2211.26,-794.26 2222,-792 2287.27,-778.26 2474.67,-804.93 2520,-756 2590.74,-679.65 2544.76,-391.93 2539,-288 2537.22,-255.85 2543.25,-245.77 2531,-216 2526.51,-205.09 2519.07,-194.58 2511.69,-185.83"/>
<polygon fill="black" stroke="black" points="2514.72,-183.85 2505.45,-178.73 2509.5,-188.51 2514.72,-183.85"/>
</g>
<!-- user&#45;&gt;signer -->
<g id="edge78" class="edge">
<title>user&#45;&gt;signer</title>
<path fill="none" stroke="black" d="M2138.66,-808.47C1992.67,-805.53 1308.49,-790.02 1221,-756 1173.9,-737.68 1169.31,-719.15 1133,-684 965.08,-521.43 974.11,-428.05 787,-288 652.81,-187.56 459.41,-125.08 377.27,-101.59"/>
<polygon fill="black" stroke="black" points="378.48,-98.01 367.9,-98.66 376.57,-104.74 378.48,-98.01"/>
</g>
<!-- user&#45;&gt;type_info -->
<g id="edge79" class="edge">
<title>user&#45;&gt;type_info</title>
<path fill="none" stroke="black" d="M2138.74,-808.19C1975.74,-803 1137,-771.2 1137,-667 1137,-667 1137,-667 1137,-521 1137,-439.88 1233.26,-468.32 1270,-396 1291.68,-353.32 1293.39,-296.35 1292.09,-262.87"/>
<polygon fill="black" stroke="black" points="1295.54,-262.88 1291.53,-253.07 1288.55,-263.24 1295.54,-262.88"/>
</g>
<!-- user&#45;&gt;coin -->
<g id="edge81" class="edge">
<title>user&#45;&gt;coin</title>
<path fill="none" stroke="black" d="M2143.73,-799.65C2043.71,-757.64 1635.76,-586.31 1517.36,-536.59"/>
<polygon fill="black" stroke="black" points="1519.02,-533.07 1508.44,-532.43 1516.31,-539.53 1519.02,-533.07"/>
</g>
<!-- user&#45;&gt;tablist -->
<g id="edge82" class="edge">
<title>user&#45;&gt;tablist</title>
<path fill="none" stroke="black" d="M2167.28,-791.85C2170.04,-754.99 2176.55,-667.92 2179.91,-622.96"/>
<polygon fill="black" stroke="black" points="2183.46,-623.47 2180.71,-613.23 2176.48,-622.94 2183.46,-623.47"/>
</g>
<!-- user&#45;&gt;registry -->
<g id="edge83" class="edge">
<title>user&#45;&gt;registry</title>
<path fill="none" stroke="black" d="M2139.23,-805.86C2046.21,-794.93 1736.19,-758.52 1617.12,-744.53"/>
<polygon fill="black" stroke="black" points="1617.88,-740.98 1607.54,-743.29 1617.07,-747.93 1617.88,-740.98"/>
</g>
<!-- user&#45;&gt;vector -->
<g id="edge75" class="edge">
<title>user&#45;&gt;vector</title>
<path fill="none" stroke="black" d="M2189.73,-800.74C2199.61,-797.58 2211.25,-794.21 2222,-792 2292.52,-777.48 2482.69,-793.76 2544,-756 2649.28,-691.16 2696,-646.64 2696,-523 2696,-523 2696,-523 2696,-305 2696,-167.36 2607.78,-146.42 2492,-72 2450.5,-45.32 2394.97,-31.57 2357.25,-24.84"/>
<polygon fill="black" stroke="black" points="2358.08,-21.26 2347.63,-23.05 2356.91,-28.16 2358.08,-21.26"/>
</g>
<!-- user&#45;&gt;table -->
<g id="edge80" class="edge">
<title>user&#45;&gt;table</title>
<path fill="none" stroke="black" d="M2185.34,-797.19C2217.86,-775.67 2280,-726.75 2280,-667 2280,-667 2280,-667 2280,-521 2280,-449.38 2290.7,-429.4 2273,-360 2270.62,-350.68 2266.49,-341.07 2262.22,-332.64"/>
<polygon fill="black" stroke="black" points="2264.86,-331.17 2257.04,-324.03 2258.7,-334.49 2264.86,-331.17"/>
</g>
<!-- features&#45;&gt;signer -->
<g id="edge84" class="edge">
<title>features&#45;&gt;signer</title>
<path fill="none" stroke="black" d="M928.01,-149.56C921.84,-147.41 915.27,-145.4 909,-144 715.53,-100.78 477.59,-92.73 381.39,-91.29"/>
<polygon fill="black" stroke="black" points="381.69,-87.78 371.64,-91.14 381.6,-94.78 381.69,-87.78"/>
</g>
<!-- features&#45;&gt;error -->
<g id="edge85" class="edge">
<title>features&#45;&gt;error</title>
<path fill="none" stroke="black" d="M986.45,-150.79C993.51,-148.5 1001,-146.11 1008,-144 1061.75,-127.77 1124.57,-110.7 1163.07,-100.45"/>
<polygon fill="black" stroke="black" points="1163.48,-103.7 1172.25,-97.75 1161.69,-96.93 1163.48,-103.7"/>
</g>
<!-- system_addresses&#45;&gt;signer -->
<g id="edge86" class="edge">
<title>system_addresses&#45;&gt;signer</title>
<path fill="none" stroke="black" d="M677.42,-288.92C610.39,-249.83 439.31,-150.07 368.94,-109.04"/>
<polygon fill="black" stroke="black" points="371.11,-105.67 360.7,-103.66 367.58,-111.72 371.11,-105.67"/>
</g>
<!-- system_addresses&#45;&gt;error -->
<g id="edge87" class="edge">
<title>system_addresses&#45;&gt;error</title>
<path fill="none" stroke="black" d="M713.46,-287.84C731.17,-253.95 775.65,-178.7 837,-144 891.78,-113.02 1078.69,-98.24 1160.32,-93.15"/>
<polygon fill="black" stroke="black" points="1160.35,-96.59 1170.12,-92.49 1159.93,-89.61 1160.35,-96.59"/>
</g>
<!-- ed25519&#45;&gt;option -->
<g id="edge88" class="edge">
<title>ed25519&#45;&gt;option</title>
<path fill="none" stroke="black" d="M1090.64,-289.32C1114.55,-268.99 1159.38,-234.01 1204,-216 1370.42,-148.82 1935.98,-105.26 2098.18,-93.94"/>
<polygon fill="black" stroke="black" points="2097.98,-97.39 2107.72,-93.21 2097.5,-90.41 2097.98,-97.39"/>
</g>
<!-- ed25519&#45;&gt;type_info -->
<g id="edge91" class="edge">
<title>ed25519&#45;&gt;type_info</title>
<path fill="none" stroke="black" d="M1105.02,-294.67C1142.22,-282.67 1203.82,-262.8 1245.62,-249.31"/>
<polygon fill="black" stroke="black" points="1246.62,-252.35 1255.06,-245.95 1244.47,-245.69 1246.62,-252.35"/>
</g>
<!-- ed25519&#45;&gt;error -->
<g id="edge89" class="edge">
<title>ed25519&#45;&gt;error</title>
<path fill="none" stroke="black" d="M1082.33,-288.44C1098.88,-259.14 1134.61,-196.32 1166,-144 1171.43,-134.95 1177.5,-125.12 1182.94,-116.41"/>
<polygon fill="black" stroke="black" points="1186.4,-118.48 1188.75,-108.15 1180.47,-114.76 1186.4,-118.48"/>
</g>
<!-- ed25519&#45;&gt;bcs -->
<g id="edge90" class="edge">
<title>ed25519&#45;&gt;bcs</title>
<path fill="none" stroke="black" d="M1051.97,-290.07C1015.41,-264.11 940.16,-210.69 899.87,-182.08"/>
<polygon fill="black" stroke="black" points="902.3,-178.8 892.12,-175.87 898.25,-184.51 902.3,-178.8"/>
</g>
<!-- ed25519&#45;&gt;hash -->
<g id="edge92" class="edge">
<title>ed25519&#45;&gt;hash</title>
<path fill="none" stroke="black" d="M1041.75,-294.06C1005,-281.2 944.23,-259.93 906.52,-246.73"/>
<polygon fill="black" stroke="black" points="908.13,-243.24 897.53,-243.24 905.81,-249.84 908.13,-243.24"/>
</g>
<!-- multi_ed25519&#45;&gt;option -->
<g id="edge93" class="edge">
<title>multi_ed25519&#45;&gt;option</title>
<path fill="none" stroke="black" d="M1073.6,-361.04C1088.19,-350.89 1107.1,-337.21 1123,-324 1176.69,-279.4 1174.35,-246.76 1237,-216 1330.27,-170.2 1365.59,-197.58 1468,-180 1553.57,-165.31 1574.12,-156.75 1660,-144 1820.98,-120.09 2013.7,-102.07 2098.42,-94.68"/>
<polygon fill="black" stroke="black" points="2098.5,-98.1 2108.16,-93.75 2097.9,-91.12 2098.5,-98.1"/>
</g>
<!-- multi_ed25519&#45;&gt;error -->
<g id="edge94" class="edge">
<title>multi_ed25519&#45;&gt;error</title>
<path fill="none" stroke="black" d="M1038.39,-360.11C1027.51,-342.09 1014.14,-312.78 1023,-288 1051.4,-208.54 1129.9,-141.53 1171.8,-110.13"/>
<polygon fill="black" stroke="black" points="1173.42,-112.54 1179.4,-103.8 1169.28,-106.91 1173.42,-112.54"/>
</g>
<!-- multi_ed25519&#45;&gt;features -->
<g id="edge95" class="edge">
<title>multi_ed25519&#45;&gt;features</title>
<path fill="none" stroke="black" d="M1025.52,-361.13C1013.03,-351.79 998.68,-338.89 990,-324 965.55,-282.05 958.58,-224.84 956.65,-191.12"/>
<polygon fill="black" stroke="black" points="960.11,-191.07 956.16,-181.23 953.12,-191.38 960.11,-191.07"/>
</g>
<!-- multi_ed25519&#45;&gt;bcs -->
<g id="edge96" class="edge">
<title>multi_ed25519&#45;&gt;bcs</title>
<path fill="none" stroke="black" d="M1020.13,-361.76C1003.91,-352.44 984.31,-339.36 970,-324 932.43,-283.66 938.07,-262.84 909,-216 903.14,-206.56 896.38,-196.42 890.3,-187.56"/>
<polygon fill="black" stroke="black" points="892.63,-185.77 884.06,-179.55 886.87,-189.76 892.63,-185.77"/>
</g>
<!-- multi_ed25519&#45;&gt;hash -->
<g id="edge97" class="edge">
<title>multi_ed25519&#45;&gt;hash</title>
<path fill="none" stroke="black" d="M998.72,-366.9C970.82,-359.17 937.34,-345.98 914,-324 896.42,-307.45 885.73,-281.89 879.7,-262.4"/>
<polygon fill="black" stroke="black" points="882.84,-261.68 876.73,-253.02 876.11,-263.6 882.84,-261.68"/>
</g>
<!-- multi_ed25519&#45;&gt;ed25519 -->
<g id="edge98" class="edge">
<title>multi_ed25519&#45;&gt;ed25519</title>
<path fill="none" stroke="black" d="M1055.69,-359.7C1058.19,-352.07 1061.2,-342.92 1064,-334.4"/>
<polygon fill="black" stroke="black" points="1067.58,-335.7 1067.38,-325.1 1060.93,-333.51 1067.58,-335.7"/>
</g>
<!-- from_bcs&#45;&gt;string -->
<g id="edge99" class="edge">
<title>from_bcs&#45;&gt;string</title>
<path fill="none" stroke="black" d="M2035.35,-227.15C2128.91,-213.92 2355.86,-181.83 2448.55,-168.72"/>
<polygon fill="black" stroke="black" points="2448.76,-172.08 2458.17,-167.22 2447.78,-165.15 2448.76,-172.08"/>
</g>
<!-- chain_id&#45;&gt;system_addresses -->
<g id="edge100" class="edge">
<title>chain_id&#45;&gt;system_addresses</title>
<path fill="none" stroke="black" d="M759.12,-361.12C750.33,-352.33 739.23,-341.23 729.37,-331.37"/>
<polygon fill="black" stroke="black" points="732.34,-329.39 722.8,-324.8 727.39,-334.34 732.34,-329.39"/>
</g>
<!-- aggregator_factory&#45;&gt;error -->
<g id="edge101" class="edge">
<title>aggregator_factory&#45;&gt;error</title>
<path fill="none" stroke="black" d="M1658.51,-359.72C1640.73,-315.04 1586.57,-195.63 1498,-144 1454.23,-118.48 1307.62,-101.4 1237.28,-94.48"/>
<polygon fill="black" stroke="black" points="1237.97,-90.93 1227.68,-93.45 1237.29,-97.9 1237.97,-90.93"/>
</g>
<!-- aggregator_factory&#45;&gt;table -->
<g id="edge102" class="edge">
<title>aggregator_factory&#45;&gt;table</title>
<path fill="none" stroke="black" d="M1732.33,-368.9C1855.09,-354.14 2111.56,-323.29 2208.65,-311.61"/>
<polygon fill="black" stroke="black" points="2208.9,-314.99 2218.41,-310.32 2208.07,-308.04 2208.9,-314.99"/>
</g>
<!-- aggregator_factory&#45;&gt;system_addresses -->
<g id="edge103" class="edge">
<title>aggregator_factory&#45;&gt;system_addresses</title>
<path fill="none" stroke="black" d="M1592.06,-371.68C1416.03,-358.85 969,-326.25 785.5,-312.87"/>
<polygon fill="black" stroke="black" points="785.81,-309.31 775.58,-312.07 785.3,-316.29 785.81,-309.31"/>
</g>
<!-- aggregator_factory&#45;&gt;aggregator -->
<g id="edge104" class="edge">
<title>aggregator_factory&#45;&gt;aggregator</title>
<path fill="none" stroke="black" d="M1640.38,-360.59C1625.79,-350.86 1607.15,-338.43 1591.49,-327.99"/>
<polygon fill="black" stroke="black" points="1593.93,-324.75 1583.67,-322.11 1590.05,-330.57 1593.93,-324.75"/>
</g>
<!-- optional_aggregator&#45;&gt;option -->
<g id="edge105" class="edge">
<title>optional_aggregator&#45;&gt;option</title>
<path fill="none" stroke="black" d="M1790.89,-432.32C1801.61,-422.74 1814.06,-409.87 1822,-396 1842.34,-360.44 1846,-347.97 1846,-307 1846,-307 1846,-307 1846,-233 1846,-122.65 2015.29,-97.99 2097.82,-92.53"/>
<polygon fill="black" stroke="black" points="2097.84,-95.97 2107.62,-91.89 2097.43,-88.99 2097.84,-95.97"/>
</g>
<!-- optional_aggregator&#45;&gt;error -->
<g id="edge106" class="edge">
<title>optional_aggregator&#45;&gt;error</title>
<path fill="none" stroke="black" d="M1774.87,-431.76C1779.17,-413.18 1783.29,-383.17 1773,-360 1714.89,-229.15 1663.18,-205.75 1534,-144 1435.02,-96.69 1302.67,-90.17 1237.95,-90.13"/>
<polygon fill="black" stroke="black" points="1238.03,-86.63 1228.05,-90.18 1238.07,-93.63 1238.03,-86.63"/>
</g>
<!-- optional_aggregator&#45;&gt;aggregator -->
<g id="edge107" class="edge">
<title>optional_aggregator&#45;&gt;aggregator</title>
<path fill="none" stroke="black" d="M1771.26,-431.53C1771.69,-411.62 1769.19,-379.33 1751,-360 1717.26,-324.16 1661.59,-311.82 1619.03,-307.92"/>
<polygon fill="black" stroke="black" points="1619.48,-304.36 1609.24,-307.08 1618.94,-311.34 1619.48,-304.36"/>
</g>
<!-- optional_aggregator&#45;&gt;aggregator_factory -->
<g id="edge108" class="edge">
<title>optional_aggregator&#45;&gt;aggregator_factory</title>
<path fill="none" stroke="black" d="M1745.12,-432.41C1731.26,-423.17 1713.8,-411.54 1698.73,-401.49"/>
<polygon fill="black" stroke="black" points="1700.97,-398.1 1690.7,-395.47 1697.08,-403.93 1700.97,-398.1"/>
</g>
<!-- table_with_length&#45;&gt;error -->
<g id="edge109" class="edge">
<title>table_with_length&#45;&gt;error</title>
<path fill="none" stroke="black" d="M2166.13,-359.89C2137.8,-312.84 2050.8,-182.5 1936,-144 1804.67,-99.95 1370.45,-92.5 1237.82,-91.25"/>
<polygon fill="black" stroke="black" points="1238.03,-87.74 1228,-91.16 1237.97,-94.74 1238.03,-87.74"/>
</g>
<!-- table_with_length&#45;&gt;table -->
<g id="edge110" class="edge">
<title>table_with_length&#45;&gt;table</title>
<path fill="none" stroke="black" d="M2193.19,-360.05C2202.64,-350.73 2214.49,-339.06 2224.65,-329.03"/>
<polygon fill="black" stroke="black" points="2226.71,-331.94 2231.37,-322.42 2221.79,-326.95 2226.71,-331.94"/>
</g>
<!-- timestamp&#45;&gt;error -->
<g id="edge111" class="edge">
<title>timestamp&#45;&gt;error</title>
<path fill="none" stroke="black" d="M649.49,-361.38C639.58,-351.75 628.33,-338.5 623,-324 617.48,-308.98 616.36,-302.56 623,-288 663.55,-199.15 699.88,-183.96 789,-144 854.95,-114.42 1070.94,-98.58 1160.03,-93.17"/>
<polygon fill="black" stroke="black" points="1160.22,-96.6 1169.99,-92.52 1159.8,-89.61 1160.22,-96.6"/>
</g>
<!-- timestamp&#45;&gt;system_addresses -->
<g id="edge112" class="edge">
<title>timestamp&#45;&gt;system_addresses</title>
<path fill="none" stroke="black" d="M676.96,-360.05C681.12,-352.18 686.17,-342.62 690.84,-333.79"/>
<polygon fill="black" stroke="black" points="694.29,-335.75 695.87,-325.28 688.1,-332.48 694.29,-335.75"/>
</g>
<!-- aptos_coin&#45;&gt;option -->
<g id="edge114" class="edge">
<title>aptos_coin&#45;&gt;option</title>
<path fill="none" stroke="black" d="M1458.2,-593.98C1535.89,-593.9 1690.54,-587.12 1811,-540 1965.11,-479.71 1961.33,-393.58 2047,-252 2075.65,-204.65 2108.29,-148.93 2126.89,-117.01"/>
<polygon fill="black" stroke="black" points="2130.4,-118.93 2132.41,-108.53 2124.35,-115.41 2130.4,-118.93"/>
</g>
<!-- aptos_coin&#45;&gt;string -->
<g id="edge115" class="edge">
<title>aptos_coin&#45;&gt;string</title>
<path fill="none" stroke="black" d="M1457.27,-590.02C1649.98,-577.73 2357.61,-528.76 2436,-468 2521.18,-401.97 2505.44,-252.26 2494.61,-190.46"/>
<polygon fill="black" stroke="black" points="2497.94,-190.18 2492.67,-180.99 2491.05,-191.46 2497.94,-190.18"/>
</g>
<!-- aptos_coin&#45;&gt;signer -->
<g id="edge116" class="edge">
<title>aptos_coin&#45;&gt;signer</title>
<path fill="none" stroke="black" d="M1367.96,-583.72C1289.97,-566.3 1114.84,-528.32 966,-504 766.09,-471.34 76,-509.56 76,-307 76,-307 76,-307 76,-233 76,-192.03 69.8,-171.68 100,-144 167.23,-82.38 215.12,-135.71 302,-108 302.92,-107.71 303.85,-107.39 304.78,-107.06"/>
<polygon fill="black" stroke="black" points="305.76,-110.04 313.74,-103.08 303.15,-103.55 305.76,-110.04"/>
</g>
<!-- aptos_coin&#45;&gt;coin -->
<g id="edge119" class="edge">
<title>aptos_coin&#45;&gt;coin</title>
<path fill="none" stroke="black" d="M1426.63,-576.76C1437.07,-567.14 1450.43,-554.84 1461.73,-544.43"/>
<polygon fill="black" stroke="black" points="1463.54,-547.6 1468.53,-538.25 1458.8,-542.45 1463.54,-547.6"/>
</g>
<!-- aptos_coin&#45;&gt;vector -->
<g id="edge113" class="edge">
<title>aptos_coin&#45;&gt;vector</title>
<path fill="none" stroke="black" d="M1360.04,-591.59C1204.34,-586.21 707.38,-562.29 309,-468 210.12,-444.6 162.06,-469.61 92,-396 58.35,-360.64 53.96,-333.36 72,-288 120.78,-165.3 155.43,-125.84 276,-72 370.23,-29.92 1983.87,-20.53 2271.36,-19.19"/>
<polygon fill="black" stroke="black" points="2271.19,-22.68 2281.17,-19.14 2271.15,-15.68 2271.19,-22.68"/>
</g>
<!-- aptos_coin&#45;&gt;error -->
<g id="edge117" class="edge">
<title>aptos_coin&#45;&gt;error</title>
<path fill="none" stroke="black" d="M1458.34,-593.7C1552.73,-592.41 1760.52,-576.48 1885,-468 1917.3,-439.86 1922,-421.84 1922,-379 1922,-379 1922,-379 1922,-233 1922,-92.43 1389.14,-88.56 1238.33,-90.28"/>
<polygon fill="black" stroke="black" points="1238.3,-86.79 1228.34,-90.42 1238.39,-93.79 1238.3,-86.79"/>
</g>
<!-- aptos_coin&#45;&gt;system_addresses -->
<g id="edge118" class="edge">
<title>aptos_coin&#45;&gt;system_addresses</title>
<path fill="none" stroke="black" d="M1379.29,-579.28C1337.51,-560.37 1258.7,-526.15 1189,-504 1041.53,-457.13 985.14,-484.22 858,-396 840.17,-383.63 842.64,-372.65 825,-360 804.71,-345.44 779.79,-333.63 757.93,-324.89"/>
<polygon fill="black" stroke="black" points="759.39,-321.31 748.8,-320.97 756.86,-327.84 759.39,-321.31"/>
</g>
</g>
</svg>
