<?xml version="1.0" encoding="UTF-8" standalone="no"?>
<!DOCTYPE svg PUBLIC "-//W3C//DTD SVG 1.1//EN"
 "http://www.w3.org/Graphics/SVG/1.1/DTD/svg11.dtd">
<!-- Generated by graphviz version 8.1.0 (20230707.0739)
 -->
<!-- Title: G Pages: 1 -->
<svg width="3097pt" height="908pt"
 viewBox="0.00 0.00 3097.20 908.00" xmlns="http://www.w3.org/2000/svg" xmlns:xlink="http://www.w3.org/1999/xlink">
<g id="graph0" class="graph" transform="scale(1 1) rotate(0) translate(4 904)">
<title>G</title>
<polygon fill="white" stroke="none" points="-4,4 -4,-904 3093.2,-904 3093.2,4 -4,4"/>
<!-- market -->
<g id="node1" class="node">
<title>market</title>
<ellipse fill="none" stroke="black" cx="818" cy="-882" rx="37.02" ry="18"/>
<text text-anchor="middle" x="818" y="-876.95" font-family="Times,serif" font-size="14.00">market</text>
</g>
<!-- option -->
<g id="node2" class="node">
<title>option</title>
<ellipse fill="none" stroke="black" cx="818" cy="-90" rx="34.46" ry="18"/>
<text text-anchor="middle" x="818" y="-84.95" font-family="Times,serif" font-size="14.00">option</text>
</g>
<!-- market&#45;&gt;option -->
<g id="edge1" class="edge">
<title>market&#45;&gt;option</title>
<path fill="none" stroke="black" d="M780.82,-879.69C644.44,-874.17 173.78,-848.63 62,-756 2.96,-707.07 0,-671.68 0,-595 0,-595 0,-595 0,-521 0,-424.4 38,-403.6 38,-307 38,-307 38,-307 38,-233 38,-211.8 -37.54,-214.97 180,-144 290.39,-107.98 645.59,-95.45 772.45,-92.06"/>
<polygon fill="black" stroke="black" points="772.39,-95.54 782.29,-91.78 772.21,-88.54 772.39,-95.54"/>
</g>
<!-- string -->
<g id="node3" class="node">
<title>string</title>
<ellipse fill="none" stroke="black" cx="530" cy="-162" rx="31.9" ry="18"/>
<text text-anchor="middle" x="530" y="-156.95" font-family="Times,serif" font-size="14.00">string</text>
</g>
<!-- market&#45;&gt;string -->
<g id="edge2" class="edge">
<title>market&#45;&gt;string</title>
<path fill="none" stroke="black" d="M780.56,-880.93C641.12,-879.79 155.18,-867.75 62,-756 51.75,-743.71 60.79,-735.95 62,-720 73.59,-567.13 114,-532.31 114,-379 114,-379 114,-379 114,-305 114,-260.06 125.15,-241.73 162,-216 213.79,-179.84 401.47,-167.99 487,-164.42"/>
<polygon fill="black" stroke="black" points="487.03,-167.88 496.88,-163.98 486.75,-160.88 487.03,-167.88"/>
</g>
<!-- signer -->
<g id="node4" class="node">
<title>signer</title>
<ellipse fill="none" stroke="black" cx="1302" cy="-90" rx="33.44" ry="18"/>
<text text-anchor="middle" x="1302" y="-84.95" font-family="Times,serif" font-size="14.00">signer</text>
</g>
<!-- market&#45;&gt;signer -->
<g id="edge3" class="edge">
<title>market&#45;&gt;signer</title>
<path fill="none" stroke="black" d="M818,-863.51C818,-836.71 818,-783.87 818,-739 818,-739 818,-739 818,-449 818,-259.79 952.16,-240.35 1115,-144 1160.13,-117.3 1219.37,-103.49 1258.96,-96.75"/>
<polygon fill="black" stroke="black" points="1259.27,-100.09 1268.58,-95.04 1258.15,-93.18 1259.27,-100.09"/>
</g>
<!-- type_info -->
<g id="node5" class="node">
<title>type_info</title>
<ellipse fill="none" stroke="black" cx="2266" cy="-234" rx="46.23" ry="18"/>
<text text-anchor="middle" x="2266" y="-228.95" font-family="Times,serif" font-size="14.00">type_info</text>
</g>
<!-- market&#45;&gt;type_info -->
<g id="edge4" class="edge">
<title>market&#45;&gt;type_info</title>
<path fill="none" stroke="black" d="M855.36,-881.11C1109.48,-881.75 2579.68,-883 2770,-828 2844.47,-806.48 2920,-816.52 2920,-739 2920,-739 2920,-739 2920,-521 2920,-261.46 2482.27,-235.16 2323.04,-234.18"/>
<polygon fill="black" stroke="black" points="2323.52,-230.68 2313.51,-234.15 2323.5,-237.68 2323.52,-230.68"/>
</g>
<!-- table -->
<g id="node6" class="node">
<title>table</title>
<ellipse fill="none" stroke="black" cx="380" cy="-306" rx="28.83" ry="18"/>
<text text-anchor="middle" x="380" y="-300.95" font-family="Times,serif" font-size="14.00">table</text>
</g>
<!-- market&#45;&gt;table -->
<g id="edge5" class="edge">
<title>market&#45;&gt;table</title>
<path fill="none" stroke="black" d="M781.98,-876.83C653.88,-859.8 228,-783.59 228,-523 228,-523 228,-523 228,-449 228,-384.84 301.21,-341.34 346.01,-320.73"/>
<polygon fill="black" stroke="black" points="347.2,-323.59 354.92,-316.33 344.36,-317.19 347.2,-323.59"/>
</g>
<!-- guid -->
<g id="node7" class="node">
<title>guid</title>
<ellipse fill="none" stroke="black" cx="2484" cy="-306" rx="27.3" ry="18"/>
<text text-anchor="middle" x="2484" y="-300.95" font-family="Times,serif" font-size="14.00">guid</text>
</g>
<!-- market&#45;&gt;guid -->
<g id="edge6" class="edge">
<title>market&#45;&gt;guid</title>
<path fill="none" stroke="black" d="M855.02,-879.76C970.32,-875.66 1333.21,-860.84 1632,-828 1839.44,-805.2 1895.13,-812.6 2096,-756 2255.93,-710.93 2333.5,-738.69 2441,-612 2509.28,-531.53 2497.84,-393.88 2489.02,-335.03"/>
<polygon fill="black" stroke="black" points="2492.34,-334.67 2487.31,-325.35 2485.43,-335.77 2492.34,-334.67"/>
</g>
<!-- event -->
<g id="node8" class="node">
<title>event</title>
<ellipse fill="none" stroke="black" cx="2709" cy="-378" rx="30.88" ry="18"/>
<text text-anchor="middle" x="2709" y="-372.95" font-family="Times,serif" font-size="14.00">event</text>
</g>
<!-- market&#45;&gt;event -->
<g id="edge7" class="edge">
<title>market&#45;&gt;event</title>
<path fill="none" stroke="black" d="M855.18,-880.89C1101.85,-880.03 2497.81,-873.21 2681,-828 2764.18,-807.47 2852,-824.68 2852,-739 2852,-739 2852,-739 2852,-593 2852,-509.98 2776.69,-434.75 2735.37,-399.73"/>
<polygon fill="black" stroke="black" points="2738.04,-396.57 2728.11,-392.88 2733.57,-401.96 2738.04,-396.57"/>
</g>
<!-- account -->
<g id="node9" class="node">
<title>account</title>
<ellipse fill="none" stroke="black" cx="1894" cy="-450" rx="39.58" ry="18"/>
<text text-anchor="middle" x="1894" y="-444.95" font-family="Times,serif" font-size="14.00">account</text>
</g>
<!-- market&#45;&gt;account -->
<g id="edge8" class="edge">
<title>market&#45;&gt;account</title>
<path fill="none" stroke="black" d="M854.78,-878.58C1067.68,-864.23 2136.11,-787.36 2235,-684 2290.88,-625.59 2273.16,-553.17 2209,-504 2168.27,-472.79 2021.84,-459.01 1943.79,-453.76"/>
<polygon fill="black" stroke="black" points="1944.46,-450.24 1934.25,-453.08 1944.01,-457.22 1944.46,-450.24"/>
</g>
<!-- coin -->
<g id="node10" class="node">
<title>coin</title>
<ellipse fill="none" stroke="black" cx="1313" cy="-522" rx="27" ry="18"/>
<text text-anchor="middle" x="1313" y="-516.95" font-family="Times,serif" font-size="14.00">coin</text>
</g>
<!-- market&#45;&gt;coin -->
<g id="edge9" class="edge">
<title>market&#45;&gt;coin</title>
<path fill="none" stroke="black" d="M855.39,-880.61C937.84,-877.57 1128,-857.69 1128,-739 1128,-739 1128,-739 1128,-665 1128,-590.38 1223.89,-549.6 1277.6,-532.62"/>
<polygon fill="black" stroke="black" points="1278.5,-535.7 1287.05,-529.44 1276.46,-529 1278.5,-535.7"/>
</g>
<!-- avl_queue -->
<g id="node11" class="node">
<title>avl_queue</title>
<ellipse fill="none" stroke="black" cx="448" cy="-450" rx="48.79" ry="18"/>
<text text-anchor="middle" x="448" y="-444.95" font-family="Times,serif" font-size="14.00">avl_queue</text>
</g>
<!-- market&#45;&gt;avl_queue -->
<g id="edge10" class="edge">
<title>market&#45;&gt;avl_queue</title>
<path fill="none" stroke="black" d="M781.06,-879.16C738.59,-875.34 668.64,-863.65 621,-828 502.49,-739.3 462.76,-549.98 451.7,-478.81"/>
<polygon fill="black" stroke="black" points="455.04,-478.44 450.11,-469.06 448.11,-479.47 455.04,-478.44"/>
</g>
<!-- tablist -->
<g id="node12" class="node">
<title>tablist</title>
<ellipse fill="none" stroke="black" cx="592" cy="-594" rx="33.44" ry="18"/>
<text text-anchor="middle" x="592" y="-588.95" font-family="Times,serif" font-size="14.00">tablist</text>
</g>
<!-- market&#45;&gt;tablist -->
<g id="edge11" class="edge">
<title>market&#45;&gt;tablist</title>
<path fill="none" stroke="black" d="M784.64,-873.68C733.03,-860.34 635.43,-826.7 594,-756 569.74,-714.62 577.11,-656.37 584.6,-622.46"/>
<polygon fill="black" stroke="black" points="588.19,-623.5 587.1,-612.96 581.38,-621.88 588.19,-623.5"/>
</g>
<!-- resource_account -->
<g id="node13" class="node">
<title>resource_account</title>
<ellipse fill="none" stroke="black" cx="2597" cy="-522" rx="75.41" ry="18"/>
<text text-anchor="middle" x="2597" y="-516.95" font-family="Times,serif" font-size="14.00">resource_account</text>
</g>
<!-- market&#45;&gt;resource_account -->
<g id="edge12" class="edge">
<title>market&#45;&gt;resource_account</title>
<path fill="none" stroke="black" d="M855.3,-881.26C1074.47,-882.58 2196.88,-886.33 2536,-828 2663.86,-806.01 2814,-868.73 2814,-739 2814,-739 2814,-739 2814,-665 2814,-592.28 2727.63,-554.8 2663.87,-537.04"/>
<polygon fill="black" stroke="black" points="2665.01,-533.45 2654.45,-534.25 2663.2,-540.21 2665.01,-533.45"/>
</g>
<!-- incentives -->
<g id="node14" class="node">
<title>incentives</title>
<ellipse fill="none" stroke="black" cx="1647" cy="-666" rx="48.28" ry="18"/>
<text text-anchor="middle" x="1647" y="-660.95" font-family="Times,serif" font-size="14.00">incentives</text>
</g>
<!-- market&#45;&gt;incentives -->
<g id="edge13" class="edge">
<title>market&#45;&gt;incentives</title>
<path fill="none" stroke="black" d="M853.82,-876.88C913.92,-869.59 1038.63,-852.79 1142,-828 1315.95,-786.28 1516.91,-715.09 1603.56,-683.24"/>
<polygon fill="black" stroke="black" points="1604.62,-686.21 1612.79,-679.46 1602.2,-679.64 1604.62,-686.21"/>
</g>
<!-- registry -->
<g id="node15" class="node">
<title>registry</title>
<ellipse fill="none" stroke="black" cx="751" cy="-738" rx="39.07" ry="18"/>
<text text-anchor="middle" x="751" y="-732.95" font-family="Times,serif" font-size="14.00">registry</text>
</g>
<!-- market&#45;&gt;registry -->
<g id="edge14" class="edge">
<title>market&#45;&gt;registry</title>
<path fill="none" stroke="black" d="M810.05,-864.15C798.57,-839.81 777.22,-794.57 763.58,-765.67"/>
<polygon fill="black" stroke="black" points="766.37,-764.38 758.94,-756.82 760.04,-767.36 766.37,-764.38"/>
</g>
<!-- user -->
<g id="node16" class="node">
<title>user</title>
<ellipse fill="none" stroke="black" cx="725" cy="-810" rx="27" ry="18"/>
<text text-anchor="middle" x="725" y="-804.95" font-family="Times,serif" font-size="14.00">user</text>
</g>
<!-- market&#45;&gt;user -->
<g id="edge15" class="edge">
<title>market&#45;&gt;user</title>
<path fill="none" stroke="black" d="M798.73,-866.5C784.85,-856.05 765.98,-841.85 750.81,-830.42"/>
<polygon fill="black" stroke="black" points="753.46,-827.29 743.36,-824.07 749.25,-832.88 753.46,-827.29"/>
</g>
<!-- vector -->
<g id="node17" class="node">
<title>vector</title>
<ellipse fill="none" stroke="black" cx="1212" cy="-18" rx="33.95" ry="18"/>
<text text-anchor="middle" x="1212" y="-12.95" font-family="Times,serif" font-size="14.00">vector</text>
</g>
<!-- option&#45;&gt;vector -->
<g id="edge16" class="edge">
<title>option&#45;&gt;vector</title>
<path fill="none" stroke="black" d="M850.24,-83.27C921.07,-70.69 1090.22,-40.64 1169.56,-26.54"/>
<polygon fill="black" stroke="black" points="1169.91,-29.86 1179.14,-24.66 1168.68,-22.96 1169.91,-29.86"/>
</g>
<!-- string&#45;&gt;option -->
<g id="edge18" class="edge">
<title>string&#45;&gt;option</title>
<path fill="none" stroke="black" d="M555.58,-150.83C562.17,-148.41 569.3,-145.96 576,-144 644.55,-123.93 726,-107.6 774.76,-98.6"/>
<polygon fill="black" stroke="black" points="775.33,-101.87 784.54,-96.63 774.08,-94.98 775.33,-101.87"/>
</g>
<!-- string&#45;&gt;vector -->
<g id="edge17" class="edge">
<title>string&#45;&gt;vector</title>
<path fill="none" stroke="black" d="M554.46,-149.98C597.91,-130.89 691.8,-91.83 775,-72 915.94,-38.42 1087.79,-25.51 1167.48,-21.07"/>
<polygon fill="black" stroke="black" points="1167.3,-24.53 1177.1,-20.5 1166.93,-17.54 1167.3,-24.53"/>
</g>
<!-- type_info&#45;&gt;string -->
<g id="edge19" class="edge">
<title>type_info&#45;&gt;string</title>
<path fill="none" stroke="black" d="M2220.28,-230.38C2157.7,-226.83 2041.87,-220.46 1943,-216 1402.44,-191.64 745.2,-169.94 572.96,-164.37"/>
<polygon fill="black" stroke="black" points="573.2,-160.85 563.1,-164.02 572.98,-167.84 573.2,-160.85"/>
</g>
<!-- error -->
<g id="node18" class="node">
<title>error</title>
<ellipse fill="none" stroke="black" cx="2038" cy="-90" rx="28.83" ry="18"/>
<text text-anchor="middle" x="2038" y="-84.95" font-family="Times,serif" font-size="14.00">error</text>
</g>
<!-- type_info&#45;&gt;error -->
<g id="edge20" class="edge">
<title>type_info&#45;&gt;error</title>
<path fill="none" stroke="black" d="M2275.95,-215.95C2285.89,-196.42 2297.51,-164.5 2281,-144 2255.9,-112.83 2139.74,-99.01 2077.55,-93.76"/>
<polygon fill="black" stroke="black" points="2078.22,-90.22 2067.97,-92.9 2077.65,-97.2 2078.22,-90.22"/>
</g>
<!-- features -->
<g id="node19" class="node">
<title>features</title>
<ellipse fill="none" stroke="black" cx="1970" cy="-162" rx="40.09" ry="18"/>
<text text-anchor="middle" x="1970" y="-156.95" font-family="Times,serif" font-size="14.00">features</text>
</g>
<!-- type_info&#45;&gt;features -->
<g id="edge21" class="edge">
<title>type_info&#45;&gt;features</title>
<path fill="none" stroke="black" d="M2227.3,-223.85C2172.83,-210.97 2073.73,-187.53 2015.7,-173.81"/>
<polygon fill="black" stroke="black" points="2016.55,-170.18 2006.02,-171.28 2014.94,-176.99 2016.55,-170.18"/>
</g>
<!-- bcs -->
<g id="node20" class="node">
<title>bcs</title>
<ellipse fill="none" stroke="black" cx="2245" cy="-162" rx="27" ry="18"/>
<text text-anchor="middle" x="2245" y="-156.95" font-family="Times,serif" font-size="14.00">bcs</text>
</g>
<!-- type_info&#45;&gt;bcs -->
<g id="edge22" class="edge">
<title>type_info&#45;&gt;bcs</title>
<path fill="none" stroke="black" d="M2260.81,-215.7C2258.52,-208.07 2255.77,-198.92 2253.22,-190.4"/>
<polygon fill="black" stroke="black" points="2256.36,-189.68 2250.13,-181.1 2249.65,-191.69 2256.36,-189.68"/>
</g>
<!-- event&#45;&gt;guid -->
<g id="edge26" class="edge">
<title>event&#45;&gt;guid</title>
<path fill="none" stroke="black" d="M2685.08,-366.27C2679.83,-364.07 2674.26,-361.86 2669,-360 2617.98,-341.93 2557.44,-325.5 2519.87,-315.88"/>
<polygon fill="black" stroke="black" points="2521,-312.3 2510.45,-313.23 2519.28,-319.09 2521,-312.3"/>
</g>
<!-- event&#45;&gt;error -->
<g id="edge23" class="edge">
<title>event&#45;&gt;error</title>
<path fill="none" stroke="black" d="M2699.13,-360.78C2671.22,-316.61 2586.79,-194.13 2480,-144 2408.99,-110.67 2172.67,-96.87 2077.86,-92.59"/>
<polygon fill="black" stroke="black" points="2078.17,-89.05 2068.02,-92.11 2077.86,-96.05 2078.17,-89.05"/>
</g>
<!-- event&#45;&gt;features -->
<g id="edge24" class="edge">
<title>event&#45;&gt;features</title>
<path fill="none" stroke="black" d="M2684.89,-366.57C2660.94,-356.11 2623.22,-339.39 2591,-324 2559.08,-308.75 2552.47,-302.04 2520,-288 2509.21,-283.33 2332.4,-218.89 2321,-216 2215.61,-189.26 2088.77,-174.2 2020.11,-167.43"/>
<polygon fill="black" stroke="black" points="2020.48,-163.85 2010.19,-166.37 2019.81,-170.82 2020.48,-163.85"/>
</g>
<!-- event&#45;&gt;bcs -->
<g id="edge25" class="edge">
<title>event&#45;&gt;bcs</title>
<path fill="none" stroke="black" d="M2692.82,-362.47C2670.97,-343.41 2630.24,-309.83 2591,-288 2484.69,-228.85 2345.03,-188.52 2280.5,-171.75"/>
<polygon fill="black" stroke="black" points="2281.63,-168.17 2271.08,-169.08 2279.89,-174.95 2281.63,-168.17"/>
</g>
<!-- account&#45;&gt;option -->
<g id="edge28" class="edge">
<title>account&#45;&gt;option</title>
<path fill="none" stroke="black" d="M1854.6,-447.27C1789.31,-443.46 1655.27,-431.63 1548,-396 1386.48,-342.35 1366.83,-282.12 1210,-216 1085.73,-163.6 931.54,-120.5 859.16,-101.48"/>
<polygon fill="black" stroke="black" points="860.23,-97.89 849.67,-98.75 858.46,-104.66 860.23,-97.89"/>
</g>
<!-- account&#45;&gt;signer -->
<g id="edge29" class="edge">
<title>account&#45;&gt;signer</title>
<path fill="none" stroke="black" d="M1855.15,-445.92C1783.76,-439.66 1635.06,-423.64 1592,-396 1510.25,-343.52 1535.23,-286.13 1468,-216 1426.24,-172.44 1368.18,-132.44 1332.95,-109.94"/>
<polygon fill="black" stroke="black" points="1334.98,-106.45 1324.65,-104.07 1331.24,-112.37 1334.98,-106.45"/>
</g>
<!-- account&#45;&gt;type_info -->
<g id="edge32" class="edge">
<title>account&#45;&gt;type_info</title>
<path fill="none" stroke="black" d="M1933.39,-447.03C2007.34,-442.59 2163.19,-429.43 2204,-396 2225.17,-378.66 2247.71,-304.03 2258.88,-262.74"/>
<polygon fill="black" stroke="black" points="2262.47,-263.86 2261.65,-253.3 2255.7,-262.07 2262.47,-263.86"/>
</g>
<!-- account&#45;&gt;table -->
<g id="edge33" class="edge">
<title>account&#45;&gt;table</title>
<path fill="none" stroke="black" d="M1854.75,-446.88C1743.02,-440.7 1413.71,-421.53 1141,-396 863.79,-370.05 531.15,-327.04 419.04,-312.21"/>
<polygon fill="black" stroke="black" points="419.66,-308.63 409.28,-310.79 418.74,-315.57 419.66,-308.63"/>
</g>
<!-- account&#45;&gt;guid -->
<g id="edge38" class="edge">
<title>account&#45;&gt;guid</title>
<path fill="none" stroke="black" d="M1933.72,-448.15C2037.17,-445.42 2312.56,-434.61 2394,-396 2424.44,-381.57 2450.7,-352.5 2466.87,-331.51"/>
<polygon fill="black" stroke="black" points="2470.2,-333.9 2473.36,-323.79 2464.58,-329.72 2470.2,-333.9"/>
</g>
<!-- account&#45;&gt;event -->
<g id="edge40" class="edge">
<title>account&#45;&gt;event</title>
<path fill="none" stroke="black" d="M1933.52,-448.03C2070.9,-444.4 2527.03,-430 2669,-396 2671.18,-395.48 2673.39,-394.85 2675.6,-394.14"/>
<polygon fill="black" stroke="black" points="2676.57,-397.15 2684.75,-390.41 2674.16,-390.58 2676.57,-397.15"/>
</g>
<!-- account&#45;&gt;vector -->
<g id="edge27" class="edge">
<title>account&#45;&gt;vector</title>
<path fill="none" stroke="black" d="M1854.43,-448.85C1801.74,-446.93 1707.36,-437.38 1640,-396 1552.71,-342.37 1565.1,-291.64 1496,-216 1464.83,-181.89 1454.54,-175.78 1421,-144 1386.99,-111.78 1383.53,-97.16 1344,-72 1315.22,-53.68 1279.06,-39.7 1251.86,-30.71"/>
<polygon fill="black" stroke="black" points="1253.14,-27.12 1242.55,-27.39 1251,-33.78 1253.14,-27.12"/>
</g>
<!-- account&#45;&gt;error -->
<g id="edge30" class="edge">
<title>account&#45;&gt;error</title>
<path fill="none" stroke="black" d="M1933.22,-446.8C2010.87,-441.81 2180.84,-427.52 2229,-396 2292.54,-354.41 2299.7,-324.9 2321,-252 2334.71,-205.06 2336,-177.09 2300,-144 2267.94,-114.54 2142.12,-99.79 2077.21,-94.02"/>
<polygon fill="black" stroke="black" points="2077.85,-90.47 2067.58,-93.1 2077.25,-97.45 2077.85,-90.47"/>
</g>
<!-- account&#45;&gt;bcs -->
<g id="edge31" class="edge">
<title>account&#45;&gt;bcs</title>
<path fill="none" stroke="black" d="M1932.75,-445.71C1996.37,-439.57 2119.11,-424.32 2151,-396 2214.05,-340 2174.62,-292.08 2211,-216 2215.64,-206.29 2221.74,-196.22 2227.49,-187.49"/>
<polygon fill="black" stroke="black" points="2230.78,-189.87 2233.5,-179.63 2224.99,-185.94 2230.78,-189.87"/>
</g>
<!-- system_addresses -->
<g id="node21" class="node">
<title>system_addresses</title>
<ellipse fill="none" stroke="black" cx="1711" cy="-306" rx="76.94" ry="18"/>
<text text-anchor="middle" x="1711" y="-300.95" font-family="Times,serif" font-size="14.00">system_addresses</text>
</g>
<!-- account&#45;&gt;system_addresses -->
<g id="edge34" class="edge">
<title>account&#45;&gt;system_addresses</title>
<path fill="none" stroke="black" d="M1902.63,-432.05C1911.17,-412.62 1920.87,-380.79 1905,-360 1890.28,-340.71 1834.36,-326.75 1786.31,-318.01"/>
<polygon fill="black" stroke="black" points="1787.02,-314.4 1776.57,-316.12 1785.81,-321.3 1787.02,-314.4"/>
</g>
<!-- hash -->
<g id="node22" class="node">
<title>hash</title>
<ellipse fill="none" stroke="black" cx="1906" cy="-234" rx="27.81" ry="18"/>
<text text-anchor="middle" x="1906" y="-228.95" font-family="Times,serif" font-size="14.00">hash</text>
</g>
<!-- account&#45;&gt;hash -->
<g id="edge35" class="edge">
<title>account&#45;&gt;hash</title>
<path fill="none" stroke="black" d="M1855.06,-445.81C1795.6,-440.04 1686.59,-425.61 1663,-396 1594.02,-309.4 1725.26,-360.77 1797,-324 1830.78,-306.69 1863.71,-277.61 1884.37,-257.42"/>
<polygon fill="black" stroke="black" points="1886.31,-260.43 1890.93,-250.9 1881.37,-255.47 1886.31,-260.43"/>
</g>
<!-- ed25519 -->
<g id="node23" class="node">
<title>ed25519</title>
<ellipse fill="none" stroke="black" cx="2043" cy="-306" rx="42.65" ry="18"/>
<text text-anchor="middle" x="2043" y="-300.95" font-family="Times,serif" font-size="14.00">ed25519</text>
</g>
<!-- account&#45;&gt;ed25519 -->
<g id="edge36" class="edge">
<title>account&#45;&gt;ed25519</title>
<path fill="none" stroke="black" d="M1932.78,-446.15C1993.92,-440.76 2108.33,-426.74 2133,-396 2143.01,-383.52 2140.94,-373.89 2133,-360 2122.83,-342.2 2104.08,-329.79 2086.33,-321.47"/>
<polygon fill="black" stroke="black" points="2088.19,-318.03 2077.62,-317.27 2085.41,-324.45 2088.19,-318.03"/>
</g>
<!-- multi_ed25519 -->
<g id="node24" class="node">
<title>multi_ed25519</title>
<ellipse fill="none" stroke="black" cx="2057" cy="-378" rx="67.22" ry="18"/>
<text text-anchor="middle" x="2057" y="-372.95" font-family="Times,serif" font-size="14.00">multi_ed25519</text>
</g>
<!-- account&#45;&gt;multi_ed25519 -->
<g id="edge37" class="edge">
<title>account&#45;&gt;multi_ed25519</title>
<path fill="none" stroke="black" d="M1922.02,-436.97C1946.94,-426.27 1983.79,-410.44 2012.7,-398.03"/>
<polygon fill="black" stroke="black" points="2013.75,-400.95 2021.56,-393.79 2010.99,-394.52 2013.75,-400.95"/>
</g>
<!-- from_bcs -->
<g id="node25" class="node">
<title>from_bcs</title>
<ellipse fill="none" stroke="black" cx="1155" cy="-234" rx="46.23" ry="18"/>
<text text-anchor="middle" x="1155" y="-228.95" font-family="Times,serif" font-size="14.00">from_bcs</text>
</g>
<!-- account&#45;&gt;from_bcs -->
<g id="edge39" class="edge">
<title>account&#45;&gt;from_bcs</title>
<path fill="none" stroke="black" d="M1854.62,-447.11C1785.05,-442.97 1636.39,-430.54 1516,-396 1390.77,-360.07 1252.75,-288.89 1189.78,-254.5"/>
<polygon fill="black" stroke="black" points="1191.78,-251.06 1181.33,-249.31 1188.41,-257.19 1191.78,-251.06"/>
</g>
<!-- create_signer -->
<g id="node26" class="node">
<title>create_signer</title>
<ellipse fill="none" stroke="black" cx="1732" cy="-378" rx="60.05" ry="18"/>
<text text-anchor="middle" x="1732" y="-372.95" font-family="Times,serif" font-size="14.00">create_signer</text>
</g>
<!-- account&#45;&gt;create_signer -->
<g id="edge41" class="edge">
<title>account&#45;&gt;create_signer</title>
<path fill="none" stroke="black" d="M1866.15,-436.97C1841.15,-426.16 1804.04,-410.13 1775.19,-397.66"/>
<polygon fill="black" stroke="black" points="1776.93,-394.17 1766.36,-393.41 1774.15,-400.59 1776.93,-394.17"/>
</g>
<!-- chain_id -->
<g id="node27" class="node">
<title>chain_id</title>
<ellipse fill="none" stroke="black" cx="1853" cy="-378" rx="42.65" ry="18"/>
<text text-anchor="middle" x="1853" y="-372.95" font-family="Times,serif" font-size="14.00">chain_id</text>
</g>
<!-- account&#45;&gt;chain_id -->
<g id="edge42" class="edge">
<title>account&#45;&gt;chain_id</title>
<path fill="none" stroke="black" d="M1884.28,-432.41C1879.55,-424.34 1873.75,-414.43 1868.44,-405.35"/>
<polygon fill="black" stroke="black" points="1871.01,-403.82 1862.93,-396.96 1864.97,-407.35 1871.01,-403.82"/>
</g>
<!-- coin&#45;&gt;option -->
<g id="edge43" class="edge">
<title>coin&#45;&gt;option</title>
<path fill="none" stroke="black" d="M1286.37,-518.42C1226.93,-512.25 1085.67,-495.07 1047,-468 917.78,-377.53 848.25,-188.58 826.01,-118.19"/>
<polygon fill="black" stroke="black" points="829.14,-117.47 822.85,-108.95 822.45,-119.53 829.14,-117.47"/>
</g>
<!-- coin&#45;&gt;string -->
<g id="edge44" class="edge">
<title>coin&#45;&gt;string</title>
<path fill="none" stroke="black" d="M1285.86,-521.23C1140.99,-522.2 462.81,-523.72 390,-468 324.25,-417.68 302.89,-360.97 342,-288 373.71,-228.83 447.14,-192.89 492.27,-175.57"/>
<polygon fill="black" stroke="black" points="493.38,-178.52 501.54,-171.76 490.95,-171.96 493.38,-178.52"/>
</g>
<!-- coin&#45;&gt;signer -->
<g id="edge45" class="edge">
<title>coin&#45;&gt;signer</title>
<path fill="none" stroke="black" d="M1314.46,-503.63C1316.42,-479.5 1319.77,-434.47 1321,-396 1324.27,-293.74 1311.83,-172.46 1305.49,-118.85"/>
<polygon fill="black" stroke="black" points="1308.88,-118.69 1304.21,-109.18 1301.93,-119.53 1308.88,-118.69"/>
</g>
<!-- coin&#45;&gt;type_info -->
<g id="edge47" class="edge">
<title>coin&#45;&gt;type_info</title>
<path fill="none" stroke="black" d="M1340.03,-521.35C1477.33,-522.54 2096.07,-520.86 2229,-396 2265.5,-361.72 2269.42,-299.3 2268.23,-263.08"/>
<polygon fill="black" stroke="black" points="2271.68,-263.12 2267.69,-253.31 2264.69,-263.47 2271.68,-263.12"/>
</g>
<!-- coin&#45;&gt;event -->
<g id="edge49" class="edge">
<title>coin&#45;&gt;event</title>
<path fill="none" stroke="black" d="M1340.42,-520.78C1455.38,-519.6 1909.79,-512.22 2280,-468 2454.58,-447.15 2500.64,-446.69 2669,-396 2671.14,-395.35 2673.33,-394.63 2675.52,-393.85"/>
<polygon fill="black" stroke="black" points="2676.56,-396.81 2684.63,-389.94 2674.04,-390.29 2676.56,-396.81"/>
</g>
<!-- coin&#45;&gt;account -->
<g id="edge50" class="edge">
<title>coin&#45;&gt;account</title>
<path fill="none" stroke="black" d="M1339.47,-517.81C1429.91,-506.92 1727.46,-471.06 1845.31,-456.87"/>
<polygon fill="black" stroke="black" points="1845.63,-460.23 1855.14,-455.56 1844.8,-453.28 1845.63,-460.23"/>
</g>
<!-- coin&#45;&gt;error -->
<g id="edge46" class="edge">
<title>coin&#45;&gt;error</title>
<path fill="none" stroke="black" d="M1328.84,-506.89C1391.73,-451.63 1631.76,-247.84 1865,-144 1910.12,-123.91 1965.08,-108.51 2000.77,-99.61"/>
<polygon fill="black" stroke="black" points="2001.31,-102.84 2010.19,-97.06 1999.65,-96.04 2001.31,-102.84"/>
</g>
<!-- coin&#45;&gt;system_addresses -->
<g id="edge48" class="edge">
<title>coin&#45;&gt;system_addresses</title>
<path fill="none" stroke="black" d="M1337.94,-514.6C1369.23,-506.1 1424.11,-489.6 1468,-468 1511.01,-446.83 1623.45,-368.82 1679,-329.69"/>
<polygon fill="black" stroke="black" points="1680.57,-332.16 1686.72,-323.53 1676.53,-326.44 1680.57,-332.16"/>
</g>
<!-- aggregator -->
<g id="node28" class="node">
<title>aggregator</title>
<ellipse fill="none" stroke="black" cx="1086" cy="-306" rx="50.33" ry="18"/>
<text text-anchor="middle" x="1086" y="-300.95" font-family="Times,serif" font-size="14.00">aggregator</text>
</g>
<!-- coin&#45;&gt;aggregator -->
<g id="edge51" class="edge">
<title>coin&#45;&gt;aggregator</title>
<path fill="none" stroke="black" d="M1286.13,-519.38C1227.8,-515.26 1092.62,-502.15 1065,-468 1033.86,-429.5 1055.34,-368.03 1071.89,-333.24"/>
<polygon fill="black" stroke="black" points="1075.28,-335.28 1076.59,-324.77 1069.01,-332.17 1075.28,-335.28"/>
</g>
<!-- aggregator_factory -->
<g id="node29" class="node">
<title>aggregator_factory</title>
<ellipse fill="none" stroke="black" cx="1231" cy="-378" rx="81.04" ry="18"/>
<text text-anchor="middle" x="1231" y="-372.95" font-family="Times,serif" font-size="14.00">aggregator_factory</text>
</g>
<!-- coin&#45;&gt;aggregator_factory -->
<g id="edge52" class="edge">
<title>coin&#45;&gt;aggregator_factory</title>
<path fill="none" stroke="black" d="M1303.59,-504.71C1289.53,-480.36 1262.9,-434.24 1246.09,-405.14"/>
<polygon fill="black" stroke="black" points="1248.84,-403.89 1240.8,-396.98 1242.77,-407.39 1248.84,-403.89"/>
</g>
<!-- optional_aggregator -->
<g id="node30" class="node">
<title>optional_aggregator</title>
<ellipse fill="none" stroke="black" cx="1159" cy="-450" rx="85.13" ry="18"/>
<text text-anchor="middle" x="1159" y="-444.95" font-family="Times,serif" font-size="14.00">optional_aggregator</text>
</g>
<!-- coin&#45;&gt;optional_aggregator -->
<g id="edge53" class="edge">
<title>coin&#45;&gt;optional_aggregator</title>
<path fill="none" stroke="black" d="M1290.94,-510.97C1268.24,-500.66 1232.27,-484.31 1203.62,-471.28"/>
<polygon fill="black" stroke="black" points="1205.37,-467.78 1194.82,-466.83 1202.48,-474.15 1205.37,-467.78"/>
</g>
<!-- avl_queue&#45;&gt;option -->
<g id="edge54" class="edge">
<title>avl_queue&#45;&gt;option</title>
<path fill="none" stroke="black" d="M441.32,-431.76C435.25,-413.44 428.46,-383.9 437,-360 447.44,-330.78 587.86,-160.72 614,-144 627.69,-135.24 720.62,-113.11 776.22,-100.39"/>
<polygon fill="black" stroke="black" points="776.84,-103.61 785.81,-97.98 775.28,-96.79 776.84,-103.61"/>
</g>
<!-- avl_queue&#45;&gt;table -->
<g id="edge55" class="edge">
<title>avl_queue&#45;&gt;table</title>
<path fill="none" stroke="black" d="M431.28,-432.69C422.04,-422.84 411.04,-409.59 404,-396 394.05,-376.79 387.91,-353.06 384.34,-334.93"/>
<polygon fill="black" stroke="black" points="387.62,-334.41 382.39,-325.19 380.73,-335.66 387.62,-334.41"/>
</g>
<!-- table_with_length -->
<g id="node31" class="node">
<title>table_with_length</title>
<ellipse fill="none" stroke="black" cx="523" cy="-378" rx="77.45" ry="18"/>
<text text-anchor="middle" x="523" y="-372.95" font-family="Times,serif" font-size="14.00">table_with_length</text>
</g>
<!-- avl_queue&#45;&gt;table_with_length -->
<g id="edge56" class="edge">
<title>avl_queue&#45;&gt;table_with_length</title>
<path fill="none" stroke="black" d="M465.4,-432.76C474.75,-424.03 486.48,-413.09 496.9,-403.36"/>
<polygon fill="black" stroke="black" points="498.99,-406.26 503.92,-396.88 494.22,-401.14 498.99,-406.26"/>
</g>
<!-- tablist&#45;&gt;option -->
<g id="edge57" class="edge">
<title>tablist&#45;&gt;option</title>
<path fill="none" stroke="black" d="M595.72,-575.69C604.91,-531.27 628,-409.59 628,-307 628,-307 628,-307 628,-233 628,-159.11 721.34,-119.04 777.18,-101.68"/>
<polygon fill="black" stroke="black" points="777.89,-104.82 786.47,-98.6 775.89,-98.11 777.89,-104.82"/>
</g>
<!-- tablist&#45;&gt;table_with_length -->
<g id="edge58" class="edge">
<title>tablist&#45;&gt;table_with_length</title>
<path fill="none" stroke="black" d="M586.47,-575.85C574.56,-538.91 546.39,-451.55 531.92,-406.67"/>
<polygon fill="black" stroke="black" points="534.96,-405.68 528.56,-397.23 528.29,-407.82 534.96,-405.68"/>
</g>
<!-- resource_account&#45;&gt;account -->
<g id="edge60" class="edge">
<title>resource_account&#45;&gt;account</title>
<path fill="none" stroke="black" d="M2528.31,-514.16C2386.93,-500.08 2066.34,-468.16 1943.32,-455.91"/>
<polygon fill="black" stroke="black" points="1943.69,-452.33 1933.39,-454.82 1943,-459.3 1943.69,-452.33"/>
</g>
<!-- resource_account&#45;&gt;bcs -->
<g id="edge59" class="edge">
<title>resource_account&#45;&gt;bcs</title>
<path fill="none" stroke="black" d="M2632.26,-505.68C2687.32,-479.43 2783.97,-422.58 2749,-360 2654.24,-190.42 2383.73,-166.26 2283.22,-163.24"/>
<polygon fill="black" stroke="black" points="2283.46,-159.72 2273.37,-162.98 2283.29,-166.72 2283.46,-159.72"/>
</g>
<!-- timestamp -->
<g id="node32" class="node">
<title>timestamp</title>
<ellipse fill="none" stroke="black" cx="2610" cy="-378" rx="50.33" ry="18"/>
<text text-anchor="middle" x="2610" y="-372.95" font-family="Times,serif" font-size="14.00">timestamp</text>
</g>
<!-- resource_account&#45;&gt;timestamp -->
<g id="edge61" class="edge">
<title>resource_account&#45;&gt;timestamp</title>
<path fill="none" stroke="black" d="M2598.59,-503.59C2600.8,-479.5 2604.8,-435.75 2607.43,-407.03"/>
<polygon fill="black" stroke="black" points="2611.01,-407.39 2608.43,-397.11 2604.04,-406.75 2611.01,-407.39"/>
</g>
<!-- incentives&#45;&gt;signer -->
<g id="edge63" class="edge">
<title>incentives&#45;&gt;signer</title>
<path fill="none" stroke="black" d="M1598.44,-665.46C1482.05,-663.67 1186.52,-641.4 1047,-468 996.54,-405.29 995.94,-362.26 1027,-288 1069.72,-185.87 1198.63,-127.33 1263.64,-103.56"/>
<polygon fill="black" stroke="black" points="1264.63,-106.57 1272.88,-99.91 1262.28,-99.97 1264.63,-106.57"/>
</g>
<!-- incentives&#45;&gt;type_info -->
<g id="edge64" class="edge">
<title>incentives&#45;&gt;type_info</title>
<path fill="none" stroke="black" d="M1691.68,-658.82C1804.57,-640.76 2103.04,-577.38 2255,-396 2286.71,-358.16 2287.79,-336.9 2281,-288 2279.83,-279.53 2277.64,-270.52 2275.3,-262.37"/>
<polygon fill="black" stroke="black" points="2278.37,-261.46 2272.08,-252.93 2271.68,-263.52 2278.37,-261.46"/>
</g>
<!-- incentives&#45;&gt;coin -->
<g id="edge65" class="edge">
<title>incentives&#45;&gt;coin</title>
<path fill="none" stroke="black" d="M1615.88,-651.77C1552.68,-624.9 1409.84,-564.17 1345.5,-536.82"/>
<polygon fill="black" stroke="black" points="1347.09,-533.26 1336.51,-532.57 1344.35,-539.7 1347.09,-533.26"/>
</g>
<!-- incentives&#45;&gt;tablist -->
<g id="edge67" class="edge">
<title>incentives&#45;&gt;tablist</title>
<path fill="none" stroke="black" d="M1599.62,-661.86C1423.35,-650.16 806.91,-609.26 636.15,-597.93"/>
<polygon fill="black" stroke="black" points="636.53,-594.38 626.32,-597.21 636.07,-601.37 636.53,-594.38"/>
</g>
<!-- incentives&#45;&gt;resource_account -->
<g id="edge68" class="edge">
<title>incentives&#45;&gt;resource_account</title>
<path fill="none" stroke="black" d="M1695.45,-664.08C1801.99,-661.36 2064.31,-650.94 2280,-612 2375.19,-594.81 2483.04,-561.46 2545.22,-540.83"/>
<polygon fill="black" stroke="black" points="2546.17,-543.87 2554.54,-537.38 2543.95,-537.23 2546.17,-543.87"/>
</g>
<!-- incentives&#45;&gt;vector -->
<g id="edge62" class="edge">
<title>incentives&#45;&gt;vector</title>
<path fill="none" stroke="black" d="M1694.89,-663.08C1810.89,-658.08 2116.05,-642.84 2369,-612 2557.43,-589.02 2610.31,-601.2 2790,-540 2869.98,-512.76 2958,-535.5 2958,-451 2958,-451 2958,-451 2958,-161 2958,-129.02 3448.26,-179.39 2523,-72 2269.82,-42.62 1457.5,-24.1 1257.04,-19.91"/>
<polygon fill="black" stroke="black" points="1257.14,-16.39 1247.07,-19.68 1256.99,-23.39 1257.14,-16.39"/>
</g>
<!-- aptos_coin -->
<g id="node33" class="node">
<title>aptos_coin</title>
<ellipse fill="none" stroke="black" cx="1647" cy="-594" rx="50.84" ry="18"/>
<text text-anchor="middle" x="1647" y="-588.95" font-family="Times,serif" font-size="14.00">aptos_coin</text>
</g>
<!-- incentives&#45;&gt;aptos_coin -->
<g id="edge66" class="edge">
<title>incentives&#45;&gt;aptos_coin</title>
<path fill="none" stroke="black" d="M1647,-647.7C1647,-640.24 1647,-631.32 1647,-622.97"/>
<polygon fill="black" stroke="black" points="1650.5,-623.1 1647,-613.1 1643.5,-623.1 1650.5,-623.1"/>
</g>
<!-- registry&#45;&gt;option -->
<g id="edge69" class="edge">
<title>registry&#45;&gt;option</title>
<path fill="none" stroke="black" d="M749.18,-719.53C746.55,-692.76 742,-639.96 742,-595 742,-595 742,-595 742,-377 742,-272.9 721.73,-238.22 766,-144 771.64,-132 781.14,-121.08 790.49,-112.32"/>
<polygon fill="black" stroke="black" points="792.38,-115.44 797.57,-106.2 787.76,-110.19 792.38,-115.44"/>
</g>
<!-- registry&#45;&gt;string -->
<g id="edge70" class="edge">
<title>registry&#45;&gt;string</title>
<path fill="none" stroke="black" d="M714.62,-731.28C590.31,-710.7 190,-635.71 190,-523 190,-523 190,-523 190,-305 190,-177.73 395.35,-162.51 486.87,-162.05"/>
<polygon fill="black" stroke="black" points="486.7,-165.55 496.71,-162.06 486.71,-158.55 486.7,-165.55"/>
</g>
<!-- registry&#45;&gt;signer -->
<g id="edge71" class="edge">
<title>registry&#45;&gt;signer</title>
<path fill="none" stroke="black" d="M756.87,-719.74C765.34,-693.25 780,-640.79 780,-595 780,-595 780,-595 780,-233 780,-166.96 837.83,-168.89 899,-144 963.39,-117.8 1167.39,-100.53 1257.95,-93.97"/>
<polygon fill="black" stroke="black" points="1257.95,-97.41 1267.67,-93.2 1257.45,-90.43 1257.95,-97.41"/>
</g>
<!-- registry&#45;&gt;type_info -->
<g id="edge72" class="edge">
<title>registry&#45;&gt;type_info</title>
<path fill="none" stroke="black" d="M790.24,-735.99C946.37,-731.78 1523.76,-714.47 1704,-684 1818.43,-664.66 1846.17,-652.3 1955,-612 2117.99,-551.64 2200.12,-549.84 2281,-396 2303.58,-353.05 2309.69,-334.83 2297,-288 2294.44,-278.53 2289.71,-269.03 2284.71,-260.73"/>
<polygon fill="black" stroke="black" points="2287.19,-259.12 2278.82,-252.62 2281.31,-262.92 2287.19,-259.12"/>
</g>
<!-- registry&#45;&gt;table -->
<g id="edge73" class="edge">
<title>registry&#45;&gt;table</title>
<path fill="none" stroke="black" d="M720.95,-725.98C647.41,-697.14 459.35,-611.57 390,-468 369.3,-425.14 371.68,-368.23 375.61,-334.81"/>
<polygon fill="black" stroke="black" points="379.2,-335.4 377.04,-325.03 372.26,-334.49 379.2,-335.4"/>
</g>
<!-- registry&#45;&gt;event -->
<g id="edge74" class="edge">
<title>registry&#45;&gt;event</title>
<path fill="none" stroke="black" d="M790.48,-736.93C993.45,-736.35 1920.76,-731.11 2204,-684 2422.45,-647.66 2534.17,-705.77 2681,-540 2713.76,-503.01 2714.91,-441.84 2712.29,-406.51"/>
<polygon fill="black" stroke="black" points="2715.73,-406.65 2711.34,-397.01 2708.76,-407.28 2715.73,-406.65"/>
</g>
<!-- registry&#45;&gt;account -->
<g id="edge75" class="edge">
<title>registry&#45;&gt;account</title>
<path fill="none" stroke="black" d="M784.9,-728.52C949.28,-687.39 1663.1,-508.78 1849.39,-462.16"/>
<polygon fill="black" stroke="black" points="1850.04,-465.36 1858.89,-459.53 1848.34,-458.57 1850.04,-465.36"/>
</g>
<!-- registry&#45;&gt;coin -->
<g id="edge76" class="edge">
<title>registry&#45;&gt;coin</title>
<path fill="none" stroke="black" d="M764.21,-720.79C772.74,-710.32 784.05,-696.38 794,-684 832.44,-636.17 826.45,-605.96 880,-576 947.41,-538.29 1182.33,-527.02 1274.99,-524"/>
<polygon fill="black" stroke="black" points="1274.94,-527.48 1284.83,-523.67 1274.72,-520.48 1274.94,-527.48"/>
</g>
<!-- registry&#45;&gt;tablist -->
<g id="edge77" class="edge">
<title>registry&#45;&gt;tablist</title>
<path fill="none" stroke="black" d="M740.45,-720.44C727.74,-701.38 704.97,-669.89 680,-648 663.74,-633.75 643.15,-621.11 625.98,-611.75"/>
<polygon fill="black" stroke="black" points="627.79,-608.23 617.32,-606.64 624.52,-614.41 627.79,-608.23"/>
</g>
<!-- registry&#45;&gt;incentives -->
<g id="edge78" class="edge">
<title>registry&#45;&gt;incentives</title>
<path fill="none" stroke="black" d="M790.24,-737.16C909.85,-737.08 1280.14,-732.64 1582,-684 1587.76,-683.07 1593.75,-681.86 1599.66,-680.51"/>
<polygon fill="black" stroke="black" points="1600.25,-683.72 1609.14,-677.95 1598.59,-676.92 1600.25,-683.72"/>
</g>
<!-- user&#45;&gt;option -->
<g id="edge80" class="edge">
<title>user&#45;&gt;option</title>
<path fill="none" stroke="black" d="M698.75,-804.99C577.34,-784.82 76,-683.11 76,-379 76,-379 76,-379 76,-233 76,-161.59 612.95,-108.92 773.31,-94.78"/>
<polygon fill="black" stroke="black" points="773.53,-98.18 783.19,-93.83 772.92,-91.21 773.53,-98.18"/>
</g>
<!-- user&#45;&gt;string -->
<g id="edge81" class="edge">
<title>user&#45;&gt;string</title>
<path fill="none" stroke="black" d="M700.01,-802.45C589.72,-772.82 152,-647.39 152,-523 152,-523 152,-523 152,-305 152,-258.96 166.94,-241.91 205,-216 250.27,-185.18 409.79,-170.81 487.22,-165.53"/>
<polygon fill="black" stroke="black" points="487.27,-168.96 497.02,-164.81 486.81,-161.98 487.27,-168.96"/>
</g>
<!-- user&#45;&gt;signer -->
<g id="edge82" class="edge">
<title>user&#45;&gt;signer</title>
<path fill="none" stroke="black" d="M716.32,-792.82C711.34,-782.59 705.57,-768.9 703,-756 699.87,-740.31 702.31,-735.99 703,-720 714.25,-460.41 588.69,-290.92 803,-144 876.22,-93.81 1149.08,-89.94 1257.33,-90.45"/>
<polygon fill="black" stroke="black" points="1257.17,-93.96 1267.19,-90.52 1257.21,-86.96 1257.17,-93.96"/>
</g>
<!-- user&#45;&gt;type_info -->
<g id="edge83" class="edge">
<title>user&#45;&gt;type_info</title>
<path fill="none" stroke="black" d="M752.18,-808.77C946.79,-806.86 2123.63,-790.91 2235,-684 2353.24,-570.5 2302.59,-487.43 2315,-324 2316.21,-308.05 2320.83,-302.9 2315,-288 2310.6,-276.77 2302.59,-266.49 2294.29,-258.04"/>
<polygon fill="black" stroke="black" points="2297.03,-255.86 2287.37,-251.52 2292.22,-260.94 2297.03,-255.86"/>
</g>
<!-- user&#45;&gt;table -->
<g id="edge84" class="edge">
<title>user&#45;&gt;table</title>
<path fill="none" stroke="black" d="M699.84,-802.67C672.1,-794.85 627.03,-779.62 594,-756 490.72,-682.13 475.08,-647.18 407,-540 363.16,-470.98 360.65,-441.34 369,-360 369.86,-351.64 371.46,-342.66 373.18,-334.51"/>
<polygon fill="black" stroke="black" points="376.75,-335.57 375.54,-325.05 369.92,-334.03 376.75,-335.57"/>
</g>
<!-- user&#45;&gt;guid -->
<g id="edge85" class="edge">
<title>user&#45;&gt;guid</title>
<path fill="none" stroke="black" d="M752.15,-808.32C962.84,-802.98 2328.99,-767.95 2346,-756 2415.24,-707.37 2452.61,-478.81 2470,-396 2474.27,-375.66 2477.88,-352.45 2480.37,-334.84"/>
<polygon fill="black" stroke="black" points="2483.94,-335.54 2481.83,-325.16 2477,-334.59 2483.94,-335.54"/>
</g>
<!-- user&#45;&gt;event -->
<g id="edge86" class="edge">
<title>user&#45;&gt;event</title>
<path fill="none" stroke="black" d="M752.39,-808.91C955.24,-808.17 2220.71,-801.72 2384,-756 2549.95,-709.54 2621.84,-690.38 2706,-540 2729.84,-497.4 2733.55,-480.23 2726,-432 2724.65,-423.37 2722.13,-414.23 2719.44,-406.01"/>
<polygon fill="black" stroke="black" points="2722.5,-405.14 2715.89,-396.86 2715.89,-407.45 2722.5,-405.14"/>
</g>
<!-- user&#45;&gt;account -->
<g id="edge87" class="edge">
<title>user&#45;&gt;account</title>
<path fill="none" stroke="black" d="M752.05,-807.91C954.73,-799.58 2228,-744.2 2228,-667 2228,-667 2228,-667 2228,-593 2228,-471.45 2038.34,-452.46 1944.86,-450.48"/>
<polygon fill="black" stroke="black" points="1945.01,-446.96 1934.96,-450.31 1944.9,-453.96 1945.01,-446.96"/>
</g>
<!-- user&#45;&gt;coin -->
<g id="edge88" class="edge">
<title>user&#45;&gt;coin</title>
<path fill="none" stroke="black" d="M742.65,-795.93C795.95,-757.02 961.01,-640.68 1114,-576 1168.33,-553.03 1235.29,-537.65 1276.03,-529.62"/>
<polygon fill="black" stroke="black" points="1276.63,-532.88 1285.79,-527.55 1275.31,-526.01 1276.63,-532.88"/>
</g>
<!-- user&#45;&gt;tablist -->
<g id="edge89" class="edge">
<title>user&#45;&gt;tablist</title>
<path fill="none" stroke="black" d="M699.34,-804.11C673.43,-797.74 634.4,-783.94 614,-756 585.38,-716.8 585.29,-657.57 588.31,-622.94"/>
<polygon fill="black" stroke="black" points="591.88,-623.51 589.42,-613.2 584.91,-622.79 591.88,-623.51"/>
</g>
<!-- user&#45;&gt;registry -->
<g id="edge90" class="edge">
<title>user&#45;&gt;registry</title>
<path fill="none" stroke="black" d="M731.29,-792.05C734.2,-784.23 737.72,-774.75 740.98,-765.98"/>
<polygon fill="black" stroke="black" points="744.56,-767.38 744.76,-756.79 738,-764.94 744.56,-767.38"/>
</g>
<!-- user&#45;&gt;vector -->
<g id="edge79" class="edge">
<title>user&#45;&gt;vector</title>
<path fill="none" stroke="black" d="M698.15,-806.62C623.09,-799.03 406.51,-770.54 252,-684 76.16,-585.51 0,-508.54 0,-307 0,-307 0,-307 0,-161 0,-41.13 947.22,-22.22 1166.89,-19.45"/>
<polygon fill="black" stroke="black" points="1166.72,-22.94 1176.68,-19.32 1166.64,-15.94 1166.72,-22.94"/>
</g>
<!-- features&#45;&gt;signer -->
<g id="edge91" class="edge">
<title>features&#45;&gt;signer</title>
<path fill="none" stroke="black" d="M1932.33,-155.11C1909.19,-151.61 1878.92,-147.23 1852,-144 1664.15,-121.43 1439.29,-102.18 1345.95,-94.53"/>
<polygon fill="black" stroke="black" points="1346.48,-90.98 1336.23,-93.65 1345.91,-97.96 1346.48,-90.98"/>
</g>
<!-- features&#45;&gt;error -->
<g id="edge92" class="edge">
<title>features&#45;&gt;error</title>
<path fill="none" stroke="black" d="M1985.43,-145.12C1994.46,-135.82 2006.01,-123.93 2015.98,-113.67"/>
<polygon fill="black" stroke="black" points="2018.1,-116.48 2022.56,-106.86 2013.08,-111.6 2018.1,-116.48"/>
</g>
<!-- system_addresses&#45;&gt;signer -->
<g id="edge93" class="edge">
<title>system_addresses&#45;&gt;signer</title>
<path fill="none" stroke="black" d="M1698.67,-287.99C1673.58,-254.69 1613.06,-180.96 1544,-144 1480.54,-110.04 1396.64,-97.83 1346.14,-93.45"/>
<polygon fill="black" stroke="black" points="1346.52,-89.89 1336.27,-92.58 1345.96,-96.87 1346.52,-89.89"/>
</g>
<!-- system_addresses&#45;&gt;error -->
<g id="edge94" class="edge">
<title>system_addresses&#45;&gt;error</title>
<path fill="none" stroke="black" d="M1729.9,-288.1C1765.46,-256.87 1845.53,-189.21 1921,-144 1947.66,-128.03 1979.97,-113.74 2003.88,-104.03"/>
<polygon fill="black" stroke="black" points="2004.9,-106.99 2012.89,-100.03 2002.31,-100.49 2004.9,-106.99"/>
</g>
<!-- ed25519&#45;&gt;option -->
<g id="edge95" class="edge">
<title>ed25519&#45;&gt;option</title>
<path fill="none" stroke="black" d="M2030.11,-288.64C2012.75,-267.91 1979.76,-232.85 1943,-216 1745.38,-125.42 1049.08,-98.04 863.65,-92.28"/>
<polygon fill="black" stroke="black" points="863.79,-88.75 853.69,-91.94 863.58,-95.75 863.79,-88.75"/>
</g>
<!-- ed25519&#45;&gt;type_info -->
<g id="edge98" class="edge">
<title>ed25519&#45;&gt;type_info</title>
<path fill="none" stroke="black" d="M2076.39,-294.52C2114.69,-282.5 2177.72,-262.71 2220.5,-249.28"/>
<polygon fill="black" stroke="black" points="2221.42,-252.35 2229.91,-246.01 2219.32,-245.67 2221.42,-252.35"/>
</g>
<!-- ed25519&#45;&gt;error -->
<g id="edge96" class="edge">
<title>ed25519&#45;&gt;error</title>
<path fill="none" stroke="black" d="M2042.6,-287.85C2041.74,-250.99 2039.7,-163.92 2038.65,-118.96"/>
<polygon fill="black" stroke="black" points="2042.14,-119.15 2038.4,-109.23 2035.14,-119.31 2042.14,-119.15"/>
</g>
<!-- ed25519&#45;&gt;bcs -->
<g id="edge97" class="edge">
<title>ed25519&#45;&gt;bcs</title>
<path fill="none" stroke="black" d="M2049.89,-287.87C2058.71,-267.97 2075.81,-235.4 2100,-216 2131.8,-190.5 2176.99,-176.6 2208.43,-169.51"/>
<polygon fill="black" stroke="black" points="2208.88,-172.78 2217.94,-167.28 2207.43,-165.93 2208.88,-172.78"/>
</g>
<!-- ed25519&#45;&gt;hash -->
<g id="edge99" class="edge">
<title>ed25519&#45;&gt;hash</title>
<path fill="none" stroke="black" d="M2016.59,-291.5C1993.86,-279.89 1961.05,-263.13 1937.07,-250.87"/>
<polygon fill="black" stroke="black" points="1938.88,-247.36 1928.39,-245.93 1935.7,-253.59 1938.88,-247.36"/>
</g>
<!-- multi_ed25519&#45;&gt;option -->
<g id="edge100" class="edge">
<title>multi_ed25519&#45;&gt;option</title>
<path fill="none" stroke="black" d="M2018.47,-363.01C1967.92,-344.84 1876.3,-312.55 1797,-288 1568.33,-217.21 1512.95,-189.84 1278,-144 1127.51,-114.64 945.92,-99.61 863.11,-93.85"/>
<polygon fill="black" stroke="black" points="863.54,-90.31 853.33,-93.12 863.07,-97.29 863.54,-90.31"/>
</g>
<!-- multi_ed25519&#45;&gt;error -->
<g id="edge101" class="edge">
<title>multi_ed25519&#45;&gt;error</title>
<path fill="none" stroke="black" d="M2073.07,-360.39C2081.36,-350.63 2090.63,-337.58 2095,-324 2099.9,-308.77 2097.21,-303.85 2095,-288 2086.29,-225.58 2062.37,-155.28 2048.44,-117.86"/>
<polygon fill="black" stroke="black" points="2051.44,-116.89 2044.63,-108.77 2044.89,-119.36 2051.44,-116.89"/>
</g>
<!-- multi_ed25519&#45;&gt;features -->
<g id="edge102" class="edge">
<title>multi_ed25519&#45;&gt;features</title>
<path fill="none" stroke="black" d="M2028.56,-361.26C2014.93,-352.19 1999.71,-339.5 1991,-324 1967.53,-282.23 1965.97,-224.96 1967.57,-191.18"/>
<polygon fill="black" stroke="black" points="1971.12,-191.47 1968.24,-181.28 1964.13,-191.04 1971.12,-191.47"/>
</g>
<!-- multi_ed25519&#45;&gt;bcs -->
<g id="edge103" class="edge">
<title>multi_ed25519&#45;&gt;bcs</title>
<path fill="none" stroke="black" d="M2070.78,-360.04C2078.55,-349.96 2088.05,-336.71 2095,-324 2119.79,-278.67 2102.98,-253.98 2138,-216 2157.38,-194.99 2186.92,-181.23 2210.06,-173.02"/>
<polygon fill="black" stroke="black" points="2210.81,-176.12 2219.18,-169.62 2208.59,-169.48 2210.81,-176.12"/>
</g>
<!-- multi_ed25519&#45;&gt;hash -->
<g id="edge104" class="edge">
<title>multi_ed25519&#45;&gt;hash</title>
<path fill="none" stroke="black" d="M2014.04,-363.85C1992.07,-355.36 1966.19,-342.41 1948,-324 1931.05,-306.86 1920.03,-281.57 1913.55,-262.33"/>
<polygon fill="black" stroke="black" points="1916.66,-261.57 1910.32,-253.08 1909.98,-263.67 1916.66,-261.57"/>
</g>
<!-- multi_ed25519&#45;&gt;ed25519 -->
<g id="edge105" class="edge">
<title>multi_ed25519&#45;&gt;ed25519</title>
<path fill="none" stroke="black" d="M2053.54,-359.7C2052.03,-352.15 2050.22,-343.12 2048.54,-334.68"/>
<polygon fill="black" stroke="black" points="2051.81,-334.22 2046.42,-325.1 2044.95,-335.6 2051.81,-334.22"/>
</g>
<!-- from_bcs&#45;&gt;string -->
<g id="edge106" class="edge">
<title>from_bcs&#45;&gt;string</title>
<path fill="none" stroke="black" d="M1111.05,-228.08C995.56,-215.14 684.63,-180.32 571.71,-167.67"/>
<polygon fill="black" stroke="black" points="572.43,-164.12 562.1,-166.48 571.65,-171.07 572.43,-164.12"/>
</g>
<!-- chain_id&#45;&gt;system_addresses -->
<g id="edge107" class="edge">
<title>chain_id&#45;&gt;system_addresses</title>
<path fill="none" stroke="black" d="M1825.96,-363.67C1805.26,-353.46 1776.34,-339.21 1752.68,-327.55"/>
<polygon fill="black" stroke="black" points="1754.42,-324.01 1743.91,-322.73 1751.33,-330.29 1754.42,-324.01"/>
</g>
<!-- aggregator_factory&#45;&gt;table -->
<g id="edge109" class="edge">
<title>aggregator_factory&#45;&gt;table</title>
<path fill="none" stroke="black" d="M1156.23,-370.85C981.64,-356.49 551.96,-321.14 419.51,-310.25"/>
<polygon fill="black" stroke="black" points="419.96,-306.69 409.7,-309.36 419.38,-313.67 419.96,-306.69"/>
</g>
<!-- aggregator_factory&#45;&gt;error -->
<g id="edge108" class="edge">
<title>aggregator_factory&#45;&gt;error</title>
<path fill="none" stroke="black" d="M1293.47,-366.23C1333.69,-357.89 1386.4,-344.29 1430,-324 1556.43,-265.15 1557.52,-195.78 1687,-144 1793.83,-101.28 1931.53,-92.68 1998.25,-91.16"/>
<polygon fill="black" stroke="black" points="1998.16,-94.64 2008.09,-90.96 1998.03,-87.64 1998.16,-94.64"/>
</g>
<!-- aggregator_factory&#45;&gt;system_addresses -->
<g id="edge110" class="edge">
<title>aggregator_factory&#45;&gt;system_addresses</title>
<path fill="none" stroke="black" d="M1297.49,-367.3C1386.37,-354.34 1543.47,-331.43 1636.33,-317.89"/>
<polygon fill="black" stroke="black" points="1636.66,-321.23 1646.05,-316.33 1635.65,-314.31 1636.66,-321.23"/>
</g>
<!-- aggregator_factory&#45;&gt;aggregator -->
<g id="edge111" class="edge">
<title>aggregator_factory&#45;&gt;aggregator</title>
<path fill="none" stroke="black" d="M1198.1,-361.12C1176.26,-350.57 1147.51,-336.7 1124.6,-325.63"/>
<polygon fill="black" stroke="black" points="1126.37,-322.12 1115.85,-320.93 1123.33,-328.43 1126.37,-322.12"/>
</g>
<!-- optional_aggregator&#45;&gt;option -->
<g id="edge112" class="edge">
<title>optional_aggregator&#45;&gt;option</title>
<path fill="none" stroke="black" d="M1135.48,-432.33C1121.98,-422.35 1104.98,-409.1 1091,-396 986.28,-297.83 991.93,-244.05 889,-144 876.45,-131.8 861.04,-119.98 847.78,-110.61"/>
<polygon fill="black" stroke="black" points="850.22,-107.35 840.01,-104.54 846.24,-113.11 850.22,-107.35"/>
</g>
<!-- optional_aggregator&#45;&gt;error -->
<g id="edge113" class="edge">
<title>optional_aggregator&#45;&gt;error</title>
<path fill="none" stroke="black" d="M1148.64,-431.89C1138.61,-412.89 1126.83,-382 1141,-360 1266.54,-165 1392.85,-207.17 1616,-144 1752.68,-105.31 1922.24,-94.84 1998.08,-92.02"/>
<polygon fill="black" stroke="black" points="1998.13,-95.49 2008.01,-91.65 1997.89,-88.49 1998.13,-95.49"/>
</g>
<!-- optional_aggregator&#45;&gt;aggregator -->
<g id="edge114" class="edge">
<title>optional_aggregator&#45;&gt;aggregator</title>
<path fill="none" stroke="black" d="M1138.15,-432.08C1127.66,-422.52 1115.59,-409.75 1108,-396 1097.61,-377.16 1092.05,-353.41 1089.13,-335.18"/>
<polygon fill="black" stroke="black" points="1092.47,-334.78 1087.6,-325.37 1085.54,-335.76 1092.47,-334.78"/>
</g>
<!-- optional_aggregator&#45;&gt;aggregator_factory -->
<g id="edge115" class="edge">
<title>optional_aggregator&#45;&gt;aggregator_factory</title>
<path fill="none" stroke="black" d="M1176.43,-432.05C1185.21,-423.52 1196.02,-413.01 1205.69,-403.61"/>
<polygon fill="black" stroke="black" points="1207.75,-406.51 1212.48,-397.03 1202.87,-401.49 1207.75,-406.51"/>
</g>
<!-- table_with_length&#45;&gt;table -->
<g id="edge117" class="edge">
<title>table_with_length&#45;&gt;table</title>
<path fill="none" stroke="black" d="M490.91,-361.29C467.38,-349.77 435.57,-334.2 412.05,-322.69"/>
<polygon fill="black" stroke="black" points="413.73,-319.13 403.21,-317.87 410.65,-325.41 413.73,-319.13"/>
</g>
<!-- table_with_length&#45;&gt;error -->
<g id="edge116" class="edge">
<title>table_with_length&#45;&gt;error</title>
<path fill="none" stroke="black" d="M566.28,-362.82C697.52,-320.54 1103.19,-195.13 1450,-144 1655.11,-113.76 1903.19,-98.22 1998.28,-93.03"/>
<polygon fill="black" stroke="black" points="1998.31,-96.48 2008.11,-92.45 1997.93,-89.49 1998.31,-96.48"/>
</g>
<!-- timestamp&#45;&gt;error -->
<g id="edge118" class="edge">
<title>timestamp&#45;&gt;error</title>
<path fill="none" stroke="black" d="M2603.44,-359.83C2585.5,-315.45 2530.96,-196.67 2443,-144 2381.88,-107.41 2167.26,-95.61 2077.71,-92.22"/>
<polygon fill="black" stroke="black" points="2078.04,-88.7 2067.92,-91.83 2077.79,-95.69 2078.04,-88.7"/>
</g>
<!-- timestamp&#45;&gt;system_addresses -->
<g id="edge119" class="edge">
<title>timestamp&#45;&gt;system_addresses</title>
<path fill="none" stroke="black" d="M2561.03,-373.19C2414.44,-361.77 1977.92,-327.78 1794.08,-313.47"/>
<polygon fill="black" stroke="black" points="1794.38,-309.9 1784.14,-312.62 1793.84,-316.88 1794.38,-309.9"/>
</g>
<!-- aptos_coin&#45;&gt;option -->
<g id="edge121" class="edge">
<title>aptos_coin&#45;&gt;option</title>
<path fill="none" stroke="black" d="M1598.44,-588.23C1465.95,-574.5 1101.42,-531.75 1001,-468 875.7,-388.46 871.51,-323.06 832,-180 826.47,-159.96 822.91,-136.75 820.76,-119.05"/>
<polygon fill="black" stroke="black" points="824.15,-118.85 819.55,-109.31 817.19,-119.64 824.15,-118.85"/>
</g>
<!-- aptos_coin&#45;&gt;string -->
<g id="edge122" class="edge">
<title>aptos_coin&#45;&gt;string</title>
<path fill="none" stroke="black" d="M1596.26,-592.27C1457.63,-589.77 1074.92,-579.4 956,-540 758.61,-474.6 597.75,-261.77 546.85,-188.25"/>
<polygon fill="black" stroke="black" points="549.2,-186.49 540.67,-180.22 543.43,-190.44 549.2,-186.49"/>
</g>
<!-- aptos_coin&#45;&gt;signer -->
<g id="edge123" class="edge">
<title>aptos_coin&#45;&gt;signer</title>
<path fill="none" stroke="black" d="M1628.34,-576.83C1592.32,-544.94 1512.06,-470.52 1459,-396 1423.83,-346.6 1345.25,-182.76 1314.59,-117.84"/>
<polygon fill="black" stroke="black" points="1317.36,-116.5 1309.93,-108.95 1311.03,-119.49 1317.36,-116.5"/>
</g>
<!-- aptos_coin&#45;&gt;coin -->
<g id="edge126" class="edge">
<title>aptos_coin&#45;&gt;coin</title>
<path fill="none" stroke="black" d="M1604.02,-583.99C1537.54,-570.06 1410.98,-543.53 1349,-530.55"/>
<polygon fill="black" stroke="black" points="1350.07,-526.98 1339.57,-528.36 1348.64,-533.84 1350.07,-526.98"/>
</g>
<!-- aptos_coin&#45;&gt;vector -->
<g id="edge120" class="edge">
<title>aptos_coin&#45;&gt;vector</title>
<path fill="none" stroke="black" d="M1697.93,-592.16C1899.61,-588.63 2636.22,-573.51 2735,-540 2826.76,-508.87 2882,-475.9 2882,-379 2882,-379 2882,-379 2882,-161 2882,-77 1523.03,-29 1256.9,-20.4"/>
<polygon fill="black" stroke="black" points="1257.22,-16.88 1247.12,-20.06 1257,-23.87 1257.22,-16.88"/>
</g>
<!-- aptos_coin&#45;&gt;error -->
<g id="edge124" class="edge">
<title>aptos_coin&#45;&gt;error</title>
<path fill="none" stroke="black" d="M1697.89,-592.51C1893.51,-590.33 2590.64,-579.83 2681,-540 2774.17,-498.92 2844,-480.83 2844,-379 2844,-379 2844,-379 2844,-233 2844,-154.26 2239.62,-105.41 2077.57,-93.73"/>
<polygon fill="black" stroke="black" points="2077.91,-90.17 2067.69,-92.95 2077.41,-97.15 2077.91,-90.17"/>
</g>
<!-- aptos_coin&#45;&gt;system_addresses -->
<g id="edge125" class="edge">
<title>aptos_coin&#45;&gt;system_addresses</title>
<path fill="none" stroke="black" d="M1695.96,-588.5C1764.74,-579.25 1887.73,-551.33 1943,-468 1959.53,-443.07 1928.78,-364.71 1924,-360 1904.55,-340.82 1840.08,-326.5 1787.11,-317.61"/>
<polygon fill="black" stroke="black" points="1787.78,-314.01 1777.35,-315.85 1786.65,-320.92 1787.78,-314.01"/>
</g>
</g>
</svg>
