<?xml version="1.0" encoding="UTF-8" standalone="no"?>
<!DOCTYPE svg PUBLIC "-//W3C//DTD SVG 1.1//EN"
 "http://www.w3.org/Graphics/SVG/1.1/DTD/svg11.dtd">
<!-- Generated by graphviz version 8.0.5 (20230430.1635)
 -->
<!-- Title: G Pages: 1 -->
<svg width="2852pt" height="908pt"
 viewBox="0.00 0.00 2852.00 908.00" xmlns="http://www.w3.org/2000/svg" xmlns:xlink="http://www.w3.org/1999/xlink">
<g id="graph0" class="graph" transform="scale(1 1) rotate(0) translate(4 904)">
<title>G</title>
<polygon fill="white" stroke="none" points="-4,4 -4,-904 2848,-904 2848,4 -4,4"/>
<!-- market -->
<g id="node1" class="node">
<title>market</title>
<ellipse fill="none" stroke="black" cx="1098" cy="-882" rx="37.02" ry="18"/>
<text text-anchor="middle" x="1098" y="-876.95" font-family="Times,serif" font-size="14.00">market</text>
</g>
<!-- option -->
<g id="node2" class="node">
<title>option</title>
<ellipse fill="none" stroke="black" cx="380" cy="-90" rx="34.46" ry="18"/>
<text text-anchor="middle" x="380" y="-84.95" font-family="Times,serif" font-size="14.00">option</text>
</g>
<!-- market&#45;&gt;option -->
<g id="edge1" class="edge">
<title>market&#45;&gt;option</title>
<path fill="none" stroke="black" d="M1060.65,-880.76C904.81,-879.47 311.31,-871.7 241,-828 202.28,-803.93 190,-784.59 190,-739 190,-739 190,-739 190,-377 190,-265.66 208.12,-227.29 282,-144 297.85,-126.13 321.21,-113.17 341.14,-104.54"/>
<polygon fill="black" stroke="black" points="342.28,-107.45 350.2,-100.42 339.62,-100.97 342.28,-107.45"/>
</g>
<!-- string -->
<g id="node3" class="node">
<title>string</title>
<ellipse fill="none" stroke="black" cx="168" cy="-162" rx="31.9" ry="18"/>
<text text-anchor="middle" x="168" y="-156.95" font-family="Times,serif" font-size="14.00">string</text>
</g>
<!-- market&#45;&gt;string -->
<g id="edge2" class="edge">
<title>market&#45;&gt;string</title>
<path fill="none" stroke="black" d="M1060.6,-880.88C909.91,-880.08 347.09,-874.03 176,-828 91.35,-805.23 0,-826.65 0,-739 0,-739 0,-739 0,-305 0,-237.08 81.08,-195 130.59,-175.63"/>
<polygon fill="black" stroke="black" points="131.51,-178.65 139.63,-171.84 129.04,-172.1 131.51,-178.65"/>
</g>
<!-- signer -->
<g id="node4" class="node">
<title>signer</title>
<ellipse fill="none" stroke="black" cx="2616" cy="-90" rx="33.44" ry="18"/>
<text text-anchor="middle" x="2616" y="-84.95" font-family="Times,serif" font-size="14.00">signer</text>
</g>
<!-- market&#45;&gt;signer -->
<g id="edge3" class="edge">
<title>market&#45;&gt;signer</title>
<path fill="none" stroke="black" d="M1135.33,-881.46C1289.2,-882.92 1889.17,-884.49 2378,-828 2587.46,-803.79 2844,-949.85 2844,-739 2844,-739 2844,-739 2844,-233 2844,-146.64 2724.69,-110.92 2658.68,-97.76"/>
<polygon fill="black" stroke="black" points="2659.66,-94.19 2649.18,-95.77 2658.36,-101.07 2659.66,-94.19"/>
</g>
<!-- type_info -->
<g id="node5" class="node">
<title>type_info</title>
<ellipse fill="none" stroke="black" cx="1416" cy="-234" rx="46.23" ry="18"/>
<text text-anchor="middle" x="1416" y="-228.95" font-family="Times,serif" font-size="14.00">type_info</text>
</g>
<!-- market&#45;&gt;type_info -->
<g id="edge4" class="edge">
<title>market&#45;&gt;type_info</title>
<path fill="none" stroke="black" d="M1135.28,-880.31C1216.45,-876.64 1402,-855.5 1402,-739 1402,-739 1402,-739 1402,-593 1402,-469.96 1410.36,-323.32 1414.16,-263.01"/>
<polygon fill="black" stroke="black" points="1417.71,-263.33 1414.85,-253.13 1410.72,-262.89 1417.71,-263.33"/>
</g>
<!-- table -->
<g id="node6" class="node">
<title>table</title>
<ellipse fill="none" stroke="black" cx="742" cy="-306" rx="28.83" ry="18"/>
<text text-anchor="middle" x="742" y="-300.95" font-family="Times,serif" font-size="14.00">table</text>
</g>
<!-- market&#45;&gt;table -->
<g id="edge5" class="edge">
<title>market&#45;&gt;table</title>
<path fill="none" stroke="black" d="M1060.74,-881.59C992.99,-881.39 846.21,-874.99 734,-828 643.6,-790.15 621.77,-765.27 567,-684 528.15,-626.36 519.83,-608.12 506,-540 502.82,-524.32 503.59,-519.82 506,-504 507.26,-495.71 544.98,-365.83 551,-360 591.74,-320.56 659.16,-309.93 702.04,-307.37"/>
<polygon fill="black" stroke="black" points="702.09,-310.82 711.91,-306.86 701.76,-303.83 702.09,-310.82"/>
</g>
<!-- event -->
<g id="node7" class="node">
<title>event</title>
<ellipse fill="none" stroke="black" cx="1475" cy="-378" rx="30.88" ry="18"/>
<text text-anchor="middle" x="1475" y="-372.95" font-family="Times,serif" font-size="14.00">event</text>
</g>
<!-- market&#45;&gt;event -->
<g id="edge6" class="edge">
<title>market&#45;&gt;event</title>
<path fill="none" stroke="black" d="M1135.23,-880.66C1270.92,-878.46 1731,-861.9 1731,-739 1731,-739 1731,-739 1731,-521 1731,-508.34 1575.99,-429.4 1507.21,-395"/>
<polygon fill="black" stroke="black" points="1509.23,-391.59 1498.72,-390.26 1506.1,-397.86 1509.23,-391.59"/>
</g>
<!-- account -->
<g id="node8" class="node">
<title>account</title>
<ellipse fill="none" stroke="black" cx="1803" cy="-450" rx="39.58" ry="18"/>
<text text-anchor="middle" x="1803" y="-444.95" font-family="Times,serif" font-size="14.00">account</text>
</g>
<!-- market&#45;&gt;account -->
<g id="edge7" class="edge">
<title>market&#45;&gt;account</title>
<path fill="none" stroke="black" d="M1135.23,-879.79C1264.95,-875.33 1692.06,-858.45 1745,-828 1786.79,-803.96 1807,-787.21 1807,-739 1807,-739 1807,-739 1807,-593 1807,-553.55 1805.44,-507.96 1804.27,-479.3"/>
<polygon fill="black" stroke="black" points="1807.73,-479.33 1803.81,-469.48 1800.73,-479.62 1807.73,-479.33"/>
</g>
<!-- coin -->
<g id="node9" class="node">
<title>coin</title>
<ellipse fill="none" stroke="black" cx="1127" cy="-522" rx="27" ry="18"/>
<text text-anchor="middle" x="1127" y="-516.95" font-family="Times,serif" font-size="14.00">coin</text>
</g>
<!-- market&#45;&gt;coin -->
<g id="edge8" class="edge">
<title>market&#45;&gt;coin</title>
<path fill="none" stroke="black" d="M1060.97,-879.31C982.8,-873.88 798.87,-851.15 686,-756 615.53,-696.59 521.07,-644.26 583,-576 616.94,-538.59 970.71,-526.75 1088.84,-523.82"/>
<polygon fill="black" stroke="black" points="1088.92,-527.3 1098.83,-523.56 1088.75,-520.3 1088.92,-527.3"/>
</g>
<!-- avl_queue -->
<g id="node10" class="node">
<title>avl_queue</title>
<ellipse fill="none" stroke="black" cx="457" cy="-450" rx="48.79" ry="18"/>
<text text-anchor="middle" x="457" y="-444.95" font-family="Times,serif" font-size="14.00">avl_queue</text>
</g>
<!-- market&#45;&gt;avl_queue -->
<g id="edge9" class="edge">
<title>market&#45;&gt;avl_queue</title>
<path fill="none" stroke="black" d="M1060.72,-880.41C911.2,-877.78 359.75,-865.59 292,-828 249.4,-804.36 228,-787.72 228,-739 228,-739 228,-739 228,-665 228,-580.77 263.7,-558.42 328,-504 350.5,-484.96 380.77,-472.04 406.33,-463.73"/>
<polygon fill="black" stroke="black" points="407.08,-466.85 415.6,-460.55 405.01,-460.17 407.08,-466.85"/>
</g>
<!-- tablist -->
<g id="node11" class="node">
<title>tablist</title>
<ellipse fill="none" stroke="black" cx="625" cy="-594" rx="33.44" ry="18"/>
<text text-anchor="middle" x="625" y="-588.95" font-family="Times,serif" font-size="14.00">tablist</text>
</g>
<!-- market&#45;&gt;tablist -->
<g id="edge10" class="edge">
<title>market&#45;&gt;tablist</title>
<path fill="none" stroke="black" d="M1066.15,-872.48C1004.24,-855.25 864.22,-813.01 756,-756 707.23,-730.31 687.85,-728.27 655,-684 641.58,-665.91 633.91,-641.44 629.69,-622.73"/>
<polygon fill="black" stroke="black" points="632.97,-622.3 627.54,-613.21 626.11,-623.7 632.97,-622.3"/>
</g>
<!-- resource_account -->
<g id="node12" class="node">
<title>resource_account</title>
<ellipse fill="none" stroke="black" cx="2346" cy="-522" rx="75.41" ry="18"/>
<text text-anchor="middle" x="2346" y="-516.95" font-family="Times,serif" font-size="14.00">resource_account</text>
</g>
<!-- market&#45;&gt;resource_account -->
<g id="edge11" class="edge">
<title>market&#45;&gt;resource_account</title>
<path fill="none" stroke="black" d="M1135.15,-879.77C1378.08,-871.51 2730,-821.83 2730,-739 2730,-739 2730,-739 2730,-665 2730,-599.31 2529.8,-554.45 2418.51,-534.59"/>
<polygon fill="black" stroke="black" points="2419.15,-530.97 2408.7,-532.69 2417.94,-537.87 2419.15,-530.97"/>
</g>
<!-- incentives -->
<g id="node13" class="node">
<title>incentives</title>
<ellipse fill="none" stroke="black" cx="1592" cy="-666" rx="48.28" ry="18"/>
<text text-anchor="middle" x="1592" y="-660.95" font-family="Times,serif" font-size="14.00">incentives</text>
</g>
<!-- market&#45;&gt;incentives -->
<g id="edge12" class="edge">
<title>market&#45;&gt;incentives</title>
<path fill="none" stroke="black" d="M1135.33,-881.5C1196.94,-880.9 1322.4,-873.57 1416,-828 1483.11,-795.33 1542.96,-728.87 1572.51,-692.38"/>
<polygon fill="black" stroke="black" points="1575.86,-694.79 1579.35,-684.79 1570.38,-690.43 1575.86,-694.79"/>
</g>
<!-- registry -->
<g id="node14" class="node">
<title>registry</title>
<ellipse fill="none" stroke="black" cx="1129" cy="-738" rx="39.07" ry="18"/>
<text text-anchor="middle" x="1129" y="-732.95" font-family="Times,serif" font-size="14.00">registry</text>
</g>
<!-- market&#45;&gt;registry -->
<g id="edge13" class="edge">
<title>market&#45;&gt;registry</title>
<path fill="none" stroke="black" d="M1101.74,-863.87C1107,-839.78 1116.64,-795.6 1122.94,-766.77"/>
<polygon fill="black" stroke="black" points="1126.53,-767.71 1125.25,-757.19 1119.7,-766.21 1126.53,-767.71"/>
</g>
<!-- user -->
<g id="node15" class="node">
<title>user</title>
<ellipse fill="none" stroke="black" cx="1065" cy="-810" rx="27" ry="18"/>
<text text-anchor="middle" x="1065" y="-804.95" font-family="Times,serif" font-size="14.00">user</text>
</g>
<!-- market&#45;&gt;user -->
<g id="edge14" class="edge">
<title>market&#45;&gt;user</title>
<path fill="none" stroke="black" d="M1090.01,-864.05C1086.19,-855.94 1081.52,-846.04 1077.26,-837.01"/>
<polygon fill="black" stroke="black" points="1080.12,-835.86 1072.69,-828.31 1073.79,-838.84 1080.12,-835.86"/>
</g>
<!-- vector -->
<g id="node16" class="node">
<title>vector</title>
<ellipse fill="none" stroke="black" cx="1531" cy="-18" rx="33.95" ry="18"/>
<text text-anchor="middle" x="1531" y="-12.95" font-family="Times,serif" font-size="14.00">vector</text>
</g>
<!-- option&#45;&gt;vector -->
<g id="edge15" class="edge">
<title>option&#45;&gt;vector</title>
<path fill="none" stroke="black" d="M413.7,-85.2C448.16,-81.41 503.26,-75.66 551,-72 911.59,-44.34 1347.92,-26.11 1486.51,-20.69"/>
<polygon fill="black" stroke="black" points="1486.26,-24.16 1496.11,-20.28 1485.98,-17.17 1486.26,-24.16"/>
</g>
<!-- string&#45;&gt;option -->
<g id="edge17" class="edge">
<title>string&#45;&gt;option</title>
<path fill="none" stroke="black" d="M193.72,-151.26C200.31,-148.83 207.4,-146.27 214,-144 256.98,-129.21 306.68,-113.52 340.42,-103.09"/>
<polygon fill="black" stroke="black" points="341.26,-106.18 349.78,-99.89 339.19,-99.49 341.26,-106.18"/>
</g>
<!-- string&#45;&gt;vector -->
<g id="edge16" class="edge">
<title>string&#45;&gt;vector</title>
<path fill="none" stroke="black" d="M187.1,-147.29C217.24,-126.53 278.43,-87.87 337,-72 449.35,-41.57 1282.04,-23.77 1486,-19.83"/>
<polygon fill="black" stroke="black" points="1485.96,-23.32 1495.89,-19.62 1485.82,-16.32 1485.96,-23.32"/>
</g>
<!-- type_info&#45;&gt;string -->
<g id="edge18" class="edge">
<title>type_info&#45;&gt;string</title>
<path fill="none" stroke="black" d="M1370.48,-230.45C1174.25,-219.44 402.09,-176.13 210.97,-165.41"/>
<polygon fill="black" stroke="black" points="211.17,-161.86 200.99,-164.79 210.78,-168.85 211.17,-161.86"/>
</g>
<!-- error -->
<g id="node17" class="node">
<title>error</title>
<ellipse fill="none" stroke="black" cx="1577" cy="-90" rx="28.83" ry="18"/>
<text text-anchor="middle" x="1577" y="-84.95" font-family="Times,serif" font-size="14.00">error</text>
</g>
<!-- type_info&#45;&gt;error -->
<g id="edge19" class="edge">
<title>type_info&#45;&gt;error</title>
<path fill="none" stroke="black" d="M1434.16,-216.99C1463.3,-191.29 1520.52,-140.82 1553,-112.17"/>
<polygon fill="black" stroke="black" points="1554.89,-115.29 1560.07,-106.05 1550.26,-110.04 1554.89,-115.29"/>
</g>
<!-- features -->
<g id="node18" class="node">
<title>features</title>
<ellipse fill="none" stroke="black" cx="2082" cy="-162" rx="40.09" ry="18"/>
<text text-anchor="middle" x="2082" y="-156.95" font-family="Times,serif" font-size="14.00">features</text>
</g>
<!-- type_info&#45;&gt;features -->
<g id="edge20" class="edge">
<title>type_info&#45;&gt;features</title>
<path fill="none" stroke="black" d="M1460.47,-228.33C1580,-215.76 1907.55,-181.34 2032.59,-168.19"/>
<polygon fill="black" stroke="black" points="2032.77,-171.59 2042.35,-167.06 2032.04,-164.63 2032.77,-171.59"/>
</g>
<!-- bcs -->
<g id="node19" class="node">
<title>bcs</title>
<ellipse fill="none" stroke="black" cx="1834" cy="-162" rx="27" ry="18"/>
<text text-anchor="middle" x="1834" y="-156.95" font-family="Times,serif" font-size="14.00">bcs</text>
</g>
<!-- type_info&#45;&gt;bcs -->
<g id="edge21" class="edge">
<title>type_info&#45;&gt;bcs</title>
<path fill="none" stroke="black" d="M1457.99,-225.97C1539.88,-212.25 1719.66,-182.15 1797.2,-169.16"/>
<polygon fill="black" stroke="black" points="1797.59,-172.48 1806.88,-167.37 1796.44,-165.57 1797.59,-172.48"/>
</g>
<!-- event&#45;&gt;bcs -->
<g id="edge22" class="edge">
<title>event&#45;&gt;bcs</title>
<path fill="none" stroke="black" d="M1479.37,-359.99C1485.27,-340.21 1497.58,-307.74 1519,-288 1600.62,-212.76 1733.03,-180.53 1797.03,-168.78"/>
<polygon fill="black" stroke="black" points="1797.56,-172.06 1806.8,-166.88 1796.34,-165.17 1797.56,-172.06"/>
</g>
<!-- guid -->
<g id="node20" class="node">
<title>guid</title>
<ellipse fill="none" stroke="black" cx="1555" cy="-306" rx="27.3" ry="18"/>
<text text-anchor="middle" x="1555" y="-300.95" font-family="Times,serif" font-size="14.00">guid</text>
</g>
<!-- event&#45;&gt;guid -->
<g id="edge23" class="edge">
<title>event&#45;&gt;guid</title>
<path fill="none" stroke="black" d="M1491.58,-362.5C1502.99,-352.51 1518.33,-339.09 1531.07,-327.94"/>
<polygon fill="black" stroke="black" points="1532.77,-330.23 1537.99,-321.01 1528.16,-324.96 1532.77,-330.23"/>
</g>
<!-- account&#45;&gt;option -->
<g id="edge25" class="edge">
<title>account&#45;&gt;option</title>
<path fill="none" stroke="black" d="M1772.83,-438.02C1750.62,-428.98 1720.49,-414.62 1698,-396 1651.37,-357.4 1663.9,-323.69 1615,-288 1576.85,-260.15 1556.09,-275.29 1515,-252 1493.02,-239.54 1494.27,-225.84 1471,-216 1421.85,-195.23 624.1,-115.17 424.83,-95.42"/>
<polygon fill="black" stroke="black" points="425.21,-91.84 414.91,-94.34 424.52,-98.81 425.21,-91.84"/>
</g>
<!-- account&#45;&gt;signer -->
<g id="edge26" class="edge">
<title>account&#45;&gt;signer</title>
<path fill="none" stroke="black" d="M1842.51,-448.69C1984.58,-447.21 2463.92,-439.05 2516,-396 2547.58,-369.9 2540,-347.97 2540,-307 2540,-307 2540,-307 2540,-233 2540,-192.03 2543.66,-179.56 2564,-144 2570.63,-132.4 2580.42,-121.51 2589.72,-112.65"/>
<polygon fill="black" stroke="black" points="2591.62,-115.74 2596.67,-106.42 2586.92,-110.56 2591.62,-115.74"/>
</g>
<!-- account&#45;&gt;type_info -->
<g id="edge29" class="edge">
<title>account&#45;&gt;type_info</title>
<path fill="none" stroke="black" d="M1770.64,-439.23C1722.3,-424.59 1636.59,-398.4 1634,-396 1596.12,-360.86 1629.05,-322.95 1591,-288 1581.46,-279.24 1513,-260.12 1464.59,-247.4"/>
<polygon fill="black" stroke="black" points="1465.55,-243.77 1454.99,-244.63 1463.78,-250.54 1465.55,-243.77"/>
</g>
<!-- account&#45;&gt;table -->
<g id="edge30" class="edge">
<title>account&#45;&gt;table</title>
<path fill="none" stroke="black" d="M1763.54,-447.9C1621.92,-443.71 1139.77,-427.42 989,-396 909.35,-379.4 820.69,-342.68 774.31,-321.97"/>
<polygon fill="black" stroke="black" points="776.08,-318.48 765.53,-317.56 773.21,-324.86 776.08,-318.48"/>
</g>
<!-- account&#45;&gt;event -->
<g id="edge37" class="edge">
<title>account&#45;&gt;event</title>
<path fill="none" stroke="black" d="M1771.28,-438.92C1762.8,-436.44 1753.6,-433.94 1745,-432 1646.21,-409.71 1617.87,-422.03 1520,-396 1516.61,-395.1 1513.12,-394.04 1509.66,-392.89"/>
<polygon fill="black" stroke="black" points="1511.06,-389.32 1500.46,-389.27 1508.72,-395.91 1511.06,-389.32"/>
</g>
<!-- account&#45;&gt;vector -->
<g id="edge24" class="edge">
<title>account&#45;&gt;vector</title>
<path fill="none" stroke="black" d="M1842.98,-448.97C1982.17,-448.44 2439.43,-443.1 2483,-396 2493.87,-384.25 2487.64,-375.31 2483,-360 2442.17,-225.16 2384.31,-189.57 2251,-144 2004.7,-59.8 1690.73,-30.27 1575.76,-21.87"/>
<polygon fill="black" stroke="black" points="1576.17,-18.32 1565.94,-21.1 1575.67,-25.3 1576.17,-18.32"/>
</g>
<!-- account&#45;&gt;error -->
<g id="edge27" class="edge">
<title>account&#45;&gt;error</title>
<path fill="none" stroke="black" d="M1779.6,-435.02C1745.46,-412.64 1686,-365.3 1686,-307 1686,-307 1686,-307 1686,-233 1686,-179.88 1637.41,-134.39 1605.11,-110.02"/>
<polygon fill="black" stroke="black" points="1607.63,-106.79 1597.49,-103.72 1603.5,-112.45 1607.63,-106.79"/>
</g>
<!-- account&#45;&gt;bcs -->
<g id="edge28" class="edge">
<title>account&#45;&gt;bcs</title>
<path fill="none" stroke="black" d="M1839.87,-442.97C1911.62,-431.08 2063.65,-404.94 2071,-396 2146.26,-304.4 1948.05,-209.75 1866.86,-175.95"/>
<polygon fill="black" stroke="black" points="1868.7,-172.51 1858.12,-171.95 1866.04,-178.98 1868.7,-172.51"/>
</g>
<!-- account&#45;&gt;guid -->
<g id="edge35" class="edge">
<title>account&#45;&gt;guid</title>
<path fill="none" stroke="black" d="M1770.56,-439.19C1762.25,-436.76 1753.31,-434.22 1745,-432 1679.18,-414.41 1648.63,-439.27 1596,-396 1577.24,-380.58 1566.65,-354.67 1560.96,-334.78"/>
<polygon fill="black" stroke="black" points="1564.1,-333.97 1558.21,-325.17 1557.33,-335.72 1564.1,-333.97"/>
</g>
<!-- system_addresses -->
<g id="node21" class="node">
<title>system_addresses</title>
<ellipse fill="none" stroke="black" cx="2220" cy="-306" rx="76.94" ry="18"/>
<text text-anchor="middle" x="2220" y="-300.95" font-family="Times,serif" font-size="14.00">system_addresses</text>
</g>
<!-- account&#45;&gt;system_addresses -->
<g id="edge31" class="edge">
<title>account&#45;&gt;system_addresses</title>
<path fill="none" stroke="black" d="M1842.46,-448.47C1901.88,-446.3 2016.69,-436.64 2104,-396 2126.6,-385.48 2127.35,-375.33 2147,-360 2160.02,-349.85 2174.69,-339.07 2187.45,-329.9"/>
<polygon fill="black" stroke="black" points="2189.25,-332.2 2195.35,-323.54 2185.18,-326.51 2189.25,-332.2"/>
</g>
<!-- hash -->
<g id="node22" class="node">
<title>hash</title>
<ellipse fill="none" stroke="black" cx="1882" cy="-234" rx="27.81" ry="18"/>
<text text-anchor="middle" x="1882" y="-228.95" font-family="Times,serif" font-size="14.00">hash</text>
</g>
<!-- account&#45;&gt;hash -->
<g id="edge32" class="edge">
<title>account&#45;&gt;hash</title>
<path fill="none" stroke="black" d="M1832.22,-437.55C1849.79,-428.97 1870.67,-415.36 1881,-396 1903.58,-353.68 1896.34,-295.75 1889.11,-262.16"/>
<polygon fill="black" stroke="black" points="1892.36,-261.71 1886.7,-252.76 1885.54,-263.29 1892.36,-261.71"/>
</g>
<!-- ed25519 -->
<g id="node23" class="node">
<title>ed25519</title>
<ellipse fill="none" stroke="black" cx="1795" cy="-306" rx="42.65" ry="18"/>
<text text-anchor="middle" x="1795" y="-300.95" font-family="Times,serif" font-size="14.00">ed25519</text>
</g>
<!-- account&#45;&gt;ed25519 -->
<g id="edge33" class="edge">
<title>account&#45;&gt;ed25519</title>
<path fill="none" stroke="black" d="M1779.41,-435.3C1766.02,-426.09 1750.48,-412.6 1743,-396 1736.42,-381.41 1736.95,-374.81 1743,-360 1747.78,-348.31 1756.52,-337.8 1765.49,-329.28"/>
<polygon fill="black" stroke="black" points="1767.5,-332.29 1772.68,-323.04 1762.87,-327.04 1767.5,-332.29"/>
</g>
<!-- multi_ed25519 -->
<g id="node24" class="node">
<title>multi_ed25519</title>
<ellipse fill="none" stroke="black" cx="1995" cy="-378" rx="67.22" ry="18"/>
<text text-anchor="middle" x="1995" y="-372.95" font-family="Times,serif" font-size="14.00">multi_ed25519</text>
</g>
<!-- account&#45;&gt;multi_ed25519 -->
<g id="edge34" class="edge">
<title>account&#45;&gt;multi_ed25519</title>
<path fill="none" stroke="black" d="M1833,-438.06C1863.24,-427.04 1910.41,-409.84 1946.07,-396.84"/>
<polygon fill="black" stroke="black" points="1947.07,-399.84 1955.26,-393.12 1944.67,-393.26 1947.07,-399.84"/>
</g>
<!-- from_bcs -->
<g id="node25" class="node">
<title>from_bcs</title>
<ellipse fill="none" stroke="black" cx="906" cy="-234" rx="46.23" ry="18"/>
<text text-anchor="middle" x="906" y="-228.95" font-family="Times,serif" font-size="14.00">from_bcs</text>
</g>
<!-- account&#45;&gt;from_bcs -->
<g id="edge36" class="edge">
<title>account&#45;&gt;from_bcs</title>
<path fill="none" stroke="black" d="M1770.92,-439.07C1762.52,-436.62 1753.45,-434.09 1745,-432 1667.08,-412.69 1641.98,-427.16 1568,-396 1541.76,-384.95 1541.23,-371.08 1515,-360 1322.26,-278.61 1072.23,-248.81 962.18,-239.13"/>
<polygon fill="black" stroke="black" points="962.61,-235.57 952.35,-238.21 962.01,-242.55 962.61,-235.57"/>
</g>
<!-- create_signer -->
<g id="node26" class="node">
<title>create_signer</title>
<ellipse fill="none" stroke="black" cx="1812" cy="-378" rx="60.05" ry="18"/>
<text text-anchor="middle" x="1812" y="-372.95" font-family="Times,serif" font-size="14.00">create_signer</text>
</g>
<!-- account&#45;&gt;create_signer -->
<g id="edge38" class="edge">
<title>account&#45;&gt;create_signer</title>
<path fill="none" stroke="black" d="M1805.22,-431.7C1806.18,-424.24 1807.33,-415.32 1808.4,-406.97"/>
<polygon fill="black" stroke="black" points="1812,-407.47 1809.8,-397.1 1805.05,-406.58 1812,-407.47"/>
</g>
<!-- chain_id -->
<g id="node27" class="node">
<title>chain_id</title>
<ellipse fill="none" stroke="black" cx="2199" cy="-378" rx="42.65" ry="18"/>
<text text-anchor="middle" x="2199" y="-372.95" font-family="Times,serif" font-size="14.00">chain_id</text>
</g>
<!-- account&#45;&gt;chain_id -->
<g id="edge39" class="edge">
<title>account&#45;&gt;chain_id</title>
<path fill="none" stroke="black" d="M1841.19,-444.73C1904.29,-437.3 2034.08,-420.41 2142,-396 2146.36,-395.01 2150.88,-393.87 2155.38,-392.66"/>
<polygon fill="black" stroke="black" points="2156.07,-395.82 2164.74,-389.74 2154.17,-389.08 2156.07,-395.82"/>
</g>
<!-- coin&#45;&gt;option -->
<g id="edge40" class="edge">
<title>coin&#45;&gt;option</title>
<path fill="none" stroke="black" d="M1100.28,-518.44C975.48,-505.76 456,-444.71 456,-307 456,-307 456,-307 456,-233 456,-187.03 424.65,-141.53 402.22,-114.87"/>
<polygon fill="black" stroke="black" points="404.22,-112.83 395.02,-107.57 398.93,-117.42 404.22,-112.83"/>
</g>
<!-- coin&#45;&gt;string -->
<g id="edge41" class="edge">
<title>coin&#45;&gt;string</title>
<path fill="none" stroke="black" d="M1099.9,-520.34C975.39,-517.15 461.57,-501.99 399,-468 281.2,-404.01 205.57,-251.35 178.83,-189.6"/>
<polygon fill="black" stroke="black" points="181.81,-188.67 174.68,-180.83 175.37,-191.4 181.81,-188.67"/>
</g>
<!-- coin&#45;&gt;signer -->
<g id="edge42" class="edge">
<title>coin&#45;&gt;signer</title>
<path fill="none" stroke="black" d="M1154.31,-520.34C1341.19,-515.62 2427.26,-484.47 2541,-396 2574.81,-369.7 2578,-349.84 2578,-307 2578,-307 2578,-307 2578,-233 2578,-191.59 2593.27,-145.62 2604.45,-117.51"/>
<polygon fill="black" stroke="black" points="2607.93,-119.24 2608.49,-108.66 2601.46,-116.58 2607.93,-119.24"/>
</g>
<!-- coin&#45;&gt;type_info -->
<g id="edge44" class="edge">
<title>coin&#45;&gt;type_info</title>
<path fill="none" stroke="black" d="M1138.03,-505.25C1145.4,-494.72 1155.3,-480.54 1164,-468 1219.36,-388.17 1212.47,-349.09 1288,-288 1311.18,-269.26 1341.91,-256.24 1367.45,-247.8"/>
<polygon fill="black" stroke="black" points="1368.2,-250.92 1376.68,-244.57 1366.09,-244.24 1368.2,-250.92"/>
</g>
<!-- coin&#45;&gt;event -->
<g id="edge46" class="edge">
<title>coin&#45;&gt;event</title>
<path fill="none" stroke="black" d="M1149.57,-511.79C1208.85,-487.6 1369.34,-422.11 1440.37,-393.13"/>
<polygon fill="black" stroke="black" points="1441.24,-396.15 1449.18,-389.13 1438.6,-389.67 1441.24,-396.15"/>
</g>
<!-- coin&#45;&gt;account -->
<g id="edge47" class="edge">
<title>coin&#45;&gt;account</title>
<path fill="none" stroke="black" d="M1153.92,-518.21C1256.14,-507.63 1621.24,-469.82 1754.16,-456.06"/>
<polygon fill="black" stroke="black" points="1754.22,-459.47 1763.81,-454.95 1753.5,-452.5 1754.22,-459.47"/>
</g>
<!-- coin&#45;&gt;error -->
<g id="edge43" class="edge">
<title>coin&#45;&gt;error</title>
<path fill="none" stroke="black" d="M1135.1,-504.54C1151.69,-469.24 1188,-383.3 1188,-307 1188,-307 1188,-307 1188,-233 1188,-173.17 1235.18,-170.14 1289,-144 1371.1,-104.12 1479.69,-94.11 1537.24,-91.69"/>
<polygon fill="black" stroke="black" points="1537.18,-95.16 1547.04,-91.3 1536.92,-88.16 1537.18,-95.16"/>
</g>
<!-- coin&#45;&gt;system_addresses -->
<g id="edge45" class="edge">
<title>coin&#45;&gt;system_addresses</title>
<path fill="none" stroke="black" d="M1153.77,-518.92C1195.63,-515.68 1279.14,-509.24 1350,-504 1450.55,-496.56 2186.34,-473.37 2251,-396 2266.15,-377.87 2254.35,-351.89 2241.18,-332.67"/>
<polygon fill="black" stroke="black" points="2243.45,-330.84 2234.72,-324.84 2237.8,-334.98 2243.45,-330.84"/>
</g>
<!-- aggregator -->
<g id="node28" class="node">
<title>aggregator</title>
<ellipse fill="none" stroke="black" cx="932" cy="-306" rx="50.33" ry="18"/>
<text text-anchor="middle" x="932" y="-300.95" font-family="Times,serif" font-size="14.00">aggregator</text>
</g>
<!-- coin&#45;&gt;aggregator -->
<g id="edge48" class="edge">
<title>coin&#45;&gt;aggregator</title>
<path fill="none" stroke="black" d="M1099.81,-519.44C1040.78,-515.42 903.98,-502.51 876,-468 842.98,-427.28 882.48,-365.81 909.95,-331.81"/>
<polygon fill="black" stroke="black" points="913.25,-334.32 916.96,-324.39 907.87,-329.84 913.25,-334.32"/>
</g>
<!-- aggregator_factory -->
<g id="node29" class="node">
<title>aggregator_factory</title>
<ellipse fill="none" stroke="black" cx="1079" cy="-378" rx="81.04" ry="18"/>
<text text-anchor="middle" x="1079" y="-372.95" font-family="Times,serif" font-size="14.00">aggregator_factory</text>
</g>
<!-- coin&#45;&gt;aggregator_factory -->
<g id="edge49" class="edge">
<title>coin&#45;&gt;aggregator_factory</title>
<path fill="none" stroke="black" d="M1121.31,-504.15C1113.16,-480.05 1098.08,-435.45 1088.3,-406.51"/>
<polygon fill="black" stroke="black" points="1091.36,-405.62 1084.84,-397.27 1084.72,-407.86 1091.36,-405.62"/>
</g>
<!-- optional_aggregator -->
<g id="node30" class="node">
<title>optional_aggregator</title>
<ellipse fill="none" stroke="black" cx="970" cy="-450" rx="85.13" ry="18"/>
<text text-anchor="middle" x="970" y="-444.95" font-family="Times,serif" font-size="14.00">optional_aggregator</text>
</g>
<!-- coin&#45;&gt;optional_aggregator -->
<g id="edge50" class="edge">
<title>coin&#45;&gt;optional_aggregator</title>
<path fill="none" stroke="black" d="M1104.84,-511.12C1081.7,-500.8 1044.76,-484.33 1015.4,-471.24"/>
<polygon fill="black" stroke="black" points="1016.92,-467.64 1006.36,-466.76 1014.07,-474.03 1016.92,-467.64"/>
</g>
<!-- avl_queue&#45;&gt;option -->
<g id="edge51" class="edge">
<title>avl_queue&#45;&gt;option</title>
<path fill="none" stroke="black" d="M441.05,-432.65C418.49,-407.73 380,-357.76 380,-307 380,-307 380,-307 380,-233 380,-193.57 380,-147.97 380,-119.31"/>
<polygon fill="black" stroke="black" points="383.5,-119.49 380,-109.49 376.5,-119.49 383.5,-119.49"/>
</g>
<!-- avl_queue&#45;&gt;table -->
<g id="edge52" class="edge">
<title>avl_queue&#45;&gt;table</title>
<path fill="none" stroke="black" d="M456.38,-431.58C456.67,-411.4 460.43,-378.56 480,-360 511.6,-330.04 637.64,-315.53 702.69,-309.91"/>
<polygon fill="black" stroke="black" points="702.67,-313.34 712.34,-309.02 702.09,-306.37 702.67,-313.34"/>
</g>
<!-- table_with_length -->
<g id="node31" class="node">
<title>table_with_length</title>
<ellipse fill="none" stroke="black" cx="637" cy="-378" rx="77.45" ry="18"/>
<text text-anchor="middle" x="637" y="-372.95" font-family="Times,serif" font-size="14.00">table_with_length</text>
</g>
<!-- avl_queue&#45;&gt;table_with_length -->
<g id="edge53" class="edge">
<title>avl_queue&#45;&gt;table_with_length</title>
<path fill="none" stroke="black" d="M489.6,-436.32C517.2,-425.59 557.18,-410.04 588.54,-397.85"/>
<polygon fill="black" stroke="black" points="589.34,-400.9 597.39,-394.01 586.8,-394.38 589.34,-400.9"/>
</g>
<!-- tablist&#45;&gt;option -->
<g id="edge54" class="edge">
<title>tablist&#45;&gt;option</title>
<path fill="none" stroke="black" d="M597.86,-583.13C528.16,-557.58 346.98,-489.73 328,-468 301.05,-437.14 304,-419.97 304,-379 304,-379 304,-379 304,-233 304,-192.03 307.66,-179.56 328,-144 334.58,-132.49 344.27,-121.67 353.51,-112.85"/>
<polygon fill="black" stroke="black" points="355.38,-115.96 360.42,-106.64 350.67,-110.79 355.38,-115.96"/>
</g>
<!-- tablist&#45;&gt;table_with_length -->
<g id="edge55" class="edge">
<title>tablist&#45;&gt;table_with_length</title>
<path fill="none" stroke="black" d="M625.96,-575.85C628.03,-538.99 632.91,-451.92 635.43,-406.96"/>
<polygon fill="black" stroke="black" points="638.97,-407.41 636.03,-397.23 631.98,-407.02 638.97,-407.41"/>
</g>
<!-- resource_account&#45;&gt;account -->
<g id="edge57" class="edge">
<title>resource_account&#45;&gt;account</title>
<path fill="none" stroke="black" d="M2280.77,-512.59C2170.48,-498.37 1949.59,-469.9 1851.67,-457.27"/>
<polygon fill="black" stroke="black" points="1852.27,-453.69 1841.91,-455.89 1851.38,-460.64 1852.27,-453.69"/>
</g>
<!-- resource_account&#45;&gt;bcs -->
<g id="edge56" class="edge">
<title>resource_account&#45;&gt;bcs</title>
<path fill="none" stroke="black" d="M2346,-503.51C2346,-476.71 2346,-423.87 2346,-379 2346,-379 2346,-379 2346,-305 2346,-206.59 1990.33,-173.58 1871.87,-165.32"/>
<polygon fill="black" stroke="black" points="1872.38,-161.77 1862.17,-164.59 1871.91,-168.76 1872.38,-161.77"/>
</g>
<!-- timestamp -->
<g id="node32" class="node">
<title>timestamp</title>
<ellipse fill="none" stroke="black" cx="2424" cy="-378" rx="50.33" ry="18"/>
<text text-anchor="middle" x="2424" y="-372.95" font-family="Times,serif" font-size="14.00">timestamp</text>
</g>
<!-- resource_account&#45;&gt;timestamp -->
<g id="edge58" class="edge">
<title>resource_account&#45;&gt;timestamp</title>
<path fill="none" stroke="black" d="M2355.41,-503.87C2368.89,-479.33 2393.82,-433.94 2409.63,-405.17"/>
<polygon fill="black" stroke="black" points="2413.05,-407.2 2414.8,-396.75 2406.92,-403.83 2413.05,-407.2"/>
</g>
<!-- incentives&#45;&gt;signer -->
<g id="edge60" class="edge">
<title>incentives&#45;&gt;signer</title>
<path fill="none" stroke="black" d="M1633.05,-656.32C1647.53,-653.44 1663.95,-650.36 1679,-648 1813.42,-626.94 1848,-628.94 1983,-612 2287.3,-573.81 2654,-757.69 2654,-451 2654,-451 2654,-451 2654,-233 2654,-191.59 2638.73,-145.62 2627.55,-117.51"/>
<polygon fill="black" stroke="black" points="2630.54,-116.58 2623.51,-108.66 2624.07,-119.24 2630.54,-116.58"/>
</g>
<!-- incentives&#45;&gt;type_info -->
<g id="edge61" class="edge">
<title>incentives&#45;&gt;type_info</title>
<path fill="none" stroke="black" d="M1578.85,-648.27C1547.76,-607.72 1469.74,-499.84 1435,-396 1419.98,-351.11 1416.5,-295.72 1415.87,-263"/>
<polygon fill="black" stroke="black" points="1419.36,-263.38 1415.76,-253.42 1412.37,-263.46 1419.36,-263.38"/>
</g>
<!-- incentives&#45;&gt;coin -->
<g id="edge62" class="edge">
<title>incentives&#45;&gt;coin</title>
<path fill="none" stroke="black" d="M1555.51,-653.86C1468.03,-627.14 1247.28,-559.73 1161.67,-533.59"/>
<polygon fill="black" stroke="black" points="1162.8,-529.97 1152.22,-530.4 1160.76,-536.66 1162.8,-529.97"/>
</g>
<!-- incentives&#45;&gt;tablist -->
<g id="edge64" class="edge">
<title>incentives&#45;&gt;tablist</title>
<path fill="none" stroke="black" d="M1544.7,-661.58C1379.37,-649.61 828.6,-609.74 668.81,-598.17"/>
<polygon fill="black" stroke="black" points="669.22,-594.62 658.99,-597.39 668.71,-601.6 669.22,-594.62"/>
</g>
<!-- incentives&#45;&gt;resource_account -->
<g id="edge65" class="edge">
<title>incentives&#45;&gt;resource_account</title>
<path fill="none" stroke="black" d="M1634.03,-656.72C1648.3,-653.93 1664.34,-650.81 1679,-648 1897.47,-606.18 2156.49,-558.06 2277.41,-535.67"/>
<polygon fill="black" stroke="black" points="2277.78,-538.98 2286.98,-533.72 2276.51,-532.1 2277.78,-538.98"/>
</g>
<!-- incentives&#45;&gt;vector -->
<g id="edge59" class="edge">
<title>incentives&#45;&gt;vector</title>
<path fill="none" stroke="black" d="M1640.5,-664.59C1825.28,-662.25 2483.53,-646.46 2658,-540 2701.43,-513.5 2730,-501.88 2730,-451 2730,-451 2730,-451 2730,-377 2730,-237.72 2779.22,-140.59 2658,-72 2562.73,-18.1 1774.55,-17.92 1576.18,-18.74"/>
<polygon fill="black" stroke="black" points="1576.29,-15.24 1566.3,-18.79 1576.32,-22.24 1576.29,-15.24"/>
</g>
<!-- aptos_coin -->
<g id="node33" class="node">
<title>aptos_coin</title>
<ellipse fill="none" stroke="black" cx="1194" cy="-594" rx="50.84" ry="18"/>
<text text-anchor="middle" x="1194" y="-588.95" font-family="Times,serif" font-size="14.00">aptos_coin</text>
</g>
<!-- incentives&#45;&gt;aptos_coin -->
<g id="edge63" class="edge">
<title>incentives&#45;&gt;aptos_coin</title>
<path fill="none" stroke="black" d="M1549.03,-657.44C1476.41,-644.67 1329.5,-618.83 1249.31,-604.73"/>
<polygon fill="black" stroke="black" points="1250.37,-601.19 1239.92,-602.9 1249.16,-608.08 1250.37,-601.19"/>
</g>
<!-- registry&#45;&gt;option -->
<g id="edge66" class="edge">
<title>registry&#45;&gt;option</title>
<path fill="none" stroke="black" d="M1089.56,-737.71C1000.36,-738.31 777,-734.2 599,-684 420.15,-633.56 363,-608.17 241,-468 140.78,-352.85 30.76,-262.49 127,-144 152.68,-112.39 269.12,-98.96 334.71,-93.82"/>
<polygon fill="black" stroke="black" points="334.85,-97.25 344.56,-93.01 334.33,-90.27 334.85,-97.25"/>
</g>
<!-- registry&#45;&gt;string -->
<g id="edge67" class="edge">
<title>registry&#45;&gt;string</title>
<path fill="none" stroke="black" d="M1089.69,-736.65C1012.28,-735 835.36,-726.45 694,-684 594.8,-654.21 358.41,-536.81 281,-468 200.78,-396.69 193.16,-357.42 173,-252 169.16,-231.9 167.95,-208.81 167.68,-191.19"/>
<polygon fill="black" stroke="black" points="171.18,-191.21 167.62,-181.23 164.18,-191.24 171.18,-191.21"/>
</g>
<!-- registry&#45;&gt;signer -->
<g id="edge68" class="edge">
<title>registry&#45;&gt;signer</title>
<path fill="none" stroke="black" d="M1167.17,-733.2C1253.19,-724.61 1468.73,-702.97 1649,-684 1761.62,-672.15 2571.79,-613.43 2658,-540 2690.24,-512.54 2692,-493.34 2692,-451 2692,-451 2692,-451 2692,-233 2692,-187.03 2660.65,-141.53 2638.22,-114.87"/>
<polygon fill="black" stroke="black" points="2640.22,-112.83 2631.02,-107.57 2634.93,-117.42 2640.22,-112.83"/>
</g>
<!-- registry&#45;&gt;type_info -->
<g id="edge69" class="edge">
<title>registry&#45;&gt;type_info</title>
<path fill="none" stroke="black" d="M1149.42,-722.6C1177.55,-701.61 1227.71,-659.89 1254,-612 1324.98,-482.69 1239.26,-407.31 1326,-288 1337.68,-271.94 1355.83,-259.92 1372.79,-251.42"/>
<polygon fill="black" stroke="black" points="1374.01,-254.25 1381.57,-246.83 1371.03,-247.91 1374.01,-254.25"/>
</g>
<!-- registry&#45;&gt;table -->
<g id="edge70" class="edge">
<title>registry&#45;&gt;table</title>
<path fill="none" stroke="black" d="M1093.29,-730.39C1004.34,-712.9 780,-662.13 780,-595 780,-595 780,-595 780,-449 780,-407.59 764.73,-361.62 753.55,-333.51"/>
<polygon fill="black" stroke="black" points="756.54,-332.58 749.51,-324.66 750.07,-335.24 756.54,-332.58"/>
</g>
<!-- registry&#45;&gt;event -->
<g id="edge71" class="edge">
<title>registry&#45;&gt;event</title>
<path fill="none" stroke="black" d="M1167.2,-733.5C1205.02,-728.29 1262.79,-715.45 1302,-684 1396.35,-608.31 1448.46,-466.38 1467.06,-406.63"/>
<polygon fill="black" stroke="black" points="1470.69,-407.73 1470.24,-397.14 1463.99,-405.69 1470.69,-407.73"/>
</g>
<!-- registry&#45;&gt;account -->
<g id="edge72" class="edge">
<title>registry&#45;&gt;account</title>
<path fill="none" stroke="black" d="M1166.66,-732.47C1216.27,-725.72 1305.7,-710.85 1378,-684 1535.46,-625.52 1705.76,-516.58 1773.14,-471.42"/>
<polygon fill="black" stroke="black" points="1774.62,-473.98 1780.95,-465.49 1770.71,-468.17 1774.62,-473.98"/>
</g>
<!-- registry&#45;&gt;coin -->
<g id="edge73" class="edge">
<title>registry&#45;&gt;coin</title>
<path fill="none" stroke="black" d="M1128.84,-719.85C1128.5,-682.99 1127.68,-595.92 1127.26,-550.96"/>
<polygon fill="black" stroke="black" points="1130.75,-551.2 1127.16,-541.23 1123.75,-551.26 1130.75,-551.2"/>
</g>
<!-- registry&#45;&gt;tablist -->
<g id="edge74" class="edge">
<title>registry&#45;&gt;tablist</title>
<path fill="none" stroke="black" d="M1089.81,-736.56C1021.81,-734.66 878.46,-725.56 766,-684 722.33,-667.86 677.89,-636.88 650.87,-616.07"/>
<polygon fill="black" stroke="black" points="653.43,-612.85 643.4,-609.44 649.12,-618.36 653.43,-612.85"/>
</g>
<!-- registry&#45;&gt;incentives -->
<g id="edge75" class="edge">
<title>registry&#45;&gt;incentives</title>
<path fill="none" stroke="black" d="M1167.44,-733.68C1239.19,-727.09 1398.19,-710.65 1530,-684 1534.74,-683.04 1539.66,-681.92 1544.55,-680.72"/>
<polygon fill="black" stroke="black" points="1545.34,-683.87 1554.15,-677.99 1543.59,-677.09 1545.34,-683.87"/>
</g>
<!-- user&#45;&gt;option -->
<g id="edge77" class="edge">
<title>user&#45;&gt;option</title>
<path fill="none" stroke="black" d="M1038.08,-806.28C942.16,-796.52 621.72,-763.53 601,-756 546.44,-736.16 535.68,-722.25 492,-684 396.25,-600.16 354.33,-584.9 304,-468 247.05,-335.73 227.2,-263.87 307,-144 316.73,-129.38 331.94,-117.4 345.97,-108.55"/>
<polygon fill="black" stroke="black" points="347.6,-111.06 354.4,-102.93 344.02,-105.04 347.6,-111.06"/>
</g>
<!-- user&#45;&gt;string -->
<g id="edge78" class="edge">
<title>user&#45;&gt;string</title>
<path fill="none" stroke="black" d="M1037.84,-809.48C932.16,-810.91 549,-812.05 444,-756 244.88,-649.71 224.4,-544.68 177,-324 170.19,-292.28 167.68,-284.33 165,-252 163.68,-236.05 164.55,-231.99 165,-216 165.23,-207.86 165.66,-199.03 166.12,-190.94"/>
<polygon fill="black" stroke="black" points="169.66,-191.37 166.78,-181.18 162.68,-190.94 169.66,-191.37"/>
</g>
<!-- user&#45;&gt;signer -->
<g id="edge79" class="edge">
<title>user&#45;&gt;signer</title>
<path fill="none" stroke="black" d="M1092.09,-807.42C1309.95,-794.39 2768,-700.54 2768,-523 2768,-523 2768,-523 2768,-377 2768,-266.92 2748.62,-233.12 2684,-144 2674.24,-130.54 2660.16,-118.79 2647.33,-109.79"/>
<polygon fill="black" stroke="black" points="2649.55,-106.4 2639.3,-103.74 2645.66,-112.21 2649.55,-106.4"/>
</g>
<!-- user&#45;&gt;type_info -->
<g id="edge80" class="edge">
<title>user&#45;&gt;type_info</title>
<path fill="none" stroke="black" d="M1091.95,-806.93C1158.63,-800.19 1326,-772.75 1326,-667 1326,-667 1326,-667 1326,-593 1326,-456.4 1304.59,-411.01 1364,-288 1369.49,-276.62 1378.4,-266.19 1387.3,-257.65"/>
<polygon fill="black" stroke="black" points="1389.3,-260.65 1394.38,-251.36 1384.61,-255.46 1389.3,-260.65"/>
</g>
<!-- user&#45;&gt;table -->
<g id="edge81" class="edge">
<title>user&#45;&gt;table</title>
<path fill="none" stroke="black" d="M1038.7,-805.31C926.79,-789.24 496,-723.7 496,-667 496,-667 496,-667 496,-593 496,-459.42 655.1,-511.04 723,-396 733.92,-377.5 738.6,-353.53 740.59,-335.14"/>
<polygon fill="black" stroke="black" points="744.16,-335.5 741.53,-325.23 737.18,-334.89 744.16,-335.5"/>
</g>
<!-- user&#45;&gt;coin -->
<g id="edge82" class="edge">
<title>user&#45;&gt;coin</title>
<path fill="none" stroke="black" d="M1067.81,-791.89C1070.82,-773.93 1075.86,-744.91 1081,-720 1093.57,-659.11 1110.75,-588.23 1120.16,-550.29"/>
<polygon fill="black" stroke="black" points="1123.68,-551.61 1122.7,-541.06 1116.89,-549.92 1123.68,-551.61"/>
</g>
<!-- user&#45;&gt;tablist -->
<g id="edge83" class="edge">
<title>user&#45;&gt;tablist</title>
<path fill="none" stroke="black" d="M1038.81,-805.5C974.67,-795.86 806.72,-764.16 694,-684 670.69,-667.43 651.49,-640.73 639.31,-620.9"/>
<polygon fill="black" stroke="black" points="641.86,-619.33 633.76,-612.51 635.84,-622.9 641.86,-619.33"/>
</g>
<!-- user&#45;&gt;registry -->
<g id="edge84" class="edge">
<title>user&#45;&gt;registry</title>
<path fill="none" stroke="black" d="M1078.57,-794.15C1086.91,-785.03 1097.78,-773.14 1107.29,-762.74"/>
<polygon fill="black" stroke="black" points="1109.39,-765.54 1113.56,-755.8 1104.23,-760.82 1109.39,-765.54"/>
</g>
<!-- user&#45;&gt;vector -->
<g id="edge76" class="edge">
<title>user&#45;&gt;vector</title>
<path fill="none" stroke="black" d="M1092.1,-808.67C1232.86,-806.48 1894.45,-790.72 2422,-684 2603.39,-647.31 2806,-708.06 2806,-523 2806,-523 2806,-523 2806,-161 2806,-97.42 2753.54,-94.31 2694,-72 2588,-32.28 1776.97,-21.49 1575.96,-19.42"/>
<polygon fill="black" stroke="black" points="1576.26,-15.91 1566.23,-19.31 1576.19,-22.91 1576.26,-15.91"/>
</g>
<!-- features&#45;&gt;signer -->
<g id="edge85" class="edge">
<title>features&#45;&gt;signer</title>
<path fill="none" stroke="black" d="M2119.98,-156.02C2216.55,-143.36 2471.06,-110 2572.94,-96.64"/>
<polygon fill="black" stroke="black" points="2573.28,-100 2582.74,-95.23 2572.37,-93.06 2573.28,-100"/>
</g>
<!-- features&#45;&gt;error -->
<g id="edge86" class="edge">
<title>features&#45;&gt;error</title>
<path fill="none" stroke="black" d="M2051.14,-150.19C2043.64,-147.87 2035.59,-145.63 2028,-144 1878.11,-111.9 1695.74,-97.99 1616.7,-93.15"/>
<polygon fill="black" stroke="black" points="1616.99,-89.6 1606.8,-92.5 1616.57,-96.59 1616.99,-89.6"/>
</g>
<!-- system_addresses&#45;&gt;signer -->
<g id="edge87" class="edge">
<title>system_addresses&#45;&gt;signer</title>
<path fill="none" stroke="black" d="M2249.44,-289.09C2321.83,-249.97 2508.1,-149.31 2583.54,-108.54"/>
<polygon fill="black" stroke="black" points="2584.88,-111.25 2592.01,-103.42 2581.55,-105.1 2584.88,-111.25"/>
</g>
<!-- system_addresses&#45;&gt;error -->
<g id="edge88" class="edge">
<title>system_addresses&#45;&gt;error</title>
<path fill="none" stroke="black" d="M2216.12,-287.75C2207.46,-253.69 2183.07,-178.16 2131,-144 2088.2,-115.92 1736.64,-98.01 1616.82,-92.68"/>
<polygon fill="black" stroke="black" points="1617.11,-89.14 1606.97,-92.2 1616.81,-96.13 1617.11,-89.14"/>
</g>
<!-- ed25519&#45;&gt;option -->
<g id="edge89" class="edge">
<title>ed25519&#45;&gt;option</title>
<path fill="none" stroke="black" d="M1779.85,-288.74C1746.67,-254.39 1663.41,-175.08 1575,-144 1465.22,-105.41 631.63,-93.77 425.83,-91.47"/>
<polygon fill="black" stroke="black" points="425.87,-87.95 415.84,-91.34 425.8,-94.95 425.87,-87.95"/>
</g>
<!-- ed25519&#45;&gt;type_info -->
<g id="edge92" class="edge">
<title>ed25519&#45;&gt;type_info</title>
<path fill="none" stroke="black" d="M1756.57,-297.9C1688,-285.24 1544.55,-258.74 1467.52,-244.52"/>
<polygon fill="black" stroke="black" points="1468.57,-240.97 1458.11,-242.59 1467.3,-247.85 1468.57,-240.97"/>
</g>
<!-- ed25519&#45;&gt;error -->
<g id="edge90" class="edge">
<title>ed25519&#45;&gt;error</title>
<path fill="none" stroke="black" d="M1789.11,-288.07C1777.13,-255.89 1747,-185.41 1700,-144 1675.31,-122.25 1640.34,-108.35 1613.99,-100.27"/>
<polygon fill="black" stroke="black" points="1615.22,-96.69 1604.64,-97.25 1613.26,-103.41 1615.22,-96.69"/>
</g>
<!-- ed25519&#45;&gt;bcs -->
<g id="edge91" class="edge">
<title>ed25519&#45;&gt;bcs</title>
<path fill="none" stroke="black" d="M1799.7,-287.87C1806.32,-263.78 1818.45,-219.6 1826.37,-190.77"/>
<polygon fill="black" stroke="black" points="1830.01,-191.76 1829.28,-181.19 1823.26,-189.91 1830.01,-191.76"/>
</g>
<!-- ed25519&#45;&gt;hash -->
<g id="edge93" class="edge">
<title>ed25519&#45;&gt;hash</title>
<path fill="none" stroke="black" d="M1814.31,-289.46C1826.79,-279.42 1843.17,-266.24 1856.69,-255.36"/>
<polygon fill="black" stroke="black" points="1858.5,-257.6 1864.1,-248.6 1854.11,-252.14 1858.5,-257.6"/>
</g>
<!-- multi_ed25519&#45;&gt;option -->
<g id="edge94" class="edge">
<title>multi_ed25519&#45;&gt;option</title>
<path fill="none" stroke="black" d="M1936.67,-368.73C1884.92,-360.45 1807.72,-345.79 1743,-324 1689.87,-306.11 1567.28,-236.23 1515,-216 1412.73,-176.42 1386.94,-163.36 1279,-144 1112.18,-114.08 583.17,-96.82 425.05,-92.24"/>
<polygon fill="black" stroke="black" points="425.42,-88.72 415.32,-91.93 425.22,-95.72 425.42,-88.72"/>
</g>
<!-- multi_ed25519&#45;&gt;error -->
<g id="edge95" class="edge">
<title>multi_ed25519&#45;&gt;error</title>
<path fill="none" stroke="black" d="M1995.05,-359.52C1994.64,-341.26 1992.67,-311.99 1985,-288 1960.05,-209.99 1942.95,-181.24 1870,-144 1786.95,-101.61 1675.47,-92.64 1616.86,-91.04"/>
<polygon fill="black" stroke="black" points="1617.28,-87.53 1607.21,-90.82 1617.13,-94.53 1617.28,-87.53"/>
</g>
<!-- multi_ed25519&#45;&gt;features -->
<g id="edge96" class="edge">
<title>multi_ed25519&#45;&gt;features</title>
<path fill="none" stroke="black" d="M2007.07,-359.91C2013.84,-349.8 2022.09,-336.55 2028,-324 2049.24,-278.91 2065.98,-223.16 2074.9,-190.49"/>
<polygon fill="black" stroke="black" points="2078.51,-191.52 2077.72,-180.95 2071.75,-189.71 2078.51,-191.52"/>
</g>
<!-- multi_ed25519&#45;&gt;bcs -->
<g id="edge97" class="edge">
<title>multi_ed25519&#45;&gt;bcs</title>
<path fill="none" stroke="black" d="M1990.38,-359.66C1981.23,-328.02 1958.24,-260.1 1919,-216 1904.41,-199.6 1883.54,-186.49 1866.13,-177.41"/>
<polygon fill="black" stroke="black" points="1867.87,-173.86 1857.36,-172.53 1864.75,-180.13 1867.87,-173.86"/>
</g>
<!-- multi_ed25519&#45;&gt;hash -->
<g id="edge98" class="edge">
<title>multi_ed25519&#45;&gt;hash</title>
<path fill="none" stroke="black" d="M1981.59,-360.15C1961.57,-334.99 1923.76,-287.47 1900.92,-258.78"/>
<polygon fill="black" stroke="black" points="1903.32,-257.17 1894.35,-251.52 1897.84,-261.53 1903.32,-257.17"/>
</g>
<!-- multi_ed25519&#45;&gt;ed25519 -->
<g id="edge99" class="edge">
<title>multi_ed25519&#45;&gt;ed25519</title>
<path fill="none" stroke="black" d="M1955.49,-363.17C1921.44,-351.25 1872.41,-334.09 1837.52,-321.88"/>
<polygon fill="black" stroke="black" points="1838.77,-318.26 1828.18,-318.26 1836.46,-324.87 1838.77,-318.26"/>
</g>
<!-- from_bcs&#45;&gt;string -->
<g id="edge100" class="edge">
<title>from_bcs&#45;&gt;string</title>
<path fill="none" stroke="black" d="M861.22,-228.75C728.61,-216.17 339.16,-179.23 210.09,-166.99"/>
<polygon fill="black" stroke="black" points="210.77,-163.45 200.48,-165.99 210.11,-170.41 210.77,-163.45"/>
</g>
<!-- chain_id&#45;&gt;system_addresses -->
<g id="edge101" class="edge">
<title>chain_id&#45;&gt;system_addresses</title>
<path fill="none" stroke="black" d="M2204.19,-359.7C2206.48,-352.07 2209.23,-342.92 2211.78,-334.4"/>
<polygon fill="black" stroke="black" points="2215.35,-335.69 2214.87,-325.1 2208.64,-333.68 2215.35,-335.69"/>
</g>
<!-- aggregator_factory&#45;&gt;table -->
<g id="edge103" class="edge">
<title>aggregator_factory&#45;&gt;table</title>
<path fill="none" stroke="black" d="M1021.45,-365.05C952.4,-350.7 838.59,-327.06 779.79,-314.85"/>
<polygon fill="black" stroke="black" points="780.63,-311.24 770.13,-312.64 779.21,-318.1 780.63,-311.24"/>
</g>
<!-- aggregator_factory&#45;&gt;error -->
<g id="edge102" class="edge">
<title>aggregator_factory&#45;&gt;error</title>
<path fill="none" stroke="black" d="M1080.33,-359.78C1084.74,-315.78 1102.93,-198.84 1174,-144 1230.12,-100.69 1446.36,-92.72 1536.84,-91.29"/>
<polygon fill="black" stroke="black" points="1536.78,-94.78 1546.73,-91.14 1536.69,-87.78 1536.78,-94.78"/>
</g>
<!-- aggregator_factory&#45;&gt;system_addresses -->
<g id="edge104" class="edge">
<title>aggregator_factory&#45;&gt;system_addresses</title>
<path fill="none" stroke="black" d="M1156.08,-372.27C1361.64,-359.66 1921.77,-325.3 2135.54,-312.18"/>
<polygon fill="black" stroke="black" points="2135.61,-315.62 2145.38,-311.52 2135.18,-308.64 2135.61,-315.62"/>
</g>
<!-- aggregator_factory&#45;&gt;aggregator -->
<g id="edge105" class="edge">
<title>aggregator_factory&#45;&gt;aggregator</title>
<path fill="none" stroke="black" d="M1046.01,-361.29C1023.89,-350.76 994.65,-336.83 971.32,-325.72"/>
<polygon fill="black" stroke="black" points="972.92,-322.14 962.39,-321 969.92,-328.46 972.92,-322.14"/>
</g>
<!-- optional_aggregator&#45;&gt;option -->
<g id="edge106" class="edge">
<title>optional_aggregator&#45;&gt;option</title>
<path fill="none" stroke="black" d="M952.83,-431.89C920.84,-400.61 849.06,-333.28 780,-288 654.43,-205.68 489.52,-135.01 416.97,-105.6"/>
<polygon fill="black" stroke="black" points="418.53,-102.05 407.95,-101.56 415.91,-108.54 418.53,-102.05"/>
</g>
<!-- optional_aggregator&#45;&gt;error -->
<g id="edge107" class="edge">
<title>optional_aggregator&#45;&gt;error</title>
<path fill="none" stroke="black" d="M971.68,-431.67C973.92,-413.28 978.84,-383.66 989,-360 1034.91,-253.06 1037.48,-204.33 1137,-144 1203.86,-103.47 1441.88,-93.89 1537.15,-91.66"/>
<polygon fill="black" stroke="black" points="1537.12,-95.14 1547.04,-91.42 1536.97,-88.14 1537.12,-95.14"/>
</g>
<!-- optional_aggregator&#45;&gt;aggregator -->
<g id="edge108" class="edge">
<title>optional_aggregator&#45;&gt;aggregator</title>
<path fill="none" stroke="black" d="M965.34,-431.59C958.87,-407.4 947.08,-363.36 939.4,-334.65"/>
<polygon fill="black" stroke="black" points="942.55,-333.87 936.58,-325.11 935.78,-335.68 942.55,-333.87"/>
</g>
<!-- optional_aggregator&#45;&gt;aggregator_factory -->
<g id="edge109" class="edge">
<title>optional_aggregator&#45;&gt;aggregator_factory</title>
<path fill="none" stroke="black" d="M995.83,-432.41C1010.36,-423.08 1028.68,-411.32 1044.43,-401.2"/>
<polygon fill="black" stroke="black" points="1045.83,-403.82 1052.35,-395.47 1042.05,-397.93 1045.83,-403.82"/>
</g>
<!-- table_with_length&#45;&gt;table -->
<g id="edge111" class="edge">
<title>table_with_length&#45;&gt;table</title>
<path fill="none" stroke="black" d="M661.62,-360.59C677.22,-350.18 697.46,-336.69 713.73,-325.85"/>
<polygon fill="black" stroke="black" points="715.4,-328.27 721.78,-319.81 711.52,-322.45 715.4,-328.27"/>
</g>
<!-- table_with_length&#45;&gt;error -->
<g id="edge110" class="edge">
<title>table_with_length&#45;&gt;error</title>
<path fill="none" stroke="black" d="M646.63,-359.67C658.17,-340.18 679.1,-308.57 704,-288 760.09,-241.67 784.03,-244.42 851,-216 937.58,-179.26 958.29,-164.86 1050,-144 1228.67,-103.35 1448.49,-93.87 1537.15,-91.67"/>
<polygon fill="black" stroke="black" points="1537.12,-95.15 1547.04,-91.42 1536.96,-88.15 1537.12,-95.15"/>
</g>
<!-- timestamp&#45;&gt;error -->
<g id="edge112" class="edge">
<title>timestamp&#45;&gt;error</title>
<path fill="none" stroke="black" d="M2421.81,-359.64C2416.8,-327.04 2401.54,-256.33 2360,-216 2292.82,-150.78 2253.39,-164.39 2162,-144 1960.67,-99.07 1712.27,-92.05 1616.88,-91.09"/>
<polygon fill="black" stroke="black" points="1617.04,-87.58 1607.02,-91 1616.99,-94.58 1617.04,-87.58"/>
</g>
<!-- timestamp&#45;&gt;system_addresses -->
<g id="edge113" class="edge">
<title>timestamp&#45;&gt;system_addresses</title>
<path fill="none" stroke="black" d="M2388.47,-364.81C2356.33,-353.78 2308.6,-337.4 2272.14,-324.89"/>
<polygon fill="black" stroke="black" points="2273.77,-321.41 2263.18,-321.47 2271.5,-328.03 2273.77,-321.41"/>
</g>
<!-- aptos_coin&#45;&gt;option -->
<g id="edge115" class="edge">
<title>aptos_coin&#45;&gt;option</title>
<path fill="none" stroke="black" d="M1142.91,-592.95C1038.75,-591.87 794.88,-584.35 596,-540 505.01,-519.71 471.73,-526.31 399,-468 362.35,-438.62 342,-425.97 342,-379 342,-379 342,-379 342,-233 342,-191.59 357.27,-145.62 368.45,-117.51"/>
<polygon fill="black" stroke="black" points="371.93,-119.24 372.49,-108.66 365.46,-116.58 371.93,-119.24"/>
</g>
<!-- aptos_coin&#45;&gt;string -->
<g id="edge116" class="edge">
<title>aptos_coin&#45;&gt;string</title>
<path fill="none" stroke="black" d="M1143.2,-591.76C978.09,-586.8 459.67,-563.79 328,-468 235.29,-400.56 226.67,-359.56 187,-252 179.69,-232.18 174.83,-208.78 171.86,-190.96"/>
<polygon fill="black" stroke="black" points="175.17,-190.48 170.17,-181.14 168.26,-191.56 175.17,-190.48"/>
</g>
<!-- aptos_coin&#45;&gt;signer -->
<g id="edge117" class="edge">
<title>aptos_coin&#45;&gt;signer</title>
<path fill="none" stroke="black" d="M1244.9,-592.02C1463.12,-587.67 2313.89,-568.98 2430,-540 2518.92,-517.81 2616,-542.64 2616,-451 2616,-451 2616,-451 2616,-233 2616,-193.57 2616,-147.97 2616,-119.31"/>
<polygon fill="black" stroke="black" points="2619.5,-119.49 2616,-109.49 2612.5,-119.49 2619.5,-119.49"/>
</g>
<!-- aptos_coin&#45;&gt;coin -->
<g id="edge120" class="edge">
<title>aptos_coin&#45;&gt;coin</title>
<path fill="none" stroke="black" d="M1178.12,-576.41C1169.21,-567.1 1157.96,-555.35 1148.29,-545.24"/>
<polygon fill="black" stroke="black" points="1151.39,-543.37 1141.95,-538.57 1146.33,-548.21 1151.39,-543.37"/>
</g>
<!-- aptos_coin&#45;&gt;vector -->
<g id="edge114" class="edge">
<title>aptos_coin&#45;&gt;vector</title>
<path fill="none" stroke="black" d="M1147.75,-586.09C990.86,-561.54 491.84,-473.85 551,-360 602.34,-261.2 658.31,-269.41 756,-216 1009.67,-77.31 1363.48,-33.9 1486.64,-22.53"/>
<polygon fill="black" stroke="black" points="1486.85,-25.94 1496.49,-21.56 1486.22,-18.96 1486.85,-25.94"/>
</g>
<!-- aptos_coin&#45;&gt;error -->
<g id="edge118" class="edge">
<title>aptos_coin&#45;&gt;error</title>
<path fill="none" stroke="black" d="M1192.5,-575.74C1189.09,-526.28 1185.38,-381.65 1248,-288 1319.66,-180.83 1471.15,-123.08 1540.7,-101.3"/>
<polygon fill="black" stroke="black" points="1541.59,-104.38 1550.14,-98.11 1539.55,-97.68 1541.59,-104.38"/>
</g>
<!-- aptos_coin&#45;&gt;system_addresses -->
<g id="edge119" class="edge">
<title>aptos_coin&#45;&gt;system_addresses</title>
<path fill="none" stroke="black" d="M1243.24,-588.8C1375.17,-576.9 1747.11,-539.13 2049,-468 2148.73,-444.5 2207.92,-479 2268,-396 2282.8,-375.56 2265.85,-350.02 2248.13,-331.54"/>
<polygon fill="black" stroke="black" points="2250.9,-329.37 2241.32,-324.85 2245.99,-334.36 2250.9,-329.37"/>
</g>
</g>
</svg>
