<?xml version="1.0" encoding="UTF-8" standalone="no"?>
<!DOCTYPE svg PUBLIC "-//W3C//DTD SVG 1.1//EN"
 "http://www.w3.org/Graphics/SVG/1.1/DTD/svg11.dtd">
<!-- Generated by graphviz version 8.0.5 (20230430.1635)
 -->
<!-- Title: G Pages: 1 -->
<svg width="2776pt" height="908pt"
 viewBox="0.00 0.00 2776.00 908.00" xmlns="http://www.w3.org/2000/svg" xmlns:xlink="http://www.w3.org/1999/xlink">
<g id="graph0" class="graph" transform="scale(1 1) rotate(0) translate(4 904)">
<title>G</title>
<polygon fill="white" stroke="none" points="-4,4 -4,-904 2772,-904 2772,4 -4,4"/>
<!-- market -->
<g id="node1" class="node">
<title>market</title>
<ellipse fill="none" stroke="black" cx="1077" cy="-882" rx="37.02" ry="18"/>
<text text-anchor="middle" x="1077" y="-876.95" font-family="Times,serif" font-size="14.00">market</text>
</g>
<!-- option -->
<g id="node2" class="node">
<title>option</title>
<ellipse fill="none" stroke="black" cx="2174" cy="-90" rx="34.46" ry="18"/>
<text text-anchor="middle" x="2174" y="-84.95" font-family="Times,serif" font-size="14.00">option</text>
</g>
<!-- market&#45;&gt;option -->
<g id="edge1" class="edge">
<title>market&#45;&gt;option</title>
<path fill="none" stroke="black" d="M1114.31,-881.02C1310.08,-880.89 2220.17,-877.61 2497,-828 2621.79,-805.64 2768,-865.77 2768,-739 2768,-739 2768,-739 2768,-305 2768,-189.85 2670.94,-189.12 2565,-144 2503.43,-117.78 2308.07,-100.71 2219.02,-94.1"/>
<polygon fill="black" stroke="black" points="2219.42,-90.54 2209.19,-93.3 2218.91,-97.52 2219.42,-90.54"/>
</g>
<!-- string -->
<g id="node3" class="node">
<title>string</title>
<ellipse fill="none" stroke="black" cx="2524" cy="-162" rx="31.9" ry="18"/>
<text text-anchor="middle" x="2524" y="-156.95" font-family="Times,serif" font-size="14.00">string</text>
</g>
<!-- market&#45;&gt;string -->
<g id="edge2" class="edge">
<title>market&#45;&gt;string</title>
<path fill="none" stroke="black" d="M1114.07,-880.23C1290.93,-876.43 2050.16,-858.6 2285,-828 2468.61,-804.08 2692,-924.16 2692,-739 2692,-739 2692,-739 2692,-377 2692,-288.66 2602.33,-215.17 2554.01,-181.99"/>
<polygon fill="black" stroke="black" points="2556.19,-178.57 2545.94,-175.9 2552.29,-184.38 2556.19,-178.57"/>
</g>
<!-- signer -->
<g id="node4" class="node">
<title>signer</title>
<ellipse fill="none" stroke="black" cx="338" cy="-90" rx="33.44" ry="18"/>
<text text-anchor="middle" x="338" y="-84.95" font-family="Times,serif" font-size="14.00">signer</text>
</g>
<!-- market&#45;&gt;signer -->
<g id="edge3" class="edge">
<title>market&#45;&gt;signer</title>
<path fill="none" stroke="black" d="M1039.75,-880.81C891.54,-879.74 343.75,-872.78 177,-828 91.96,-805.16 0,-827.05 0,-739 0,-739 0,-739 0,-233 0,-189.45 6.02,-169.95 41,-144 134.69,-74.49 189.02,-140.7 301,-108 302.12,-107.67 303.25,-107.32 304.38,-106.94"/>
<polygon fill="black" stroke="black" points="305.44,-109.9 313.51,-103.03 302.92,-103.36 305.44,-109.9"/>
</g>
<!-- type_info -->
<g id="node5" class="node">
<title>type_info</title>
<ellipse fill="none" stroke="black" cx="1312" cy="-234" rx="46.23" ry="18"/>
<text text-anchor="middle" x="1312" y="-228.95" font-family="Times,serif" font-size="14.00">type_info</text>
</g>
<!-- market&#45;&gt;type_info -->
<g id="edge4" class="edge">
<title>market&#45;&gt;type_info</title>
<path fill="none" stroke="black" d="M1054.75,-867.24C1021.57,-844.82 963,-797.01 963,-739 963,-739 963,-739 963,-665 963,-524.39 1067.1,-519.7 1177,-432 1202.21,-411.89 1218.35,-419.9 1240,-396 1275.52,-356.79 1295.89,-297.16 1305.38,-262.54"/>
<polygon fill="black" stroke="black" points="1308.94,-263.8 1308.09,-253.24 1302.16,-262.02 1308.94,-263.8"/>
</g>
<!-- event -->
<g id="node6" class="node">
<title>event</title>
<ellipse fill="none" stroke="black" cx="211" cy="-378" rx="30.88" ry="18"/>
<text text-anchor="middle" x="211" y="-372.95" font-family="Times,serif" font-size="14.00">event</text>
</g>
<!-- market&#45;&gt;event -->
<g id="edge5" class="edge">
<title>market&#45;&gt;event</title>
<path fill="none" stroke="black" d="M1039.89,-879.73C858.73,-873.03 76,-838.34 76,-739 76,-739 76,-739 76,-521 76,-462.05 137.87,-417.83 177.85,-395.42"/>
<polygon fill="black" stroke="black" points="179.36,-398.04 186.48,-390.2 176.03,-391.89 179.36,-398.04"/>
</g>
<!-- account -->
<g id="node7" class="node">
<title>account</title>
<ellipse fill="none" stroke="black" cx="787" cy="-450" rx="39.58" ry="18"/>
<text text-anchor="middle" x="787" y="-444.95" font-family="Times,serif" font-size="14.00">account</text>
</g>
<!-- market&#45;&gt;account -->
<g id="edge6" class="edge">
<title>market&#45;&gt;account</title>
<path fill="none" stroke="black" d="M1041.51,-876.06C944.31,-861.56 681,-815.23 681,-739 681,-739 681,-739 681,-593 681,-541.68 726.01,-496.95 757.37,-472.01"/>
<polygon fill="black" stroke="black" points="759.02,-474.39 764.8,-465.51 754.75,-468.84 759.02,-474.39"/>
</g>
<!-- coin -->
<g id="node8" class="node">
<title>coin</title>
<ellipse fill="none" stroke="black" cx="1507" cy="-522" rx="27" ry="18"/>
<text text-anchor="middle" x="1507" y="-516.95" font-family="Times,serif" font-size="14.00">coin</text>
</g>
<!-- market&#45;&gt;coin -->
<g id="edge7" class="edge">
<title>market&#45;&gt;coin</title>
<path fill="none" stroke="black" d="M1069.31,-863.91C1058.21,-837.62 1039,-785.45 1039,-739 1039,-739 1039,-739 1039,-665 1039,-575.22 1358.4,-536.87 1469.47,-526.24"/>
<polygon fill="black" stroke="black" points="1469.53,-529.66 1479.16,-525.25 1468.88,-522.69 1469.53,-529.66"/>
</g>
<!-- avl_queue -->
<g id="node9" class="node">
<title>avl_queue</title>
<ellipse fill="none" stroke="black" cx="2387" cy="-450" rx="48.79" ry="18"/>
<text text-anchor="middle" x="2387" y="-444.95" font-family="Times,serif" font-size="14.00">avl_queue</text>
</g>
<!-- market&#45;&gt;avl_queue -->
<g id="edge8" class="edge">
<title>market&#45;&gt;avl_queue</title>
<path fill="none" stroke="black" d="M1114.16,-880.49C1309.16,-877.66 2207.16,-862.75 2254,-828 2368.58,-742.99 2384.9,-551.43 2386.89,-479.24"/>
<polygon fill="black" stroke="black" points="2390.41,-479.4 2387.1,-469.33 2383.41,-479.26 2390.41,-479.4"/>
</g>
<!-- tablist -->
<g id="node10" class="node">
<title>tablist</title>
<ellipse fill="none" stroke="black" cx="2211" cy="-594" rx="33.44" ry="18"/>
<text text-anchor="middle" x="2211" y="-588.95" font-family="Times,serif" font-size="14.00">tablist</text>
</g>
<!-- market&#45;&gt;tablist -->
<g id="edge9" class="edge">
<title>market&#45;&gt;tablist</title>
<path fill="none" stroke="black" d="M1114.26,-880.72C1307.77,-879.06 2190.58,-869.28 2230,-828 2283.67,-771.81 2246.44,-669.35 2224.25,-621.25"/>
<polygon fill="black" stroke="black" points="2227.11,-620.11 2219.65,-612.58 2220.79,-623.12 2227.11,-620.11"/>
</g>
<!-- resource_account -->
<g id="node11" class="node">
<title>resource_account</title>
<ellipse fill="none" stroke="black" cx="898" cy="-522" rx="75.41" ry="18"/>
<text text-anchor="middle" x="898" y="-516.95" font-family="Times,serif" font-size="14.00">resource_account</text>
</g>
<!-- market&#45;&gt;resource_account -->
<g id="edge10" class="edge">
<title>market&#45;&gt;resource_account</title>
<path fill="none" stroke="black" d="M1042.75,-874.45C1014.35,-867.4 974.61,-853.58 949,-828 918.69,-797.73 912,-781.84 912,-739 912,-739 912,-739 912,-665 912,-625.37 906.53,-579.83 902.43,-551.23"/>
<polygon fill="black" stroke="black" points="905.76,-550.81 900.83,-541.43 898.84,-551.84 905.76,-550.81"/>
</g>
<!-- incentives -->
<g id="node12" class="node">
<title>incentives</title>
<ellipse fill="none" stroke="black" cx="1431" cy="-666" rx="48.28" ry="18"/>
<text text-anchor="middle" x="1431" y="-660.95" font-family="Times,serif" font-size="14.00">incentives</text>
</g>
<!-- market&#45;&gt;incentives -->
<g id="edge11" class="edge">
<title>market&#45;&gt;incentives</title>
<path fill="none" stroke="black" d="M1099.68,-867.29C1160.29,-830.65 1326.24,-730.33 1397.62,-687.18"/>
<polygon fill="black" stroke="black" points="1398.9,-689.89 1405.65,-681.72 1395.28,-683.9 1398.9,-689.89"/>
</g>
<!-- registry -->
<g id="node13" class="node">
<title>registry</title>
<ellipse fill="none" stroke="black" cx="1591" cy="-738" rx="39.07" ry="18"/>
<text text-anchor="middle" x="1591" y="-732.95" font-family="Times,serif" font-size="14.00">registry</text>
</g>
<!-- market&#45;&gt;registry -->
<g id="edge12" class="edge">
<title>market&#45;&gt;registry</title>
<path fill="none" stroke="black" d="M1108.77,-872.22C1197.25,-847.78 1446.65,-778.88 1547.69,-750.97"/>
<polygon fill="black" stroke="black" points="1548.42,-754.12 1557.13,-748.08 1546.55,-747.37 1548.42,-754.12"/>
</g>
<!-- user -->
<g id="node14" class="node">
<title>user</title>
<ellipse fill="none" stroke="black" cx="2194" cy="-810" rx="27" ry="18"/>
<text text-anchor="middle" x="2194" y="-804.95" font-family="Times,serif" font-size="14.00">user</text>
</g>
<!-- market&#45;&gt;user -->
<g id="edge13" class="edge">
<title>market&#45;&gt;user</title>
<path fill="none" stroke="black" d="M1113.85,-878.69C1283.12,-868.08 1985.25,-824.08 2156.3,-813.36"/>
<polygon fill="black" stroke="black" points="2156.48,-816.8 2166.24,-812.68 2156.04,-809.81 2156.48,-816.8"/>
</g>
<!-- vector -->
<g id="node15" class="node">
<title>vector</title>
<ellipse fill="none" stroke="black" cx="2349" cy="-18" rx="33.95" ry="18"/>
<text text-anchor="middle" x="2349" y="-12.95" font-family="Times,serif" font-size="14.00">vector</text>
</g>
<!-- option&#45;&gt;vector -->
<g id="edge14" class="edge">
<title>option&#45;&gt;vector</title>
<path fill="none" stroke="black" d="M2200.58,-78.37C2230.47,-66.41 2279.2,-46.92 2312.62,-33.55"/>
<polygon fill="black" stroke="black" points="2313.47,-36.58 2321.46,-29.62 2310.87,-30.08 2313.47,-36.58"/>
</g>
<!-- string&#45;&gt;option -->
<g id="edge16" class="edge">
<title>string&#45;&gt;option</title>
<path fill="none" stroke="black" d="M2498.48,-150.63C2491.88,-148.21 2484.74,-145.82 2478,-144 2387.18,-119.52 2277.94,-103.69 2218.27,-96.16"/>
<polygon fill="black" stroke="black" points="2219.08,-92.61 2208.72,-94.85 2218.21,-99.55 2219.08,-92.61"/>
</g>
<!-- string&#45;&gt;vector -->
<g id="edge15" class="edge">
<title>string&#45;&gt;vector</title>
<path fill="none" stroke="black" d="M2506.26,-146.6C2475.29,-121.47 2411.23,-69.49 2375.16,-40.22"/>
<polygon fill="black" stroke="black" points="2378.02,-37.23 2368.05,-33.65 2373.61,-42.67 2378.02,-37.23"/>
</g>
<!-- type_info&#45;&gt;string -->
<g id="edge17" class="edge">
<title>type_info&#45;&gt;string</title>
<path fill="none" stroke="black" d="M1357.67,-230.36C1550.3,-219.24 2295.15,-176.22 2481.53,-165.45"/>
<polygon fill="black" stroke="black" points="2481.47,-168.9 2491.25,-164.83 2481.06,-161.92 2481.47,-168.9"/>
</g>
<!-- error -->
<g id="node16" class="node">
<title>error</title>
<ellipse fill="none" stroke="black" cx="1219" cy="-90" rx="28.83" ry="18"/>
<text text-anchor="middle" x="1219" y="-84.95" font-family="Times,serif" font-size="14.00">error</text>
</g>
<!-- type_info&#45;&gt;error -->
<g id="edge18" class="edge">
<title>type_info&#45;&gt;error</title>
<path fill="none" stroke="black" d="M1300.97,-216.15C1284.71,-191.34 1254.23,-144.78 1235.36,-115.98"/>
<polygon fill="black" stroke="black" points="1237.85,-114.4 1229.45,-107.95 1232,-118.24 1237.85,-114.4"/>
</g>
<!-- features -->
<g id="node17" class="node">
<title>features</title>
<ellipse fill="none" stroke="black" cx="972" cy="-162" rx="40.09" ry="18"/>
<text text-anchor="middle" x="972" y="-156.95" font-family="Times,serif" font-size="14.00">features</text>
</g>
<!-- type_info&#45;&gt;features -->
<g id="edge19" class="edge">
<title>type_info&#45;&gt;features</title>
<path fill="none" stroke="black" d="M1271.66,-224.7C1208.26,-211.64 1085.62,-186.39 1018.56,-172.59"/>
<polygon fill="black" stroke="black" points="1019.4,-168.98 1008.9,-170.39 1017.99,-175.84 1019.4,-168.98"/>
</g>
<!-- bcs -->
<g id="node18" class="node">
<title>bcs</title>
<ellipse fill="none" stroke="black" cx="887" cy="-162" rx="27" ry="18"/>
<text text-anchor="middle" x="887" y="-156.95" font-family="Times,serif" font-size="14.00">bcs</text>
</g>
<!-- type_info&#45;&gt;bcs -->
<g id="edge20" class="edge">
<title>type_info&#45;&gt;bcs</title>
<path fill="none" stroke="black" d="M1265.83,-231.26C1191.99,-227.47 1043.4,-215.71 923,-180 921.22,-179.47 919.42,-178.87 917.63,-178.21"/>
<polygon fill="black" stroke="black" points="919.09,-174.62 908.51,-174 916.4,-181.08 919.09,-174.62"/>
</g>
<!-- event&#45;&gt;bcs -->
<g id="edge21" class="edge">
<title>event&#45;&gt;bcs</title>
<path fill="none" stroke="black" d="M204.53,-359.98C198.22,-340.18 191.86,-307.71 209,-288 246.84,-244.49 409.2,-261.97 466,-252 609.83,-226.76 779.46,-188.18 851.64,-171.34"/>
<polygon fill="black" stroke="black" points="852.03,-174.61 860.97,-168.93 850.43,-167.79 852.03,-174.61"/>
</g>
<!-- guid -->
<g id="node19" class="node">
<title>guid</title>
<ellipse fill="none" stroke="black" cx="245" cy="-306" rx="27.3" ry="18"/>
<text text-anchor="middle" x="245" y="-300.95" font-family="Times,serif" font-size="14.00">guid</text>
</g>
<!-- event&#45;&gt;guid -->
<g id="edge22" class="edge">
<title>event&#45;&gt;guid</title>
<path fill="none" stroke="black" d="M219.06,-360.41C223,-352.3 227.83,-342.35 232.25,-333.25"/>
<polygon fill="black" stroke="black" points="235.78,-334.99 237,-324.47 229.48,-331.94 235.78,-334.99"/>
</g>
<!-- account&#45;&gt;option -->
<g id="edge24" class="edge">
<title>account&#45;&gt;option</title>
<path fill="none" stroke="black" d="M826.69,-447.76C906.24,-444.53 1090.38,-433.32 1240,-396 1314.65,-377.38 1810.99,-165.04 1885,-144 1970.1,-119.81 2072.54,-104.07 2129.76,-96.43"/>
<polygon fill="black" stroke="black" points="2130.13,-99.79 2139.59,-95.02 2129.22,-92.85 2130.13,-99.79"/>
</g>
<!-- account&#45;&gt;signer -->
<g id="edge25" class="edge">
<title>account&#45;&gt;signer</title>
<path fill="none" stroke="black" d="M755.88,-438.35C747.86,-435.94 739.17,-433.61 731,-432 648.44,-415.7 412.22,-456.77 354,-396 316.64,-357 328.61,-186.93 335.05,-119.09"/>
<polygon fill="black" stroke="black" points="338.61,-119.68 336.11,-109.39 331.64,-119 338.61,-119.68"/>
</g>
<!-- account&#45;&gt;type_info -->
<g id="edge28" class="edge">
<title>account&#45;&gt;type_info</title>
<path fill="none" stroke="black" d="M826.84,-448.93C920.86,-448.01 1153.17,-441.1 1214,-396 1256.19,-364.71 1232.9,-331.73 1262,-288 1268.98,-277.52 1278.09,-267.18 1286.62,-258.45"/>
<polygon fill="black" stroke="black" points="1288.56,-261.45 1293.21,-251.93 1283.64,-256.48 1288.56,-261.45"/>
</g>
<!-- account&#45;&gt;event -->
<g id="edge36" class="edge">
<title>account&#45;&gt;event</title>
<path fill="none" stroke="black" d="M756.47,-438.05C748.89,-435.7 740.72,-433.49 733,-432 524.23,-391.81 463.56,-442.04 256,-396 252.58,-395.24 249.06,-394.27 245.58,-393.19"/>
<polygon fill="black" stroke="black" points="246.96,-389.61 236.37,-389.65 244.68,-396.23 246.96,-389.61"/>
</g>
<!-- account&#45;&gt;vector -->
<g id="edge23" class="edge">
<title>account&#45;&gt;vector</title>
<path fill="none" stroke="black" d="M756.18,-438.41C748.07,-435.97 739.28,-433.61 731,-432 644.05,-415.05 397.9,-457.35 334,-396 281.71,-345.79 245.41,-123.92 296,-72 332.28,-34.78 2006.78,-21.39 2304.1,-19.3"/>
<polygon fill="black" stroke="black" points="2303.91,-22.79 2313.88,-19.22 2303.86,-15.79 2303.91,-22.79"/>
</g>
<!-- account&#45;&gt;error -->
<g id="edge26" class="edge">
<title>account&#45;&gt;error</title>
<path fill="none" stroke="black" d="M826.83,-448.09C911.94,-445.42 1108.05,-435.07 1160,-396 1194.66,-369.94 1200,-350.37 1200,-307 1200,-307 1200,-307 1200,-233 1200,-193 1207.5,-147.21 1213.08,-118.69"/>
<polygon fill="black" stroke="black" points="1216.7,-119.45 1215.25,-108.95 1209.83,-118.06 1216.7,-119.45"/>
</g>
<!-- account&#45;&gt;bcs -->
<g id="edge27" class="edge">
<title>account&#45;&gt;bcs</title>
<path fill="none" stroke="black" d="M754.74,-439.13C746.97,-436.78 738.69,-434.28 731,-432 675.99,-415.66 641.46,-441.89 607,-396 597.39,-383.21 604.24,-375.76 607,-360 612.87,-326.49 610.31,-313.35 633,-288 692.79,-221.19 796.36,-186.12 850.94,-171.48"/>
<polygon fill="black" stroke="black" points="851.69,-174.64 860.49,-168.74 849.94,-167.87 851.69,-174.64"/>
</g>
<!-- account&#45;&gt;guid -->
<g id="edge34" class="edge">
<title>account&#45;&gt;guid</title>
<path fill="none" stroke="black" d="M755.76,-438.5C748.35,-436.19 740.43,-433.88 733,-432 650.94,-411.26 622.45,-432.33 546,-396 523.49,-385.3 525.45,-370.84 503,-360 430.3,-324.9 335.17,-313.01 283.12,-309"/>
<polygon fill="black" stroke="black" points="283.61,-305.46 273.39,-308.24 283.11,-312.44 283.61,-305.46"/>
</g>
<!-- table -->
<g id="node20" class="node">
<title>table</title>
<ellipse fill="none" stroke="black" cx="2281" cy="-306" rx="28.83" ry="18"/>
<text text-anchor="middle" x="2281" y="-300.95" font-family="Times,serif" font-size="14.00">table</text>
</g>
<!-- account&#45;&gt;table -->
<g id="edge29" class="edge">
<title>account&#45;&gt;table</title>
<path fill="none" stroke="black" d="M826.84,-448.61C961.31,-446.94 1410.62,-438.34 1779,-396 1953.86,-375.9 2159.97,-333.33 2243.27,-315.32"/>
<polygon fill="black" stroke="black" points="2243.93,-318.54 2252.96,-313 2242.45,-311.7 2243.93,-318.54"/>
</g>
<!-- system_addresses -->
<g id="node21" class="node">
<title>system_addresses</title>
<ellipse fill="none" stroke="black" cx="719" cy="-306" rx="76.94" ry="18"/>
<text text-anchor="middle" x="719" y="-300.95" font-family="Times,serif" font-size="14.00">system_addresses</text>
</g>
<!-- account&#45;&gt;system_addresses -->
<g id="edge30" class="edge">
<title>account&#45;&gt;system_addresses</title>
<path fill="none" stroke="black" d="M755.03,-438.91C747.79,-436.63 740.13,-434.23 733,-432 681.48,-415.9 649.02,-439.46 617,-396 607.51,-383.12 608.69,-373.68 617,-360 626.74,-343.96 643.09,-332.55 659.88,-324.54"/>
<polygon fill="black" stroke="black" points="661.01,-327.42 668.77,-320.2 658.2,-321.01 661.01,-327.42"/>
</g>
<!-- hash -->
<g id="node22" class="node">
<title>hash</title>
<ellipse fill="none" stroke="black" cx="888" cy="-234" rx="27.81" ry="18"/>
<text text-anchor="middle" x="888" y="-228.95" font-family="Times,serif" font-size="14.00">hash</text>
</g>
<!-- account&#45;&gt;hash -->
<g id="edge31" class="edge">
<title>account&#45;&gt;hash</title>
<path fill="none" stroke="black" d="M755.88,-438.37C747.85,-435.95 739.17,-433.63 731,-432 650.85,-416.05 419.89,-456.55 365,-396 354.25,-384.15 355.26,-372.7 365,-360 424.73,-282.11 739.2,-247.84 849.63,-238.08"/>
<polygon fill="black" stroke="black" points="849.6,-241.51 859.26,-237.16 849,-234.54 849.6,-241.51"/>
</g>
<!-- ed25519 -->
<g id="node23" class="node">
<title>ed25519</title>
<ellipse fill="none" stroke="black" cx="1091" cy="-306" rx="42.65" ry="18"/>
<text text-anchor="middle" x="1091" y="-300.95" font-family="Times,serif" font-size="14.00">ed25519</text>
</g>
<!-- account&#45;&gt;ed25519 -->
<g id="edge32" class="edge">
<title>account&#45;&gt;ed25519</title>
<path fill="none" stroke="black" d="M827,-449.29C911.25,-448.95 1102.55,-442.91 1143,-396 1160.64,-375.54 1139.39,-348.26 1118.99,-329.32"/>
<polygon fill="black" stroke="black" points="1121.81,-327.26 1112,-323.25 1117.17,-332.5 1121.81,-327.26"/>
</g>
<!-- multi_ed25519 -->
<g id="node24" class="node">
<title>multi_ed25519</title>
<ellipse fill="none" stroke="black" cx="1067" cy="-378" rx="67.22" ry="18"/>
<text text-anchor="middle" x="1067" y="-372.95" font-family="Times,serif" font-size="14.00">multi_ed25519</text>
</g>
<!-- account&#45;&gt;multi_ed25519 -->
<g id="edge33" class="edge">
<title>account&#45;&gt;multi_ed25519</title>
<path fill="none" stroke="black" d="M821.05,-440.49C867.54,-428.87 951.55,-407.86 1008.29,-393.68"/>
<polygon fill="black" stroke="black" points="1009.06,-396.84 1017.91,-391.02 1007.36,-390.05 1009.06,-396.84"/>
</g>
<!-- from_bcs -->
<g id="node25" class="node">
<title>from_bcs</title>
<ellipse fill="none" stroke="black" cx="2024" cy="-234" rx="46.23" ry="18"/>
<text text-anchor="middle" x="2024" y="-228.95" font-family="Times,serif" font-size="14.00">from_bcs</text>
</g>
<!-- account&#45;&gt;from_bcs -->
<g id="edge35" class="edge">
<title>account&#45;&gt;from_bcs</title>
<path fill="none" stroke="black" d="M826.83,-448.39C929.54,-446.26 1211.43,-436.84 1442,-396 1548.24,-377.18 1859.86,-284.55 1977.93,-248.96"/>
<polygon fill="black" stroke="black" points="1978.85,-252.04 1987.41,-245.8 1976.83,-245.34 1978.85,-252.04"/>
</g>
<!-- create_signer -->
<g id="node26" class="node">
<title>create_signer</title>
<ellipse fill="none" stroke="black" cx="434" cy="-378" rx="60.05" ry="18"/>
<text text-anchor="middle" x="434" y="-372.95" font-family="Times,serif" font-size="14.00">create_signer</text>
</g>
<!-- account&#45;&gt;create_signer -->
<g id="edge37" class="edge">
<title>account&#45;&gt;create_signer</title>
<path fill="none" stroke="black" d="M756.09,-438.42C748.59,-436.09 740.56,-433.78 733,-432 634.44,-408.73 607.41,-415.35 508,-396 502.26,-394.88 496.28,-393.64 490.33,-392.35"/>
<polygon fill="black" stroke="black" points="491.21,-388.74 480.69,-390 489.7,-395.58 491.21,-388.74"/>
</g>
<!-- chain_id -->
<g id="node27" class="node">
<title>chain_id</title>
<ellipse fill="none" stroke="black" cx="787" cy="-378" rx="42.65" ry="18"/>
<text text-anchor="middle" x="787" y="-372.95" font-family="Times,serif" font-size="14.00">chain_id</text>
</g>
<!-- account&#45;&gt;chain_id -->
<g id="edge38" class="edge">
<title>account&#45;&gt;chain_id</title>
<path fill="none" stroke="black" d="M787,-431.7C787,-424.24 787,-415.32 787,-406.97"/>
<polygon fill="black" stroke="black" points="790.5,-407.1 787,-397.1 783.5,-407.1 790.5,-407.1"/>
</g>
<!-- coin&#45;&gt;option -->
<g id="edge39" class="edge">
<title>coin&#45;&gt;option</title>
<path fill="none" stroke="black" d="M1530.89,-513.11C1541.53,-509.86 1554.29,-506.32 1566,-504 1637.5,-489.86 1837.68,-516.6 1892,-468 1922.21,-440.97 1912,-419.54 1912,-379 1912,-379 1912,-379 1912,-305 1912,-191.78 2060.56,-127.73 2133.94,-103"/>
<polygon fill="black" stroke="black" points="2134.79,-106.07 2143.2,-99.63 2132.61,-99.42 2134.79,-106.07"/>
</g>
<!-- coin&#45;&gt;string -->
<g id="edge40" class="edge">
<title>coin&#45;&gt;string</title>
<path fill="none" stroke="black" d="M1533.91,-520.37C1683.65,-516.74 2408.82,-497.67 2445,-468 2488.18,-432.59 2512.74,-259.63 2520.91,-191.07"/>
<polygon fill="black" stroke="black" points="2524.49,-191.61 2522.16,-181.27 2517.53,-190.8 2524.49,-191.61"/>
</g>
<!-- coin&#45;&gt;signer -->
<g id="edge41" class="edge">
<title>coin&#45;&gt;signer</title>
<path fill="none" stroke="black" d="M1481.69,-515.03C1379.51,-490.93 1002.38,-401.74 991,-396 968.75,-384.77 967.37,-375.68 948,-360 927.82,-343.67 920.83,-341.87 902,-324 822.19,-248.25 831.27,-191.47 732,-144 670.87,-114.77 471.73,-99.2 382.25,-93.53"/>
<polygon fill="black" stroke="black" points="382.58,-89.98 372.39,-92.86 382.15,-96.97 382.58,-89.98"/>
</g>
<!-- coin&#45;&gt;type_info -->
<g id="edge43" class="edge">
<title>coin&#45;&gt;type_info</title>
<path fill="none" stroke="black" d="M1498.88,-504.56C1479.06,-465.17 1425.42,-363.08 1366,-288 1357.74,-277.56 1347.56,-267.09 1338.27,-258.23"/>
<polygon fill="black" stroke="black" points="1341.12,-256.17 1331.41,-251.92 1336.35,-261.29 1341.12,-256.17"/>
</g>
<!-- coin&#45;&gt;event -->
<g id="edge45" class="edge">
<title>coin&#45;&gt;event</title>
<path fill="none" stroke="black" d="M1479.87,-519.36C1345.33,-511.2 755.59,-475.09 738,-468 714.88,-458.69 718.06,-441.46 695,-432 513.89,-357.68 446.98,-439.01 256,-396 252.58,-395.23 249.07,-394.25 245.59,-393.16"/>
<polygon fill="black" stroke="black" points="246.97,-389.59 236.38,-389.62 244.68,-396.2 246.97,-389.59"/>
</g>
<!-- coin&#45;&gt;account -->
<g id="edge46" class="edge">
<title>coin&#45;&gt;account</title>
<path fill="none" stroke="black" d="M1480.15,-518.44C1400.5,-510.82 1158.61,-487.65 958,-468 916.87,-463.97 870.19,-459.32 836.01,-455.91"/>
<polygon fill="black" stroke="black" points="836.67,-452.36 826.37,-454.85 835.97,-459.32 836.67,-452.36"/>
</g>
<!-- coin&#45;&gt;error -->
<g id="edge42" class="edge">
<title>coin&#45;&gt;error</title>
<path fill="none" stroke="black" d="M1506.39,-503.51C1505.52,-476.72 1504,-423.88 1504,-379 1504,-379 1504,-379 1504,-233 1504,-124.72 1337.16,-99.01 1258.79,-92.9"/>
<polygon fill="black" stroke="black" points="1259.12,-89.35 1248.9,-92.14 1258.63,-96.33 1259.12,-89.35"/>
</g>
<!-- coin&#45;&gt;system_addresses -->
<g id="edge44" class="edge">
<title>coin&#45;&gt;system_addresses</title>
<path fill="none" stroke="black" d="M1480.76,-516.62C1459.95,-513.16 1430.12,-508.23 1404,-504 1303.16,-487.68 1276.28,-492.03 1177,-468 1077.42,-443.9 1054,-431.81 958,-396 919.18,-381.52 910.71,-374.79 872,-360 839.23,-347.48 802.05,-334.57 772.55,-324.63"/>
<polygon fill="black" stroke="black" points="774.05,-321.11 763.46,-321.24 771.83,-327.74 774.05,-321.11"/>
</g>
<!-- aggregator -->
<g id="node28" class="node">
<title>aggregator</title>
<ellipse fill="none" stroke="black" cx="1582" cy="-306" rx="50.33" ry="18"/>
<text text-anchor="middle" x="1582" y="-300.95" font-family="Times,serif" font-size="14.00">aggregator</text>
</g>
<!-- coin&#45;&gt;aggregator -->
<g id="edge47" class="edge">
<title>coin&#45;&gt;aggregator</title>
<path fill="none" stroke="black" d="M1512.89,-504.21C1525.77,-467.43 1556.6,-379.48 1572.36,-334.5"/>
<polygon fill="black" stroke="black" points="1575.93,-335.9 1575.93,-325.31 1569.32,-333.59 1575.93,-335.9"/>
</g>
<!-- aggregator_factory -->
<g id="node29" class="node">
<title>aggregator_factory</title>
<ellipse fill="none" stroke="black" cx="1689" cy="-378" rx="81.04" ry="18"/>
<text text-anchor="middle" x="1689" y="-372.95" font-family="Times,serif" font-size="14.00">aggregator_factory</text>
</g>
<!-- coin&#45;&gt;aggregator_factory -->
<g id="edge48" class="edge">
<title>coin&#45;&gt;aggregator_factory</title>
<path fill="none" stroke="black" d="M1527.81,-509.92C1545.94,-499.9 1572.6,-484.27 1594,-468 1620.02,-448.22 1646.95,-422.39 1665.47,-403.66"/>
<polygon fill="black" stroke="black" points="1667.62,-406.44 1672.11,-396.85 1662.61,-401.55 1667.62,-406.44"/>
</g>
<!-- optional_aggregator -->
<g id="node30" class="node">
<title>optional_aggregator</title>
<ellipse fill="none" stroke="black" cx="1798" cy="-450" rx="85.13" ry="18"/>
<text text-anchor="middle" x="1798" y="-444.95" font-family="Times,serif" font-size="14.00">optional_aggregator</text>
</g>
<!-- coin&#45;&gt;optional_aggregator -->
<g id="edge49" class="edge">
<title>coin&#45;&gt;optional_aggregator</title>
<path fill="none" stroke="black" d="M1531.32,-513.66C1541.93,-510.55 1554.54,-506.96 1566,-504 1620.56,-489.92 1682.83,-475.8 1729.11,-465.68"/>
<polygon fill="black" stroke="black" points="1729.6,-468.94 1738.62,-463.39 1728.11,-462.1 1729.6,-468.94"/>
</g>
<!-- avl_queue&#45;&gt;option -->
<g id="edge50" class="edge">
<title>avl_queue&#45;&gt;option</title>
<path fill="none" stroke="black" d="M2394.89,-431.93C2406.29,-405.67 2426,-353.53 2426,-307 2426,-307 2426,-307 2426,-233 2426,-138.78 2290.65,-106.39 2218.34,-95.82"/>
<polygon fill="black" stroke="black" points="2219.11,-92.25 2208.72,-94.35 2218.15,-99.19 2219.11,-92.25"/>
</g>
<!-- avl_queue&#45;&gt;table -->
<g id="edge51" class="edge">
<title>avl_queue&#45;&gt;table</title>
<path fill="none" stroke="black" d="M2386.24,-431.68C2384.61,-412.5 2379.56,-381.44 2364,-360 2351.58,-342.88 2331.78,-329.93 2314.63,-321.12"/>
<polygon fill="black" stroke="black" points="2316.44,-317.62 2305.92,-316.4 2313.39,-323.92 2316.44,-317.62"/>
</g>
<!-- table_with_length -->
<g id="node31" class="node">
<title>table_with_length</title>
<ellipse fill="none" stroke="black" cx="2207" cy="-378" rx="77.45" ry="18"/>
<text text-anchor="middle" x="2207" y="-372.95" font-family="Times,serif" font-size="14.00">table_with_length</text>
</g>
<!-- avl_queue&#45;&gt;table_with_length -->
<g id="edge52" class="edge">
<title>avl_queue&#45;&gt;table_with_length</title>
<path fill="none" stroke="black" d="M2354.4,-436.32C2326.8,-425.59 2286.82,-410.04 2255.46,-397.85"/>
<polygon fill="black" stroke="black" points="2257.2,-394.38 2246.61,-394.01 2254.66,-400.9 2257.2,-394.38"/>
</g>
<!-- tablist&#45;&gt;option -->
<g id="edge53" class="edge">
<title>tablist&#45;&gt;option</title>
<path fill="none" stroke="black" d="M2200.45,-576.47C2180.2,-543.66 2136.51,-467.28 2121,-396 2105.99,-327.03 2168.65,-319.89 2188,-252 2201,-206.38 2190.72,-150.8 2182.24,-118.31"/>
<polygon fill="black" stroke="black" points="2185.39,-117.54 2179.36,-108.83 2178.64,-119.4 2185.39,-117.54"/>
</g>
<!-- tablist&#45;&gt;table_with_length -->
<g id="edge54" class="edge">
<title>tablist&#45;&gt;table_with_length</title>
<path fill="none" stroke="black" d="M2210.68,-575.85C2209.99,-538.99 2208.36,-451.92 2207.52,-406.96"/>
<polygon fill="black" stroke="black" points="2211.01,-407.17 2207.32,-397.23 2204.01,-407.3 2211.01,-407.17"/>
</g>
<!-- resource_account&#45;&gt;account -->
<g id="edge56" class="edge">
<title>resource_account&#45;&gt;account</title>
<path fill="none" stroke="black" d="M872.26,-504.76C856.26,-494.68 835.58,-481.64 818.6,-470.93"/>
<polygon fill="black" stroke="black" points="820.92,-467.62 810.6,-465.25 817.19,-473.54 820.92,-467.62"/>
</g>
<!-- resource_account&#45;&gt;bcs -->
<g id="edge55" class="edge">
<title>resource_account&#45;&gt;bcs</title>
<path fill="none" stroke="black" d="M833.8,-512.24C660.1,-488.23 192.48,-421.49 171,-396 -18.29,-171.39 676.34,-161.57 849.02,-162.52"/>
<polygon fill="black" stroke="black" points="848.83,-166.03 858.85,-162.6 848.88,-159.03 848.83,-166.03"/>
</g>
<!-- timestamp -->
<g id="node32" class="node">
<title>timestamp</title>
<ellipse fill="none" stroke="black" cx="676" cy="-378" rx="50.33" ry="18"/>
<text text-anchor="middle" x="676" y="-372.95" font-family="Times,serif" font-size="14.00">timestamp</text>
</g>
<!-- resource_account&#45;&gt;timestamp -->
<g id="edge57" class="edge">
<title>resource_account&#45;&gt;timestamp</title>
<path fill="none" stroke="black" d="M890.22,-503.74C880.36,-483.72 861.51,-451.03 836,-432 826.74,-425.09 767.98,-406.52 724.34,-393.32"/>
<polygon fill="black" stroke="black" points="725.47,-389.71 714.89,-390.17 723.45,-396.41 725.47,-389.71"/>
</g>
<!-- incentives&#45;&gt;signer -->
<g id="edge59" class="edge">
<title>incentives&#45;&gt;signer</title>
<path fill="none" stroke="black" d="M1382.65,-665.25C1136.9,-665.92 38,-661.18 38,-523 38,-523 38,-523 38,-233 38,-190.33 40.6,-170.56 74,-144 153.95,-80.42 203.23,-137.6 301,-108 302.12,-107.66 303.24,-107.3 304.37,-106.91"/>
<polygon fill="black" stroke="black" points="305.45,-109.86 313.49,-102.96 302.9,-103.34 305.45,-109.86"/>
</g>
<!-- incentives&#45;&gt;type_info -->
<g id="edge60" class="edge">
<title>incentives&#45;&gt;type_info</title>
<path fill="none" stroke="black" d="M1407.73,-650.02C1394.98,-640.61 1379.98,-627.36 1371,-612 1350.59,-577.08 1352,-563.45 1352,-523 1352,-523 1352,-523 1352,-377 1352,-335.67 1336.1,-290.01 1324.35,-261.92"/>
<polygon fill="black" stroke="black" points="1327.27,-260.84 1320.09,-253.05 1320.84,-263.62 1327.27,-260.84"/>
</g>
<!-- incentives&#45;&gt;coin -->
<g id="edge61" class="edge">
<title>incentives&#45;&gt;coin</title>
<path fill="none" stroke="black" d="M1454.76,-649.91C1467.51,-640.55 1482.34,-627.38 1491,-612 1501.47,-593.39 1505.33,-569.44 1506.65,-551.07"/>
<polygon fill="black" stroke="black" points="1510.19,-551.35 1507.19,-541.19 1503.2,-551 1510.19,-551.35"/>
</g>
<!-- incentives&#45;&gt;tablist -->
<g id="edge63" class="edge">
<title>incentives&#45;&gt;tablist</title>
<path fill="none" stroke="black" d="M1479.03,-663.25C1620.25,-657.83 2032.42,-639.99 2164,-612 2167.48,-611.26 2171.05,-610.32 2174.59,-609.27"/>
<polygon fill="black" stroke="black" points="2175.62,-612.28 2184.02,-605.83 2173.43,-605.63 2175.62,-612.28"/>
</g>
<!-- incentives&#45;&gt;resource_account -->
<g id="edge64" class="edge">
<title>incentives&#45;&gt;resource_account</title>
<path fill="none" stroke="black" d="M1392.67,-654.79C1300.84,-630.32 1067.75,-568.22 957.51,-538.85"/>
<polygon fill="black" stroke="black" points="958.48,-535.22 947.92,-536.03 956.68,-541.99 958.48,-535.22"/>
</g>
<!-- incentives&#45;&gt;vector -->
<g id="edge58" class="edge">
<title>incentives&#45;&gt;vector</title>
<path fill="none" stroke="black" d="M1476.19,-659.17C1668.94,-633.97 2416.34,-532.75 2499,-468 2614.69,-377.38 2636.19,-272.56 2565,-144 2528.55,-78.18 2442.17,-44.14 2390.36,-29.05"/>
<polygon fill="black" stroke="black" points="2391.43,-25.44 2380.86,-26.11 2389.55,-32.18 2391.43,-25.44"/>
</g>
<!-- aptos_coin -->
<g id="node33" class="node">
<title>aptos_coin</title>
<ellipse fill="none" stroke="black" cx="1431" cy="-594" rx="50.84" ry="18"/>
<text text-anchor="middle" x="1431" y="-588.95" font-family="Times,serif" font-size="14.00">aptos_coin</text>
</g>
<!-- incentives&#45;&gt;aptos_coin -->
<g id="edge62" class="edge">
<title>incentives&#45;&gt;aptos_coin</title>
<path fill="none" stroke="black" d="M1431,-647.7C1431,-640.24 1431,-631.32 1431,-622.97"/>
<polygon fill="black" stroke="black" points="1434.5,-623.1 1431,-613.1 1427.5,-623.1 1434.5,-623.1"/>
</g>
<!-- registry&#45;&gt;option -->
<g id="edge65" class="edge">
<title>registry&#45;&gt;option</title>
<path fill="none" stroke="black" d="M1615.29,-723.59C1678.77,-687.8 1852.89,-584.77 1972,-468 2000.37,-440.18 2003.01,-429.1 2025,-396 2086.38,-303.62 2108.87,-283.01 2150,-180 2157.97,-160.03 2164.19,-136.51 2168.29,-118.67"/>
<polygon fill="black" stroke="black" points="2171.89,-119.63 2170.63,-109.11 2165.05,-118.12 2171.89,-119.63"/>
</g>
<!-- registry&#45;&gt;string -->
<g id="edge66" class="edge">
<title>registry&#45;&gt;string</title>
<path fill="none" stroke="black" d="M1630.05,-735.67C1743.61,-731.44 2072.13,-716.64 2174,-684 2294.64,-645.34 2317.96,-615.08 2420,-540 2510.43,-473.46 2541.74,-435.89 2551,-324 2552.88,-301.31 2549.65,-218.7 2549,-216 2546.82,-206.85 2542.95,-197.4 2538.9,-189.06"/>
<polygon fill="black" stroke="black" points="2541.68,-187.81 2533.98,-180.53 2535.46,-191.02 2541.68,-187.81"/>
</g>
<!-- registry&#45;&gt;signer -->
<g id="edge67" class="edge">
<title>registry&#45;&gt;signer</title>
<path fill="none" stroke="black" d="M1554.58,-731C1341.39,-695.51 261.5,-510.8 171,-396 94.79,-299.33 245.94,-163.15 310.6,-111.74"/>
<polygon fill="black" stroke="black" points="312.41,-113.98 318.12,-105.06 308.09,-108.47 312.41,-113.98"/>
</g>
<!-- registry&#45;&gt;type_info -->
<g id="edge68" class="edge">
<title>registry&#45;&gt;type_info</title>
<path fill="none" stroke="black" d="M1596.46,-719.71C1604.35,-693.18 1618,-640.67 1618,-595 1618,-595 1618,-595 1618,-521 1618,-378.42 1438.5,-286.48 1354.46,-251.24"/>
<polygon fill="black" stroke="black" points="1356.04,-247.7 1345.46,-247.13 1353.37,-254.17 1356.04,-247.7"/>
</g>
<!-- registry&#45;&gt;event -->
<g id="edge70" class="edge">
<title>registry&#45;&gt;event</title>
<path fill="none" stroke="black" d="M1552.18,-735.36C1431.72,-730.03 1065.46,-711.88 950,-684 662.71,-614.62 342.06,-449.64 242.31,-396.1"/>
<polygon fill="black" stroke="black" points="244.29,-392.65 233.82,-390.98 240.97,-398.81 244.29,-392.65"/>
</g>
<!-- registry&#45;&gt;account -->
<g id="edge71" class="edge">
<title>registry&#45;&gt;account</title>
<path fill="none" stroke="black" d="M1551.89,-735.21C1445.76,-730.02 1154.18,-713.43 1063,-684 941.34,-644.74 893.44,-640.16 814,-540 800.14,-522.53 793.38,-498 790.09,-479.12"/>
<polygon fill="black" stroke="black" points="793.44,-478.85 788.49,-469.48 786.51,-479.89 793.44,-478.85"/>
</g>
<!-- registry&#45;&gt;coin -->
<g id="edge72" class="edge">
<title>registry&#45;&gt;coin</title>
<path fill="none" stroke="black" d="M1584.27,-719.85C1569.7,-682.74 1535.16,-594.75 1517.62,-550.05"/>
<polygon fill="black" stroke="black" points="1520.56,-548.97 1513.65,-540.94 1514.04,-551.52 1520.56,-548.97"/>
</g>
<!-- registry&#45;&gt;tablist -->
<g id="edge73" class="edge">
<title>registry&#45;&gt;tablist</title>
<path fill="none" stroke="black" d="M1630.34,-737.63C1711.34,-737.81 1901.74,-732.53 2052,-684 2101.38,-668.05 2152.76,-636 2183.3,-615.03"/>
<polygon fill="black" stroke="black" points="2184.88,-617.5 2191.09,-608.91 2180.88,-611.76 2184.88,-617.5"/>
</g>
<!-- registry&#45;&gt;incentives -->
<g id="edge74" class="edge">
<title>registry&#45;&gt;incentives</title>
<path fill="none" stroke="black" d="M1563.5,-724.97C1538.08,-713.85 1500.01,-697.19 1471.19,-684.58"/>
<polygon fill="black" stroke="black" points="1472.98,-681.11 1462.41,-680.31 1470.17,-687.52 1472.98,-681.11"/>
</g>
<!-- registry&#45;&gt;table -->
<g id="edge69" class="edge">
<title>registry&#45;&gt;table</title>
<path fill="none" stroke="black" d="M1630.48,-737.52C1717.68,-737.69 1932.59,-732.65 2104,-684 2174.75,-663.92 2208.38,-670.47 2253,-612 2312.23,-534.39 2284.07,-493.22 2293,-396 2294.46,-380.07 2294.78,-375.9 2293,-360 2292.06,-351.62 2290.32,-342.63 2288.44,-334.48"/>
<polygon fill="black" stroke="black" points="2291.66,-333.9 2285.87,-325.02 2284.86,-335.57 2291.66,-333.9"/>
</g>
<!-- user&#45;&gt;option -->
<g id="edge76" class="edge">
<title>user&#45;&gt;option</title>
<path fill="none" stroke="black" d="M2217.51,-800.68C2295.39,-772.95 2540,-684.47 2540,-667 2540,-667 2540,-667 2540,-521 2540,-431.94 2473.98,-199.08 2404,-144 2350.57,-101.94 2269.76,-92.14 2219.52,-90.45"/>
<polygon fill="black" stroke="black" points="2219.75,-86.93 2209.67,-90.19 2219.59,-93.93 2219.75,-86.93"/>
</g>
<!-- user&#45;&gt;string -->
<g id="edge77" class="edge">
<title>user&#45;&gt;string</title>
<path fill="none" stroke="black" d="M2217.74,-800.78C2227.61,-797.62 2239.26,-794.25 2250,-792 2316.59,-778.07 2508.17,-806.27 2554,-756 2624.08,-679.12 2566.44,-392.02 2565,-288 2564.56,-255.99 2573.41,-246.27 2563,-216 2559.36,-205.42 2552.8,-195.17 2546.08,-186.55"/>
<polygon fill="black" stroke="black" points="2548.23,-184.66 2539.14,-179.22 2542.85,-189.14 2548.23,-184.66"/>
</g>
<!-- user&#45;&gt;signer -->
<g id="edge78" class="edge">
<title>user&#45;&gt;signer</title>
<path fill="none" stroke="black" d="M2166.83,-808.49C2020.19,-805.59 1326.7,-790.18 1238,-756 1190.52,-737.71 1185.6,-719.34 1149,-684 981.29,-522.06 992.51,-426.54 805,-288 665.5,-184.93 463.96,-123.79 378.62,-101.12"/>
<polygon fill="black" stroke="black" points="379.64,-97.5 369.08,-98.36 377.87,-104.28 379.64,-97.5"/>
</g>
<!-- user&#45;&gt;type_info -->
<g id="edge79" class="edge">
<title>user&#45;&gt;type_info</title>
<path fill="none" stroke="black" d="M2166.69,-808.23C2002.44,-803.26 1153,-772.45 1153,-667 1153,-667 1153,-667 1153,-521 1153,-438.58 1251.68,-468.98 1290,-396 1312.29,-353.55 1314.68,-296.5 1313.77,-262.95"/>
<polygon fill="black" stroke="black" points="1317.23,-262.97 1313.34,-253.12 1310.24,-263.25 1317.23,-262.97"/>
</g>
<!-- user&#45;&gt;coin -->
<g id="edge81" class="edge">
<title>user&#45;&gt;coin</title>
<path fill="none" stroke="black" d="M2171.53,-799.65C2070.63,-757.64 1659.08,-586.31 1539.64,-536.59"/>
<polygon fill="black" stroke="black" points="1541.22,-533.04 1530.64,-532.43 1538.53,-539.5 1541.22,-533.04"/>
</g>
<!-- user&#45;&gt;tablist -->
<g id="edge82" class="edge">
<title>user&#45;&gt;tablist</title>
<path fill="none" stroke="black" d="M2195.36,-791.85C2198.29,-754.99 2205.21,-667.92 2208.78,-622.96"/>
<polygon fill="black" stroke="black" points="2212.33,-623.48 2209.63,-613.23 2205.35,-622.92 2212.33,-623.48"/>
</g>
<!-- user&#45;&gt;registry -->
<g id="edge83" class="edge">
<title>user&#45;&gt;registry</title>
<path fill="none" stroke="black" d="M2167.31,-805.9C2073.93,-795.06 1760.96,-758.73 1639.64,-744.65"/>
<polygon fill="black" stroke="black" points="1640.18,-741.07 1629.85,-743.39 1639.38,-748.02 1640.18,-741.07"/>
</g>
<!-- user&#45;&gt;vector -->
<g id="edge75" class="edge">
<title>user&#45;&gt;vector</title>
<path fill="none" stroke="black" d="M2217.73,-800.73C2227.6,-797.57 2239.25,-794.2 2250,-792 2321.62,-777.32 2514.66,-794.19 2577,-756 2682.64,-691.28 2730,-646.89 2730,-523 2730,-523 2730,-523 2730,-305 2730,-167.95 2643.22,-146.21 2528,-72 2486.46,-45.25 2430.92,-31.56 2392.78,-24.87"/>
<polygon fill="black" stroke="black" points="2393.46,-21.27 2383.02,-23.08 2392.32,-28.17 2393.46,-21.27"/>
</g>
<!-- user&#45;&gt;table -->
<g id="edge80" class="edge">
<title>user&#45;&gt;table</title>
<path fill="none" stroke="black" d="M2213.68,-797.27C2246.77,-775.89 2310,-727.16 2310,-667 2310,-667 2310,-667 2310,-521 2310,-449.43 2323.83,-429.56 2307,-360 2304.74,-350.65 2300.64,-341.04 2296.36,-332.6"/>
<polygon fill="black" stroke="black" points="2299,-331.13 2291.15,-324 2292.84,-334.46 2299,-331.13"/>
</g>
<!-- features&#45;&gt;signer -->
<g id="edge84" class="edge">
<title>features&#45;&gt;signer</title>
<path fill="none" stroke="black" d="M942.53,-149.48C936.17,-147.36 929.43,-145.38 923,-144 724.54,-101.25 480.97,-92.94 382.47,-91.36"/>
<polygon fill="black" stroke="black" points="382.79,-87.85 372.74,-91.2 382.69,-94.84 382.79,-87.85"/>
</g>
<!-- features&#45;&gt;error -->
<g id="edge85" class="edge">
<title>features&#45;&gt;error</title>
<path fill="none" stroke="black" d="M1003.92,-150.74C1011.16,-148.47 1018.83,-146.11 1026,-144 1080.11,-128.06 1143.22,-111.02 1182.14,-100.69"/>
<polygon fill="black" stroke="black" points="1182.92,-103.84 1191.69,-97.89 1181.13,-97.07 1182.92,-103.84"/>
</g>
<!-- system_addresses&#45;&gt;signer -->
<g id="edge86" class="edge">
<title>system_addresses&#45;&gt;signer</title>
<path fill="none" stroke="black" d="M690.36,-288.92C620.64,-249.75 442.44,-149.66 369.68,-108.79"/>
<polygon fill="black" stroke="black" points="371.96,-105.5 361.53,-103.66 368.54,-111.6 371.96,-105.5"/>
</g>
<!-- system_addresses&#45;&gt;error -->
<g id="edge87" class="edge">
<title>system_addresses&#45;&gt;error</title>
<path fill="none" stroke="black" d="M727.46,-287.83C745.15,-253.92 789.61,-178.63 851,-144 906.63,-112.62 1096.18,-98.08 1179.34,-93.1"/>
<polygon fill="black" stroke="black" points="1179.33,-96.55 1189.11,-92.47 1178.92,-89.56 1179.33,-96.55"/>
</g>
<!-- ed25519&#45;&gt;option -->
<g id="edge88" class="edge">
<title>ed25519&#45;&gt;option</title>
<path fill="none" stroke="black" d="M1108.96,-289.32C1133.28,-269 1178.85,-234.03 1224,-216 1392.57,-148.68 1964.13,-105.3 2129.08,-93.96"/>
<polygon fill="black" stroke="black" points="2129.06,-97.4 2138.8,-93.23 2128.59,-90.42 2129.06,-97.4"/>
</g>
<!-- ed25519&#45;&gt;type_info -->
<g id="edge91" class="edge">
<title>ed25519&#45;&gt;type_info</title>
<path fill="none" stroke="black" d="M1124.09,-294.52C1161.94,-282.53 1224.15,-262.83 1266.54,-249.4"/>
<polygon fill="black" stroke="black" points="1267.38,-252.49 1275.86,-246.13 1265.27,-245.81 1267.38,-252.49"/>
</g>
<!-- ed25519&#45;&gt;error -->
<g id="edge89" class="edge">
<title>ed25519&#45;&gt;error</title>
<path fill="none" stroke="black" d="M1100.85,-288C1117.96,-258.55 1154.37,-196.18 1186,-144 1191.47,-134.98 1197.55,-125.15 1202.99,-116.44"/>
<polygon fill="black" stroke="black" points="1206.45,-118.51 1208.79,-108.18 1200.52,-114.79 1206.45,-118.51"/>
</g>
<!-- ed25519&#45;&gt;bcs -->
<g id="edge90" class="edge">
<title>ed25519&#45;&gt;bcs</title>
<path fill="none" stroke="black" d="M1069.55,-290.07C1032.16,-264.04 955.11,-210.41 914.09,-181.86"/>
<polygon fill="black" stroke="black" points="916.4,-178.51 906.2,-175.67 912.41,-184.25 916.4,-178.51"/>
</g>
<!-- ed25519&#45;&gt;hash -->
<g id="edge92" class="edge">
<title>ed25519&#45;&gt;hash</title>
<path fill="none" stroke="black" d="M1058.83,-293.91C1021.64,-281.08 960.64,-260.05 922.49,-246.89"/>
<polygon fill="black" stroke="black" points="923.96,-243.35 913.37,-243.4 921.68,-249.97 923.96,-243.35"/>
</g>
<!-- multi_ed25519&#45;&gt;option -->
<g id="edge93" class="edge">
<title>multi_ed25519&#45;&gt;option</title>
<path fill="none" stroke="black" d="M1091.98,-360.95C1107.15,-350.88 1126.66,-337.31 1143,-324 1197.11,-279.92 1194.31,-246.68 1257,-216 1351.9,-169.55 1387.86,-197.89 1492,-180 1576.28,-165.52 1596.42,-156.58 1681,-144 1845.37,-119.55 2042.17,-101.84 2129.03,-94.6"/>
<polygon fill="black" stroke="black" points="2129.13,-98.03 2138.81,-93.71 2128.56,-91.05 2129.13,-98.03"/>
</g>
<!-- multi_ed25519&#45;&gt;error -->
<g id="edge94" class="edge">
<title>multi_ed25519&#45;&gt;error</title>
<path fill="none" stroke="black" d="M1055,-360.11C1043.75,-342.09 1029.91,-312.79 1039,-288 1068.27,-208.17 1148.09,-141.55 1190.93,-110.23"/>
<polygon fill="black" stroke="black" points="1192.65,-112.59 1198.73,-103.91 1188.57,-106.9 1192.65,-112.59"/>
</g>
<!-- multi_ed25519&#45;&gt;features -->
<g id="edge95" class="edge">
<title>multi_ed25519&#45;&gt;features</title>
<path fill="none" stroke="black" d="M1041.8,-360.99C1029.17,-351.69 1014.75,-338.87 1006,-324 981.38,-282.15 974.46,-224.91 972.6,-191.15"/>
<polygon fill="black" stroke="black" points="976.05,-191.1 972.13,-181.26 969.06,-191.4 976.05,-191.1"/>
</g>
<!-- multi_ed25519&#45;&gt;bcs -->
<g id="edge96" class="edge">
<title>multi_ed25519&#45;&gt;bcs</title>
<path fill="none" stroke="black" d="M1036.36,-361.61C1020.01,-352.33 1000.36,-339.33 986,-324 948.31,-283.77 954.66,-262.47 925,-216 918.85,-206.37 911.64,-196.09 905.17,-187.18"/>
<polygon fill="black" stroke="black" points="907.5,-185.45 898.76,-179.46 901.87,-189.59 907.5,-185.45"/>
</g>
<!-- multi_ed25519&#45;&gt;hash -->
<g id="edge97" class="edge">
<title>multi_ed25519&#45;&gt;hash</title>
<path fill="none" stroke="black" d="M1014.09,-366.54C986.28,-358.76 953.24,-345.63 930,-324 912.25,-307.48 901.27,-281.92 895.01,-262.42"/>
<polygon fill="black" stroke="black" points="898.13,-261.63 891.93,-253.03 891.42,-263.62 898.13,-261.63"/>
</g>
<!-- multi_ed25519&#45;&gt;ed25519 -->
<g id="edge98" class="edge">
<title>multi_ed25519&#45;&gt;ed25519</title>
<path fill="none" stroke="black" d="M1072.93,-359.7C1075.55,-352.07 1078.69,-342.92 1081.61,-334.4"/>
<polygon fill="black" stroke="black" points="1085.2,-335.7 1085.14,-325.1 1078.58,-333.43 1085.2,-335.7"/>
</g>
<!-- from_bcs&#45;&gt;string -->
<g id="edge99" class="edge">
<title>from_bcs&#45;&gt;string</title>
<path fill="none" stroke="black" d="M2067.06,-226.97C2162.1,-213.67 2388.75,-181.93 2482.41,-168.82"/>
<polygon fill="black" stroke="black" points="2482.74,-172.17 2492.15,-167.32 2481.77,-165.24 2482.74,-172.17"/>
</g>
<!-- chain_id&#45;&gt;system_addresses -->
<g id="edge100" class="edge">
<title>chain_id&#45;&gt;system_addresses</title>
<path fill="none" stroke="black" d="M771.57,-361.12C763.12,-352.42 752.46,-341.45 742.96,-331.66"/>
<polygon fill="black" stroke="black" points="745.8,-329.53 736.32,-324.8 740.77,-334.41 745.8,-329.53"/>
</g>
<!-- aggregator_factory&#45;&gt;error -->
<g id="edge101" class="edge">
<title>aggregator_factory&#45;&gt;error</title>
<path fill="none" stroke="black" d="M1682.25,-359.68C1663.77,-314.92 1607.72,-195.33 1518,-144 1474.24,-118.96 1328.96,-101.75 1258.29,-94.65"/>
<polygon fill="black" stroke="black" points="1258.91,-91.1 1248.62,-93.6 1258.22,-98.06 1258.91,-91.1"/>
</g>
<!-- aggregator_factory&#45;&gt;table -->
<g id="edge102" class="edge">
<title>aggregator_factory&#45;&gt;table</title>
<path fill="none" stroke="black" d="M1759.23,-368.7C1884.72,-353.86 2143.48,-323.26 2241.87,-311.63"/>
<polygon fill="black" stroke="black" points="2241.99,-315.02 2251.51,-310.37 2241.17,-308.07 2241.99,-315.02"/>
</g>
<!-- aggregator_factory&#45;&gt;system_addresses -->
<g id="edge103" class="edge">
<title>aggregator_factory&#45;&gt;system_addresses</title>
<path fill="none" stroke="black" d="M1612.89,-371.51C1434.12,-358.61 988.53,-326.45 802.58,-313.03"/>
<polygon fill="black" stroke="black" points="803,-309.48 792.78,-312.25 802.5,-316.46 803,-309.48"/>
</g>
<!-- aggregator_factory&#45;&gt;aggregator -->
<g id="edge104" class="edge">
<title>aggregator_factory&#45;&gt;aggregator</title>
<path fill="none" stroke="black" d="M1663.91,-360.59C1649.15,-350.93 1630.31,-338.6 1614.42,-328.21"/>
<polygon fill="black" stroke="black" points="1616.75,-324.9 1606.46,-322.35 1612.92,-330.75 1616.75,-324.9"/>
</g>
<!-- optional_aggregator&#45;&gt;option -->
<g id="edge105" class="edge">
<title>optional_aggregator&#45;&gt;option</title>
<path fill="none" stroke="black" d="M1819.15,-432.09C1829.82,-422.54 1842.13,-409.76 1850,-396 1870.34,-360.44 1874,-347.97 1874,-307 1874,-307 1874,-307 1874,-233 1874,-121.74 2044.66,-97.53 2128.54,-92.35"/>
<polygon fill="black" stroke="black" points="2128.5,-95.81 2138.29,-91.77 2128.12,-88.82 2128.5,-95.81"/>
</g>
<!-- optional_aggregator&#45;&gt;error -->
<g id="edge106" class="edge">
<title>optional_aggregator&#45;&gt;error</title>
<path fill="none" stroke="black" d="M1802.94,-431.72C1807.3,-413.12 1811.48,-383.09 1801,-360 1740.72,-227.21 1686.08,-205.82 1554,-144 1455.14,-97.73 1323.8,-90.68 1258.85,-90.31"/>
<polygon fill="black" stroke="black" points="1258.9,-86.81 1248.89,-90.31 1258.89,-93.81 1258.9,-86.81"/>
</g>
<!-- optional_aggregator&#45;&gt;aggregator -->
<g id="edge107" class="edge">
<title>optional_aggregator&#45;&gt;aggregator</title>
<path fill="none" stroke="black" d="M1799.28,-431.51C1799.74,-411.57 1797.27,-379.25 1779,-360 1744.28,-323.41 1687.21,-311.13 1643.41,-307.43"/>
<polygon fill="black" stroke="black" points="1643.81,-303.88 1633.59,-306.67 1643.31,-310.86 1643.81,-303.88"/>
</g>
<!-- optional_aggregator&#45;&gt;aggregator_factory -->
<g id="edge108" class="edge">
<title>optional_aggregator&#45;&gt;aggregator_factory</title>
<path fill="none" stroke="black" d="M1772.17,-432.41C1757.64,-423.08 1739.32,-411.32 1723.57,-401.2"/>
<polygon fill="black" stroke="black" points="1725.95,-397.93 1715.65,-395.47 1722.17,-403.82 1725.95,-397.93"/>
</g>
<!-- table_with_length&#45;&gt;error -->
<g id="edge109" class="edge">
<title>table_with_length&#45;&gt;error</title>
<path fill="none" stroke="black" d="M2196.97,-359.81C2168.18,-312.58 2079.86,-181.78 1964,-144 1831.05,-100.65 1393.29,-92.72 1258.71,-91.3"/>
<polygon fill="black" stroke="black" points="1259.13,-87.8 1249.1,-91.2 1259.06,-94.8 1259.13,-87.8"/>
</g>
<!-- table_with_length&#45;&gt;table -->
<g id="edge110" class="edge">
<title>table_with_length&#45;&gt;table</title>
<path fill="none" stroke="black" d="M2224.91,-360.05C2234.87,-350.64 2247.36,-338.82 2258.02,-328.74"/>
<polygon fill="black" stroke="black" points="2259.89,-331.84 2264.75,-322.42 2255.08,-326.75 2259.89,-331.84"/>
</g>
<!-- timestamp&#45;&gt;error -->
<g id="edge111" class="edge">
<title>timestamp&#45;&gt;error</title>
<path fill="none" stroke="black" d="M657.86,-360.76C648.48,-351.13 637.99,-338.07 633,-324 627.65,-308.92 626.27,-302.52 633,-288 674.64,-198.16 712.38,-183.9 803,-144 870.02,-114.49 1088.55,-98.63 1179.12,-93.19"/>
<polygon fill="black" stroke="black" points="1179.24,-96.63 1189.01,-92.55 1178.83,-89.65 1179.24,-96.63"/>
</g>
<!-- timestamp&#45;&gt;system_addresses -->
<g id="edge112" class="edge">
<title>timestamp&#45;&gt;system_addresses</title>
<path fill="none" stroke="black" d="M686.41,-360.05C691.3,-352.09 697.25,-342.41 702.72,-333.51"/>
<polygon fill="black" stroke="black" points="706.14,-335.63 708.39,-325.28 700.17,-331.96 706.14,-335.63"/>
</g>
<!-- aptos_coin&#45;&gt;option -->
<g id="edge114" class="edge">
<title>aptos_coin&#45;&gt;option</title>
<path fill="none" stroke="black" d="M1481.38,-590.77C1553.15,-586.47 1688.29,-574.2 1798,-540 1866.69,-518.59 1889.62,-516.24 1943,-468 2002.95,-413.82 2120.54,-193.75 2160.41,-117.31"/>
<polygon fill="black" stroke="black" points="2163.79,-119.4 2165.3,-108.91 2157.58,-116.17 2163.79,-119.4"/>
</g>
<!-- aptos_coin&#45;&gt;string -->
<g id="edge115" class="edge">
<title>aptos_coin&#45;&gt;string</title>
<path fill="none" stroke="black" d="M1480.83,-589.99C1677.21,-577.73 2390.78,-529.28 2470,-468 2555.09,-402.18 2540.17,-252.98 2529.58,-190.91"/>
<polygon fill="black" stroke="black" points="2532.9,-190.59 2527.68,-181.37 2526.01,-191.83 2532.9,-190.59"/>
</g>
<!-- aptos_coin&#45;&gt;signer -->
<g id="edge116" class="edge">
<title>aptos_coin&#45;&gt;signer</title>
<path fill="none" stroke="black" d="M1388.78,-583.57C1309.42,-566.07 1132.45,-528.18 982,-504 778.57,-471.3 76,-513.04 76,-307 76,-307 76,-307 76,-233 76,-192.03 69.81,-171.69 100,-144 166.88,-82.65 214.41,-135.16 301,-108 301.94,-107.7 302.9,-107.39 303.85,-107.06"/>
<polygon fill="black" stroke="black" points="305.03,-109.96 313.07,-103.06 302.48,-103.45 305.03,-109.96"/>
</g>
<!-- aptos_coin&#45;&gt;coin -->
<g id="edge119" class="edge">
<title>aptos_coin&#45;&gt;coin</title>
<path fill="none" stroke="black" d="M1448.63,-576.76C1459.07,-567.14 1472.43,-554.84 1483.73,-544.43"/>
<polygon fill="black" stroke="black" points="1485.54,-547.6 1490.53,-538.25 1480.8,-542.45 1485.54,-547.6"/>
</g>
<!-- aptos_coin&#45;&gt;vector -->
<g id="edge113" class="edge">
<title>aptos_coin&#45;&gt;vector</title>
<path fill="none" stroke="black" d="M1380.37,-591.59C1221.09,-586.25 716.75,-562.5 312,-468 211.81,-444.61 163.08,-470.38 92,-396 58.27,-360.71 54.02,-333.38 72,-288 120.52,-165.52 154.76,-125.84 275,-72 370.75,-29.13 2010.33,-20.39 2304.12,-19.17"/>
<polygon fill="black" stroke="black" points="2303.79,-22.67 2313.78,-19.12 2303.76,-15.67 2303.79,-22.67"/>
</g>
<!-- aptos_coin&#45;&gt;error -->
<g id="edge117" class="edge">
<title>aptos_coin&#45;&gt;error</title>
<path fill="none" stroke="black" d="M1477.89,-586.47C1586.4,-570.51 1850.5,-526.5 1916,-468 1947.58,-439.79 1950,-421.34 1950,-379 1950,-379 1950,-379 1950,-233 1950,-161.9 1410.16,-108.13 1258.31,-94.42"/>
<polygon fill="black" stroke="black" points="1258.93,-90.87 1248.66,-93.46 1258.3,-97.84 1258.93,-90.87"/>
</g>
<!-- aptos_coin&#45;&gt;system_addresses -->
<g id="edge118" class="edge">
<title>aptos_coin&#45;&gt;system_addresses</title>
<path fill="none" stroke="black" d="M1400.44,-579.31C1357.47,-560.46 1276.45,-526.29 1205,-504 1056.47,-457.66 999.92,-484.58 872,-396 854.16,-383.64 856.64,-372.65 839,-360 818.87,-345.56 794.18,-333.82 772.45,-325.1"/>
<polygon fill="black" stroke="black" points="773.96,-321.54 763.37,-321.18 771.42,-328.06 773.96,-321.54"/>
</g>
</g>
</svg>
