<?xml version="1.0" encoding="UTF-8" standalone="no"?>
<!DOCTYPE svg PUBLIC "-//W3C//DTD SVG 1.1//EN"
 "http://www.w3.org/Graphics/SVG/1.1/DTD/svg11.dtd">
<!-- Generated by graphviz version 8.0.5 (20230430.1635)
 -->
<!-- Title: G Pages: 1 -->
<svg width="2932pt" height="908pt"
 viewBox="0.00 0.00 2931.63 908.00" xmlns="http://www.w3.org/2000/svg" xmlns:xlink="http://www.w3.org/1999/xlink">
<g id="graph0" class="graph" transform="scale(1 1) rotate(0) translate(4 904)">
<title>G</title>
<polygon fill="white" stroke="none" points="-4,4 -4,-904 2927.63,-904 2927.63,4 -4,4"/>
<!-- market -->
<g id="node1" class="node">
<title>market</title>
<ellipse fill="none" stroke="black" cx="896.63" cy="-882" rx="37.02" ry="18"/>
<text text-anchor="middle" x="896.63" y="-876.95" font-family="Times,serif" font-size="14.00">market</text>
</g>
<!-- option -->
<g id="node2" class="node">
<title>option</title>
<ellipse fill="none" stroke="black" cx="668.63" cy="-90" rx="34.46" ry="18"/>
<text text-anchor="middle" x="668.63" y="-84.95" font-family="Times,serif" font-size="14.00">option</text>
</g>
<!-- market&#45;&gt;option -->
<g id="edge1" class="edge">
<title>market&#45;&gt;option</title>
<path fill="none" stroke="black" d="M859.33,-880.35C729.71,-877.77 299.5,-866.44 167.63,-828 87.63,-804.68 2.63,-822.32 2.63,-739 2.63,-739 2.63,-739 2.63,-377 2.63,-265.33 5.91,-209.11 96.63,-144 139.1,-113.52 495.7,-97.42 623.38,-92.58"/>
<polygon fill="black" stroke="black" points="623.44,-96.05 633.3,-92.18 623.18,-89.05 623.44,-96.05"/>
</g>
<!-- string -->
<g id="node3" class="node">
<title>string</title>
<ellipse fill="none" stroke="black" cx="2387.63" cy="-162" rx="31.9" ry="18"/>
<text text-anchor="middle" x="2387.63" y="-156.95" font-family="Times,serif" font-size="14.00">string</text>
</g>
<!-- market&#45;&gt;string -->
<g id="edge2" class="edge">
<title>market&#45;&gt;string</title>
<path fill="none" stroke="black" d="M933.94,-880.73C1135.97,-879.09 2100.65,-869.22 2395.63,-828 2558.86,-805.19 2755.63,-903.82 2755.63,-739 2755.63,-739 2755.63,-739 2755.63,-665 2755.63,-559.15 2679.45,-281.92 2596.63,-216 2548.6,-177.78 2476.35,-166.77 2430.61,-163.8"/>
<polygon fill="black" stroke="black" points="2431.04,-160.27 2420.86,-163.22 2430.66,-167.26 2431.04,-160.27"/>
</g>
<!-- signer -->
<g id="node4" class="node">
<title>signer</title>
<ellipse fill="none" stroke="black" cx="2695.63" cy="-90" rx="33.44" ry="18"/>
<text text-anchor="middle" x="2695.63" y="-84.95" font-family="Times,serif" font-size="14.00">signer</text>
</g>
<!-- market&#45;&gt;signer -->
<g id="edge3" class="edge">
<title>market&#45;&gt;signer</title>
<path fill="none" stroke="black" d="M933.96,-881.12C1150.89,-881.66 2251.18,-881.62 2584.63,-828 2722.36,-805.85 2885.63,-878.5 2885.63,-739 2885.63,-739 2885.63,-739 2885.63,-521 2885.63,-424.4 2847.63,-403.6 2847.63,-307 2847.63,-307 2847.63,-307 2847.63,-233 2847.63,-170.01 2777.07,-126.94 2732.1,-105.88"/>
<polygon fill="black" stroke="black" points="2733.66,-102.29 2723.1,-101.36 2730.77,-108.67 2733.66,-102.29"/>
</g>
<!-- type_info -->
<g id="node5" class="node">
<title>type_info</title>
<ellipse fill="none" stroke="black" cx="2087.63" cy="-234" rx="46.23" ry="18"/>
<text text-anchor="middle" x="2087.63" y="-228.95" font-family="Times,serif" font-size="14.00">type_info</text>
</g>
<!-- market&#45;&gt;type_info -->
<g id="edge4" class="edge">
<title>market&#45;&gt;type_info</title>
<path fill="none" stroke="black" d="M933.83,-880.62C1155.27,-878.27 2292.15,-864.43 2355.63,-828 2512.88,-737.76 2541.95,-590.34 2453.63,-432 2410.89,-355.39 2394.69,-331.71 2318.63,-288 2264.23,-256.74 2192.69,-243.92 2143.72,-238.66"/>
<polygon fill="black" stroke="black" points="2144.31,-235.1 2134.02,-237.59 2143.62,-242.06 2144.31,-235.1"/>
</g>
<!-- table -->
<g id="node6" class="node">
<title>table</title>
<ellipse fill="none" stroke="black" cx="268.63" cy="-306" rx="28.83" ry="18"/>
<text text-anchor="middle" x="268.63" y="-300.95" font-family="Times,serif" font-size="14.00">table</text>
</g>
<!-- market&#45;&gt;table -->
<g id="edge5" class="edge">
<title>market&#45;&gt;table</title>
<path fill="none" stroke="black" d="M859.5,-881.05C719.67,-880.26 232.63,-868.23 232.63,-739 232.63,-739 232.63,-739 232.63,-521 232.63,-453.16 250.44,-374.88 261,-334.41"/>
<polygon fill="black" stroke="black" points="264.57,-335.6 263.77,-325.03 257.81,-333.79 264.57,-335.6"/>
</g>
<!-- guid -->
<g id="node7" class="node">
<title>guid</title>
<ellipse fill="none" stroke="black" cx="725.63" cy="-306" rx="27.3" ry="18"/>
<text text-anchor="middle" x="725.63" y="-300.95" font-family="Times,serif" font-size="14.00">guid</text>
</g>
<!-- market&#45;&gt;guid -->
<g id="edge6" class="edge">
<title>market&#45;&gt;guid</title>
<path fill="none" stroke="black" d="M860.32,-877.69C792.43,-870.97 649.36,-854.1 607.63,-828 573.93,-806.93 572.24,-791.62 554.63,-756 518.61,-683.16 498.59,-653.62 522.63,-576 556.11,-467.88 654.92,-369.55 701.19,-327.96"/>
<polygon fill="black" stroke="black" points="703.04,-331.12 708.2,-321.87 698.39,-325.88 703.04,-331.12"/>
</g>
<!-- event -->
<g id="node8" class="node">
<title>event</title>
<ellipse fill="none" stroke="black" cx="727.63" cy="-378" rx="30.88" ry="18"/>
<text text-anchor="middle" x="727.63" y="-372.95" font-family="Times,serif" font-size="14.00">event</text>
</g>
<!-- market&#45;&gt;event -->
<g id="edge7" class="edge">
<title>market&#45;&gt;event</title>
<path fill="none" stroke="black" d="M859.63,-878.98C811.67,-874.98 726.69,-863.11 663.63,-828 564.72,-772.93 552.13,-722.74 528.63,-612 507.18,-510.95 632.78,-429.13 694.67,-395.52"/>
<polygon fill="black" stroke="black" points="696.2,-398.14 703.38,-390.36 692.91,-391.96 696.2,-398.14"/>
</g>
<!-- account -->
<g id="node9" class="node">
<title>account</title>
<ellipse fill="none" stroke="black" cx="1649.63" cy="-450" rx="39.58" ry="18"/>
<text text-anchor="middle" x="1649.63" y="-444.95" font-family="Times,serif" font-size="14.00">account</text>
</g>
<!-- market&#45;&gt;account -->
<g id="edge8" class="edge">
<title>market&#45;&gt;account</title>
<path fill="none" stroke="black" d="M933.34,-878.5C1141.19,-863.96 2164.1,-787.46 2253.63,-684 2412.76,-500.1 1871.4,-460.62 1700,-452.8"/>
<polygon fill="black" stroke="black" points="1700.4,-449.27 1690.25,-452.33 1700.09,-456.26 1700.4,-449.27"/>
</g>
<!-- coin -->
<g id="node10" class="node">
<title>coin</title>
<ellipse fill="none" stroke="black" cx="1104.63" cy="-522" rx="27" ry="18"/>
<text text-anchor="middle" x="1104.63" y="-516.95" font-family="Times,serif" font-size="14.00">coin</text>
</g>
<!-- market&#45;&gt;coin -->
<g id="edge9" class="edge">
<title>market&#45;&gt;coin</title>
<path fill="none" stroke="black" d="M896.63,-863.51C896.63,-836.71 896.63,-783.87 896.63,-739 896.63,-739 896.63,-739 896.63,-665 896.63,-582.88 1008.58,-544.83 1068.21,-530.38"/>
<polygon fill="black" stroke="black" points="1068.75,-533.62 1077.7,-527.95 1067.17,-526.8 1068.75,-533.62"/>
</g>
<!-- avl_queue -->
<g id="node11" class="node">
<title>avl_queue</title>
<ellipse fill="none" stroke="black" cx="155.63" cy="-450" rx="48.79" ry="18"/>
<text text-anchor="middle" x="155.63" y="-444.95" font-family="Times,serif" font-size="14.00">avl_queue</text>
</g>
<!-- market&#45;&gt;avl_queue -->
<g id="edge10" class="edge">
<title>market&#45;&gt;avl_queue</title>
<path fill="none" stroke="black" d="M859.48,-879.93C725.86,-875.83 274.52,-859.74 218.63,-828 176.48,-804.07 155.63,-787.46 155.63,-739 155.63,-739 155.63,-739 155.63,-593 155.63,-553.57 155.63,-507.97 155.63,-479.31"/>
<polygon fill="black" stroke="black" points="159.13,-479.49 155.63,-469.49 152.13,-479.49 159.13,-479.49"/>
</g>
<!-- tablist -->
<g id="node12" class="node">
<title>tablist</title>
<ellipse fill="none" stroke="black" cx="570.63" cy="-594" rx="33.44" ry="18"/>
<text text-anchor="middle" x="570.63" y="-588.95" font-family="Times,serif" font-size="14.00">tablist</text>
</g>
<!-- market&#45;&gt;tablist -->
<g id="edge11" class="edge">
<title>market&#45;&gt;tablist</title>
<path fill="none" stroke="black" d="M863.26,-873.55C806.92,-859.44 692.07,-824 620.63,-756 583.7,-720.86 573.88,-659.02 571.37,-623.07"/>
<polygon fill="black" stroke="black" points="574.82,-623.17 570.79,-613.38 567.83,-623.55 574.82,-623.17"/>
</g>
<!-- resource_account -->
<g id="node13" class="node">
<title>resource_account</title>
<ellipse fill="none" stroke="black" cx="1546.63" cy="-522" rx="75.41" ry="18"/>
<text text-anchor="middle" x="1546.63" y="-516.95" font-family="Times,serif" font-size="14.00">resource_account</text>
</g>
<!-- market&#45;&gt;resource_account -->
<g id="edge12" class="edge">
<title>market&#45;&gt;resource_account</title>
<path fill="none" stroke="black" d="M928.17,-872.27C964.06,-862.2 1024.36,-844.85 1075.63,-828 1164.98,-798.64 1193.37,-803.36 1274.63,-756 1378.01,-695.74 1479.67,-594.41 1523.77,-547.81"/>
<polygon fill="black" stroke="black" points="1525.79,-550.71 1530.08,-541.03 1520.68,-545.92 1525.79,-550.71"/>
</g>
<!-- incentives -->
<g id="node14" class="node">
<title>incentives</title>
<ellipse fill="none" stroke="black" cx="2353.63" cy="-666" rx="48.28" ry="18"/>
<text text-anchor="middle" x="2353.63" y="-660.95" font-family="Times,serif" font-size="14.00">incentives</text>
</g>
<!-- market&#45;&gt;incentives -->
<g id="edge13" class="edge">
<title>market&#45;&gt;incentives</title>
<path fill="none" stroke="black" d="M933.78,-880.95C1153.59,-880.51 2276.08,-875.91 2329.63,-828 2366.65,-794.87 2364.14,-731.31 2358.94,-694.74"/>
<polygon fill="black" stroke="black" points="2362.31,-694.65 2357.27,-685.32 2355.39,-695.75 2362.31,-694.65"/>
</g>
<!-- registry -->
<g id="node15" class="node">
<title>registry</title>
<ellipse fill="none" stroke="black" cx="1226.63" cy="-738" rx="39.07" ry="18"/>
<text text-anchor="middle" x="1226.63" y="-732.95" font-family="Times,serif" font-size="14.00">registry</text>
</g>
<!-- market&#45;&gt;registry -->
<g id="edge14" class="edge">
<title>market&#45;&gt;registry</title>
<path fill="none" stroke="black" d="M923.63,-869.38C982.34,-844.12 1121.73,-784.14 1189.01,-755.19"/>
<polygon fill="black" stroke="black" points="1189.98,-758.15 1197.78,-750.98 1187.21,-751.72 1189.98,-758.15"/>
</g>
<!-- user -->
<g id="node16" class="node">
<title>user</title>
<ellipse fill="none" stroke="black" cx="841.63" cy="-810" rx="27" ry="18"/>
<text text-anchor="middle" x="841.63" y="-804.95" font-family="Times,serif" font-size="14.00">user</text>
</g>
<!-- market&#45;&gt;user -->
<g id="edge15" class="edge">
<title>market&#45;&gt;user</title>
<path fill="none" stroke="black" d="M883.87,-864.76C876.87,-855.86 868.07,-844.65 860.31,-834.78"/>
<polygon fill="black" stroke="black" points="862.49,-832.89 853.56,-827.19 856.99,-837.21 862.49,-832.89"/>
</g>
<!-- vector -->
<g id="node17" class="node">
<title>vector</title>
<ellipse fill="none" stroke="black" cx="2294.63" cy="-18" rx="33.95" ry="18"/>
<text text-anchor="middle" x="2294.63" y="-12.95" font-family="Times,serif" font-size="14.00">vector</text>
</g>
<!-- option&#45;&gt;vector -->
<g id="edge16" class="edge">
<title>option&#45;&gt;vector</title>
<path fill="none" stroke="black" d="M702.96,-87.52C912.01,-78.52 2012.53,-31.14 2249.6,-20.94"/>
<polygon fill="black" stroke="black" points="2249.7,-24.39 2259.54,-20.47 2249.4,-17.4 2249.7,-24.39"/>
</g>
<!-- string&#45;&gt;option -->
<g id="edge18" class="edge">
<title>string&#45;&gt;option</title>
<path fill="none" stroke="black" d="M2355.58,-159.69C2145.09,-151.12 961.5,-102.93 714,-92.85"/>
<polygon fill="black" stroke="black" points="714.39,-89.32 704.26,-92.41 714.11,-96.31 714.39,-89.32"/>
</g>
<!-- string&#45;&gt;vector -->
<g id="edge17" class="edge">
<title>string&#45;&gt;vector</title>
<path fill="none" stroke="black" d="M2376.96,-144.71C2360.93,-120.23 2330.48,-73.74 2311.44,-44.67"/>
<polygon fill="black" stroke="black" points="2313.86,-42.98 2305.46,-36.54 2308.01,-46.82 2313.86,-42.98"/>
</g>
<!-- type_info&#45;&gt;string -->
<g id="edge19" class="edge">
<title>type_info&#45;&gt;string</title>
<path fill="none" stroke="black" d="M2126.54,-223.92C2183.88,-210.54 2290.5,-185.66 2348.16,-172.21"/>
<polygon fill="black" stroke="black" points="2348.73,-175.44 2357.67,-169.76 2347.14,-168.62 2348.73,-175.44"/>
</g>
<!-- error -->
<g id="node18" class="node">
<title>error</title>
<ellipse fill="none" stroke="black" cx="1555.63" cy="-90" rx="28.83" ry="18"/>
<text text-anchor="middle" x="1555.63" y="-84.95" font-family="Times,serif" font-size="14.00">error</text>
</g>
<!-- type_info&#45;&gt;error -->
<g id="edge20" class="edge">
<title>type_info&#45;&gt;error</title>
<path fill="none" stroke="black" d="M2066.81,-217.55C2038.17,-197.14 1984.28,-161.72 1932.63,-144 1814.77,-103.57 1666.07,-93.95 1595.85,-91.68"/>
<polygon fill="black" stroke="black" points="1595.97,-88.15 1585.87,-91.37 1595.77,-95.15 1595.97,-88.15"/>
</g>
<!-- features -->
<g id="node19" class="node">
<title>features</title>
<ellipse fill="none" stroke="black" cx="1883.63" cy="-162" rx="40.09" ry="18"/>
<text text-anchor="middle" x="1883.63" y="-156.95" font-family="Times,serif" font-size="14.00">features</text>
</g>
<!-- type_info&#45;&gt;features -->
<g id="edge21" class="edge">
<title>type_info&#45;&gt;features</title>
<path fill="none" stroke="black" d="M2053.94,-221.44C2018.56,-209.3 1962.89,-190.2 1924.9,-177.16"/>
<polygon fill="black" stroke="black" points="1926.28,-173.59 1915.69,-173.66 1924.01,-180.21 1926.28,-173.59"/>
</g>
<!-- bcs -->
<g id="node20" class="node">
<title>bcs</title>
<ellipse fill="none" stroke="black" cx="1318.63" cy="-162" rx="27" ry="18"/>
<text text-anchor="middle" x="1318.63" y="-156.95" font-family="Times,serif" font-size="14.00">bcs</text>
</g>
<!-- type_info&#45;&gt;bcs -->
<g id="edge22" class="edge">
<title>type_info&#45;&gt;bcs</title>
<path fill="none" stroke="black" d="M2042.96,-228.93C1904.49,-216.33 1484.09,-178.06 1356.04,-166.41"/>
<polygon fill="black" stroke="black" points="1356.54,-162.85 1346.26,-165.42 1355.9,-169.82 1356.54,-162.85"/>
</g>
<!-- event&#45;&gt;guid -->
<g id="edge24" class="edge">
<title>event&#45;&gt;guid</title>
<path fill="none" stroke="black" d="M727.13,-359.7C726.92,-352.24 726.66,-343.32 726.42,-334.97"/>
<polygon fill="black" stroke="black" points="729.9,-335 726.11,-325.1 722.9,-335.2 729.9,-335"/>
</g>
<!-- event&#45;&gt;bcs -->
<g id="edge23" class="edge">
<title>event&#45;&gt;bcs</title>
<path fill="none" stroke="black" d="M750.26,-365.33C785.75,-347.3 856.91,-312.24 919.63,-288 1051.38,-237.07 1213.37,-191.35 1283.51,-172.34"/>
<polygon fill="black" stroke="black" points="1284.21,-175.5 1292.95,-169.52 1282.39,-168.74 1284.21,-175.5"/>
</g>
<!-- account&#45;&gt;option -->
<g id="edge26" class="edge">
<title>account&#45;&gt;option</title>
<path fill="none" stroke="black" d="M1610.27,-446.79C1545.03,-442.3 1410.92,-429.5 1302.63,-396 1239.07,-376.34 824.47,-169.22 702.39,-107.97"/>
<polygon fill="black" stroke="black" points="704.31,-104.52 693.8,-103.16 701.17,-110.77 704.31,-104.52"/>
</g>
<!-- account&#45;&gt;signer -->
<g id="edge27" class="edge">
<title>account&#45;&gt;signer</title>
<path fill="none" stroke="black" d="M1689.2,-447.87C1811.16,-444.04 2175.49,-429.83 2215.63,-396 2246.95,-369.6 2239.63,-347.97 2239.63,-307 2239.63,-307 2239.63,-307 2239.63,-233 2239.63,-215.2 2191.8,-212.81 2346.63,-144 2448.75,-98.61 2582.46,-90.99 2650.94,-90.37"/>
<polygon fill="black" stroke="black" points="2650.77,-93.86 2660.76,-90.32 2650.74,-86.86 2650.77,-93.86"/>
</g>
<!-- account&#45;&gt;type_info -->
<g id="edge30" class="edge">
<title>account&#45;&gt;type_info</title>
<path fill="none" stroke="black" d="M1688.96,-447.11C1768.2,-442.63 1943.68,-429.17 1992.63,-396 2040.19,-363.77 2067.4,-299.13 2079.66,-262.31"/>
<polygon fill="black" stroke="black" points="2083.16,-263.87 2082.86,-253.28 2076.49,-261.74 2083.16,-263.87"/>
</g>
<!-- account&#45;&gt;table -->
<g id="edge31" class="edge">
<title>account&#45;&gt;table</title>
<path fill="none" stroke="black" d="M1609.87,-449.4C1495.99,-449.87 1159.21,-446.54 885.63,-396 831.71,-386.04 821.35,-370.95 767.63,-360 599.09,-325.67 393.73,-312.77 308.57,-308.66"/>
<polygon fill="black" stroke="black" points="308.76,-305.12 298.61,-308.15 308.43,-312.11 308.76,-305.12"/>
</g>
<!-- account&#45;&gt;guid -->
<g id="edge36" class="edge">
<title>account&#45;&gt;guid</title>
<path fill="none" stroke="black" d="M1609.99,-448.27C1511.61,-445.87 1248.66,-435.92 1033.63,-396 931.83,-377.1 815.35,-338.68 759.28,-319.08"/>
<polygon fill="black" stroke="black" points="760.8,-315.56 750.21,-315.54 758.48,-322.16 760.8,-315.56"/>
</g>
<!-- account&#45;&gt;event -->
<g id="edge38" class="edge">
<title>account&#45;&gt;event</title>
<path fill="none" stroke="black" d="M1609.95,-447.41C1493.09,-442.5 1140.1,-426.08 848.63,-396 821.67,-393.22 791.48,-388.98 768,-385.43"/>
<polygon fill="black" stroke="black" points="768.8,-381.86 758.39,-383.8 767.74,-388.78 768.8,-381.86"/>
</g>
<!-- account&#45;&gt;vector -->
<g id="edge25" class="edge">
<title>account&#45;&gt;vector</title>
<path fill="none" stroke="black" d="M1688.88,-447.36C1814.99,-441.04 2201.63,-413 2201.63,-307 2201.63,-307 2201.63,-307 2201.63,-161 2201.63,-111.86 2241.08,-66.49 2268.6,-40.83"/>
<polygon fill="black" stroke="black" points="2270.62,-43.81 2275.69,-34.51 2265.93,-38.62 2270.62,-43.81"/>
</g>
<!-- account&#45;&gt;error -->
<g id="edge28" class="edge">
<title>account&#45;&gt;error</title>
<path fill="none" stroke="black" d="M1658.53,-432.04C1671.39,-405.93 1693.63,-353.97 1693.63,-307 1693.63,-307 1693.63,-307 1693.63,-233 1693.63,-172.66 1628.75,-128.31 1587.96,-106.39"/>
<polygon fill="black" stroke="black" points="1589.9,-102.93 1579.41,-101.42 1586.67,-109.14 1589.9,-102.93"/>
</g>
<!-- account&#45;&gt;bcs -->
<g id="edge29" class="edge">
<title>account&#45;&gt;bcs</title>
<path fill="none" stroke="black" d="M1609.72,-448.46C1531.88,-446.49 1364.18,-437.41 1327.63,-396 1276.91,-338.54 1296.28,-238.64 1309.82,-190.49"/>
<polygon fill="black" stroke="black" points="1313.45,-191.54 1312.92,-180.96 1306.74,-189.56 1313.45,-191.54"/>
</g>
<!-- system_addresses -->
<g id="node21" class="node">
<title>system_addresses</title>
<ellipse fill="none" stroke="black" cx="1906.63" cy="-306" rx="76.94" ry="18"/>
<text text-anchor="middle" x="1906.63" y="-300.95" font-family="Times,serif" font-size="14.00">system_addresses</text>
</g>
<!-- account&#45;&gt;system_addresses -->
<g id="edge32" class="edge">
<title>account&#45;&gt;system_addresses</title>
<path fill="none" stroke="black" d="M1689.18,-447.07C1732.58,-443.15 1802.49,-431.36 1850.63,-396 1871.83,-380.43 1886.9,-354.19 1896.03,-334.22"/>
<polygon fill="black" stroke="black" points="1899.63,-335.73 1900.38,-325.16 1893.2,-332.95 1899.63,-335.73"/>
</g>
<!-- hash -->
<g id="node22" class="node">
<title>hash</title>
<ellipse fill="none" stroke="black" cx="1630.63" cy="-234" rx="27.81" ry="18"/>
<text text-anchor="middle" x="1630.63" y="-228.95" font-family="Times,serif" font-size="14.00">hash</text>
</g>
<!-- account&#45;&gt;hash -->
<g id="edge33" class="edge">
<title>account&#45;&gt;hash</title>
<path fill="none" stroke="black" d="M1648.1,-431.85C1644.83,-394.99 1637.1,-307.92 1633.11,-262.96"/>
<polygon fill="black" stroke="black" points="1636.53,-262.88 1632.16,-253.23 1629.55,-263.5 1636.53,-262.88"/>
</g>
<!-- ed25519 -->
<g id="node23" class="node">
<title>ed25519</title>
<ellipse fill="none" stroke="black" cx="1546.63" cy="-306" rx="42.65" ry="18"/>
<text text-anchor="middle" x="1546.63" y="-300.95" font-family="Times,serif" font-size="14.00">ed25519</text>
</g>
<!-- account&#45;&gt;ed25519 -->
<g id="edge34" class="edge">
<title>account&#45;&gt;ed25519</title>
<path fill="none" stroke="black" d="M1641.6,-432.14C1632.42,-413.63 1616.36,-383.43 1598.63,-360 1590.76,-349.61 1581,-339.17 1572.07,-330.33"/>
<polygon fill="black" stroke="black" points="1574.8,-328.14 1565.18,-323.71 1569.94,-333.17 1574.8,-328.14"/>
</g>
<!-- multi_ed25519 -->
<g id="node24" class="node">
<title>multi_ed25519</title>
<ellipse fill="none" stroke="black" cx="1403.63" cy="-378" rx="67.22" ry="18"/>
<text text-anchor="middle" x="1403.63" y="-372.95" font-family="Times,serif" font-size="14.00">multi_ed25519</text>
</g>
<!-- account&#45;&gt;multi_ed25519 -->
<g id="edge35" class="edge">
<title>account&#45;&gt;multi_ed25519</title>
<path fill="none" stroke="black" d="M1616.7,-439.63C1576.33,-428.14 1507.3,-408.5 1458.77,-394.69"/>
<polygon fill="black" stroke="black" points="1460.01,-391.12 1449.44,-391.75 1458.1,-397.85 1460.01,-391.12"/>
</g>
<!-- from_bcs -->
<g id="node25" class="node">
<title>from_bcs</title>
<ellipse fill="none" stroke="black" cx="2313.63" cy="-234" rx="46.23" ry="18"/>
<text text-anchor="middle" x="2313.63" y="-228.95" font-family="Times,serif" font-size="14.00">from_bcs</text>
</g>
<!-- account&#45;&gt;from_bcs -->
<g id="edge37" class="edge">
<title>account&#45;&gt;from_bcs</title>
<path fill="none" stroke="black" d="M1689.42,-448.17C1759.27,-445.68 1907.71,-435.72 2025.63,-396 2126.81,-361.92 2233.33,-292.11 2283.77,-256.67"/>
<polygon fill="black" stroke="black" points="2285.39,-259.11 2291.53,-250.47 2281.34,-253.4 2285.39,-259.11"/>
</g>
<!-- create_signer -->
<g id="node26" class="node">
<title>create_signer</title>
<ellipse fill="none" stroke="black" cx="1781.63" cy="-378" rx="60.05" ry="18"/>
<text text-anchor="middle" x="1781.63" y="-372.95" font-family="Times,serif" font-size="14.00">create_signer</text>
</g>
<!-- account&#45;&gt;create_signer -->
<g id="edge39" class="edge">
<title>account&#45;&gt;create_signer</title>
<path fill="none" stroke="black" d="M1674.76,-435.67C1694.18,-425.37 1721.38,-410.95 1743.48,-399.23"/>
<polygon fill="black" stroke="black" points="1744.71,-402.01 1751.91,-394.23 1741.43,-395.82 1744.71,-402.01"/>
</g>
<!-- chain_id -->
<g id="node27" class="node">
<title>chain_id</title>
<ellipse fill="none" stroke="black" cx="1940.63" cy="-378" rx="42.65" ry="18"/>
<text text-anchor="middle" x="1940.63" y="-372.95" font-family="Times,serif" font-size="14.00">chain_id</text>
</g>
<!-- account&#45;&gt;chain_id -->
<g id="edge40" class="edge">
<title>account&#45;&gt;chain_id</title>
<path fill="none" stroke="black" d="M1685.09,-441.74C1731.09,-432.15 1813.72,-414.32 1883.63,-396 1887.9,-394.88 1892.33,-393.66 1896.75,-392.41"/>
<polygon fill="black" stroke="black" points="1897.34,-395.59 1905.97,-389.44 1895.39,-388.87 1897.34,-395.59"/>
</g>
<!-- coin&#45;&gt;option -->
<g id="edge41" class="edge">
<title>coin&#45;&gt;option</title>
<path fill="none" stroke="black" d="M1077.47,-520.17C1022.25,-517.66 893.72,-507.67 794.63,-468 741.41,-446.7 716.12,-445.73 687.63,-396 636.05,-305.99 652.18,-175.55 662.67,-118.95"/>
<polygon fill="black" stroke="black" points="666.26,-119.82 664.74,-109.34 659.39,-118.49 666.26,-119.82"/>
</g>
<!-- coin&#45;&gt;string -->
<g id="edge42" class="edge">
<title>coin&#45;&gt;string</title>
<path fill="none" stroke="black" d="M1131.56,-519.71C1252.4,-513.85 1745.34,-489.1 1898.63,-468 2052.94,-446.76 2107.03,-474.41 2241.63,-396 2315.36,-353.05 2330.24,-328.21 2368.63,-252 2378.23,-232.93 2382.99,-209.18 2385.34,-191.02"/>
<polygon fill="black" stroke="black" points="2388.91,-191.58 2386.54,-181.26 2381.96,-190.81 2388.91,-191.58"/>
</g>
<!-- coin&#45;&gt;signer -->
<g id="edge43" class="edge">
<title>coin&#45;&gt;signer</title>
<path fill="none" stroke="black" d="M1131.82,-519.65C1281.55,-512.22 2000.41,-476.23 2046.63,-468 2154.59,-448.78 2180.47,-435.89 2282.63,-396 2367.62,-362.81 2467.63,-398.24 2467.63,-307 2467.63,-307 2467.63,-307 2467.63,-233 2467.63,-146.64 2586.94,-110.92 2652.94,-97.76"/>
<polygon fill="black" stroke="black" points="2653.27,-101.07 2662.44,-95.77 2651.97,-94.19 2653.27,-101.07"/>
</g>
<!-- coin&#45;&gt;type_info -->
<g id="edge45" class="edge">
<title>coin&#45;&gt;type_info</title>
<path fill="none" stroke="black" d="M1131.93,-520.01C1245.89,-515.73 1683.87,-497.63 1818.63,-468 1907.64,-448.43 1935.69,-447.86 2010.63,-396 2045.59,-371.8 2055.61,-362.52 2073.63,-324 2082.58,-304.85 2085.98,-281.11 2087.2,-262.96"/>
<polygon fill="black" stroke="black" points="2090.73,-263.37 2087.71,-253.22 2083.74,-263.04 2090.73,-263.37"/>
</g>
<!-- coin&#45;&gt;event -->
<g id="edge47" class="edge">
<title>coin&#45;&gt;event</title>
<path fill="none" stroke="black" d="M1077.59,-519.46C1028.95,-515.83 924.34,-504.15 844.63,-468 842.07,-466.84 787.86,-425.31 754.13,-399.39"/>
<polygon fill="black" stroke="black" points="756.7,-396.18 746.63,-392.86 752.43,-401.73 756.7,-396.18"/>
</g>
<!-- coin&#45;&gt;account -->
<g id="edge48" class="edge">
<title>coin&#45;&gt;account</title>
<path fill="none" stroke="black" d="M1125.93,-510.8C1132.16,-508.2 1139.05,-505.67 1145.63,-504 1307.7,-462.8 1506.94,-453.56 1598.81,-451.54"/>
<polygon fill="black" stroke="black" points="1598.81,-455.02 1608.74,-451.32 1598.67,-448.02 1598.81,-455.02"/>
</g>
<!-- coin&#45;&gt;error -->
<g id="edge44" class="edge">
<title>coin&#45;&gt;error</title>
<path fill="none" stroke="black" d="M1077.54,-518.79C1022.86,-513.71 902.34,-499.15 877.63,-468 805.66,-377.3 863.43,-299.51 943.63,-216 987.77,-170.04 1007.08,-163.87 1067.63,-144 1150.85,-116.68 1415.11,-99.06 1515.97,-93.18"/>
<polygon fill="black" stroke="black" points="1516.11,-96.62 1525.89,-92.55 1515.7,-89.63 1516.11,-96.62"/>
</g>
<!-- coin&#45;&gt;system_addresses -->
<g id="edge46" class="edge">
<title>coin&#45;&gt;system_addresses</title>
<path fill="none" stroke="black" d="M1131.73,-519.38C1274.82,-510.52 1937.79,-465.89 1992.63,-396 2002.5,-383.41 2000.43,-373.97 1992.63,-360 1984.56,-345.55 1970.76,-334.56 1956.55,-326.43"/>
<polygon fill="black" stroke="black" points="1958.68,-323.07 1948.21,-321.5 1955.41,-329.26 1958.68,-323.07"/>
</g>
<!-- aggregator -->
<g id="node28" class="node">
<title>aggregator</title>
<ellipse fill="none" stroke="black" cx="978.63" cy="-306" rx="50.33" ry="18"/>
<text text-anchor="middle" x="978.63" y="-300.95" font-family="Times,serif" font-size="14.00">aggregator</text>
</g>
<!-- coin&#45;&gt;aggregator -->
<g id="edge49" class="edge">
<title>coin&#45;&gt;aggregator</title>
<path fill="none" stroke="black" d="M1099.04,-504.14C1092.5,-485.63 1080.64,-455.44 1065.63,-432 1054.08,-413.98 1046.41,-413.17 1033.63,-396 1018.61,-375.84 1003.76,-351.47 993.28,-333.33"/>
<polygon fill="black" stroke="black" points="995.93,-331.92 987.94,-324.96 989.85,-335.38 995.93,-331.92"/>
</g>
<!-- aggregator_factory -->
<g id="node29" class="node">
<title>aggregator_factory</title>
<ellipse fill="none" stroke="black" cx="1123.63" cy="-378" rx="81.04" ry="18"/>
<text text-anchor="middle" x="1123.63" y="-372.95" font-family="Times,serif" font-size="14.00">aggregator_factory</text>
</g>
<!-- coin&#45;&gt;aggregator_factory -->
<g id="edge50" class="edge">
<title>coin&#45;&gt;aggregator_factory</title>
<path fill="none" stroke="black" d="M1106.96,-503.59C1110.19,-479.4 1116.08,-435.36 1119.93,-406.65"/>
<polygon fill="black" stroke="black" points="1123.48,-407.49 1121.34,-397.11 1116.54,-406.56 1123.48,-407.49"/>
</g>
<!-- optional_aggregator -->
<g id="node30" class="node">
<title>optional_aggregator</title>
<ellipse fill="none" stroke="black" cx="971.63" cy="-450" rx="85.13" ry="18"/>
<text text-anchor="middle" x="971.63" y="-444.95" font-family="Times,serif" font-size="14.00">optional_aggregator</text>
</g>
<!-- coin&#45;&gt;optional_aggregator -->
<g id="edge51" class="edge">
<title>coin&#45;&gt;optional_aggregator</title>
<path fill="none" stroke="black" d="M1083.84,-510.06C1064.64,-499.96 1035.59,-484.67 1011.86,-472.17"/>
<polygon fill="black" stroke="black" points="1013.87,-468.75 1003.39,-467.19 1010.61,-474.95 1013.87,-468.75"/>
</g>
<!-- avl_queue&#45;&gt;option -->
<g id="edge52" class="edge">
<title>avl_queue&#45;&gt;option</title>
<path fill="none" stroke="black" d="M147.73,-431.93C136.34,-405.67 116.63,-353.53 116.63,-307 116.63,-307 116.63,-307 116.63,-233 116.63,-128.68 491.1,-99.87 623.18,-92.96"/>
<polygon fill="black" stroke="black" points="623.28,-96.41 633.1,-92.41 622.93,-89.42 623.28,-96.41"/>
</g>
<!-- avl_queue&#45;&gt;table -->
<g id="edge53" class="edge">
<title>avl_queue&#45;&gt;table</title>
<path fill="none" stroke="black" d="M156.24,-431.58C157.75,-412.3 162.68,-381.16 178.63,-360 192.44,-341.67 214.59,-328.51 233.46,-319.89"/>
<polygon fill="black" stroke="black" points="234.73,-322.73 242.53,-315.56 231.96,-316.29 234.73,-322.73"/>
</g>
<!-- table_with_length -->
<g id="node31" class="node">
<title>table_with_length</title>
<ellipse fill="none" stroke="black" cx="373.63" cy="-378" rx="77.45" ry="18"/>
<text text-anchor="middle" x="373.63" y="-372.95" font-family="Times,serif" font-size="14.00">table_with_length</text>
</g>
<!-- avl_queue&#45;&gt;table_with_length -->
<g id="edge54" class="edge">
<title>avl_queue&#45;&gt;table_with_length</title>
<path fill="none" stroke="black" d="M191.62,-437.44C226.37,-426.28 279.44,-409.24 319.32,-396.44"/>
<polygon fill="black" stroke="black" points="320.22,-399.5 328.67,-393.11 318.08,-392.84 320.22,-399.5"/>
</g>
<!-- tablist&#45;&gt;option -->
<g id="edge55" class="edge">
<title>tablist&#45;&gt;option</title>
<path fill="none" stroke="black" d="M552.89,-578.45C526.15,-554.76 478.63,-505.05 478.63,-451 478.63,-451 478.63,-451 478.63,-233 478.63,-159.11 571.97,-119.04 627.81,-101.68"/>
<polygon fill="black" stroke="black" points="628.52,-104.82 637.1,-98.6 626.52,-98.11 628.52,-104.82"/>
</g>
<!-- tablist&#45;&gt;table_with_length -->
<g id="edge56" class="edge">
<title>tablist&#45;&gt;table_with_length</title>
<path fill="none" stroke="black" d="M542.2,-584.03C519.11,-575.61 486.85,-561.12 464.63,-540 424.24,-501.61 396.79,-441.28 383.3,-406.4"/>
<polygon fill="black" stroke="black" points="386.35,-405.58 379.56,-397.44 379.8,-408.04 386.35,-405.58"/>
</g>
<!-- resource_account&#45;&gt;account -->
<g id="edge58" class="edge">
<title>resource_account&#45;&gt;account</title>
<path fill="none" stroke="black" d="M1570.77,-504.59C1585.39,-494.66 1604.14,-481.91 1619.69,-471.34"/>
<polygon fill="black" stroke="black" points="1621.12,-473.93 1627.42,-465.41 1617.18,-468.14 1621.12,-473.93"/>
</g>
<!-- resource_account&#45;&gt;bcs -->
<g id="edge57" class="edge">
<title>resource_account&#45;&gt;bcs</title>
<path fill="none" stroke="black" d="M1476.62,-515.06C1394.85,-503.83 1270.63,-471.55 1270.63,-379 1270.63,-379 1270.63,-379 1270.63,-305 1270.63,-262.54 1290.12,-216.52 1304.26,-188.73"/>
<polygon fill="black" stroke="black" points="1307.82,-190.5 1309.37,-180.02 1301.62,-187.24 1307.82,-190.5"/>
</g>
<!-- timestamp -->
<g id="node32" class="node">
<title>timestamp</title>
<ellipse fill="none" stroke="black" cx="1539.63" cy="-378" rx="50.33" ry="18"/>
<text text-anchor="middle" x="1539.63" y="-372.95" font-family="Times,serif" font-size="14.00">timestamp</text>
</g>
<!-- resource_account&#45;&gt;timestamp -->
<g id="edge59" class="edge">
<title>resource_account&#45;&gt;timestamp</title>
<path fill="none" stroke="black" d="M1545.77,-503.59C1544.58,-479.5 1542.42,-435.75 1541.01,-407.03"/>
<polygon fill="black" stroke="black" points="1544.46,-406.93 1540.47,-397.11 1537.47,-407.27 1544.46,-406.93"/>
</g>
<!-- incentives&#45;&gt;signer -->
<g id="edge61" class="edge">
<title>incentives&#45;&gt;signer</title>
<path fill="none" stroke="black" d="M2393.57,-655.43C2491.14,-629.44 2733.63,-547.85 2733.63,-379 2733.63,-379 2733.63,-379 2733.63,-233 2733.63,-191.59 2718.36,-145.62 2707.18,-117.51"/>
<polygon fill="black" stroke="black" points="2710.17,-116.58 2703.13,-108.66 2703.69,-119.24 2710.17,-116.58"/>
</g>
<!-- incentives&#45;&gt;type_info -->
<g id="edge62" class="edge">
<title>incentives&#45;&gt;type_info</title>
<path fill="none" stroke="black" d="M2356.7,-647.61C2366.05,-588.56 2387.99,-393.58 2291.63,-288 2271.6,-266.07 2194.96,-250.64 2141.55,-242.29"/>
<polygon fill="black" stroke="black" points="2142.27,-238.7 2131.86,-240.66 2141.22,-245.62 2142.27,-238.7"/>
</g>
<!-- incentives&#45;&gt;coin -->
<g id="edge63" class="edge">
<title>incentives&#45;&gt;coin</title>
<path fill="none" stroke="black" d="M2307.69,-659.78C2108.74,-637.16 1323.26,-547.86 1142.06,-527.26"/>
<polygon fill="black" stroke="black" points="1142.57,-523.68 1132.24,-526.03 1141.78,-530.63 1142.57,-523.68"/>
</g>
<!-- incentives&#45;&gt;tablist -->
<g id="edge65" class="edge">
<title>incentives&#45;&gt;tablist</title>
<path fill="none" stroke="black" d="M2305.47,-663.11C2050.58,-653.1 861.11,-606.4 615.19,-596.75"/>
<polygon fill="black" stroke="black" points="615.33,-593.21 605.2,-596.32 615.05,-600.21 615.33,-593.21"/>
</g>
<!-- incentives&#45;&gt;resource_account -->
<g id="edge66" class="edge">
<title>incentives&#45;&gt;resource_account</title>
<path fill="none" stroke="black" d="M2326.84,-650.71C2287.18,-630.29 2209.95,-593.33 2139.63,-576 1963.41,-532.57 1749.95,-523.78 1633.24,-522.55"/>
<polygon fill="black" stroke="black" points="1633.28,-519.04 1623.25,-522.45 1633.22,-526.04 1633.28,-519.04"/>
</g>
<!-- incentives&#45;&gt;vector -->
<g id="edge60" class="edge">
<title>incentives&#45;&gt;vector</title>
<path fill="none" stroke="black" d="M2398.35,-658.86C2532.72,-637.67 2923.63,-554.74 2923.63,-307 2923.63,-307 2923.63,-307 2923.63,-161 2923.63,-101.5 2878.11,-95.91 2823.63,-72 2737.21,-34.08 2451.35,-22.92 2339.78,-19.97"/>
<polygon fill="black" stroke="black" points="2340.01,-16.45 2329.92,-19.69 2339.83,-23.44 2340.01,-16.45"/>
</g>
<!-- aptos_coin -->
<g id="node33" class="node">
<title>aptos_coin</title>
<ellipse fill="none" stroke="black" cx="2432.63" cy="-594" rx="50.84" ry="18"/>
<text text-anchor="middle" x="2432.63" y="-588.95" font-family="Times,serif" font-size="14.00">aptos_coin</text>
</g>
<!-- incentives&#45;&gt;aptos_coin -->
<g id="edge64" class="edge">
<title>incentives&#45;&gt;aptos_coin</title>
<path fill="none" stroke="black" d="M2371.55,-649.12C2381.88,-639.96 2395.05,-628.29 2406.52,-618.13"/>
<polygon fill="black" stroke="black" points="2408.33,-621.32 2413.5,-612.06 2403.69,-616.08 2408.33,-621.32"/>
</g>
<!-- registry&#45;&gt;option -->
<g id="edge67" class="edge">
<title>registry&#45;&gt;option</title>
<path fill="none" stroke="black" d="M1193.9,-727.62C1158.62,-717.38 1100.91,-700.28 1051.63,-684 805.54,-602.72 554.63,-638.17 554.63,-379 554.63,-379 554.63,-379 554.63,-233 554.63,-179.46 604.52,-134.61 638.29,-110.38"/>
<polygon fill="black" stroke="black" points="639.7,-112.97 645.91,-104.39 635.71,-107.23 639.7,-112.97"/>
</g>
<!-- registry&#45;&gt;string -->
<g id="edge68" class="edge">
<title>registry&#45;&gt;string</title>
<path fill="none" stroke="black" d="M1265.86,-736.78C1458.87,-735.51 2302.54,-727.5 2410.63,-684 2582.34,-614.89 2595.91,-464.34 2539.63,-288 2528.22,-252.27 2523.34,-241.27 2495.63,-216 2475.37,-197.54 2447.51,-184.08 2425.15,-175.34"/>
<polygon fill="black" stroke="black" points="2426.59,-171.77 2416,-171.54 2424.14,-178.32 2426.59,-171.77"/>
</g>
<!-- registry&#45;&gt;signer -->
<g id="edge69" class="edge">
<title>registry&#45;&gt;signer</title>
<path fill="none" stroke="black" d="M1265.99,-736.54C1463.54,-734.07 2342.03,-721.06 2457.63,-684 2642.89,-624.6 2771.63,-573.55 2771.63,-379 2771.63,-379 2771.63,-379 2771.63,-233 2771.63,-187.03 2740.28,-141.53 2717.85,-114.87"/>
<polygon fill="black" stroke="black" points="2719.84,-112.83 2710.64,-107.57 2714.56,-117.42 2719.84,-112.83"/>
</g>
<!-- registry&#45;&gt;type_info -->
<g id="edge70" class="edge">
<title>registry&#45;&gt;type_info</title>
<path fill="none" stroke="black" d="M1265.69,-735.27C1443.03,-726.93 2163.63,-687.34 2163.63,-595 2163.63,-595 2163.63,-595 2163.63,-377 2163.63,-331.33 2132.69,-286.14 2110.29,-259.4"/>
<polygon fill="black" stroke="black" points="2112.56,-257.67 2103.37,-252.39 2107.26,-262.25 2112.56,-257.67"/>
</g>
<!-- registry&#45;&gt;table -->
<g id="edge71" class="edge">
<title>registry&#45;&gt;table</title>
<path fill="none" stroke="black" d="M1187.33,-737.19C1077.44,-736.26 759.87,-723.41 528.63,-612 399.05,-549.57 356.09,-522.49 287.63,-396 277.46,-377.22 272.73,-353.46 270.53,-335.21"/>
<polygon fill="black" stroke="black" points="273.93,-334.99 269.44,-325.39 266.96,-335.69 273.93,-334.99"/>
</g>
<!-- registry&#45;&gt;event -->
<g id="edge72" class="edge">
<title>registry&#45;&gt;event</title>
<path fill="none" stroke="black" d="M1200,-724.52C1129.05,-690.44 931.66,-590.11 796.63,-468 775.66,-449.04 756.37,-423.11 743.55,-404.13"/>
<polygon fill="black" stroke="black" points="746.06,-402.58 737.62,-396.17 740.22,-406.44 746.06,-402.58"/>
</g>
<!-- registry&#45;&gt;account -->
<g id="edge73" class="edge">
<title>registry&#45;&gt;account</title>
<path fill="none" stroke="black" d="M1262.66,-730.43C1342.46,-713.9 1534.6,-662.78 1630.63,-540 1644.09,-522.79 1648.55,-498.2 1649.81,-479.23"/>
<polygon fill="black" stroke="black" points="1653.34,-479.38 1650.23,-469.26 1646.35,-479.11 1653.34,-479.38"/>
</g>
<!-- registry&#45;&gt;coin -->
<g id="edge74" class="edge">
<title>registry&#45;&gt;coin</title>
<path fill="none" stroke="black" d="M1217.05,-720.21C1195.79,-682.91 1144.52,-592.98 1119.23,-548.62"/>
<polygon fill="black" stroke="black" points="1121.81,-547.08 1113.82,-540.13 1115.73,-550.55 1121.81,-547.08"/>
</g>
<!-- registry&#45;&gt;tablist -->
<g id="edge75" class="edge">
<title>registry&#45;&gt;tablist</title>
<path fill="none" stroke="black" d="M1191.01,-730.31C1139.6,-720.58 1041.65,-701.73 958.63,-684 831.6,-656.88 681.96,-621.61 611.38,-604.77"/>
<polygon fill="black" stroke="black" points="612.28,-601.15 601.74,-602.24 610.66,-607.96 612.28,-601.15"/>
</g>
<!-- registry&#45;&gt;incentives -->
<g id="edge76" class="edge">
<title>registry&#45;&gt;incentives</title>
<path fill="none" stroke="black" d="M1265.61,-735.4C1395.3,-729.94 1823.95,-710.92 2177.63,-684 2217.54,-680.96 2262.45,-676.61 2296.92,-673.07"/>
<polygon fill="black" stroke="black" points="2297.13,-676.46 2306.72,-671.95 2296.41,-669.5 2297.13,-676.46"/>
</g>
<!-- user&#45;&gt;option -->
<g id="edge78" class="edge">
<title>user&#45;&gt;option</title>
<path fill="none" stroke="black" d="M814.92,-807.02C679.87,-795.45 78.63,-724.54 78.63,-379 78.63,-379 78.63,-379 78.63,-233 78.63,-179.21 112.55,-168.12 160.63,-144 241.19,-103.57 514.18,-93.93 623.16,-91.67"/>
<polygon fill="black" stroke="black" points="623.16,-95.15 633.09,-91.46 623.03,-88.16 623.16,-95.15"/>
</g>
<!-- user&#45;&gt;string -->
<g id="edge79" class="edge">
<title>user&#45;&gt;string</title>
<path fill="none" stroke="black" d="M868.75,-807.93C1068.24,-799.94 2305.02,-748.03 2457.63,-684 2599.16,-624.61 2619.63,-532.49 2619.63,-379 2619.63,-379 2619.63,-379 2619.63,-305 2619.63,-216.65 2495.72,-181.6 2429.01,-169.12"/>
<polygon fill="black" stroke="black" points="2429.89,-165.55 2419.43,-167.25 2428.67,-172.44 2429.89,-165.55"/>
</g>
<!-- user&#45;&gt;signer -->
<g id="edge80" class="edge">
<title>user&#45;&gt;signer</title>
<path fill="none" stroke="black" d="M868.87,-808.96C1001.02,-808.52 1588.45,-803.86 2066.63,-756 2271.22,-735.52 2326.85,-743.65 2523.63,-684 2701.46,-630.09 2809.63,-564.83 2809.63,-379 2809.63,-379 2809.63,-379 2809.63,-233 2809.63,-179.31 2759.46,-134.36 2725.68,-110.19"/>
<polygon fill="black" stroke="black" points="2728.28,-107.04 2718.07,-104.21 2724.29,-112.79 2728.28,-107.04"/>
</g>
<!-- user&#45;&gt;type_info -->
<g id="edge81" class="edge">
<title>user&#45;&gt;type_info</title>
<path fill="none" stroke="black" d="M868.8,-808.66C996.84,-806.52 1552.06,-791.21 1990.63,-684 2076.33,-663.05 2124.81,-684.13 2175.63,-612 2258.7,-494.08 2238.05,-407.07 2156.63,-288 2147.77,-275.06 2134.76,-263.9 2122.41,-255.2"/>
<polygon fill="black" stroke="black" points="2124.86,-251.96 2114.6,-249.31 2120.97,-257.78 2124.86,-251.96"/>
</g>
<!-- user&#45;&gt;table -->
<g id="edge82" class="edge">
<title>user&#45;&gt;table</title>
<path fill="none" stroke="black" d="M814.78,-806.51C771.81,-801.67 685.78,-788.48 620.63,-756 485.56,-688.68 462.37,-649.6 358.63,-540 307.22,-485.7 289.21,-468.68 271.63,-396 266.79,-376.03 266.17,-352.81 266.69,-335.1"/>
<polygon fill="black" stroke="black" points="270.22,-335.48 267.16,-325.34 263.22,-335.18 270.22,-335.48"/>
</g>
<!-- user&#45;&gt;guid -->
<g id="edge83" class="edge">
<title>user&#45;&gt;guid</title>
<path fill="none" stroke="black" d="M817.21,-801.68C769.52,-785.72 668.63,-742.96 668.63,-667 668.63,-667 668.63,-667 668.63,-449 668.63,-408.55 671.27,-396.99 687.63,-360 692.25,-349.55 699.13,-339.1 705.77,-330.27"/>
<polygon fill="black" stroke="black" points="709.06,-332.75 712.51,-322.74 703.57,-328.42 709.06,-332.75"/>
</g>
<!-- user&#45;&gt;event -->
<g id="edge84" class="edge">
<title>user&#45;&gt;event</title>
<path fill="none" stroke="black" d="M824.28,-795.78C796.38,-772.86 744.63,-722.83 744.63,-667 744.63,-667 744.63,-667 744.63,-521 744.63,-481.07 737.92,-435.26 732.93,-406.72"/>
<polygon fill="black" stroke="black" points="736.21,-406.19 730.98,-396.97 729.32,-407.43 736.21,-406.19"/>
</g>
<!-- user&#45;&gt;account -->
<g id="edge85" class="edge">
<title>user&#45;&gt;account</title>
<path fill="none" stroke="black" d="M867.11,-803.42C942.57,-786.15 1159.63,-730.94 1159.63,-667 1159.63,-667 1159.63,-667 1159.63,-593 1159.63,-501.97 1475.52,-465.58 1600.03,-454.77"/>
<polygon fill="black" stroke="black" points="1600.1,-458.19 1609.77,-453.86 1599.51,-451.21 1600.1,-458.19"/>
</g>
<!-- user&#45;&gt;coin -->
<g id="edge86" class="edge">
<title>user&#45;&gt;coin</title>
<path fill="none" stroke="black" d="M838.9,-791.62C833.26,-748.74 825.19,-637 882.63,-576 907.52,-549.56 1010.56,-533.81 1067.09,-527"/>
<polygon fill="black" stroke="black" points="1067.21,-530.39 1076.74,-525.76 1066.4,-523.44 1067.21,-530.39"/>
</g>
<!-- user&#45;&gt;tablist -->
<g id="edge87" class="edge">
<title>user&#45;&gt;tablist</title>
<path fill="none" stroke="black" d="M814.42,-807.9C775.05,-804.96 701.74,-794.34 654.63,-756 611.74,-721.11 588.19,-658.47 577.61,-622.47"/>
<polygon fill="black" stroke="black" points="580.81,-621.9 574.74,-613.22 574.07,-623.79 580.81,-621.9"/>
</g>
<!-- user&#45;&gt;registry -->
<g id="edge88" class="edge">
<title>user&#45;&gt;registry</title>
<path fill="none" stroke="black" d="M868.15,-806.16C924.78,-799.78 1061.5,-782.77 1173.63,-756 1177.52,-755.07 1181.54,-754 1185.55,-752.85"/>
<polygon fill="black" stroke="black" points="1186.46,-755.93 1195.02,-749.69 1184.44,-749.23 1186.46,-755.93"/>
</g>
<!-- user&#45;&gt;vector -->
<g id="edge77" class="edge">
<title>user&#45;&gt;vector</title>
<path fill="none" stroke="black" d="M814.39,-808.63C744.68,-807.06 554.69,-798.85 403.63,-756 330.16,-735.16 312.25,-724.68 247.63,-684 36.73,-551.23 -102.68,-293.61 96.63,-144 286.39,-1.55 389.17,-91.79 625.63,-72 1268.6,-18.18 2055.1,-17.88 2249.56,-18.72"/>
<polygon fill="black" stroke="black" points="2249.46,-22.23 2259.47,-18.77 2249.49,-15.23 2249.46,-22.23"/>
</g>
<!-- features&#45;&gt;signer -->
<g id="edge89" class="edge">
<title>features&#45;&gt;signer</title>
<path fill="none" stroke="black" d="M1922.79,-157.62C2058.66,-145.91 2509.19,-107.07 2651.88,-94.77"/>
<polygon fill="black" stroke="black" points="2652.12,-98.18 2661.78,-93.83 2651.52,-91.2 2652.12,-98.18"/>
</g>
<!-- features&#45;&gt;error -->
<g id="edge90" class="edge">
<title>features&#45;&gt;error</title>
<path fill="none" stroke="black" d="M1847.9,-153.38C1785.43,-140.04 1656.95,-112.62 1593.2,-99.02"/>
<polygon fill="black" stroke="black" points="1594.32,-95.47 1583.81,-96.8 1592.86,-102.31 1594.32,-95.47"/>
</g>
<!-- system_addresses&#45;&gt;signer -->
<g id="edge91" class="edge">
<title>system_addresses&#45;&gt;signer</title>
<path fill="none" stroke="black" d="M1888.08,-288.12C1855.31,-256.34 1794.25,-186.94 1834.63,-144 1862.85,-113.99 2478.75,-96.41 2651.14,-92.07"/>
<polygon fill="black" stroke="black" points="2651.17,-95.54 2661.08,-91.79 2650.99,-88.54 2651.17,-95.54"/>
</g>
<!-- system_addresses&#45;&gt;error -->
<g id="edge92" class="edge">
<title>system_addresses&#45;&gt;error</title>
<path fill="none" stroke="black" d="M1844.43,-295.06C1814.55,-287.55 1780.03,-274.51 1755.63,-252 1717.02,-216.39 1746.27,-179.57 1707.63,-144 1676.31,-115.18 1628.47,-101.89 1594.84,-95.86"/>
<polygon fill="black" stroke="black" points="1595.46,-92.25 1585.02,-94.08 1594.32,-99.15 1595.46,-92.25"/>
</g>
<!-- ed25519&#45;&gt;option -->
<g id="edge93" class="edge">
<title>ed25519&#45;&gt;option</title>
<path fill="none" stroke="black" d="M1537.24,-288.21C1517.05,-253.94 1465.8,-176.45 1398.63,-144 1337.09,-114.28 863.52,-97.08 713.83,-92.35"/>
<polygon fill="black" stroke="black" points="714.31,-88.83 704.21,-92.02 714.09,-95.83 714.31,-88.83"/>
</g>
<!-- ed25519&#45;&gt;type_info -->
<g id="edge96" class="edge">
<title>ed25519&#45;&gt;type_info</title>
<path fill="none" stroke="black" d="M1586.85,-299.8C1682.73,-287.39 1924.84,-256.06 2033.44,-242.01"/>
<polygon fill="black" stroke="black" points="2033.68,-245.38 2043.15,-240.63 2032.78,-238.44 2033.68,-245.38"/>
</g>
<!-- ed25519&#45;&gt;error -->
<g id="edge94" class="edge">
<title>ed25519&#45;&gt;error</title>
<path fill="none" stroke="black" d="M1548.12,-287.83C1548.97,-277.46 1549.99,-263.98 1550.63,-252 1553.1,-205.49 1554.47,-151.35 1555.13,-119.2"/>
<polygon fill="black" stroke="black" points="1558.64,-119.47 1555.34,-109.4 1551.64,-119.33 1558.64,-119.47"/>
</g>
<!-- ed25519&#45;&gt;bcs -->
<g id="edge95" class="edge">
<title>ed25519&#45;&gt;bcs</title>
<path fill="none" stroke="black" d="M1523.51,-290.6C1481.53,-264.46 1392.9,-209.26 1347.2,-180.8"/>
<polygon fill="black" stroke="black" points="1349.21,-177.3 1338.87,-174.99 1345.51,-183.24 1349.21,-177.3"/>
</g>
<!-- ed25519&#45;&gt;hash -->
<g id="edge97" class="edge">
<title>ed25519&#45;&gt;hash</title>
<path fill="none" stroke="black" d="M1565.27,-289.46C1577.24,-279.49 1592.93,-266.41 1605.93,-255.58"/>
<polygon fill="black" stroke="black" points="1607.59,-257.92 1613.03,-248.83 1603.1,-252.55 1607.59,-257.92"/>
</g>
<!-- multi_ed25519&#45;&gt;option -->
<g id="edge98" class="edge">
<title>multi_ed25519&#45;&gt;option</title>
<path fill="none" stroke="black" d="M1406.15,-359.6C1411.42,-315.68 1418.32,-199.9 1354.63,-144 1306.61,-101.86 859.8,-93.14 714.23,-91.41"/>
<polygon fill="black" stroke="black" points="714.52,-87.9 704.48,-91.29 714.44,-94.9 714.52,-87.9"/>
</g>
<!-- multi_ed25519&#45;&gt;error -->
<g id="edge99" class="edge">
<title>multi_ed25519&#45;&gt;error</title>
<path fill="none" stroke="black" d="M1411.01,-359.87C1428.12,-320.68 1472.59,-221.86 1518.63,-144 1524.25,-134.49 1531.01,-124.47 1537.21,-115.72"/>
<polygon fill="black" stroke="black" points="1540.62,-117.98 1543.64,-107.82 1534.95,-113.88 1540.62,-117.98"/>
</g>
<!-- multi_ed25519&#45;&gt;features -->
<g id="edge100" class="edge">
<title>multi_ed25519&#45;&gt;features</title>
<path fill="none" stroke="black" d="M1454.11,-365.73C1514.08,-352.2 1608.04,-330.51 1623.63,-324 1714.34,-286.13 1809.84,-218.82 1855.75,-184.47"/>
<polygon fill="black" stroke="black" points="1857.38,-186.87 1863.26,-178.05 1853.17,-181.28 1857.38,-186.87"/>
</g>
<!-- multi_ed25519&#45;&gt;bcs -->
<g id="edge101" class="edge">
<title>multi_ed25519&#45;&gt;bcs</title>
<path fill="none" stroke="black" d="M1391.51,-359.94C1384.72,-349.83 1376.47,-336.58 1370.63,-324 1349.71,-278.96 1333.74,-223.19 1325.31,-190.51"/>
<polygon fill="black" stroke="black" points="1328.49,-189.8 1322.64,-180.96 1321.7,-191.52 1328.49,-189.8"/>
</g>
<!-- multi_ed25519&#45;&gt;hash -->
<g id="edge102" class="edge">
<title>multi_ed25519&#45;&gt;hash</title>
<path fill="none" stroke="black" d="M1454.04,-365.84C1508.16,-353.46 1587.86,-333.94 1598.63,-324 1615.67,-308.26 1623.65,-282.79 1627.37,-263.12"/>
<polygon fill="black" stroke="black" points="1630.98,-263.76 1629.11,-253.33 1624.07,-262.64 1630.98,-263.76"/>
</g>
<!-- multi_ed25519&#45;&gt;ed25519 -->
<g id="edge103" class="edge">
<title>multi_ed25519&#45;&gt;ed25519</title>
<path fill="none" stroke="black" d="M1435.01,-361.64C1457.07,-350.84 1486.66,-336.36 1509.83,-325.01"/>
<polygon fill="black" stroke="black" points="1511.2,-327.75 1518.65,-320.21 1508.13,-321.46 1511.2,-327.75"/>
</g>
<!-- from_bcs&#45;&gt;string -->
<g id="edge104" class="edge">
<title>from_bcs&#45;&gt;string</title>
<path fill="none" stroke="black" d="M2330.42,-217.12C2340.34,-207.73 2353.06,-195.7 2363.98,-185.36"/>
<polygon fill="black" stroke="black" points="2366.05,-188.28 2370.91,-178.86 2361.24,-183.19 2366.05,-188.28"/>
</g>
<!-- chain_id&#45;&gt;system_addresses -->
<g id="edge105" class="edge">
<title>chain_id&#45;&gt;system_addresses</title>
<path fill="none" stroke="black" d="M1932.4,-360.05C1928.61,-352.26 1924.02,-342.82 1919.78,-334.08"/>
<polygon fill="black" stroke="black" points="1922.53,-332.74 1915.02,-325.28 1916.24,-335.8 1922.53,-332.74"/>
</g>
<!-- aggregator_factory&#45;&gt;table -->
<g id="edge107" class="edge">
<title>aggregator_factory&#45;&gt;table</title>
<path fill="none" stroke="black" d="M1048.5,-370.85C873.09,-356.49 441.39,-321.14 308.32,-310.25"/>
<polygon fill="black" stroke="black" points="308.72,-306.69 298.46,-309.36 308.15,-313.67 308.72,-306.69"/>
</g>
<!-- aggregator_factory&#45;&gt;error -->
<g id="edge106" class="edge">
<title>aggregator_factory&#45;&gt;error</title>
<path fill="none" stroke="black" d="M1129.93,-359.83C1147,-315.96 1198.55,-199.31 1282.63,-144 1320.56,-119.04 1450.16,-102.15 1516.22,-94.94"/>
<polygon fill="black" stroke="black" points="1516.45,-98.33 1526.02,-93.79 1515.7,-91.37 1516.45,-98.33"/>
</g>
<!-- aggregator_factory&#45;&gt;system_addresses -->
<g id="edge108" class="edge">
<title>aggregator_factory&#45;&gt;system_addresses</title>
<path fill="none" stroke="black" d="M1197.64,-370.38C1344.6,-357.24 1672.18,-327.96 1825.08,-314.29"/>
<polygon fill="black" stroke="black" points="1825.14,-317.71 1834.79,-313.33 1824.52,-310.74 1825.14,-317.71"/>
</g>
<!-- aggregator_factory&#45;&gt;aggregator -->
<g id="edge109" class="edge">
<title>aggregator_factory&#45;&gt;aggregator</title>
<path fill="none" stroke="black" d="M1090.72,-361.12C1068.89,-350.57 1040.14,-336.7 1017.22,-325.63"/>
<polygon fill="black" stroke="black" points="1019,-322.12 1008.47,-320.93 1015.96,-328.43 1019,-322.12"/>
</g>
<!-- optional_aggregator&#45;&gt;option -->
<g id="edge110" class="edge">
<title>optional_aggregator&#45;&gt;option</title>
<path fill="none" stroke="black" d="M939.67,-433.03C922.78,-423.66 902.35,-410.76 886.63,-396 792.6,-307.72 713.51,-173.35 682.58,-117.15"/>
<polygon fill="black" stroke="black" points="685.23,-115.7 677.37,-108.59 679.08,-119.05 685.23,-115.7"/>
</g>
<!-- optional_aggregator&#45;&gt;error -->
<g id="edge111" class="edge">
<title>optional_aggregator&#45;&gt;error</title>
<path fill="none" stroke="black" d="M957.4,-432.25C933.14,-401.57 889.25,-335.17 919.63,-288 1003.42,-157.91 1088.59,-189.07 1236.63,-144 1334.71,-114.14 1455.2,-99.91 1516.21,-94.21"/>
<polygon fill="black" stroke="black" points="1516.25,-97.63 1525.89,-93.24 1515.62,-90.66 1516.25,-97.63"/>
</g>
<!-- optional_aggregator&#45;&gt;aggregator -->
<g id="edge112" class="edge">
<title>optional_aggregator&#45;&gt;aggregator</title>
<path fill="none" stroke="black" d="M967.32,-431.55C963.47,-413.56 958.97,-384.74 962.63,-360 963.88,-351.5 966.21,-342.48 968.71,-334.33"/>
<polygon fill="black" stroke="black" points="972.34,-335.49 972.14,-324.9 965.69,-333.3 972.34,-335.49"/>
</g>
<!-- optional_aggregator&#45;&gt;aggregator_factory -->
<g id="edge113" class="edge">
<title>optional_aggregator&#45;&gt;aggregator_factory</title>
<path fill="none" stroke="black" d="M1006.12,-433.12C1027.96,-423.06 1056.4,-409.96 1079.83,-399.17"/>
<polygon fill="black" stroke="black" points="1080.91,-402.06 1088.53,-394.7 1077.99,-395.7 1080.91,-402.06"/>
</g>
<!-- table_with_length&#45;&gt;table -->
<g id="edge115" class="edge">
<title>table_with_length&#45;&gt;table</title>
<path fill="none" stroke="black" d="M349.01,-360.59C333.4,-350.18 313.16,-336.69 296.9,-325.85"/>
<polygon fill="black" stroke="black" points="299.11,-322.45 288.85,-319.81 295.23,-328.27 299.11,-322.45"/>
</g>
<!-- table_with_length&#45;&gt;error -->
<g id="edge114" class="edge">
<title>table_with_length&#45;&gt;error</title>
<path fill="none" stroke="black" d="M393.85,-360.34C449.54,-315.59 611.48,-192.85 769.63,-144 911.19,-100.27 1376.12,-92.6 1515.67,-91.27"/>
<polygon fill="black" stroke="black" points="1515.69,-94.76 1525.66,-91.17 1515.63,-87.76 1515.69,-94.76"/>
</g>
<!-- timestamp&#45;&gt;error -->
<g id="edge116" class="edge">
<title>timestamp&#45;&gt;error</title>
<path fill="none" stroke="black" d="M1520.65,-360.92C1510.85,-351.34 1499.87,-338.28 1494.63,-324 1489.11,-308.98 1492.23,-303.82 1494.63,-288 1504.11,-225.33 1529.64,-155.13 1544.5,-117.79"/>
<polygon fill="black" stroke="black" points="1548.06,-119.31 1548.56,-108.72 1541.57,-116.69 1548.06,-119.31"/>
</g>
<!-- timestamp&#45;&gt;system_addresses -->
<g id="edge117" class="edge">
<title>timestamp&#45;&gt;system_addresses</title>
<path fill="none" stroke="black" d="M1583.17,-368.7C1646.05,-356.7 1762.94,-334.41 1837.64,-320.16"/>
<polygon fill="black" stroke="black" points="1838.18,-323.43 1847.35,-318.12 1836.87,-316.55 1838.18,-323.43"/>
</g>
<!-- aptos_coin&#45;&gt;option -->
<g id="edge119" class="edge">
<title>aptos_coin&#45;&gt;option</title>
<path fill="none" stroke="black" d="M2381.75,-592.12C2166.57,-588.24 1330.24,-571.41 1068.63,-540 846.89,-513.38 592.63,-602.33 592.63,-379 592.63,-379 592.63,-379 592.63,-233 592.63,-187.03 623.97,-141.53 646.4,-114.87"/>
<polygon fill="black" stroke="black" points="649.69,-117.42 653.61,-107.57 644.41,-112.83 649.69,-117.42"/>
</g>
<!-- aptos_coin&#45;&gt;string -->
<g id="edge120" class="edge">
<title>aptos_coin&#45;&gt;string</title>
<path fill="none" stroke="black" d="M2445.19,-576.29C2478.75,-529.45 2565,-393.46 2519.63,-288 2499.13,-240.37 2450.58,-202.39 2418.42,-181.3"/>
<polygon fill="black" stroke="black" points="2420.73,-177.98 2410.42,-175.55 2416.97,-183.88 2420.73,-177.98"/>
</g>
<!-- aptos_coin&#45;&gt;signer -->
<g id="edge121" class="edge">
<title>aptos_coin&#45;&gt;signer</title>
<path fill="none" stroke="black" d="M2454.64,-577.42C2467.21,-567.71 2482.62,-554.36 2493.63,-540 2601.45,-399.33 2667.13,-191.96 2688.2,-118.24"/>
<polygon fill="black" stroke="black" points="2691.75,-119.54 2691.09,-108.97 2685.01,-117.64 2691.75,-119.54"/>
</g>
<!-- aptos_coin&#45;&gt;coin -->
<g id="edge124" class="edge">
<title>aptos_coin&#45;&gt;coin</title>
<path fill="none" stroke="black" d="M2382.59,-590.36C2168.4,-579.07 1331.08,-534.94 1142.49,-525"/>
<polygon fill="black" stroke="black" points="1142.93,-521.46 1132.76,-524.43 1142.56,-528.45 1142.93,-521.46"/>
</g>
<!-- aptos_coin&#45;&gt;vector -->
<g id="edge118" class="edge">
<title>aptos_coin&#45;&gt;vector</title>
<path fill="none" stroke="black" d="M2465.94,-580.18C2570.55,-538.89 2885.63,-406.29 2885.63,-307 2885.63,-307 2885.63,-307 2885.63,-161 2885.63,-48.74 2477.38,-24.99 2339.5,-20.18"/>
<polygon fill="black" stroke="black" points="2339.63,-16.65 2329.52,-19.81 2339.4,-23.64 2339.63,-16.65"/>
</g>
<!-- aptos_coin&#45;&gt;error -->
<g id="edge122" class="edge">
<title>aptos_coin&#45;&gt;error</title>
<path fill="none" stroke="black" d="M2435.79,-575.75C2445.6,-516.35 2469.15,-318.27 2368.63,-216 2259.23,-104.71 1744.06,-92.34 1595.7,-91.1"/>
<polygon fill="black" stroke="black" points="1595.88,-87.59 1585.86,-91.02 1595.84,-94.59 1595.88,-87.59"/>
</g>
<!-- aptos_coin&#45;&gt;system_addresses -->
<g id="edge123" class="edge">
<title>aptos_coin&#45;&gt;system_addresses</title>
<path fill="none" stroke="black" d="M2409.56,-577.55C2381.96,-559.26 2334.12,-528.24 2291.63,-504 2169.72,-434.48 2135.59,-423.86 2010.63,-360 1989.73,-349.32 1966.45,-337.46 1947.23,-327.67"/>
<polygon fill="black" stroke="black" points="1949.08,-324.17 1938.58,-322.75 1945.9,-330.41 1949.08,-324.17"/>
</g>
</g>
</svg>
