<?xml version="1.0" encoding="UTF-8" standalone="no"?>
<!DOCTYPE svg PUBLIC "-//W3C//DTD SVG 1.1//EN"
 "http://www.w3.org/Graphics/SVG/1.1/DTD/svg11.dtd">
<!-- Generated by graphviz version 9.0.0 (20230911.1827)
 -->
<!-- Title: G Pages: 1 -->
<svg width="2932pt" height="908pt"
 viewBox="0.00 0.00 2931.63 908.00" xmlns="http://www.w3.org/2000/svg" xmlns:xlink="http://www.w3.org/1999/xlink">
<g id="graph0" class="graph" transform="scale(1 1) rotate(0) translate(4 904)">
<title>G</title>
<polygon fill="white" stroke="none" points="-4,4 -4,-904 2927.63,-904 2927.63,4 -4,4"/>
<!-- market -->
<g id="node1" class="node">
<title>market</title>
<ellipse fill="none" stroke="black" cx="896.63" cy="-882" rx="37.02" ry="18"/>
<text text-anchor="middle" x="896.63" y="-876.95" font-family="Times,serif" font-size="14.00">market</text>
</g>
<!-- option -->
<g id="node2" class="node">
<title>option</title>
<ellipse fill="none" stroke="black" cx="668.63" cy="-90" rx="34.46" ry="18"/>
<text text-anchor="middle" x="668.63" y="-84.95" font-family="Times,serif" font-size="14.00">option</text>
</g>
<!-- market&#45;&gt;option -->
<g id="edge1" class="edge">
<title>market&#45;&gt;option</title>
<path fill="none" stroke="black" d="M859.33,-880.35C729.71,-877.77 299.5,-866.44 167.63,-828 87.63,-804.68 2.63,-822.32 2.63,-739 2.63,-739 2.63,-739 2.63,-377 2.63,-265.33 5.91,-209.11 96.63,-144 139.05,-113.55 494.98,-97.45 622.99,-92.6"/>
<polygon fill="black" stroke="black" points="622.92,-96.1 632.79,-92.23 622.66,-89.11 622.92,-96.1"/>
</g>
<!-- string -->
<g id="node3" class="node">
<title>string</title>
<ellipse fill="none" stroke="black" cx="2387.63" cy="-162" rx="31.9" ry="18"/>
<text text-anchor="middle" x="2387.63" y="-156.95" font-family="Times,serif" font-size="14.00">string</text>
</g>
<!-- market&#45;&gt;string -->
<g id="edge2" class="edge">
<title>market&#45;&gt;string</title>
<path fill="none" stroke="black" d="M933.94,-880.73C1135.97,-879.09 2100.65,-869.22 2395.63,-828 2558.86,-805.19 2755.63,-903.82 2755.63,-739 2755.63,-739 2755.63,-739 2755.63,-665 2755.63,-559.15 2679.45,-281.92 2596.63,-216 2548.8,-177.94 2476.96,-166.87 2431.19,-163.84"/>
<polygon fill="black" stroke="black" points="2431.55,-160.36 2421.38,-163.31 2431.17,-167.35 2431.55,-160.36"/>
</g>
<!-- signer -->
<g id="node4" class="node">
<title>signer</title>
<ellipse fill="none" stroke="black" cx="2695.63" cy="-90" rx="33.44" ry="18"/>
<text text-anchor="middle" x="2695.63" y="-84.95" font-family="Times,serif" font-size="14.00">signer</text>
</g>
<!-- market&#45;&gt;signer -->
<g id="edge3" class="edge">
<title>market&#45;&gt;signer</title>
<path fill="none" stroke="black" d="M933.96,-881.12C1150.89,-881.66 2251.18,-881.62 2584.63,-828 2722.36,-805.85 2885.63,-878.5 2885.63,-739 2885.63,-739 2885.63,-739 2885.63,-521 2885.63,-424.4 2847.63,-403.6 2847.63,-307 2847.63,-307 2847.63,-307 2847.63,-233 2847.63,-170.15 2777.37,-127.12 2732.38,-106.02"/>
<polygon fill="black" stroke="black" points="2734.03,-102.92 2723.48,-101.99 2731.15,-109.3 2734.03,-102.92"/>
</g>
<!-- type_info -->
<g id="node5" class="node">
<title>type_info</title>
<ellipse fill="none" stroke="black" cx="2087.63" cy="-234" rx="46.23" ry="18"/>
<text text-anchor="middle" x="2087.63" y="-228.95" font-family="Times,serif" font-size="14.00">type_info</text>
</g>
<!-- market&#45;&gt;type_info -->
<g id="edge4" class="edge">
<title>market&#45;&gt;type_info</title>
<path fill="none" stroke="black" d="M933.83,-880.62C1155.27,-878.27 2292.15,-864.43 2355.63,-828 2512.88,-737.76 2541.95,-590.34 2453.63,-432 2410.89,-355.39 2394.69,-331.71 2318.63,-288 2264.46,-256.87 2193.29,-244.03 2144.34,-238.72"/>
<polygon fill="black" stroke="black" points="2144.82,-235.25 2134.52,-237.74 2144.12,-242.22 2144.82,-235.25"/>
</g>
<!-- table -->
<g id="node6" class="node">
<title>table</title>
<ellipse fill="none" stroke="black" cx="268.63" cy="-306" rx="28.83" ry="18"/>
<text text-anchor="middle" x="268.63" y="-300.95" font-family="Times,serif" font-size="14.00">table</text>
</g>
<!-- market&#45;&gt;table -->
<g id="edge5" class="edge">
<title>market&#45;&gt;table</title>
<path fill="none" stroke="black" d="M859.5,-881.05C719.67,-880.26 232.63,-868.23 232.63,-739 232.63,-739 232.63,-739 232.63,-521 232.63,-453.45 250.29,-375.54 260.87,-334.93"/>
<polygon fill="black" stroke="black" points="264.19,-336.06 263.38,-325.5 257.42,-334.26 264.19,-336.06"/>
</g>
<!-- guid -->
<g id="node7" class="node">
<title>guid</title>
<ellipse fill="none" stroke="black" cx="725.63" cy="-306" rx="27.3" ry="18"/>
<text text-anchor="middle" x="725.63" y="-300.95" font-family="Times,serif" font-size="14.00">guid</text>
</g>
<!-- market&#45;&gt;guid -->
<g id="edge6" class="edge">
<title>market&#45;&gt;guid</title>
<path fill="none" stroke="black" d="M860.32,-877.69C792.43,-870.97 649.36,-854.1 607.63,-828 573.93,-806.93 572.24,-791.62 554.63,-756 518.61,-683.16 498.59,-653.62 522.63,-576 555.97,-468.33 654.1,-370.37 700.62,-328.48"/>
<polygon fill="black" stroke="black" points="702.91,-331.13 708.06,-321.87 698.26,-325.89 702.91,-331.13"/>
</g>
<!-- event -->
<g id="node8" class="node">
<title>event</title>
<ellipse fill="none" stroke="black" cx="727.63" cy="-378" rx="30.88" ry="18"/>
<text text-anchor="middle" x="727.63" y="-372.95" font-family="Times,serif" font-size="14.00">event</text>
</g>
<!-- market&#45;&gt;event -->
<g id="edge7" class="edge">
<title>market&#45;&gt;event</title>
<path fill="none" stroke="black" d="M859.63,-878.98C811.67,-874.98 726.69,-863.11 663.63,-828 564.72,-772.93 552.13,-722.74 528.63,-612 507.23,-511.16 632.26,-429.47 694.29,-395.73"/>
<polygon fill="black" stroke="black" points="695.86,-398.85 703.05,-391.07 692.57,-392.67 695.86,-398.85"/>
</g>
<!-- account -->
<g id="node9" class="node">
<title>account</title>
<ellipse fill="none" stroke="black" cx="1649.63" cy="-450" rx="39.58" ry="18"/>
<text text-anchor="middle" x="1649.63" y="-444.95" font-family="Times,serif" font-size="14.00">account</text>
</g>
<!-- market&#45;&gt;account -->
<g id="edge8" class="edge">
<title>market&#45;&gt;account</title>
<path fill="none" stroke="black" d="M933.34,-878.5C1141.19,-863.96 2164.1,-787.46 2253.63,-684 2412.6,-500.28 1872.48,-460.7 1700.51,-452.82"/>
<polygon fill="black" stroke="black" points="1700.91,-449.34 1690.77,-452.4 1700.6,-456.33 1700.91,-449.34"/>
</g>
<!-- coin -->
<g id="node10" class="node">
<title>coin</title>
<ellipse fill="none" stroke="black" cx="1104.63" cy="-522" rx="27" ry="18"/>
<text text-anchor="middle" x="1104.63" y="-516.95" font-family="Times,serif" font-size="14.00">coin</text>
</g>
<!-- market&#45;&gt;coin -->
<g id="edge9" class="edge">
<title>market&#45;&gt;coin</title>
<path fill="none" stroke="black" d="M896.63,-863.51C896.63,-836.71 896.63,-783.87 896.63,-739 896.63,-739 896.63,-739 896.63,-665 896.63,-583.05 1008.11,-544.98 1067.84,-530.47"/>
<polygon fill="black" stroke="black" points="1068.28,-533.96 1077.23,-528.29 1066.7,-527.14 1068.28,-533.96"/>
</g>
<!-- avl_queue -->
<g id="node11" class="node">
<title>avl_queue</title>
<ellipse fill="none" stroke="black" cx="155.63" cy="-450" rx="48.79" ry="18"/>
<text text-anchor="middle" x="155.63" y="-444.95" font-family="Times,serif" font-size="14.00">avl_queue</text>
</g>
<!-- market&#45;&gt;avl_queue -->
<g id="edge10" class="edge">
<title>market&#45;&gt;avl_queue</title>
<path fill="none" stroke="black" d="M859.48,-879.93C725.86,-875.83 274.52,-859.74 218.63,-828 176.48,-804.07 155.63,-787.46 155.63,-739 155.63,-739 155.63,-739 155.63,-593 155.63,-553.74 155.63,-508.38 155.63,-479.69"/>
<polygon fill="black" stroke="black" points="159.13,-480 155.63,-470 152.13,-480 159.13,-480"/>
</g>
<!-- tablist -->
<g id="node12" class="node">
<title>tablist</title>
<ellipse fill="none" stroke="black" cx="570.63" cy="-594" rx="33.44" ry="18"/>
<text text-anchor="middle" x="570.63" y="-588.95" font-family="Times,serif" font-size="14.00">tablist</text>
</g>
<!-- market&#45;&gt;tablist -->
<g id="edge11" class="edge">
<title>market&#45;&gt;tablist</title>
<path fill="none" stroke="black" d="M863.26,-873.55C806.92,-859.44 692.07,-824 620.63,-756 583.86,-721.01 573.96,-659.56 571.4,-623.54"/>
<polygon fill="black" stroke="black" points="574.91,-623.68 570.87,-613.89 567.92,-624.07 574.91,-623.68"/>
</g>
<!-- resource_account -->
<g id="node13" class="node">
<title>resource_account</title>
<ellipse fill="none" stroke="black" cx="1546.63" cy="-522" rx="75.41" ry="18"/>
<text text-anchor="middle" x="1546.63" y="-516.95" font-family="Times,serif" font-size="14.00">resource_account</text>
</g>
<!-- market&#45;&gt;resource_account -->
<g id="edge12" class="edge">
<title>market&#45;&gt;resource_account</title>
<path fill="none" stroke="black" d="M928.17,-872.27C964.06,-862.2 1024.36,-844.85 1075.63,-828 1164.98,-798.64 1193.37,-803.36 1274.63,-756 1377.58,-695.99 1478.82,-595.25 1523.22,-548.39"/>
<polygon fill="black" stroke="black" points="1525.75,-550.81 1530.04,-541.13 1520.65,-546.02 1525.75,-550.81"/>
</g>
<!-- incentives -->
<g id="node14" class="node">
<title>incentives</title>
<ellipse fill="none" stroke="black" cx="2353.63" cy="-666" rx="48.28" ry="18"/>
<text text-anchor="middle" x="2353.63" y="-660.95" font-family="Times,serif" font-size="14.00">incentives</text>
</g>
<!-- market&#45;&gt;incentives -->
<g id="edge13" class="edge">
<title>market&#45;&gt;incentives</title>
<path fill="none" stroke="black" d="M933.78,-880.95C1153.59,-880.51 2276.08,-875.91 2329.63,-828 2366.33,-795.16 2364.18,-732.4 2359.07,-695.69"/>
<polygon fill="black" stroke="black" points="2362.53,-695.15 2357.51,-685.82 2355.61,-696.24 2362.53,-695.15"/>
</g>
<!-- registry -->
<g id="node15" class="node">
<title>registry</title>
<ellipse fill="none" stroke="black" cx="1226.63" cy="-738" rx="39.07" ry="18"/>
<text text-anchor="middle" x="1226.63" y="-732.95" font-family="Times,serif" font-size="14.00">registry</text>
</g>
<!-- market&#45;&gt;registry -->
<g id="edge14" class="edge">
<title>market&#45;&gt;registry</title>
<path fill="none" stroke="black" d="M923.63,-869.38C982.22,-844.17 1121.16,-784.38 1188.6,-755.36"/>
<polygon fill="black" stroke="black" points="1189.59,-758.75 1197.39,-751.58 1186.82,-752.32 1189.59,-758.75"/>
</g>
<!-- user -->
<g id="node16" class="node">
<title>user</title>
<ellipse fill="none" stroke="black" cx="841.63" cy="-810" rx="27" ry="18"/>
<text text-anchor="middle" x="841.63" y="-804.95" font-family="Times,serif" font-size="14.00">user</text>
</g>
<!-- market&#45;&gt;user -->
<g id="edge15" class="edge">
<title>market&#45;&gt;user</title>
<path fill="none" stroke="black" d="M883.87,-864.76C876.94,-855.95 868.25,-844.88 860.55,-835.08"/>
<polygon fill="black" stroke="black" points="863.43,-833.08 854.49,-827.38 857.92,-837.4 863.43,-833.08"/>
</g>
<!-- vector -->
<g id="node17" class="node">
<title>vector</title>
<ellipse fill="none" stroke="black" cx="2294.63" cy="-18" rx="33.95" ry="18"/>
<text text-anchor="middle" x="2294.63" y="-12.95" font-family="Times,serif" font-size="14.00">vector</text>
</g>
<!-- option&#45;&gt;vector -->
<g id="edge16" class="edge">
<title>option&#45;&gt;vector</title>
<path fill="none" stroke="black" d="M702.96,-87.52C911.9,-78.53 2011.44,-31.19 2249.25,-20.95"/>
<polygon fill="black" stroke="black" points="2249.19,-24.46 2259.03,-20.53 2248.89,-17.47 2249.19,-24.46"/>
</g>
<!-- string&#45;&gt;option -->
<g id="edge18" class="edge">
<title>string&#45;&gt;option</title>
<path fill="none" stroke="black" d="M2355.58,-159.69C2145.3,-151.13 963.84,-103.02 714.74,-92.88"/>
<polygon fill="black" stroke="black" points="714.91,-89.38 704.77,-92.47 714.62,-96.38 714.91,-89.38"/>
</g>
<!-- string&#45;&gt;vector -->
<g id="edge17" class="edge">
<title>string&#45;&gt;vector</title>
<path fill="none" stroke="black" d="M2376.96,-144.71C2361,-120.34 2330.74,-74.14 2311.69,-45.05"/>
<polygon fill="black" stroke="black" points="2314.69,-43.25 2306.29,-36.8 2308.84,-47.09 2314.69,-43.25"/>
</g>
<!-- type_info&#45;&gt;string -->
<g id="edge19" class="edge">
<title>type_info&#45;&gt;string</title>
<path fill="none" stroke="black" d="M2126.54,-223.92C2183.76,-210.57 2290.06,-185.77 2347.8,-172.29"/>
<polygon fill="black" stroke="black" points="2348.25,-175.78 2357.2,-170.1 2346.66,-168.96 2348.25,-175.78"/>
</g>
<!-- error -->
<g id="node18" class="node">
<title>error</title>
<ellipse fill="none" stroke="black" cx="1555.63" cy="-90" rx="28.83" ry="18"/>
<text text-anchor="middle" x="1555.63" y="-84.95" font-family="Times,serif" font-size="14.00">error</text>
</g>
<!-- type_info&#45;&gt;error -->
<g id="edge20" class="edge">
<title>type_info&#45;&gt;error</title>
<path fill="none" stroke="black" d="M2066.81,-217.55C2038.17,-197.14 1984.28,-161.72 1932.63,-144 1815.02,-103.66 1666.68,-93.99 1596.28,-91.69"/>
<polygon fill="black" stroke="black" points="1596.48,-88.2 1586.38,-91.41 1596.28,-95.19 1596.48,-88.2"/>
</g>
<!-- features -->
<g id="node19" class="node">
<title>features</title>
<ellipse fill="none" stroke="black" cx="1883.63" cy="-162" rx="40.09" ry="18"/>
<text text-anchor="middle" x="1883.63" y="-156.95" font-family="Times,serif" font-size="14.00">features</text>
</g>
<!-- type_info&#45;&gt;features -->
<g id="edge21" class="edge">
<title>type_info&#45;&gt;features</title>
<path fill="none" stroke="black" d="M2053.94,-221.44C2018.71,-209.35 1963.37,-190.36 1925.39,-177.33"/>
<polygon fill="black" stroke="black" points="1926.71,-174.08 1916.12,-174.15 1924.44,-180.71 1926.71,-174.08"/>
</g>
<!-- bcs -->
<g id="node20" class="node">
<title>bcs</title>
<ellipse fill="none" stroke="black" cx="1318.63" cy="-162" rx="27" ry="18"/>
<text text-anchor="middle" x="1318.63" y="-156.95" font-family="Times,serif" font-size="14.00">bcs</text>
</g>
<!-- type_info&#45;&gt;bcs -->
<g id="edge22" class="edge">
<title>type_info&#45;&gt;bcs</title>
<path fill="none" stroke="black" d="M2042.96,-228.93C1904.63,-216.34 1484.94,-178.14 1356.43,-166.44"/>
<polygon fill="black" stroke="black" points="1357.05,-162.98 1346.77,-165.56 1356.41,-169.95 1357.05,-162.98"/>
</g>
<!-- event&#45;&gt;guid -->
<g id="edge24" class="edge">
<title>event&#45;&gt;guid</title>
<path fill="none" stroke="black" d="M727.13,-359.7C726.92,-352.41 726.67,-343.73 726.44,-335.54"/>
<polygon fill="black" stroke="black" points="729.94,-335.51 726.16,-325.62 722.94,-335.71 729.94,-335.51"/>
</g>
<!-- event&#45;&gt;bcs -->
<g id="edge23" class="edge">
<title>event&#45;&gt;bcs</title>
<path fill="none" stroke="black" d="M750.26,-365.33C785.75,-347.3 856.91,-312.24 919.63,-288 1051.11,-237.18 1212.7,-191.53 1283.07,-172.45"/>
<polygon fill="black" stroke="black" points="1283.75,-175.9 1292.49,-169.91 1281.93,-169.14 1283.75,-175.9"/>
</g>
<!-- account&#45;&gt;option -->
<g id="edge26" class="edge">
<title>account&#45;&gt;option</title>
<path fill="none" stroke="black" d="M1610.27,-446.79C1545.03,-442.3 1410.92,-429.5 1302.63,-396 1239.13,-376.36 825.3,-169.64 702.76,-108.16"/>
<polygon fill="black" stroke="black" points="704.66,-105.2 694.16,-103.84 701.52,-111.45 704.66,-105.2"/>
</g>
<!-- account&#45;&gt;signer -->
<g id="edge27" class="edge">
<title>account&#45;&gt;signer</title>
<path fill="none" stroke="black" d="M1689.2,-447.87C1811.16,-444.04 2175.49,-429.83 2215.63,-396 2246.95,-369.6 2239.63,-347.97 2239.63,-307 2239.63,-307 2239.63,-307 2239.63,-233 2239.63,-215.2 2191.8,-212.81 2346.63,-144 2448.54,-98.71 2581.91,-91.03 2650.52,-90.37"/>
<polygon fill="black" stroke="black" points="2650.26,-93.87 2660.24,-90.33 2650.23,-86.87 2650.26,-93.87"/>
</g>
<!-- account&#45;&gt;type_info -->
<g id="edge30" class="edge">
<title>account&#45;&gt;type_info</title>
<path fill="none" stroke="black" d="M1688.96,-447.11C1768.2,-442.63 1943.68,-429.17 1992.63,-396 2039.98,-363.91 2067.16,-299.68 2079.5,-262.79"/>
<polygon fill="black" stroke="black" points="2082.69,-264.31 2082.4,-253.72 2076.02,-262.18 2082.69,-264.31"/>
</g>
<!-- account&#45;&gt;table -->
<g id="edge31" class="edge">
<title>account&#45;&gt;table</title>
<path fill="none" stroke="black" d="M1609.87,-449.4C1495.99,-449.87 1159.21,-446.54 885.63,-396 831.71,-386.04 821.35,-370.95 767.63,-360 599.44,-325.74 394.57,-312.82 309.1,-308.69"/>
<polygon fill="black" stroke="black" points="309.27,-305.19 299.12,-308.22 308.95,-312.18 309.27,-305.19"/>
</g>
<!-- account&#45;&gt;guid -->
<g id="edge36" class="edge">
<title>account&#45;&gt;guid</title>
<path fill="none" stroke="black" d="M1609.99,-448.27C1511.61,-445.87 1248.66,-435.92 1033.63,-396 932.25,-377.18 816.32,-339 759.98,-319.33"/>
<polygon fill="black" stroke="black" points="761.23,-316.06 750.63,-316.04 758.91,-322.66 761.23,-316.06"/>
</g>
<!-- account&#45;&gt;event -->
<g id="edge38" class="edge">
<title>account&#45;&gt;event</title>
<path fill="none" stroke="black" d="M1609.95,-447.41C1493.09,-442.5 1140.1,-426.08 848.63,-396 821.91,-393.24 792.02,-389.06 768.64,-385.53"/>
<polygon fill="black" stroke="black" points="769.3,-382.09 758.88,-384.03 768.24,-389.01 769.3,-382.09"/>
</g>
<!-- account&#45;&gt;vector -->
<g id="edge25" class="edge">
<title>account&#45;&gt;vector</title>
<path fill="none" stroke="black" d="M1688.88,-447.36C1814.99,-441.04 2201.63,-413 2201.63,-307 2201.63,-307 2201.63,-307 2201.63,-161 2201.63,-112.07 2240.74,-66.88 2268.24,-41.16"/>
<polygon fill="black" stroke="black" points="2270.5,-43.83 2275.57,-34.53 2265.81,-38.64 2270.5,-43.83"/>
</g>
<!-- account&#45;&gt;error -->
<g id="edge28" class="edge">
<title>account&#45;&gt;error</title>
<path fill="none" stroke="black" d="M1658.53,-432.04C1671.39,-405.93 1693.63,-353.97 1693.63,-307 1693.63,-307 1693.63,-307 1693.63,-233 1693.63,-172.91 1629.3,-128.68 1588.48,-106.66"/>
<polygon fill="black" stroke="black" points="1590.24,-103.64 1579.76,-102.12 1587.01,-109.85 1590.24,-103.64"/>
</g>
<!-- account&#45;&gt;bcs -->
<g id="edge29" class="edge">
<title>account&#45;&gt;bcs</title>
<path fill="none" stroke="black" d="M1609.72,-448.46C1531.88,-446.49 1364.18,-437.41 1327.63,-396 1277.02,-338.66 1296.2,-239.06 1309.73,-190.8"/>
<polygon fill="black" stroke="black" points="1313.03,-191.99 1312.49,-181.41 1306.31,-190.02 1313.03,-191.99"/>
</g>
<!-- system_addresses -->
<g id="node21" class="node">
<title>system_addresses</title>
<ellipse fill="none" stroke="black" cx="1906.63" cy="-306" rx="76.94" ry="18"/>
<text text-anchor="middle" x="1906.63" y="-300.95" font-family="Times,serif" font-size="14.00">system_addresses</text>
</g>
<!-- account&#45;&gt;system_addresses -->
<g id="edge32" class="edge">
<title>account&#45;&gt;system_addresses</title>
<path fill="none" stroke="black" d="M1689.18,-447.07C1732.58,-443.15 1802.49,-431.36 1850.63,-396 1871.73,-380.5 1886.77,-354.43 1895.91,-334.5"/>
<polygon fill="black" stroke="black" points="1899.02,-336.12 1899.78,-325.55 1892.59,-333.34 1899.02,-336.12"/>
</g>
<!-- hash -->
<g id="node22" class="node">
<title>hash</title>
<ellipse fill="none" stroke="black" cx="1630.63" cy="-234" rx="27.81" ry="18"/>
<text text-anchor="middle" x="1630.63" y="-228.95" font-family="Times,serif" font-size="14.00">hash</text>
</g>
<!-- account&#45;&gt;hash -->
<g id="edge33" class="edge">
<title>account&#45;&gt;hash</title>
<path fill="none" stroke="black" d="M1648.1,-431.85C1644.84,-395.14 1637.17,-308.66 1633.16,-263.53"/>
<polygon fill="black" stroke="black" points="1636.66,-263.39 1632.29,-253.74 1629.69,-264.01 1636.66,-263.39"/>
</g>
<!-- ed25519 -->
<g id="node23" class="node">
<title>ed25519</title>
<ellipse fill="none" stroke="black" cx="1546.63" cy="-306" rx="42.65" ry="18"/>
<text text-anchor="middle" x="1546.63" y="-300.95" font-family="Times,serif" font-size="14.00">ed25519</text>
</g>
<!-- account&#45;&gt;ed25519 -->
<g id="edge34" class="edge">
<title>account&#45;&gt;ed25519</title>
<path fill="none" stroke="black" d="M1641.6,-432.14C1632.42,-413.63 1616.36,-383.43 1598.63,-360 1590.84,-349.72 1581.2,-339.38 1572.34,-330.6"/>
<polygon fill="black" stroke="black" points="1574.89,-328.19 1565.27,-323.76 1570.03,-333.23 1574.89,-328.19"/>
</g>
<!-- multi_ed25519 -->
<g id="node24" class="node">
<title>multi_ed25519</title>
<ellipse fill="none" stroke="black" cx="1403.63" cy="-378" rx="67.22" ry="18"/>
<text text-anchor="middle" x="1403.63" y="-372.95" font-family="Times,serif" font-size="14.00">multi_ed25519</text>
</g>
<!-- account&#45;&gt;multi_ed25519 -->
<g id="edge35" class="edge">
<title>account&#45;&gt;multi_ed25519</title>
<path fill="none" stroke="black" d="M1616.7,-439.63C1576.5,-428.19 1507.87,-408.66 1459.38,-394.87"/>
<polygon fill="black" stroke="black" points="1460.47,-391.54 1449.89,-392.17 1458.55,-398.27 1460.47,-391.54"/>
</g>
<!-- from_bcs -->
<g id="node25" class="node">
<title>from_bcs</title>
<ellipse fill="none" stroke="black" cx="2313.63" cy="-234" rx="46.23" ry="18"/>
<text text-anchor="middle" x="2313.63" y="-228.95" font-family="Times,serif" font-size="14.00">from_bcs</text>
</g>
<!-- account&#45;&gt;from_bcs -->
<g id="edge37" class="edge">
<title>account&#45;&gt;from_bcs</title>
<path fill="none" stroke="black" d="M1689.42,-448.17C1759.27,-445.68 1907.71,-435.72 2025.63,-396 2126.39,-362.06 2232.45,-292.69 2283.14,-257.12"/>
<polygon fill="black" stroke="black" points="2285.15,-259.98 2291.29,-251.35 2281.11,-254.27 2285.15,-259.98"/>
</g>
<!-- create_signer -->
<g id="node26" class="node">
<title>create_signer</title>
<ellipse fill="none" stroke="black" cx="1781.63" cy="-378" rx="60.05" ry="18"/>
<text text-anchor="middle" x="1781.63" y="-372.95" font-family="Times,serif" font-size="14.00">create_signer</text>
</g>
<!-- account&#45;&gt;create_signer -->
<g id="edge39" class="edge">
<title>account&#45;&gt;create_signer</title>
<path fill="none" stroke="black" d="M1674.76,-435.67C1694.01,-425.46 1720.89,-411.21 1742.88,-399.55"/>
<polygon fill="black" stroke="black" points="1744.38,-402.72 1751.57,-394.94 1741.1,-396.53 1744.38,-402.72"/>
</g>
<!-- chain_id -->
<g id="node27" class="node">
<title>chain_id</title>
<ellipse fill="none" stroke="black" cx="1940.63" cy="-378" rx="42.65" ry="18"/>
<text text-anchor="middle" x="1940.63" y="-372.95" font-family="Times,serif" font-size="14.00">chain_id</text>
</g>
<!-- account&#45;&gt;chain_id -->
<g id="edge40" class="edge">
<title>account&#45;&gt;chain_id</title>
<path fill="none" stroke="black" d="M1685.09,-441.74C1731.09,-432.15 1813.72,-414.32 1883.63,-396 1887.66,-394.94 1891.84,-393.8 1896.02,-392.62"/>
<polygon fill="black" stroke="black" points="1896.89,-396.01 1905.52,-389.86 1894.94,-389.28 1896.89,-396.01"/>
</g>
<!-- coin&#45;&gt;option -->
<g id="edge41" class="edge">
<title>coin&#45;&gt;option</title>
<path fill="none" stroke="black" d="M1077.47,-520.17C1022.25,-517.66 893.72,-507.67 794.63,-468 741.41,-446.7 716.12,-445.73 687.63,-396 636.16,-306.18 652.11,-176.1 662.61,-119.3"/>
<polygon fill="black" stroke="black" points="665.98,-120.31 664.45,-109.82 659.1,-118.97 665.98,-120.31"/>
</g>
<!-- coin&#45;&gt;string -->
<g id="edge42" class="edge">
<title>coin&#45;&gt;string</title>
<path fill="none" stroke="black" d="M1131.56,-519.71C1252.4,-513.85 1745.34,-489.1 1898.63,-468 2052.94,-446.76 2107.03,-474.41 2241.63,-396 2315.36,-353.05 2330.24,-328.21 2368.63,-252 2378.14,-233.11 2382.9,-209.63 2385.28,-191.53"/>
<polygon fill="black" stroke="black" points="2388.74,-192.09 2386.37,-181.76 2381.78,-191.31 2388.74,-192.09"/>
</g>
<!-- coin&#45;&gt;signer -->
<g id="edge43" class="edge">
<title>coin&#45;&gt;signer</title>
<path fill="none" stroke="black" d="M1131.82,-519.65C1281.55,-512.22 2000.41,-476.23 2046.63,-468 2154.59,-448.78 2180.47,-435.89 2282.63,-396 2367.62,-362.81 2467.63,-398.24 2467.63,-307 2467.63,-307 2467.63,-307 2467.63,-233 2467.63,-146.82 2586.45,-111.06 2652.54,-97.84"/>
<polygon fill="black" stroke="black" points="2652.79,-101.36 2661.96,-96.05 2651.48,-94.48 2652.79,-101.36"/>
</g>
<!-- coin&#45;&gt;type_info -->
<g id="edge45" class="edge">
<title>coin&#45;&gt;type_info</title>
<path fill="none" stroke="black" d="M1131.93,-520.01C1245.89,-515.73 1683.87,-497.63 1818.63,-468 1907.64,-448.43 1935.69,-447.86 2010.63,-396 2045.59,-371.8 2055.61,-362.52 2073.63,-324 2082.5,-305.03 2085.92,-281.56 2087.16,-263.48"/>
<polygon fill="black" stroke="black" points="2090.65,-263.89 2087.64,-253.73 2083.66,-263.55 2090.65,-263.89"/>
</g>
<!-- coin&#45;&gt;event -->
<g id="edge47" class="edge">
<title>coin&#45;&gt;event</title>
<path fill="none" stroke="black" d="M1077.59,-519.46C1028.95,-515.83 924.34,-504.15 844.63,-468 842.08,-466.85 788.32,-425.66 754.56,-399.73"/>
<polygon fill="black" stroke="black" points="756.9,-397.1 746.83,-393.78 752.63,-402.65 756.9,-397.1"/>
</g>
<!-- coin&#45;&gt;account -->
<g id="edge48" class="edge">
<title>coin&#45;&gt;account</title>
<path fill="none" stroke="black" d="M1125.93,-510.8C1132.16,-508.2 1139.05,-505.67 1145.63,-504 1307.37,-462.89 1506.13,-453.6 1598.25,-451.55"/>
<polygon fill="black" stroke="black" points="1598.29,-455.05 1608.22,-451.35 1598.15,-448.05 1598.29,-455.05"/>
</g>
<!-- coin&#45;&gt;error -->
<g id="edge44" class="edge">
<title>coin&#45;&gt;error</title>
<path fill="none" stroke="black" d="M1077.54,-518.79C1022.86,-513.71 902.34,-499.15 877.63,-468 805.66,-377.3 863.43,-299.51 943.63,-216 987.77,-170.04 1007.08,-163.87 1067.63,-144 1150.77,-116.71 1414.57,-99.1 1515.67,-93.2"/>
<polygon fill="black" stroke="black" points="1515.6,-96.71 1525.38,-92.64 1515.19,-89.72 1515.6,-96.71"/>
</g>
<!-- coin&#45;&gt;system_addresses -->
<g id="edge46" class="edge">
<title>coin&#45;&gt;system_addresses</title>
<path fill="none" stroke="black" d="M1131.73,-519.38C1274.82,-510.52 1937.79,-465.89 1992.63,-396 2002.5,-383.41 2000.43,-373.97 1992.63,-360 1984.71,-345.83 1971.28,-334.98 1957.36,-326.9"/>
<polygon fill="black" stroke="black" points="1959.01,-323.81 1948.54,-322.21 1955.73,-329.99 1959.01,-323.81"/>
</g>
<!-- aggregator -->
<g id="node28" class="node">
<title>aggregator</title>
<ellipse fill="none" stroke="black" cx="978.63" cy="-306" rx="50.33" ry="18"/>
<text text-anchor="middle" x="978.63" y="-300.95" font-family="Times,serif" font-size="14.00">aggregator</text>
</g>
<!-- coin&#45;&gt;aggregator -->
<g id="edge49" class="edge">
<title>coin&#45;&gt;aggregator</title>
<path fill="none" stroke="black" d="M1099.04,-504.14C1092.5,-485.63 1080.64,-455.44 1065.63,-432 1054.08,-413.98 1046.41,-413.17 1033.63,-396 1018.75,-376.03 1004.04,-351.92 993.57,-333.84"/>
<polygon fill="black" stroke="black" points="996.68,-332.23 988.69,-325.28 990.61,-335.7 996.68,-332.23"/>
</g>
<!-- aggregator_factory -->
<g id="node29" class="node">
<title>aggregator_factory</title>
<ellipse fill="none" stroke="black" cx="1123.63" cy="-378" rx="81.04" ry="18"/>
<text text-anchor="middle" x="1123.63" y="-372.95" font-family="Times,serif" font-size="14.00">aggregator_factory</text>
</g>
<!-- coin&#45;&gt;aggregator_factory -->
<g id="edge50" class="edge">
<title>coin&#45;&gt;aggregator_factory</title>
<path fill="none" stroke="black" d="M1106.96,-503.59C1110.16,-479.61 1115.98,-436.14 1119.82,-407.42"/>
<polygon fill="black" stroke="black" points="1123.28,-407.99 1121.14,-397.61 1116.34,-407.06 1123.28,-407.99"/>
</g>
<!-- optional_aggregator -->
<g id="node30" class="node">
<title>optional_aggregator</title>
<ellipse fill="none" stroke="black" cx="971.63" cy="-450" rx="85.13" ry="18"/>
<text text-anchor="middle" x="971.63" y="-444.95" font-family="Times,serif" font-size="14.00">optional_aggregator</text>
</g>
<!-- coin&#45;&gt;optional_aggregator -->
<g id="edge51" class="edge">
<title>coin&#45;&gt;optional_aggregator</title>
<path fill="none" stroke="black" d="M1083.84,-510.06C1064.82,-500.05 1036.11,-484.94 1012.49,-472.51"/>
<polygon fill="black" stroke="black" points="1014.21,-469.46 1003.73,-467.9 1010.95,-475.65 1014.21,-469.46"/>
</g>
<!-- avl_queue&#45;&gt;option -->
<g id="edge52" class="edge">
<title>avl_queue&#45;&gt;option</title>
<path fill="none" stroke="black" d="M147.73,-431.93C136.34,-405.67 116.63,-353.53 116.63,-307 116.63,-307 116.63,-307 116.63,-233 116.63,-128.78 490.35,-99.93 622.78,-92.98"/>
<polygon fill="black" stroke="black" points="622.77,-96.48 632.58,-92.48 622.42,-89.49 622.77,-96.48"/>
</g>
<!-- avl_queue&#45;&gt;table -->
<g id="edge53" class="edge">
<title>avl_queue&#45;&gt;table</title>
<path fill="none" stroke="black" d="M156.24,-431.58C157.75,-412.3 162.68,-381.16 178.63,-360 192.37,-341.76 214.38,-328.63 233.2,-320.01"/>
<polygon fill="black" stroke="black" points="234.34,-323.33 242.14,-316.16 231.57,-316.9 234.34,-323.33"/>
</g>
<!-- table_with_length -->
<g id="node31" class="node">
<title>table_with_length</title>
<ellipse fill="none" stroke="black" cx="373.63" cy="-378" rx="77.45" ry="18"/>
<text text-anchor="middle" x="373.63" y="-372.95" font-family="Times,serif" font-size="14.00">table_with_length</text>
</g>
<!-- avl_queue&#45;&gt;table_with_length -->
<g id="edge54" class="edge">
<title>avl_queue&#45;&gt;table_with_length</title>
<path fill="none" stroke="black" d="M191.62,-437.44C226.22,-426.33 278.98,-409.39 318.81,-396.6"/>
<polygon fill="black" stroke="black" points="319.78,-399.97 328.23,-393.58 317.64,-393.3 319.78,-399.97"/>
</g>
<!-- tablist&#45;&gt;option -->
<g id="edge55" class="edge">
<title>tablist&#45;&gt;option</title>
<path fill="none" stroke="black" d="M552.89,-578.45C526.15,-554.76 478.63,-505.05 478.63,-451 478.63,-451 478.63,-451 478.63,-233 478.63,-159.41 571.2,-119.37 627.11,-101.9"/>
<polygon fill="black" stroke="black" points="628.07,-105.26 636.65,-99.04 626.07,-98.55 628.07,-105.26"/>
</g>
<!-- tablist&#45;&gt;table_with_length -->
<g id="edge56" class="edge">
<title>tablist&#45;&gt;table_with_length</title>
<path fill="none" stroke="black" d="M542.2,-584.03C519.11,-575.61 486.85,-561.12 464.63,-540 424.41,-501.78 397.02,-441.8 383.47,-406.85"/>
<polygon fill="black" stroke="black" points="386.89,-405.99 380.09,-397.86 380.33,-408.45 386.89,-405.99"/>
</g>
<!-- resource_account&#45;&gt;account -->
<g id="edge58" class="edge">
<title>resource_account&#45;&gt;account</title>
<path fill="none" stroke="black" d="M1570.77,-504.59C1585.25,-494.75 1603.79,-482.15 1619.25,-471.64"/>
<polygon fill="black" stroke="black" points="1620.87,-474.78 1627.17,-466.26 1616.93,-468.99 1620.87,-474.78"/>
</g>
<!-- resource_account&#45;&gt;bcs -->
<g id="edge57" class="edge">
<title>resource_account&#45;&gt;bcs</title>
<path fill="none" stroke="black" d="M1476.62,-515.06C1394.85,-503.83 1270.63,-471.55 1270.63,-379 1270.63,-379 1270.63,-379 1270.63,-305 1270.63,-262.73 1289.95,-216.93 1304.08,-189.1"/>
<polygon fill="black" stroke="black" points="1307.12,-190.84 1308.67,-180.36 1300.92,-187.58 1307.12,-190.84"/>
</g>
<!-- timestamp -->
<g id="node32" class="node">
<title>timestamp</title>
<ellipse fill="none" stroke="black" cx="1539.63" cy="-378" rx="50.33" ry="18"/>
<text text-anchor="middle" x="1539.63" y="-372.95" font-family="Times,serif" font-size="14.00">timestamp</text>
</g>
<!-- resource_account&#45;&gt;timestamp -->
<g id="edge59" class="edge">
<title>resource_account&#45;&gt;timestamp</title>
<path fill="none" stroke="black" d="M1545.77,-503.59C1544.59,-479.61 1542.44,-436.14 1541.03,-407.42"/>
<polygon fill="black" stroke="black" points="1544.53,-407.44 1540.54,-397.62 1537.54,-407.78 1544.53,-407.44"/>
</g>
<!-- incentives&#45;&gt;signer -->
<g id="edge61" class="edge">
<title>incentives&#45;&gt;signer</title>
<path fill="none" stroke="black" d="M2393.57,-655.43C2491.14,-629.44 2733.63,-547.85 2733.63,-379 2733.63,-379 2733.63,-379 2733.63,-233 2733.63,-191.95 2718.63,-146.43 2707.47,-118.26"/>
<polygon fill="black" stroke="black" points="2710.74,-116.99 2703.71,-109.06 2704.26,-119.64 2710.74,-116.99"/>
</g>
<!-- incentives&#45;&gt;type_info -->
<g id="edge62" class="edge">
<title>incentives&#45;&gt;type_info</title>
<path fill="none" stroke="black" d="M2356.7,-647.61C2366.05,-588.56 2387.99,-393.58 2291.63,-288 2271.69,-266.16 2195.6,-250.77 2142.22,-242.39"/>
<polygon fill="black" stroke="black" points="2142.77,-238.94 2132.36,-240.89 2141.72,-245.86 2142.77,-238.94"/>
</g>
<!-- incentives&#45;&gt;coin -->
<g id="edge63" class="edge">
<title>incentives&#45;&gt;coin</title>
<path fill="none" stroke="black" d="M2307.69,-659.78C2108.94,-637.18 1324.82,-548.03 1142.6,-527.32"/>
<polygon fill="black" stroke="black" points="1143.08,-523.85 1132.75,-526.2 1142.29,-530.8 1143.08,-523.85"/>
</g>
<!-- incentives&#45;&gt;tablist -->
<g id="edge65" class="edge">
<title>incentives&#45;&gt;tablist</title>
<path fill="none" stroke="black" d="M2305.47,-663.11C2050.7,-653.11 862.29,-606.45 615.55,-596.76"/>
<polygon fill="black" stroke="black" points="615.84,-593.27 605.71,-596.38 615.57,-600.27 615.84,-593.27"/>
</g>
<!-- incentives&#45;&gt;resource_account -->
<g id="edge66" class="edge">
<title>incentives&#45;&gt;resource_account</title>
<path fill="none" stroke="black" d="M2326.84,-650.71C2287.18,-630.29 2209.95,-593.33 2139.63,-576 1963.59,-532.62 1750.38,-523.8 1633.59,-522.55"/>
<polygon fill="black" stroke="black" points="1633.79,-519.05 1623.76,-522.46 1633.73,-526.05 1633.79,-519.05"/>
</g>
<!-- incentives&#45;&gt;vector -->
<g id="edge60" class="edge">
<title>incentives&#45;&gt;vector</title>
<path fill="none" stroke="black" d="M2398.35,-658.86C2532.72,-637.67 2923.63,-554.74 2923.63,-307 2923.63,-307 2923.63,-307 2923.63,-161 2923.63,-101.5 2878.11,-95.91 2823.63,-72 2737.3,-34.12 2451.93,-22.94 2340.12,-19.98"/>
<polygon fill="black" stroke="black" points="2340.52,-16.49 2330.43,-19.73 2340.34,-23.48 2340.52,-16.49"/>
</g>
<!-- aptos_coin -->
<g id="node33" class="node">
<title>aptos_coin</title>
<ellipse fill="none" stroke="black" cx="2432.63" cy="-594" rx="50.84" ry="18"/>
<text text-anchor="middle" x="2432.63" y="-588.95" font-family="Times,serif" font-size="14.00">aptos_coin</text>
</g>
<!-- incentives&#45;&gt;aptos_coin -->
<g id="edge64" class="edge">
<title>incentives&#45;&gt;aptos_coin</title>
<path fill="none" stroke="black" d="M2371.55,-649.12C2381.78,-640.05 2394.8,-628.52 2406.18,-618.43"/>
<polygon fill="black" stroke="black" points="2408.2,-621.32 2413.36,-612.07 2403.56,-616.08 2408.2,-621.32"/>
</g>
<!-- registry&#45;&gt;option -->
<g id="edge67" class="edge">
<title>registry&#45;&gt;option</title>
<path fill="none" stroke="black" d="M1193.9,-727.62C1158.62,-717.38 1100.91,-700.28 1051.63,-684 805.54,-602.72 554.63,-638.17 554.63,-379 554.63,-379 554.63,-379 554.63,-233 554.63,-179.68 604.1,-134.99 637.86,-110.69"/>
<polygon fill="black" stroke="black" points="639.46,-113.84 645.67,-105.26 635.47,-108.1 639.46,-113.84"/>
</g>
<!-- registry&#45;&gt;string -->
<g id="edge68" class="edge">
<title>registry&#45;&gt;string</title>
<path fill="none" stroke="black" d="M1265.86,-736.78C1458.87,-735.51 2302.54,-727.5 2410.63,-684 2582.34,-614.89 2595.91,-464.34 2539.63,-288 2528.22,-252.27 2523.34,-241.27 2495.63,-216 2475.56,-197.7 2448.01,-184.32 2425.76,-175.58"/>
<polygon fill="black" stroke="black" points="2427.01,-172.31 2416.42,-172.08 2424.55,-178.86 2427.01,-172.31"/>
</g>
<!-- registry&#45;&gt;signer -->
<g id="edge69" class="edge">
<title>registry&#45;&gt;signer</title>
<path fill="none" stroke="black" d="M1265.99,-736.54C1463.54,-734.07 2342.03,-721.06 2457.63,-684 2642.89,-624.6 2771.63,-573.55 2771.63,-379 2771.63,-379 2771.63,-379 2771.63,-233 2771.63,-187.23 2740.55,-141.93 2718.14,-115.22"/>
<polygon fill="black" stroke="black" points="2720.83,-112.98 2711.63,-107.72 2715.54,-117.56 2720.83,-112.98"/>
</g>
<!-- registry&#45;&gt;type_info -->
<g id="edge70" class="edge">
<title>registry&#45;&gt;type_info</title>
<path fill="none" stroke="black" d="M1265.69,-735.27C1443.03,-726.93 2163.63,-687.34 2163.63,-595 2163.63,-595 2163.63,-595 2163.63,-377 2163.63,-331.73 2133.23,-286.92 2110.88,-260.1"/>
<polygon fill="black" stroke="black" points="2113.54,-257.83 2104.36,-252.54 2108.24,-262.4 2113.54,-257.83"/>
</g>
<!-- registry&#45;&gt;table -->
<g id="edge71" class="edge">
<title>registry&#45;&gt;table</title>
<path fill="none" stroke="black" d="M1187.33,-737.19C1077.44,-736.26 759.87,-723.41 528.63,-612 399.05,-549.57 356.09,-522.49 287.63,-396 277.56,-377.4 272.82,-353.91 270.6,-335.73"/>
<polygon fill="black" stroke="black" points="274.09,-335.49 269.6,-325.9 267.13,-336.2 274.09,-335.49"/>
</g>
<!-- registry&#45;&gt;event -->
<g id="edge72" class="edge">
<title>registry&#45;&gt;event</title>
<path fill="none" stroke="black" d="M1200,-724.52C1129.05,-690.44 931.66,-590.11 796.63,-468 775.85,-449.21 756.72,-423.58 743.9,-404.65"/>
<polygon fill="black" stroke="black" points="746.9,-402.84 738.46,-396.43 741.06,-406.7 746.9,-402.84"/>
</g>
<!-- registry&#45;&gt;account -->
<g id="edge73" class="edge">
<title>registry&#45;&gt;account</title>
<path fill="none" stroke="black" d="M1262.66,-730.43C1342.46,-713.9 1534.6,-662.78 1630.63,-540 1644.02,-522.87 1648.51,-498.43 1649.79,-479.5"/>
<polygon fill="black" stroke="black" points="1653.28,-479.9 1650.17,-469.77 1646.28,-479.62 1653.28,-479.9"/>
</g>
<!-- registry&#45;&gt;coin -->
<g id="edge74" class="edge">
<title>registry&#45;&gt;coin</title>
<path fill="none" stroke="black" d="M1217.05,-720.21C1195.84,-682.99 1144.74,-593.36 1119.39,-548.9"/>
<polygon fill="black" stroke="black" points="1122.56,-547.4 1114.57,-540.44 1116.48,-550.86 1122.56,-547.4"/>
</g>
<!-- registry&#45;&gt;tablist -->
<g id="edge75" class="edge">
<title>registry&#45;&gt;tablist</title>
<path fill="none" stroke="black" d="M1191.01,-730.31C1139.6,-720.58 1041.65,-701.73 958.63,-684 831.86,-656.93 682.57,-621.75 611.81,-604.88"/>
<polygon fill="black" stroke="black" points="612.75,-601.51 602.21,-602.59 611.13,-608.31 612.75,-601.51"/>
</g>
<!-- registry&#45;&gt;incentives -->
<g id="edge76" class="edge">
<title>registry&#45;&gt;incentives</title>
<path fill="none" stroke="black" d="M1265.61,-735.4C1395.3,-729.94 1823.95,-710.92 2177.63,-684 2217.36,-680.97 2262.06,-676.65 2296.47,-673.11"/>
<polygon fill="black" stroke="black" points="2296.63,-676.62 2306.21,-672.11 2295.91,-669.65 2296.63,-676.62"/>
</g>
<!-- user&#45;&gt;option -->
<g id="edge78" class="edge">
<title>user&#45;&gt;option</title>
<path fill="none" stroke="black" d="M814.92,-807.02C679.87,-795.45 78.63,-724.54 78.63,-379 78.63,-379 78.63,-379 78.63,-233 78.63,-179.21 112.55,-168.12 160.63,-144 241.11,-103.61 513.63,-93.95 622.82,-91.68"/>
<polygon fill="black" stroke="black" points="622.65,-95.18 632.58,-91.49 622.51,-88.19 622.65,-95.18"/>
</g>
<!-- user&#45;&gt;string -->
<g id="edge79" class="edge">
<title>user&#45;&gt;string</title>
<path fill="none" stroke="black" d="M868.75,-807.93C1068.24,-799.94 2305.02,-748.03 2457.63,-684 2599.16,-624.61 2619.63,-532.49 2619.63,-379 2619.63,-379 2619.63,-379 2619.63,-305 2619.63,-216.83 2496.23,-181.74 2429.43,-169.2"/>
<polygon fill="black" stroke="black" points="2430.38,-165.82 2419.92,-167.51 2429.16,-172.71 2430.38,-165.82"/>
</g>
<!-- user&#45;&gt;signer -->
<g id="edge80" class="edge">
<title>user&#45;&gt;signer</title>
<path fill="none" stroke="black" d="M868.87,-808.96C1001.02,-808.52 1588.45,-803.86 2066.63,-756 2271.22,-735.52 2326.85,-743.65 2523.63,-684 2701.46,-630.09 2809.63,-564.83 2809.63,-379 2809.63,-379 2809.63,-379 2809.63,-233 2809.63,-179.54 2759.88,-134.75 2726.11,-110.5"/>
<polygon fill="black" stroke="black" points="2728.52,-107.91 2718.31,-105.08 2724.53,-113.66 2728.52,-107.91"/>
</g>
<!-- user&#45;&gt;type_info -->
<g id="edge81" class="edge">
<title>user&#45;&gt;type_info</title>
<path fill="none" stroke="black" d="M868.8,-808.66C996.84,-806.52 1552.06,-791.21 1990.63,-684 2076.33,-663.05 2124.81,-684.13 2175.63,-612 2258.7,-494.08 2238.05,-407.07 2156.63,-288 2147.95,-275.31 2135.26,-264.33 2123.13,-255.71"/>
<polygon fill="black" stroke="black" points="2125.11,-252.83 2114.86,-250.16 2121.21,-258.64 2125.11,-252.83"/>
</g>
<!-- user&#45;&gt;table -->
<g id="edge82" class="edge">
<title>user&#45;&gt;table</title>
<path fill="none" stroke="black" d="M814.78,-806.51C771.81,-801.67 685.78,-788.48 620.63,-756 485.56,-688.68 462.37,-649.6 358.63,-540 307.22,-485.7 289.21,-468.68 271.63,-396 266.84,-376.22 266.18,-353.25 266.67,-335.6"/>
<polygon fill="black" stroke="black" points="270.16,-335.99 267.09,-325.85 263.17,-335.69 270.16,-335.99"/>
</g>
<!-- user&#45;&gt;guid -->
<g id="edge83" class="edge">
<title>user&#45;&gt;guid</title>
<path fill="none" stroke="black" d="M817.21,-801.68C769.52,-785.72 668.63,-742.96 668.63,-667 668.63,-667 668.63,-667 668.63,-449 668.63,-408.55 671.27,-396.99 687.63,-360 692.2,-349.66 698.99,-339.32 705.56,-330.55"/>
<polygon fill="black" stroke="black" points="708.14,-332.95 711.57,-322.92 702.64,-328.62 708.14,-332.95"/>
</g>
<!-- user&#45;&gt;event -->
<g id="edge84" class="edge">
<title>user&#45;&gt;event</title>
<path fill="none" stroke="black" d="M824.28,-795.78C796.38,-772.86 744.63,-722.83 744.63,-667 744.63,-667 744.63,-667 744.63,-521 744.63,-481.24 737.97,-435.67 732.99,-407.1"/>
<polygon fill="black" stroke="black" points="736.47,-406.68 731.25,-397.46 729.58,-407.92 736.47,-406.68"/>
</g>
<!-- user&#45;&gt;account -->
<g id="edge85" class="edge">
<title>user&#45;&gt;account</title>
<path fill="none" stroke="black" d="M867.11,-803.42C942.57,-786.15 1159.63,-730.94 1159.63,-667 1159.63,-667 1159.63,-667 1159.63,-593 1159.63,-502.07 1474.88,-465.65 1599.65,-454.8"/>
<polygon fill="black" stroke="black" points="1599.59,-458.32 1609.26,-453.98 1599,-451.34 1599.59,-458.32"/>
</g>
<!-- user&#45;&gt;coin -->
<g id="edge86" class="edge">
<title>user&#45;&gt;coin</title>
<path fill="none" stroke="black" d="M838.9,-791.62C833.26,-748.74 825.19,-637 882.63,-576 907.41,-549.67 1009.7,-533.95 1066.38,-527.09"/>
<polygon fill="black" stroke="black" points="1066.71,-530.57 1076.23,-525.93 1065.9,-523.62 1066.71,-530.57"/>
</g>
<!-- user&#45;&gt;tablist -->
<g id="edge87" class="edge">
<title>user&#45;&gt;tablist</title>
<path fill="none" stroke="black" d="M814.42,-807.9C775.05,-804.96 701.74,-794.34 654.63,-756 611.93,-721.26 588.4,-659.01 577.75,-622.94"/>
<polygon fill="black" stroke="black" points="581.22,-622.36 575.15,-613.68 574.48,-624.25 581.22,-622.36"/>
</g>
<!-- user&#45;&gt;registry -->
<g id="edge88" class="edge">
<title>user&#45;&gt;registry</title>
<path fill="none" stroke="black" d="M868.15,-806.16C924.78,-799.78 1061.5,-782.77 1173.63,-756 1177.41,-755.1 1181.31,-754.06 1185.2,-752.95"/>
<polygon fill="black" stroke="black" points="1186.01,-756.36 1194.57,-750.13 1183.99,-749.66 1186.01,-756.36"/>
</g>
<!-- user&#45;&gt;vector -->
<g id="edge77" class="edge">
<title>user&#45;&gt;vector</title>
<path fill="none" stroke="black" d="M814.39,-808.63C744.68,-807.06 554.69,-798.85 403.63,-756 330.16,-735.16 312.25,-724.68 247.63,-684 36.73,-551.23 -102.68,-293.61 96.63,-144 286.39,-1.55 389.17,-91.79 625.63,-72 1267.96,-18.23 2053.53,-17.88 2248.98,-18.72"/>
<polygon fill="black" stroke="black" points="2248.94,-22.22 2258.96,-18.77 2248.97,-15.22 2248.94,-22.22"/>
</g>
<!-- features&#45;&gt;signer -->
<g id="edge89" class="edge">
<title>features&#45;&gt;signer</title>
<path fill="none" stroke="black" d="M1922.79,-157.62C2058.52,-145.92 2508.29,-107.15 2651.45,-94.81"/>
<polygon fill="black" stroke="black" points="2651.61,-98.31 2661.28,-93.96 2651.01,-91.33 2651.61,-98.31"/>
</g>
<!-- features&#45;&gt;error -->
<g id="edge90" class="edge">
<title>features&#45;&gt;error</title>
<path fill="none" stroke="black" d="M1847.9,-153.38C1785.69,-140.1 1658.01,-112.85 1594,-99.19"/>
<polygon fill="black" stroke="black" points="1594.8,-95.78 1584.29,-97.12 1593.34,-102.63 1594.8,-95.78"/>
</g>
<!-- system_addresses&#45;&gt;signer -->
<g id="edge91" class="edge">
<title>system_addresses&#45;&gt;signer</title>
<path fill="none" stroke="black" d="M1888.08,-288.12C1855.31,-256.34 1794.25,-186.94 1834.63,-144 1862.82,-114.02 2477.52,-96.45 2650.62,-92.08"/>
<polygon fill="black" stroke="black" points="2650.65,-95.58 2660.56,-91.83 2650.48,-88.58 2650.65,-95.58"/>
</g>
<!-- system_addresses&#45;&gt;error -->
<g id="edge92" class="edge">
<title>system_addresses&#45;&gt;error</title>
<path fill="none" stroke="black" d="M1844.43,-295.06C1814.55,-287.55 1780.03,-274.51 1755.63,-252 1717.02,-216.39 1746.27,-179.57 1707.63,-144 1676.45,-115.3 1628.88,-102.01 1595.28,-95.93"/>
<polygon fill="black" stroke="black" points="1595.95,-92.5 1585.52,-94.32 1594.81,-99.41 1595.95,-92.5"/>
</g>
<!-- ed25519&#45;&gt;option -->
<g id="edge93" class="edge">
<title>ed25519&#45;&gt;option</title>
<path fill="none" stroke="black" d="M1537.24,-288.21C1517.05,-253.94 1465.8,-176.45 1398.63,-144 1337.15,-114.31 864.46,-97.12 714.28,-92.36"/>
<polygon fill="black" stroke="black" points="714.82,-88.88 704.72,-92.06 714.61,-95.88 714.82,-88.88"/>
</g>
<!-- ed25519&#45;&gt;type_info -->
<g id="edge96" class="edge">
<title>ed25519&#45;&gt;type_info</title>
<path fill="none" stroke="black" d="M1586.85,-299.8C1682.54,-287.41 1923.86,-256.19 2032.78,-242.1"/>
<polygon fill="black" stroke="black" points="2033.18,-245.57 2042.65,-240.82 2032.28,-238.63 2033.18,-245.57"/>
</g>
<!-- ed25519&#45;&gt;error -->
<g id="edge94" class="edge">
<title>ed25519&#45;&gt;error</title>
<path fill="none" stroke="black" d="M1548.12,-287.83C1548.97,-277.46 1549.99,-263.98 1550.63,-252 1553.09,-205.7 1554.46,-151.83 1555.12,-119.62"/>
<polygon fill="black" stroke="black" points="1558.61,-119.98 1555.31,-109.92 1551.61,-119.85 1558.61,-119.98"/>
</g>
<!-- ed25519&#45;&gt;bcs -->
<g id="edge95" class="edge">
<title>ed25519&#45;&gt;bcs</title>
<path fill="none" stroke="black" d="M1523.51,-290.6C1481.62,-264.51 1393.27,-209.49 1347.49,-180.98"/>
<polygon fill="black" stroke="black" points="1349.5,-178.1 1339.16,-175.79 1345.8,-184.05 1349.5,-178.1"/>
</g>
<!-- ed25519&#45;&gt;hash -->
<g id="edge97" class="edge">
<title>ed25519&#45;&gt;hash</title>
<path fill="none" stroke="black" d="M1565.27,-289.46C1577.01,-279.68 1592.33,-266.91 1605.19,-256.2"/>
<polygon fill="black" stroke="black" points="1607.42,-258.89 1612.86,-249.8 1602.94,-253.51 1607.42,-258.89"/>
</g>
<!-- multi_ed25519&#45;&gt;option -->
<g id="edge98" class="edge">
<title>multi_ed25519&#45;&gt;option</title>
<path fill="none" stroke="black" d="M1406.15,-359.6C1411.42,-315.68 1418.32,-199.9 1354.63,-144 1306.66,-101.9 860.69,-93.16 714.67,-91.41"/>
<polygon fill="black" stroke="black" points="715.03,-87.92 704.99,-91.31 714.95,-94.92 715.03,-87.92"/>
</g>
<!-- multi_ed25519&#45;&gt;error -->
<g id="edge99" class="edge">
<title>multi_ed25519&#45;&gt;error</title>
<path fill="none" stroke="black" d="M1411.01,-359.87C1428.12,-320.68 1472.59,-221.86 1518.63,-144 1524.19,-134.6 1530.87,-124.68 1537.02,-116"/>
<polygon fill="black" stroke="black" points="1539.74,-118.2 1542.75,-108.05 1534.06,-114.11 1539.74,-118.2"/>
</g>
<!-- multi_ed25519&#45;&gt;features -->
<g id="edge100" class="edge">
<title>multi_ed25519&#45;&gt;features</title>
<path fill="none" stroke="black" d="M1454.11,-365.73C1514.08,-352.2 1608.04,-330.51 1623.63,-324 1713.97,-286.29 1809.05,-219.38 1855.18,-184.9"/>
<polygon fill="black" stroke="black" points="1857.17,-187.78 1863.05,-178.96 1852.96,-182.19 1857.17,-187.78"/>
</g>
<!-- multi_ed25519&#45;&gt;bcs -->
<g id="edge101" class="edge">
<title>multi_ed25519&#45;&gt;bcs</title>
<path fill="none" stroke="black" d="M1391.51,-359.94C1384.72,-349.83 1376.47,-336.58 1370.63,-324 1349.81,-279.15 1333.88,-223.68 1325.42,-190.94"/>
<polygon fill="black" stroke="black" points="1328.86,-190.27 1323.01,-181.43 1322.07,-191.98 1328.86,-190.27"/>
</g>
<!-- multi_ed25519&#45;&gt;hash -->
<g id="edge102" class="edge">
<title>multi_ed25519&#45;&gt;hash</title>
<path fill="none" stroke="black" d="M1454.04,-365.84C1508.16,-353.46 1587.86,-333.94 1598.63,-324 1615.51,-308.41 1623.5,-283.27 1627.27,-263.68"/>
<polygon fill="black" stroke="black" points="1630.72,-264.25 1628.87,-253.82 1623.81,-263.13 1630.72,-264.25"/>
</g>
<!-- multi_ed25519&#45;&gt;ed25519 -->
<g id="edge103" class="edge">
<title>multi_ed25519&#45;&gt;ed25519</title>
<path fill="none" stroke="black" d="M1435.01,-361.64C1456.97,-350.89 1486.39,-336.49 1509.52,-325.17"/>
<polygon fill="black" stroke="black" points="1510.84,-328.41 1518.29,-320.87 1507.77,-322.12 1510.84,-328.41"/>
</g>
<!-- from_bcs&#45;&gt;string -->
<g id="edge104" class="edge">
<title>from_bcs&#45;&gt;string</title>
<path fill="none" stroke="black" d="M2330.42,-217.12C2340.24,-207.82 2352.81,-195.93 2363.66,-185.67"/>
<polygon fill="black" stroke="black" points="2365.95,-188.32 2370.81,-178.9 2361.14,-183.23 2365.95,-188.32"/>
</g>
<!-- chain_id&#45;&gt;system_addresses -->
<g id="edge105" class="edge">
<title>chain_id&#45;&gt;system_addresses</title>
<path fill="none" stroke="black" d="M1932.4,-360.05C1928.65,-352.35 1924.12,-343.03 1919.92,-334.36"/>
<polygon fill="black" stroke="black" points="1923.2,-333.1 1915.68,-325.64 1916.9,-336.16 1923.2,-333.1"/>
</g>
<!-- aggregator_factory&#45;&gt;table -->
<g id="edge107" class="edge">
<title>aggregator_factory&#45;&gt;table</title>
<path fill="none" stroke="black" d="M1048.5,-370.85C873.27,-356.5 442.26,-321.22 308.73,-310.28"/>
<polygon fill="black" stroke="black" points="309.22,-306.81 298.97,-309.48 308.65,-313.79 309.22,-306.81"/>
</g>
<!-- aggregator_factory&#45;&gt;error -->
<g id="edge106" class="edge">
<title>aggregator_factory&#45;&gt;error</title>
<path fill="none" stroke="black" d="M1129.93,-359.83C1147,-315.96 1198.55,-199.31 1282.63,-144 1320.49,-119.09 1449.63,-102.21 1515.81,-94.98"/>
<polygon fill="black" stroke="black" points="1515.94,-98.49 1525.51,-93.95 1515.2,-91.53 1515.94,-98.49"/>
</g>
<!-- aggregator_factory&#45;&gt;system_addresses -->
<g id="edge108" class="edge">
<title>aggregator_factory&#45;&gt;system_addresses</title>
<path fill="none" stroke="black" d="M1197.64,-370.38C1344.45,-357.26 1671.53,-328.02 1824.63,-314.33"/>
<polygon fill="black" stroke="black" points="1824.63,-317.84 1834.28,-313.47 1824.01,-310.87 1824.63,-317.84"/>
</g>
<!-- aggregator_factory&#45;&gt;aggregator -->
<g id="edge109" class="edge">
<title>aggregator_factory&#45;&gt;aggregator</title>
<path fill="none" stroke="black" d="M1090.72,-361.12C1069.08,-350.67 1040.65,-336.94 1017.84,-325.93"/>
<polygon fill="black" stroke="black" points="1019.36,-322.78 1008.84,-321.58 1016.32,-329.08 1019.36,-322.78"/>
</g>
<!-- optional_aggregator&#45;&gt;option -->
<g id="edge110" class="edge">
<title>optional_aggregator&#45;&gt;option</title>
<path fill="none" stroke="black" d="M939.67,-433.03C922.78,-423.66 902.35,-410.76 886.63,-396 792.79,-307.9 713.84,-173.91 682.77,-117.5"/>
<polygon fill="black" stroke="black" points="685.96,-116.03 678.1,-108.92 679.81,-119.38 685.96,-116.03"/>
</g>
<!-- optional_aggregator&#45;&gt;error -->
<g id="edge111" class="edge">
<title>optional_aggregator&#45;&gt;error</title>
<path fill="none" stroke="black" d="M957.4,-432.25C933.14,-401.57 889.25,-335.17 919.63,-288 1003.42,-157.91 1088.59,-189.07 1236.63,-144 1334.31,-114.26 1454.2,-100.03 1515.45,-94.28"/>
<polygon fill="black" stroke="black" points="1515.74,-97.77 1525.38,-93.38 1515.11,-90.79 1515.74,-97.77"/>
</g>
<!-- optional_aggregator&#45;&gt;aggregator -->
<g id="edge112" class="edge">
<title>optional_aggregator&#45;&gt;aggregator</title>
<path fill="none" stroke="black" d="M967.32,-431.55C963.47,-413.56 958.97,-384.74 962.63,-360 963.87,-351.6 966.16,-342.68 968.62,-334.61"/>
<polygon fill="black" stroke="black" points="971.87,-335.93 971.67,-325.33 965.22,-333.74 971.87,-335.93"/>
</g>
<!-- optional_aggregator&#45;&gt;aggregator_factory -->
<g id="edge113" class="edge">
<title>optional_aggregator&#45;&gt;aggregator_factory</title>
<path fill="none" stroke="black" d="M1006.12,-433.12C1027.76,-423.15 1055.89,-410.19 1079.2,-399.46"/>
<polygon fill="black" stroke="black" points="1080.54,-402.7 1088.16,-395.33 1077.61,-396.34 1080.54,-402.7"/>
</g>
<!-- table_with_length&#45;&gt;table -->
<g id="edge115" class="edge">
<title>table_with_length&#45;&gt;table</title>
<path fill="none" stroke="black" d="M349.01,-360.59C333.55,-350.28 313.54,-336.94 297.36,-326.15"/>
<polygon fill="black" stroke="black" points="299.37,-323.29 289.11,-320.65 295.49,-329.11 299.37,-323.29"/>
</g>
<!-- table_with_length&#45;&gt;error -->
<g id="edge114" class="edge">
<title>table_with_length&#45;&gt;error</title>
<path fill="none" stroke="black" d="M393.85,-360.34C449.54,-315.59 611.48,-192.85 769.63,-144 911.04,-100.32 1375.19,-92.61 1515.25,-91.28"/>
<polygon fill="black" stroke="black" points="1515.18,-94.78 1525.14,-91.19 1515.11,-87.78 1515.18,-94.78"/>
</g>
<!-- timestamp&#45;&gt;error -->
<g id="edge116" class="edge">
<title>timestamp&#45;&gt;error</title>
<path fill="none" stroke="black" d="M1520.65,-360.92C1510.85,-351.34 1499.87,-338.28 1494.63,-324 1489.11,-308.98 1492.23,-303.82 1494.63,-288 1504.07,-225.6 1529.42,-155.74 1544.31,-118.27"/>
<polygon fill="black" stroke="black" points="1547.5,-119.71 1547.99,-109.13 1541.01,-117.09 1547.5,-119.71"/>
</g>
<!-- timestamp&#45;&gt;system_addresses -->
<g id="edge117" class="edge">
<title>timestamp&#45;&gt;system_addresses</title>
<path fill="none" stroke="black" d="M1583.17,-368.7C1645.93,-356.72 1762.46,-334.5 1837.18,-320.25"/>
<polygon fill="black" stroke="black" points="1837.69,-323.71 1846.86,-318.4 1836.38,-316.84 1837.69,-323.71"/>
</g>
<!-- aptos_coin&#45;&gt;option -->
<g id="edge119" class="edge">
<title>aptos_coin&#45;&gt;option</title>
<path fill="none" stroke="black" d="M2381.75,-592.12C2166.57,-588.24 1330.24,-571.41 1068.63,-540 846.89,-513.38 592.63,-602.33 592.63,-379 592.63,-379 592.63,-379 592.63,-233 592.63,-187.23 623.7,-141.93 646.11,-115.22"/>
<polygon fill="black" stroke="black" points="648.71,-117.56 652.62,-107.72 643.42,-112.98 648.71,-117.56"/>
</g>
<!-- aptos_coin&#45;&gt;string -->
<g id="edge120" class="edge">
<title>aptos_coin&#45;&gt;string</title>
<path fill="none" stroke="black" d="M2445.19,-576.29C2478.75,-529.45 2565,-393.46 2519.63,-288 2499.22,-240.58 2451,-202.72 2418.84,-181.57"/>
<polygon fill="black" stroke="black" points="2421.01,-178.8 2410.7,-176.36 2417.24,-184.7 2421.01,-178.8"/>
</g>
<!-- aptos_coin&#45;&gt;signer -->
<g id="edge121" class="edge">
<title>aptos_coin&#45;&gt;signer</title>
<path fill="none" stroke="black" d="M2454.64,-577.42C2467.21,-567.71 2482.62,-554.36 2493.63,-540 2601.23,-399.62 2666.86,-192.81 2688.07,-118.69"/>
<polygon fill="black" stroke="black" points="2691.33,-120 2690.68,-109.42 2684.6,-118.1 2691.33,-120"/>
</g>
<!-- aptos_coin&#45;&gt;coin -->
<g id="edge124" class="edge">
<title>aptos_coin&#45;&gt;coin</title>
<path fill="none" stroke="black" d="M2382.59,-590.36C2168.61,-579.08 1332.75,-535.02 1143.06,-525.03"/>
<polygon fill="black" stroke="black" points="1143.44,-521.54 1133.27,-524.51 1143.07,-528.53 1143.44,-521.54"/>
</g>
<!-- aptos_coin&#45;&gt;vector -->
<g id="edge118" class="edge">
<title>aptos_coin&#45;&gt;vector</title>
<path fill="none" stroke="black" d="M2465.94,-580.18C2570.55,-538.89 2885.63,-406.29 2885.63,-307 2885.63,-307 2885.63,-307 2885.63,-161 2885.63,-48.85 2478.2,-25.04 2339.91,-20.19"/>
<polygon fill="black" stroke="black" points="2340.15,-16.7 2330.04,-19.86 2339.91,-23.69 2340.15,-16.7"/>
</g>
<!-- aptos_coin&#45;&gt;error -->
<g id="edge122" class="edge">
<title>aptos_coin&#45;&gt;error</title>
<path fill="none" stroke="black" d="M2435.79,-575.75C2445.6,-516.35 2469.15,-318.27 2368.63,-216 2259.34,-104.82 1745.09,-92.36 1596.14,-91.1"/>
<polygon fill="black" stroke="black" points="1596.4,-87.6 1586.37,-91.03 1596.35,-94.6 1596.4,-87.6"/>
</g>
<!-- aptos_coin&#45;&gt;system_addresses -->
<g id="edge123" class="edge">
<title>aptos_coin&#45;&gt;system_addresses</title>
<path fill="none" stroke="black" d="M2409.56,-577.55C2381.96,-559.26 2334.12,-528.24 2291.63,-504 2169.72,-434.48 2135.59,-423.86 2010.63,-360 1989.92,-349.42 1966.88,-337.67 1947.76,-327.94"/>
<polygon fill="black" stroke="black" points="1949.43,-324.86 1938.93,-323.44 1946.25,-331.1 1949.43,-324.86"/>
</g>
</g>
</svg>
