<?xml version="1.0" encoding="UTF-8" standalone="no"?>
<!DOCTYPE svg PUBLIC "-//W3C//DTD SVG 1.1//EN"
 "http://www.w3.org/Graphics/SVG/1.1/DTD/svg11.dtd">
<!-- Generated by graphviz version 7.1.0 (20230121.1956)
 -->
<!-- Title: G Pages: 1 -->
<svg width="101pt" height="188pt"
 viewBox="0.00 0.00 100.70 188.00" xmlns="http://www.w3.org/2000/svg" xmlns:xlink="http://www.w3.org/1999/xlink">
<g id="graph0" class="graph" transform="scale(1 1) rotate(0) translate(4 184)">
<title>G</title>
<polygon fill="white" stroke="none" points="-4,4 -4,-184 96.7,-184 96.7,4 -4,4"/>
<!-- registry -->
<g id="node1" class="node">
<title>registry</title>
<ellipse fill="none" stroke="black" cx="37.7" cy="-18" rx="37.89" ry="18"/>
<text text-anchor="middle" x="37.7" y="-14.3" font-family="Times,serif" font-size="14.00">registry</text>
</g>
<!-- user -->
<g id="node2" class="node">
<title>user</title>
<ellipse fill="none" stroke="black" cx="65.7" cy="-90" rx="27" ry="18"/>
<text text-anchor="middle" x="65.7" y="-86.3" font-family="Times,serif" font-size="14.00">user</text>
</g>
<!-- user&#45;&gt;registry -->
<g id="edge1" class="edge">
<title>user&#45;&gt;registry</title>
<path fill="none" stroke="black" d="M59.06,-72.41C55.97,-64.68 52.2,-55.27 48.7,-46.52"/>
<polygon fill="black" stroke="black" points="52,-45.35 45.04,-37.36 45.51,-47.95 52,-45.35"/>
</g>
<!-- market -->
<g id="node3" class="node">
<title>market</title>
<ellipse fill="none" stroke="black" cx="37.7" cy="-162" rx="36" ry="18"/>
<text text-anchor="middle" x="37.7" y="-158.3" font-family="Times,serif" font-size="14.00">market</text>
</g>
<!-- market&#45;&gt;registry -->
<g id="edge2" class="edge">
<title>market&#45;&gt;registry</title>
<path fill="none" stroke="black" d="M34.45,-143.89C32.65,-133.54 30.6,-120.06 29.7,-108 28.5,-92.04 28.5,-87.96 29.7,-72 30.3,-63.99 31.4,-55.35 32.6,-47.43"/>
<polygon fill="black" stroke="black" points="36.05,-48.04 34.2,-37.61 29.14,-46.91 36.05,-48.04"/>
</g>
<!-- market&#45;&gt;user -->
<g id="edge3" class="edge">
<title>market&#45;&gt;user</title>
<path fill="none" stroke="black" d="M44.47,-144.05C47.57,-136.32 51.31,-126.96 54.79,-118.27"/>
<polygon fill="black" stroke="black" points="57.95,-119.78 58.42,-109.19 51.46,-117.18 57.95,-119.78"/>
</g>
</g>
</svg>
