<?xml version="1.0" encoding="UTF-8" standalone="no"?>
<!DOCTYPE svg PUBLIC "-//W3C//DTD SVG 1.1//EN"
 "http://www.w3.org/Graphics/SVG/1.1/DTD/svg11.dtd">
<!-- Generated by graphviz version 8.0.2 (20230410.1723)
 -->
<!-- Title: G Pages: 1 -->
<svg width="101pt" height="188pt"
 viewBox="0.00 0.00 100.70 188.00" xmlns="http://www.w3.org/2000/svg" xmlns:xlink="http://www.w3.org/1999/xlink">
<g id="graph0" class="graph" transform="scale(1 1) rotate(0) translate(4 184)">
<title>G</title>
<polygon fill="white" stroke="none" points="-4,4 -4,-184 96.7,-184 96.7,4 -4,4"/>
<!-- registry -->
<g id="node1" class="node">
<title>registry</title>
<ellipse fill="none" stroke="black" cx="37.7" cy="-18" rx="37.89" ry="18"/>
<text text-anchor="middle" x="37.7" y="-14.3" font-family="Times,serif" font-size="14.00">registry</text>
</g>
<!-- user -->
<g id="node2" class="node">
<title>user</title>
<ellipse fill="none" stroke="black" cx="65.7" cy="-90" rx="27" ry="18"/>
<text text-anchor="middle" x="65.7" y="-86.3" font-family="Times,serif" font-size="14.00">user</text>
</g>
<!-- user&#45;&gt;registry -->
<g id="edge1" class="edge">
<title>user&#45;&gt;registry</title>
<path fill="none" stroke="black" d="M59.06,-72.41C55.9,-64.51 52.04,-54.85 48.47,-45.94"/>
<polygon fill="black" stroke="black" points="51.44,-44.94 44.48,-36.96 44.94,-47.54 51.44,-44.94"/>
</g>
<!-- market -->
<g id="node3" class="node">
<title>market</title>
<ellipse fill="none" stroke="black" cx="37.7" cy="-162" rx="36" ry="18"/>
<text text-anchor="middle" x="37.7" y="-158.3" font-family="Times,serif" font-size="14.00">market</text>
</g>
<!-- market&#45;&gt;registry -->
<g id="edge2" class="edge">
<title>market&#45;&gt;registry</title>
<path fill="none" stroke="black" d="M34.45,-143.89C32.65,-133.54 30.6,-120.06 29.7,-108 28.5,-92.04 28.5,-87.96 29.7,-72 30.31,-63.8 31.46,-54.95 32.69,-46.87"/>
<polygon fill="black" stroke="black" points="36.29,-47.55 34.45,-37.11 29.38,-46.42 36.29,-47.55"/>
</g>
<!-- market&#45;&gt;user -->
<g id="edge3" class="edge">
<title>market&#45;&gt;user</title>
<path fill="none" stroke="black" d="M44.47,-144.05C47.6,-136.23 51.4,-126.75 54.91,-117.98"/>
<polygon fill="black" stroke="black" points="58.52,-119.37 58.98,-108.79 52.02,-116.77 58.52,-119.37"/>
</g>
</g>
</svg>
