<?xml version="1.0" encoding="UTF-8" standalone="no"?>
<!DOCTYPE svg PUBLIC "-//W3C//DTD SVG 1.1//EN"
 "http://www.w3.org/Graphics/SVG/1.1/DTD/svg11.dtd">
<!-- Generated by graphviz version 9.0.0 (20230911.1827)
 -->
<!-- Title: G Pages: 1 -->
<svg width="102pt" height="188pt"
 viewBox="0.00 0.00 102.07 188.00" xmlns="http://www.w3.org/2000/svg" xmlns:xlink="http://www.w3.org/1999/xlink">
<g id="graph0" class="graph" transform="scale(1 1) rotate(0) translate(4 184)">
<title>G</title>
<polygon fill="white" stroke="none" points="-4,4 -4,-184 98.07,-184 98.07,4 -4,4"/>
<!-- registry -->
<g id="node1" class="node">
<title>registry</title>
<ellipse fill="none" stroke="black" cx="39.07" cy="-18" rx="39.07" ry="18"/>
<text text-anchor="middle" x="39.07" y="-12.95" font-family="Times,serif" font-size="14.00">registry</text>
</g>
<!-- user -->
<g id="node2" class="node">
<title>user</title>
<ellipse fill="none" stroke="black" cx="67.07" cy="-90" rx="27" ry="18"/>
<text text-anchor="middle" x="67.07" y="-84.95" font-family="Times,serif" font-size="14.00">user</text>
</g>
<!-- user&#45;&gt;registry -->
<g id="edge1" class="edge">
<title>user&#45;&gt;registry</title>
<path fill="none" stroke="black" d="M60.43,-72.41C57.34,-64.68 53.58,-55.27 50.08,-46.52"/>
<polygon fill="black" stroke="black" points="53.38,-45.35 46.41,-37.36 46.88,-47.95 53.38,-45.35"/>
</g>
<!-- market -->
<g id="node3" class="node">
<title>market</title>
<ellipse fill="none" stroke="black" cx="39.07" cy="-162" rx="37.02" ry="18"/>
<text text-anchor="middle" x="39.07" y="-156.95" font-family="Times,serif" font-size="14.00">market</text>
</g>
<!-- market&#45;&gt;registry -->
<g id="edge2" class="edge">
<title>market&#45;&gt;registry</title>
<path fill="none" stroke="black" d="M35.82,-143.89C34.02,-133.54 31.97,-120.06 31.07,-108 29.87,-92.04 29.87,-87.96 31.07,-72 31.67,-63.99 32.77,-55.35 33.98,-47.43"/>
<polygon fill="black" stroke="black" points="37.42,-48.04 35.58,-37.61 30.51,-46.91 37.42,-48.04"/>
</g>
<!-- market&#45;&gt;user -->
<g id="edge3" class="edge">
<title>market&#45;&gt;user</title>
<path fill="none" stroke="black" d="M45.85,-144.05C48.94,-136.32 52.69,-126.96 56.16,-118.27"/>
<polygon fill="black" stroke="black" points="59.33,-119.78 59.79,-109.19 52.83,-117.18 59.33,-119.78"/>
</g>
</g>
</svg>
