<?xml version="1.0" encoding="UTF-8" standalone="no"?>
<!DOCTYPE svg PUBLIC "-//W3C//DTD SVG 1.1//EN"
 "http://www.w3.org/Graphics/SVG/1.1/DTD/svg11.dtd">
<!-- Generated by graphviz version 7.1.0 (20230121.1956)
 -->
<!-- Title: G Pages: 1 -->
<svg width="2090pt" height="764pt"
 viewBox="0.00 0.00 2090.00 764.00" xmlns="http://www.w3.org/2000/svg" xmlns:xlink="http://www.w3.org/1999/xlink">
<g id="graph0" class="graph" transform="scale(1 1) rotate(0) translate(4 760)">
<title>G</title>
<polygon fill="white" stroke="none" points="-4,4 -4,-760 2086,-760 2086,4 -4,4"/>
<!-- registry -->
<g id="node1" class="node">
<title>registry</title>
<ellipse fill="none" stroke="black" cx="893" cy="-738" rx="37.89" ry="18"/>
<text text-anchor="middle" x="893" y="-734.3" font-family="Times,serif" font-size="14.00">registry</text>
</g>
<!-- option -->
<g id="node2" class="node">
<title>option</title>
<ellipse fill="none" stroke="black" cx="385" cy="-90" rx="33.29" ry="18"/>
<text text-anchor="middle" x="385" y="-86.3" font-family="Times,serif" font-size="14.00">option</text>
</g>
<!-- registry&#45;&gt;option -->
<g id="edge1" class="edge">
<title>registry&#45;&gt;option</title>
<path fill="none" stroke="black" d="M855.02,-736.03C782.69,-733.32 620.78,-723 491,-684 244.97,-610.06 0,-635.9 0,-379 0,-379 0,-379 0,-233 0,-178.3 36.78,-169.82 85,-144 167.35,-99.9 278.86,-91.43 340.11,-90.41"/>
<polygon fill="black" stroke="black" points="339.82,-93.91 349.78,-90.31 339.75,-86.91 339.82,-93.91"/>
</g>
<!-- string -->
<g id="node3" class="node">
<title>string</title>
<ellipse fill="none" stroke="black" cx="224" cy="-162" rx="30.59" ry="18"/>
<text text-anchor="middle" x="224" y="-158.3" font-family="Times,serif" font-size="14.00">string</text>
</g>
<!-- registry&#45;&gt;string -->
<g id="edge2" class="edge">
<title>registry&#45;&gt;string</title>
<path fill="none" stroke="black" d="M854.84,-736.11C690.84,-732.13 52.87,-714.69 24,-684 13.04,-672.35 22.47,-663.93 24,-648 35.61,-526.79 76,-500.77 76,-379 76,-379 76,-379 76,-305 76,-242.66 145.21,-199.18 188.98,-177.91"/>
<polygon fill="black" stroke="black" points="190.29,-181.16 197.86,-173.75 187.32,-174.82 190.29,-181.16"/>
</g>
<!-- signer -->
<g id="node4" class="node">
<title>signer</title>
<ellipse fill="none" stroke="black" cx="1892" cy="-90" rx="32.49" ry="18"/>
<text text-anchor="middle" x="1892" y="-86.3" font-family="Times,serif" font-size="14.00">signer</text>
</g>
<!-- registry&#45;&gt;signer -->
<g id="edge3" class="edge">
<title>registry&#45;&gt;signer</title>
<path fill="none" stroke="black" d="M930.99,-736.24C1126.06,-731.84 2006,-705.85 2006,-595 2006,-595 2006,-595 2006,-233 2006,-179.4 1955.99,-134.51 1922.22,-110.3"/>
<polygon fill="black" stroke="black" points="1924.63,-107.72 1914.42,-104.9 1920.64,-113.47 1924.63,-107.72"/>
</g>
<!-- type_info -->
<g id="node5" class="node">
<title>type_info</title>
<ellipse fill="none" stroke="black" cx="956" cy="-234" rx="44.39" ry="18"/>
<text text-anchor="middle" x="956" y="-230.3" font-family="Times,serif" font-size="14.00">type_info</text>
</g>
<!-- registry&#45;&gt;type_info -->
<g id="edge4" class="edge">
<title>registry&#45;&gt;type_info</title>
<path fill="none" stroke="black" d="M889.16,-719.61C883.6,-692.94 874,-640.27 874,-595 874,-595 874,-595 874,-521 874,-422.56 919.45,-312.18 942.67,-262.19"/>
<polygon fill="black" stroke="black" points="945.77,-263.83 946.89,-253.29 939.45,-260.83 945.77,-263.83"/>
</g>
<!-- table -->
<g id="node6" class="node">
<title>table</title>
<ellipse fill="none" stroke="black" cx="708" cy="-306" rx="27.9" ry="18"/>
<text text-anchor="middle" x="708" y="-302.3" font-family="Times,serif" font-size="14.00">table</text>
</g>
<!-- registry&#45;&gt;table -->
<g id="edge5" class="edge">
<title>registry&#45;&gt;table</title>
<path fill="none" stroke="black" d="M856.55,-732.72C758.12,-720.32 491.05,-680.81 442,-612 376.98,-520.78 365.79,-446.48 437,-360 465.89,-324.91 600.66,-312.73 668.61,-308.77"/>
<polygon fill="black" stroke="black" points="668.78,-312.26 678.58,-308.22 668.4,-305.27 668.78,-312.26"/>
</g>
<!-- event -->
<g id="node7" class="node">
<title>event</title>
<ellipse fill="none" stroke="black" cx="1530" cy="-378" rx="29.8" ry="18"/>
<text text-anchor="middle" x="1530" y="-374.3" font-family="Times,serif" font-size="14.00">event</text>
</g>
<!-- registry&#45;&gt;event -->
<g id="edge6" class="edge">
<title>registry&#45;&gt;event</title>
<path fill="none" stroke="black" d="M930.33,-734.09C1045.82,-724.31 1394.18,-688.88 1472,-612 1527.91,-556.77 1532.93,-456.53 1531.69,-407.52"/>
<polygon fill="black" stroke="black" points="1535.19,-407.6 1531.32,-397.73 1528.2,-407.86 1535.19,-407.6"/>
</g>
<!-- account -->
<g id="node8" class="node">
<title>account</title>
<ellipse fill="none" stroke="black" cx="1228" cy="-450" rx="38.19" ry="18"/>
<text text-anchor="middle" x="1228" y="-446.3" font-family="Times,serif" font-size="14.00">account</text>
</g>
<!-- registry&#45;&gt;account -->
<g id="edge7" class="edge">
<title>registry&#45;&gt;account</title>
<path fill="none" stroke="black" d="M910.54,-722.03C965.7,-674.93 1135.88,-529.65 1201.66,-473.48"/>
<polygon fill="black" stroke="black" points="1203.75,-476.31 1209.08,-467.15 1199.2,-470.98 1203.75,-476.31"/>
</g>
<!-- coin -->
<g id="node9" class="node">
<title>coin</title>
<ellipse fill="none" stroke="black" cx="929" cy="-522" rx="27" ry="18"/>
<text text-anchor="middle" x="929" y="-518.3" font-family="Times,serif" font-size="14.00">coin</text>
</g>
<!-- registry&#45;&gt;coin -->
<g id="edge8" class="edge">
<title>registry&#45;&gt;coin</title>
<path fill="none" stroke="black" d="M895.89,-719.85C902.06,-683.14 916.61,-596.66 924.2,-551.53"/>
<polygon fill="black" stroke="black" points="927.64,-552.17 925.85,-541.73 920.74,-551.01 927.64,-552.17"/>
</g>
<!-- tablist -->
<g id="node10" class="node">
<title>tablist</title>
<ellipse fill="none" stroke="black" cx="483" cy="-594" rx="32.49" ry="18"/>
<text text-anchor="middle" x="483" y="-590.3" font-family="Times,serif" font-size="14.00">tablist</text>
</g>
<!-- registry&#45;&gt;tablist -->
<g id="edge9" class="edge">
<title>registry&#45;&gt;tablist</title>
<path fill="none" stroke="black" d="M862.85,-726.56C789.46,-701.14 601.65,-636.09 520.87,-608.12"/>
<polygon fill="black" stroke="black" points="522.23,-604.88 511.64,-604.92 519.94,-611.5 522.23,-604.88"/>
</g>
<!-- incentives -->
<g id="node11" class="node">
<title>incentives</title>
<ellipse fill="none" stroke="black" cx="1112" cy="-666" rx="46.29" ry="18"/>
<text text-anchor="middle" x="1112" y="-662.3" font-family="Times,serif" font-size="14.00">incentives</text>
</g>
<!-- registry&#45;&gt;incentives -->
<g id="edge10" class="edge">
<title>registry&#45;&gt;incentives</title>
<path fill="none" stroke="black" d="M923.91,-727.12C960.93,-715.29 1023.27,-695.36 1065.96,-681.72"/>
<polygon fill="black" stroke="black" points="1067,-685.06 1075.46,-678.68 1064.87,-678.39 1067,-685.06"/>
</g>
<!-- vector -->
<g id="node12" class="node">
<title>vector</title>
<ellipse fill="none" stroke="black" cx="708" cy="-18" rx="32.49" ry="18"/>
<text text-anchor="middle" x="708" y="-14.3" font-family="Times,serif" font-size="14.00">vector</text>
</g>
<!-- option&#45;&gt;vector -->
<g id="edge11" class="edge">
<title>option&#45;&gt;vector</title>
<path fill="none" stroke="black" d="M415.68,-82.35C474.06,-69.7 601.16,-42.15 666.86,-27.92"/>
<polygon fill="black" stroke="black" points="667.49,-31.36 676.52,-25.82 666,-24.52 667.49,-31.36"/>
</g>
<!-- string&#45;&gt;option -->
<g id="edge13" class="edge">
<title>string&#45;&gt;option</title>
<path fill="none" stroke="black" d="M248.1,-150.52C274.94,-138.85 318.58,-119.88 349.36,-106.49"/>
<polygon fill="black" stroke="black" points="350.5,-109.81 358.28,-102.62 347.71,-103.39 350.5,-109.81"/>
</g>
<!-- string&#45;&gt;vector -->
<g id="edge12" class="edge">
<title>string&#45;&gt;vector</title>
<path fill="none" stroke="black" d="M238.95,-145.8C260.08,-125.34 300.82,-89.49 343,-72 452.11,-26.74 593.51,-19.19 664,-18.5"/>
<polygon fill="black" stroke="black" points="663.6,-22 673.58,-18.45 663.57,-15 663.6,-22"/>
</g>
<!-- type_info&#45;&gt;string -->
<g id="edge14" class="edge">
<title>type_info&#45;&gt;string</title>
<path fill="none" stroke="black" d="M912.94,-228.88C782.63,-216.42 393.57,-179.22 265.43,-166.96"/>
<polygon fill="black" stroke="black" points="266,-163.5 255.72,-166.03 265.34,-170.47 266,-163.5"/>
</g>
<!-- error -->
<g id="node13" class="node">
<title>error</title>
<ellipse fill="none" stroke="black" cx="1073" cy="-90" rx="27.9" ry="18"/>
<text text-anchor="middle" x="1073" y="-86.3" font-family="Times,serif" font-size="14.00">error</text>
</g>
<!-- type_info&#45;&gt;error -->
<g id="edge15" class="edge">
<title>type_info&#45;&gt;error</title>
<path fill="none" stroke="black" d="M959.95,-215.68C965.01,-196.49 975.32,-165.43 993,-144 1005.87,-128.4 1024.53,-115.67 1040.59,-106.61"/>
<polygon fill="black" stroke="black" points="1042.19,-109.72 1049.34,-101.9 1038.88,-103.55 1042.19,-109.72"/>
</g>
<!-- features -->
<g id="node14" class="node">
<title>features</title>
<ellipse fill="none" stroke="black" cx="1040" cy="-162" rx="38.19" ry="18"/>
<text text-anchor="middle" x="1040" y="-158.3" font-family="Times,serif" font-size="14.00">features</text>
</g>
<!-- type_info&#45;&gt;features -->
<g id="edge16" class="edge">
<title>type_info&#45;&gt;features</title>
<path fill="none" stroke="black" d="M974.64,-217.46C985.92,-208.07 1000.5,-195.92 1013.02,-185.48"/>
<polygon fill="black" stroke="black" points="1015.09,-188.31 1020.54,-179.22 1010.61,-182.93 1015.09,-188.31"/>
</g>
<!-- bcs -->
<g id="node15" class="node">
<title>bcs</title>
<ellipse fill="none" stroke="black" cx="1301" cy="-162" rx="27" ry="18"/>
<text text-anchor="middle" x="1301" y="-158.3" font-family="Times,serif" font-size="14.00">bcs</text>
</g>
<!-- type_info&#45;&gt;bcs -->
<g id="edge17" class="edge">
<title>type_info&#45;&gt;bcs</title>
<path fill="none" stroke="black" d="M995.24,-225.04C1062.55,-211.38 1199.07,-183.68 1264.47,-170.41"/>
<polygon fill="black" stroke="black" points="1264.86,-173.9 1273.97,-168.49 1263.47,-167.04 1264.86,-173.9"/>
</g>
<!-- event&#45;&gt;bcs -->
<g id="edge18" class="edge">
<title>event&#45;&gt;bcs</title>
<path fill="none" stroke="black" d="M1533.43,-359.93C1536.29,-340.97 1538.07,-310.12 1525,-288 1484.24,-219.03 1390.15,-185.27 1337.81,-171.29"/>
<polygon fill="black" stroke="black" points="1338.72,-167.91 1328.16,-168.82 1336.98,-174.69 1338.72,-167.91"/>
</g>
<!-- guid -->
<g id="node16" class="node">
<title>guid</title>
<ellipse fill="none" stroke="black" cx="1489" cy="-306" rx="27" ry="18"/>
<text text-anchor="middle" x="1489" y="-302.3" font-family="Times,serif" font-size="14.00">guid</text>
</g>
<!-- event&#45;&gt;guid -->
<g id="edge19" class="edge">
<title>event&#45;&gt;guid</title>
<path fill="none" stroke="black" d="M1520.49,-360.76C1515.63,-352.46 1509.59,-342.15 1504.11,-332.79"/>
<polygon fill="black" stroke="black" points="1507.3,-331.31 1499.22,-324.45 1501.26,-334.85 1507.3,-331.31"/>
</g>
<!-- account&#45;&gt;option -->
<g id="edge21" class="edge">
<title>account&#45;&gt;option</title>
<path fill="none" stroke="black" d="M1189.79,-447.75C1035.5,-442.51 465.25,-421.51 437,-396 396.38,-359.32 387.48,-187.8 385.54,-119.33"/>
<polygon fill="black" stroke="black" points="389.05,-119.59 385.3,-109.68 382.05,-119.76 389.05,-119.59"/>
</g>
<!-- account&#45;&gt;signer -->
<g id="edge22" class="edge">
<title>account&#45;&gt;signer</title>
<path fill="none" stroke="black" d="M1266.1,-447.38C1386.23,-442.01 1751.77,-423.54 1797,-396 1837.12,-371.57 1854,-353.97 1854,-307 1854,-307 1854,-307 1854,-233 1854,-191.95 1869,-146.43 1880.15,-118.26"/>
<polygon fill="black" stroke="black" points="1883.37,-119.64 1883.92,-109.06 1876.89,-116.99 1883.37,-119.64"/>
</g>
<!-- account&#45;&gt;type_info -->
<g id="edge25" class="edge">
<title>account&#45;&gt;type_info</title>
<path fill="none" stroke="black" d="M1205.36,-435.14C1188.69,-424.74 1165.61,-409.96 1146,-396 1103.71,-365.88 1093.69,-357.48 1054,-324 1028.56,-302.54 1000.54,-276.88 981,-258.64"/>
<polygon fill="black" stroke="black" points="983.45,-256.14 973.76,-251.85 978.67,-261.25 983.45,-256.14"/>
</g>
<!-- account&#45;&gt;table -->
<g id="edge26" class="edge">
<title>account&#45;&gt;table</title>
<path fill="none" stroke="black" d="M1192.2,-443.1C1142.07,-434.52 1048.33,-417.26 970,-396 886.99,-373.47 791.93,-338.92 742.28,-320.18"/>
<polygon fill="black" stroke="black" points="743.54,-316.92 732.95,-316.64 741.06,-323.46 743.54,-316.92"/>
</g>
<!-- account&#45;&gt;event -->
<g id="edge33" class="edge">
<title>account&#45;&gt;event</title>
<path fill="none" stroke="black" d="M1263.93,-443.56C1314.21,-435.51 1408.12,-418.87 1486,-396 1489.09,-395.09 1492.28,-394.06 1495.45,-392.97"/>
<polygon fill="black" stroke="black" points="1496.43,-396.33 1504.62,-389.61 1494.03,-389.76 1496.43,-396.33"/>
</g>
<!-- account&#45;&gt;vector -->
<g id="edge20" class="edge">
<title>account&#45;&gt;vector</title>
<path fill="none" stroke="black" d="M1196.61,-439.41C1168.53,-430.2 1126.71,-414.91 1093,-396 1000.6,-344.15 979.71,-325.09 903,-252 830.75,-183.16 758.79,-88.81 726.15,-44.26"/>
<polygon fill="black" stroke="black" points="729.04,-42.28 720.33,-36.26 723.38,-46.4 729.04,-42.28"/>
</g>
<!-- account&#45;&gt;error -->
<g id="edge23" class="edge">
<title>account&#45;&gt;error</title>
<path fill="none" stroke="black" d="M1256.13,-437.46C1288.16,-424.1 1336.86,-403.04 1343,-396 1416.68,-311.61 1417.03,-222.4 1337,-144 1305.58,-113.22 1177.68,-99.05 1112.13,-93.71"/>
<polygon fill="black" stroke="black" points="1112.79,-90.25 1102.54,-92.95 1112.24,-97.22 1112.79,-90.25"/>
</g>
<!-- account&#45;&gt;bcs -->
<g id="edge24" class="edge">
<title>account&#45;&gt;bcs</title>
<path fill="none" stroke="black" d="M1255.1,-436.8C1279.3,-425.32 1312.12,-408.14 1320,-396 1363.72,-328.67 1357.59,-293.03 1335,-216 1332.04,-205.9 1326.49,-195.89 1320.73,-187.35"/>
<polygon fill="black" stroke="black" points="1323.59,-185.33 1314.89,-179.29 1317.92,-189.44 1323.59,-185.33"/>
</g>
<!-- account&#45;&gt;guid -->
<g id="edge31" class="edge">
<title>account&#45;&gt;guid</title>
<path fill="none" stroke="black" d="M1264.66,-444.45C1303.28,-438.33 1364.67,-424.68 1410,-396 1435.84,-379.65 1458.21,-352.46 1472.48,-332.43"/>
<polygon fill="black" stroke="black" points="1475.34,-334.44 1478.14,-324.22 1469.58,-330.47 1475.34,-334.44"/>
</g>
<!-- system_addresses -->
<g id="node17" class="node">
<title>system_addresses</title>
<ellipse fill="none" stroke="black" cx="1645" cy="-306" rx="73.39" ry="18"/>
<text text-anchor="middle" x="1645" y="-302.3" font-family="Times,serif" font-size="14.00">system_addresses</text>
</g>
<!-- account&#45;&gt;system_addresses -->
<g id="edge27" class="edge">
<title>account&#45;&gt;system_addresses</title>
<path fill="none" stroke="black" d="M1265.78,-446.44C1343.32,-440.64 1517.47,-424.76 1569,-396 1594.95,-381.51 1616.06,-354.52 1629.39,-334.05"/>
<polygon fill="black" stroke="black" points="1632.33,-335.94 1634.66,-325.6 1626.4,-332.23 1632.33,-335.94"/>
</g>
<!-- hash -->
<g id="node18" class="node">
<title>hash</title>
<ellipse fill="none" stroke="black" cx="1299" cy="-234" rx="27" ry="18"/>
<text text-anchor="middle" x="1299" y="-230.3" font-family="Times,serif" font-size="14.00">hash</text>
</g>
<!-- account&#45;&gt;hash -->
<g id="edge28" class="edge">
<title>account&#45;&gt;hash</title>
<path fill="none" stroke="black" d="M1255.44,-437.1C1271.91,-428.34 1291.47,-414.7 1301,-396 1322.58,-353.67 1314.62,-296.58 1306.84,-262.99"/>
<polygon fill="black" stroke="black" points="1310.32,-262.48 1304.51,-253.62 1303.52,-264.17 1310.32,-262.48"/>
</g>
<!-- ed25519 -->
<g id="node19" class="node">
<title>ed25519</title>
<ellipse fill="none" stroke="black" cx="1175" cy="-306" rx="40.89" ry="18"/>
<text text-anchor="middle" x="1175" y="-302.3" font-family="Times,serif" font-size="14.00">ed25519</text>
</g>
<!-- account&#45;&gt;ed25519 -->
<g id="edge29" class="edge">
<title>account&#45;&gt;ed25519</title>
<path fill="none" stroke="black" d="M1200.56,-437.1C1184.09,-428.34 1164.53,-414.7 1155,-396 1145.13,-376.63 1151.59,-352.44 1159.72,-334.17"/>
<polygon fill="black" stroke="black" points="1162.82,-335.8 1164.05,-325.28 1156.52,-332.73 1162.82,-335.8"/>
</g>
<!-- multi_ed25519 -->
<g id="node20" class="node">
<title>multi_ed25519</title>
<ellipse fill="none" stroke="black" cx="1228" cy="-378" rx="64.19" ry="18"/>
<text text-anchor="middle" x="1228" y="-374.3" font-family="Times,serif" font-size="14.00">multi_ed25519</text>
</g>
<!-- account&#45;&gt;multi_ed25519 -->
<g id="edge30" class="edge">
<title>account&#45;&gt;multi_ed25519</title>
<path fill="none" stroke="black" d="M1228,-431.7C1228,-424.41 1228,-415.73 1228,-407.54"/>
<polygon fill="black" stroke="black" points="1231.5,-407.62 1228,-397.62 1224.5,-407.62 1231.5,-407.62"/>
</g>
<!-- from_bcs -->
<g id="node21" class="node">
<title>from_bcs</title>
<ellipse fill="none" stroke="black" cx="224" cy="-234" rx="44.39" ry="18"/>
<text text-anchor="middle" x="224" y="-230.3" font-family="Times,serif" font-size="14.00">from_bcs</text>
</g>
<!-- account&#45;&gt;from_bcs -->
<g id="edge32" class="edge">
<title>account&#45;&gt;from_bcs</title>
<path fill="none" stroke="black" d="M1189.7,-448.11C1032.65,-444.29 442.71,-427.89 366,-396 303.87,-370.17 258.75,-300.71 237.55,-261.99"/>
<polygon fill="black" stroke="black" points="240.71,-260.47 232.92,-253.29 234.53,-263.76 240.71,-260.47"/>
</g>
<!-- coin&#45;&gt;option -->
<g id="edge34" class="edge">
<title>coin&#45;&gt;option</title>
<path fill="none" stroke="black" d="M901.68,-520.7C803.71,-519.25 470.79,-511.19 375,-468 292.16,-430.64 259.13,-376.9 278,-288 292.61,-219.13 307.21,-204.03 344,-144 349.98,-134.24 357.42,-124.15 364.32,-115.43"/>
<polygon fill="black" stroke="black" points="366.96,-117.73 370.54,-107.76 361.52,-113.32 366.96,-117.73"/>
</g>
<!-- coin&#45;&gt;string -->
<g id="edge35" class="edge">
<title>coin&#45;&gt;string</title>
<path fill="none" stroke="black" d="M901.55,-521.26C790.03,-521.97 371.18,-520.97 252,-468 230.74,-458.55 185.56,-417.21 176,-396 149.68,-337.62 172.11,-316.03 171,-252 170.72,-236 164.88,-230.78 171,-216 176.19,-203.48 185.92,-192.38 195.65,-183.61"/>
<polygon fill="black" stroke="black" points="197.87,-186.32 203.29,-177.21 193.37,-180.95 197.87,-186.32"/>
</g>
<!-- coin&#45;&gt;signer -->
<g id="edge36" class="edge">
<title>coin&#45;&gt;signer</title>
<path fill="none" stroke="black" d="M956.28,-520.38C1090.8,-516.83 1683.06,-495.72 1832,-396 1871.64,-369.46 1892,-354.7 1892,-307 1892,-307 1892,-307 1892,-233 1892,-193.74 1892,-148.38 1892,-119.69"/>
<polygon fill="black" stroke="black" points="1895.5,-120 1892,-110 1888.5,-120 1895.5,-120"/>
</g>
<!-- coin&#45;&gt;type_info -->
<g id="edge38" class="edge">
<title>coin&#45;&gt;type_info</title>
<path fill="none" stroke="black" d="M930.65,-503.54C935.16,-455.76 947.74,-322.51 953.3,-263.61"/>
<polygon fill="black" stroke="black" points="956.78,-264.02 954.23,-253.74 949.81,-263.37 956.78,-264.02"/>
</g>
<!-- coin&#45;&gt;event -->
<g id="edge40" class="edge">
<title>coin&#45;&gt;event</title>
<path fill="none" stroke="black" d="M955.81,-518.59C1014.39,-512.95 1157.94,-497.13 1275,-468 1355.63,-447.94 1446.81,-413.01 1495.31,-393.4"/>
<polygon fill="black" stroke="black" points="1496.49,-396.7 1504.44,-389.69 1493.86,-390.22 1496.49,-396.7"/>
</g>
<!-- coin&#45;&gt;account -->
<g id="edge41" class="edge">
<title>coin&#45;&gt;account</title>
<path fill="none" stroke="black" d="M950.85,-511.04C956.96,-508.5 963.66,-505.94 970,-504 1042.14,-481.86 1128.48,-466.24 1180.74,-457.93"/>
<polygon fill="black" stroke="black" points="1181.15,-461.41 1190.49,-456.41 1180.07,-454.5 1181.15,-461.41"/>
</g>
<!-- coin&#45;&gt;error -->
<g id="edge37" class="edge">
<title>coin&#45;&gt;error</title>
<path fill="none" stroke="black" d="M922.54,-504.08C905.49,-456.69 863.22,-319.42 903,-216 925.74,-156.87 995.34,-120.58 1038.11,-103.26"/>
<polygon fill="black" stroke="black" points="1039.16,-106.61 1047.21,-99.72 1036.62,-100.09 1039.16,-106.61"/>
</g>
<!-- coin&#45;&gt;system_addresses -->
<g id="edge39" class="edge">
<title>coin&#45;&gt;system_addresses</title>
<path fill="none" stroke="black" d="M956.17,-519.48C1069.33,-512.63 1502.05,-481.2 1603,-396 1621.45,-380.43 1632.32,-354.94 1638.37,-335.22"/>
<polygon fill="black" stroke="black" points="1641.67,-336.43 1640.98,-325.86 1634.92,-334.55 1641.67,-336.43"/>
</g>
<!-- aggregator -->
<g id="node22" class="node">
<title>aggregator</title>
<ellipse fill="none" stroke="black" cx="342" cy="-306" rx="48.19" ry="18"/>
<text text-anchor="middle" x="342" y="-302.3" font-family="Times,serif" font-size="14.00">aggregator</text>
</g>
<!-- coin&#45;&gt;aggregator -->
<g id="edge42" class="edge">
<title>coin&#45;&gt;aggregator</title>
<path fill="none" stroke="black" d="M902.11,-519.56C837.45,-515.63 668.49,-502.61 532,-468 444.87,-445.91 394.42,-469.73 343,-396 330.83,-378.55 331.46,-354.14 334.64,-335.29"/>
<polygon fill="black" stroke="black" points="338.05,-336.1 336.62,-325.6 331.19,-334.7 338.05,-336.1"/>
</g>
<!-- aggregator_factory -->
<g id="node23" class="node">
<title>aggregator_factory</title>
<ellipse fill="none" stroke="black" cx="727" cy="-378" rx="77.19" ry="18"/>
<text text-anchor="middle" x="727" y="-374.3" font-family="Times,serif" font-size="14.00">aggregator_factory</text>
</g>
<!-- coin&#45;&gt;aggregator_factory -->
<g id="edge43" class="edge">
<title>coin&#45;&gt;aggregator_factory</title>
<path fill="none" stroke="black" d="M911.07,-508.4C877.05,-484.48 802.68,-432.2 759.61,-401.92"/>
<polygon fill="black" stroke="black" points="761.83,-399.21 751.64,-396.32 757.81,-404.94 761.83,-399.21"/>
</g>
<!-- optional_aggregator -->
<g id="node24" class="node">
<title>optional_aggregator</title>
<ellipse fill="none" stroke="black" cx="622" cy="-450" rx="81.49" ry="18"/>
<text text-anchor="middle" x="622" y="-446.3" font-family="Times,serif" font-size="14.00">optional_aggregator</text>
</g>
<!-- coin&#45;&gt;optional_aggregator -->
<g id="edge44" class="edge">
<title>coin&#45;&gt;optional_aggregator</title>
<path fill="none" stroke="black" d="M903.62,-515.21C856.87,-504.55 755.8,-481.51 688.33,-466.12"/>
<polygon fill="black" stroke="black" points="689.4,-462.78 678.87,-463.97 687.84,-469.6 689.4,-462.78"/>
</g>
<!-- tablist&#45;&gt;option -->
<g id="edge45" class="edge">
<title>tablist&#45;&gt;option</title>
<path fill="none" stroke="black" d="M450.28,-592.4C347.51,-588.61 38,-562.03 38,-379 38,-379 38,-379 38,-233 38,-167.85 250.19,-117.76 342.71,-99.01"/>
<polygon fill="black" stroke="black" points="343.29,-102.47 352.42,-97.08 341.92,-95.6 343.29,-102.47"/>
</g>
<!-- table_with_length -->
<g id="node25" class="node">
<title>table_with_length</title>
<ellipse fill="none" stroke="black" cx="520" cy="-378" rx="74.19" ry="18"/>
<text text-anchor="middle" x="520" y="-374.3" font-family="Times,serif" font-size="14.00">table_with_length</text>
</g>
<!-- tablist&#45;&gt;table_with_length -->
<g id="edge46" class="edge">
<title>tablist&#45;&gt;table_with_length</title>
<path fill="none" stroke="black" d="M485.97,-575.85C492.31,-539.14 507.26,-452.66 515.07,-407.53"/>
<polygon fill="black" stroke="black" points="518.51,-408.17 516.76,-397.72 511.61,-406.98 518.51,-408.17"/>
</g>
<!-- incentives&#45;&gt;signer -->
<g id="edge48" class="edge">
<title>incentives&#45;&gt;signer</title>
<path fill="none" stroke="black" d="M1158.33,-663.48C1336.54,-656.39 1968,-619.41 1968,-451 1968,-451 1968,-451 1968,-233 1968,-186.98 1936.58,-141.43 1914.15,-114.78"/>
<polygon fill="black" stroke="black" points="1916.85,-112.56 1907.65,-107.31 1911.57,-117.15 1916.85,-112.56"/>
</g>
<!-- incentives&#45;&gt;type_info -->
<g id="edge49" class="edge">
<title>incentives&#45;&gt;type_info</title>
<path fill="none" stroke="black" d="M1101.48,-648.24C1086.28,-622.4 1060,-570.78 1060,-523 1060,-523 1060,-523 1060,-449 1060,-428.81 999.33,-314.62 970.67,-261.8"/>
<polygon fill="black" stroke="black" points="973.81,-260.25 965.95,-253.14 967.66,-263.59 973.81,-260.25"/>
</g>
<!-- incentives&#45;&gt;coin -->
<g id="edge50" class="edge">
<title>incentives&#45;&gt;coin</title>
<path fill="none" stroke="black" d="M1092.07,-649.53C1058.76,-623.69 991.82,-571.75 954.91,-543.1"/>
<polygon fill="black" stroke="black" points="957.45,-540.65 947.41,-537.28 953.16,-546.18 957.45,-540.65"/>
</g>
<!-- incentives&#45;&gt;tablist -->
<g id="edge52" class="edge">
<title>incentives&#45;&gt;tablist</title>
<path fill="none" stroke="black" d="M1067.77,-660.08C951.91,-647.18 640.61,-612.54 526.07,-599.79"/>
<polygon fill="black" stroke="black" points="526.49,-596.32 516.17,-598.69 525.72,-603.28 526.49,-596.32"/>
</g>
<!-- incentives&#45;&gt;vector -->
<g id="edge47" class="edge">
<title>incentives&#45;&gt;vector</title>
<path fill="none" stroke="black" d="M1158.42,-665.51C1264.12,-665.72 1530.28,-660.88 1746,-612 1834.07,-592.04 1863.59,-593.95 1936,-540 2034,-466.99 2082,-429.21 2082,-307 2082,-307 2082,-307 2082,-161 2082,-104.11 2042.29,-94.42 1990,-72 1874.34,-22.41 963.93,-19.07 751.99,-18.97"/>
<polygon fill="black" stroke="black" points="752.24,-15.47 742.24,-18.97 752.24,-22.47 752.24,-15.47"/>
</g>
<!-- aptos_coin -->
<g id="node26" class="node">
<title>aptos_coin</title>
<ellipse fill="none" stroke="black" cx="1414" cy="-594" rx="48.99" ry="18"/>
<text text-anchor="middle" x="1414" y="-590.3" font-family="Times,serif" font-size="14.00">aptos_coin</text>
</g>
<!-- incentives&#45;&gt;aptos_coin -->
<g id="edge51" class="edge">
<title>incentives&#45;&gt;aptos_coin</title>
<path fill="none" stroke="black" d="M1151.17,-655.92C1205.15,-643.41 1302.5,-620.85 1362.37,-606.97"/>
<polygon fill="black" stroke="black" points="1363.03,-610.41 1371.98,-604.74 1361.45,-603.59 1363.03,-610.41"/>
</g>
<!-- resource_account -->
<g id="node27" class="node">
<title>resource_account</title>
<ellipse fill="none" stroke="black" cx="1383" cy="-522" rx="72.29" ry="18"/>
<text text-anchor="middle" x="1383" y="-518.3" font-family="Times,serif" font-size="14.00">resource_account</text>
</g>
<!-- incentives&#45;&gt;resource_account -->
<g id="edge53" class="edge">
<title>incentives&#45;&gt;resource_account</title>
<path fill="none" stroke="black" d="M1138.48,-651.13C1186.25,-626.1 1287.09,-573.26 1343.2,-543.85"/>
<polygon fill="black" stroke="black" points="1344.56,-547.09 1351.79,-539.35 1341.31,-540.89 1344.56,-547.09"/>
</g>
<!-- features&#45;&gt;signer -->
<g id="edge54" class="edge">
<title>features&#45;&gt;signer</title>
<path fill="none" stroke="black" d="M1077.71,-157.9C1216.77,-146.48 1700.46,-106.74 1848.56,-94.57"/>
<polygon fill="black" stroke="black" points="1848.66,-98.07 1858.33,-93.77 1848.08,-91.1 1848.66,-98.07"/>
</g>
<!-- features&#45;&gt;error -->
<g id="edge55" class="edge">
<title>features&#45;&gt;error</title>
<path fill="none" stroke="black" d="M1047.99,-144.05C1051.73,-136.12 1056.28,-126.47 1060.46,-117.59"/>
<polygon fill="black" stroke="black" points="1063.57,-119.21 1064.67,-108.68 1057.24,-116.23 1063.57,-119.21"/>
</g>
<!-- system_addresses&#45;&gt;signer -->
<g id="edge56" class="edge">
<title>system_addresses&#45;&gt;signer</title>
<path fill="none" stroke="black" d="M1664.38,-288.21C1708.6,-249.9 1816.92,-156.05 1866.49,-113.11"/>
<polygon fill="black" stroke="black" points="1868.62,-115.89 1873.88,-106.69 1864.04,-110.6 1868.62,-115.89"/>
</g>
<!-- system_addresses&#45;&gt;error -->
<g id="edge57" class="edge">
<title>system_addresses&#45;&gt;error</title>
<path fill="none" stroke="black" d="M1630.45,-288.08C1600.28,-254.27 1527.1,-178.64 1448,-144 1388.24,-117.83 1195.78,-100.38 1112.27,-93.86"/>
<polygon fill="black" stroke="black" points="1112.75,-90.39 1102.51,-93.11 1112.21,-97.37 1112.75,-90.39"/>
</g>
<!-- ed25519&#45;&gt;option -->
<g id="edge58" class="edge">
<title>ed25519&#45;&gt;option</title>
<path fill="none" stroke="black" d="M1156.39,-289.52C1131.72,-269.74 1086.14,-235.71 1042,-216 826.41,-119.76 538.8,-97.54 429.59,-92.47"/>
<polygon fill="black" stroke="black" points="430.04,-88.99 419.89,-92.05 429.73,-95.98 430.04,-88.99"/>
</g>
<!-- ed25519&#45;&gt;type_info -->
<g id="edge61" class="edge">
<title>ed25519&#45;&gt;type_info</title>
<path fill="none" stroke="black" d="M1142.69,-294.67C1105.22,-282.7 1043.24,-262.88 1001.05,-249.4"/>
<polygon fill="black" stroke="black" points="1002.29,-246.12 991.69,-246.41 1000.15,-252.79 1002.29,-246.12"/>
</g>
<!-- ed25519&#45;&gt;error -->
<g id="edge59" class="edge">
<title>ed25519&#45;&gt;error</title>
<path fill="none" stroke="black" d="M1171.44,-287.6C1164.68,-257.01 1148.09,-192.24 1120,-144 1113.53,-132.89 1104.5,-122.01 1096.09,-113.03"/>
<polygon fill="black" stroke="black" points="1098.85,-110.85 1089.36,-106.14 1093.84,-115.74 1098.85,-110.85"/>
</g>
<!-- ed25519&#45;&gt;bcs -->
<g id="edge60" class="edge">
<title>ed25519&#45;&gt;bcs</title>
<path fill="none" stroke="black" d="M1183.06,-287.98C1192.55,-269.06 1209.63,-238.23 1230,-216 1242.21,-202.67 1258.16,-190.42 1271.86,-181.05"/>
<polygon fill="black" stroke="black" points="1273.67,-184.05 1280.08,-175.61 1269.81,-178.21 1273.67,-184.05"/>
</g>
<!-- ed25519&#45;&gt;hash -->
<g id="edge62" class="edge">
<title>ed25519&#45;&gt;hash</title>
<path fill="none" stroke="black" d="M1199.5,-291.17C1219.51,-279.87 1247.88,-263.86 1269.21,-251.82"/>
<polygon fill="black" stroke="black" points="1270.74,-254.97 1277.73,-247.01 1267.3,-248.87 1270.74,-254.97"/>
</g>
<!-- multi_ed25519&#45;&gt;option -->
<g id="edge63" class="edge">
<title>multi_ed25519&#45;&gt;option</title>
<path fill="none" stroke="black" d="M1183.84,-364.54C1157.85,-355.84 1125.24,-342.46 1100,-324 1087.34,-314.74 1022.51,-223.98 1009,-216 938.38,-174.29 908.03,-197.95 828,-180 763.63,-165.56 748.52,-157.77 684,-144 593.56,-124.7 486.67,-106.97 428.35,-97.71"/>
<polygon fill="black" stroke="black" points="428.92,-94.26 418.5,-96.16 427.83,-101.17 428.92,-94.26"/>
</g>
<!-- multi_ed25519&#45;&gt;error -->
<g id="edge64" class="edge">
<title>multi_ed25519&#45;&gt;error</title>
<path fill="none" stroke="black" d="M1184.33,-364.37C1163.38,-356.14 1139.7,-343.26 1125,-324 1075.4,-259 1105.89,-223.55 1087,-144 1085.08,-135.91 1082.84,-127.17 1080.72,-119.17"/>
<polygon fill="black" stroke="black" points="1084.12,-118.34 1078.15,-109.59 1077.36,-120.16 1084.12,-118.34"/>
</g>
<!-- multi_ed25519&#45;&gt;bcs -->
<g id="edge65" class="edge">
<title>multi_ed25519&#45;&gt;bcs</title>
<path fill="none" stroke="black" d="M1229.43,-359.84C1232.43,-329.62 1241.05,-265.41 1263,-216 1267.59,-205.67 1274.38,-195.33 1280.96,-186.56"/>
<polygon fill="black" stroke="black" points="1283.53,-188.96 1286.96,-178.93 1278.03,-184.63 1283.53,-188.96"/>
</g>
<!-- multi_ed25519&#45;&gt;hash -->
<g id="edge66" class="edge">
<title>multi_ed25519&#45;&gt;hash</title>
<path fill="none" stroke="black" d="M1238.09,-360.01C1244.1,-349.71 1251.73,-336.23 1258,-324 1268.48,-303.53 1279.33,-279.87 1287.23,-262.09"/>
<polygon fill="black" stroke="black" points="1290.41,-263.55 1291.24,-252.99 1284,-260.72 1290.41,-263.55"/>
</g>
<!-- multi_ed25519&#45;&gt;ed25519 -->
<g id="edge67" class="edge">
<title>multi_ed25519&#45;&gt;ed25519</title>
<path fill="none" stroke="black" d="M1215.17,-360.05C1208.89,-351.77 1201.21,-341.62 1194.25,-332.42"/>
<polygon fill="black" stroke="black" points="1197.09,-330.37 1188.26,-324.51 1191.51,-334.6 1197.09,-330.37"/>
</g>
<!-- from_bcs&#45;&gt;string -->
<g id="edge68" class="edge">
<title>from_bcs&#45;&gt;string</title>
<path fill="none" stroke="black" d="M224,-215.7C224,-208.41 224,-199.73 224,-191.54"/>
<polygon fill="black" stroke="black" points="227.5,-191.62 224,-181.62 220.5,-191.62 227.5,-191.62"/>
</g>
<!-- aggregator_factory&#45;&gt;table -->
<g id="edge70" class="edge">
<title>aggregator_factory&#45;&gt;table</title>
<path fill="none" stroke="black" d="M722.3,-359.7C720.28,-352.24 717.86,-343.32 715.59,-334.97"/>
<polygon fill="black" stroke="black" points="719.04,-334.3 713.04,-325.57 712.28,-336.13 719.04,-334.3"/>
</g>
<!-- aggregator_factory&#45;&gt;error -->
<g id="edge69" class="edge">
<title>aggregator_factory&#45;&gt;error</title>
<path fill="none" stroke="black" d="M734.97,-359.6C749.81,-328.44 783.99,-262.07 826,-216 826.07,-215.92 921.91,-144.05 922,-144 959,-124.24 1004.87,-109.36 1036.28,-100.47"/>
<polygon fill="black" stroke="black" points="1036.99,-103.9 1045.7,-97.87 1035.13,-97.15 1036.99,-103.9"/>
</g>
<!-- aggregator_factory&#45;&gt;system_addresses -->
<g id="edge71" class="edge">
<title>aggregator_factory&#45;&gt;system_addresses</title>
<path fill="none" stroke="black" d="M802.52,-373.86C944.37,-367.55 1260.19,-351.51 1525,-324 1540.58,-322.38 1557.24,-320.27 1573.04,-318.08"/>
<polygon fill="black" stroke="black" points="1573.46,-321.56 1582.87,-316.7 1572.48,-314.63 1573.46,-321.56"/>
</g>
<!-- aggregator_factory&#45;&gt;aggregator -->
<g id="edge72" class="edge">
<title>aggregator_factory&#45;&gt;aggregator</title>
<path fill="none" stroke="black" d="M667.69,-366.22C593.41,-352.71 467.23,-329.77 395.69,-316.76"/>
<polygon fill="black" stroke="black" points="396.65,-313.38 386.18,-315.03 395.39,-320.27 396.65,-313.38"/>
</g>
<!-- optional_aggregator&#45;&gt;option -->
<g id="edge73" class="edge">
<title>optional_aggregator&#45;&gt;option</title>
<path fill="none" stroke="black" d="M540.7,-448.23C482.04,-444.33 402.94,-431.94 343,-396 307.76,-374.87 298.67,-362.75 285,-324 279.68,-308.91 280.22,-303.27 285,-288 290.82,-269.41 300.3,-268.89 310,-252 335.97,-206.8 360.35,-151.08 373.91,-118.45"/>
<polygon fill="black" stroke="black" points="377.1,-119.91 377.67,-109.33 370.62,-117.24 377.1,-119.91"/>
</g>
<!-- optional_aggregator&#45;&gt;error -->
<g id="edge74" class="edge">
<title>optional_aggregator&#45;&gt;error</title>
<path fill="none" stroke="black" d="M623.13,-431.56C626.03,-399.76 636.16,-331.59 671,-288 740.06,-201.59 773.86,-190.98 874,-144 926.99,-119.14 993.6,-104.4 1034.73,-97"/>
<polygon fill="black" stroke="black" points="1035.13,-100.49 1044.38,-95.33 1033.93,-93.59 1035.13,-100.49"/>
</g>
<!-- optional_aggregator&#45;&gt;aggregator -->
<g id="edge75" class="edge">
<title>optional_aggregator&#45;&gt;aggregator</title>
<path fill="none" stroke="black" d="M547.76,-442.24C481.76,-434.74 391.85,-420.36 366,-396 349.7,-380.64 344.05,-355.47 342.28,-335.82"/>
<polygon fill="black" stroke="black" points="345.78,-335.71 341.7,-325.93 338.79,-336.12 345.78,-335.71"/>
</g>
<!-- optional_aggregator&#45;&gt;aggregator_factory -->
<g id="edge76" class="edge">
<title>optional_aggregator&#45;&gt;aggregator_factory</title>
<path fill="none" stroke="black" d="M646.88,-432.41C660.61,-423.26 677.87,-411.76 692.84,-401.77"/>
<polygon fill="black" stroke="black" points="694.66,-404.77 701.04,-396.31 690.77,-398.94 694.66,-404.77"/>
</g>
<!-- table_with_length&#45;&gt;table -->
<g id="edge78" class="edge">
<title>table_with_length&#45;&gt;table</title>
<path fill="none" stroke="black" d="M559.41,-362.33C593.12,-349.77 641.17,-331.89 673.41,-319.88"/>
<polygon fill="black" stroke="black" points="674.54,-323.19 682.69,-316.43 672.09,-316.63 674.54,-323.19"/>
</g>
<!-- table_with_length&#45;&gt;error -->
<g id="edge77" class="edge">
<title>table_with_length&#45;&gt;error</title>
<path fill="none" stroke="black" d="M532.32,-360.25C556.51,-328.36 613.26,-258.37 675,-216 790.63,-136.64 959.05,-105.82 1034.24,-95.51"/>
<polygon fill="black" stroke="black" points="1034.53,-99 1043.99,-94.23 1033.61,-92.06 1034.53,-99"/>
</g>
<!-- aptos_coin&#45;&gt;option -->
<g id="edge80" class="edge">
<title>aptos_coin&#45;&gt;option</title>
<path fill="none" stroke="black" d="M1384.47,-579.16C1361.86,-568.53 1329.91,-553.44 1302,-540 956.26,-373.56 539.57,-167.56 419.12,-107.91"/>
<polygon fill="black" stroke="black" points="420.9,-104.89 410.39,-103.58 417.79,-111.16 420.9,-104.89"/>
</g>
<!-- aptos_coin&#45;&gt;string -->
<g id="edge81" class="edge">
<title>aptos_coin&#45;&gt;string</title>
<path fill="none" stroke="black" d="M1364.74,-593.66C1162.98,-595.51 401.13,-593.87 204,-468 108.48,-407.01 115.99,-318.19 165,-216 171.42,-202.62 182.9,-191.1 194.03,-182.26"/>
<polygon fill="black" stroke="black" points="196.02,-185.15 201.97,-176.38 191.85,-179.52 196.02,-185.15"/>
</g>
<!-- aptos_coin&#45;&gt;signer -->
<g id="edge82" class="edge">
<title>aptos_coin&#45;&gt;signer</title>
<path fill="none" stroke="black" d="M1461.74,-589.2C1540.35,-582.3 1693.01,-565.95 1740,-540 1856.97,-475.4 1930,-440.62 1930,-307 1930,-307 1930,-307 1930,-233 1930,-191.95 1915,-146.43 1903.85,-118.26"/>
<polygon fill="black" stroke="black" points="1907.11,-116.99 1900.08,-109.06 1900.63,-119.64 1907.11,-116.99"/>
</g>
<!-- aptos_coin&#45;&gt;coin -->
<g id="edge85" class="edge">
<title>aptos_coin&#45;&gt;coin</title>
<path fill="none" stroke="black" d="M1367.23,-588.16C1291.49,-580.03 1137.42,-562.33 1008,-540 993.99,-537.58 978.7,-534.42 965.33,-531.47"/>
<polygon fill="black" stroke="black" points="966.16,-528.07 955.63,-529.3 964.63,-534.9 966.16,-528.07"/>
</g>
<!-- aptos_coin&#45;&gt;vector -->
<g id="edge79" class="edge">
<title>aptos_coin&#45;&gt;vector</title>
<path fill="none" stroke="black" d="M1463.37,-592.92C1536.02,-591.27 1674.93,-582.24 1784,-540 1928.7,-483.97 2044,-462.17 2044,-307 2044,-307 2044,-307 2044,-161 2044,-97.77 1992.19,-94.25 1933,-72 1820.79,-29.82 957.64,-20.84 751.91,-19.28"/>
<polygon fill="black" stroke="black" points="752.23,-15.79 742.2,-19.21 752.17,-22.79 752.23,-15.79"/>
</g>
<!-- aptos_coin&#45;&gt;error -->
<g id="edge83" class="edge">
<title>aptos_coin&#45;&gt;error</title>
<path fill="none" stroke="black" d="M1459.33,-586.81C1564.47,-571.17 1816,-525.94 1816,-451 1816,-451 1816,-451 1816,-305 1816,-238.6 1752.28,-251.24 1696,-216 1637.37,-179.28 1624.19,-164.1 1558,-144 1398.13,-95.44 1196.67,-90.25 1112.63,-90.42"/>
<polygon fill="black" stroke="black" points="1112.83,-86.92 1102.85,-90.47 1112.87,-93.92 1112.83,-86.92"/>
</g>
<!-- aptos_coin&#45;&gt;system_addresses -->
<g id="edge84" class="edge">
<title>aptos_coin&#45;&gt;system_addresses</title>
<path fill="none" stroke="black" d="M1438.8,-578.18C1484.61,-549.38 1582.1,-481.14 1629,-396 1639.14,-377.59 1643.05,-354.09 1644.47,-335.86"/>
<polygon fill="black" stroke="black" points="1647.96,-336.17 1645.02,-326 1640.97,-335.79 1647.96,-336.17"/>
</g>
<!-- resource_account&#45;&gt;account -->
<g id="edge87" class="edge">
<title>resource_account&#45;&gt;account</title>
<path fill="none" stroke="black" d="M1349.37,-505.81C1324.59,-494.62 1290.9,-479.41 1265.3,-467.85"/>
<polygon fill="black" stroke="black" points="1266.81,-464.69 1256.25,-463.76 1263.93,-471.07 1266.81,-464.69"/>
</g>
<!-- resource_account&#45;&gt;bcs -->
<g id="edge86" class="edge">
<title>resource_account&#45;&gt;bcs</title>
<path fill="none" stroke="black" d="M1385.48,-503.61C1391.56,-455.01 1403.29,-314.88 1353,-216 1346.78,-203.77 1336.75,-192.55 1327.14,-183.61"/>
<polygon fill="black" stroke="black" points="1329.53,-181.05 1319.7,-177.08 1324.91,-186.31 1329.53,-181.05"/>
</g>
<!-- timestamp -->
<g id="node28" class="node">
<title>timestamp</title>
<ellipse fill="none" stroke="black" cx="1740" cy="-378" rx="48.19" ry="18"/>
<text text-anchor="middle" x="1740" y="-374.3" font-family="Times,serif" font-size="14.00">timestamp</text>
</g>
<!-- resource_account&#45;&gt;timestamp -->
<g id="edge88" class="edge">
<title>resource_account&#45;&gt;timestamp</title>
<path fill="none" stroke="black" d="M1433.77,-508.8C1470.52,-499.33 1521.07,-484.98 1564,-468 1614.57,-448 1670.14,-418.56 1705.03,-399.09"/>
<polygon fill="black" stroke="black" points="1706.42,-402.33 1713.42,-394.38 1702.99,-396.23 1706.42,-402.33"/>
</g>
<!-- timestamp&#45;&gt;error -->
<g id="edge89" class="edge">
<title>timestamp&#45;&gt;error</title>
<path fill="none" stroke="black" d="M1741.6,-359.76C1742.5,-340.64 1741.27,-309.64 1727,-288 1659.56,-185.74 1607.57,-184.59 1492,-144 1358.53,-97.12 1188.26,-90.8 1112.46,-90.53"/>
<polygon fill="black" stroke="black" points="1112.64,-87.03 1102.64,-90.53 1112.64,-94.03 1112.64,-87.03"/>
</g>
<!-- timestamp&#45;&gt;system_addresses -->
<g id="edge90" class="edge">
<title>timestamp&#45;&gt;system_addresses</title>
<path fill="none" stroke="black" d="M1718.92,-361.46C1706.48,-352.3 1690.5,-340.53 1676.59,-330.27"/>
<polygon fill="black" stroke="black" points="1678.69,-327.48 1668.57,-324.37 1674.54,-333.11 1678.69,-327.48"/>
</g>
</g>
</svg>
