<?xml version="1.0" encoding="UTF-8" standalone="no"?>
<!DOCTYPE svg PUBLIC "-//W3C//DTD SVG 1.1//EN"
 "http://www.w3.org/Graphics/SVG/1.1/DTD/svg11.dtd">
<!-- Generated by graphviz version 8.0.5 (20230430.1635)
 -->
<!-- Title: G Pages: 1 -->
<svg width="2358pt" height="764pt"
 viewBox="0.00 0.00 2358.00 764.00" xmlns="http://www.w3.org/2000/svg" xmlns:xlink="http://www.w3.org/1999/xlink">
<g id="graph0" class="graph" transform="scale(1 1) rotate(0) translate(4 760)">
<title>G</title>
<polygon fill="white" stroke="none" points="-4,4 -4,-760 2354,-760 2354,4 -4,4"/>
<!-- registry -->
<g id="node1" class="node">
<title>registry</title>
<ellipse fill="none" stroke="black" cx="960" cy="-738" rx="39.07" ry="18"/>
<text text-anchor="middle" x="960" y="-732.95" font-family="Times,serif" font-size="14.00">registry</text>
</g>
<!-- option -->
<g id="node2" class="node">
<title>option</title>
<ellipse fill="none" stroke="black" cx="255" cy="-90" rx="34.46" ry="18"/>
<text text-anchor="middle" x="255" y="-84.95" font-family="Times,serif" font-size="14.00">option</text>
</g>
<!-- registry&#45;&gt;option -->
<g id="edge1" class="edge">
<title>registry&#45;&gt;option</title>
<path fill="none" stroke="black" d="M920.76,-736.78C757.79,-735.57 139.29,-728.09 65,-684 -52.02,-614.54 38,-515.09 38,-379 38,-379 38,-379 38,-233 38,-186.96 55,-172.7 91,-144 125.77,-116.27 175.45,-102.88 211,-96.52"/>
<polygon fill="black" stroke="black" points="211.26,-99.86 220.55,-94.76 210.11,-92.95 211.26,-99.86"/>
</g>
<!-- string -->
<g id="node3" class="node">
<title>string</title>
<ellipse fill="none" stroke="black" cx="372" cy="-162" rx="31.9" ry="18"/>
<text text-anchor="middle" x="372" y="-156.95" font-family="Times,serif" font-size="14.00">string</text>
</g>
<!-- registry&#45;&gt;string -->
<g id="edge2" class="edge">
<title>registry&#45;&gt;string</title>
<path fill="none" stroke="black" d="M924.46,-730.15C763.89,-698.22 114,-557.92 114,-379 114,-379 114,-379 114,-305 114,-207.74 256.47,-176.61 329.67,-167.04"/>
<polygon fill="black" stroke="black" points="329.86,-170.42 339.36,-165.73 329.01,-163.47 329.86,-170.42"/>
</g>
<!-- signer -->
<g id="node4" class="node">
<title>signer</title>
<ellipse fill="none" stroke="black" cx="2236" cy="-90" rx="33.44" ry="18"/>
<text text-anchor="middle" x="2236" y="-84.95" font-family="Times,serif" font-size="14.00">signer</text>
</g>
<!-- registry&#45;&gt;signer -->
<g id="edge3" class="edge">
<title>registry&#45;&gt;signer</title>
<path fill="none" stroke="black" d="M999.36,-737.22C1225.57,-737.96 2350,-734.63 2350,-595 2350,-595 2350,-595 2350,-233 2350,-179.31 2299.83,-134.36 2266.06,-110.19"/>
<polygon fill="black" stroke="black" points="2268.65,-107.04 2258.44,-104.21 2264.66,-112.79 2268.65,-107.04"/>
</g>
<!-- type_info -->
<g id="node5" class="node">
<title>type_info</title>
<ellipse fill="none" stroke="black" cx="1458" cy="-234" rx="46.23" ry="18"/>
<text text-anchor="middle" x="1458" y="-228.95" font-family="Times,serif" font-size="14.00">type_info</text>
</g>
<!-- registry&#45;&gt;type_info -->
<g id="edge4" class="edge">
<title>registry&#45;&gt;type_info</title>
<path fill="none" stroke="black" d="M999.44,-736.72C1210.61,-734.7 2198,-718.65 2198,-595 2198,-595 2198,-595 2198,-449 2198,-330.33 2099.48,-319.23 1985,-288 1818.64,-242.62 1613.23,-235.28 1515.24,-234.61"/>
<polygon fill="black" stroke="black" points="1515.41,-231.1 1505.4,-234.56 1515.38,-238.1 1515.41,-231.1"/>
</g>
<!-- table -->
<g id="node6" class="node">
<title>table</title>
<ellipse fill="none" stroke="black" cx="749" cy="-306" rx="28.83" ry="18"/>
<text text-anchor="middle" x="749" y="-300.95" font-family="Times,serif" font-size="14.00">table</text>
</g>
<!-- registry&#45;&gt;table -->
<g id="edge5" class="edge">
<title>registry&#45;&gt;table</title>
<path fill="none" stroke="black" d="M920.71,-735.95C760.67,-731.46 165.08,-712.88 138,-684 63.39,-604.43 -212.93,-691.56 475,-360 552.38,-322.71 653.99,-311.65 709.16,-308.37"/>
<polygon fill="black" stroke="black" points="709.08,-311.83 718.88,-307.8 708.71,-304.84 709.08,-311.83"/>
</g>
<!-- event -->
<g id="node7" class="node">
<title>event</title>
<ellipse fill="none" stroke="black" cx="2101" cy="-378" rx="30.88" ry="18"/>
<text text-anchor="middle" x="2101" y="-372.95" font-family="Times,serif" font-size="14.00">event</text>
</g>
<!-- registry&#45;&gt;event -->
<g id="edge6" class="edge">
<title>registry&#45;&gt;event</title>
<path fill="none" stroke="black" d="M998.73,-734.27C1065.75,-728.89 1207.27,-714.7 1323,-684 1621.9,-604.71 1962.42,-446.01 2068.03,-395.11"/>
<polygon fill="black" stroke="black" points="2069.31,-397.89 2076.79,-390.39 2066.26,-391.59 2069.31,-397.89"/>
</g>
<!-- account -->
<g id="node8" class="node">
<title>account</title>
<ellipse fill="none" stroke="black" cx="1524" cy="-450" rx="39.58" ry="18"/>
<text text-anchor="middle" x="1524" y="-444.95" font-family="Times,serif" font-size="14.00">account</text>
</g>
<!-- registry&#45;&gt;account -->
<g id="edge7" class="edge">
<title>registry&#45;&gt;account</title>
<path fill="none" stroke="black" d="M999.07,-735.26C1098.99,-728.56 1365.16,-696.17 1496,-540 1510.45,-522.75 1517.47,-498 1520.86,-478.98"/>
<polygon fill="black" stroke="black" points="1524.44,-479.69 1522.5,-469.27 1517.52,-478.63 1524.44,-479.69"/>
</g>
<!-- coin -->
<g id="node9" class="node">
<title>coin</title>
<ellipse fill="none" stroke="black" cx="931" cy="-522" rx="27" ry="18"/>
<text text-anchor="middle" x="931" y="-516.95" font-family="Times,serif" font-size="14.00">coin</text>
</g>
<!-- registry&#45;&gt;coin -->
<g id="edge8" class="edge">
<title>registry&#45;&gt;coin</title>
<path fill="none" stroke="black" d="M953.02,-720.12C949.09,-709.86 944.48,-696.39 942,-684 932.78,-638 930.92,-583.3 930.73,-550.96"/>
<polygon fill="black" stroke="black" points="934.23,-551.11 930.73,-541.11 927.23,-551.11 934.23,-551.11"/>
</g>
<!-- tablist -->
<g id="node10" class="node">
<title>tablist</title>
<ellipse fill="none" stroke="black" cx="667" cy="-594" rx="33.44" ry="18"/>
<text text-anchor="middle" x="667" y="-588.95" font-family="Times,serif" font-size="14.00">tablist</text>
</g>
<!-- registry&#45;&gt;tablist -->
<g id="edge9" class="edge">
<title>registry&#45;&gt;tablist</title>
<path fill="none" stroke="black" d="M933.74,-724.27C880.49,-698.47 759.88,-640.01 700.84,-611.4"/>
<polygon fill="black" stroke="black" points="702.76,-607.96 692.23,-606.74 699.71,-614.26 702.76,-607.96"/>
</g>
<!-- incentives -->
<g id="node11" class="node">
<title>incentives</title>
<ellipse fill="none" stroke="black" cx="999" cy="-666" rx="48.28" ry="18"/>
<text text-anchor="middle" x="999" y="-660.95" font-family="Times,serif" font-size="14.00">incentives</text>
</g>
<!-- registry&#45;&gt;incentives -->
<g id="edge10" class="edge">
<title>registry&#45;&gt;incentives</title>
<path fill="none" stroke="black" d="M969.44,-720.05C973.94,-711.97 979.43,-702.12 984.45,-693.11"/>
<polygon fill="black" stroke="black" points="987.84,-695.23 989.65,-684.79 981.72,-691.82 987.84,-695.23"/>
</g>
<!-- vector -->
<g id="node12" class="node">
<title>vector</title>
<ellipse fill="none" stroke="black" cx="372" cy="-18" rx="33.95" ry="18"/>
<text text-anchor="middle" x="372" y="-12.95" font-family="Times,serif" font-size="14.00">vector</text>
</g>
<!-- option&#45;&gt;vector -->
<g id="edge11" class="edge">
<title>option&#45;&gt;vector</title>
<path fill="none" stroke="black" d="M277.01,-75.83C294.98,-65.08 320.61,-49.74 340.72,-37.71"/>
<polygon fill="black" stroke="black" points="342.31,-40.25 349.09,-32.11 338.71,-34.24 342.31,-40.25"/>
</g>
<!-- string&#45;&gt;option -->
<g id="edge13" class="edge">
<title>string&#45;&gt;option</title>
<path fill="none" stroke="black" d="M350.54,-148.16C332.54,-137.39 306.6,-121.87 286.29,-109.72"/>
<polygon fill="black" stroke="black" points="288.5,-106.36 278.12,-104.23 284.9,-112.37 288.5,-106.36"/>
</g>
<!-- string&#45;&gt;vector -->
<g id="edge12" class="edge">
<title>string&#45;&gt;vector</title>
<path fill="none" stroke="black" d="M372,-143.59C372,-119.5 372,-75.75 372,-47.03"/>
<polygon fill="black" stroke="black" points="375.5,-47.11 372,-37.11 368.5,-47.11 375.5,-47.11"/>
</g>
<!-- type_info&#45;&gt;string -->
<g id="edge14" class="edge">
<title>type_info&#45;&gt;string</title>
<path fill="none" stroke="black" d="M1412.37,-230.06C1234.31,-218.58 587.46,-176.89 414.68,-165.75"/>
<polygon fill="black" stroke="black" points="414.96,-162.2 404.76,-165.05 414.51,-169.18 414.96,-162.2"/>
</g>
<!-- error -->
<g id="node13" class="node">
<title>error</title>
<ellipse fill="none" stroke="black" cx="1116" cy="-90" rx="28.83" ry="18"/>
<text text-anchor="middle" x="1116" y="-84.95" font-family="Times,serif" font-size="14.00">error</text>
</g>
<!-- type_info&#45;&gt;error -->
<g id="edge15" class="edge">
<title>type_info&#45;&gt;error</title>
<path fill="none" stroke="black" d="M1433.63,-218.41C1401.21,-199.45 1341.75,-166.13 1288,-144 1242.57,-125.29 1188.06,-109.57 1152.76,-100.23"/>
<polygon fill="black" stroke="black" points="1154.02,-96.68 1143.46,-97.53 1152.25,-103.45 1154.02,-96.68"/>
</g>
<!-- features -->
<g id="node14" class="node">
<title>features</title>
<ellipse fill="none" stroke="black" cx="1638" cy="-162" rx="40.09" ry="18"/>
<text text-anchor="middle" x="1638" y="-156.95" font-family="Times,serif" font-size="14.00">features</text>
</g>
<!-- type_info&#45;&gt;features -->
<g id="edge16" class="edge">
<title>type_info&#45;&gt;features</title>
<path fill="none" stroke="black" d="M1489.77,-220.65C1520,-208.89 1565.6,-191.15 1598.24,-178.46"/>
<polygon fill="black" stroke="black" points="1599.29,-181.42 1607.34,-174.53 1596.75,-174.9 1599.29,-181.42"/>
</g>
<!-- bcs -->
<g id="node15" class="node">
<title>bcs</title>
<ellipse fill="none" stroke="black" cx="1901" cy="-162" rx="27" ry="18"/>
<text text-anchor="middle" x="1901" y="-156.95" font-family="Times,serif" font-size="14.00">bcs</text>
</g>
<!-- type_info&#45;&gt;bcs -->
<g id="edge17" class="edge">
<title>type_info&#45;&gt;bcs</title>
<path fill="none" stroke="black" d="M1500.48,-226.29C1586.93,-212.63 1782.07,-181.79 1863.85,-168.87"/>
<polygon fill="black" stroke="black" points="1864.28,-172.19 1873.61,-167.17 1863.19,-165.27 1864.28,-172.19"/>
</g>
<!-- event&#45;&gt;bcs -->
<g id="edge18" class="edge">
<title>event&#45;&gt;bcs</title>
<path fill="none" stroke="black" d="M2096.39,-360.14C2086.83,-328.09 2061.99,-257.82 2018,-216 1995.09,-194.22 1961.68,-180.31 1936.42,-172.23"/>
<polygon fill="black" stroke="black" points="1937.73,-168.67 1927.15,-169.12 1935.71,-175.37 1937.73,-168.67"/>
</g>
<!-- guid -->
<g id="node16" class="node">
<title>guid</title>
<ellipse fill="none" stroke="black" cx="1949" cy="-306" rx="27.3" ry="18"/>
<text text-anchor="middle" x="1949" y="-300.95" font-family="Times,serif" font-size="14.00">guid</text>
</g>
<!-- event&#45;&gt;guid -->
<g id="edge19" class="edge">
<title>event&#45;&gt;guid</title>
<path fill="none" stroke="black" d="M2077.25,-366.06C2051.37,-354.14 2009.83,-335.01 1981.07,-321.77"/>
<polygon fill="black" stroke="black" points="1982.65,-318.18 1972.1,-317.18 1979.72,-324.54 1982.65,-318.18"/>
</g>
<!-- account&#45;&gt;option -->
<g id="edge21" class="edge">
<title>account&#45;&gt;option</title>
<path fill="none" stroke="black" d="M1484.24,-448.33C1297.4,-445.03 514.16,-429.25 475,-396 387.08,-321.35 493.97,-226.14 413,-144 382.91,-113.47 334.72,-100.52 299.46,-95.04"/>
<polygon fill="black" stroke="black" points="300.36,-91.49 289.97,-93.56 299.39,-98.42 300.36,-91.49"/>
</g>
<!-- account&#45;&gt;signer -->
<g id="edge22" class="edge">
<title>account&#45;&gt;signer</title>
<path fill="none" stroke="black" d="M1552.2,-436.99C1557.69,-435.04 1563.46,-433.26 1569,-432 1661.22,-411.09 1909.63,-440.62 1993,-396 2113.47,-331.53 2195.02,-179.14 2224.14,-117.53"/>
<polygon fill="black" stroke="black" points="2227.63,-119.33 2228.67,-108.79 2221.28,-116.38 2227.63,-119.33"/>
</g>
<!-- account&#45;&gt;type_info -->
<g id="edge25" class="edge">
<title>account&#45;&gt;type_info</title>
<path fill="none" stroke="black" d="M1520.97,-431.74C1517.39,-413.42 1510.54,-383.86 1500,-360 1492.33,-342.63 1484.21,-341.57 1477,-324 1468.98,-304.46 1464.15,-281.05 1461.37,-263.14"/>
<polygon fill="black" stroke="black" points="1464.7,-262.68 1459.83,-253.27 1457.77,-263.66 1464.7,-262.68"/>
</g>
<!-- account&#45;&gt;table -->
<g id="edge26" class="edge">
<title>account&#45;&gt;table</title>
<path fill="none" stroke="black" d="M1484.86,-446.72C1404.57,-441.55 1215.67,-426.94 1060,-396 958.06,-375.74 840.97,-338.26 783.91,-319.04"/>
<polygon fill="black" stroke="black" points="785.25,-315.46 774.65,-315.57 783,-322.09 785.25,-315.46"/>
</g>
<!-- account&#45;&gt;event -->
<g id="edge33" class="edge">
<title>account&#45;&gt;event</title>
<path fill="none" stroke="black" d="M1563.18,-446.43C1669.55,-439.25 1962.02,-418.03 2056,-396 2059.42,-395.2 2062.92,-394.2 2066.4,-393.1"/>
<polygon fill="black" stroke="black" points="2067.31,-396.14 2075.6,-389.54 2065.01,-389.53 2067.31,-396.14"/>
</g>
<!-- account&#45;&gt;vector -->
<g id="edge20" class="edge">
<title>account&#45;&gt;vector</title>
<path fill="none" stroke="black" d="M1552.84,-437.4C1558.17,-435.46 1563.72,-433.57 1569,-432 1640.54,-410.76 1686.23,-454.15 1733,-396 1757.52,-365.52 1805.07,-253.47 1687,-144 1591.8,-55.74 636.18,-25.82 416.75,-20.08"/>
<polygon fill="black" stroke="black" points="417.06,-16.57 406.98,-19.81 416.88,-23.56 417.06,-16.57"/>
</g>
<!-- account&#45;&gt;error -->
<g id="edge23" class="edge">
<title>account&#45;&gt;error</title>
<path fill="none" stroke="black" d="M1514.59,-432.12C1503.65,-413.33 1484.33,-382.62 1463,-360 1359.28,-250.02 1208.02,-149 1145.11,-109.07"/>
<polygon fill="black" stroke="black" points="1147.47,-105.78 1137.14,-103.4 1143.73,-111.7 1147.47,-105.78"/>
</g>
<!-- account&#45;&gt;bcs -->
<g id="edge24" class="edge">
<title>account&#45;&gt;bcs</title>
<path fill="none" stroke="black" d="M1552.21,-437.02C1557.7,-435.07 1563.47,-433.27 1569,-432 1655.12,-412.21 1897.15,-452.6 1965,-396 2002.49,-364.73 1999.23,-334.7 1985,-288 1972.78,-247.91 1942.92,-209.01 1922.31,-185.53"/>
<polygon fill="black" stroke="black" points="1925.48,-183.7 1916.19,-178.61 1920.27,-188.38 1925.48,-183.7"/>
</g>
<!-- account&#45;&gt;guid -->
<g id="edge31" class="edge">
<title>account&#45;&gt;guid</title>
<path fill="none" stroke="black" d="M1563.19,-446.2C1612.67,-441.39 1699.4,-428.69 1766,-396 1788.37,-385.02 1787.49,-372.59 1809,-360 1842.32,-340.5 1884.1,-325.79 1913.31,-316.87"/>
<polygon fill="black" stroke="black" points="1914.26,-319.94 1922.84,-313.74 1912.26,-313.23 1914.26,-319.94"/>
</g>
<!-- system_addresses -->
<g id="node17" class="node">
<title>system_addresses</title>
<ellipse fill="none" stroke="black" cx="1201" cy="-306" rx="76.94" ry="18"/>
<text text-anchor="middle" x="1201" y="-300.95" font-family="Times,serif" font-size="14.00">system_addresses</text>
</g>
<!-- account&#45;&gt;system_addresses -->
<g id="edge27" class="edge">
<title>account&#45;&gt;system_addresses</title>
<path fill="none" stroke="black" d="M1508.26,-433.4C1483.73,-409.21 1438.22,-364.92 1429,-360 1383.54,-335.72 1327.16,-322.48 1281.84,-315.32"/>
<polygon fill="black" stroke="black" points="1282.57,-311.74 1272.16,-313.71 1281.53,-318.66 1282.57,-311.74"/>
</g>
<!-- hash -->
<g id="node18" class="node">
<title>hash</title>
<ellipse fill="none" stroke="black" cx="1838" cy="-234" rx="27.81" ry="18"/>
<text text-anchor="middle" x="1838" y="-228.95" font-family="Times,serif" font-size="14.00">hash</text>
</g>
<!-- account&#45;&gt;hash -->
<g id="edge28" class="edge">
<title>account&#45;&gt;hash</title>
<path fill="none" stroke="black" d="M1552.21,-437.04C1557.7,-435.09 1563.47,-433.28 1569,-432 1651.19,-412.92 1890.23,-458.43 1947,-396 1957.76,-384.16 1952.91,-374.87 1947,-360 1938.87,-339.55 1927.65,-340.42 1913,-324 1893.58,-302.23 1872.21,-276.71 1857.27,-258.59"/>
<polygon fill="black" stroke="black" points="1859.54,-256.84 1850.48,-251.34 1854.13,-261.29 1859.54,-256.84"/>
</g>
<!-- ed25519 -->
<g id="node19" class="node">
<title>ed25519</title>
<ellipse fill="none" stroke="black" cx="1529" cy="-306" rx="42.65" ry="18"/>
<text text-anchor="middle" x="1529" y="-300.95" font-family="Times,serif" font-size="14.00">ed25519</text>
</g>
<!-- account&#45;&gt;ed25519 -->
<g id="edge29" class="edge">
<title>account&#45;&gt;ed25519</title>
<path fill="none" stroke="black" d="M1529.68,-432.04C1532.82,-421.74 1536.41,-408.27 1538,-396 1540.66,-375.53 1538.13,-352.33 1535.09,-334.75"/>
<polygon fill="black" stroke="black" points="1538.37,-334.27 1533.06,-325.09 1531.49,-335.57 1538.37,-334.27"/>
</g>
<!-- multi_ed25519 -->
<g id="node20" class="node">
<title>multi_ed25519</title>
<ellipse fill="none" stroke="black" cx="1657" cy="-378" rx="67.22" ry="18"/>
<text text-anchor="middle" x="1657" y="-372.95" font-family="Times,serif" font-size="14.00">multi_ed25519</text>
</g>
<!-- account&#45;&gt;multi_ed25519 -->
<g id="edge30" class="edge">
<title>account&#45;&gt;multi_ed25519</title>
<path fill="none" stroke="black" d="M1549.33,-435.67C1568.76,-425.44 1595.93,-411.14 1618.11,-399.47"/>
<polygon fill="black" stroke="black" points="1619.37,-402.23 1626.59,-394.48 1616.11,-396.04 1619.37,-402.23"/>
</g>
<!-- from_bcs -->
<g id="node21" class="node">
<title>from_bcs</title>
<ellipse fill="none" stroke="black" cx="634" cy="-234" rx="46.23" ry="18"/>
<text text-anchor="middle" x="634" y="-228.95" font-family="Times,serif" font-size="14.00">from_bcs</text>
</g>
<!-- account&#45;&gt;from_bcs -->
<g id="edge32" class="edge">
<title>account&#45;&gt;from_bcs</title>
<path fill="none" stroke="black" d="M1484.4,-447.69C1407.68,-444.38 1233.89,-433.08 1093,-396 1052.53,-385.35 1045.19,-374.67 1006,-360 889.63,-316.43 750.25,-271.49 679.72,-249.25"/>
<polygon fill="black" stroke="black" points="681,-245.67 670.41,-246.01 678.9,-252.35 681,-245.67"/>
</g>
<!-- create_signer -->
<g id="node22" class="node">
<title>create_signer</title>
<ellipse fill="none" stroke="black" cx="1878" cy="-378" rx="60.05" ry="18"/>
<text text-anchor="middle" x="1878" y="-372.95" font-family="Times,serif" font-size="14.00">create_signer</text>
</g>
<!-- account&#45;&gt;create_signer -->
<g id="edge34" class="edge">
<title>account&#45;&gt;create_signer</title>
<path fill="none" stroke="black" d="M1560.33,-442.59C1613.82,-433.04 1716.84,-414.25 1804,-396 1809.64,-394.82 1815.52,-393.54 1821.39,-392.24"/>
<polygon fill="black" stroke="black" points="1821.89,-395.49 1830.88,-389.89 1820.35,-388.66 1821.89,-395.49"/>
</g>
<!-- chain_id -->
<g id="node23" class="node">
<title>chain_id</title>
<ellipse fill="none" stroke="black" cx="1377" cy="-378" rx="42.65" ry="18"/>
<text text-anchor="middle" x="1377" y="-372.95" font-family="Times,serif" font-size="14.00">chain_id</text>
</g>
<!-- account&#45;&gt;chain_id -->
<g id="edge35" class="edge">
<title>account&#45;&gt;chain_id</title>
<path fill="none" stroke="black" d="M1497.38,-436.32C1474.23,-425.3 1440.42,-409.2 1414.52,-396.87"/>
<polygon fill="black" stroke="black" points="1416.2,-393.32 1405.67,-392.18 1413.19,-399.64 1416.2,-393.32"/>
</g>
<!-- coin&#45;&gt;option -->
<g id="edge36" class="edge">
<title>coin&#45;&gt;option</title>
<path fill="none" stroke="black" d="M903.72,-520.08C809.64,-516.64 499.53,-502.83 407,-468 294.61,-425.69 190,-427.09 190,-307 190,-307 190,-307 190,-233 190,-188.62 216.58,-142.93 235.74,-115.76"/>
<polygon fill="black" stroke="black" points="239.1,-118.1 242.16,-107.95 233.44,-113.97 239.1,-118.1"/>
</g>
<!-- coin&#45;&gt;string -->
<g id="edge37" class="edge">
<title>coin&#45;&gt;string</title>
<path fill="none" stroke="black" d="M903.74,-521.1C834.01,-520.63 644.15,-514.78 495,-468 429.74,-447.53 414.29,-436.25 359,-396 311.96,-361.75 267.58,-343.52 285,-288 297.55,-248.01 327.92,-209.61 349.23,-186.17"/>
<polygon fill="black" stroke="black" points="351.36,-188.94 355.62,-179.24 346.24,-184.17 351.36,-188.94"/>
</g>
<!-- coin&#45;&gt;signer -->
<g id="edge38" class="edge">
<title>coin&#45;&gt;signer</title>
<path fill="none" stroke="black" d="M958.25,-519.66C1081.67,-513.51 1589.02,-487.5 1747,-468 1923.67,-446.19 1982.03,-476.11 2141,-396 2192.67,-369.96 2236,-364.86 2236,-307 2236,-307 2236,-307 2236,-233 2236,-193.57 2236,-147.97 2236,-119.31"/>
<polygon fill="black" stroke="black" points="2239.5,-119.49 2236,-109.49 2232.5,-119.49 2239.5,-119.49"/>
</g>
<!-- coin&#45;&gt;type_info -->
<g id="edge40" class="edge">
<title>coin&#45;&gt;type_info</title>
<path fill="none" stroke="black" d="M938.66,-504.25C959.72,-460.34 1023.05,-341.61 1115,-288 1162.58,-260.26 1317.09,-245.11 1401.57,-238.72"/>
<polygon fill="black" stroke="black" points="1401.79,-242.14 1411.51,-237.91 1401.27,-235.16 1401.79,-242.14"/>
</g>
<!-- coin&#45;&gt;event -->
<g id="edge42" class="edge">
<title>coin&#45;&gt;event</title>
<path fill="none" stroke="black" d="M957.97,-519.41C1046.37,-514.06 1335.25,-495.5 1573,-468 1788.6,-443.06 1845.96,-450.66 2056,-396 2059.39,-395.12 2062.89,-394.07 2066.35,-392.93"/>
<polygon fill="black" stroke="black" points="2067.29,-395.95 2075.55,-389.32 2064.95,-389.35 2067.29,-395.95"/>
</g>
<!-- coin&#45;&gt;account -->
<g id="edge43" class="edge">
<title>coin&#45;&gt;account</title>
<path fill="none" stroke="black" d="M957.63,-517.86C1049.75,-506.98 1355.74,-470.86 1475.42,-456.73"/>
<polygon fill="black" stroke="black" points="1475.55,-460.13 1485.07,-455.48 1474.73,-453.17 1475.55,-460.13"/>
</g>
<!-- coin&#45;&gt;error -->
<g id="edge39" class="edge">
<title>coin&#45;&gt;error</title>
<path fill="none" stroke="black" d="M927.9,-503.7C918.55,-445.75 896.39,-255.88 984,-144 1006.44,-115.34 1046.8,-102.11 1077,-96.05"/>
<polygon fill="black" stroke="black" points="1077.41,-99.35 1086.62,-94.12 1076.16,-92.46 1077.41,-99.35"/>
</g>
<!-- coin&#45;&gt;system_addresses -->
<g id="edge41" class="edge">
<title>coin&#45;&gt;system_addresses</title>
<path fill="none" stroke="black" d="M957.89,-518.39C1016.13,-511.11 1153.35,-484.88 1211,-396 1222.74,-377.9 1218.82,-353.27 1212.76,-334.51"/>
<polygon fill="black" stroke="black" points="1215.74,-333.45 1209.05,-325.24 1209.15,-335.83 1215.74,-333.45"/>
</g>
<!-- aggregator -->
<g id="node24" class="node">
<title>aggregator</title>
<ellipse fill="none" stroke="black" cx="344" cy="-306" rx="50.33" ry="18"/>
<text text-anchor="middle" x="344" y="-300.95" font-family="Times,serif" font-size="14.00">aggregator</text>
</g>
<!-- coin&#45;&gt;aggregator -->
<g id="edge44" class="edge">
<title>coin&#45;&gt;aggregator</title>
<path fill="none" stroke="black" d="M905.02,-516.37C802.64,-497.95 430.6,-429.22 389,-396 369.59,-380.5 357.81,-354.43 351.19,-334.5"/>
<polygon fill="black" stroke="black" points="354.3,-333.71 348.04,-325.17 347.61,-335.75 354.3,-333.71"/>
</g>
<!-- aggregator_factory -->
<g id="node25" class="node">
<title>aggregator_factory</title>
<ellipse fill="none" stroke="black" cx="775" cy="-378" rx="81.04" ry="18"/>
<text text-anchor="middle" x="775" y="-372.95" font-family="Times,serif" font-size="14.00">aggregator_factory</text>
</g>
<!-- coin&#45;&gt;aggregator_factory -->
<g id="edge45" class="edge">
<title>coin&#45;&gt;aggregator_factory</title>
<path fill="none" stroke="black" d="M921.69,-504.68C910.19,-485.56 889.17,-453.74 865,-432 851.16,-419.55 833.94,-408.56 818.28,-399.86"/>
<polygon fill="black" stroke="black" points="820.24,-396.4 809.77,-394.75 816.92,-402.57 820.24,-396.4"/>
</g>
<!-- optional_aggregator -->
<g id="node26" class="node">
<title>optional_aggregator</title>
<ellipse fill="none" stroke="black" cx="771" cy="-450" rx="85.13" ry="18"/>
<text text-anchor="middle" x="771" y="-444.95" font-family="Times,serif" font-size="14.00">optional_aggregator</text>
</g>
<!-- coin&#45;&gt;optional_aggregator -->
<g id="edge46" class="edge">
<title>coin&#45;&gt;optional_aggregator</title>
<path fill="none" stroke="black" d="M908.75,-511.27C885.07,-500.91 846.93,-484.22 816.77,-471.03"/>
<polygon fill="black" stroke="black" points="818.45,-467.5 807.89,-466.7 815.65,-473.92 818.45,-467.5"/>
</g>
<!-- tablist&#45;&gt;option -->
<g id="edge47" class="edge">
<title>tablist&#45;&gt;option</title>
<path fill="none" stroke="black" d="M633.46,-592.03C536.64,-588.81 258.39,-576.54 176,-540 121.61,-515.88 76,-510.5 76,-451 76,-451 76,-451 76,-233 76,-162.49 162.3,-121.44 215.06,-102.93"/>
<polygon fill="black" stroke="black" points="216.09,-105.93 224.44,-99.42 213.85,-99.3 216.09,-105.93"/>
</g>
<!-- table_with_length -->
<g id="node27" class="node">
<title>table_with_length</title>
<ellipse fill="none" stroke="black" cx="561" cy="-378" rx="77.45" ry="18"/>
<text text-anchor="middle" x="561" y="-372.95" font-family="Times,serif" font-size="14.00">table_with_length</text>
</g>
<!-- tablist&#45;&gt;table_with_length -->
<g id="edge48" class="edge">
<title>tablist&#45;&gt;table_with_length</title>
<path fill="none" stroke="black" d="M658.68,-576.21C640.39,-539.28 596.53,-450.74 574.34,-405.94"/>
<polygon fill="black" stroke="black" points="577.15,-404.72 569.57,-397.31 570.88,-407.82 577.15,-404.72"/>
</g>
<!-- incentives&#45;&gt;signer -->
<g id="edge50" class="edge">
<title>incentives&#45;&gt;signer</title>
<path fill="none" stroke="black" d="M1046.9,-662.52C1283.04,-649 2312,-574.73 2312,-307 2312,-307 2312,-307 2312,-233 2312,-187.03 2280.65,-141.53 2258.22,-114.87"/>
<polygon fill="black" stroke="black" points="2260.22,-112.83 2251.02,-107.57 2254.93,-117.42 2260.22,-112.83"/>
</g>
<!-- incentives&#45;&gt;type_info -->
<g id="edge51" class="edge">
<title>incentives&#45;&gt;type_info</title>
<path fill="none" stroke="black" d="M1047.31,-663.93C1133.76,-659.19 1306,-635.6 1306,-523 1306,-523 1306,-523 1306,-377 1306,-316.23 1371.67,-274 1416.68,-252.19"/>
<polygon fill="black" stroke="black" points="1417.93,-255 1425.51,-247.59 1414.96,-248.66 1417.93,-255"/>
</g>
<!-- incentives&#45;&gt;coin -->
<g id="edge52" class="edge">
<title>incentives&#45;&gt;coin</title>
<path fill="none" stroke="black" d="M984.46,-648.8C976.07,-638.78 965.86,-625.32 959,-612 948.97,-592.54 941.73,-568.81 937.12,-550.76"/>
<polygon fill="black" stroke="black" points="940.29,-549.97 934.54,-541.07 933.49,-551.61 940.29,-549.97"/>
</g>
<!-- incentives&#45;&gt;tablist -->
<g id="edge54" class="edge">
<title>incentives&#45;&gt;tablist</title>
<path fill="none" stroke="black" d="M957.62,-656.28C893.7,-642.8 771.69,-617.07 708,-603.64"/>
<polygon fill="black" stroke="black" points="709.06,-600.08 698.55,-601.44 707.61,-606.93 709.06,-600.08"/>
</g>
<!-- incentives&#45;&gt;vector -->
<g id="edge49" class="edge">
<title>incentives&#45;&gt;vector</title>
<path fill="none" stroke="black" d="M950.76,-663.73C784.64,-658.56 238.64,-634.54 96,-540 26.56,-493.97 0,-462.31 0,-379 0,-379 0,-379 0,-161 0,-91.27 230.99,-43.26 328.93,-26.04"/>
<polygon fill="black" stroke="black" points="329.38,-29.34 338.64,-24.19 328.19,-22.44 329.38,-29.34"/>
</g>
<!-- aptos_coin -->
<g id="node28" class="node">
<title>aptos_coin</title>
<ellipse fill="none" stroke="black" cx="1019" cy="-594" rx="50.84" ry="18"/>
<text text-anchor="middle" x="1019" y="-588.95" font-family="Times,serif" font-size="14.00">aptos_coin</text>
</g>
<!-- incentives&#45;&gt;aptos_coin -->
<g id="edge53" class="edge">
<title>incentives&#45;&gt;aptos_coin</title>
<path fill="none" stroke="black" d="M1003.94,-647.7C1006.1,-640.15 1008.68,-631.12 1011.09,-622.68"/>
<polygon fill="black" stroke="black" points="1014.73,-623.68 1014.11,-613.1 1008,-621.76 1014.73,-623.68"/>
</g>
<!-- resource_account -->
<g id="node29" class="node">
<title>resource_account</title>
<ellipse fill="none" stroke="black" cx="1412" cy="-522" rx="75.41" ry="18"/>
<text text-anchor="middle" x="1412" y="-516.95" font-family="Times,serif" font-size="14.00">resource_account</text>
</g>
<!-- incentives&#45;&gt;resource_account -->
<g id="edge55" class="edge">
<title>incentives&#45;&gt;resource_account</title>
<path fill="none" stroke="black" d="M1047.71,-665.8C1113.11,-664.96 1231.33,-656.62 1320,-612 1349.74,-597.03 1376.18,-569.1 1393,-548.5"/>
<polygon fill="black" stroke="black" points="1396.34,-550.92 1399.81,-540.91 1390.86,-546.57 1396.34,-550.92"/>
</g>
<!-- features&#45;&gt;signer -->
<g id="edge56" class="edge">
<title>features&#45;&gt;signer</title>
<path fill="none" stroke="black" d="M1674.16,-153.64C1691.07,-150.37 1711.51,-146.67 1730,-144 1900.01,-119.43 2103.73,-101.6 2191.83,-94.45"/>
<polygon fill="black" stroke="black" points="2192.05,-97.87 2201.73,-93.58 2191.49,-90.89 2192.05,-97.87"/>
</g>
<!-- features&#45;&gt;error -->
<g id="edge57" class="edge">
<title>features&#45;&gt;error</title>
<path fill="none" stroke="black" d="M1607.15,-150.17C1599.65,-147.85 1591.6,-145.61 1584,-144 1427.57,-110.84 1237.05,-97.42 1155.79,-92.92"/>
<polygon fill="black" stroke="black" points="1156.24,-89.39 1146.07,-92.35 1155.87,-96.38 1156.24,-89.39"/>
</g>
<!-- system_addresses&#45;&gt;signer -->
<g id="edge58" class="edge">
<title>system_addresses&#45;&gt;signer</title>
<path fill="none" stroke="black" d="M1230.12,-288.94C1268.52,-268.53 1338.74,-233.82 1403,-216 1525.6,-182 1561.45,-200.62 1687,-180 1766.65,-166.92 1785.46,-157.71 1865,-144 1983.13,-123.63 2123.39,-105.13 2192.74,-96.36"/>
<polygon fill="black" stroke="black" points="2193.16,-99.71 2202.65,-94.98 2192.29,-92.76 2193.16,-99.71"/>
</g>
<!-- system_addresses&#45;&gt;error -->
<g id="edge59" class="edge">
<title>system_addresses&#45;&gt;error</title>
<path fill="none" stroke="black" d="M1194.19,-287.85C1179.45,-250.74 1144.5,-162.75 1126.75,-118.05"/>
<polygon fill="black" stroke="black" points="1129.67,-116.94 1122.73,-108.94 1123.17,-119.52 1129.67,-116.94"/>
</g>
<!-- ed25519&#45;&gt;option -->
<g id="edge60" class="edge">
<title>ed25519&#45;&gt;option</title>
<path fill="none" stroke="black" d="M1494.01,-295.32C1391.56,-267.34 1083.04,-185.74 822,-144 629.25,-113.18 396.57,-98.37 300.19,-93.21"/>
<polygon fill="black" stroke="black" points="300.56,-89.68 290.39,-92.65 300.19,-96.67 300.56,-89.68"/>
</g>
<!-- ed25519&#45;&gt;type_info -->
<g id="edge63" class="edge">
<title>ed25519&#45;&gt;type_info</title>
<path fill="none" stroke="black" d="M1512.89,-289.12C1503.72,-280.08 1492.06,-268.58 1481.85,-258.52"/>
<polygon fill="black" stroke="black" points="1484.63,-256.35 1475.05,-251.82 1479.71,-261.33 1484.63,-256.35"/>
</g>
<!-- ed25519&#45;&gt;error -->
<g id="edge61" class="edge">
<title>ed25519&#45;&gt;error</title>
<path fill="none" stroke="black" d="M1530.49,-287.62C1531.22,-268.09 1529.41,-236.45 1513,-216 1424.14,-105.24 1237.78,-90.87 1155.96,-90.17"/>
<polygon fill="black" stroke="black" points="1156.14,-86.67 1146.13,-90.15 1156.12,-93.67 1156.14,-86.67"/>
</g>
<!-- ed25519&#45;&gt;bcs -->
<g id="edge62" class="edge">
<title>ed25519&#45;&gt;bcs</title>
<path fill="none" stroke="black" d="M1559.76,-293.26C1628.97,-266.84 1796.46,-202.9 1867.87,-175.65"/>
<polygon fill="black" stroke="black" points="1868.98,-178.59 1877.07,-171.75 1866.48,-172.05 1868.98,-178.59"/>
</g>
<!-- ed25519&#45;&gt;hash -->
<g id="edge64" class="edge">
<title>ed25519&#45;&gt;hash</title>
<path fill="none" stroke="black" d="M1565.97,-296.63C1625.53,-283.13 1742.07,-256.73 1801.4,-243.29"/>
<polygon fill="black" stroke="black" points="1801.81,-246.56 1810.79,-240.94 1800.26,-239.73 1801.81,-246.56"/>
</g>
<!-- multi_ed25519&#45;&gt;option -->
<g id="edge65" class="edge">
<title>multi_ed25519&#45;&gt;option</title>
<path fill="none" stroke="black" d="M1609.56,-364.83C1539.32,-346.98 1403.41,-313.1 1287,-288 905.07,-205.66 439.78,-123.19 298.01,-98.46"/>
<polygon fill="black" stroke="black" points="298.67,-94.84 288.21,-96.57 297.46,-101.74 298.67,-94.84"/>
</g>
<!-- multi_ed25519&#45;&gt;error -->
<g id="edge66" class="edge">
<title>multi_ed25519&#45;&gt;error</title>
<path fill="none" stroke="black" d="M1649.04,-359.79C1627.15,-314.75 1561.25,-193.51 1465,-144 1411.52,-116.49 1234.9,-100.01 1155.4,-93.82"/>
<polygon fill="black" stroke="black" points="1156.08,-90.28 1145.85,-93.01 1155.55,-97.26 1156.08,-90.28"/>
</g>
<!-- multi_ed25519&#45;&gt;features -->
<g id="edge67" class="edge">
<title>multi_ed25519&#45;&gt;features</title>
<path fill="none" stroke="black" d="M1655.48,-359.85C1652.2,-322.99 1644.47,-235.92 1640.48,-190.96"/>
<polygon fill="black" stroke="black" points="1643.9,-190.88 1639.53,-181.23 1636.93,-191.5 1643.9,-190.88"/>
</g>
<!-- multi_ed25519&#45;&gt;bcs -->
<g id="edge68" class="edge">
<title>multi_ed25519&#45;&gt;bcs</title>
<path fill="none" stroke="black" d="M1668.03,-359.83C1680.26,-341.31 1701.04,-311.36 1722,-288 1753.72,-252.64 1762.15,-243.34 1801,-216 1822.58,-200.81 1849.04,-186.97 1869.32,-177.25"/>
<polygon fill="black" stroke="black" points="1870.46,-180.11 1878.02,-172.68 1867.48,-173.78 1870.46,-180.11"/>
</g>
<!-- multi_ed25519&#45;&gt;hash -->
<g id="edge69" class="edge">
<title>multi_ed25519&#45;&gt;hash</title>
<path fill="none" stroke="black" d="M1678.12,-360.43C1711.47,-334.26 1776.25,-283.44 1812.27,-255.18"/>
<polygon fill="black" stroke="black" points="1814.07,-257.44 1819.78,-248.51 1809.75,-251.93 1814.07,-257.44"/>
</g>
<!-- multi_ed25519&#45;&gt;ed25519 -->
<g id="edge70" class="edge">
<title>multi_ed25519&#45;&gt;ed25519</title>
<path fill="none" stroke="black" d="M1628.27,-361.29C1609.14,-350.83 1583.9,-337.02 1563.66,-325.95"/>
<polygon fill="black" stroke="black" points="1565.62,-322.49 1555.17,-320.76 1562.26,-328.63 1565.62,-322.49"/>
</g>
<!-- from_bcs&#45;&gt;string -->
<g id="edge71" class="edge">
<title>from_bcs&#45;&gt;string</title>
<path fill="none" stroke="black" d="M596.74,-223.05C547.38,-209.86 460.74,-186.71 410.68,-173.33"/>
<polygon fill="black" stroke="black" points="411.85,-169.76 401.28,-170.56 410.04,-176.52 411.85,-169.76"/>
</g>
<!-- chain_id&#45;&gt;system_addresses -->
<g id="edge72" class="edge">
<title>chain_id&#45;&gt;system_addresses</title>
<path fill="none" stroke="black" d="M1346.74,-364.97C1319.9,-354.29 1280.22,-338.51 1249.04,-326.11"/>
<polygon fill="black" stroke="black" points="1250.41,-322.49 1239.82,-322.04 1247.82,-328.99 1250.41,-322.49"/>
</g>
<!-- aggregator_factory&#45;&gt;table -->
<g id="edge74" class="edge">
<title>aggregator_factory&#45;&gt;table</title>
<path fill="none" stroke="black" d="M768.57,-359.7C765.67,-351.87 762.16,-342.44 758.93,-333.73"/>
<polygon fill="black" stroke="black" points="761.94,-332.78 755.17,-324.62 755.37,-335.22 761.94,-332.78"/>
</g>
<!-- aggregator_factory&#45;&gt;error -->
<g id="edge73" class="edge">
<title>aggregator_factory&#45;&gt;error</title>
<path fill="none" stroke="black" d="M779.79,-359.64C793.64,-310.73 834.94,-173.41 870,-144 900.96,-118.03 1015.63,-101.92 1076.86,-94.98"/>
<polygon fill="black" stroke="black" points="1077.08,-98.36 1086.64,-93.79 1076.32,-91.41 1077.08,-98.36"/>
</g>
<!-- aggregator_factory&#45;&gt;system_addresses -->
<g id="edge75" class="edge">
<title>aggregator_factory&#45;&gt;system_addresses</title>
<path fill="none" stroke="black" d="M838.78,-366.52C916.41,-353.76 1047.2,-332.27 1128.56,-318.9"/>
<polygon fill="black" stroke="black" points="1128.91,-322.23 1138.21,-317.15 1127.78,-315.32 1128.91,-322.23"/>
</g>
<!-- aggregator_factory&#45;&gt;aggregator -->
<g id="edge76" class="edge">
<title>aggregator_factory&#45;&gt;aggregator</title>
<path fill="none" stroke="black" d="M710.94,-366.6C626.73,-352.92 480.13,-329.11 400.09,-316.11"/>
<polygon fill="black" stroke="black" points="400.68,-312.5 390.25,-314.35 399.56,-319.41 400.68,-312.5"/>
</g>
<!-- optional_aggregator&#45;&gt;option -->
<g id="edge77" class="edge">
<title>optional_aggregator&#45;&gt;option</title>
<path fill="none" stroke="black" d="M685.84,-448.41C606.49,-445.28 486.16,-433.88 389,-396 336.62,-375.58 314.22,-372.03 285,-324 245.52,-259.12 247.6,-165.34 251.67,-119.04"/>
<polygon fill="black" stroke="black" points="255.23,-119.63 252.72,-109.33 248.26,-118.94 255.23,-119.63"/>
</g>
<!-- optional_aggregator&#45;&gt;error -->
<g id="edge78" class="edge">
<title>optional_aggregator&#45;&gt;error</title>
<path fill="none" stroke="black" d="M814,-434.05C832.33,-425.6 852.35,-413.21 865,-396 888.96,-363.41 884,-347.45 884,-307 884,-307 884,-307 884,-233 884,-143.49 1011.17,-108.69 1077.21,-96.65"/>
<polygon fill="black" stroke="black" points="1077.76,-99.93 1087.02,-94.78 1076.57,-93.03 1077.76,-99.93"/>
</g>
<!-- optional_aggregator&#45;&gt;aggregator -->
<g id="edge79" class="edge">
<title>optional_aggregator&#45;&gt;aggregator</title>
<path fill="none" stroke="black" d="M685.94,-448.48C617.06,-445.04 519.16,-433.13 442,-396 410.65,-380.91 382.11,-352.55 364.02,-331.89"/>
<polygon fill="black" stroke="black" points="366.08,-329.9 356.93,-324.56 360.75,-334.44 366.08,-329.9"/>
</g>
<!-- optional_aggregator&#45;&gt;aggregator_factory -->
<g id="edge80" class="edge">
<title>optional_aggregator&#45;&gt;aggregator_factory</title>
<path fill="none" stroke="black" d="M771.99,-431.7C772.42,-424.24 772.92,-415.32 773.4,-406.97"/>
<polygon fill="black" stroke="black" points="776.95,-407.29 774.02,-397.1 769.96,-406.89 776.95,-407.29"/>
</g>
<!-- table_with_length&#45;&gt;table -->
<g id="edge82" class="edge">
<title>table_with_length&#45;&gt;table</title>
<path fill="none" stroke="black" d="M600.87,-362.15C634.57,-349.61 682.35,-331.82 714.45,-319.87"/>
<polygon fill="black" stroke="black" points="715.54,-322.82 723.69,-316.05 713.09,-316.26 715.54,-322.82"/>
</g>
<!-- table_with_length&#45;&gt;error -->
<g id="edge81" class="edge">
<title>table_with_length&#45;&gt;error</title>
<path fill="none" stroke="black" d="M578.76,-360.24C630.58,-311.67 781.7,-172.51 842,-144 919.65,-107.28 1021.16,-96 1076.24,-92.54"/>
<polygon fill="black" stroke="black" points="1076.16,-95.99 1085.94,-91.93 1075.76,-89 1076.16,-95.99"/>
</g>
<!-- aptos_coin&#45;&gt;option -->
<g id="edge84" class="edge">
<title>aptos_coin&#45;&gt;option</title>
<path fill="none" stroke="black" d="M968.32,-591.46C782.88,-584.48 152,-548.28 152,-379 152,-379 152,-379 152,-233 152,-182 196.08,-136.96 226.57,-111.9"/>
<polygon fill="black" stroke="black" points="228.49,-114.05 234.14,-105.08 224.14,-108.57 228.49,-114.05"/>
</g>
<!-- aptos_coin&#45;&gt;string -->
<g id="edge85" class="edge">
<title>aptos_coin&#45;&gt;string</title>
<path fill="none" stroke="black" d="M967.9,-593.39C893.84,-592.29 753.56,-583.89 644,-540 541.99,-499.13 507.07,-485.28 443,-396 430.78,-378.97 394.9,-248.54 379.34,-190.59"/>
<polygon fill="black" stroke="black" points="382.47,-189.78 376.51,-181.03 375.71,-191.59 382.47,-189.78"/>
</g>
<!-- aptos_coin&#45;&gt;signer -->
<g id="edge86" class="edge">
<title>aptos_coin&#45;&gt;signer</title>
<path fill="none" stroke="black" d="M1070.14,-592.49C1305.62,-588.78 2274,-558.26 2274,-307 2274,-307 2274,-307 2274,-233 2274,-191.59 2258.73,-145.62 2247.55,-117.51"/>
<polygon fill="black" stroke="black" points="2250.54,-116.58 2243.51,-108.66 2244.07,-119.24 2250.54,-116.58"/>
</g>
<!-- aptos_coin&#45;&gt;coin -->
<g id="edge89" class="edge">
<title>aptos_coin&#45;&gt;coin</title>
<path fill="none" stroke="black" d="M999.03,-577.12C986.39,-567.06 969.92,-553.96 956.35,-543.17"/>
<polygon fill="black" stroke="black" points="958.93,-539.95 948.93,-536.47 954.58,-545.43 958.93,-539.95"/>
</g>
<!-- aptos_coin&#45;&gt;vector -->
<g id="edge83" class="edge">
<title>aptos_coin&#45;&gt;vector</title>
<path fill="none" stroke="black" d="M969.66,-588.93C895.37,-580.12 755.17,-552.64 677,-468 643.2,-431.4 669.77,-404.31 647,-360 610.81,-289.6 451.66,-108.24 393.44,-42.9"/>
<polygon fill="black" stroke="black" points="396.49,-40.96 387.22,-35.83 391.27,-45.62 396.49,-40.96"/>
</g>
<!-- aptos_coin&#45;&gt;error -->
<g id="edge87" class="edge">
<title>aptos_coin&#45;&gt;error</title>
<path fill="none" stroke="black" d="M1016.83,-575.62C1011.47,-531.06 998,-409.06 998,-307 998,-307 998,-307 998,-233 998,-177.68 1051.63,-132.41 1086.58,-108.79"/>
<polygon fill="black" stroke="black" points="1088,-111.38 1094.45,-102.98 1084.16,-105.53 1088,-111.38"/>
</g>
<!-- aptos_coin&#45;&gt;system_addresses -->
<g id="edge88" class="edge">
<title>aptos_coin&#45;&gt;system_addresses</title>
<path fill="none" stroke="black" d="M1045.4,-578.29C1092.83,-550.15 1191.06,-483.62 1229,-396 1237.85,-375.56 1229.11,-351.39 1219.13,-333.4"/>
<polygon fill="black" stroke="black" points="1221.7,-331.89 1213.55,-325.11 1215.69,-335.49 1221.7,-331.89"/>
</g>
<!-- resource_account&#45;&gt;account -->
<g id="edge91" class="edge">
<title>resource_account&#45;&gt;account</title>
<path fill="none" stroke="black" d="M1437.98,-504.76C1454.22,-494.61 1475.26,-481.46 1492.46,-470.71"/>
<polygon fill="black" stroke="black" points="1493.95,-473.29 1500.57,-465.02 1490.24,-467.35 1493.95,-473.29"/>
</g>
<!-- resource_account&#45;&gt;bcs -->
<g id="edge90" class="edge">
<title>resource_account&#45;&gt;bcs</title>
<path fill="none" stroke="black" d="M1487.36,-519.89C1656.58,-515.62 2058.41,-495.05 2141,-396 2193.05,-333.58 2161.54,-306.81 2047,-216 2014.87,-190.52 1969.39,-176.61 1937.76,-169.52"/>
<polygon fill="black" stroke="black" points="1938.71,-165.93 1928.2,-167.28 1937.26,-172.78 1938.71,-165.93"/>
</g>
<!-- timestamp -->
<g id="node30" class="node">
<title>timestamp</title>
<ellipse fill="none" stroke="black" cx="1152" cy="-378" rx="50.33" ry="18"/>
<text text-anchor="middle" x="1152" y="-372.95" font-family="Times,serif" font-size="14.00">timestamp</text>
</g>
<!-- resource_account&#45;&gt;timestamp -->
<g id="edge92" class="edge">
<title>resource_account&#45;&gt;timestamp</title>
<path fill="none" stroke="black" d="M1382.68,-504.99C1334.9,-478.89 1240.35,-427.25 1188.36,-398.86"/>
<polygon fill="black" stroke="black" points="1190.32,-395.39 1179.87,-393.67 1186.96,-401.54 1190.32,-395.39"/>
</g>
<!-- timestamp&#45;&gt;error -->
<g id="edge93" class="edge">
<title>timestamp&#45;&gt;error</title>
<path fill="none" stroke="black" d="M1136.73,-360.78C1128.56,-350.95 1119.31,-337.7 1115,-324 1092.61,-252.83 1103,-163.26 1110.56,-118.75"/>
<polygon fill="black" stroke="black" points="1114.14,-119.66 1112.45,-109.2 1107.24,-118.42 1114.14,-119.66"/>
</g>
<!-- timestamp&#45;&gt;system_addresses -->
<g id="edge94" class="edge">
<title>timestamp&#45;&gt;system_addresses</title>
<path fill="none" stroke="black" d="M1163.86,-360.05C1169.64,-351.8 1176.71,-341.7 1183.12,-332.54"/>
<polygon fill="black" stroke="black" points="1186.38,-334.99 1189.25,-324.79 1180.65,-330.97 1186.38,-334.99"/>
</g>
</g>
</svg>
