<?xml version="1.0" encoding="UTF-8" standalone="no"?>
<!DOCTYPE svg PUBLIC "-//W3C//DTD SVG 1.1//EN"
 "http://www.w3.org/Graphics/SVG/1.1/DTD/svg11.dtd">
<!-- Generated by graphviz version 9.0.0 (20230911.1827)
 -->
<!-- Title: G Pages: 1 -->
<svg width="2358pt" height="764pt"
 viewBox="0.00 0.00 2358.00 764.00" xmlns="http://www.w3.org/2000/svg" xmlns:xlink="http://www.w3.org/1999/xlink">
<g id="graph0" class="graph" transform="scale(1 1) rotate(0) translate(4 760)">
<title>G</title>
<polygon fill="white" stroke="none" points="-4,4 -4,-760 2354,-760 2354,4 -4,4"/>
<!-- registry -->
<g id="node1" class="node">
<title>registry</title>
<ellipse fill="none" stroke="black" cx="960" cy="-738" rx="39.07" ry="18"/>
<text text-anchor="middle" x="960" y="-732.95" font-family="Times,serif" font-size="14.00">registry</text>
</g>
<!-- option -->
<g id="node2" class="node">
<title>option</title>
<ellipse fill="none" stroke="black" cx="255" cy="-90" rx="34.46" ry="18"/>
<text text-anchor="middle" x="255" y="-84.95" font-family="Times,serif" font-size="14.00">option</text>
</g>
<!-- registry&#45;&gt;option -->
<g id="edge1" class="edge">
<title>registry&#45;&gt;option</title>
<path fill="none" stroke="black" d="M920.76,-736.78C757.79,-735.57 139.29,-728.09 65,-684 -52.02,-614.54 38,-515.09 38,-379 38,-379 38,-379 38,-233 38,-186.96 55,-172.7 91,-144 125.62,-116.39 175.02,-102.99 210.54,-96.6"/>
<polygon fill="black" stroke="black" points="210.77,-100.11 220.05,-95.01 209.61,-93.21 210.77,-100.11"/>
</g>
<!-- string -->
<g id="node3" class="node">
<title>string</title>
<ellipse fill="none" stroke="black" cx="372" cy="-162" rx="31.9" ry="18"/>
<text text-anchor="middle" x="372" y="-156.95" font-family="Times,serif" font-size="14.00">string</text>
</g>
<!-- registry&#45;&gt;string -->
<g id="edge2" class="edge">
<title>registry&#45;&gt;string</title>
<path fill="none" stroke="black" d="M924.46,-730.15C763.89,-698.22 114,-557.92 114,-379 114,-379 114,-379 114,-305 114,-207.94 255.88,-176.74 329.22,-167.1"/>
<polygon fill="black" stroke="black" points="329.36,-170.61 338.86,-165.92 328.51,-163.66 329.36,-170.61"/>
</g>
<!-- signer -->
<g id="node4" class="node">
<title>signer</title>
<ellipse fill="none" stroke="black" cx="2236" cy="-90" rx="33.44" ry="18"/>
<text text-anchor="middle" x="2236" y="-84.95" font-family="Times,serif" font-size="14.00">signer</text>
</g>
<!-- registry&#45;&gt;signer -->
<g id="edge3" class="edge">
<title>registry&#45;&gt;signer</title>
<path fill="none" stroke="black" d="M999.36,-737.22C1225.57,-737.96 2350,-734.63 2350,-595 2350,-595 2350,-595 2350,-233 2350,-179.54 2300.26,-134.75 2266.49,-110.5"/>
<polygon fill="black" stroke="black" points="2268.9,-107.91 2258.69,-105.08 2264.9,-113.66 2268.9,-107.91"/>
</g>
<!-- type_info -->
<g id="node5" class="node">
<title>type_info</title>
<ellipse fill="none" stroke="black" cx="1458" cy="-234" rx="46.23" ry="18"/>
<text text-anchor="middle" x="1458" y="-228.95" font-family="Times,serif" font-size="14.00">type_info</text>
</g>
<!-- registry&#45;&gt;type_info -->
<g id="edge4" class="edge">
<title>registry&#45;&gt;type_info</title>
<path fill="none" stroke="black" d="M999.44,-736.72C1210.61,-734.7 2198,-718.65 2198,-595 2198,-595 2198,-595 2198,-449 2198,-330.33 2099.48,-319.23 1985,-288 1818.98,-242.71 1614.06,-235.31 1515.84,-234.61"/>
<polygon fill="black" stroke="black" points="1515.93,-231.11 1505.91,-234.56 1515.89,-238.11 1515.93,-231.11"/>
</g>
<!-- table -->
<g id="node6" class="node">
<title>table</title>
<ellipse fill="none" stroke="black" cx="749" cy="-306" rx="28.83" ry="18"/>
<text text-anchor="middle" x="749" y="-300.95" font-family="Times,serif" font-size="14.00">table</text>
</g>
<!-- registry&#45;&gt;table -->
<g id="edge5" class="edge">
<title>registry&#45;&gt;table</title>
<path fill="none" stroke="black" d="M920.71,-735.95C760.67,-731.46 165.08,-712.88 138,-684 63.39,-604.43 -212.93,-691.56 475,-360 552.06,-322.86 653.14,-311.74 708.47,-308.41"/>
<polygon fill="black" stroke="black" points="708.57,-311.91 718.37,-307.88 708.2,-304.92 708.57,-311.91"/>
</g>
<!-- event -->
<g id="node7" class="node">
<title>event</title>
<ellipse fill="none" stroke="black" cx="2101" cy="-378" rx="30.88" ry="18"/>
<text text-anchor="middle" x="2101" y="-372.95" font-family="Times,serif" font-size="14.00">event</text>
</g>
<!-- registry&#45;&gt;event -->
<g id="edge6" class="edge">
<title>registry&#45;&gt;event</title>
<path fill="none" stroke="black" d="M998.73,-734.27C1065.75,-728.89 1207.27,-714.7 1323,-684 1621.6,-604.79 1961.73,-446.33 2067.71,-395.26"/>
<polygon fill="black" stroke="black" points="2068.95,-398.55 2076.43,-391.05 2065.9,-392.25 2068.95,-398.55"/>
</g>
<!-- account -->
<g id="node8" class="node">
<title>account</title>
<ellipse fill="none" stroke="black" cx="1524" cy="-450" rx="39.58" ry="18"/>
<text text-anchor="middle" x="1524" y="-444.95" font-family="Times,serif" font-size="14.00">account</text>
</g>
<!-- registry&#45;&gt;account -->
<g id="edge7" class="edge">
<title>registry&#45;&gt;account</title>
<path fill="none" stroke="black" d="M999.07,-735.26C1098.99,-728.56 1365.16,-696.17 1496,-540 1510.32,-522.91 1517.33,-498.47 1520.76,-479.52"/>
<polygon fill="black" stroke="black" points="1524.2,-480.19 1522.27,-469.77 1517.28,-479.12 1524.2,-480.19"/>
</g>
<!-- coin -->
<g id="node9" class="node">
<title>coin</title>
<ellipse fill="none" stroke="black" cx="931" cy="-522" rx="27" ry="18"/>
<text text-anchor="middle" x="931" y="-516.95" font-family="Times,serif" font-size="14.00">coin</text>
</g>
<!-- registry&#45;&gt;coin -->
<g id="edge8" class="edge">
<title>registry&#45;&gt;coin</title>
<path fill="none" stroke="black" d="M953.02,-720.12C949.09,-709.86 944.48,-696.39 942,-684 932.82,-638.21 930.93,-583.78 930.73,-551.39"/>
<polygon fill="black" stroke="black" points="934.23,-551.62 930.73,-541.63 927.23,-551.63 934.23,-551.62"/>
</g>
<!-- tablist -->
<g id="node10" class="node">
<title>tablist</title>
<ellipse fill="none" stroke="black" cx="667" cy="-594" rx="33.44" ry="18"/>
<text text-anchor="middle" x="667" y="-588.95" font-family="Times,serif" font-size="14.00">tablist</text>
</g>
<!-- registry&#45;&gt;tablist -->
<g id="edge9" class="edge">
<title>registry&#45;&gt;tablist</title>
<path fill="none" stroke="black" d="M933.74,-724.27C880.71,-698.58 760.87,-640.5 701.57,-611.75"/>
<polygon fill="black" stroke="black" points="703.12,-608.62 692.6,-607.4 700.07,-614.92 703.12,-608.62"/>
</g>
<!-- incentives -->
<g id="node11" class="node">
<title>incentives</title>
<ellipse fill="none" stroke="black" cx="999" cy="-666" rx="48.28" ry="18"/>
<text text-anchor="middle" x="999" y="-660.95" font-family="Times,serif" font-size="14.00">incentives</text>
</g>
<!-- registry&#45;&gt;incentives -->
<g id="edge10" class="edge">
<title>registry&#45;&gt;incentives</title>
<path fill="none" stroke="black" d="M969.44,-720.05C973.85,-712.14 979.2,-702.54 984.13,-693.69"/>
<polygon fill="black" stroke="black" points="987.1,-695.55 988.91,-685.11 980.98,-692.14 987.1,-695.55"/>
</g>
<!-- vector -->
<g id="node12" class="node">
<title>vector</title>
<ellipse fill="none" stroke="black" cx="372" cy="-18" rx="33.95" ry="18"/>
<text text-anchor="middle" x="372" y="-12.95" font-family="Times,serif" font-size="14.00">vector</text>
</g>
<!-- option&#45;&gt;vector -->
<g id="edge11" class="edge">
<title>option&#45;&gt;vector</title>
<path fill="none" stroke="black" d="M277.01,-75.83C294.9,-65.13 320.38,-49.88 340.45,-37.88"/>
<polygon fill="black" stroke="black" points="342.01,-41.02 348.79,-32.88 338.41,-35.02 342.01,-41.02"/>
</g>
<!-- string&#45;&gt;option -->
<g id="edge13" class="edge">
<title>string&#45;&gt;option</title>
<path fill="none" stroke="black" d="M350.54,-148.16C332.71,-137.49 307.07,-122.15 286.84,-110.05"/>
<polygon fill="black" stroke="black" points="288.8,-107.14 278.42,-105.01 285.2,-113.15 288.8,-107.14"/>
</g>
<!-- string&#45;&gt;vector -->
<g id="edge12" class="edge">
<title>string&#45;&gt;vector</title>
<path fill="none" stroke="black" d="M372,-143.59C372,-119.61 372,-76.14 372,-47.42"/>
<polygon fill="black" stroke="black" points="375.5,-47.62 372,-37.62 368.5,-47.62 375.5,-47.62"/>
</g>
<!-- type_info&#45;&gt;string -->
<g id="edge14" class="edge">
<title>type_info&#45;&gt;string</title>
<path fill="none" stroke="black" d="M1412.37,-230.06C1234.49,-218.59 588.75,-176.97 415.2,-165.78"/>
<polygon fill="black" stroke="black" points="415.48,-162.3 405.27,-165.14 415.02,-169.28 415.48,-162.3"/>
</g>
<!-- error -->
<g id="node13" class="node">
<title>error</title>
<ellipse fill="none" stroke="black" cx="1116" cy="-90" rx="28.83" ry="18"/>
<text text-anchor="middle" x="1116" y="-84.95" font-family="Times,serif" font-size="14.00">error</text>
</g>
<!-- type_info&#45;&gt;error -->
<g id="edge15" class="edge">
<title>type_info&#45;&gt;error</title>
<path fill="none" stroke="black" d="M1433.63,-218.41C1401.21,-199.45 1341.75,-166.13 1288,-144 1242.77,-125.37 1188.53,-109.71 1153.22,-100.35"/>
<polygon fill="black" stroke="black" points="1154.48,-97.06 1143.92,-97.92 1152.71,-103.83 1154.48,-97.06"/>
</g>
<!-- features -->
<g id="node14" class="node">
<title>features</title>
<ellipse fill="none" stroke="black" cx="1638" cy="-162" rx="40.09" ry="18"/>
<text text-anchor="middle" x="1638" y="-156.95" font-family="Times,serif" font-size="14.00">features</text>
</g>
<!-- type_info&#45;&gt;features -->
<g id="edge16" class="edge">
<title>type_info&#45;&gt;features</title>
<path fill="none" stroke="black" d="M1489.77,-220.65C1519.87,-208.94 1565.21,-191.31 1597.81,-178.63"/>
<polygon fill="black" stroke="black" points="1598.88,-181.97 1606.93,-175.08 1596.34,-175.44 1598.88,-181.97"/>
</g>
<!-- bcs -->
<g id="node15" class="node">
<title>bcs</title>
<ellipse fill="none" stroke="black" cx="1901" cy="-162" rx="27" ry="18"/>
<text text-anchor="middle" x="1901" y="-156.95" font-family="Times,serif" font-size="14.00">bcs</text>
</g>
<!-- type_info&#45;&gt;bcs -->
<g id="edge17" class="edge">
<title>type_info&#45;&gt;bcs</title>
<path fill="none" stroke="black" d="M1500.48,-226.29C1586.76,-212.65 1781.28,-181.92 1863.34,-168.95"/>
<polygon fill="black" stroke="black" points="1863.78,-172.42 1873.11,-167.41 1862.69,-165.51 1863.78,-172.42"/>
</g>
<!-- event&#45;&gt;bcs -->
<g id="edge18" class="edge">
<title>event&#45;&gt;bcs</title>
<path fill="none" stroke="black" d="M2096.39,-360.14C2086.83,-328.09 2061.99,-257.82 2018,-216 1995.29,-194.42 1962.28,-180.56 1937.1,-172.45"/>
<polygon fill="black" stroke="black" points="1938.18,-169.12 1927.6,-169.56 1936.15,-175.82 1938.18,-169.12"/>
</g>
<!-- guid -->
<g id="node16" class="node">
<title>guid</title>
<ellipse fill="none" stroke="black" cx="1949" cy="-306" rx="27.3" ry="18"/>
<text text-anchor="middle" x="1949" y="-300.95" font-family="Times,serif" font-size="14.00">guid</text>
</g>
<!-- event&#45;&gt;guid -->
<g id="edge19" class="edge">
<title>event&#45;&gt;guid</title>
<path fill="none" stroke="black" d="M2077.25,-366.06C2051.48,-354.2 2010.19,-335.18 1981.45,-321.94"/>
<polygon fill="black" stroke="black" points="1983.02,-318.82 1972.48,-317.81 1980.1,-325.17 1983.02,-318.82"/>
</g>
<!-- account&#45;&gt;option -->
<g id="edge21" class="edge">
<title>account&#45;&gt;option</title>
<path fill="none" stroke="black" d="M1484.24,-448.33C1297.4,-445.03 514.16,-429.25 475,-396 387.08,-321.35 493.97,-226.14 413,-144 383.04,-113.6 335.13,-100.64 299.92,-95.11"/>
<polygon fill="black" stroke="black" points="300.86,-91.71 290.47,-93.77 299.88,-98.64 300.86,-91.71"/>
</g>
<!-- account&#45;&gt;signer -->
<g id="edge22" class="edge">
<title>account&#45;&gt;signer</title>
<path fill="none" stroke="black" d="M1552.2,-436.99C1557.69,-435.04 1563.46,-433.26 1569,-432 1661.22,-411.09 1909.63,-440.62 1993,-396 2113.22,-331.66 2194.69,-179.77 2223.96,-117.92"/>
<polygon fill="black" stroke="black" points="2226.99,-119.7 2228.03,-109.16 2220.64,-116.76 2226.99,-119.7"/>
</g>
<!-- account&#45;&gt;type_info -->
<g id="edge25" class="edge">
<title>account&#45;&gt;type_info</title>
<path fill="none" stroke="black" d="M1520.97,-431.74C1517.39,-413.42 1510.54,-383.86 1500,-360 1492.33,-342.63 1484.21,-341.57 1477,-324 1469.06,-304.64 1464.25,-281.49 1461.45,-263.66"/>
<polygon fill="black" stroke="black" points="1464.92,-263.17 1460.04,-253.77 1457.99,-264.16 1464.92,-263.17"/>
</g>
<!-- account&#45;&gt;table -->
<g id="edge26" class="edge">
<title>account&#45;&gt;table</title>
<path fill="none" stroke="black" d="M1484.86,-446.72C1404.57,-441.55 1215.67,-426.94 1060,-396 958.27,-375.78 841.46,-338.41 784.27,-319.16"/>
<polygon fill="black" stroke="black" points="785.68,-315.94 775.09,-316.05 783.43,-322.57 785.68,-315.94"/>
</g>
<!-- account&#45;&gt;event -->
<g id="edge33" class="edge">
<title>account&#45;&gt;event</title>
<path fill="none" stroke="black" d="M1563.18,-446.43C1669.55,-439.25 1962.02,-418.03 2056,-396 2059.2,-395.25 2062.48,-394.33 2065.74,-393.31"/>
<polygon fill="black" stroke="black" points="2066.87,-396.62 2075.17,-390.04 2064.58,-390 2066.87,-396.62"/>
</g>
<!-- account&#45;&gt;vector -->
<g id="edge20" class="edge">
<title>account&#45;&gt;vector</title>
<path fill="none" stroke="black" d="M1552.84,-437.4C1558.17,-435.46 1563.72,-433.57 1569,-432 1640.54,-410.76 1686.23,-454.15 1733,-396 1757.52,-365.52 1805.07,-253.47 1687,-144 1591.9,-55.82 638.08,-25.88 417.4,-20.1"/>
<polygon fill="black" stroke="black" points="417.58,-16.61 407.49,-19.85 417.4,-23.6 417.58,-16.61"/>
</g>
<!-- account&#45;&gt;error -->
<g id="edge23" class="edge">
<title>account&#45;&gt;error</title>
<path fill="none" stroke="black" d="M1514.59,-432.12C1503.65,-413.33 1484.33,-382.62 1463,-360 1359.5,-250.25 1208.64,-149.42 1145.5,-109.31"/>
<polygon fill="black" stroke="black" points="1147.75,-106.59 1137.42,-104.21 1144.01,-112.51 1147.75,-106.59"/>
</g>
<!-- account&#45;&gt;bcs -->
<g id="edge24" class="edge">
<title>account&#45;&gt;bcs</title>
<path fill="none" stroke="black" d="M1552.21,-437.02C1557.7,-435.07 1563.47,-433.27 1569,-432 1655.12,-412.21 1897.15,-452.6 1965,-396 2002.49,-364.73 1999.23,-334.7 1985,-288 1972.89,-248.26 1943.45,-209.69 1922.86,-186.15"/>
<polygon fill="black" stroke="black" points="1925.48,-183.84 1916.2,-178.73 1920.27,-188.51 1925.48,-183.84"/>
</g>
<!-- account&#45;&gt;guid -->
<g id="edge31" class="edge">
<title>account&#45;&gt;guid</title>
<path fill="none" stroke="black" d="M1563.19,-446.2C1612.67,-441.39 1699.4,-428.69 1766,-396 1788.37,-385.02 1787.49,-372.59 1809,-360 1842.17,-340.59 1883.73,-325.92 1912.92,-316.99"/>
<polygon fill="black" stroke="black" points="1913.81,-320.38 1922.39,-314.17 1911.81,-313.67 1913.81,-320.38"/>
</g>
<!-- system_addresses -->
<g id="node17" class="node">
<title>system_addresses</title>
<ellipse fill="none" stroke="black" cx="1201" cy="-306" rx="76.94" ry="18"/>
<text text-anchor="middle" x="1201" y="-300.95" font-family="Times,serif" font-size="14.00">system_addresses</text>
</g>
<!-- account&#45;&gt;system_addresses -->
<g id="edge27" class="edge">
<title>account&#45;&gt;system_addresses</title>
<path fill="none" stroke="black" d="M1508.26,-433.4C1483.73,-409.21 1438.22,-364.92 1429,-360 1383.73,-335.82 1327.63,-322.6 1282.41,-315.41"/>
<polygon fill="black" stroke="black" points="1283.07,-311.97 1272.66,-313.93 1282.02,-318.89 1283.07,-311.97"/>
</g>
<!-- hash -->
<g id="node18" class="node">
<title>hash</title>
<ellipse fill="none" stroke="black" cx="1838" cy="-234" rx="27.81" ry="18"/>
<text text-anchor="middle" x="1838" y="-228.95" font-family="Times,serif" font-size="14.00">hash</text>
</g>
<!-- account&#45;&gt;hash -->
<g id="edge28" class="edge">
<title>account&#45;&gt;hash</title>
<path fill="none" stroke="black" d="M1552.21,-437.04C1557.7,-435.09 1563.47,-433.28 1569,-432 1651.19,-412.92 1890.23,-458.43 1947,-396 1957.76,-384.16 1952.91,-374.87 1947,-360 1938.87,-339.55 1927.65,-340.42 1913,-324 1893.75,-302.43 1872.6,-277.17 1857.67,-259.09"/>
<polygon fill="black" stroke="black" points="1860.5,-257.01 1851.44,-251.51 1855.09,-261.46 1860.5,-257.01"/>
</g>
<!-- ed25519 -->
<g id="node19" class="node">
<title>ed25519</title>
<ellipse fill="none" stroke="black" cx="1529" cy="-306" rx="42.65" ry="18"/>
<text text-anchor="middle" x="1529" y="-300.95" font-family="Times,serif" font-size="14.00">ed25519</text>
</g>
<!-- account&#45;&gt;ed25519 -->
<g id="edge29" class="edge">
<title>account&#45;&gt;ed25519</title>
<path fill="none" stroke="black" d="M1529.68,-432.04C1532.82,-421.74 1536.41,-408.27 1538,-396 1540.63,-375.73 1538.18,-352.77 1535.17,-335.26"/>
<polygon fill="black" stroke="black" points="1538.64,-334.76 1533.34,-325.58 1531.76,-336.06 1538.64,-334.76"/>
</g>
<!-- multi_ed25519 -->
<g id="node20" class="node">
<title>multi_ed25519</title>
<ellipse fill="none" stroke="black" cx="1657" cy="-378" rx="67.22" ry="18"/>
<text text-anchor="middle" x="1657" y="-372.95" font-family="Times,serif" font-size="14.00">multi_ed25519</text>
</g>
<!-- account&#45;&gt;multi_ed25519 -->
<g id="edge30" class="edge">
<title>account&#45;&gt;multi_ed25519</title>
<path fill="none" stroke="black" d="M1549.33,-435.67C1568.59,-425.53 1595.44,-411.4 1617.51,-399.78"/>
<polygon fill="black" stroke="black" points="1619.03,-402.94 1626.25,-395.18 1615.77,-396.74 1619.03,-402.94"/>
</g>
<!-- from_bcs -->
<g id="node21" class="node">
<title>from_bcs</title>
<ellipse fill="none" stroke="black" cx="634" cy="-234" rx="46.23" ry="18"/>
<text text-anchor="middle" x="634" y="-228.95" font-family="Times,serif" font-size="14.00">from_bcs</text>
</g>
<!-- account&#45;&gt;from_bcs -->
<g id="edge32" class="edge">
<title>account&#45;&gt;from_bcs</title>
<path fill="none" stroke="black" d="M1484.4,-447.69C1407.68,-444.38 1233.89,-433.08 1093,-396 1052.53,-385.35 1045.19,-374.67 1006,-360 889.86,-316.52 750.82,-271.68 680.16,-249.39"/>
<polygon fill="black" stroke="black" points="681.45,-246.13 670.86,-246.47 679.35,-252.81 681.45,-246.13"/>
</g>
<!-- create_signer -->
<g id="node22" class="node">
<title>create_signer</title>
<ellipse fill="none" stroke="black" cx="1878" cy="-378" rx="60.05" ry="18"/>
<text text-anchor="middle" x="1878" y="-372.95" font-family="Times,serif" font-size="14.00">create_signer</text>
</g>
<!-- account&#45;&gt;create_signer -->
<g id="edge34" class="edge">
<title>account&#45;&gt;create_signer</title>
<path fill="none" stroke="black" d="M1560.33,-442.59C1613.82,-433.04 1716.84,-414.25 1804,-396 1809.5,-394.85 1815.23,-393.61 1820.95,-392.34"/>
<polygon fill="black" stroke="black" points="1821.41,-395.82 1830.4,-390.22 1819.87,-388.99 1821.41,-395.82"/>
</g>
<!-- chain_id -->
<g id="node23" class="node">
<title>chain_id</title>
<ellipse fill="none" stroke="black" cx="1377" cy="-378" rx="42.65" ry="18"/>
<text text-anchor="middle" x="1377" y="-372.95" font-family="Times,serif" font-size="14.00">chain_id</text>
</g>
<!-- account&#45;&gt;chain_id -->
<g id="edge35" class="edge">
<title>account&#45;&gt;chain_id</title>
<path fill="none" stroke="black" d="M1497.38,-436.32C1474.33,-425.35 1440.72,-409.34 1414.87,-397.03"/>
<polygon fill="black" stroke="black" points="1416.57,-393.97 1406.04,-392.83 1413.56,-400.29 1416.57,-393.97"/>
</g>
<!-- coin&#45;&gt;option -->
<g id="edge36" class="edge">
<title>coin&#45;&gt;option</title>
<path fill="none" stroke="black" d="M903.72,-520.08C809.64,-516.64 499.53,-502.83 407,-468 294.61,-425.69 190,-427.09 190,-307 190,-307 190,-307 190,-233 190,-188.81 216.35,-143.33 235.49,-116.12"/>
<polygon fill="black" stroke="black" points="238.22,-118.32 241.27,-108.18 232.56,-114.2 238.22,-118.32"/>
</g>
<!-- coin&#45;&gt;string -->
<g id="edge37" class="edge">
<title>coin&#45;&gt;string</title>
<path fill="none" stroke="black" d="M903.74,-521.1C834.01,-520.63 644.15,-514.78 495,-468 429.74,-447.53 414.29,-436.25 359,-396 311.96,-361.75 267.58,-343.52 285,-288 297.49,-248.18 327.65,-209.95 348.94,-186.48"/>
<polygon fill="black" stroke="black" points="351.33,-189.05 355.58,-179.34 346.21,-184.28 351.33,-189.05"/>
</g>
<!-- coin&#45;&gt;signer -->
<g id="edge38" class="edge">
<title>coin&#45;&gt;signer</title>
<path fill="none" stroke="black" d="M958.25,-519.66C1081.67,-513.51 1589.02,-487.5 1747,-468 1923.67,-446.19 1982.03,-476.11 2141,-396 2192.67,-369.96 2236,-364.86 2236,-307 2236,-307 2236,-307 2236,-233 2236,-193.74 2236,-148.38 2236,-119.69"/>
<polygon fill="black" stroke="black" points="2239.5,-120 2236,-110 2232.5,-120 2239.5,-120"/>
</g>
<!-- coin&#45;&gt;type_info -->
<g id="edge40" class="edge">
<title>coin&#45;&gt;type_info</title>
<path fill="none" stroke="black" d="M938.66,-504.25C959.72,-460.34 1023.05,-341.61 1115,-288 1162.48,-260.32 1316.46,-245.18 1401.05,-238.76"/>
<polygon fill="black" stroke="black" points="1401.28,-242.25 1411,-238.02 1400.77,-235.27 1401.28,-242.25"/>
</g>
<!-- coin&#45;&gt;event -->
<g id="edge42" class="edge">
<title>coin&#45;&gt;event</title>
<path fill="none" stroke="black" d="M957.97,-519.41C1046.37,-514.06 1335.25,-495.5 1573,-468 1788.6,-443.06 1845.96,-450.66 2056,-396 2059.18,-395.17 2062.45,-394.2 2065.7,-393.14"/>
<polygon fill="black" stroke="black" points="2066.85,-396.44 2075.12,-389.82 2064.53,-389.84 2066.85,-396.44"/>
</g>
<!-- coin&#45;&gt;account -->
<g id="edge43" class="edge">
<title>coin&#45;&gt;account</title>
<path fill="none" stroke="black" d="M957.63,-517.86C1049.56,-507 1354.51,-471.01 1474.7,-456.82"/>
<polygon fill="black" stroke="black" points="1475.05,-460.3 1484.57,-455.65 1474.23,-453.35 1475.05,-460.3"/>
</g>
<!-- coin&#45;&gt;error -->
<g id="edge39" class="edge">
<title>coin&#45;&gt;error</title>
<path fill="none" stroke="black" d="M927.9,-503.7C918.55,-445.75 896.39,-255.88 984,-144 1006.34,-115.47 1046.45,-102.23 1076.61,-96.13"/>
<polygon fill="black" stroke="black" points="1076.92,-99.63 1086.13,-94.39 1075.67,-92.74 1076.92,-99.63"/>
</g>
<!-- coin&#45;&gt;system_addresses -->
<g id="edge41" class="edge">
<title>coin&#45;&gt;system_addresses</title>
<path fill="none" stroke="black" d="M957.89,-518.39C1016.13,-511.11 1153.35,-484.88 1211,-396 1222.63,-378.07 1218.89,-353.73 1212.93,-335.04"/>
<polygon fill="black" stroke="black" points="1216.23,-333.89 1209.56,-325.66 1209.65,-336.26 1216.23,-333.89"/>
</g>
<!-- aggregator -->
<g id="node24" class="node">
<title>aggregator</title>
<ellipse fill="none" stroke="black" cx="344" cy="-306" rx="50.33" ry="18"/>
<text text-anchor="middle" x="344" y="-300.95" font-family="Times,serif" font-size="14.00">aggregator</text>
</g>
<!-- coin&#45;&gt;aggregator -->
<g id="edge44" class="edge">
<title>coin&#45;&gt;aggregator</title>
<path fill="none" stroke="black" d="M905.02,-516.37C802.64,-497.95 430.6,-429.22 389,-396 369.77,-380.65 358.03,-354.91 351.38,-335.06"/>
<polygon fill="black" stroke="black" points="354.76,-334.15 348.48,-325.61 348.07,-336.2 354.76,-334.15"/>
</g>
<!-- aggregator_factory -->
<g id="node25" class="node">
<title>aggregator_factory</title>
<ellipse fill="none" stroke="black" cx="775" cy="-378" rx="81.04" ry="18"/>
<text text-anchor="middle" x="775" y="-372.95" font-family="Times,serif" font-size="14.00">aggregator_factory</text>
</g>
<!-- coin&#45;&gt;aggregator_factory -->
<g id="edge45" class="edge">
<title>coin&#45;&gt;aggregator_factory</title>
<path fill="none" stroke="black" d="M921.69,-504.68C910.19,-485.56 889.17,-453.74 865,-432 851.29,-419.67 834.26,-408.77 818.72,-400.11"/>
<polygon fill="black" stroke="black" points="820.57,-397.13 810.11,-395.47 817.25,-403.29 820.57,-397.13"/>
</g>
<!-- optional_aggregator -->
<g id="node26" class="node">
<title>optional_aggregator</title>
<ellipse fill="none" stroke="black" cx="771" cy="-450" rx="85.13" ry="18"/>
<text text-anchor="middle" x="771" y="-444.95" font-family="Times,serif" font-size="14.00">optional_aggregator</text>
</g>
<!-- coin&#45;&gt;optional_aggregator -->
<g id="edge46" class="edge">
<title>coin&#45;&gt;optional_aggregator</title>
<path fill="none" stroke="black" d="M908.75,-511.27C885.17,-500.95 847.26,-484.36 817.17,-471.2"/>
<polygon fill="black" stroke="black" points="818.84,-468.11 808.28,-467.31 816.03,-474.52 818.84,-468.11"/>
</g>
<!-- tablist&#45;&gt;option -->
<g id="edge47" class="edge">
<title>tablist&#45;&gt;option</title>
<path fill="none" stroke="black" d="M633.46,-592.03C536.64,-588.81 258.39,-576.54 176,-540 121.61,-515.88 76,-510.5 76,-451 76,-451 76,-451 76,-233 76,-162.64 161.94,-121.61 214.72,-103.04"/>
<polygon fill="black" stroke="black" points="215.66,-106.42 224.01,-99.9 213.41,-99.79 215.66,-106.42"/>
</g>
<!-- table_with_length -->
<g id="node27" class="node">
<title>table_with_length</title>
<ellipse fill="none" stroke="black" cx="561" cy="-378" rx="77.45" ry="18"/>
<text text-anchor="middle" x="561" y="-372.95" font-family="Times,serif" font-size="14.00">table_with_length</text>
</g>
<!-- tablist&#45;&gt;table_with_length -->
<g id="edge48" class="edge">
<title>tablist&#45;&gt;table_with_length</title>
<path fill="none" stroke="black" d="M658.68,-576.21C640.47,-539.43 596.9,-451.48 574.62,-406.5"/>
<polygon fill="black" stroke="black" points="577.82,-405.07 570.25,-397.66 571.55,-408.18 577.82,-405.07"/>
</g>
<!-- incentives&#45;&gt;signer -->
<g id="edge50" class="edge">
<title>incentives&#45;&gt;signer</title>
<path fill="none" stroke="black" d="M1046.9,-662.52C1283.04,-649 2312,-574.73 2312,-307 2312,-307 2312,-307 2312,-233 2312,-187.23 2280.92,-141.93 2258.51,-115.22"/>
<polygon fill="black" stroke="black" points="2261.2,-112.98 2252.01,-107.72 2255.92,-117.56 2261.2,-112.98"/>
</g>
<!-- incentives&#45;&gt;type_info -->
<g id="edge51" class="edge">
<title>incentives&#45;&gt;type_info</title>
<path fill="none" stroke="black" d="M1047.31,-663.93C1133.76,-659.19 1306,-635.6 1306,-523 1306,-523 1306,-523 1306,-377 1306,-316.49 1371.12,-274.35 1416.12,-252.46"/>
<polygon fill="black" stroke="black" points="1417.57,-255.65 1425.14,-248.23 1414.6,-249.31 1417.57,-255.65"/>
</g>
<!-- incentives&#45;&gt;coin -->
<g id="edge52" class="edge">
<title>incentives&#45;&gt;coin</title>
<path fill="none" stroke="black" d="M984.46,-648.8C976.07,-638.78 965.86,-625.32 959,-612 949.02,-592.63 941.8,-569.04 937.19,-551.01"/>
<polygon fill="black" stroke="black" points="940.65,-550.44 934.89,-541.54 933.85,-552.09 940.65,-550.44"/>
</g>
<!-- incentives&#45;&gt;tablist -->
<g id="edge54" class="edge">
<title>incentives&#45;&gt;tablist</title>
<path fill="none" stroke="black" d="M957.62,-656.28C893.97,-642.85 772.69,-617.28 708.79,-603.81"/>
<polygon fill="black" stroke="black" points="709.54,-600.39 699.03,-601.75 708.1,-607.24 709.54,-600.39"/>
</g>
<!-- incentives&#45;&gt;vector -->
<g id="edge49" class="edge">
<title>incentives&#45;&gt;vector</title>
<path fill="none" stroke="black" d="M950.76,-663.73C784.64,-658.56 238.64,-634.54 96,-540 26.56,-493.97 0,-462.31 0,-379 0,-379 0,-379 0,-161 0,-91.42 230.05,-43.46 328.33,-26.14"/>
<polygon fill="black" stroke="black" points="328.89,-29.6 338.15,-24.44 327.7,-22.7 328.89,-29.6"/>
</g>
<!-- aptos_coin -->
<g id="node28" class="node">
<title>aptos_coin</title>
<ellipse fill="none" stroke="black" cx="1019" cy="-594" rx="50.84" ry="18"/>
<text text-anchor="middle" x="1019" y="-588.95" font-family="Times,serif" font-size="14.00">aptos_coin</text>
</g>
<!-- incentives&#45;&gt;aptos_coin -->
<g id="edge53" class="edge">
<title>incentives&#45;&gt;aptos_coin</title>
<path fill="none" stroke="black" d="M1003.94,-647.7C1006.08,-640.24 1008.62,-631.32 1011.01,-622.97"/>
<polygon fill="black" stroke="black" points="1014.32,-624.14 1013.7,-613.56 1007.58,-622.21 1014.32,-624.14"/>
</g>
<!-- resource_account -->
<g id="node29" class="node">
<title>resource_account</title>
<ellipse fill="none" stroke="black" cx="1412" cy="-522" rx="75.41" ry="18"/>
<text text-anchor="middle" x="1412" y="-516.95" font-family="Times,serif" font-size="14.00">resource_account</text>
</g>
<!-- incentives&#45;&gt;resource_account -->
<g id="edge55" class="edge">
<title>incentives&#45;&gt;resource_account</title>
<path fill="none" stroke="black" d="M1047.71,-665.8C1113.11,-664.96 1231.33,-656.62 1320,-612 1349.61,-597.1 1375.95,-569.35 1392.77,-548.78"/>
<polygon fill="black" stroke="black" points="1395.4,-551.1 1398.87,-541.09 1389.91,-546.75 1395.4,-551.1"/>
</g>
<!-- features&#45;&gt;signer -->
<g id="edge56" class="edge">
<title>features&#45;&gt;signer</title>
<path fill="none" stroke="black" d="M1674.16,-153.64C1691.07,-150.37 1711.51,-146.67 1730,-144 1899.66,-119.48 2102.9,-101.68 2191.29,-94.5"/>
<polygon fill="black" stroke="black" points="2191.54,-97.99 2201.23,-93.7 2190.98,-91.01 2191.54,-97.99"/>
</g>
<!-- features&#45;&gt;error -->
<g id="edge57" class="edge">
<title>features&#45;&gt;error</title>
<path fill="none" stroke="black" d="M1607.15,-150.17C1599.65,-147.85 1591.6,-145.61 1584,-144 1428.05,-110.94 1238.22,-97.5 1156.54,-92.96"/>
<polygon fill="black" stroke="black" points="1156.75,-89.47 1146.58,-92.43 1156.38,-96.46 1156.75,-89.47"/>
</g>
<!-- system_addresses&#45;&gt;signer -->
<g id="edge58" class="edge">
<title>system_addresses&#45;&gt;signer</title>
<path fill="none" stroke="black" d="M1230.12,-288.94C1268.52,-268.53 1338.74,-233.82 1403,-216 1525.6,-182 1561.45,-200.62 1687,-180 1766.65,-166.92 1785.46,-157.71 1865,-144 1982.89,-123.68 2122.81,-105.21 2192.31,-96.41"/>
<polygon fill="black" stroke="black" points="2192.66,-99.9 2202.14,-95.17 2191.78,-92.95 2192.66,-99.9"/>
</g>
<!-- system_addresses&#45;&gt;error -->
<g id="edge59" class="edge">
<title>system_addresses&#45;&gt;error</title>
<path fill="none" stroke="black" d="M1194.19,-287.85C1179.51,-250.9 1144.79,-163.49 1126.97,-118.62"/>
<polygon fill="black" stroke="black" points="1130.23,-117.34 1123.29,-109.34 1123.72,-119.93 1130.23,-117.34"/>
</g>
<!-- ed25519&#45;&gt;option -->
<g id="edge60" class="edge">
<title>ed25519&#45;&gt;option</title>
<path fill="none" stroke="black" d="M1494.01,-295.32C1391.56,-267.34 1083.04,-185.74 822,-144 629.64,-113.24 397.51,-98.44 300.77,-93.25"/>
<polygon fill="black" stroke="black" points="301.07,-89.76 290.9,-92.73 300.7,-96.75 301.07,-89.76"/>
</g>
<!-- ed25519&#45;&gt;type_info -->
<g id="edge63" class="edge">
<title>ed25519&#45;&gt;type_info</title>
<path fill="none" stroke="black" d="M1512.89,-289.12C1503.81,-280.17 1492.29,-268.81 1482.16,-258.81"/>
<polygon fill="black" stroke="black" points="1484.7,-256.41 1475.13,-251.88 1479.79,-261.4 1484.7,-256.41"/>
</g>
<!-- ed25519&#45;&gt;error -->
<g id="edge61" class="edge">
<title>ed25519&#45;&gt;error</title>
<path fill="none" stroke="black" d="M1530.49,-287.62C1531.22,-268.09 1529.41,-236.45 1513,-216 1424.33,-105.47 1238.54,-90.93 1156.46,-90.17"/>
<polygon fill="black" stroke="black" points="1156.65,-86.67 1146.64,-90.16 1156.64,-93.67 1156.65,-86.67"/>
</g>
<!-- ed25519&#45;&gt;bcs -->
<g id="edge62" class="edge">
<title>ed25519&#45;&gt;bcs</title>
<path fill="none" stroke="black" d="M1559.76,-293.26C1628.83,-266.89 1795.78,-203.17 1867.42,-175.82"/>
<polygon fill="black" stroke="black" points="1868.57,-179.13 1876.66,-172.29 1866.07,-172.59 1868.57,-179.13"/>
</g>
<!-- ed25519&#45;&gt;hash -->
<g id="edge64" class="edge">
<title>ed25519&#45;&gt;hash</title>
<path fill="none" stroke="black" d="M1565.97,-296.63C1625.29,-283.19 1741.1,-256.95 1800.66,-243.46"/>
<polygon fill="black" stroke="black" points="1801.33,-246.9 1810.31,-241.27 1799.79,-240.07 1801.33,-246.9"/>
</g>
<!-- multi_ed25519&#45;&gt;option -->
<g id="edge65" class="edge">
<title>multi_ed25519&#45;&gt;option</title>
<path fill="none" stroke="black" d="M1609.56,-364.83C1539.32,-346.98 1403.41,-313.1 1287,-288 905.45,-205.74 440.71,-123.36 298.44,-98.53"/>
<polygon fill="black" stroke="black" points="299.16,-95.1 288.7,-96.83 297.95,-102 299.16,-95.1"/>
</g>
<!-- multi_ed25519&#45;&gt;error -->
<g id="edge66" class="edge">
<title>multi_ed25519&#45;&gt;error</title>
<path fill="none" stroke="black" d="M1649.04,-359.79C1627.15,-314.75 1561.25,-193.51 1465,-144 1411.63,-116.55 1235.63,-100.08 1155.89,-93.85"/>
<polygon fill="black" stroke="black" points="1156.59,-90.4 1146.36,-93.13 1156.06,-97.38 1156.59,-90.4"/>
</g>
<!-- multi_ed25519&#45;&gt;features -->
<g id="edge67" class="edge">
<title>multi_ed25519&#45;&gt;features</title>
<path fill="none" stroke="black" d="M1655.48,-359.85C1652.22,-323.14 1644.54,-236.66 1640.53,-191.53"/>
<polygon fill="black" stroke="black" points="1644.03,-191.39 1639.66,-181.74 1637.06,-192.01 1644.03,-191.39"/>
</g>
<!-- multi_ed25519&#45;&gt;bcs -->
<g id="edge68" class="edge">
<title>multi_ed25519&#45;&gt;bcs</title>
<path fill="none" stroke="black" d="M1668.03,-359.83C1680.26,-341.31 1701.04,-311.36 1722,-288 1753.72,-252.64 1762.15,-243.34 1801,-216 1822.38,-200.95 1848.56,-187.23 1868.77,-177.51"/>
<polygon fill="black" stroke="black" points="1870.1,-180.76 1877.65,-173.33 1867.11,-174.42 1870.1,-180.76"/>
</g>
<!-- multi_ed25519&#45;&gt;hash -->
<g id="edge69" class="edge">
<title>multi_ed25519&#45;&gt;hash</title>
<path fill="none" stroke="black" d="M1678.12,-360.43C1711.33,-334.38 1775.71,-283.87 1811.81,-255.54"/>
<polygon fill="black" stroke="black" points="1813.88,-258.37 1819.58,-249.45 1809.56,-252.87 1813.88,-258.37"/>
</g>
<!-- multi_ed25519&#45;&gt;ed25519 -->
<g id="edge70" class="edge">
<title>multi_ed25519&#45;&gt;ed25519</title>
<path fill="none" stroke="black" d="M1628.27,-361.29C1609.32,-350.92 1584.36,-337.27 1564.21,-326.26"/>
<polygon fill="black" stroke="black" points="1565.95,-323.22 1555.5,-321.49 1562.59,-329.36 1565.95,-323.22"/>
</g>
<!-- from_bcs&#45;&gt;string -->
<g id="edge71" class="edge">
<title>from_bcs&#45;&gt;string</title>
<path fill="none" stroke="black" d="M596.74,-223.05C547.59,-209.91 461.47,-186.9 411.31,-173.5"/>
<polygon fill="black" stroke="black" points="412.31,-170.15 401.74,-170.95 410.5,-176.91 412.31,-170.15"/>
</g>
<!-- chain_id&#45;&gt;system_addresses -->
<g id="edge72" class="edge">
<title>chain_id&#45;&gt;system_addresses</title>
<path fill="none" stroke="black" d="M1346.74,-364.97C1320.02,-354.34 1280.57,-338.65 1249.45,-326.27"/>
<polygon fill="black" stroke="black" points="1250.82,-323.05 1240.23,-322.6 1248.23,-329.55 1250.82,-323.05"/>
</g>
<!-- aggregator_factory&#45;&gt;table -->
<g id="edge74" class="edge">
<title>aggregator_factory&#45;&gt;table</title>
<path fill="none" stroke="black" d="M768.57,-359.7C765.73,-352.04 762.32,-342.85 759.14,-334.3"/>
<polygon fill="black" stroke="black" points="762.46,-333.2 755.7,-325.04 755.9,-335.63 762.46,-333.2"/>
</g>
<!-- aggregator_factory&#45;&gt;error -->
<g id="edge73" class="edge">
<title>aggregator_factory&#45;&gt;error</title>
<path fill="none" stroke="black" d="M779.79,-359.64C793.64,-310.73 834.94,-173.41 870,-144 900.9,-118.09 1015.15,-101.99 1076.48,-95.02"/>
<polygon fill="black" stroke="black" points="1076.58,-98.53 1086.14,-93.95 1075.81,-91.57 1076.58,-98.53"/>
</g>
<!-- aggregator_factory&#45;&gt;system_addresses -->
<g id="edge75" class="edge">
<title>aggregator_factory&#45;&gt;system_addresses</title>
<path fill="none" stroke="black" d="M838.78,-366.52C916.25,-353.79 1046.67,-332.36 1128.06,-318.98"/>
<polygon fill="black" stroke="black" points="1128.42,-322.47 1137.72,-317.4 1127.28,-315.57 1128.42,-322.47"/>
</g>
<!-- aggregator_factory&#45;&gt;aggregator -->
<g id="edge76" class="edge">
<title>aggregator_factory&#45;&gt;aggregator</title>
<path fill="none" stroke="black" d="M710.94,-366.6C626.9,-352.95 480.73,-329.21 400.58,-316.19"/>
<polygon fill="black" stroke="black" points="401.18,-312.74 390.75,-314.59 400.06,-319.65 401.18,-312.74"/>
</g>
<!-- optional_aggregator&#45;&gt;option -->
<g id="edge77" class="edge">
<title>optional_aggregator&#45;&gt;option</title>
<path fill="none" stroke="black" d="M685.84,-448.41C606.49,-445.28 486.16,-433.88 389,-396 336.62,-375.58 314.22,-372.03 285,-324 245.69,-259.39 247.59,-166.13 251.62,-119.63"/>
<polygon fill="black" stroke="black" points="255.09,-120.13 252.58,-109.84 248.12,-119.45 255.09,-120.13"/>
</g>
<!-- optional_aggregator&#45;&gt;error -->
<g id="edge78" class="edge">
<title>optional_aggregator&#45;&gt;error</title>
<path fill="none" stroke="black" d="M814,-434.05C832.33,-425.6 852.35,-413.21 865,-396 888.96,-363.41 884,-347.45 884,-307 884,-307 884,-307 884,-233 884,-143.68 1010.65,-108.83 1076.8,-96.72"/>
<polygon fill="black" stroke="black" points="1077.27,-100.19 1086.52,-95.04 1076.07,-93.29 1077.27,-100.19"/>
</g>
<!-- optional_aggregator&#45;&gt;aggregator -->
<g id="edge79" class="edge">
<title>optional_aggregator&#45;&gt;aggregator</title>
<path fill="none" stroke="black" d="M685.94,-448.48C617.06,-445.04 519.16,-433.13 442,-396 410.79,-380.98 382.37,-352.8 364.26,-332.16"/>
<polygon fill="black" stroke="black" points="367.06,-330.05 357.91,-324.71 361.73,-334.59 367.06,-330.05"/>
</g>
<!-- optional_aggregator&#45;&gt;aggregator_factory -->
<g id="edge80" class="edge">
<title>optional_aggregator&#45;&gt;aggregator_factory</title>
<path fill="none" stroke="black" d="M771.99,-431.7C772.41,-424.41 772.9,-415.73 773.37,-407.54"/>
<polygon fill="black" stroke="black" points="776.86,-407.8 773.94,-397.62 769.87,-407.4 776.86,-407.8"/>
</g>
<!-- table_with_length&#45;&gt;table -->
<g id="edge82" class="edge">
<title>table_with_length&#45;&gt;table</title>
<path fill="none" stroke="black" d="M600.87,-362.15C634.42,-349.66 681.93,-331.97 714.03,-320.02"/>
<polygon fill="black" stroke="black" points="715.12,-323.35 723.27,-316.58 712.68,-316.79 715.12,-323.35"/>
</g>
<!-- table_with_length&#45;&gt;error -->
<g id="edge81" class="edge">
<title>table_with_length&#45;&gt;error</title>
<path fill="none" stroke="black" d="M578.76,-360.24C630.58,-311.67 781.7,-172.51 842,-144 919.33,-107.44 1020.31,-96.1 1075.55,-92.58"/>
<polygon fill="black" stroke="black" points="1075.65,-96.08 1085.43,-92.01 1075.25,-89.09 1075.65,-96.08"/>
</g>
<!-- aptos_coin&#45;&gt;option -->
<g id="edge84" class="edge">
<title>aptos_coin&#45;&gt;option</title>
<path fill="none" stroke="black" d="M968.32,-591.46C782.88,-584.48 152,-548.28 152,-379 152,-379 152,-379 152,-233 152,-182.22 195.7,-137.34 226.17,-112.23"/>
<polygon fill="black" stroke="black" points="228.32,-114.99 233.96,-106.02 223.95,-109.52 228.32,-114.99"/>
</g>
<!-- aptos_coin&#45;&gt;string -->
<g id="edge85" class="edge">
<title>aptos_coin&#45;&gt;string</title>
<path fill="none" stroke="black" d="M967.9,-593.39C893.84,-592.29 753.56,-583.89 644,-540 541.99,-499.13 507.07,-485.28 443,-396 430.8,-379 395.04,-249.09 379.43,-190.96"/>
<polygon fill="black" stroke="black" points="382.87,-190.24 376.9,-181.49 376.1,-192.05 382.87,-190.24"/>
</g>
<!-- aptos_coin&#45;&gt;signer -->
<g id="edge86" class="edge">
<title>aptos_coin&#45;&gt;signer</title>
<path fill="none" stroke="black" d="M1070.14,-592.49C1305.62,-588.78 2274,-558.26 2274,-307 2274,-307 2274,-307 2274,-233 2274,-191.95 2259,-146.43 2247.85,-118.26"/>
<polygon fill="black" stroke="black" points="2251.11,-116.99 2244.08,-109.06 2244.63,-119.64 2251.11,-116.99"/>
</g>
<!-- aptos_coin&#45;&gt;coin -->
<g id="edge89" class="edge">
<title>aptos_coin&#45;&gt;coin</title>
<path fill="none" stroke="black" d="M999.03,-577.12C986.51,-567.15 970.23,-554.21 956.74,-543.48"/>
<polygon fill="black" stroke="black" points="959.12,-540.89 949.11,-537.41 954.76,-546.37 959.12,-540.89"/>
</g>
<!-- aptos_coin&#45;&gt;vector -->
<g id="edge83" class="edge">
<title>aptos_coin&#45;&gt;vector</title>
<path fill="none" stroke="black" d="M969.66,-588.93C895.37,-580.12 755.17,-552.64 677,-468 643.2,-431.4 669.77,-404.31 647,-360 610.89,-289.74 452.31,-108.98 393.79,-43.31"/>
<polygon fill="black" stroke="black" points="396.5,-41.08 387.23,-35.96 391.28,-45.75 396.5,-41.08"/>
</g>
<!-- aptos_coin&#45;&gt;error -->
<g id="edge87" class="edge">
<title>aptos_coin&#45;&gt;error</title>
<path fill="none" stroke="black" d="M1016.83,-575.62C1011.47,-531.06 998,-409.06 998,-307 998,-307 998,-307 998,-233 998,-177.92 1051.17,-132.8 1086.13,-109.09"/>
<polygon fill="black" stroke="black" points="1087.74,-112.22 1094.18,-103.81 1083.9,-106.37 1087.74,-112.22"/>
</g>
<!-- aptos_coin&#45;&gt;system_addresses -->
<g id="edge88" class="edge">
<title>aptos_coin&#45;&gt;system_addresses</title>
<path fill="none" stroke="black" d="M1045.4,-578.29C1092.83,-550.15 1191.06,-483.62 1229,-396 1237.77,-375.75 1229.27,-351.84 1219.4,-333.91"/>
<polygon fill="black" stroke="black" points="1222.46,-332.2 1214.33,-325.41 1216.45,-335.79 1222.46,-332.2"/>
</g>
<!-- resource_account&#45;&gt;account -->
<g id="edge91" class="edge">
<title>resource_account&#45;&gt;account</title>
<path fill="none" stroke="black" d="M1437.98,-504.76C1454.07,-494.7 1474.87,-481.71 1491.98,-471.01"/>
<polygon fill="black" stroke="black" points="1493.66,-474.09 1500.29,-465.82 1489.95,-468.15 1493.66,-474.09"/>
</g>
<!-- resource_account&#45;&gt;bcs -->
<g id="edge90" class="edge">
<title>resource_account&#45;&gt;bcs</title>
<path fill="none" stroke="black" d="M1487.36,-519.89C1656.58,-515.62 2058.41,-495.05 2141,-396 2193.05,-333.58 2161.54,-306.81 2047,-216 2015.01,-190.64 1969.79,-176.73 1938.18,-169.61"/>
<polygon fill="black" stroke="black" points="1939.19,-166.25 1928.68,-167.6 1937.74,-173.09 1939.19,-166.25"/>
</g>
<!-- timestamp -->
<g id="node30" class="node">
<title>timestamp</title>
<ellipse fill="none" stroke="black" cx="1152" cy="-378" rx="50.33" ry="18"/>
<text text-anchor="middle" x="1152" y="-372.95" font-family="Times,serif" font-size="14.00">timestamp</text>
</g>
<!-- resource_account&#45;&gt;timestamp -->
<g id="edge92" class="edge">
<title>resource_account&#45;&gt;timestamp</title>
<path fill="none" stroke="black" d="M1382.68,-504.99C1334.99,-478.94 1240.74,-427.47 1188.69,-399.04"/>
<polygon fill="black" stroke="black" points="1190.65,-396.12 1180.19,-394.4 1187.29,-402.26 1190.65,-396.12"/>
</g>
<!-- timestamp&#45;&gt;error -->
<g id="edge93" class="edge">
<title>timestamp&#45;&gt;error</title>
<path fill="none" stroke="black" d="M1136.73,-360.78C1128.56,-350.95 1119.31,-337.7 1115,-324 1092.71,-253.13 1102.92,-164.02 1110.47,-119.32"/>
<polygon fill="black" stroke="black" points="1113.87,-120.14 1112.18,-109.69 1106.98,-118.92 1113.87,-120.14"/>
</g>
<!-- timestamp&#45;&gt;system_addresses -->
<g id="edge94" class="edge">
<title>timestamp&#45;&gt;system_addresses</title>
<path fill="none" stroke="black" d="M1163.86,-360.05C1169.52,-351.97 1176.42,-342.12 1182.72,-333.11"/>
<polygon fill="black" stroke="black" points="1185.51,-335.23 1188.38,-325.03 1179.78,-331.21 1185.51,-335.23"/>
</g>
</g>
</svg>
