<?xml version="1.0" encoding="UTF-8" standalone="no"?>
<!DOCTYPE svg PUBLIC "-//W3C//DTD SVG 1.1//EN"
 "http://www.w3.org/Graphics/SVG/1.1/DTD/svg11.dtd">
<!-- Generated by graphviz version 8.1.0 (20230707.0739)
 -->
<!-- Title: G Pages: 1 -->
<svg width="102pt" height="188pt"
 viewBox="0.00 0.00 102.07 188.00" xmlns="http://www.w3.org/2000/svg" xmlns:xlink="http://www.w3.org/1999/xlink">
<g id="graph0" class="graph" transform="scale(1 1) rotate(0) translate(4 184)">
<title>G</title>
<polygon fill="white" stroke="none" points="-4,4 -4,-184 98.07,-184 98.07,4 -4,4"/>
<!-- registry -->
<g id="node1" class="node">
<title>registry</title>
<ellipse fill="none" stroke="black" cx="39.07" cy="-18" rx="39.07" ry="18"/>
<text text-anchor="middle" x="39.07" y="-12.95" font-family="Times,serif" font-size="14.00">registry</text>
</g>
<!-- user -->
<g id="node2" class="node">
<title>user</title>
<ellipse fill="none" stroke="black" cx="67.07" cy="-90" rx="27" ry="18"/>
<text text-anchor="middle" x="67.07" y="-84.95" font-family="Times,serif" font-size="14.00">user</text>
</g>
<!-- user&#45;&gt;registry -->
<g id="edge1" class="edge">
<title>user&#45;&gt;registry</title>
<path fill="none" stroke="black" d="M60.43,-72.41C57.27,-64.51 53.41,-54.85 49.84,-45.94"/>
<polygon fill="black" stroke="black" points="52.81,-44.94 45.85,-36.96 46.31,-47.54 52.81,-44.94"/>
</g>
<!-- market -->
<g id="node3" class="node">
<title>market</title>
<ellipse fill="none" stroke="black" cx="39.07" cy="-162" rx="37.02" ry="18"/>
<text text-anchor="middle" x="39.07" y="-156.95" font-family="Times,serif" font-size="14.00">market</text>
</g>
<!-- market&#45;&gt;registry -->
<g id="edge2" class="edge">
<title>market&#45;&gt;registry</title>
<path fill="none" stroke="black" d="M35.82,-143.89C34.02,-133.54 31.97,-120.06 31.07,-108 29.87,-92.04 29.87,-87.96 31.07,-72 31.68,-63.8 32.83,-54.95 34.06,-46.87"/>
<polygon fill="black" stroke="black" points="37.66,-47.55 35.82,-37.11 30.75,-46.42 37.66,-47.55"/>
</g>
<!-- market&#45;&gt;user -->
<g id="edge3" class="edge">
<title>market&#45;&gt;user</title>
<path fill="none" stroke="black" d="M45.85,-144.05C48.98,-136.23 52.77,-126.75 56.28,-117.98"/>
<polygon fill="black" stroke="black" points="59.89,-119.37 60.35,-108.79 53.39,-116.77 59.89,-119.37"/>
</g>
</g>
</svg>
