<?xml version="1.0" encoding="UTF-8" standalone="no"?>
<!DOCTYPE svg PUBLIC "-//W3C//DTD SVG 1.1//EN"
 "http://www.w3.org/Graphics/SVG/1.1/DTD/svg11.dtd">
<!-- Generated by graphviz version 8.1.0 (20230707.0739)
 -->
<!-- Title: G Pages: 1 -->
<svg width="2358pt" height="764pt"
 viewBox="0.00 0.00 2358.00 764.00" xmlns="http://www.w3.org/2000/svg" xmlns:xlink="http://www.w3.org/1999/xlink">
<g id="graph0" class="graph" transform="scale(1 1) rotate(0) translate(4 760)">
<title>G</title>
<polygon fill="white" stroke="none" points="-4,4 -4,-760 2354,-760 2354,4 -4,4"/>
<!-- registry -->
<g id="node1" class="node">
<title>registry</title>
<ellipse fill="none" stroke="black" cx="965" cy="-738" rx="39.07" ry="18"/>
<text text-anchor="middle" x="965" y="-732.95" font-family="Times,serif" font-size="14.00">registry</text>
</g>
<!-- option -->
<g id="node2" class="node">
<title>option</title>
<ellipse fill="none" stroke="black" cx="306" cy="-90" rx="34.46" ry="18"/>
<text text-anchor="middle" x="306" y="-84.95" font-family="Times,serif" font-size="14.00">option</text>
</g>
<!-- registry&#45;&gt;option -->
<g id="edge1" class="edge">
<title>registry&#45;&gt;option</title>
<path fill="none" stroke="black" d="M925.48,-737.13C781.43,-737.19 285.13,-733.7 136,-684 67.47,-661.16 0,-667.24 0,-595 0,-595 0,-595 0,-233 0,-190.33 3.1,-171.16 36,-144 69.76,-116.13 193.59,-101 261.21,-94.65"/>
<polygon fill="black" stroke="black" points="261.31,-98.07 270.95,-93.67 260.68,-91.1 261.31,-98.07"/>
</g>
<!-- string -->
<g id="node3" class="node">
<title>string</title>
<ellipse fill="none" stroke="black" cx="482" cy="-162" rx="31.9" ry="18"/>
<text text-anchor="middle" x="482" y="-156.95" font-family="Times,serif" font-size="14.00">string</text>
</g>
<!-- registry&#45;&gt;string -->
<g id="edge2" class="edge">
<title>registry&#45;&gt;string</title>
<path fill="none" stroke="black" d="M925.6,-736.9C790.79,-736.14 349.02,-730.11 216,-684 162.19,-665.35 140.06,-660.37 110,-612 9.27,-449.91 115.13,-318.67 276,-216 326.4,-183.83 395.45,-171.15 439.39,-166.18"/>
<polygon fill="black" stroke="black" points="439.69,-169.56 449.27,-165.05 438.96,-162.6 439.69,-169.56"/>
</g>
<!-- signer -->
<g id="node4" class="node">
<title>signer</title>
<ellipse fill="none" stroke="black" cx="2198" cy="-90" rx="33.44" ry="18"/>
<text text-anchor="middle" x="2198" y="-84.95" font-family="Times,serif" font-size="14.00">signer</text>
</g>
<!-- registry&#45;&gt;signer -->
<g id="edge3" class="edge">
<title>registry&#45;&gt;signer</title>
<path fill="none" stroke="black" d="M1004.51,-736.99C1179.31,-736.67 1884,-732.36 2099,-684 2199.1,-661.49 2312,-697.6 2312,-595 2312,-595 2312,-595 2312,-233 2312,-179.31 2261.83,-134.36 2228.06,-110.19"/>
<polygon fill="black" stroke="black" points="2230.65,-107.04 2220.44,-104.21 2226.66,-112.79 2230.65,-107.04"/>
</g>
<!-- type_info -->
<g id="node5" class="node">
<title>type_info</title>
<ellipse fill="none" stroke="black" cx="1180" cy="-234" rx="46.23" ry="18"/>
<text text-anchor="middle" x="1180" y="-228.95" font-family="Times,serif" font-size="14.00">type_info</text>
</g>
<!-- registry&#45;&gt;type_info -->
<g id="edge4" class="edge">
<title>registry&#45;&gt;type_info</title>
<path fill="none" stroke="black" d="M977.65,-720.5C994.83,-697.38 1025.52,-653.51 1044,-612 1104.81,-475.35 1064.76,-420.05 1135,-288 1140.53,-277.61 1148.37,-267.45 1155.97,-258.84"/>
<polygon fill="black" stroke="black" points="1158.17,-261.53 1162.38,-251.81 1153.03,-256.78 1158.17,-261.53"/>
</g>
<!-- table -->
<g id="node6" class="node">
<title>table</title>
<ellipse fill="none" stroke="black" cx="711" cy="-306" rx="28.83" ry="18"/>
<text text-anchor="middle" x="711" y="-300.95" font-family="Times,serif" font-size="14.00">table</text>
</g>
<!-- registry&#45;&gt;table -->
<g id="edge5" class="edge">
<title>registry&#45;&gt;table</title>
<path fill="none" stroke="black" d="M926.22,-734.69C759.74,-724.28 114,-678.51 114,-595 114,-595 114,-595 114,-521 114,-401.98 539.8,-331.36 672.2,-312.28"/>
<polygon fill="black" stroke="black" points="672.6,-315.61 682.01,-310.74 671.61,-308.68 672.6,-315.61"/>
</g>
<!-- event -->
<g id="node7" class="node">
<title>event</title>
<ellipse fill="none" stroke="black" cx="2101" cy="-378" rx="30.88" ry="18"/>
<text text-anchor="middle" x="2101" y="-372.95" font-family="Times,serif" font-size="14.00">event</text>
</g>
<!-- registry&#45;&gt;event -->
<g id="edge6" class="edge">
<title>registry&#45;&gt;event</title>
<path fill="none" stroke="black" d="M1004.43,-736.84C1218.96,-735.44 2236,-722.11 2236,-595 2236,-595 2236,-595 2236,-521 2236,-462.05 2174.13,-417.83 2134.15,-395.42"/>
<polygon fill="black" stroke="black" points="2135.97,-391.89 2125.52,-390.2 2132.64,-398.04 2135.97,-391.89"/>
</g>
<!-- account -->
<g id="node8" class="node">
<title>account</title>
<ellipse fill="none" stroke="black" cx="1560" cy="-450" rx="39.58" ry="18"/>
<text text-anchor="middle" x="1560" y="-444.95" font-family="Times,serif" font-size="14.00">account</text>
</g>
<!-- registry&#45;&gt;account -->
<g id="edge7" class="edge">
<title>registry&#45;&gt;account</title>
<path fill="none" stroke="black" d="M1002.62,-732.42C1049.38,-725.82 1130.94,-711.31 1196,-684 1332.59,-626.66 1475.01,-519.17 1533.01,-473"/>
<polygon fill="black" stroke="black" points="1534.97,-475.12 1540.59,-466.13 1530.59,-469.65 1534.97,-475.12"/>
</g>
<!-- coin -->
<g id="node9" class="node">
<title>coin</title>
<ellipse fill="none" stroke="black" cx="867" cy="-522" rx="27" ry="18"/>
<text text-anchor="middle" x="867" y="-516.95" font-family="Times,serif" font-size="14.00">coin</text>
</g>
<!-- registry&#45;&gt;coin -->
<g id="edge8" class="edge">
<title>registry&#45;&gt;coin</title>
<path fill="none" stroke="black" d="M952.93,-720.44C936.53,-697.26 907.31,-653.32 890,-612 881.72,-592.22 875.79,-568.69 872.03,-550.8"/>
<polygon fill="black" stroke="black" points="875.31,-550.33 869.92,-541.2 868.44,-551.69 875.31,-550.33"/>
</g>
<!-- tablist -->
<g id="node10" class="node">
<title>tablist</title>
<ellipse fill="none" stroke="black" cx="498" cy="-594" rx="33.44" ry="18"/>
<text text-anchor="middle" x="498" y="-588.95" font-family="Times,serif" font-size="14.00">tablist</text>
</g>
<!-- registry&#45;&gt;tablist -->
<g id="edge9" class="edge">
<title>registry&#45;&gt;tablist</title>
<path fill="none" stroke="black" d="M932.9,-727.24C849.73,-701.95 627.45,-634.36 537.05,-606.87"/>
<polygon fill="black" stroke="black" points="538.28,-603.29 527.7,-603.73 536.25,-609.98 538.28,-603.29"/>
</g>
<!-- incentives -->
<g id="node11" class="node">
<title>incentives</title>
<ellipse fill="none" stroke="black" cx="1139" cy="-666" rx="48.28" ry="18"/>
<text text-anchor="middle" x="1139" y="-660.95" font-family="Times,serif" font-size="14.00">incentives</text>
</g>
<!-- registry&#45;&gt;incentives -->
<g id="edge10" class="edge">
<title>registry&#45;&gt;incentives</title>
<path fill="none" stroke="black" d="M993.73,-725.44C1021.87,-714.12 1065.04,-696.75 1097.02,-683.89"/>
<polygon fill="black" stroke="black" points="1098,-686.86 1105.97,-679.88 1095.39,-680.37 1098,-686.86"/>
</g>
<!-- vector -->
<g id="node12" class="node">
<title>vector</title>
<ellipse fill="none" stroke="black" cx="808" cy="-18" rx="33.95" ry="18"/>
<text text-anchor="middle" x="808" y="-12.95" font-family="Times,serif" font-size="14.00">vector</text>
</g>
<!-- option&#45;&gt;vector -->
<g id="edge11" class="edge">
<title>option&#45;&gt;vector</title>
<path fill="none" stroke="black" d="M338.94,-84.41C426.63,-72.18 665.79,-38.83 764.5,-25.07"/>
<polygon fill="black" stroke="black" points="764.85,-28.41 774.27,-23.56 763.88,-21.48 764.85,-28.41"/>
</g>
<!-- string&#45;&gt;option -->
<g id="edge13" class="edge">
<title>string&#45;&gt;option</title>
<path fill="none" stroke="black" d="M456.41,-150.82C426.51,-138.93 376.82,-119.17 342.8,-105.63"/>
<polygon fill="black" stroke="black" points="344.36,-102.09 333.78,-101.65 341.78,-108.6 344.36,-102.09"/>
</g>
<!-- string&#45;&gt;vector -->
<g id="edge12" class="edge">
<title>string&#45;&gt;vector</title>
<path fill="none" stroke="black" d="M506.77,-150.21C564.03,-125.27 705.76,-63.54 772.35,-34.53"/>
<polygon fill="black" stroke="black" points="773.6,-37.37 781.37,-30.16 770.8,-30.95 773.6,-37.37"/>
</g>
<!-- type_info&#45;&gt;string -->
<g id="edge14" class="edge">
<title>type_info&#45;&gt;string</title>
<path fill="none" stroke="black" d="M1135.54,-228.54C1009.02,-215.85 648.14,-179.66 524.31,-167.24"/>
<polygon fill="black" stroke="black" points="524.72,-163.67 514.42,-166.15 524.02,-170.63 524.72,-163.67"/>
</g>
<!-- error -->
<g id="node13" class="node">
<title>error</title>
<ellipse fill="none" stroke="black" cx="1180" cy="-90" rx="28.83" ry="18"/>
<text text-anchor="middle" x="1180" y="-84.95" font-family="Times,serif" font-size="14.00">error</text>
</g>
<!-- type_info&#45;&gt;error -->
<g id="edge15" class="edge">
<title>type_info&#45;&gt;error</title>
<path fill="none" stroke="black" d="M1180,-215.59C1180,-191.5 1180,-147.75 1180,-119.03"/>
<polygon fill="black" stroke="black" points="1183.5,-119.11 1180,-109.11 1176.5,-119.11 1183.5,-119.11"/>
</g>
<!-- features -->
<g id="node14" class="node">
<title>features</title>
<ellipse fill="none" stroke="black" cx="1436" cy="-162" rx="40.09" ry="18"/>
<text text-anchor="middle" x="1436" y="-156.95" font-family="Times,serif" font-size="14.00">features</text>
</g>
<!-- type_info&#45;&gt;features -->
<g id="edge16" class="edge">
<title>type_info&#45;&gt;features</title>
<path fill="none" stroke="black" d="M1217.22,-222.82C1263.61,-210.14 1342.75,-188.5 1392.06,-175.02"/>
<polygon fill="black" stroke="black" points="1392.68,-178.2 1401.4,-172.19 1390.83,-171.45 1392.68,-178.2"/>
</g>
<!-- bcs -->
<g id="node15" class="node">
<title>bcs</title>
<ellipse fill="none" stroke="black" cx="1683" cy="-162" rx="27" ry="18"/>
<text text-anchor="middle" x="1683" y="-156.95" font-family="Times,serif" font-size="14.00">bcs</text>
</g>
<!-- type_info&#45;&gt;bcs -->
<g id="edge17" class="edge">
<title>type_info&#45;&gt;bcs</title>
<path fill="none" stroke="black" d="M1222.89,-227.03C1319.81,-213.54 1554.42,-180.89 1645.75,-168.18"/>
<polygon fill="black" stroke="black" points="1645.98,-171.55 1655.41,-166.7 1645.02,-164.61 1645.98,-171.55"/>
</g>
<!-- event&#45;&gt;error -->
<g id="edge18" class="edge">
<title>event&#45;&gt;error</title>
<path fill="none" stroke="black" d="M2102.4,-359.69C2103.04,-340.23 2101.16,-308.65 2085,-288 1988.38,-164.55 1914.68,-183.63 1763,-144 1659.75,-117.02 1333.57,-98.64 1219.69,-92.9"/>
<polygon fill="black" stroke="black" points="1220.2,-89.38 1210.04,-92.37 1219.85,-96.37 1220.2,-89.38"/>
</g>
<!-- event&#45;&gt;features -->
<g id="edge19" class="edge">
<title>event&#45;&gt;features</title>
<path fill="none" stroke="black" d="M2088.92,-361.37C2070.06,-337.14 2034.96,-292.8 2027,-288 1934.71,-232.33 1609.62,-185.47 1485.06,-169.16"/>
<polygon fill="black" stroke="black" points="1485.71,-165.59 1475.35,-167.77 1484.81,-172.53 1485.71,-165.59"/>
</g>
<!-- event&#45;&gt;bcs -->
<g id="edge20" class="edge">
<title>event&#45;&gt;bcs</title>
<path fill="none" stroke="black" d="M2096.99,-359.81C2091.61,-340.16 2080.3,-308.12 2060,-288 1964.62,-193.46 1796.18,-170.42 1721.03,-164.81"/>
<polygon fill="black" stroke="black" points="1721.44,-161.26 1711.22,-164.07 1720.96,-168.24 1721.44,-161.26"/>
</g>
<!-- guid -->
<g id="node16" class="node">
<title>guid</title>
<ellipse fill="none" stroke="black" cx="1991" cy="-306" rx="27.3" ry="18"/>
<text text-anchor="middle" x="1991" y="-300.95" font-family="Times,serif" font-size="14.00">guid</text>
</g>
<!-- event&#45;&gt;guid -->
<g id="edge21" class="edge">
<title>event&#45;&gt;guid</title>
<path fill="none" stroke="black" d="M2080.57,-364C2063.35,-353.04 2038.52,-337.24 2019.37,-325.06"/>
<polygon fill="black" stroke="black" points="2021.53,-321.65 2011.22,-319.23 2017.78,-327.55 2021.53,-321.65"/>
</g>
<!-- account&#45;&gt;option -->
<g id="edge23" class="edge">
<title>account&#45;&gt;option</title>
<path fill="none" stroke="black" d="M1520.12,-448.39C1325.25,-445.24 480.75,-429.71 437,-396 397.14,-365.29 421.72,-334.71 403,-288 377.78,-225.09 340.81,-154.55 320.57,-117.31"/>
<polygon fill="black" stroke="black" points="323.2,-115.82 315.33,-108.73 317.05,-119.18 323.2,-115.82"/>
</g>
<!-- account&#45;&gt;signer -->
<g id="edge24" class="edge">
<title>account&#45;&gt;signer</title>
<path fill="none" stroke="black" d="M1599.33,-447.41C1722.43,-442.14 2094.85,-424.04 2141,-396 2181.14,-371.61 2198,-353.97 2198,-307 2198,-307 2198,-307 2198,-233 2198,-193.57 2198,-147.97 2198,-119.31"/>
<polygon fill="black" stroke="black" points="2201.5,-119.49 2198,-109.49 2194.5,-119.49 2201.5,-119.49"/>
</g>
<!-- account&#45;&gt;type_info -->
<g id="edge27" class="edge">
<title>account&#45;&gt;type_info</title>
<path fill="none" stroke="black" d="M1521.1,-445.98C1451.62,-439.94 1309.75,-424.44 1270,-396 1224.21,-363.25 1198.87,-299.55 1187.48,-262.85"/>
<polygon fill="black" stroke="black" points="1190.58,-261.99 1184.39,-253.4 1183.87,-263.98 1190.58,-261.99"/>
</g>
<!-- account&#45;&gt;table -->
<g id="edge28" class="edge">
<title>account&#45;&gt;table</title>
<path fill="none" stroke="black" d="M1520.83,-446.77C1436.19,-441.54 1230.12,-426.54 1060,-396 943.93,-375.16 809.47,-336.73 746.71,-317.93"/>
<polygon fill="black" stroke="black" points="748.14,-314.4 737.55,-314.87 746.12,-321.11 748.14,-314.4"/>
</g>
<!-- account&#45;&gt;event -->
<g id="edge35" class="edge">
<title>account&#45;&gt;event</title>
<path fill="none" stroke="black" d="M1599.8,-448.17C1684.74,-445.66 1889.62,-435.63 2056,-396 2059.41,-395.19 2062.92,-394.18 2066.39,-393.07"/>
<polygon fill="black" stroke="black" points="2067.31,-396.11 2075.6,-389.51 2065,-389.5 2067.31,-396.11"/>
</g>
<!-- account&#45;&gt;vector -->
<g id="edge22" class="edge">
<title>account&#45;&gt;vector</title>
<path fill="none" stroke="black" d="M1520.68,-446.71C1436,-441.27 1239.23,-425.74 1180,-396 1008.91,-310.09 870.05,-114.55 824.17,-44.53"/>
<polygon fill="black" stroke="black" points="826.69,-42.99 818.31,-36.51 820.82,-46.8 826.69,-42.99"/>
</g>
<!-- account&#45;&gt;error -->
<g id="edge25" class="edge">
<title>account&#45;&gt;error</title>
<path fill="none" stroke="black" d="M1520.9,-446.36C1444.79,-440.63 1280,-425.17 1232,-396 1163.86,-354.6 1150.05,-327.7 1125,-252 1108.94,-203.46 1139.74,-146.96 1161.38,-115.45"/>
<polygon fill="black" stroke="black" points="1164.79,-117.69 1167.74,-107.51 1159.09,-113.63 1164.79,-117.69"/>
</g>
<!-- account&#45;&gt;bcs -->
<g id="edge26" class="edge">
<title>account&#45;&gt;bcs</title>
<path fill="none" stroke="black" d="M1599.2,-446.46C1662.36,-441.46 1782.18,-427.92 1808,-396 1865.04,-325.49 1759.58,-225.03 1708.48,-182.85"/>
<polygon fill="black" stroke="black" points="1711.17,-179.72 1701.19,-176.13 1706.76,-185.15 1711.17,-179.72"/>
</g>
<!-- account&#45;&gt;guid -->
<g id="edge33" class="edge">
<title>account&#45;&gt;guid</title>
<path fill="none" stroke="black" d="M1599.39,-447.44C1706.15,-442.8 1994.96,-427.43 2023,-396 2039.42,-377.59 2025.55,-350.15 2011.29,-330.6"/>
<polygon fill="black" stroke="black" points="2013.49,-328.74 2004.6,-322.98 2007.96,-333.03 2013.49,-328.74"/>
</g>
<!-- system_addresses -->
<g id="node17" class="node">
<title>system_addresses</title>
<ellipse fill="none" stroke="black" cx="1699" cy="-306" rx="76.94" ry="18"/>
<text text-anchor="middle" x="1699" y="-300.95" font-family="Times,serif" font-size="14.00">system_addresses</text>
</g>
<!-- account&#45;&gt;system_addresses -->
<g id="edge29" class="edge">
<title>account&#45;&gt;system_addresses</title>
<path fill="none" stroke="black" d="M1551.64,-432.25C1543.35,-413.01 1533.9,-381.35 1549,-360 1559.49,-345.17 1598.79,-331.59 1634.53,-321.89"/>
<polygon fill="black" stroke="black" points="1635.2,-325.07 1643.98,-319.13 1633.42,-318.3 1635.2,-325.07"/>
</g>
<!-- hash -->
<g id="node18" class="node">
<title>hash</title>
<ellipse fill="none" stroke="black" cx="1462" cy="-234" rx="27.81" ry="18"/>
<text text-anchor="middle" x="1462" y="-228.95" font-family="Times,serif" font-size="14.00">hash</text>
</g>
<!-- account&#45;&gt;hash -->
<g id="edge30" class="edge">
<title>account&#45;&gt;hash</title>
<path fill="none" stroke="black" d="M1598.94,-445.81C1658.4,-440.04 1767.41,-425.61 1791,-396 1803.56,-380.23 1800.88,-305.19 1785,-288 1747.24,-247.12 1578.18,-237.77 1500.84,-235.63"/>
<polygon fill="black" stroke="black" points="1501.21,-232.11 1491.12,-235.37 1501.03,-239.11 1501.21,-232.11"/>
</g>
<!-- ed25519 -->
<g id="node19" class="node">
<title>ed25519</title>
<ellipse fill="none" stroke="black" cx="1297" cy="-306" rx="42.65" ry="18"/>
<text text-anchor="middle" x="1297" y="-300.95" font-family="Times,serif" font-size="14.00">ed25519</text>
</g>
<!-- account&#45;&gt;ed25519 -->
<g id="edge31" class="edge">
<title>account&#45;&gt;ed25519</title>
<path fill="none" stroke="black" d="M1520.44,-447.41C1451.23,-443.71 1312.68,-431.9 1283,-396 1268.72,-378.73 1274.81,-352.92 1282.94,-333.53"/>
<polygon fill="black" stroke="black" points="1286.42,-335.34 1287.41,-324.79 1280.06,-332.42 1286.42,-335.34"/>
</g>
<!-- multi_ed25519 -->
<g id="node20" class="node">
<title>multi_ed25519</title>
<ellipse fill="none" stroke="black" cx="1359" cy="-378" rx="67.22" ry="18"/>
<text text-anchor="middle" x="1359" y="-372.95" font-family="Times,serif" font-size="14.00">multi_ed25519</text>
</g>
<!-- account&#45;&gt;multi_ed25519 -->
<g id="edge32" class="edge">
<title>account&#45;&gt;multi_ed25519</title>
<path fill="none" stroke="black" d="M1529.47,-438.37C1497.55,-427.25 1446.93,-409.62 1409.13,-396.46"/>
<polygon fill="black" stroke="black" points="1410.43,-392.86 1399.83,-392.87 1408.13,-399.47 1410.43,-392.86"/>
</g>
<!-- from_bcs -->
<g id="node21" class="node">
<title>from_bcs</title>
<ellipse fill="none" stroke="black" cx="718" cy="-234" rx="46.23" ry="18"/>
<text text-anchor="middle" x="718" y="-228.95" font-family="Times,serif" font-size="14.00">from_bcs</text>
</g>
<!-- account&#45;&gt;from_bcs -->
<g id="edge34" class="edge">
<title>account&#45;&gt;from_bcs</title>
<path fill="none" stroke="black" d="M1520.54,-447.27C1444.9,-443.25 1274.68,-430.82 1136,-396 990.85,-359.55 827.71,-286.92 755.65,-253.1"/>
<polygon fill="black" stroke="black" points="757.64,-249.7 747.1,-248.6 754.65,-256.03 757.64,-249.7"/>
</g>
<!-- create_signer -->
<g id="node22" class="node">
<title>create_signer</title>
<ellipse fill="none" stroke="black" cx="1722" cy="-378" rx="60.05" ry="18"/>
<text text-anchor="middle" x="1722" y="-372.95" font-family="Times,serif" font-size="14.00">create_signer</text>
</g>
<!-- account&#45;&gt;create_signer -->
<g id="edge36" class="edge">
<title>account&#45;&gt;create_signer</title>
<path fill="none" stroke="black" d="M1587.85,-436.97C1612.85,-426.16 1649.96,-410.13 1678.81,-397.66"/>
<polygon fill="black" stroke="black" points="1679.85,-400.59 1687.64,-393.41 1677.07,-394.17 1679.85,-400.59"/>
</g>
<!-- chain_id -->
<g id="node23" class="node">
<title>chain_id</title>
<ellipse fill="none" stroke="black" cx="1601" cy="-378" rx="42.65" ry="18"/>
<text text-anchor="middle" x="1601" y="-372.95" font-family="Times,serif" font-size="14.00">chain_id</text>
</g>
<!-- account&#45;&gt;chain_id -->
<g id="edge37" class="edge">
<title>account&#45;&gt;chain_id</title>
<path fill="none" stroke="black" d="M1569.72,-432.41C1574.45,-424.34 1580.25,-414.43 1585.56,-405.35"/>
<polygon fill="black" stroke="black" points="1589.03,-407.35 1591.07,-396.96 1582.99,-403.82 1589.03,-407.35"/>
</g>
<!-- coin&#45;&gt;option -->
<g id="edge38" class="edge">
<title>coin&#45;&gt;option</title>
<path fill="none" stroke="black" d="M839.88,-520.37C745.65,-517.87 433.27,-506.78 342,-468 240.13,-424.72 152,-417.68 152,-307 152,-307 152,-307 152,-233 152,-169.61 223.4,-126.71 268.97,-105.78"/>
<polygon fill="black" stroke="black" points="270.1,-108.67 277.82,-101.41 267.26,-102.27 270.1,-108.67"/>
</g>
<!-- coin&#45;&gt;string -->
<g id="edge39" class="edge">
<title>coin&#45;&gt;string</title>
<path fill="none" stroke="black" d="M839.67,-520.48C752.42,-518.41 481.84,-508.77 406,-468 321.09,-422.36 238.56,-372.47 285,-288 318.75,-226.62 396.79,-191.13 443.89,-174.56"/>
<polygon fill="black" stroke="black" points="444.67,-177.65 453.01,-171.12 442.41,-171.02 444.67,-177.65"/>
</g>
<!-- coin&#45;&gt;signer -->
<g id="edge40" class="edge">
<title>coin&#45;&gt;signer</title>
<path fill="none" stroke="black" d="M891.35,-513.83C947.25,-497.55 1089.27,-457.26 1210,-432 1309.13,-411.26 1345.82,-444 1435,-396 1454.11,-385.71 1450.65,-373.05 1468,-360 1525.5,-316.75 1547.13,-316.96 1613,-288 1776.05,-216.31 1817.2,-197.8 1987,-144 2045.13,-125.58 2113.86,-109.32 2156.7,-99.81"/>
<polygon fill="black" stroke="black" points="2157.26,-103.05 2166.27,-97.49 2155.76,-96.22 2157.26,-103.05"/>
</g>
<!-- coin&#45;&gt;type_info -->
<g id="edge42" class="edge">
<title>coin&#45;&gt;type_info</title>
<path fill="none" stroke="black" d="M873.59,-504.15C891.1,-461.54 942.94,-348.57 1022,-288 1052.67,-264.5 1094.34,-251.1 1127.19,-243.65"/>
<polygon fill="black" stroke="black" points="1127.47,-246.95 1136.51,-241.44 1126,-240.11 1127.47,-246.95"/>
</g>
<!-- coin&#45;&gt;event -->
<g id="edge44" class="edge">
<title>coin&#45;&gt;event</title>
<path fill="none" stroke="black" d="M894.04,-519.99C991.07,-516.17 1330.71,-501.11 1609,-468 1801.85,-445.06 1850.41,-438.13 2040,-396 2047.59,-394.31 2055.63,-392.26 2063.31,-390.18"/>
<polygon fill="black" stroke="black" points="2064.14,-393.3 2072.83,-387.24 2062.25,-386.56 2064.14,-393.3"/>
</g>
<!-- coin&#45;&gt;account -->
<g id="edge45" class="edge">
<title>coin&#45;&gt;account</title>
<path fill="none" stroke="black" d="M893.5,-517.51C922.36,-513.79 969.9,-507.92 1011,-504 1230.59,-483.06 1289.34,-509.4 1506,-468 1510.34,-467.17 1514.83,-466.11 1519.27,-464.92"/>
<polygon fill="black" stroke="black" points="1519.84,-468.11 1528.48,-461.96 1517.9,-461.38 1519.84,-468.11"/>
</g>
<!-- coin&#45;&gt;error -->
<g id="edge41" class="edge">
<title>coin&#45;&gt;error</title>
<path fill="none" stroke="black" d="M866.73,-503.64C866.81,-443.86 875.52,-244.71 984,-144 1026.78,-104.29 1096.22,-93.77 1139.93,-91.3"/>
<polygon fill="black" stroke="black" points="1139.89,-94.76 1149.73,-90.83 1139.58,-87.77 1139.89,-94.76"/>
</g>
<!-- coin&#45;&gt;system_addresses -->
<g id="edge43" class="edge">
<title>coin&#45;&gt;system_addresses</title>
<path fill="none" stroke="black" d="M893.78,-518.1C979.48,-508.26 1253.97,-472.43 1468,-396 1500.58,-384.37 1505.12,-373.42 1537,-360 1570.69,-345.81 1609.59,-332.98 1640.83,-323.49"/>
<polygon fill="black" stroke="black" points="1641.53,-326.63 1650.11,-320.41 1639.52,-319.93 1641.53,-326.63"/>
</g>
<!-- aggregator -->
<g id="node24" class="node">
<title>aggregator</title>
<ellipse fill="none" stroke="black" cx="344" cy="-306" rx="50.33" ry="18"/>
<text text-anchor="middle" x="344" y="-300.95" font-family="Times,serif" font-size="14.00">aggregator</text>
</g>
<!-- coin&#45;&gt;aggregator -->
<g id="edge46" class="edge">
<title>coin&#45;&gt;aggregator</title>
<path fill="none" stroke="black" d="M840.17,-519.01C782.94,-514.27 645.04,-500.22 534,-468 456.38,-445.47 419.58,-457.38 367,-396 352.57,-379.16 347.03,-354.38 344.98,-335.24"/>
<polygon fill="black" stroke="black" points="348.4,-335.14 344.12,-325.45 341.43,-335.7 348.4,-335.14"/>
</g>
<!-- aggregator_factory -->
<g id="node25" class="node">
<title>aggregator_factory</title>
<ellipse fill="none" stroke="black" cx="737" cy="-378" rx="81.04" ry="18"/>
<text text-anchor="middle" x="737" y="-372.95" font-family="Times,serif" font-size="14.00">aggregator_factory</text>
</g>
<!-- coin&#45;&gt;aggregator_factory -->
<g id="edge47" class="edge">
<title>coin&#45;&gt;aggregator_factory</title>
<path fill="none" stroke="black" d="M853.33,-506.07C831.05,-481.73 786.66,-433.24 759.62,-403.71"/>
<polygon fill="black" stroke="black" points="762.82,-401.93 753.48,-396.91 757.66,-406.65 762.82,-401.93"/>
</g>
<!-- optional_aggregator -->
<g id="node26" class="node">
<title>optional_aggregator</title>
<ellipse fill="none" stroke="black" cx="628" cy="-450" rx="85.13" ry="18"/>
<text text-anchor="middle" x="628" y="-444.95" font-family="Times,serif" font-size="14.00">optional_aggregator</text>
</g>
<!-- coin&#45;&gt;optional_aggregator -->
<g id="edge48" class="edge">
<title>coin&#45;&gt;optional_aggregator</title>
<path fill="none" stroke="black" d="M842.77,-513.9C806.43,-503.26 736.73,-482.85 686.58,-468.16"/>
<polygon fill="black" stroke="black" points="687.78,-464.57 677.19,-465.12 685.81,-471.29 687.78,-464.57"/>
</g>
<!-- tablist&#45;&gt;option -->
<g id="edge49" class="edge">
<title>tablist&#45;&gt;option</title>
<path fill="none" stroke="black" d="M464.41,-591.62C385.61,-587.83 191.48,-575.08 138,-540 67.57,-493.8 38,-463.23 38,-379 38,-379 38,-379 38,-233 38,-192.03 32.32,-172.24 62,-144 90.22,-117.15 199.06,-101.88 261.42,-95.16"/>
<polygon fill="black" stroke="black" points="261.55,-98.56 271.13,-94.04 260.82,-91.6 261.55,-98.56"/>
</g>
<!-- table_with_length -->
<g id="node27" class="node">
<title>table_with_length</title>
<ellipse fill="none" stroke="black" cx="523" cy="-378" rx="77.45" ry="18"/>
<text text-anchor="middle" x="523" y="-372.95" font-family="Times,serif" font-size="14.00">table_with_length</text>
</g>
<!-- tablist&#45;&gt;table_with_length -->
<g id="edge50" class="edge">
<title>tablist&#45;&gt;table_with_length</title>
<path fill="none" stroke="black" d="M500,-575.85C504.31,-538.99 514.48,-451.92 519.73,-406.96"/>
<polygon fill="black" stroke="black" points="523.3,-407.57 520.99,-397.23 516.35,-406.76 523.3,-407.57"/>
</g>
<!-- incentives&#45;&gt;signer -->
<g id="edge52" class="edge">
<title>incentives&#45;&gt;signer</title>
<path fill="none" stroke="black" d="M1186.46,-661.75C1355.33,-649.73 1926.03,-605.09 2096,-540 2195.62,-501.85 2274,-485.67 2274,-379 2274,-379 2274,-379 2274,-233 2274,-187.03 2242.65,-141.53 2220.22,-114.87"/>
<polygon fill="black" stroke="black" points="2222.22,-112.83 2213.02,-107.57 2216.93,-117.42 2222.22,-112.83"/>
</g>
<!-- incentives&#45;&gt;type_info -->
<g id="edge53" class="edge">
<title>incentives&#45;&gt;type_info</title>
<path fill="none" stroke="black" d="M1133.54,-647.71C1125.65,-621.18 1112,-568.67 1112,-523 1112,-523 1112,-523 1112,-449 1112,-378.68 1145.76,-301.21 1165.71,-261.58"/>
<polygon fill="black" stroke="black" points="1169.23,-263.39 1170.69,-252.89 1163,-260.18 1169.23,-263.39"/>
</g>
<!-- incentives&#45;&gt;coin -->
<g id="edge54" class="edge">
<title>incentives&#45;&gt;coin</title>
<path fill="none" stroke="black" d="M1091.19,-663.27C1044.6,-659.41 973.7,-647.59 924,-612 902.28,-596.44 886.82,-569.79 877.54,-549.69"/>
<polygon fill="black" stroke="black" points="880.46,-548.64 873.24,-540.88 874.04,-551.44 880.46,-548.64"/>
</g>
<!-- incentives&#45;&gt;tablist -->
<g id="edge56" class="edge">
<title>incentives&#45;&gt;tablist</title>
<path fill="none" stroke="black" d="M1092.9,-659.97C973.88,-646.97 657.49,-612.42 541.45,-599.75"/>
<polygon fill="black" stroke="black" points="542.18,-596.2 531.86,-598.59 541.42,-603.15 542.18,-596.2"/>
</g>
<!-- incentives&#45;&gt;vector -->
<g id="edge51" class="edge">
<title>incentives&#45;&gt;vector</title>
<path fill="none" stroke="black" d="M1187.22,-664.14C1412.45,-658.87 2350,-622.3 2350,-379 2350,-379 2350,-379 2350,-161 2350,-98.11 2298.89,-94.07 2240,-72 2107.63,-22.38 1081.51,-19.09 853,-18.98"/>
<polygon fill="black" stroke="black" points="853.12,-15.48 843.12,-18.97 853.12,-22.48 853.12,-15.48"/>
</g>
<!-- aptos_coin -->
<g id="node28" class="node">
<title>aptos_coin</title>
<ellipse fill="none" stroke="black" cx="984" cy="-594" rx="50.84" ry="18"/>
<text text-anchor="middle" x="984" y="-588.95" font-family="Times,serif" font-size="14.00">aptos_coin</text>
</g>
<!-- incentives&#45;&gt;aptos_coin -->
<g id="edge55" class="edge">
<title>incentives&#45;&gt;aptos_coin</title>
<path fill="none" stroke="black" d="M1109.11,-651.5C1085.01,-640.62 1050.87,-625.2 1024.35,-613.22"/>
<polygon fill="black" stroke="black" points="1026.14,-609.74 1015.59,-608.81 1023.26,-616.12 1026.14,-609.74"/>
</g>
<!-- resource_account -->
<g id="node29" class="node">
<title>resource_account</title>
<ellipse fill="none" stroke="black" cx="1964" cy="-522" rx="75.41" ry="18"/>
<text text-anchor="middle" x="1964" y="-516.95" font-family="Times,serif" font-size="14.00">resource_account</text>
</g>
<!-- incentives&#45;&gt;resource_account -->
<g id="edge57" class="edge">
<title>incentives&#45;&gt;resource_account</title>
<path fill="none" stroke="black" d="M1182.19,-657.57C1316.5,-634.45 1727.71,-563.67 1893.56,-535.12"/>
<polygon fill="black" stroke="black" points="1893.86,-538.45 1903.12,-533.31 1892.67,-531.55 1893.86,-538.45"/>
</g>
<!-- features&#45;&gt;signer -->
<g id="edge58" class="edge">
<title>features&#45;&gt;signer</title>
<path fill="none" stroke="black" d="M1475.1,-157.41C1604.47,-145.52 2018.15,-107.52 2154.18,-95.03"/>
<polygon fill="black" stroke="black" points="2154.35,-98.43 2163.99,-94.03 2153.71,-91.46 2154.35,-98.43"/>
</g>
<!-- features&#45;&gt;error -->
<g id="edge59" class="edge">
<title>features&#45;&gt;error</title>
<path fill="none" stroke="black" d="M1404.1,-150.68C1396.85,-148.41 1389.18,-146.07 1382,-144 1324.72,-127.48 1257.69,-110.32 1217.06,-100.15"/>
<polygon fill="black" stroke="black" points="1218.13,-96.56 1207.58,-97.54 1216.44,-103.35 1218.13,-96.56"/>
</g>
<!-- system_addresses&#45;&gt;signer -->
<g id="edge60" class="edge">
<title>system_addresses&#45;&gt;signer</title>
<path fill="none" stroke="black" d="M1734.89,-289.61C1826.98,-250.11 2070.87,-145.52 2162.52,-106.22"/>
<polygon fill="black" stroke="black" points="2163.61,-109.13 2171.42,-101.97 2160.85,-102.7 2163.61,-109.13"/>
</g>
<!-- system_addresses&#45;&gt;error -->
<g id="edge61" class="edge">
<title>system_addresses&#45;&gt;error</title>
<path fill="none" stroke="black" d="M1682.51,-288.07C1648.82,-254.58 1568.2,-180.02 1485,-144 1395.57,-105.29 1279.82,-94.83 1219.9,-92.02"/>
<polygon fill="black" stroke="black" points="1220.17,-88.48 1210.03,-91.56 1219.87,-95.48 1220.17,-88.48"/>
</g>
<!-- ed25519&#45;&gt;option -->
<g id="edge62" class="edge">
<title>ed25519&#45;&gt;option</title>
<path fill="none" stroke="black" d="M1287.42,-288.12C1273.9,-264.9 1249.28,-224.96 1235,-216 1084.75,-121.73 516.77,-97.37 351.42,-92.21"/>
<polygon fill="black" stroke="black" points="351.77,-88.69 341.67,-91.89 351.56,-95.69 351.77,-88.69"/>
</g>
<!-- ed25519&#45;&gt;type_info -->
<g id="edge65" class="edge">
<title>ed25519&#45;&gt;type_info</title>
<path fill="none" stroke="black" d="M1273.04,-290.67C1255.88,-280.4 1232.55,-266.44 1213.54,-255.07"/>
<polygon fill="black" stroke="black" points="1215.71,-251.69 1205.33,-249.56 1212.11,-257.69 1215.71,-251.69"/>
</g>
<!-- ed25519&#45;&gt;error -->
<g id="edge63" class="edge">
<title>ed25519&#45;&gt;error</title>
<path fill="none" stroke="black" d="M1292.99,-287.67C1288.37,-269.29 1279.86,-239.69 1268,-216 1249.04,-178.12 1219.51,-138.89 1199.97,-114.71"/>
<polygon fill="black" stroke="black" points="1202.05,-112.73 1193.01,-107.21 1196.64,-117.17 1202.05,-112.73"/>
</g>
<!-- ed25519&#45;&gt;bcs -->
<g id="edge64" class="edge">
<title>ed25519&#45;&gt;bcs</title>
<path fill="none" stroke="black" d="M1314.66,-289.17C1338.14,-269.01 1381.72,-234.56 1425,-216 1499.2,-184.18 1593.76,-171.04 1645.31,-165.95"/>
<polygon fill="black" stroke="black" points="1645.31,-169.37 1654.94,-164.96 1644.66,-162.41 1645.31,-169.37"/>
</g>
<!-- ed25519&#45;&gt;hash -->
<g id="edge66" class="edge">
<title>ed25519&#45;&gt;hash</title>
<path fill="none" stroke="black" d="M1326.12,-292.65C1354.92,-280.43 1398.93,-261.76 1429.01,-249"/>
<polygon fill="black" stroke="black" points="1430.18,-251.88 1438.02,-244.75 1427.44,-245.43 1430.18,-251.88"/>
</g>
<!-- multi_ed25519&#45;&gt;option -->
<g id="edge67" class="edge">
<title>multi_ed25519&#45;&gt;option</title>
<path fill="none" stroke="black" d="M1314.73,-364.12C1190.34,-328.04 826.94,-223.45 523,-144 462.12,-128.09 391.25,-111.06 347.5,-100.72"/>
<polygon fill="black" stroke="black" points="348.52,-97.12 337.98,-98.24 346.91,-103.94 348.52,-97.12"/>
</g>
<!-- multi_ed25519&#45;&gt;error -->
<g id="edge68" class="edge">
<title>multi_ed25519&#45;&gt;error</title>
<path fill="none" stroke="black" d="M1359.51,-359.7C1359.49,-341.33 1357.86,-311.75 1349,-288 1321.85,-215.23 1303.65,-200.16 1250,-144 1237.68,-131.1 1222,-118.93 1208.61,-109.5"/>
<polygon fill="black" stroke="black" points="1210.99,-106.21 1200.77,-103.44 1207.04,-111.98 1210.99,-106.21"/>
</g>
<!-- multi_ed25519&#45;&gt;features -->
<g id="edge69" class="edge">
<title>multi_ed25519&#45;&gt;features</title>
<path fill="none" stroke="black" d="M1366.83,-359.97C1371.47,-349.65 1377.33,-336.17 1382,-324 1399.77,-277.71 1417.5,-222.76 1427.57,-190.5"/>
<polygon fill="black" stroke="black" points="1431.18,-191.68 1430.8,-181.09 1424.49,-189.6 1431.18,-191.68"/>
</g>
<!-- multi_ed25519&#45;&gt;bcs -->
<g id="edge70" class="edge">
<title>multi_ed25519&#45;&gt;bcs</title>
<path fill="none" stroke="black" d="M1385.19,-361C1402.07,-350.6 1424.45,-336.68 1444,-324 1521.63,-273.67 1611.82,-212.04 1655.92,-181.7"/>
<polygon fill="black" stroke="black" points="1657.61,-184.1 1663.86,-175.54 1653.64,-178.33 1657.61,-184.1"/>
</g>
<!-- multi_ed25519&#45;&gt;hash -->
<g id="edge71" class="edge">
<title>multi_ed25519&#45;&gt;hash</title>
<path fill="none" stroke="black" d="M1381.96,-360.78C1394.38,-351.15 1409.33,-338.09 1420,-324 1434.31,-305.1 1445.45,-280.54 1452.65,-262.01"/>
<polygon fill="black" stroke="black" points="1456.21,-263.48 1456.43,-252.88 1449.65,-261.03 1456.21,-263.48"/>
</g>
<!-- multi_ed25519&#45;&gt;ed25519 -->
<g id="edge72" class="edge">
<title>multi_ed25519&#45;&gt;ed25519</title>
<path fill="none" stroke="black" d="M1343.99,-360.05C1336.34,-351.42 1326.9,-340.76 1318.49,-331.27"/>
<polygon fill="black" stroke="black" points="1321.69,-329.47 1312.44,-324.31 1316.45,-334.11 1321.69,-329.47"/>
</g>
<!-- from_bcs&#45;&gt;string -->
<g id="edge73" class="edge">
<title>from_bcs&#45;&gt;string</title>
<path fill="none" stroke="black" d="M681.9,-222.29C638.24,-209.34 565.07,-187.64 520.4,-174.39"/>
<polygon fill="black" stroke="black" points="521.55,-170.78 510.97,-171.29 519.56,-177.49 521.55,-170.78"/>
</g>
<!-- chain_id&#45;&gt;system_addresses -->
<g id="edge74" class="edge">
<title>chain_id&#45;&gt;system_addresses</title>
<path fill="none" stroke="black" d="M1621.78,-362.15C1634.9,-352.78 1652.12,-340.49 1666.97,-329.88"/>
<polygon fill="black" stroke="black" points="1668.74,-332.2 1674.85,-323.54 1664.67,-326.5 1668.74,-332.2"/>
</g>
<!-- aggregator_factory&#45;&gt;table -->
<g id="edge76" class="edge">
<title>aggregator_factory&#45;&gt;table</title>
<path fill="none" stroke="black" d="M730.57,-359.7C727.67,-351.87 724.16,-342.44 720.93,-333.73"/>
<polygon fill="black" stroke="black" points="723.94,-332.78 717.17,-324.62 717.37,-335.22 723.94,-332.78"/>
</g>
<!-- aggregator_factory&#45;&gt;error -->
<g id="edge75" class="edge">
<title>aggregator_factory&#45;&gt;error</title>
<path fill="none" stroke="black" d="M747.14,-359.66C773.71,-315.9 849.95,-200.43 946,-144 1007.47,-107.88 1091.35,-96.37 1140.19,-92.7"/>
<polygon fill="black" stroke="black" points="1140.2,-96.15 1149.94,-91.98 1139.73,-89.16 1140.2,-96.15"/>
</g>
<!-- aggregator_factory&#45;&gt;system_addresses -->
<g id="edge77" class="edge">
<title>aggregator_factory&#45;&gt;system_addresses</title>
<path fill="none" stroke="black" d="M812.89,-371.48C990.26,-358.57 1430.9,-326.51 1615.53,-313.07"/>
<polygon fill="black" stroke="black" points="1615.53,-316.51 1625.25,-312.29 1615.02,-309.53 1615.53,-316.51"/>
</g>
<!-- aggregator_factory&#45;&gt;aggregator -->
<g id="edge78" class="edge">
<title>aggregator_factory&#45;&gt;aggregator</title>
<path fill="none" stroke="black" d="M675.16,-365.99C599.29,-352.47 471.82,-329.77 399.15,-316.82"/>
<polygon fill="black" stroke="black" points="399.86,-313.22 389.4,-314.91 398.63,-320.11 399.86,-313.22"/>
</g>
<!-- optional_aggregator&#45;&gt;option -->
<g id="edge79" class="edge">
<title>optional_aggregator&#45;&gt;option</title>
<path fill="none" stroke="black" d="M548.03,-443.54C494.51,-437.35 423.75,-424.15 367,-396 323.55,-374.45 305,-368.18 285,-324 253.82,-255.12 279.09,-163.22 295.2,-118.19"/>
<polygon fill="black" stroke="black" points="298.76,-119.64 298.96,-109.05 292.2,-117.21 298.76,-119.64"/>
</g>
<!-- optional_aggregator&#45;&gt;error -->
<g id="edge80" class="edge">
<title>optional_aggregator&#45;&gt;error</title>
<path fill="none" stroke="black" d="M628,-431.51C628,-404.71 628,-351.87 628,-307 628,-307 628,-307 628,-233 628,-127.1 1013.88,-99.02 1140.37,-92.66"/>
<polygon fill="black" stroke="black" points="1140.28,-96.12 1150.1,-92.14 1139.94,-89.13 1140.28,-96.12"/>
</g>
<!-- optional_aggregator&#45;&gt;aggregator -->
<g id="edge81" class="edge">
<title>optional_aggregator&#45;&gt;aggregator</title>
<path fill="none" stroke="black" d="M546.75,-444.21C501.42,-438.19 445.83,-424.92 404,-396 381.81,-380.66 365.53,-354.21 355.57,-334.12"/>
<polygon fill="black" stroke="black" points="358.37,-332.84 350.94,-325.28 352.04,-335.82 358.37,-332.84"/>
</g>
<!-- optional_aggregator&#45;&gt;aggregator_factory -->
<g id="edge82" class="edge">
<title>optional_aggregator&#45;&gt;aggregator_factory</title>
<path fill="none" stroke="black" d="M653.83,-432.41C668.36,-423.08 686.68,-411.32 702.43,-401.2"/>
<polygon fill="black" stroke="black" points="703.83,-403.82 710.35,-395.47 700.05,-397.93 703.83,-403.82"/>
</g>
<!-- table_with_length&#45;&gt;table -->
<g id="edge84" class="edge">
<title>table_with_length&#45;&gt;table</title>
<path fill="none" stroke="black" d="M562.87,-362.15C596.57,-349.61 644.35,-331.82 676.45,-319.87"/>
<polygon fill="black" stroke="black" points="677.54,-322.82 685.69,-316.05 675.09,-316.26 677.54,-322.82"/>
</g>
<!-- table_with_length&#45;&gt;error -->
<g id="edge83" class="edge">
<title>table_with_length&#45;&gt;error</title>
<path fill="none" stroke="black" d="M523.91,-359.65C527.24,-315.33 542.74,-197.72 614,-144 655.89,-112.42 1018.6,-96.74 1140.35,-92.33"/>
<polygon fill="black" stroke="black" points="1140.16,-95.8 1150.03,-91.95 1139.91,-88.81 1140.16,-95.8"/>
</g>
<!-- aptos_coin&#45;&gt;option -->
<g id="edge86" class="edge">
<title>aptos_coin&#45;&gt;option</title>
<path fill="none" stroke="black" d="M932.79,-593.31C832.45,-592.81 603.56,-586.17 418,-540 337.18,-519.89 316.31,-511.02 245,-468 202.02,-442.07 182.45,-439.83 158,-396 118.79,-325.7 122.21,-294.93 138,-216 144.8,-182.01 143.14,-168.17 168,-144 193.73,-118.98 232.52,-105.48 262.43,-98.38"/>
<polygon fill="black" stroke="black" points="263,-101.62 272.01,-96.05 261.49,-94.79 263,-101.62"/>
</g>
<!-- aptos_coin&#45;&gt;string -->
<g id="edge87" class="edge">
<title>aptos_coin&#45;&gt;string</title>
<path fill="none" stroke="black" d="M933.05,-593.28C819.67,-591.81 540.86,-576.5 342,-468 266.22,-426.65 247.35,-371.57 269,-288 278.18,-252.56 280.55,-239.03 309,-216 346.67,-185.51 401.76,-172.52 439.6,-167.01"/>
<polygon fill="black" stroke="black" points="439.82,-170.38 449.27,-165.59 438.89,-163.44 439.82,-170.38"/>
</g>
<!-- aptos_coin&#45;&gt;signer -->
<g id="edge88" class="edge">
<title>aptos_coin&#45;&gt;signer</title>
<path fill="none" stroke="black" d="M1035.03,-592.66C1234.55,-591.04 1955.36,-582.29 2048,-540 2169.05,-484.75 2236,-440.06 2236,-307 2236,-307 2236,-307 2236,-233 2236,-191.59 2220.73,-145.62 2209.55,-117.51"/>
<polygon fill="black" stroke="black" points="2212.54,-116.58 2205.51,-108.66 2206.07,-119.24 2212.54,-116.58"/>
</g>
<!-- aptos_coin&#45;&gt;coin -->
<g id="edge91" class="edge">
<title>aptos_coin&#45;&gt;coin</title>
<path fill="none" stroke="black" d="M958.9,-577.98C940.4,-566.92 915.21,-551.84 895.88,-540.28"/>
<polygon fill="black" stroke="black" points="898.02,-536.88 887.64,-534.75 894.43,-542.89 898.02,-536.88"/>
</g>
<!-- aptos_coin&#45;&gt;vector -->
<g id="edge85" class="edge">
<title>aptos_coin&#45;&gt;vector</title>
<path fill="none" stroke="black" d="M968.99,-576.56C926.43,-528.17 808,-380.44 808,-235 808,-235 808,-235 808,-161 808,-121.57 808,-75.97 808,-47.31"/>
<polygon fill="black" stroke="black" points="811.5,-47.49 808,-37.49 804.5,-47.49 811.5,-47.49"/>
</g>
<!-- aptos_coin&#45;&gt;error -->
<g id="edge89" class="edge">
<title>aptos_coin&#45;&gt;error</title>
<path fill="none" stroke="black" d="M983.25,-575.76C981.77,-528.12 981.61,-391.38 1022,-288 1051.02,-213.71 1118.58,-145.52 1155.25,-112.28"/>
<polygon fill="black" stroke="black" points="1157.31,-115.24 1162.44,-105.97 1152.65,-110.02 1157.31,-115.24"/>
</g>
<!-- aptos_coin&#45;&gt;system_addresses -->
<g id="edge90" class="edge">
<title>aptos_coin&#45;&gt;system_addresses</title>
<path fill="none" stroke="black" d="M1033.61,-589.26C1195.65,-575.84 1703.99,-523.99 1791,-396 1800,-382.77 1799.01,-373.85 1791,-360 1782.29,-344.93 1767.49,-333.77 1752.28,-325.68"/>
<polygon fill="black" stroke="black" points="1754.33,-322.3 1743.81,-321.04 1751.25,-328.58 1754.33,-322.3"/>
</g>
<!-- resource_account&#45;&gt;account -->
<g id="edge93" class="edge">
<title>resource_account&#45;&gt;account</title>
<path fill="none" stroke="black" d="M1907.06,-509.93C1896.41,-507.92 1885.37,-505.86 1875,-504 1780.26,-486.98 1669.18,-468.68 1607.47,-458.65"/>
<polygon fill="black" stroke="black" points="1608.33,-455.08 1597.9,-456.94 1607.21,-461.99 1608.33,-455.08"/>
</g>
<!-- resource_account&#45;&gt;bcs -->
<g id="edge92" class="edge">
<title>resource_account&#45;&gt;bcs</title>
<path fill="none" stroke="black" d="M2005.48,-506.54C2065.17,-483 2165.6,-431.71 2141,-360 2111.52,-274.09 2078.78,-253.36 1996,-216 1903.5,-174.25 1782.14,-165.14 1721.28,-163.32"/>
<polygon fill="black" stroke="black" points="1721.38,-159.79 1711.3,-163.05 1721.21,-166.79 1721.38,-159.79"/>
</g>
<!-- timestamp -->
<g id="node30" class="node">
<title>timestamp</title>
<ellipse fill="none" stroke="black" cx="1964" cy="-378" rx="50.33" ry="18"/>
<text text-anchor="middle" x="1964" y="-372.95" font-family="Times,serif" font-size="14.00">timestamp</text>
</g>
<!-- resource_account&#45;&gt;timestamp -->
<g id="edge94" class="edge">
<title>resource_account&#45;&gt;timestamp</title>
<path fill="none" stroke="black" d="M1964,-503.59C1964,-479.5 1964,-435.75 1964,-407.03"/>
<polygon fill="black" stroke="black" points="1967.5,-407.11 1964,-397.11 1960.5,-407.11 1967.5,-407.11"/>
</g>
<!-- timestamp&#45;&gt;error -->
<g id="edge95" class="edge">
<title>timestamp&#45;&gt;error</title>
<path fill="none" stroke="black" d="M1952.65,-360.22C1921.48,-315.7 1829.49,-194.56 1719,-144 1629.92,-103.24 1328.74,-93.72 1219.77,-91.59"/>
<polygon fill="black" stroke="black" points="1220.01,-88.07 1209.94,-91.39 1219.88,-95.07 1220.01,-88.07"/>
</g>
<!-- timestamp&#45;&gt;system_addresses -->
<g id="edge96" class="edge">
<title>timestamp&#45;&gt;system_addresses</title>
<path fill="none" stroke="black" d="M1924.33,-366.52C1880.52,-354.95 1809.5,-336.19 1758.91,-322.82"/>
<polygon fill="black" stroke="black" points="1760,-319.23 1749.44,-320.06 1758.21,-326 1760,-319.23"/>
</g>
</g>
</svg>
