<?xml version="1.0" encoding="UTF-8" standalone="no"?>
<!DOCTYPE svg PUBLIC "-//W3C//DTD SVG 1.1//EN"
 "http://www.w3.org/Graphics/SVG/1.1/DTD/svg11.dtd">
<!-- Generated by graphviz version 8.0.2 (20230410.1723)
 -->
<!-- Title: G Pages: 1 -->
<svg width="2324pt" height="764pt"
 viewBox="0.00 0.00 2324.00 764.00" xmlns="http://www.w3.org/2000/svg" xmlns:xlink="http://www.w3.org/1999/xlink">
<g id="graph0" class="graph" transform="scale(1 1) rotate(0) translate(4 760)">
<title>G</title>
<polygon fill="white" stroke="none" points="-4,4 -4,-760 2320,-760 2320,4 -4,4"/>
<!-- registry -->
<g id="node1" class="node">
<title>registry</title>
<ellipse fill="none" stroke="black" cx="926" cy="-738" rx="37.89" ry="18"/>
<text text-anchor="middle" x="926" y="-734.3" font-family="Times,serif" font-size="14.00">registry</text>
</g>
<!-- option -->
<g id="node2" class="node">
<title>option</title>
<ellipse fill="none" stroke="black" cx="255" cy="-90" rx="33.29" ry="18"/>
<text text-anchor="middle" x="255" y="-86.3" font-family="Times,serif" font-size="14.00">option</text>
</g>
<!-- registry&#45;&gt;option -->
<g id="edge1" class="edge">
<title>registry&#45;&gt;option</title>
<path fill="none" stroke="black" d="M887.71,-736.71C730.06,-735.22 136.13,-726.82 65,-684 -51.59,-613.82 38,-515.09 38,-379 38,-379 38,-379 38,-233 38,-186.96 55,-172.7 91,-144 126.09,-116.02 176.36,-102.63 211.97,-96.34"/>
<polygon fill="black" stroke="black" points="212.22,-99.69 221.52,-94.61 211.09,-92.78 212.22,-99.69"/>
</g>
<!-- string -->
<g id="node3" class="node">
<title>string</title>
<ellipse fill="none" stroke="black" cx="370" cy="-162" rx="30.59" ry="18"/>
<text text-anchor="middle" x="370" y="-158.3" font-family="Times,serif" font-size="14.00">string</text>
</g>
<!-- registry&#45;&gt;string -->
<g id="edge2" class="edge">
<title>registry&#45;&gt;string</title>
<path fill="none" stroke="black" d="M887.65,-737.83C726.7,-739.13 114,-721.6 114,-379 114,-379 114,-379 114,-305 114,-207.83 256.78,-176.6 329.08,-167.01"/>
<polygon fill="black" stroke="black" points="329.14,-170.41 338.63,-165.7 328.27,-163.46 329.14,-170.41"/>
</g>
<!-- signer -->
<g id="node4" class="node">
<title>signer</title>
<ellipse fill="none" stroke="black" cx="2202" cy="-90" rx="32.49" ry="18"/>
<text text-anchor="middle" x="2202" y="-86.3" font-family="Times,serif" font-size="14.00">signer</text>
</g>
<!-- registry&#45;&gt;signer -->
<g id="edge3" class="edge">
<title>registry&#45;&gt;signer</title>
<path fill="none" stroke="black" d="M964.26,-737.21C1187.9,-737.97 2316,-734.86 2316,-595 2316,-595 2316,-595 2316,-233 2316,-179.17 2265.56,-134.12 2231.78,-109.99"/>
<polygon fill="black" stroke="black" points="2234.39,-106.85 2224.18,-104.03 2230.41,-112.6 2234.39,-106.85"/>
</g>
<!-- type_info -->
<g id="node5" class="node">
<title>type_info</title>
<ellipse fill="none" stroke="black" cx="1434" cy="-234" rx="44.39" ry="18"/>
<text text-anchor="middle" x="1434" y="-230.3" font-family="Times,serif" font-size="14.00">type_info</text>
</g>
<!-- registry&#45;&gt;type_info -->
<g id="edge4" class="edge">
<title>registry&#45;&gt;type_info</title>
<path fill="none" stroke="black" d="M964.07,-736.73C1172.29,-734.77 2164,-718.92 2164,-595 2164,-595 2164,-595 2164,-449 2164,-331.04 2066.7,-319.41 1953,-288 1788.82,-242.64 1585.79,-235.32 1489.58,-234.63"/>
<polygon fill="black" stroke="black" points="1489.68,-231.13 1479.66,-234.58 1489.64,-238.13 1489.68,-231.13"/>
</g>
<!-- table -->
<g id="node6" class="node">
<title>table</title>
<ellipse fill="none" stroke="black" cx="741" cy="-306" rx="27.9" ry="18"/>
<text text-anchor="middle" x="741" y="-302.3" font-family="Times,serif" font-size="14.00">table</text>
</g>
<!-- registry&#45;&gt;table -->
<g id="edge5" class="edge">
<title>registry&#45;&gt;table</title>
<path fill="none" stroke="black" d="M887.72,-737.41C736.92,-738.63 189.62,-739.21 138,-684 63.66,-604.49 -209.65,-692.34 475,-360 550.14,-323.52 648.86,-312.15 702.41,-308.61"/>
<polygon fill="black" stroke="black" points="702.35,-312.06 712.12,-307.96 701.93,-305.07 702.35,-312.06"/>
</g>
<!-- event -->
<g id="node7" class="node">
<title>event</title>
<ellipse fill="none" stroke="black" cx="2068" cy="-378" rx="29.8" ry="18"/>
<text text-anchor="middle" x="2068" y="-374.3" font-family="Times,serif" font-size="14.00">event</text>
</g>
<!-- registry&#45;&gt;event -->
<g id="edge6" class="edge">
<title>registry&#45;&gt;event</title>
<path fill="none" stroke="black" d="M961.81,-731.91C1014.97,-723.95 1117.68,-707.06 1203,-684 1533.55,-594.64 1919.11,-440.2 2034.04,-393.06"/>
<polygon fill="black" stroke="black" points="2035.08,-396.01 2043,-388.97 2032.42,-389.53 2035.08,-396.01"/>
</g>
<!-- account -->
<g id="node8" class="node">
<title>account</title>
<ellipse fill="none" stroke="black" cx="1502" cy="-450" rx="38.19" ry="18"/>
<text text-anchor="middle" x="1502" y="-446.3" font-family="Times,serif" font-size="14.00">account</text>
</g>
<!-- registry&#45;&gt;account -->
<g id="edge7" class="edge">
<title>registry&#45;&gt;account</title>
<path fill="none" stroke="black" d="M959.8,-729.27C1031.47,-712.35 1203.29,-668.95 1340,-612 1402.05,-586.15 1429.97,-591.63 1473,-540 1487.46,-522.65 1494.76,-497.92 1498.42,-478.93"/>
<polygon fill="black" stroke="black" points="1502.01,-479.67 1500.22,-469.23 1495.11,-478.51 1502.01,-479.67"/>
</g>
<!-- coin -->
<g id="node9" class="node">
<title>coin</title>
<ellipse fill="none" stroke="black" cx="918" cy="-522" rx="27" ry="18"/>
<text text-anchor="middle" x="918" y="-518.3" font-family="Times,serif" font-size="14.00">coin</text>
</g>
<!-- registry&#45;&gt;coin -->
<g id="edge8" class="edge">
<title>registry&#45;&gt;coin</title>
<path fill="none" stroke="black" d="M925.36,-719.85C923.98,-682.99 920.73,-595.92 919.05,-550.96"/>
<polygon fill="black" stroke="black" points="922.52,-551.09 918.64,-541.23 915.52,-551.36 922.52,-551.09"/>
</g>
<!-- tablist -->
<g id="node10" class="node">
<title>tablist</title>
<ellipse fill="none" stroke="black" cx="661" cy="-594" rx="32.49" ry="18"/>
<text text-anchor="middle" x="661" y="-590.3" font-family="Times,serif" font-size="14.00">tablist</text>
</g>
<!-- registry&#45;&gt;tablist -->
<g id="edge9" class="edge">
<title>registry&#45;&gt;tablist</title>
<path fill="none" stroke="black" d="M901.54,-723.9C853.54,-698.17 746.97,-641.07 693.27,-612.29"/>
<polygon fill="black" stroke="black" points="695.35,-608.9 684.88,-607.26 692.04,-615.07 695.35,-608.9"/>
</g>
<!-- incentives -->
<g id="node11" class="node">
<title>incentives</title>
<ellipse fill="none" stroke="black" cx="983" cy="-666" rx="46.29" ry="18"/>
<text text-anchor="middle" x="983" y="-662.3" font-family="Times,serif" font-size="14.00">incentives</text>
</g>
<!-- registry&#45;&gt;incentives -->
<g id="edge10" class="edge">
<title>registry&#45;&gt;incentives</title>
<path fill="none" stroke="black" d="M939.22,-720.76C946.17,-712.23 954.84,-701.58 962.63,-692.02"/>
<polygon fill="black" stroke="black" points="965.86,-694.6 969.46,-684.63 960.43,-690.18 965.86,-694.6"/>
</g>
<!-- vector -->
<g id="node12" class="node">
<title>vector</title>
<ellipse fill="none" stroke="black" cx="370" cy="-18" rx="32.49" ry="18"/>
<text text-anchor="middle" x="370" y="-14.3" font-family="Times,serif" font-size="14.00">vector</text>
</g>
<!-- option&#45;&gt;vector -->
<g id="edge11" class="edge">
<title>option&#45;&gt;vector</title>
<path fill="none" stroke="black" d="M276.63,-75.83C294.41,-65.01 319.81,-49.55 339.63,-37.49"/>
<polygon fill="black" stroke="black" points="341.13,-40.06 347.85,-31.87 337.49,-34.08 341.13,-40.06"/>
</g>
<!-- string&#45;&gt;option -->
<g id="edge13" class="edge">
<title>string&#45;&gt;option</title>
<path fill="none" stroke="black" d="M349.17,-148.32C331.49,-137.56 305.85,-121.95 285.79,-109.74"/>
<polygon fill="black" stroke="black" points="287.81,-106.27 277.45,-104.06 284.17,-112.25 287.81,-106.27"/>
</g>
<!-- string&#45;&gt;vector -->
<g id="edge12" class="edge">
<title>string&#45;&gt;vector</title>
<path fill="none" stroke="black" d="M370,-143.59C370,-119.5 370,-75.75 370,-47.03"/>
<polygon fill="black" stroke="black" points="373.5,-47.11 370,-37.11 366.5,-47.11 373.5,-47.11"/>
</g>
<!-- type_info&#45;&gt;string -->
<g id="edge14" class="edge">
<title>type_info&#45;&gt;string</title>
<path fill="none" stroke="black" d="M1390.31,-230.13C1217.14,-218.73 580.28,-176.83 411.36,-165.72"/>
<polygon fill="black" stroke="black" points="411.67,-162.17 401.47,-165 411.22,-169.15 411.67,-162.17"/>
</g>
<!-- error -->
<g id="node13" class="node">
<title>error</title>
<ellipse fill="none" stroke="black" cx="1101" cy="-90" rx="27.9" ry="18"/>
<text text-anchor="middle" x="1101" y="-86.3" font-family="Times,serif" font-size="14.00">error</text>
</g>
<!-- type_info&#45;&gt;error -->
<g id="edge15" class="edge">
<title>type_info&#45;&gt;error</title>
<path fill="none" stroke="black" d="M1407.12,-219.2C1371.12,-200.96 1305.05,-168.28 1247,-144 1209.56,-128.34 1165.67,-112.77 1135.87,-102.6"/>
<polygon fill="black" stroke="black" points="1137.15,-99 1126.56,-99.11 1134.91,-105.63 1137.15,-99"/>
</g>
<!-- features -->
<g id="node14" class="node">
<title>features</title>
<ellipse fill="none" stroke="black" cx="1610" cy="-162" rx="38.19" ry="18"/>
<text text-anchor="middle" x="1610" y="-158.3" font-family="Times,serif" font-size="14.00">features</text>
</g>
<!-- type_info&#45;&gt;features -->
<g id="edge16" class="edge">
<title>type_info&#45;&gt;features</title>
<path fill="none" stroke="black" d="M1465.06,-220.65C1494.8,-208.82 1539.75,-190.94 1571.7,-178.23"/>
<polygon fill="black" stroke="black" points="1572.58,-181.25 1580.58,-174.3 1569.99,-174.75 1572.58,-181.25"/>
</g>
<!-- bcs -->
<g id="node15" class="node">
<title>bcs</title>
<ellipse fill="none" stroke="black" cx="1870" cy="-162" rx="27" ry="18"/>
<text text-anchor="middle" x="1870" y="-158.3" font-family="Times,serif" font-size="14.00">bcs</text>
</g>
<!-- type_info&#45;&gt;bcs -->
<g id="edge17" class="edge">
<title>type_info&#45;&gt;bcs</title>
<path fill="none" stroke="black" d="M1474.63,-226.48C1559.02,-212.93 1752.19,-181.92 1833.19,-168.91"/>
<polygon fill="black" stroke="black" points="1833.53,-172.24 1842.85,-167.2 1832.42,-165.33 1833.53,-172.24"/>
</g>
<!-- event&#45;&gt;bcs -->
<g id="edge18" class="edge">
<title>event&#45;&gt;bcs</title>
<path fill="none" stroke="black" d="M2063.49,-360.16C2054.12,-328.13 2029.71,-257.89 1986,-216 1963.34,-194.28 1930.21,-180.37 1905.15,-172.27"/>
<polygon fill="black" stroke="black" points="1906.55,-168.73 1895.96,-169.15 1904.5,-175.42 1906.55,-168.73"/>
</g>
<!-- guid -->
<g id="node16" class="node">
<title>guid</title>
<ellipse fill="none" stroke="black" cx="1917" cy="-306" rx="27" ry="18"/>
<text text-anchor="middle" x="1917" y="-302.3" font-family="Times,serif" font-size="14.00">guid</text>
</g>
<!-- event&#45;&gt;guid -->
<g id="edge19" class="edge">
<title>event&#45;&gt;guid</title>
<path fill="none" stroke="black" d="M2044.74,-366.22C2018.95,-354.26 1977.21,-334.91 1948.51,-321.61"/>
<polygon fill="black" stroke="black" points="1950.12,-318.03 1939.58,-317 1947.18,-324.38 1950.12,-318.03"/>
</g>
<!-- account&#45;&gt;option -->
<g id="edge21" class="edge">
<title>account&#45;&gt;option</title>
<path fill="none" stroke="black" d="M1463.67,-448.32C1281.84,-444.92 513.32,-428.67 475,-396 444.22,-369.76 456,-347.45 456,-307 456,-307 456,-307 456,-233 456,-188.47 443.72,-173.08 410,-144 378.23,-116.6 331.59,-103.18 297.78,-96.72"/>
<polygon fill="black" stroke="black" points="298.75,-93.16 288.29,-94.86 297.53,-100.06 298.75,-93.16"/>
</g>
<!-- account&#45;&gt;signer -->
<g id="edge22" class="edge">
<title>account&#45;&gt;signer</title>
<path fill="none" stroke="black" d="M1528.91,-436.99C1534.16,-435.04 1539.69,-433.25 1545,-432 1635.32,-410.72 1879.31,-440.01 1961,-396 2080.91,-331.39 2161.54,-179.09 2190.3,-117.52"/>
<polygon fill="black" stroke="black" points="2193.78,-119.33 2194.77,-108.78 2187.42,-116.41 2193.78,-119.33"/>
</g>
<!-- account&#45;&gt;type_info -->
<g id="edge25" class="edge">
<title>account&#45;&gt;type_info</title>
<path fill="none" stroke="black" d="M1499.15,-431.66C1495.72,-413.27 1489,-383.65 1478,-360 1469.79,-342.34 1460.74,-341.88 1453,-324 1444.57,-304.52 1439.75,-280.98 1437.08,-263"/>
<polygon fill="black" stroke="black" points="1440.45,-262.79 1435.65,-253.35 1433.51,-263.72 1440.45,-262.79"/>
</g>
<!-- account&#45;&gt;table -->
<g id="edge26" class="edge">
<title>account&#45;&gt;table</title>
<path fill="none" stroke="black" d="M1464.13,-446.76C1385.54,-441.64 1199.3,-427.05 1046,-396 945.95,-375.74 831.15,-338.26 775.22,-319.04"/>
<polygon fill="black" stroke="black" points="776.76,-315.53 766.16,-315.57 774.47,-322.14 776.76,-315.53"/>
</g>
<!-- account&#45;&gt;event -->
<g id="edge33" class="edge">
<title>account&#45;&gt;event</title>
<path fill="none" stroke="black" d="M1539.71,-446.49C1643.47,-439.36 1931.65,-418.11 2024,-396 2027.42,-395.18 2030.94,-394.16 2034.42,-393.02"/>
<polygon fill="black" stroke="black" points="2035.39,-396.03 2043.62,-389.36 2033.03,-389.44 2035.39,-396.03"/>
</g>
<!-- account&#45;&gt;vector -->
<g id="edge20" class="edge">
<title>account&#45;&gt;vector</title>
<path fill="none" stroke="black" d="M1529.53,-437.39C1534.63,-435.45 1539.94,-433.56 1545,-432 1614.66,-410.54 1659.47,-452.92 1705,-396 1729.64,-365.19 1774.74,-252.59 1657,-144 1563.53,-57.79 627.4,-26.27 413.41,-20.16"/>
<polygon fill="black" stroke="black" points="413.72,-16.64 403.62,-19.85 413.52,-23.63 413.72,-16.64"/>
</g>
<!-- account&#45;&gt;error -->
<g id="edge23" class="edge">
<title>account&#45;&gt;error</title>
<path fill="none" stroke="black" d="M1492.55,-432.16C1481.57,-413.4 1462.22,-382.73 1441,-360 1339.09,-250.86 1190.94,-149.33 1129.43,-109.16"/>
<polygon fill="black" stroke="black" points="1131.61,-105.75 1121.32,-103.25 1127.8,-111.63 1131.61,-105.75"/>
</g>
<!-- account&#45;&gt;bcs -->
<g id="edge24" class="edge">
<title>account&#45;&gt;bcs</title>
<path fill="none" stroke="black" d="M1528.92,-437.01C1534.17,-435.06 1539.69,-433.27 1545,-432 1629.22,-411.88 1866.56,-451.53 1933,-396 1970.46,-364.69 1967.1,-334.73 1953,-288 1940.94,-248.02 1911.43,-209.09 1891.06,-185.58"/>
<polygon fill="black" stroke="black" points="1894.27,-183.8 1885.02,-178.64 1889.04,-188.44 1894.27,-183.8"/>
</g>
<!-- account&#45;&gt;guid -->
<g id="edge31" class="edge">
<title>account&#45;&gt;guid</title>
<path fill="none" stroke="black" d="M1539.8,-446.05C1587.99,-441.07 1672.87,-428.18 1738,-396 1760.35,-384.96 1759.55,-372.69 1781,-360 1813.29,-340.89 1853.73,-326.15 1882.09,-317.13"/>
<polygon fill="black" stroke="black" points="1882.81,-320.26 1891.32,-313.95 1880.73,-313.57 1882.81,-320.26"/>
</g>
<!-- system_addresses -->
<g id="node17" class="node">
<title>system_addresses</title>
<ellipse fill="none" stroke="black" cx="1187" cy="-306" rx="73.39" ry="18"/>
<text text-anchor="middle" x="1187" y="-302.3" font-family="Times,serif" font-size="14.00">system_addresses</text>
</g>
<!-- account&#45;&gt;system_addresses -->
<g id="edge27" class="edge">
<title>account&#45;&gt;system_addresses</title>
<path fill="none" stroke="black" d="M1486.25,-433.4C1461.72,-409.23 1416.2,-364.96 1407,-360 1362.76,-336.14 1307.78,-322.89 1263.86,-315.61"/>
<polygon fill="black" stroke="black" points="1264.65,-312.03 1254.23,-313.92 1263.56,-318.94 1264.65,-312.03"/>
</g>
<!-- hash -->
<g id="node18" class="node">
<title>hash</title>
<ellipse fill="none" stroke="black" cx="1807" cy="-234" rx="27" ry="18"/>
<text text-anchor="middle" x="1807" y="-230.3" font-family="Times,serif" font-size="14.00">hash</text>
</g>
<!-- account&#45;&gt;hash -->
<g id="edge28" class="edge">
<title>account&#45;&gt;hash</title>
<path fill="none" stroke="black" d="M1528.92,-437.03C1534.17,-435.08 1539.69,-433.28 1545,-432 1625.31,-412.62 1859.49,-457.18 1915,-396 1925.75,-384.15 1920.91,-374.87 1915,-360 1906.87,-339.55 1895.6,-340.47 1881,-324 1861.76,-302.29 1840.68,-276.76 1825.96,-258.62"/>
<polygon fill="black" stroke="black" points="1828.29,-256.94 1819.28,-251.36 1822.85,-261.34 1828.29,-256.94"/>
</g>
<!-- ed25519 -->
<g id="node19" class="node">
<title>ed25519</title>
<ellipse fill="none" stroke="black" cx="1503" cy="-306" rx="40.89" ry="18"/>
<text text-anchor="middle" x="1503" y="-302.3" font-family="Times,serif" font-size="14.00">ed25519</text>
</g>
<!-- account&#45;&gt;ed25519 -->
<g id="edge29" class="edge">
<title>account&#45;&gt;ed25519</title>
<path fill="none" stroke="black" d="M1507.68,-432.04C1510.82,-421.74 1514.41,-408.27 1516,-396 1518.06,-380.13 1517.92,-375.88 1516,-360 1514.98,-351.59 1513.09,-342.6 1511.06,-334.45"/>
<polygon fill="black" stroke="black" points="1514.23,-333.75 1508.27,-324.99 1507.47,-335.56 1514.23,-333.75"/>
</g>
<!-- multi_ed25519 -->
<g id="node20" class="node">
<title>multi_ed25519</title>
<ellipse fill="none" stroke="black" cx="1632" cy="-378" rx="64.19" ry="18"/>
<text text-anchor="middle" x="1632" y="-374.3" font-family="Times,serif" font-size="14.00">multi_ed25519</text>
</g>
<!-- account&#45;&gt;multi_ed25519 -->
<g id="edge30" class="edge">
<title>account&#45;&gt;multi_ed25519</title>
<path fill="none" stroke="black" d="M1526.45,-435.83C1545.33,-425.67 1571.81,-411.41 1593.52,-399.72"/>
<polygon fill="black" stroke="black" points="1594.97,-402.37 1602.12,-394.55 1591.65,-396.21 1594.97,-402.37"/>
</g>
<!-- from_bcs -->
<g id="node21" class="node">
<title>from_bcs</title>
<ellipse fill="none" stroke="black" cx="625" cy="-234" rx="44.39" ry="18"/>
<text text-anchor="middle" x="625" y="-230.3" font-family="Times,serif" font-size="14.00">from_bcs</text>
</g>
<!-- account&#45;&gt;from_bcs -->
<g id="edge32" class="edge">
<title>account&#45;&gt;from_bcs</title>
<path fill="none" stroke="black" d="M1463.71,-447.68C1388.68,-444.32 1217.56,-432.94 1079,-396 1038.96,-385.33 1031.75,-374.67 993,-360 877.46,-316.25 738.94,-271.14 669.42,-248.99"/>
<polygon fill="black" stroke="black" points="670.86,-245.46 660.27,-245.77 668.74,-252.13 670.86,-245.46"/>
</g>
<!-- create_signer -->
<g id="node22" class="node">
<title>create_signer</title>
<ellipse fill="none" stroke="black" cx="1848" cy="-378" rx="57.69" ry="18"/>
<text text-anchor="middle" x="1848" y="-374.3" font-family="Times,serif" font-size="14.00">create_signer</text>
</g>
<!-- account&#45;&gt;create_signer -->
<g id="edge34" class="edge">
<title>account&#45;&gt;create_signer</title>
<path fill="none" stroke="black" d="M1537.13,-442.68C1589.35,-433.18 1690.49,-414.36 1776,-396 1781.57,-394.8 1787.38,-393.51 1793.16,-392.19"/>
<polygon fill="black" stroke="black" points="1793.55,-395.46 1802.51,-389.8 1791.98,-388.64 1793.55,-395.46"/>
</g>
<!-- chain_id -->
<g id="node23" class="node">
<title>chain_id</title>
<ellipse fill="none" stroke="black" cx="1357" cy="-378" rx="40.89" ry="18"/>
<text text-anchor="middle" x="1357" y="-374.3" font-family="Times,serif" font-size="14.00">chain_id</text>
</g>
<!-- account&#45;&gt;chain_id -->
<g id="edge35" class="edge">
<title>account&#45;&gt;chain_id</title>
<path fill="none" stroke="black" d="M1476.08,-436.49C1453.06,-425.38 1419.2,-409.03 1393.46,-396.6"/>
<polygon fill="black" stroke="black" points="1395.21,-393.08 1384.68,-391.88 1392.16,-399.38 1395.21,-393.08"/>
</g>
<!-- coin&#45;&gt;option -->
<g id="edge36" class="edge">
<title>coin&#45;&gt;option</title>
<path fill="none" stroke="black" d="M890.96,-520.04C798.46,-516.48 495.38,-502.38 405,-468 293.42,-425.56 190,-426.38 190,-307 190,-307 190,-307 190,-233 190,-188.62 216.58,-142.93 235.74,-115.76"/>
<polygon fill="black" stroke="black" points="239.1,-118.1 242.16,-107.95 233.44,-113.97 239.1,-118.1"/>
</g>
<!-- coin&#45;&gt;string -->
<g id="edge37" class="edge">
<title>coin&#45;&gt;string</title>
<path fill="none" stroke="black" d="M890.6,-521.02C821.85,-520.33 637.11,-513.98 492,-468 427.18,-447.46 411.64,-436.48 357,-396 310.65,-361.66 268.03,-343.14 285,-288 297.31,-248.01 327.25,-209.35 348.09,-185.88"/>
<polygon fill="black" stroke="black" points="350.17,-188.69 354.31,-178.94 344.99,-183.98 350.17,-188.69"/>
</g>
<!-- coin&#45;&gt;signer -->
<g id="edge38" class="edge">
<title>coin&#45;&gt;signer</title>
<path fill="none" stroke="black" d="M945.19,-519.64C1067.2,-513.45 1564.93,-487.48 1720,-468 1893.59,-446.19 1950.89,-474.98 2107,-396 2158.63,-369.88 2202,-364.86 2202,-307 2202,-307 2202,-307 2202,-233 2202,-193.57 2202,-147.97 2202,-119.31"/>
<polygon fill="black" stroke="black" points="2205.5,-119.49 2202,-109.49 2198.5,-119.49 2205.5,-119.49"/>
</g>
<!-- coin&#45;&gt;type_info -->
<g id="edge40" class="edge">
<title>coin&#45;&gt;type_info</title>
<path fill="none" stroke="black" d="M925.89,-504.28C947.53,-460.44 1012.43,-341.88 1105,-288 1150.7,-261.4 1298.88,-245.77 1379.89,-239"/>
<polygon fill="black" stroke="black" points="1379.69,-242.44 1389.38,-238.14 1379.12,-235.47 1379.69,-242.44"/>
</g>
<!-- coin&#45;&gt;event -->
<g id="edge42" class="edge">
<title>coin&#45;&gt;event</title>
<path fill="none" stroke="black" d="M945.13,-519.37C1032.72,-513.97 1315.9,-495.43 1549,-468 1761.06,-443.05 1817.63,-450.8 2024,-396 2027.22,-395.14 2030.53,-394.13 2033.82,-393.03"/>
<polygon fill="black" stroke="black" points="2034.89,-396.01 2043.11,-389.32 2032.51,-389.42 2034.89,-396.01"/>
</g>
<!-- coin&#45;&gt;account -->
<g id="edge43" class="edge">
<title>coin&#45;&gt;account</title>
<path fill="none" stroke="black" d="M944.61,-517.81C1035.83,-506.88 1336.74,-470.81 1454.32,-456.71"/>
<polygon fill="black" stroke="black" points="1454.6,-460.09 1464.12,-455.42 1453.77,-453.14 1454.6,-460.09"/>
</g>
<!-- coin&#45;&gt;error -->
<g id="edge39" class="edge">
<title>coin&#45;&gt;error</title>
<path fill="none" stroke="black" d="M914.86,-503.71C905.36,-445.81 882.71,-256.07 970,-144 992.35,-115.3 1032.77,-102.06 1062.82,-96.01"/>
<polygon fill="black" stroke="black" points="1063.15,-99.32 1072.36,-94.09 1061.9,-92.44 1063.15,-99.32"/>
</g>
<!-- coin&#45;&gt;system_addresses -->
<g id="edge41" class="edge">
<title>coin&#45;&gt;system_addresses</title>
<path fill="none" stroke="black" d="M944.86,-518.16C1002.34,-510.47 1136.64,-483.53 1193,-396 1204.63,-377.93 1201.89,-353.3 1196.94,-334.53"/>
<polygon fill="black" stroke="black" points="1200.09,-333.83 1193.86,-325.25 1193.38,-335.84 1200.09,-333.83"/>
</g>
<!-- aggregator -->
<g id="node24" class="node">
<title>aggregator</title>
<ellipse fill="none" stroke="black" cx="342" cy="-306" rx="48.19" ry="18"/>
<text text-anchor="middle" x="342" y="-302.3" font-family="Times,serif" font-size="14.00">aggregator</text>
</g>
<!-- coin&#45;&gt;aggregator -->
<g id="edge44" class="edge">
<title>coin&#45;&gt;aggregator</title>
<path fill="none" stroke="black" d="M891.92,-516.2C790.87,-497.41 428.71,-428.35 388,-396 368.47,-380.48 356.38,-354.41 349.53,-334.49"/>
<polygon fill="black" stroke="black" points="352.61,-333.63 346.25,-325.16 345.94,-335.75 352.61,-333.63"/>
</g>
<!-- aggregator_factory -->
<g id="node25" class="node">
<title>aggregator_factory</title>
<ellipse fill="none" stroke="black" cx="765" cy="-378" rx="77.19" ry="18"/>
<text text-anchor="middle" x="765" y="-374.3" font-family="Times,serif" font-size="14.00">aggregator_factory</text>
</g>
<!-- coin&#45;&gt;aggregator_factory -->
<g id="edge45" class="edge">
<title>coin&#45;&gt;aggregator_factory</title>
<path fill="none" stroke="black" d="M908.42,-504.78C896.62,-485.75 875.16,-454.01 851,-432 837.71,-419.89 821.26,-408.98 806.33,-400.25"/>
<polygon fill="black" stroke="black" points="808.21,-396.72 797.78,-394.83 804.75,-402.81 808.21,-396.72"/>
</g>
<!-- optional_aggregator -->
<g id="node26" class="node">
<title>optional_aggregator</title>
<ellipse fill="none" stroke="black" cx="761" cy="-450" rx="81.49" ry="18"/>
<text text-anchor="middle" x="761" y="-446.3" font-family="Times,serif" font-size="14.00">optional_aggregator</text>
</g>
<!-- coin&#45;&gt;optional_aggregator -->
<g id="edge46" class="edge">
<title>coin&#45;&gt;optional_aggregator</title>
<path fill="none" stroke="black" d="M895.84,-511.12C872.52,-500.72 835.2,-484.08 805.72,-470.94"/>
<polygon fill="black" stroke="black" points="807.62,-467.51 797.06,-466.63 804.77,-473.9 807.62,-467.51"/>
</g>
<!-- tablist&#45;&gt;option -->
<g id="edge47" class="edge">
<title>tablist&#45;&gt;option</title>
<path fill="none" stroke="black" d="M628.2,-592C532.88,-588.7 257.47,-576.19 176,-540 121.63,-515.85 76,-510.5 76,-451 76,-451 76,-451 76,-233 76,-162.3 162.75,-121.22 215.47,-102.78"/>
<polygon fill="black" stroke="black" points="216.48,-105.8 224.84,-99.29 214.25,-99.16 216.48,-105.8"/>
</g>
<!-- table_with_length -->
<g id="node27" class="node">
<title>table_with_length</title>
<ellipse fill="none" stroke="black" cx="558" cy="-378" rx="74.19" ry="18"/>
<text text-anchor="middle" x="558" y="-374.3" font-family="Times,serif" font-size="14.00">table_with_length</text>
</g>
<!-- tablist&#45;&gt;table_with_length -->
<g id="edge48" class="edge">
<title>tablist&#45;&gt;table_with_length</title>
<path fill="none" stroke="black" d="M652.92,-576.21C635.18,-539.36 592.71,-451.11 571.1,-406.22"/>
<polygon fill="black" stroke="black" points="573.82,-404.8 566.33,-397.31 567.51,-407.84 573.82,-404.8"/>
</g>
<!-- incentives&#45;&gt;signer -->
<g id="edge50" class="edge">
<title>incentives&#45;&gt;signer</title>
<path fill="none" stroke="black" d="M1027.31,-660.16C1210.52,-639.69 1908.67,-557.25 2110,-468 2204.55,-426.09 2278,-410.42 2278,-307 2278,-307 2278,-307 2278,-233 2278,-186.78 2246.31,-141.04 2223.85,-114.43"/>
<polygon fill="black" stroke="black" points="2225.86,-112.41 2216.65,-107.17 2220.59,-117.01 2225.86,-112.41"/>
</g>
<!-- incentives&#45;&gt;type_info -->
<g id="edge51" class="edge">
<title>incentives&#45;&gt;type_info</title>
<path fill="none" stroke="black" d="M1021.63,-655.66C1103.7,-634.69 1288,-581.12 1288,-523 1288,-523 1288,-523 1288,-377 1288,-317.46 1351.16,-274.81 1394.4,-252.59"/>
<polygon fill="black" stroke="black" points="1395.7,-255.36 1403.1,-247.77 1392.59,-249.09 1395.7,-255.36"/>
</g>
<!-- incentives&#45;&gt;coin -->
<g id="edge52" class="edge">
<title>incentives&#45;&gt;coin</title>
<path fill="none" stroke="black" d="M969.61,-648.63C961.88,-638.55 952.44,-625.09 946,-612 936.39,-592.47 929.16,-568.93 924.45,-550.96"/>
<polygon fill="black" stroke="black" points="927.61,-550.17 921.79,-541.32 920.82,-551.87 927.61,-550.17"/>
</g>
<!-- incentives&#45;&gt;tablist -->
<g id="edge54" class="edge">
<title>incentives&#45;&gt;tablist</title>
<path fill="none" stroke="black" d="M943.19,-656.35C881.45,-642.92 763.25,-617.23 701.24,-603.75"/>
<polygon fill="black" stroke="black" points="702.22,-600.16 691.7,-601.46 700.73,-607 702.22,-600.16"/>
</g>
<!-- incentives&#45;&gt;vector -->
<g id="edge49" class="edge">
<title>incentives&#45;&gt;vector</title>
<path fill="none" stroke="black" d="M936.74,-663.66C774.9,-658.21 236.37,-633.29 96,-540 26.61,-493.89 0,-462.31 0,-379 0,-379 0,-379 0,-161 0,-91.27 231.94,-42.94 328.55,-25.84"/>
<polygon fill="black" stroke="black" points="328.84,-29.16 338.09,-24 327.64,-22.27 328.84,-29.16"/>
</g>
<!-- aptos_coin -->
<g id="node28" class="node">
<title>aptos_coin</title>
<ellipse fill="none" stroke="black" cx="1004" cy="-594" rx="48.99" ry="18"/>
<text text-anchor="middle" x="1004" y="-590.3" font-family="Times,serif" font-size="14.00">aptos_coin</text>
</g>
<!-- incentives&#45;&gt;aptos_coin -->
<g id="edge53" class="edge">
<title>incentives&#45;&gt;aptos_coin</title>
<path fill="none" stroke="black" d="M988.19,-647.7C990.48,-640.07 993.23,-630.92 995.78,-622.4"/>
<polygon fill="black" stroke="black" points="999.35,-623.69 998.87,-613.1 992.64,-621.68 999.35,-623.69"/>
</g>
<!-- resource_account -->
<g id="node29" class="node">
<title>resource_account</title>
<ellipse fill="none" stroke="black" cx="1392" cy="-522" rx="72.29" ry="18"/>
<text text-anchor="middle" x="1392" y="-518.3" font-family="Times,serif" font-size="14.00">resource_account</text>
</g>
<!-- incentives&#45;&gt;resource_account -->
<g id="edge55" class="edge">
<title>incentives&#45;&gt;resource_account</title>
<path fill="none" stroke="black" d="M1029.56,-665.89C1094.22,-665.28 1213.26,-657.33 1302,-612 1331.32,-597.02 1357.15,-569.09 1373.53,-548.5"/>
<polygon fill="black" stroke="black" points="1376.82,-550.96 1380.16,-540.91 1371.28,-546.68 1376.82,-550.96"/>
</g>
<!-- features&#45;&gt;signer -->
<g id="edge56" class="edge">
<title>features&#45;&gt;signer</title>
<path fill="none" stroke="black" d="M1644.51,-153.8C1661.21,-150.49 1681.59,-146.71 1700,-144 1869.24,-119.12 2072.25,-101.37 2159.13,-94.34"/>
<polygon fill="black" stroke="black" points="2159.19,-97.77 2168.88,-93.48 2158.63,-90.79 2159.19,-97.77"/>
</g>
<!-- features&#45;&gt;error -->
<g id="edge57" class="edge">
<title>features&#45;&gt;error</title>
<path fill="none" stroke="black" d="M1580.31,-150.16C1573.09,-147.84 1565.33,-145.61 1558,-144 1405.55,-110.6 1219.59,-97.31 1140.08,-92.89"/>
<polygon fill="black" stroke="black" points="1140.32,-89.34 1130.14,-92.3 1139.94,-96.33 1140.32,-89.34"/>
</g>
<!-- system_addresses&#45;&gt;signer -->
<g id="edge58" class="edge">
<title>system_addresses&#45;&gt;signer</title>
<path fill="none" stroke="black" d="M1214.89,-288.94C1251.68,-268.53 1319.03,-233.81 1381,-216 1499.89,-181.82 1534.98,-200.34 1657,-180 1736.18,-166.8 1754.91,-157.73 1834,-144 1951.47,-123.61 2091.02,-105.05 2159.62,-96.3"/>
<polygon fill="black" stroke="black" points="2159.92,-99.66 2169.4,-94.93 2159.04,-92.72 2159.92,-99.66"/>
</g>
<!-- system_addresses&#45;&gt;error -->
<g id="edge59" class="edge">
<title>system_addresses&#45;&gt;error</title>
<path fill="none" stroke="black" d="M1180.11,-287.85C1165.19,-250.74 1129.83,-162.75 1111.87,-118.05"/>
<polygon fill="black" stroke="black" points="1114.78,-116.91 1107.81,-108.94 1108.29,-119.52 1114.78,-116.91"/>
</g>
<!-- ed25519&#45;&gt;option -->
<g id="edge60" class="edge">
<title>ed25519&#45;&gt;option</title>
<path fill="none" stroke="black" d="M1469.33,-295.53C1369.37,-267.77 1065.32,-185.95 808,-144 620.03,-113.36 393,-98.45 299.02,-93.24"/>
<polygon fill="black" stroke="black" points="299.41,-89.7 289.23,-92.65 299.03,-96.69 299.41,-89.7"/>
</g>
<!-- ed25519&#45;&gt;type_info -->
<g id="edge63" class="edge">
<title>ed25519&#45;&gt;type_info</title>
<path fill="none" stroke="black" d="M1487.34,-289.12C1478.43,-280.08 1467.1,-268.58 1457.18,-258.52"/>
<polygon fill="black" stroke="black" points="1460.11,-256.49 1450.6,-251.82 1455.12,-261.4 1460.11,-256.49"/>
</g>
<!-- ed25519&#45;&gt;error -->
<g id="edge61" class="edge">
<title>ed25519&#45;&gt;error</title>
<path fill="none" stroke="black" d="M1504.6,-287.54C1505.42,-267.93 1503.7,-236.21 1487,-216 1399.12,-109.64 1219.75,-92.86 1140.34,-90.85"/>
<polygon fill="black" stroke="black" points="1140.43,-87.33 1130.37,-90.65 1140.31,-94.33 1140.43,-87.33"/>
</g>
<!-- ed25519&#45;&gt;bcs -->
<g id="edge62" class="edge">
<title>ed25519&#45;&gt;bcs</title>
<path fill="none" stroke="black" d="M1533.03,-293.38C1600.93,-267.11 1765.86,-203.29 1836.73,-175.87"/>
<polygon fill="black" stroke="black" points="1837.81,-178.82 1845.88,-171.95 1835.29,-172.29 1837.81,-178.82"/>
</g>
<!-- ed25519&#45;&gt;hash -->
<g id="edge64" class="edge">
<title>ed25519&#45;&gt;hash</title>
<path fill="none" stroke="black" d="M1538.77,-296.76C1597.16,-283.32 1712.31,-256.8 1770.91,-243.31"/>
<polygon fill="black" stroke="black" points="1771.54,-246.53 1780.5,-240.87 1769.97,-239.7 1771.54,-246.53"/>
</g>
<!-- multi_ed25519&#45;&gt;option -->
<g id="edge65" class="edge">
<title>multi_ed25519&#45;&gt;option</title>
<path fill="none" stroke="black" d="M1586.32,-365.05C1517.68,-347.25 1383.71,-313.19 1269,-288 893.38,-205.52 435.54,-122.99 296.79,-98.37"/>
<polygon fill="black" stroke="black" points="297.69,-94.79 287.23,-96.5 296.47,-101.69 297.69,-94.79"/>
</g>
<!-- multi_ed25519&#45;&gt;error -->
<g id="edge66" class="edge">
<title>multi_ed25519&#45;&gt;error</title>
<path fill="none" stroke="black" d="M1623.84,-359.78C1601.42,-314.72 1534.07,-193.42 1437,-144 1385.46,-117.76 1216.1,-100.65 1139.38,-94.06"/>
<polygon fill="black" stroke="black" points="1140.01,-90.51 1129.75,-93.16 1139.42,-97.49 1140.01,-90.51"/>
</g>
<!-- multi_ed25519&#45;&gt;features -->
<g id="edge67" class="edge">
<title>multi_ed25519&#45;&gt;features</title>
<path fill="none" stroke="black" d="M1630.24,-359.85C1626.45,-322.99 1617.5,-235.92 1612.87,-190.96"/>
<polygon fill="black" stroke="black" points="1616.28,-190.82 1611.77,-181.23 1609.31,-191.54 1616.28,-190.82"/>
</g>
<!-- multi_ed25519&#45;&gt;bcs -->
<g id="edge68" class="edge">
<title>multi_ed25519&#45;&gt;bcs</title>
<path fill="none" stroke="black" d="M1642.68,-359.87C1654.53,-341.39 1674.66,-311.46 1695,-288 1725.48,-252.84 1733.27,-243.22 1771,-216 1792,-200.85 1817.87,-187.15 1837.89,-177.48"/>
<polygon fill="black" stroke="black" points="1839.23,-180.24 1846.77,-172.8 1836.24,-173.91 1839.23,-180.24"/>
</g>
<!-- multi_ed25519&#45;&gt;hash -->
<g id="edge69" class="edge">
<title>multi_ed25519&#45;&gt;hash</title>
<path fill="none" stroke="black" d="M1652.07,-360.71C1684.19,-334.65 1747.04,-283.65 1782.02,-255.27"/>
<polygon fill="black" stroke="black" points="1783.71,-257.59 1789.27,-248.58 1779.3,-252.16 1783.71,-257.59"/>
</g>
<!-- multi_ed25519&#45;&gt;ed25519 -->
<g id="edge70" class="edge">
<title>multi_ed25519&#45;&gt;ed25519</title>
<path fill="none" stroke="black" d="M1603.37,-361.46C1583.98,-350.94 1558.24,-336.98 1537.69,-325.82"/>
<polygon fill="black" stroke="black" points="1539.52,-322.29 1529.06,-320.6 1536.18,-328.45 1539.52,-322.29"/>
</g>
<!-- from_bcs&#45;&gt;string -->
<g id="edge71" class="edge">
<title>from_bcs&#45;&gt;string</title>
<path fill="none" stroke="black" d="M589.01,-223.12C541.02,-209.95 456.47,-186.74 407.65,-173.34"/>
<polygon fill="black" stroke="black" points="408.79,-169.74 398.22,-170.47 406.94,-176.49 408.79,-169.74"/>
</g>
<!-- chain_id&#45;&gt;system_addresses -->
<g id="edge72" class="edge">
<title>chain_id&#45;&gt;system_addresses</title>
<path fill="none" stroke="black" d="M1327.78,-364.97C1301.85,-354.29 1263.52,-338.51 1233.4,-326.11"/>
<polygon fill="black" stroke="black" points="1235.11,-322.61 1224.53,-322.04 1232.45,-329.09 1235.11,-322.61"/>
</g>
<!-- aggregator_factory&#45;&gt;table -->
<g id="edge74" class="edge">
<title>aggregator_factory&#45;&gt;table</title>
<path fill="none" stroke="black" d="M759.07,-359.7C756.41,-351.95 753.22,-342.64 750.26,-334.02"/>
<polygon fill="black" stroke="black" points="753.25,-332.95 746.7,-324.62 746.63,-335.22 753.25,-332.95"/>
</g>
<!-- aggregator_factory&#45;&gt;error -->
<g id="edge73" class="edge">
<title>aggregator_factory&#45;&gt;error</title>
<path fill="none" stroke="black" d="M769.49,-359.65C782.48,-310.76 821.38,-173.5 856,-144 886.79,-117.76 1002.09,-101.68 1062.9,-94.84"/>
<polygon fill="black" stroke="black" points="1063.03,-98.24 1072.59,-93.67 1062.27,-91.28 1063.03,-98.24"/>
</g>
<!-- aggregator_factory&#45;&gt;system_addresses -->
<g id="edge75" class="edge">
<title>aggregator_factory&#45;&gt;system_addresses</title>
<path fill="none" stroke="black" d="M826.36,-366.82C903.59,-354.01 1035.92,-332.06 1117.01,-318.61"/>
<polygon fill="black" stroke="black" points="1117.32,-321.94 1126.61,-316.85 1116.17,-315.04 1117.32,-321.94"/>
</g>
<!-- aggregator_factory&#45;&gt;aggregator -->
<g id="edge76" class="edge">
<title>aggregator_factory&#45;&gt;aggregator</title>
<path fill="none" stroke="black" d="M703.49,-366.82C620.77,-353.13 474.98,-329.01 396.18,-315.97"/>
<polygon fill="black" stroke="black" points="396.96,-312.38 386.52,-314.2 395.82,-319.29 396.96,-312.38"/>
</g>
<!-- optional_aggregator&#45;&gt;option -->
<g id="edge77" class="edge">
<title>optional_aggregator&#45;&gt;option</title>
<path fill="none" stroke="black" d="M679.66,-448.25C602.18,-445.07 483.53,-433.67 388,-396 336.04,-375.51 313.93,-371.78 285,-324 245.67,-259.03 247.68,-165.29 251.7,-119.02"/>
<polygon fill="black" stroke="black" points="255.26,-119.61 252.75,-109.32 248.29,-118.93 255.26,-119.61"/>
</g>
<!-- optional_aggregator&#45;&gt;error -->
<g id="edge78" class="edge">
<title>optional_aggregator&#45;&gt;error</title>
<path fill="none" stroke="black" d="M801.28,-434.1C819.07,-425.55 838.7,-413.06 851,-396 874.65,-363.19 870,-347.45 870,-307 870,-307 870,-307 870,-233 870,-143.55 997.26,-108.66 1062.86,-96.61"/>
<polygon fill="black" stroke="black" points="1063.34,-99.91 1072.59,-94.74 1062.14,-93.01 1063.34,-99.91"/>
</g>
<!-- optional_aggregator&#45;&gt;aggregator -->
<g id="edge79" class="edge">
<title>optional_aggregator&#45;&gt;aggregator</title>
<path fill="none" stroke="black" d="M679.62,-447.85C612.83,-444.07 517.34,-432.02 442,-396 410.12,-380.76 380.83,-352.22 362.3,-331.57"/>
<polygon fill="black" stroke="black" points="364.5,-329.76 355.28,-324.53 359.23,-334.36 364.5,-329.76"/>
</g>
<!-- optional_aggregator&#45;&gt;aggregator_factory -->
<g id="edge80" class="edge">
<title>optional_aggregator&#45;&gt;aggregator_factory</title>
<path fill="none" stroke="black" d="M761.99,-431.7C762.42,-424.24 762.92,-415.32 763.4,-406.97"/>
<polygon fill="black" stroke="black" points="766.95,-407.29 764.02,-397.1 759.96,-406.89 766.95,-407.29"/>
</g>
<!-- table_with_length&#45;&gt;table -->
<g id="edge82" class="edge">
<title>table_with_length&#45;&gt;table</title>
<path fill="none" stroke="black" d="M596.36,-362.33C629.13,-349.79 675.81,-331.93 707.2,-319.93"/>
<polygon fill="black" stroke="black" points="708.12,-322.94 716.21,-316.1 705.62,-316.4 708.12,-322.94"/>
</g>
<!-- table_with_length&#45;&gt;error -->
<g id="edge81" class="edge">
<title>table_with_length&#45;&gt;error</title>
<path fill="none" stroke="black" d="M575,-360.23C624.61,-311.65 769.37,-172.45 828,-144 905.25,-106.51 1006.93,-95.53 1061.81,-92.32"/>
<polygon fill="black" stroke="black" points="1061.98,-95.76 1071.78,-91.75 1061.61,-88.77 1061.98,-95.76"/>
</g>
<!-- aptos_coin&#45;&gt;option -->
<g id="edge84" class="edge">
<title>aptos_coin&#45;&gt;option</title>
<path fill="none" stroke="black" d="M955.13,-591.32C774.09,-583.8 152,-545.81 152,-379 152,-379 152,-379 152,-233 152,-181.72 196.56,-136.47 227.06,-111.5"/>
<polygon fill="black" stroke="black" points="228.96,-113.66 234.63,-104.71 224.62,-108.18 228.96,-113.66"/>
</g>
<!-- aptos_coin&#45;&gt;string -->
<g id="edge85" class="edge">
<title>aptos_coin&#45;&gt;string</title>
<path fill="none" stroke="black" d="M954.67,-593.31C882.47,-592.15 744.99,-583.7 638,-540 525.83,-494.18 418,-500.16 418,-379 418,-379 418,-379 418,-305 418,-262.59 398.54,-216.62 384.41,-188.82"/>
<polygon fill="black" stroke="black" points="387.23,-187.67 379.48,-180.44 381.03,-190.92 387.23,-187.67"/>
</g>
<!-- aptos_coin&#45;&gt;signer -->
<g id="edge86" class="edge">
<title>aptos_coin&#45;&gt;signer</title>
<path fill="none" stroke="black" d="M1053.22,-592.35C1283.1,-588.01 2240,-555.06 2240,-307 2240,-307 2240,-307 2240,-233 2240,-191.59 2224.73,-145.62 2213.55,-117.51"/>
<polygon fill="black" stroke="black" points="2216.54,-116.58 2209.51,-108.66 2210.07,-119.24 2216.54,-116.58"/>
</g>
<!-- aptos_coin&#45;&gt;coin -->
<g id="edge89" class="edge">
<title>aptos_coin&#45;&gt;coin</title>
<path fill="none" stroke="black" d="M984.49,-577.12C972.13,-567.06 956.03,-553.96 942.78,-543.17"/>
<polygon fill="black" stroke="black" points="945.51,-540.06 935.54,-536.47 941.09,-545.49 945.51,-540.06"/>
</g>
<!-- aptos_coin&#45;&gt;vector -->
<g id="edge83" class="edge">
<title>aptos_coin&#45;&gt;vector</title>
<path fill="none" stroke="black" d="M956.82,-588.64C884.68,-579.41 747.31,-551.35 671,-468 637.36,-431.26 663.62,-404.39 641,-360 605.19,-289.71 447.75,-107.5 390.72,-42.48"/>
<polygon fill="black" stroke="black" points="392.9,-40.66 383.67,-35.46 387.64,-45.28 392.9,-40.66"/>
</g>
<!-- aptos_coin&#45;&gt;error -->
<g id="edge87" class="edge">
<title>aptos_coin&#45;&gt;error</title>
<path fill="none" stroke="black" d="M1001.93,-575.62C996.83,-531.05 984,-409.04 984,-307 984,-307 984,-307 984,-233 984,-177.73 1037.45,-132.3 1072.1,-108.66"/>
<polygon fill="black" stroke="black" points="1073.47,-111.29 1079.89,-102.85 1069.61,-105.45 1073.47,-111.29"/>
</g>
<!-- aptos_coin&#45;&gt;system_addresses -->
<g id="edge88" class="edge">
<title>aptos_coin&#45;&gt;system_addresses</title>
<path fill="none" stroke="black" d="M1029.79,-578.45C1076.64,-550.32 1174.36,-483.49 1212,-396 1220.68,-375.82 1212.93,-351.77 1203.84,-333.76"/>
<polygon fill="black" stroke="black" points="1206.47,-332.28 1198.59,-325.19 1200.33,-335.64 1206.47,-332.28"/>
</g>
<!-- resource_account&#45;&gt;account -->
<g id="edge91" class="edge">
<title>resource_account&#45;&gt;account</title>
<path fill="none" stroke="black" d="M1417.51,-504.76C1433.47,-494.61 1454.13,-481.46 1471.03,-470.71"/>
<polygon fill="black" stroke="black" points="1472.41,-473.34 1478.97,-465.02 1468.66,-467.43 1472.41,-473.34"/>
</g>
<!-- resource_account&#45;&gt;bcs -->
<g id="edge90" class="edge">
<title>resource_account&#45;&gt;bcs</title>
<path fill="none" stroke="black" d="M1464.08,-519.7C1628.98,-515.04 2025.8,-493.7 2107,-396 2158.28,-334.3 2127.12,-305.99 2015,-216 1983.21,-190.49 1938.03,-176.58 1906.57,-169.5"/>
<polygon fill="black" stroke="black" points="1907.58,-165.92 1897.07,-167.27 1906.12,-172.77 1907.58,-165.92"/>
</g>
<!-- timestamp -->
<g id="node30" class="node">
<title>timestamp</title>
<ellipse fill="none" stroke="black" cx="1136" cy="-378" rx="48.19" ry="18"/>
<text text-anchor="middle" x="1136" y="-374.3" font-family="Times,serif" font-size="14.00">timestamp</text>
</g>
<!-- resource_account&#45;&gt;timestamp -->
<g id="edge92" class="edge">
<title>resource_account&#45;&gt;timestamp</title>
<path fill="none" stroke="black" d="M1363.63,-505.26C1316.66,-479.21 1222.87,-427.19 1171.56,-398.73"/>
<polygon fill="black" stroke="black" points="1173.64,-395.32 1163.19,-393.53 1170.24,-401.44 1173.64,-395.32"/>
</g>
<!-- timestamp&#45;&gt;error -->
<g id="edge93" class="edge">
<title>timestamp&#45;&gt;error</title>
<path fill="none" stroke="black" d="M1123.26,-360.35C1116.43,-350.39 1108.68,-337.14 1105,-324 1084.96,-252.48 1091.61,-163.7 1096.97,-119.21"/>
<polygon fill="black" stroke="black" points="1100.56,-119.75 1098.36,-109.39 1093.61,-118.86 1100.56,-119.75"/>
</g>
<!-- timestamp&#45;&gt;system_addresses -->
<g id="edge94" class="edge">
<title>timestamp&#45;&gt;system_addresses</title>
<path fill="none" stroke="black" d="M1148.09,-360.41C1154.1,-352.16 1161.49,-342.01 1168.22,-332.78"/>
<polygon fill="black" stroke="black" points="1171.59,-335.1 1174.65,-324.96 1165.93,-330.98 1171.59,-335.1"/>
</g>
</g>
</svg>
