<?xml version="1.0" encoding="UTF-8" standalone="no"?>
<!DOCTYPE svg PUBLIC "-//W3C//DTD SVG 1.1//EN"
 "http://www.w3.org/Graphics/SVG/1.1/DTD/svg11.dtd">
<!-- Generated by graphviz version 8.0.5 (20230430.1635)
 -->
<!-- Title: G Pages: 1 -->
<svg width="1211pt" height="548pt"
 viewBox="0.00 0.00 1210.56 548.00" xmlns="http://www.w3.org/2000/svg" xmlns:xlink="http://www.w3.org/1999/xlink">
<g id="graph0" class="graph" transform="scale(1 1) rotate(0) translate(4 544)">
<title>G</title>
<polygon fill="white" stroke="none" points="-4,4 -4,-544 1206.56,-544 1206.56,4 -4,4"/>
<!-- resource_account -->
<g id="node1" class="node">
<title>resource_account</title>
<ellipse fill="none" stroke="black" cx="585.53" cy="-522" rx="75.41" ry="18"/>
<text text-anchor="middle" x="585.53" y="-516.95" font-family="Times,serif" font-size="14.00">resource_account</text>
</g>
<!-- bcs -->
<g id="node2" class="node">
<title>bcs</title>
<ellipse fill="none" stroke="black" cx="380.53" cy="-162" rx="27" ry="18"/>
<text text-anchor="middle" x="380.53" y="-156.95" font-family="Times,serif" font-size="14.00">bcs</text>
</g>
<!-- resource_account&#45;&gt;bcs -->
<g id="edge1" class="edge">
<title>resource_account&#45;&gt;bcs</title>
<path fill="none" stroke="black" d="M511.12,-518.7C411.02,-512.03 231.92,-487.13 113.53,-396 55.17,-351.08 50.38,-323.2 31.53,-252 27.43,-236.53 21,-228.05 31.53,-216 70.62,-171.24 237.93,-189.9 296.53,-180 312.19,-177.35 329.4,-173.96 344.15,-170.9"/>
<polygon fill="black" stroke="black" points="344.81,-174.12 353.87,-168.64 343.37,-167.27 344.81,-174.12"/>
</g>
<!-- account -->
<g id="node3" class="node">
<title>account</title>
<ellipse fill="none" stroke="black" cx="585.53" cy="-450" rx="39.58" ry="18"/>
<text text-anchor="middle" x="585.53" y="-444.95" font-family="Times,serif" font-size="14.00">account</text>
</g>
<!-- resource_account&#45;&gt;account -->
<g id="edge2" class="edge">
<title>resource_account&#45;&gt;account</title>
<path fill="none" stroke="black" d="M585.53,-503.7C585.53,-496.24 585.53,-487.32 585.53,-478.97"/>
<polygon fill="black" stroke="black" points="589.03,-479.1 585.53,-469.1 582.03,-479.1 589.03,-479.1"/>
</g>
<!-- timestamp -->
<g id="node4" class="node">
<title>timestamp</title>
<ellipse fill="none" stroke="black" cx="1086.53" cy="-378" rx="50.33" ry="18"/>
<text text-anchor="middle" x="1086.53" y="-372.95" font-family="Times,serif" font-size="14.00">timestamp</text>
</g>
<!-- resource_account&#45;&gt;timestamp -->
<g id="edge3" class="edge">
<title>resource_account&#45;&gt;timestamp</title>
<path fill="none" stroke="black" d="M632.66,-507.64C727.63,-480.72 941.15,-420.21 1037.59,-392.87"/>
<polygon fill="black" stroke="black" points="1038.27,-396.03 1046.94,-389.94 1036.36,-389.3 1038.27,-396.03"/>
</g>
<!-- account&#45;&gt;bcs -->
<g id="edge8" class="edge">
<title>account&#45;&gt;bcs</title>
<path fill="none" stroke="black" d="M546.24,-447.08C468.94,-442.6 300.61,-429.23 254.53,-396 195.99,-353.8 196.69,-322.09 179.53,-252 175.72,-236.46 169.76,-228.67 179.53,-216 189.65,-202.86 288.89,-181.26 344.03,-170.13"/>
<polygon fill="black" stroke="black" points="344.63,-173.38 353.75,-167.98 343.26,-166.51 344.63,-173.38"/>
</g>
<!-- vector -->
<g id="node5" class="node">
<title>vector</title>
<ellipse fill="none" stroke="black" cx="256.53" cy="-18" rx="33.95" ry="18"/>
<text text-anchor="middle" x="256.53" y="-12.95" font-family="Times,serif" font-size="14.00">vector</text>
</g>
<!-- account&#45;&gt;vector -->
<g id="edge4" class="edge">
<title>account&#45;&gt;vector</title>
<path fill="none" stroke="black" d="M624.9,-447.83C749.01,-443.83 1126.37,-429.02 1169.53,-396 1203.03,-370.36 1202.53,-349.19 1202.53,-307 1202.53,-307 1202.53,-307 1202.53,-161 1202.53,-92.08 1140.55,-94.85 1075.53,-72 930.94,-21.19 451.05,-18.35 301.46,-18.74"/>
<polygon fill="black" stroke="black" points="301.85,-15.24 291.86,-18.77 301.87,-22.24 301.85,-15.24"/>
</g>
<!-- option -->
<g id="node6" class="node">
<title>option</title>
<ellipse fill="none" stroke="black" cx="194.53" cy="-90" rx="34.46" ry="18"/>
<text text-anchor="middle" x="194.53" y="-84.95" font-family="Times,serif" font-size="14.00">option</text>
</g>
<!-- account&#45;&gt;option -->
<g id="edge5" class="edge">
<title>account&#45;&gt;option</title>
<path fill="none" stroke="black" d="M545.83,-448.65C445.83,-447.12 186.41,-439.01 113.53,-396 13,-336.67 -41.11,-228.4 39.53,-144 68.33,-113.85 114.99,-100.85 149.6,-95.24"/>
<polygon fill="black" stroke="black" points="149.99,-98.58 159.38,-93.67 148.98,-91.65 149.99,-98.58"/>
</g>
<!-- signer -->
<g id="node7" class="node">
<title>signer</title>
<ellipse fill="none" stroke="black" cx="1033.53" cy="-90" rx="33.44" ry="18"/>
<text text-anchor="middle" x="1033.53" y="-84.95" font-family="Times,serif" font-size="14.00">signer</text>
</g>
<!-- account&#45;&gt;signer -->
<g id="edge6" class="edge">
<title>account&#45;&gt;signer</title>
<path fill="none" stroke="black" d="M625.18,-447.92C746.5,-444.24 1106.78,-430.5 1145.53,-396 1175.74,-369.11 1164.53,-347.45 1164.53,-307 1164.53,-307 1164.53,-307 1164.53,-233 1164.53,-175.49 1105.76,-131.31 1066.94,-108.41"/>
<polygon fill="black" stroke="black" points="1068.97,-104.97 1058.55,-103.05 1065.5,-111.05 1068.97,-104.97"/>
</g>
<!-- error -->
<g id="node8" class="node">
<title>error</title>
<ellipse fill="none" stroke="black" cx="602.53" cy="-90" rx="28.83" ry="18"/>
<text text-anchor="middle" x="602.53" y="-84.95" font-family="Times,serif" font-size="14.00">error</text>
</g>
<!-- account&#45;&gt;error -->
<g id="edge7" class="edge">
<title>account&#45;&gt;error</title>
<path fill="none" stroke="black" d="M597.59,-432.7C613.67,-409.81 641.31,-366.22 651.53,-324 670.34,-246.24 680.69,-218.5 651.53,-144 646.65,-131.54 637.32,-120.26 628.1,-111.34"/>
<polygon fill="black" stroke="black" points="630.91,-109.25 621.14,-105.14 626.21,-114.44 630.91,-109.25"/>
</g>
<!-- type_info -->
<g id="node9" class="node">
<title>type_info</title>
<ellipse fill="none" stroke="black" cx="460.53" cy="-234" rx="46.23" ry="18"/>
<text text-anchor="middle" x="460.53" y="-228.95" font-family="Times,serif" font-size="14.00">type_info</text>
</g>
<!-- account&#45;&gt;type_info -->
<g id="edge9" class="edge">
<title>account&#45;&gt;type_info</title>
<path fill="none" stroke="black" d="M561.19,-435.33C546.45,-425.96 528.29,-412.29 516.53,-396 486.8,-354.82 471.77,-296.51 465.08,-262.53"/>
<polygon fill="black" stroke="black" points="468.39,-262.2 463.13,-253 461.51,-263.47 468.39,-262.2"/>
</g>
<!-- table -->
<g id="node10" class="node">
<title>table</title>
<ellipse fill="none" stroke="black" cx="710.53" cy="-378" rx="28.83" ry="18"/>
<text text-anchor="middle" x="710.53" y="-372.95" font-family="Times,serif" font-size="14.00">table</text>
</g>
<!-- account&#45;&gt;table -->
<g id="edge10" class="edge">
<title>account&#45;&gt;table</title>
<path fill="none" stroke="black" d="M609.93,-435.34C630.01,-424.09 658.59,-408.09 680.15,-396.01"/>
<polygon fill="black" stroke="black" points="681.5,-398.71 688.51,-390.77 678.08,-392.6 681.5,-398.71"/>
</g>
<!-- system_addresses -->
<g id="node11" class="node">
<title>system_addresses</title>
<ellipse fill="none" stroke="black" cx="890.53" cy="-306" rx="76.94" ry="18"/>
<text text-anchor="middle" x="890.53" y="-300.95" font-family="Times,serif" font-size="14.00">system_addresses</text>
</g>
<!-- account&#45;&gt;system_addresses -->
<g id="edge11" class="edge">
<title>account&#45;&gt;system_addresses</title>
<path fill="none" stroke="black" d="M624.75,-446.75C721.53,-440.8 965.65,-423.22 989.53,-396 1000.08,-383.97 997.75,-373.73 989.53,-360 980.06,-344.2 964.11,-332.85 947.73,-324.81"/>
<polygon fill="black" stroke="black" points="949.65,-321.38 939.09,-320.45 946.76,-327.75 949.65,-321.38"/>
</g>
<!-- hash -->
<g id="node12" class="node">
<title>hash</title>
<ellipse fill="none" stroke="black" cx="216.53" cy="-234" rx="27.81" ry="18"/>
<text text-anchor="middle" x="216.53" y="-228.95" font-family="Times,serif" font-size="14.00">hash</text>
</g>
<!-- account&#45;&gt;hash -->
<g id="edge12" class="edge">
<title>account&#45;&gt;hash</title>
<path fill="none" stroke="black" d="M545.61,-448.38C489.63,-446.01 385.95,-436.02 308.53,-396 267.48,-374.78 255.57,-364.61 233.53,-324 223.38,-305.31 219.21,-281.55 217.53,-263.27"/>
<polygon fill="black" stroke="black" points="220.96,-263.16 216.77,-253.44 213.98,-263.66 220.96,-263.16"/>
</g>
<!-- ed25519 -->
<g id="node13" class="node">
<title>ed25519</title>
<ellipse fill="none" stroke="black" cx="315.53" cy="-306" rx="42.65" ry="18"/>
<text text-anchor="middle" x="315.53" y="-300.95" font-family="Times,serif" font-size="14.00">ed25519</text>
</g>
<!-- account&#45;&gt;ed25519 -->
<g id="edge13" class="edge">
<title>account&#45;&gt;ed25519</title>
<path fill="none" stroke="black" d="M546.35,-446.45C481.43,-441.38 355.77,-427.64 326.53,-396 311.6,-379.85 309.8,-354.42 311.18,-334.87"/>
<polygon fill="black" stroke="black" points="314.74,-335.46 312.29,-325.15 307.78,-334.74 314.74,-335.46"/>
</g>
<!-- multi_ed25519 -->
<g id="node14" class="node">
<title>multi_ed25519</title>
<ellipse fill="none" stroke="black" cx="402.53" cy="-378" rx="67.22" ry="18"/>
<text text-anchor="middle" x="402.53" y="-372.95" font-family="Times,serif" font-size="14.00">multi_ed25519</text>
</g>
<!-- account&#45;&gt;multi_ed25519 -->
<g id="edge14" class="edge">
<title>account&#45;&gt;multi_ed25519</title>
<path fill="none" stroke="black" d="M556.12,-437.75C527.56,-426.83 483.7,-410.05 450.15,-397.22"/>
<polygon fill="black" stroke="black" points="451.69,-393.68 441.1,-393.37 449.19,-400.21 451.69,-393.68"/>
</g>
<!-- guid -->
<g id="node15" class="node">
<title>guid</title>
<ellipse fill="none" stroke="black" cx="615.53" cy="-306" rx="27.3" ry="18"/>
<text text-anchor="middle" x="615.53" y="-300.95" font-family="Times,serif" font-size="14.00">guid</text>
</g>
<!-- account&#45;&gt;guid -->
<g id="edge15" class="edge">
<title>account&#45;&gt;guid</title>
<path fill="none" stroke="black" d="M589.21,-431.59C594.32,-407.4 603.62,-363.36 609.68,-334.65"/>
<polygon fill="black" stroke="black" points="613.27,-335.62 611.91,-325.11 606.42,-334.17 613.27,-335.62"/>
</g>
<!-- from_bcs -->
<g id="node16" class="node">
<title>from_bcs</title>
<ellipse fill="none" stroke="black" cx="86.53" cy="-234" rx="46.23" ry="18"/>
<text text-anchor="middle" x="86.53" y="-228.95" font-family="Times,serif" font-size="14.00">from_bcs</text>
</g>
<!-- account&#45;&gt;from_bcs -->
<g id="edge16" class="edge">
<title>account&#45;&gt;from_bcs</title>
<path fill="none" stroke="black" d="M545.81,-449.32C449.69,-449.33 207.97,-444.39 146.53,-396 105.33,-363.55 92.42,-299.74 88.37,-262.94"/>
<polygon fill="black" stroke="black" points="91.81,-263.08 87.38,-253.46 84.84,-263.74 91.81,-263.08"/>
</g>
<!-- event -->
<g id="node17" class="node">
<title>event</title>
<ellipse fill="none" stroke="black" cx="556.53" cy="-378" rx="30.88" ry="18"/>
<text text-anchor="middle" x="556.53" y="-372.95" font-family="Times,serif" font-size="14.00">event</text>
</g>
<!-- account&#45;&gt;event -->
<g id="edge17" class="edge">
<title>account&#45;&gt;event</title>
<path fill="none" stroke="black" d="M578.51,-432.05C575.23,-424.14 571.25,-414.54 567.58,-405.69"/>
<polygon fill="black" stroke="black" points="570.54,-404.69 563.48,-396.79 564.08,-407.37 570.54,-404.69"/>
</g>
<!-- create_signer -->
<g id="node18" class="node">
<title>create_signer</title>
<ellipse fill="none" stroke="black" cx="920.53" cy="-378" rx="60.05" ry="18"/>
<text text-anchor="middle" x="920.53" y="-372.95" font-family="Times,serif" font-size="14.00">create_signer</text>
</g>
<!-- account&#45;&gt;create_signer -->
<g id="edge18" class="edge">
<title>account&#45;&gt;create_signer</title>
<path fill="none" stroke="black" d="M621.78,-442.31C673.07,-432.73 769.71,-414.22 851.53,-396 855.93,-395.02 860.48,-393.97 865.05,-392.9"/>
<polygon fill="black" stroke="black" points="865.77,-396.09 874.68,-390.36 864.15,-389.28 865.77,-396.09"/>
</g>
<!-- chain_id -->
<g id="node19" class="node">
<title>chain_id</title>
<ellipse fill="none" stroke="black" cx="799.53" cy="-378" rx="42.65" ry="18"/>
<text text-anchor="middle" x="799.53" y="-372.95" font-family="Times,serif" font-size="14.00">chain_id</text>
</g>
<!-- account&#45;&gt;chain_id -->
<g id="edge19" class="edge">
<title>account&#45;&gt;chain_id</title>
<path fill="none" stroke="black" d="M617.1,-438.81C649.96,-428.19 702.88,-411.03 748.53,-396 751.13,-395.14 753.8,-394.26 756.49,-393.37"/>
<polygon fill="black" stroke="black" points="757.5,-396.39 765.89,-389.92 755.3,-389.75 757.5,-396.39"/>
</g>
<!-- timestamp&#45;&gt;error -->
<g id="edge20" class="edge">
<title>timestamp&#45;&gt;error</title>
<path fill="none" stroke="black" d="M1068.57,-360.9C1047.38,-342.26 1010.67,-311.18 976.53,-288 868.52,-214.69 837.08,-202.8 720.53,-144 692.41,-129.81 659.68,-115.26 635.84,-105.01"/>
<polygon fill="black" stroke="black" points="637.45,-101.46 626.88,-100.75 634.7,-107.9 637.45,-101.46"/>
</g>
<!-- timestamp&#45;&gt;system_addresses -->
<g id="edge21" class="edge">
<title>timestamp&#45;&gt;system_addresses</title>
<path fill="none" stroke="black" d="M1051.94,-364.65C1021.33,-353.72 976.26,-337.62 941.52,-325.21"/>
<polygon fill="black" stroke="black" points="943.15,-321.72 932.56,-321.65 940.8,-328.31 943.15,-321.72"/>
</g>
<!-- option&#45;&gt;vector -->
<g id="edge22" class="edge">
<title>option&#45;&gt;vector</title>
<path fill="none" stroke="black" d="M208.6,-73.12C216.52,-64.17 226.58,-52.81 235.43,-42.81"/>
<polygon fill="black" stroke="black" points="237.5,-45.63 241.51,-35.82 232.26,-40.99 237.5,-45.63"/>
</g>
<!-- type_info&#45;&gt;bcs -->
<g id="edge26" class="edge">
<title>type_info&#45;&gt;bcs</title>
<path fill="none" stroke="black" d="M442.37,-217.12C431.14,-207.28 416.58,-194.55 404.41,-183.9"/>
<polygon fill="black" stroke="black" points="407.27,-180.88 397.44,-176.93 402.66,-186.15 407.27,-180.88"/>
</g>
<!-- type_info&#45;&gt;error -->
<g id="edge24" class="edge">
<title>type_info&#45;&gt;error</title>
<path fill="none" stroke="black" d="M469.18,-216.11C479.55,-197.03 498.31,-165.79 520.53,-144 535.5,-129.32 555.15,-116.45 571.46,-107.07"/>
<polygon fill="black" stroke="black" points="572.59,-109.89 579.62,-101.96 569.18,-103.77 572.59,-109.89"/>
</g>
<!-- string -->
<g id="node20" class="node">
<title>string</title>
<ellipse fill="none" stroke="black" cx="255.53" cy="-162" rx="31.9" ry="18"/>
<text text-anchor="middle" x="255.53" y="-156.95" font-family="Times,serif" font-size="14.00">string</text>
</g>
<!-- type_info&#45;&gt;string -->
<g id="edge23" class="edge">
<title>type_info&#45;&gt;string</title>
<path fill="none" stroke="black" d="M426.68,-221.44C389.67,-208.8 330.57,-188.62 292.41,-175.59"/>
<polygon fill="black" stroke="black" points="293.83,-172.04 283.24,-172.12 291.57,-178.66 293.83,-172.04"/>
</g>
<!-- features -->
<g id="node21" class="node">
<title>features</title>
<ellipse fill="none" stroke="black" cx="602.53" cy="-162" rx="40.09" ry="18"/>
<text text-anchor="middle" x="602.53" y="-156.95" font-family="Times,serif" font-size="14.00">features</text>
</g>
<!-- type_info&#45;&gt;features -->
<g id="edge25" class="edge">
<title>type_info&#45;&gt;features</title>
<path fill="none" stroke="black" d="M488.24,-219.34C510.66,-208.29 542.38,-192.65 566.72,-180.65"/>
<polygon fill="black" stroke="black" points="567.9,-183.48 575.32,-175.92 564.8,-177.2 567.9,-183.48"/>
</g>
<!-- system_addresses&#45;&gt;signer -->
<g id="edge27" class="edge">
<title>system_addresses&#45;&gt;signer</title>
<path fill="none" stroke="black" d="M901.99,-287.85C927.12,-250.24 987.17,-160.37 1016.64,-116.28"/>
<polygon fill="black" stroke="black" points="1019.96,-118.61 1022.6,-108.35 1014.14,-114.72 1019.96,-118.61"/>
</g>
<!-- system_addresses&#45;&gt;error -->
<g id="edge28" class="edge">
<title>system_addresses&#45;&gt;error</title>
<path fill="none" stroke="black" d="M870.23,-288.15C833.81,-258.13 754.6,-193.88 684.53,-144 667.49,-131.87 647.82,-119.12 632.02,-109.17"/>
<polygon fill="black" stroke="black" points="634.08,-105.7 623.74,-103.36 630.36,-111.63 634.08,-105.7"/>
</g>
<!-- ed25519&#45;&gt;bcs -->
<g id="edge31" class="edge">
<title>ed25519&#45;&gt;bcs</title>
<path fill="none" stroke="black" d="M323.37,-287.87C334.55,-263.43 355.2,-218.33 368.38,-189.55"/>
<polygon fill="black" stroke="black" points="371.88,-191.3 372.86,-180.75 365.52,-188.38 371.88,-191.3"/>
</g>
<!-- ed25519&#45;&gt;option -->
<g id="edge29" class="edge">
<title>ed25519&#45;&gt;option</title>
<path fill="none" stroke="black" d="M305.33,-288.14C293.8,-269.62 273.94,-239.42 253.53,-216 238.03,-198.22 226.31,-200.43 214.53,-180 203.77,-161.34 198.79,-137.39 196.5,-119.04"/>
<polygon fill="black" stroke="black" points="199.88,-118.75 195.36,-109.16 192.92,-119.47 199.88,-118.75"/>
</g>
<!-- ed25519&#45;&gt;error -->
<g id="edge30" class="edge">
<title>ed25519&#45;&gt;error</title>
<path fill="none" stroke="black" d="M312.98,-287.68C309.2,-254.82 306.24,-183.23 344.53,-144 374.42,-113.37 498.52,-99.2 563.09,-93.79"/>
<polygon fill="black" stroke="black" points="562.98,-97.23 572.67,-92.94 562.42,-90.25 562.98,-97.23"/>
</g>
<!-- ed25519&#45;&gt;type_info -->
<g id="edge32" class="edge">
<title>ed25519&#45;&gt;type_info</title>
<path fill="none" stroke="black" d="M342.8,-291.83C365.3,-280.97 397.47,-265.44 422.49,-253.36"/>
<polygon fill="black" stroke="black" points="423.9,-256.08 431.39,-248.58 420.86,-249.78 423.9,-256.08"/>
</g>
<!-- ed25519&#45;&gt;hash -->
<g id="edge33" class="edge">
<title>ed25519&#45;&gt;hash</title>
<path fill="none" stroke="black" d="M294.53,-290.15C279.73,-279.69 259.77,-265.57 243.74,-254.24"/>
<polygon fill="black" stroke="black" points="246.02,-250.86 235.83,-247.94 241.97,-256.57 246.02,-250.86"/>
</g>
<!-- multi_ed25519&#45;&gt;bcs -->
<g id="edge37" class="edge">
<title>multi_ed25519&#45;&gt;bcs</title>
<path fill="none" stroke="black" d="M400.76,-359.85C396.97,-322.99 388.02,-235.92 383.4,-190.96"/>
<polygon fill="black" stroke="black" points="386.8,-190.82 382.3,-181.23 379.84,-191.54 386.8,-190.82"/>
</g>
<!-- multi_ed25519&#45;&gt;option -->
<g id="edge34" class="edge">
<title>multi_ed25519&#45;&gt;option</title>
<path fill="none" stroke="black" d="M335.19,-376.57C248.27,-371.92 100.07,-349.2 31.53,-252 -11.7,-190.7 97.22,-132.34 157.58,-105.86"/>
<polygon fill="black" stroke="black" points="158.72,-108.75 166.53,-101.59 155.96,-102.32 158.72,-108.75"/>
</g>
<!-- multi_ed25519&#45;&gt;error -->
<g id="edge35" class="edge">
<title>multi_ed25519&#45;&gt;error</title>
<path fill="none" stroke="black" d="M414.21,-360.08C427.39,-341.53 449.94,-311.28 472.53,-288 489.88,-270.11 501.33,-272.49 515.53,-252 544.51,-210.18 527.27,-187.58 553.53,-144 560.36,-132.66 569.9,-121.65 578.75,-112.63"/>
<polygon fill="black" stroke="black" points="580.89,-115.46 585.58,-105.96 575.99,-110.46 580.89,-115.46"/>
</g>
<!-- multi_ed25519&#45;&gt;hash -->
<g id="edge38" class="edge">
<title>multi_ed25519&#45;&gt;hash</title>
<path fill="none" stroke="black" d="M349.91,-366.47C321.68,-358.64 287.8,-345.48 263.53,-324 244.87,-307.48 232.42,-281.75 225.04,-262.2"/>
<polygon fill="black" stroke="black" points="228.09,-261.33 221.46,-253.07 221.49,-263.66 228.09,-261.33"/>
</g>
<!-- multi_ed25519&#45;&gt;ed25519 -->
<g id="edge39" class="edge">
<title>multi_ed25519&#45;&gt;ed25519</title>
<path fill="none" stroke="black" d="M381.91,-360.41C370.31,-351.08 355.69,-339.31 343.12,-329.2"/>
<polygon fill="black" stroke="black" points="345.79,-326.05 335.8,-322.51 341.4,-331.51 345.79,-326.05"/>
</g>
<!-- multi_ed25519&#45;&gt;features -->
<g id="edge36" class="edge">
<title>multi_ed25519&#45;&gt;features</title>
<path fill="none" stroke="black" d="M425.77,-360.74C456.38,-338.58 510.73,-296.51 548.53,-252 564.91,-232.71 579.53,-207.88 589.41,-189.36"/>
<polygon fill="black" stroke="black" points="592.88,-191.27 594.4,-180.79 586.67,-188.04 592.88,-191.27"/>
</g>
<!-- from_bcs&#45;&gt;string -->
<g id="edge40" class="edge">
<title>from_bcs&#45;&gt;string</title>
<path fill="none" stroke="black" d="M117.52,-220.16C146.51,-208.16 189.75,-190.24 220.09,-177.68"/>
<polygon fill="black" stroke="black" points="221.34,-180.54 229.24,-173.47 218.66,-174.07 221.34,-180.54"/>
</g>
<!-- event&#45;&gt;bcs -->
<g id="edge41" class="edge">
<title>event&#45;&gt;bcs</title>
<path fill="none" stroke="black" d="M556.99,-359.63C556.91,-327.32 552.17,-257.52 515.53,-216 490.53,-187.67 448.44,-174.34 417.9,-168.16"/>
<polygon fill="black" stroke="black" points="418.69,-164.56 408.22,-166.19 417.42,-171.45 418.69,-164.56"/>
</g>
<!-- event&#45;&gt;guid -->
<g id="edge42" class="edge">
<title>event&#45;&gt;guid</title>
<path fill="none" stroke="black" d="M569.62,-361.46C577.37,-352.28 587.32,-340.46 595.98,-330.19"/>
<polygon fill="black" stroke="black" points="599.11,-332.91 602.87,-323.01 593.75,-328.4 599.11,-332.91"/>
</g>
<!-- chain_id&#45;&gt;system_addresses -->
<g id="edge43" class="edge">
<title>chain_id&#45;&gt;system_addresses</title>
<path fill="none" stroke="black" d="M819.27,-361.81C831.28,-352.58 846.85,-340.6 860.38,-330.19"/>
<polygon fill="black" stroke="black" points="862.12,-332.5 867.91,-323.63 857.85,-326.95 862.12,-332.5"/>
</g>
<!-- string&#45;&gt;vector -->
<g id="edge44" class="edge">
<title>string&#45;&gt;vector</title>
<path fill="none" stroke="black" d="M255.65,-143.59C255.82,-119.5 256.13,-75.75 256.33,-47.03"/>
<polygon fill="black" stroke="black" points="259.84,-47.14 256.41,-37.11 252.84,-47.09 259.84,-47.14"/>
</g>
<!-- string&#45;&gt;option -->
<g id="edge45" class="edge">
<title>string&#45;&gt;option</title>
<path fill="none" stroke="black" d="M241.99,-145.46C234.09,-136.4 223.97,-124.79 215.1,-114.61"/>
<polygon fill="black" stroke="black" points="217.24,-112.73 208.03,-107.49 211.96,-117.33 217.24,-112.73"/>
</g>
<!-- features&#45;&gt;signer -->
<g id="edge46" class="edge">
<title>features&#45;&gt;signer</title>
<path fill="none" stroke="black" d="M639.65,-154.97C719.38,-142.02 906.58,-111.62 990.96,-97.91"/>
<polygon fill="black" stroke="black" points="991.38,-101.23 1000.69,-96.17 990.26,-94.32 991.38,-101.23"/>
</g>
<!-- features&#45;&gt;error -->
<g id="edge47" class="edge">
<title>features&#45;&gt;error</title>
<path fill="none" stroke="black" d="M602.53,-143.7C602.53,-136.24 602.53,-127.32 602.53,-118.97"/>
<polygon fill="black" stroke="black" points="606.03,-119.1 602.53,-109.1 599.03,-119.1 606.03,-119.1"/>
</g>
</g>
</svg>
