<?xml version="1.0" encoding="UTF-8" standalone="no"?>
<!DOCTYPE svg PUBLIC "-//W3C//DTD SVG 1.1//EN"
 "http://www.w3.org/Graphics/SVG/1.1/DTD/svg11.dtd">
<!-- Generated by graphviz version 8.1.0 (20230707.0739)
 -->
<!-- Title: G Pages: 1 -->
<svg width="1190pt" height="548pt"
 viewBox="0.00 0.00 1190.08 548.00" xmlns="http://www.w3.org/2000/svg" xmlns:xlink="http://www.w3.org/1999/xlink">
<g id="graph0" class="graph" transform="scale(1 1) rotate(0) translate(4 544)">
<title>G</title>
<polygon fill="white" stroke="none" points="-4,4 -4,-544 1186.08,-544 1186.08,4 -4,4"/>
<!-- resource_account -->
<g id="node1" class="node">
<title>resource_account</title>
<ellipse fill="none" stroke="black" cx="575" cy="-522" rx="75.41" ry="18"/>
<text text-anchor="middle" x="575" y="-516.95" font-family="Times,serif" font-size="14.00">resource_account</text>
</g>
<!-- bcs -->
<g id="node2" class="node">
<title>bcs</title>
<ellipse fill="none" stroke="black" cx="431" cy="-162" rx="27" ry="18"/>
<text text-anchor="middle" x="431" y="-156.95" font-family="Times,serif" font-size="14.00">bcs</text>
</g>
<!-- resource_account&#45;&gt;bcs -->
<g id="edge1" class="edge">
<title>resource_account&#45;&gt;bcs</title>
<path fill="none" stroke="black" d="M514.26,-511.1C412.1,-493.08 212.95,-451.58 172,-396 125.45,-332.83 165.74,-288.84 259,-216 298.56,-185.1 356.2,-172.11 393.65,-166.72"/>
<polygon fill="black" stroke="black" points="393.66,-170.12 403.11,-165.34 392.74,-163.18 393.66,-170.12"/>
</g>
<!-- account -->
<g id="node3" class="node">
<title>account</title>
<ellipse fill="none" stroke="black" cx="575" cy="-450" rx="39.58" ry="18"/>
<text text-anchor="middle" x="575" y="-444.95" font-family="Times,serif" font-size="14.00">account</text>
</g>
<!-- resource_account&#45;&gt;account -->
<g id="edge2" class="edge">
<title>resource_account&#45;&gt;account</title>
<path fill="none" stroke="black" d="M575,-503.7C575,-496.24 575,-487.32 575,-478.97"/>
<polygon fill="black" stroke="black" points="578.5,-479.1 575,-469.1 571.5,-479.1 578.5,-479.1"/>
</g>
<!-- timestamp -->
<g id="node4" class="node">
<title>timestamp</title>
<ellipse fill="none" stroke="black" cx="1066" cy="-378" rx="50.33" ry="18"/>
<text text-anchor="middle" x="1066" y="-372.95" font-family="Times,serif" font-size="14.00">timestamp</text>
</g>
<!-- resource_account&#45;&gt;timestamp -->
<g id="edge3" class="edge">
<title>resource_account&#45;&gt;timestamp</title>
<path fill="none" stroke="black" d="M621.63,-507.51C714.64,-480.62 922.38,-420.54 1017.16,-393.12"/>
<polygon fill="black" stroke="black" points="1017.97,-396.24 1026.6,-390.1 1016.03,-389.52 1017.97,-396.24"/>
</g>
<!-- account&#45;&gt;bcs -->
<g id="edge8" class="edge">
<title>account&#45;&gt;bcs</title>
<path fill="none" stroke="black" d="M535.86,-446.17C470.95,-440.67 345.07,-426.31 314,-396 255.78,-339.21 234.04,-282.4 281,-216 306.18,-180.39 357.37,-168.55 392.9,-164.7"/>
<polygon fill="black" stroke="black" points="393.19,-168.1 402.83,-163.71 392.56,-161.12 393.19,-168.1"/>
</g>
<!-- vector -->
<g id="node5" class="node">
<title>vector</title>
<ellipse fill="none" stroke="black" cx="124" cy="-18" rx="33.95" ry="18"/>
<text text-anchor="middle" x="124" y="-12.95" font-family="Times,serif" font-size="14.00">vector</text>
</g>
<!-- account&#45;&gt;vector -->
<g id="edge4" class="edge">
<title>account&#45;&gt;vector</title>
<path fill="none" stroke="black" d="M535.49,-446.99C439.03,-441.69 193.89,-425.62 118,-396 56.81,-372.12 0,-372.69 0,-307 0,-307 0,-307 0,-161 0,-105.03 55.33,-60.47 92.07,-37.06"/>
<polygon fill="black" stroke="black" points="93.3,-39.79 99.97,-31.56 89.62,-33.84 93.3,-39.79"/>
</g>
<!-- option -->
<g id="node6" class="node">
<title>option</title>
<ellipse fill="none" stroke="black" cx="186" cy="-90" rx="34.46" ry="18"/>
<text text-anchor="middle" x="186" y="-84.95" font-family="Times,serif" font-size="14.00">option</text>
</g>
<!-- account&#45;&gt;option -->
<g id="edge5" class="edge">
<title>account&#45;&gt;option</title>
<path fill="none" stroke="black" d="M535.36,-449.04C476.32,-447.58 363.23,-438.82 279,-396 228,-370.07 186,-364.21 186,-307 186,-307 186,-307 186,-233 186,-193.57 186,-147.97 186,-119.31"/>
<polygon fill="black" stroke="black" points="189.5,-119.49 186,-109.49 182.5,-119.49 189.5,-119.49"/>
</g>
<!-- signer -->
<g id="node7" class="node">
<title>signer</title>
<ellipse fill="none" stroke="black" cx="1143" cy="-90" rx="33.44" ry="18"/>
<text text-anchor="middle" x="1143" y="-84.95" font-family="Times,serif" font-size="14.00">signer</text>
</g>
<!-- account&#45;&gt;signer -->
<g id="edge6" class="edge">
<title>account&#45;&gt;signer</title>
<path fill="none" stroke="black" d="M614.65,-447.78C737.76,-443.67 1107.79,-428.68 1150,-396 1183.24,-370.27 1182,-349.03 1182,-307 1182,-307 1182,-307 1182,-233 1182,-191.51 1166.33,-145.57 1154.86,-117.48"/>
<polygon fill="black" stroke="black" points="1157.82,-116.5 1150.71,-108.64 1151.37,-119.22 1157.82,-116.5"/>
</g>
<!-- error -->
<g id="node8" class="node">
<title>error</title>
<ellipse fill="none" stroke="black" cx="738" cy="-90" rx="28.83" ry="18"/>
<text text-anchor="middle" x="738" y="-84.95" font-family="Times,serif" font-size="14.00">error</text>
</g>
<!-- account&#45;&gt;error -->
<g id="edge7" class="edge">
<title>account&#45;&gt;error</title>
<path fill="none" stroke="black" d="M614.7,-448.19C735.23,-445.31 1090.78,-433.68 1125,-396 1222.26,-288.92 1042.65,-219.09 919,-144 874.42,-116.93 815.25,-103.03 776.9,-96.39"/>
<polygon fill="black" stroke="black" points="777.62,-92.79 767.18,-94.63 776.49,-99.7 777.62,-92.79"/>
</g>
<!-- type_info -->
<g id="node9" class="node">
<title>type_info</title>
<ellipse fill="none" stroke="black" cx="562" cy="-234" rx="46.23" ry="18"/>
<text text-anchor="middle" x="562" y="-228.95" font-family="Times,serif" font-size="14.00">type_info</text>
</g>
<!-- account&#45;&gt;type_info -->
<g id="edge9" class="edge">
<title>account&#45;&gt;type_info</title>
<path fill="none" stroke="black" d="M573.96,-431.85C571.72,-394.99 566.43,-307.92 563.7,-262.96"/>
<polygon fill="black" stroke="black" points="567.15,-263 563.05,-253.23 560.16,-263.43 567.15,-263"/>
</g>
<!-- table -->
<g id="node10" class="node">
<title>table</title>
<ellipse fill="none" stroke="black" cx="831" cy="-378" rx="28.83" ry="18"/>
<text text-anchor="middle" x="831" y="-372.95" font-family="Times,serif" font-size="14.00">table</text>
</g>
<!-- account&#45;&gt;table -->
<g id="edge10" class="edge">
<title>account&#45;&gt;table</title>
<path fill="none" stroke="black" d="M610.45,-441.69C653.06,-432.56 726.49,-415.72 788,-396 791.11,-395 794.32,-393.89 797.51,-392.73"/>
<polygon fill="black" stroke="black" points="798.44,-395.74 806.55,-388.92 795.96,-389.2 798.44,-395.74"/>
</g>
<!-- system_addresses -->
<g id="node11" class="node">
<title>system_addresses</title>
<ellipse fill="none" stroke="black" cx="882" cy="-306" rx="76.94" ry="18"/>
<text text-anchor="middle" x="882" y="-300.95" font-family="Times,serif" font-size="14.00">system_addresses</text>
</g>
<!-- account&#45;&gt;system_addresses -->
<g id="edge11" class="edge">
<title>account&#45;&gt;system_addresses</title>
<path fill="none" stroke="black" d="M612.19,-443.33C650.07,-436.38 709.55,-422.17 755,-396 775.16,-384.39 774.45,-374.04 793,-360 808.32,-348.41 826.35,-337.26 842.17,-328.21"/>
<polygon fill="black" stroke="black" points="843.68,-330.81 850.68,-322.85 840.25,-324.71 843.68,-330.81"/>
</g>
<!-- hash -->
<g id="node12" class="node">
<title>hash</title>
<ellipse fill="none" stroke="black" cx="318" cy="-234" rx="27.81" ry="18"/>
<text text-anchor="middle" x="318" y="-228.95" font-family="Times,serif" font-size="14.00">hash</text>
</g>
<!-- account&#45;&gt;hash -->
<g id="edge12" class="edge">
<title>account&#45;&gt;hash</title>
<path fill="none" stroke="black" d="M536.47,-445.69C476.31,-439.69 364.22,-424.87 338,-396 305.03,-359.68 307.66,-298.27 312.71,-262.71"/>
<polygon fill="black" stroke="black" points="316.28,-263.57 314.4,-253.14 309.37,-262.47 316.28,-263.57"/>
</g>
<!-- ed25519 -->
<g id="node13" class="node">
<title>ed25519</title>
<ellipse fill="none" stroke="black" cx="485" cy="-306" rx="42.65" ry="18"/>
<text text-anchor="middle" x="485" y="-300.95" font-family="Times,serif" font-size="14.00">ed25519</text>
</g>
<!-- account&#45;&gt;ed25519 -->
<g id="edge13" class="edge">
<title>account&#45;&gt;ed25519</title>
<path fill="none" stroke="black" d="M564.5,-432.43C549,-407.98 519.86,-362 501.49,-333.02"/>
<polygon fill="black" stroke="black" points="504.02,-331.47 495.71,-324.9 498.11,-335.22 504.02,-331.47"/>
</g>
<!-- multi_ed25519 -->
<g id="node14" class="node">
<title>multi_ed25519</title>
<ellipse fill="none" stroke="black" cx="414" cy="-378" rx="67.22" ry="18"/>
<text text-anchor="middle" x="414" y="-372.95" font-family="Times,serif" font-size="14.00">multi_ed25519</text>
</g>
<!-- account&#45;&gt;multi_ed25519 -->
<g id="edge14" class="edge">
<title>account&#45;&gt;multi_ed25519</title>
<path fill="none" stroke="black" d="M546.96,-436.81C522.48,-426.17 486.55,-410.55 458.21,-398.22"/>
<polygon fill="black" stroke="black" points="459.72,-394.63 449.15,-393.85 456.93,-401.04 459.72,-394.63"/>
</g>
<!-- guid -->
<g id="node15" class="node">
<title>guid</title>
<ellipse fill="none" stroke="black" cx="827" cy="-162" rx="27.3" ry="18"/>
<text text-anchor="middle" x="827" y="-156.95" font-family="Times,serif" font-size="14.00">guid</text>
</g>
<!-- account&#45;&gt;guid -->
<g id="edge15" class="edge">
<title>account&#45;&gt;guid</title>
<path fill="none" stroke="black" d="M587.81,-432.66C602.43,-414.34 627.36,-384.06 651,-360 701.75,-308.34 726.58,-307.58 773,-252 789.32,-232.45 804.04,-207.46 813.97,-188.94"/>
<polygon fill="black" stroke="black" points="817.43,-190.87 818.97,-180.39 811.23,-187.62 817.43,-190.87"/>
</g>
<!-- from_bcs -->
<g id="node16" class="node">
<title>from_bcs</title>
<ellipse fill="none" stroke="black" cx="74" cy="-306" rx="46.23" ry="18"/>
<text text-anchor="middle" x="74" y="-300.95" font-family="Times,serif" font-size="14.00">from_bcs</text>
</g>
<!-- account&#45;&gt;from_bcs -->
<g id="edge16" class="edge">
<title>account&#45;&gt;from_bcs</title>
<path fill="none" stroke="black" d="M535.77,-446.82C447.56,-441.45 236.26,-425.79 172,-396 140.44,-381.37 111.93,-352.92 93.91,-332.11"/>
<polygon fill="black" stroke="black" points="95.97,-330.12 86.85,-324.73 90.61,-334.63 95.97,-330.12"/>
</g>
<!-- event -->
<g id="node17" class="node">
<title>event</title>
<ellipse fill="none" stroke="black" cx="733" cy="-234" rx="30.88" ry="18"/>
<text text-anchor="middle" x="733" y="-228.95" font-family="Times,serif" font-size="14.00">event</text>
</g>
<!-- account&#45;&gt;event -->
<g id="edge17" class="edge">
<title>account&#45;&gt;event</title>
<path fill="none" stroke="black" d="M581.54,-431.8C588.98,-413.26 602.18,-383.28 618,-360 625.53,-348.93 680.25,-290.66 711.42,-257.73"/>
<polygon fill="black" stroke="black" points="713.45,-260.61 717.79,-250.94 708.37,-255.8 713.45,-260.61"/>
</g>
<!-- create_signer -->
<g id="node18" class="node">
<title>create_signer</title>
<ellipse fill="none" stroke="black" cx="938" cy="-378" rx="60.05" ry="18"/>
<text text-anchor="middle" x="938" y="-372.95" font-family="Times,serif" font-size="14.00">create_signer</text>
</g>
<!-- account&#45;&gt;create_signer -->
<g id="edge18" class="edge">
<title>account&#45;&gt;create_signer</title>
<path fill="none" stroke="black" d="M611.81,-443.13C667.63,-434.06 776.93,-415.62 869,-396 873.6,-395.02 878.37,-393.95 883.14,-392.85"/>
<polygon fill="black" stroke="black" points="883.63,-396.09 892.55,-390.39 882.02,-389.28 883.63,-396.09"/>
</g>
<!-- chain_id -->
<g id="node19" class="node">
<title>chain_id</title>
<ellipse fill="none" stroke="black" cx="703" cy="-378" rx="42.65" ry="18"/>
<text text-anchor="middle" x="703" y="-372.95" font-family="Times,serif" font-size="14.00">chain_id</text>
</g>
<!-- account&#45;&gt;chain_id -->
<g id="edge19" class="edge">
<title>account&#45;&gt;chain_id</title>
<path fill="none" stroke="black" d="M599.68,-435.5C619.21,-424.82 646.71,-409.78 668.44,-397.9"/>
<polygon fill="black" stroke="black" points="669.86,-400.56 676.96,-392.69 666.51,-394.42 669.86,-400.56"/>
</g>
<!-- timestamp&#45;&gt;error -->
<g id="edge20" class="edge">
<title>timestamp&#45;&gt;error</title>
<path fill="none" stroke="black" d="M1057.26,-359.98C1034.6,-317.45 969.75,-205.56 885,-144 852.21,-120.18 807.63,-106.11 776.19,-98.53"/>
<polygon fill="black" stroke="black" points="777.19,-94.94 766.66,-96.11 775.62,-101.76 777.19,-94.94"/>
</g>
<!-- timestamp&#45;&gt;system_addresses -->
<g id="edge21" class="edge">
<title>timestamp&#45;&gt;system_addresses</title>
<path fill="none" stroke="black" d="M1032.68,-364.32C1004.36,-353.55 963.32,-337.94 931.22,-325.72"/>
<polygon fill="black" stroke="black" points="932.73,-322.17 922.14,-321.89 930.24,-328.72 932.73,-322.17"/>
</g>
<!-- option&#45;&gt;vector -->
<g id="edge22" class="edge">
<title>option&#45;&gt;vector</title>
<path fill="none" stroke="black" d="M171.93,-73.12C164,-64.17 153.95,-52.81 145.09,-42.81"/>
<polygon fill="black" stroke="black" points="148.26,-40.99 139.01,-35.82 143.02,-45.63 148.26,-40.99"/>
</g>
<!-- type_info&#45;&gt;bcs -->
<g id="edge26" class="edge">
<title>type_info&#45;&gt;bcs</title>
<path fill="none" stroke="black" d="M535.49,-218.83C513.97,-207.33 483.61,-191.11 461.16,-179.12"/>
<polygon fill="black" stroke="black" points="462.93,-175.56 452.46,-173.93 459.63,-181.73 462.93,-175.56"/>
</g>
<!-- type_info&#45;&gt;error -->
<g id="edge24" class="edge">
<title>type_info&#45;&gt;error</title>
<path fill="none" stroke="black" d="M569.93,-215.86C579.74,-196.25 598.12,-164.24 622,-144 645.39,-124.17 677.43,-110.28 701.91,-101.71"/>
<polygon fill="black" stroke="black" points="702.86,-104.75 711.23,-98.26 700.63,-98.12 702.86,-104.75"/>
</g>
<!-- string -->
<g id="node20" class="node">
<title>string</title>
<ellipse fill="none" stroke="black" cx="125" cy="-162" rx="31.9" ry="18"/>
<text text-anchor="middle" x="125" y="-156.95" font-family="Times,serif" font-size="14.00">string</text>
</g>
<!-- type_info&#45;&gt;string -->
<g id="edge23" class="edge">
<title>type_info&#45;&gt;string</title>
<path fill="none" stroke="black" d="M519.7,-226.22C435.84,-212.79 249.45,-182.93 166.36,-169.63"/>
<polygon fill="black" stroke="black" points="167,-166.02 156.58,-167.9 165.9,-172.94 167,-166.02"/>
</g>
<!-- features -->
<g id="node21" class="node">
<title>features</title>
<ellipse fill="none" stroke="black" cx="704" cy="-162" rx="40.09" ry="18"/>
<text text-anchor="middle" x="704" y="-156.95" font-family="Times,serif" font-size="14.00">features</text>
</g>
<!-- type_info&#45;&gt;features -->
<g id="edge25" class="edge">
<title>type_info&#45;&gt;features</title>
<path fill="none" stroke="black" d="M589.72,-219.34C612.13,-208.29 643.86,-192.65 668.2,-180.65"/>
<polygon fill="black" stroke="black" points="669.37,-183.48 676.79,-175.92 666.28,-177.2 669.37,-183.48"/>
</g>
<!-- system_addresses&#45;&gt;signer -->
<g id="edge27" class="edge">
<title>system_addresses&#45;&gt;signer</title>
<path fill="none" stroke="black" d="M902.48,-288.21C949.4,-249.74 1064.61,-155.27 1116.69,-112.57"/>
<polygon fill="black" stroke="black" points="1118.55,-114.75 1124.07,-105.7 1114.11,-109.34 1118.55,-114.75"/>
</g>
<!-- system_addresses&#45;&gt;error -->
<g id="edge28" class="edge">
<title>system_addresses&#45;&gt;error</title>
<path fill="none" stroke="black" d="M885.15,-287.7C889.93,-255.82 895.34,-187.11 863,-144 842.49,-116.66 805.12,-103.29 776.57,-96.83"/>
<polygon fill="black" stroke="black" points="777.61,-93.27 767.11,-94.68 776.2,-100.13 777.61,-93.27"/>
</g>
<!-- ed25519&#45;&gt;bcs -->
<g id="edge31" class="edge">
<title>ed25519&#45;&gt;bcs</title>
<path fill="none" stroke="black" d="M478.49,-287.87C469.23,-263.54 452.19,-218.73 441.24,-189.93"/>
<polygon fill="black" stroke="black" points="444.2,-188.85 437.37,-180.75 437.65,-191.34 444.2,-188.85"/>
</g>
<!-- ed25519&#45;&gt;option -->
<g id="edge29" class="edge">
<title>ed25519&#45;&gt;option</title>
<path fill="none" stroke="black" d="M488.97,-287.78C495.4,-255.1 503.92,-183.8 467,-144 435.71,-110.27 302.45,-97.6 231.26,-93.18"/>
<polygon fill="black" stroke="black" points="231.58,-89.63 221.39,-92.53 231.17,-96.62 231.58,-89.63"/>
</g>
<!-- ed25519&#45;&gt;error -->
<g id="edge30" class="edge">
<title>ed25519&#45;&gt;error</title>
<path fill="none" stroke="black" d="M523.96,-298.34C553.18,-291.43 592.24,-277.86 617,-252 652.19,-215.25 623.38,-183.87 655,-144 668.14,-127.43 687.97,-114.49 704.95,-105.55"/>
<polygon fill="black" stroke="black" points="706.16,-108.36 713.54,-100.75 703.03,-102.1 706.16,-108.36"/>
</g>
<!-- ed25519&#45;&gt;type_info -->
<g id="edge32" class="edge">
<title>ed25519&#45;&gt;type_info</title>
<path fill="none" stroke="black" d="M502.47,-289.12C512.44,-280.05 525.13,-268.52 536.23,-258.43"/>
<polygon fill="black" stroke="black" points="538.29,-261.38 543.33,-252.06 533.58,-256.2 538.29,-261.38"/>
</g>
<!-- ed25519&#45;&gt;hash -->
<g id="edge33" class="edge">
<title>ed25519&#45;&gt;hash</title>
<path fill="none" stroke="black" d="M455.53,-292.65C426.3,-280.39 381.58,-261.65 351.13,-248.89"/>
<polygon fill="black" stroke="black" points="352.58,-245.28 342,-244.64 349.87,-251.74 352.58,-245.28"/>
</g>
<!-- multi_ed25519&#45;&gt;bcs -->
<g id="edge37" class="edge">
<title>multi_ed25519&#45;&gt;bcs</title>
<path fill="none" stroke="black" d="M415.36,-359.85C418.29,-322.99 425.21,-235.92 428.78,-190.96"/>
<polygon fill="black" stroke="black" points="432.33,-191.48 429.63,-181.23 425.35,-190.92 432.33,-191.48"/>
</g>
<!-- multi_ed25519&#45;&gt;option -->
<g id="edge34" class="edge">
<title>multi_ed25519&#45;&gt;option</title>
<path fill="none" stroke="black" d="M386.83,-361.19C371.36,-351.5 352.11,-338.25 337,-324 270.8,-261.55 220.12,-164.49 198.07,-117.83"/>
<polygon fill="black" stroke="black" points="200.84,-116.48 193.44,-108.89 194.49,-119.43 200.84,-116.48"/>
</g>
<!-- multi_ed25519&#45;&gt;error -->
<g id="edge35" class="edge">
<title>multi_ed25519&#45;&gt;error</title>
<path fill="none" stroke="black" d="M405.3,-359.85C385.17,-317.49 341.11,-206.86 395,-144 433.63,-98.95 615.9,-91.85 697.88,-90.97"/>
<polygon fill="black" stroke="black" points="697.78,-94.46 707.76,-90.88 697.73,-87.46 697.78,-94.46"/>
</g>
<!-- multi_ed25519&#45;&gt;hash -->
<g id="edge38" class="edge">
<title>multi_ed25519&#45;&gt;hash</title>
<path fill="none" stroke="black" d="M394.92,-360.36C384.35,-350.5 371.48,-337.35 362,-324 348.23,-304.62 336.53,-280.28 328.66,-261.96"/>
<polygon fill="black" stroke="black" points="331.57,-260.83 324.48,-252.95 325.1,-263.53 331.57,-260.83"/>
</g>
<!-- multi_ed25519&#45;&gt;ed25519 -->
<g id="edge39" class="edge">
<title>multi_ed25519&#45;&gt;ed25519</title>
<path fill="none" stroke="black" d="M430.83,-360.41C439.89,-351.48 451.21,-340.31 461.17,-330.5"/>
<polygon fill="black" stroke="black" points="463.12,-333.5 467.78,-323.99 458.21,-328.52 463.12,-333.5"/>
</g>
<!-- multi_ed25519&#45;&gt;features -->
<g id="edge36" class="edge">
<title>multi_ed25519&#45;&gt;features</title>
<path fill="none" stroke="black" d="M453.3,-362.95C501.95,-343.97 585.1,-306.17 640,-252 659.27,-232.99 676.88,-207.64 688.73,-188.85"/>
<polygon fill="black" stroke="black" points="692.1,-191.05 694.38,-180.7 686.15,-187.37 692.1,-191.05"/>
</g>
<!-- from_bcs&#45;&gt;string -->
<g id="edge40" class="edge">
<title>from_bcs&#45;&gt;string</title>
<path fill="none" stroke="black" d="M80.15,-287.87C88.89,-263.54 104.98,-218.73 115.33,-189.93"/>
<polygon fill="black" stroke="black" points="118.9,-191.34 118.98,-180.75 112.31,-188.98 118.9,-191.34"/>
</g>
<!-- event&#45;&gt;bcs -->
<g id="edge43" class="edge">
<title>event&#45;&gt;bcs</title>
<path fill="none" stroke="black" d="M704.59,-226.41C649.3,-213.6 527.35,-185.33 466.7,-171.27"/>
<polygon fill="black" stroke="black" points="467.65,-167.67 457.12,-168.82 466.07,-174.49 467.65,-167.67"/>
</g>
<!-- event&#45;&gt;error -->
<g id="edge41" class="edge">
<title>event&#45;&gt;error</title>
<path fill="none" stroke="black" d="M741.1,-216.26C745.58,-206.05 750.71,-192.58 753,-180 756.78,-159.29 752.46,-135.81 747.5,-118.16"/>
<polygon fill="black" stroke="black" points="750.59,-117.29 744.32,-108.75 743.9,-119.34 750.59,-117.29"/>
</g>
<!-- event&#45;&gt;guid -->
<g id="edge44" class="edge">
<title>event&#45;&gt;guid</title>
<path fill="none" stroke="black" d="M751.57,-219.17C765.62,-208.71 785.08,-194.21 800.72,-182.57"/>
<polygon fill="black" stroke="black" points="802.49,-184.87 808.42,-176.09 798.31,-179.26 802.49,-184.87"/>
</g>
<!-- event&#45;&gt;features -->
<g id="edge42" class="edge">
<title>event&#45;&gt;features</title>
<path fill="none" stroke="black" d="M725.98,-216.05C722.7,-208.14 718.72,-198.54 715.06,-189.69"/>
<polygon fill="black" stroke="black" points="718.02,-188.69 710.96,-180.79 711.55,-191.37 718.02,-188.69"/>
</g>
<!-- chain_id&#45;&gt;system_addresses -->
<g id="edge45" class="edge">
<title>chain_id&#45;&gt;system_addresses</title>
<path fill="none" stroke="black" d="M733.36,-365.13C760.82,-354.39 801.7,-338.4 833.65,-325.91"/>
<polygon fill="black" stroke="black" points="834.64,-328.89 842.68,-321.99 832.09,-322.37 834.64,-328.89"/>
</g>
<!-- string&#45;&gt;vector -->
<g id="edge46" class="edge">
<title>string&#45;&gt;vector</title>
<path fill="none" stroke="black" d="M124.88,-143.59C124.71,-119.5 124.4,-75.75 124.2,-47.03"/>
<polygon fill="black" stroke="black" points="127.69,-47.09 124.12,-37.11 120.69,-47.14 127.69,-47.09"/>
</g>
<!-- string&#45;&gt;option -->
<g id="edge47" class="edge">
<title>string&#45;&gt;option</title>
<path fill="none" stroke="black" d="M138.54,-145.46C146.44,-136.4 156.56,-124.79 165.42,-114.61"/>
<polygon fill="black" stroke="black" points="168.57,-117.33 172.5,-107.49 163.29,-112.73 168.57,-117.33"/>
</g>
<!-- features&#45;&gt;signer -->
<g id="edge48" class="edge">
<title>features&#45;&gt;signer</title>
<path fill="none" stroke="black" d="M739.91,-153.62C755.58,-150.49 774.17,-146.91 791,-144 902.1,-124.79 1033.63,-106.04 1100.04,-96.85"/>
<polygon fill="black" stroke="black" points="1100.46,-100.19 1109.89,-95.36 1099.51,-93.26 1100.46,-100.19"/>
</g>
<!-- features&#45;&gt;error -->
<g id="edge49" class="edge">
<title>features&#45;&gt;error</title>
<path fill="none" stroke="black" d="M712.23,-144.05C716.17,-135.94 720.98,-126.04 725.37,-117.01"/>
<polygon fill="black" stroke="black" points="728.86,-118.83 730.08,-108.31 722.56,-115.77 728.86,-118.83"/>
</g>
</g>
</svg>
