<?xml version="1.0" encoding="UTF-8" standalone="no"?>
<!DOCTYPE svg PUBLIC "-//W3C//DTD SVG 1.1//EN"
 "http://www.w3.org/Graphics/SVG/1.1/DTD/svg11.dtd">
<!-- Generated by graphviz version 8.0.2 (20230410.1723)
 -->
<!-- Title: G Pages: 1 -->
<svg width="266pt" height="332pt"
 viewBox="0.00 0.00 266.24 332.00" xmlns="http://www.w3.org/2000/svg" xmlns:xlink="http://www.w3.org/1999/xlink">
<g id="graph0" class="graph" transform="scale(1 1) rotate(0) translate(4 328)">
<title>G</title>
<polygon fill="white" stroke="none" points="-4,4 -4,-328 262.24,-328 262.24,4 -4,4"/>
<!-- resource_account -->
<g id="node1" class="node">
<title>resource_account</title>
<ellipse fill="none" stroke="black" cx="72.14" cy="-18" rx="72.29" ry="18"/>
<text text-anchor="middle" x="72.14" y="-14.3" font-family="Times,serif" font-size="14.00">resource_account</text>
</g>
<!-- incentives -->
<g id="node2" class="node">
<title>incentives</title>
<ellipse fill="none" stroke="black" cx="117.14" cy="-90" rx="46.29" ry="18"/>
<text text-anchor="middle" x="117.14" y="-86.3" font-family="Times,serif" font-size="14.00">incentives</text>
</g>
<!-- incentives&#45;&gt;resource_account -->
<g id="edge1" class="edge">
<title>incentives&#45;&gt;resource_account</title>
<path fill="none" stroke="black" d="M106.25,-72.05C101.13,-64.09 94.91,-54.41 89.19,-45.51"/>
<polygon fill="black" stroke="black" points="91.6,-43.79 83.25,-37.28 85.71,-47.58 91.6,-43.79"/>
</g>
<!-- market -->
<g id="node3" class="node">
<title>market</title>
<ellipse fill="none" stroke="black" cx="85.14" cy="-306" rx="36" ry="18"/>
<text text-anchor="middle" x="85.14" y="-302.3" font-family="Times,serif" font-size="14.00">market</text>
</g>
<!-- market&#45;&gt;resource_account -->
<g id="edge2" class="edge">
<title>market&#45;&gt;resource_account</title>
<path fill="none" stroke="black" d="M80.61,-287.93C78.04,-277.61 74.97,-264.13 73.14,-252 61.21,-172.74 54.68,-151.8 62.14,-72 62.91,-63.76 64.34,-54.9 65.89,-46.82"/>
<polygon fill="black" stroke="black" points="69.51,-47.57 68.08,-37.07 62.65,-46.17 69.51,-47.57"/>
</g>
<!-- market&#45;&gt;incentives -->
<g id="edge4" class="edge">
<title>market&#45;&gt;incentives</title>
<path fill="none" stroke="black" d="M82.16,-287.67C77.65,-257.72 71.05,-194.62 85.14,-144 87.8,-134.47 92.68,-124.95 97.84,-116.66"/>
<polygon fill="black" stroke="black" points="101.27,-118.82 103.91,-108.56 95.45,-114.93 101.27,-118.82"/>
</g>
<!-- registry -->
<g id="node4" class="node">
<title>registry</title>
<ellipse fill="none" stroke="black" cx="132.14" cy="-162" rx="37.89" ry="18"/>
<text text-anchor="middle" x="132.14" y="-158.3" font-family="Times,serif" font-size="14.00">registry</text>
</g>
<!-- market&#45;&gt;registry -->
<g id="edge7" class="edge">
<title>market&#45;&gt;registry</title>
<path fill="none" stroke="black" d="M90.81,-287.87C98.82,-263.67 113.54,-219.21 123.08,-190.39"/>
<polygon fill="black" stroke="black" points="126.63,-191.78 126.45,-181.19 119.99,-189.58 126.63,-191.78"/>
</g>
<!-- user -->
<g id="node6" class="node">
<title>user</title>
<ellipse fill="none" stroke="black" cx="159.14" cy="-234" rx="27" ry="18"/>
<text text-anchor="middle" x="159.14" y="-230.3" font-family="Times,serif" font-size="14.00">user</text>
</g>
<!-- market&#45;&gt;user -->
<g id="edge8" class="edge">
<title>market&#45;&gt;user</title>
<path fill="none" stroke="black" d="M101.2,-289.81C111.46,-280.1 124.93,-267.37 136.3,-256.61"/>
<polygon fill="black" stroke="black" points="138.27,-259.62 143.13,-250.21 133.46,-254.53 138.27,-259.62"/>
</g>
<!-- registry&#45;&gt;incentives -->
<g id="edge3" class="edge">
<title>registry&#45;&gt;incentives</title>
<path fill="none" stroke="black" d="M128.44,-143.7C126.82,-136.15 124.88,-127.12 123.08,-118.68"/>
<polygon fill="black" stroke="black" points="126.33,-118.15 120.81,-109.1 119.48,-119.62 126.33,-118.15"/>
</g>
<!-- govern -->
<g id="node5" class="node">
<title>govern</title>
<ellipse fill="none" stroke="black" cx="223.14" cy="-162" rx="35.19" ry="18"/>
<text text-anchor="middle" x="223.14" y="-158.3" font-family="Times,serif" font-size="14.00">govern</text>
</g>
<!-- govern&#45;&gt;incentives -->
<g id="edge5" class="edge">
<title>govern&#45;&gt;incentives</title>
<path fill="none" stroke="black" d="M202.2,-147.17C187.03,-137.15 166.25,-123.43 149.02,-112.05"/>
<polygon fill="black" stroke="black" points="151.15,-108.6 140.88,-106.01 147.29,-114.44 151.15,-108.6"/>
</g>
<!-- user&#45;&gt;registry -->
<g id="edge6" class="edge">
<title>user&#45;&gt;registry</title>
<path fill="none" stroke="black" d="M152.61,-216.05C149.59,-208.23 145.93,-198.75 142.55,-189.98"/>
<polygon fill="black" stroke="black" points="145.48,-188.86 138.62,-180.79 138.95,-191.38 145.48,-188.86"/>
</g>
</g>
</svg>
