<?xml version="1.0" encoding="UTF-8" standalone="no"?>
<!DOCTYPE svg PUBLIC "-//W3C//DTD SVG 1.1//EN"
 "http://www.w3.org/Graphics/SVG/1.1/DTD/svg11.dtd">
<!-- Generated by graphviz version 7.1.0 (20230121.1956)
 -->
<!-- Title: G Pages: 1 -->
<svg width="1021pt" height="548pt"
 viewBox="0.00 0.00 1021.19 548.00" xmlns="http://www.w3.org/2000/svg" xmlns:xlink="http://www.w3.org/1999/xlink">
<g id="graph0" class="graph" transform="scale(1 1) rotate(0) translate(4 544)">
<title>G</title>
<polygon fill="white" stroke="none" points="-4,4 -4,-544 1017.19,-544 1017.19,4 -4,4"/>
<!-- resource_account -->
<g id="node1" class="node">
<title>resource_account</title>
<ellipse fill="none" stroke="black" cx="747.2" cy="-522" rx="72.29" ry="18"/>
<text text-anchor="middle" x="747.2" y="-518.3" font-family="Times,serif" font-size="14.00">resource_account</text>
</g>
<!-- bcs -->
<g id="node2" class="node">
<title>bcs</title>
<ellipse fill="none" stroke="black" cx="587.2" cy="-162" rx="27" ry="18"/>
<text text-anchor="middle" x="587.2" y="-158.3" font-family="Times,serif" font-size="14.00">bcs</text>
</g>
<!-- resource_account&#45;&gt;bcs -->
<g id="edge1" class="edge">
<title>resource_account&#45;&gt;bcs</title>
<path fill="none" stroke="black" d="M745.51,-503.73C741.07,-463.83 726.71,-362.92 689.2,-288 668.98,-247.63 633.78,-208.53 610.48,-185.12"/>
<polygon fill="black" stroke="black" points="613.14,-182.82 603.56,-178.29 608.22,-187.81 613.14,-182.82"/>
</g>
<!-- account -->
<g id="node3" class="node">
<title>account</title>
<ellipse fill="none" stroke="black" cx="539.2" cy="-450" rx="38.19" ry="18"/>
<text text-anchor="middle" x="539.2" y="-446.3" font-family="Times,serif" font-size="14.00">account</text>
</g>
<!-- resource_account&#45;&gt;account -->
<g id="edge2" class="edge">
<title>resource_account&#45;&gt;account</title>
<path fill="none" stroke="black" d="M705.6,-507C669.18,-494.75 616.55,-477.03 580.28,-464.83"/>
<polygon fill="black" stroke="black" points="581.62,-461.58 571.02,-461.71 579.38,-468.22 581.62,-461.58"/>
</g>
<!-- timestamp -->
<g id="node4" class="node">
<title>timestamp</title>
<ellipse fill="none" stroke="black" cx="911.2" cy="-234" rx="48.19" ry="18"/>
<text text-anchor="middle" x="911.2" y="-230.3" font-family="Times,serif" font-size="14.00">timestamp</text>
</g>
<!-- resource_account&#45;&gt;timestamp -->
<g id="edge3" class="edge">
<title>resource_account&#45;&gt;timestamp</title>
<path fill="none" stroke="black" d="M761.13,-503.92C779.85,-480.5 813.51,-436.67 837.2,-396 863.37,-351.06 887.25,-295.26 900.45,-262.54"/>
<polygon fill="black" stroke="black" points="903.64,-263.98 904.1,-253.39 897.14,-261.39 903.64,-263.98"/>
</g>
<!-- account&#45;&gt;bcs -->
<g id="edge8" class="edge">
<title>account&#45;&gt;bcs</title>
<path fill="none" stroke="black" d="M523.52,-433.38C514.81,-423.56 504.83,-410.11 500.2,-396 495.21,-380.8 495.56,-375.31 500.2,-360 505.77,-341.6 515.31,-341.05 524.2,-324 547.65,-279 567.6,-223.22 578.45,-190.52"/>
<polygon fill="black" stroke="black" points="581.65,-192.01 581.43,-181.41 574.99,-189.83 581.65,-192.01"/>
</g>
<!-- vector -->
<g id="node5" class="node">
<title>vector</title>
<ellipse fill="none" stroke="black" cx="199.2" cy="-18" rx="32.49" ry="18"/>
<text text-anchor="middle" x="199.2" y="-14.3" font-family="Times,serif" font-size="14.00">vector</text>
</g>
<!-- account&#45;&gt;vector -->
<g id="edge4" class="edge">
<title>account&#45;&gt;vector</title>
<path fill="none" stroke="black" d="M577.17,-446.91C613.22,-442.79 666.08,-430.75 695.2,-396 768.17,-308.91 722.35,-233.38 652.2,-144 622.04,-105.59 613.62,-92.29 569.2,-72 511.76,-45.77 327.85,-28.79 242.93,-22.16"/>
<polygon fill="black" stroke="black" points="243.38,-18.68 233.14,-21.41 242.84,-25.66 243.38,-18.68"/>
</g>
<!-- option -->
<g id="node6" class="node">
<title>option</title>
<ellipse fill="none" stroke="black" cx="199.2" cy="-90" rx="33.29" ry="18"/>
<text text-anchor="middle" x="199.2" y="-86.3" font-family="Times,serif" font-size="14.00">option</text>
</g>
<!-- account&#45;&gt;option -->
<g id="edge5" class="edge">
<title>account&#45;&gt;option</title>
<path fill="none" stroke="black" d="M500.85,-448.92C439.44,-447.43 316.49,-438.78 223.2,-396 166.97,-370.21 116.2,-368.86 116.2,-307 116.2,-307 116.2,-307 116.2,-233 116.2,-185.79 150.81,-140.34 175.33,-114.06"/>
<polygon fill="black" stroke="black" points="177.72,-116.63 182.14,-107 172.68,-111.77 177.72,-116.63"/>
</g>
<!-- signer -->
<g id="node7" class="node">
<title>signer</title>
<ellipse fill="none" stroke="black" cx="911.2" cy="-90" rx="32.49" ry="18"/>
<text text-anchor="middle" x="911.2" y="-86.3" font-family="Times,serif" font-size="14.00">signer</text>
</g>
<!-- account&#45;&gt;signer -->
<g id="edge6" class="edge">
<title>account&#45;&gt;signer</title>
<path fill="none" stroke="black" d="M576.71,-445.88C688.58,-435.53 1012.2,-397.78 1012.2,-307 1012.2,-307 1012.2,-307 1012.2,-233 1012.2,-192.55 1016.16,-177.3 993.2,-144 981.8,-127.47 963.4,-114.9 946.92,-106.15"/>
<polygon fill="black" stroke="black" points="948.85,-103.2 938.33,-101.87 945.72,-109.47 948.85,-103.2"/>
</g>
<!-- error -->
<g id="node8" class="node">
<title>error</title>
<ellipse fill="none" stroke="black" cx="532.2" cy="-90" rx="27.9" ry="18"/>
<text text-anchor="middle" x="532.2" y="-86.3" font-family="Times,serif" font-size="14.00">error</text>
</g>
<!-- account&#45;&gt;error -->
<g id="edge7" class="edge">
<title>account&#45;&gt;error</title>
<path fill="none" stroke="black" d="M575.53,-443.69C605.45,-437.41 646.77,-424.02 671.2,-396 703.17,-359.32 699.57,-335.54 689.2,-288 674.18,-219.22 670.49,-196.15 623.2,-144 607.52,-126.71 584.85,-113.49 566.06,-104.57"/>
<polygon fill="black" stroke="black" points="567.74,-101.49 557.19,-100.56 564.86,-107.87 567.74,-101.49"/>
</g>
<!-- type_info -->
<g id="node9" class="node">
<title>type_info</title>
<ellipse fill="none" stroke="black" cx="336.2" cy="-234" rx="44.39" ry="18"/>
<text text-anchor="middle" x="336.2" y="-230.3" font-family="Times,serif" font-size="14.00">type_info</text>
</g>
<!-- account&#45;&gt;type_info -->
<g id="edge9" class="edge">
<title>account&#45;&gt;type_info</title>
<path fill="none" stroke="black" d="M501.12,-447C435.61,-442.66 305.92,-429.92 278.2,-396 244.71,-355.03 285.88,-293.15 314.04,-259.28"/>
<polygon fill="black" stroke="black" points="316.39,-261.92 320.23,-252.05 311.07,-257.37 316.39,-261.92"/>
</g>
<!-- table -->
<g id="node10" class="node">
<title>table</title>
<ellipse fill="none" stroke="black" cx="615.2" cy="-378" rx="27.9" ry="18"/>
<text text-anchor="middle" x="615.2" y="-374.3" font-family="Times,serif" font-size="14.00">table</text>
</g>
<!-- account&#45;&gt;table -->
<g id="edge10" class="edge">
<title>account&#45;&gt;table</title>
<path fill="none" stroke="black" d="M556.06,-433.46C566.45,-423.9 579.92,-411.49 591.38,-400.93"/>
<polygon fill="black" stroke="black" points="593.57,-403.67 598.56,-394.33 588.83,-398.53 593.57,-403.67"/>
</g>
<!-- system_addresses -->
<g id="node11" class="node">
<title>system_addresses</title>
<ellipse fill="none" stroke="black" cx="911.2" cy="-162" rx="73.39" ry="18"/>
<text text-anchor="middle" x="911.2" y="-158.3" font-family="Times,serif" font-size="14.00">system_addresses</text>
</g>
<!-- account&#45;&gt;system_addresses -->
<g id="edge11" class="edge">
<title>account&#45;&gt;system_addresses</title>
<path fill="none" stroke="black" d="M576.94,-446C640.95,-440.17 767.02,-425.24 799.2,-396 861.1,-339.74 809.82,-286.91 854.2,-216 860.93,-205.24 870.4,-195.23 879.69,-186.88"/>
<polygon fill="black" stroke="black" points="881.96,-189.55 887.3,-180.39 877.42,-184.22 881.96,-189.55"/>
</g>
<!-- hash -->
<g id="node12" class="node">
<title>hash</title>
<ellipse fill="none" stroke="black" cx="171.2" cy="-234" rx="27" ry="18"/>
<text text-anchor="middle" x="171.2" y="-230.3" font-family="Times,serif" font-size="14.00">hash</text>
</g>
<!-- account&#45;&gt;hash -->
<g id="edge12" class="edge">
<title>account&#45;&gt;hash</title>
<path fill="none" stroke="black" d="M501.78,-445.73C435.32,-439.31 300.13,-423.24 262.2,-396 216.42,-363.13 190.64,-299.66 178.95,-262.99"/>
<polygon fill="black" stroke="black" points="182.34,-262.1 176.09,-253.55 175.64,-264.14 182.34,-262.1"/>
</g>
<!-- ed25519 -->
<g id="node13" class="node">
<title>ed25519</title>
<ellipse fill="none" stroke="black" cx="352.2" cy="-306" rx="40.89" ry="18"/>
<text text-anchor="middle" x="352.2" y="-302.3" font-family="Times,serif" font-size="14.00">ed25519</text>
</g>
<!-- account&#45;&gt;ed25519 -->
<g id="edge13" class="edge">
<title>account&#45;&gt;ed25519</title>
<path fill="none" stroke="black" d="M518.77,-434.48C504.22,-424.01 484.29,-409.42 467.2,-396 447.59,-380.6 443.8,-375.4 424.2,-360 410.54,-349.28 395.08,-337.81 381.99,-328.29"/>
<polygon fill="black" stroke="black" points="384.32,-325.65 374.16,-322.63 380.21,-331.33 384.32,-325.65"/>
</g>
<!-- multi_ed25519 -->
<g id="node14" class="node">
<title>multi_ed25519</title>
<ellipse fill="none" stroke="black" cx="351.2" cy="-378" rx="64.19" ry="18"/>
<text text-anchor="middle" x="351.2" y="-374.3" font-family="Times,serif" font-size="14.00">multi_ed25519</text>
</g>
<!-- account&#45;&gt;multi_ed25519 -->
<g id="edge14" class="edge">
<title>account&#45;&gt;multi_ed25519</title>
<path fill="none" stroke="black" d="M509.82,-438.06C480.25,-427.05 434.13,-409.88 399.23,-396.88"/>
<polygon fill="black" stroke="black" points="400.8,-393.73 390.21,-393.53 398.36,-400.29 400.8,-393.73"/>
</g>
<!-- guid -->
<g id="node15" class="node">
<title>guid</title>
<ellipse fill="none" stroke="black" cx="653.2" cy="-306" rx="27" ry="18"/>
<text text-anchor="middle" x="653.2" y="-302.3" font-family="Times,serif" font-size="14.00">guid</text>
</g>
<!-- account&#45;&gt;guid -->
<g id="edge15" class="edge">
<title>account&#45;&gt;guid</title>
<path fill="none" stroke="black" d="M574.65,-442.72C600.97,-436.01 635.14,-422.51 652.2,-396 663.7,-378.11 663.13,-353.73 660.13,-335.01"/>
<polygon fill="black" stroke="black" points="663.61,-334.56 658.27,-325.41 656.74,-335.89 663.61,-334.56"/>
</g>
<!-- from_bcs -->
<g id="node16" class="node">
<title>from_bcs</title>
<ellipse fill="none" stroke="black" cx="44.2" cy="-306" rx="44.39" ry="18"/>
<text text-anchor="middle" x="44.2" y="-302.3" font-family="Times,serif" font-size="14.00">from_bcs</text>
</g>
<!-- account&#45;&gt;from_bcs -->
<g id="edge16" class="edge">
<title>account&#45;&gt;from_bcs</title>
<path fill="none" stroke="black" d="M500.97,-448.44C407.16,-446.42 168.45,-437.26 102.2,-396 79.37,-381.79 63.73,-354.9 54.5,-334.38"/>
<polygon fill="black" stroke="black" points="57.84,-333.29 50.72,-325.44 51.39,-336.01 57.84,-333.29"/>
</g>
<!-- event -->
<g id="node17" class="node">
<title>event</title>
<ellipse fill="none" stroke="black" cx="539.2" cy="-378" rx="29.8" ry="18"/>
<text text-anchor="middle" x="539.2" y="-374.3" font-family="Times,serif" font-size="14.00">event</text>
</g>
<!-- account&#45;&gt;event -->
<g id="edge17" class="edge">
<title>account&#45;&gt;event</title>
<path fill="none" stroke="black" d="M539.2,-431.7C539.2,-424.41 539.2,-415.73 539.2,-407.54"/>
<polygon fill="black" stroke="black" points="542.7,-407.62 539.2,-397.62 535.7,-407.62 542.7,-407.62"/>
</g>
<!-- timestamp&#45;&gt;error -->
<g id="edge18" class="edge">
<title>timestamp&#45;&gt;error</title>
<path fill="none" stroke="black" d="M888.1,-217.87C857.33,-198.31 800.65,-164.36 748.2,-144 688.02,-120.65 614.33,-105.19 570.43,-97.28"/>
<polygon fill="black" stroke="black" points="571.09,-93.84 560.63,-95.56 569.87,-100.74 571.09,-93.84"/>
</g>
<!-- timestamp&#45;&gt;system_addresses -->
<g id="edge19" class="edge">
<title>timestamp&#45;&gt;system_addresses</title>
<path fill="none" stroke="black" d="M911.2,-215.7C911.2,-208.41 911.2,-199.73 911.2,-191.54"/>
<polygon fill="black" stroke="black" points="914.7,-191.62 911.2,-181.62 907.7,-191.62 914.7,-191.62"/>
</g>
<!-- option&#45;&gt;vector -->
<g id="edge20" class="edge">
<title>option&#45;&gt;vector</title>
<path fill="none" stroke="black" d="M199.2,-71.7C199.2,-64.41 199.2,-55.73 199.2,-47.54"/>
<polygon fill="black" stroke="black" points="202.7,-47.62 199.2,-37.62 195.7,-47.62 202.7,-47.62"/>
</g>
<!-- type_info&#45;&gt;bcs -->
<g id="edge24" class="edge">
<title>type_info&#45;&gt;bcs</title>
<path fill="none" stroke="black" d="M372.16,-222.97C420,-209.63 504.05,-186.19 551.67,-172.91"/>
<polygon fill="black" stroke="black" points="552.51,-176.31 561.2,-170.25 550.63,-169.56 552.51,-176.31"/>
</g>
<!-- type_info&#45;&gt;error -->
<g id="edge22" class="edge">
<title>type_info&#45;&gt;error</title>
<path fill="none" stroke="black" d="M341.68,-215.86C348.88,-195.96 363.36,-163.38 386.2,-144 417.15,-117.74 462.17,-104.04 494.02,-97.21"/>
<polygon fill="black" stroke="black" points="494.51,-100.68 503.63,-95.28 493.13,-93.81 494.51,-100.68"/>
</g>
<!-- string -->
<g id="node18" class="node">
<title>string</title>
<ellipse fill="none" stroke="black" cx="57.2" cy="-162" rx="30.59" ry="18"/>
<text text-anchor="middle" x="57.2" y="-158.3" font-family="Times,serif" font-size="14.00">string</text>
</g>
<!-- type_info&#45;&gt;string -->
<g id="edge21" class="edge">
<title>type_info&#45;&gt;string</title>
<path fill="none" stroke="black" d="M299.15,-223.7C246.39,-210.47 150.08,-186.3 96.25,-172.8"/>
<polygon fill="black" stroke="black" points="97.14,-169.41 86.59,-170.37 95.43,-176.2 97.14,-169.41"/>
</g>
<!-- features -->
<g id="node19" class="node">
<title>features</title>
<ellipse fill="none" stroke="black" cx="466.2" cy="-162" rx="38.19" ry="18"/>
<text text-anchor="middle" x="466.2" y="-158.3" font-family="Times,serif" font-size="14.00">features</text>
</g>
<!-- type_info&#45;&gt;features -->
<g id="edge23" class="edge">
<title>type_info&#45;&gt;features</title>
<path fill="none" stroke="black" d="M362.19,-219C382.15,-208.26 409.89,-193.32 431.7,-181.57"/>
<polygon fill="black" stroke="black" points="433.09,-184.8 440.23,-176.98 429.77,-178.64 433.09,-184.8"/>
</g>
<!-- system_addresses&#45;&gt;signer -->
<g id="edge25" class="edge">
<title>system_addresses&#45;&gt;signer</title>
<path fill="none" stroke="black" d="M911.2,-143.7C911.2,-136.41 911.2,-127.73 911.2,-119.54"/>
<polygon fill="black" stroke="black" points="914.7,-119.62 911.2,-109.62 907.7,-119.62 914.7,-119.62"/>
</g>
<!-- system_addresses&#45;&gt;error -->
<g id="edge26" class="edge">
<title>system_addresses&#45;&gt;error</title>
<path fill="none" stroke="black" d="M855.52,-150.01C845.12,-147.98 834.33,-145.91 824.2,-144 732.97,-126.81 625.5,-107.56 569.85,-97.67"/>
<polygon fill="black" stroke="black" points="570.74,-94.27 560.28,-95.97 569.51,-101.16 570.74,-94.27"/>
</g>
<!-- ed25519&#45;&gt;bcs -->
<g id="edge29" class="edge">
<title>ed25519&#45;&gt;bcs</title>
<path fill="none" stroke="black" d="M375.59,-290.87C418.74,-264.79 510.78,-209.18 557.97,-180.66"/>
<polygon fill="black" stroke="black" points="559.55,-183.8 566.3,-175.63 555.93,-177.8 559.55,-183.8"/>
</g>
<!-- ed25519&#45;&gt;option -->
<g id="edge27" class="edge">
<title>ed25519&#45;&gt;option</title>
<path fill="none" stroke="black" d="M328.11,-291.15C313.46,-281.7 295.31,-268.03 283.2,-252 252.04,-210.79 265.81,-188.87 240.2,-144 234.52,-134.06 227.15,-123.93 220.23,-115.22"/>
<polygon fill="black" stroke="black" points="223,-113.09 213.95,-107.58 217.59,-117.53 223,-113.09"/>
</g>
<!-- ed25519&#45;&gt;error -->
<g id="edge28" class="edge">
<title>ed25519&#45;&gt;error</title>
<path fill="none" stroke="black" d="M365.74,-288.71C373.54,-278.66 382.98,-265.2 389.2,-252 410.42,-206.93 387.04,-182.05 419.2,-144 438.6,-121.04 470.17,-107.4 495.01,-99.72"/>
<polygon fill="black" stroke="black" points="495.78,-103.14 504.43,-97.02 493.85,-96.41 495.78,-103.14"/>
</g>
<!-- ed25519&#45;&gt;type_info -->
<g id="edge30" class="edge">
<title>ed25519&#45;&gt;type_info</title>
<path fill="none" stroke="black" d="M348.24,-287.7C346.56,-280.32 344.54,-271.52 342.65,-263.25"/>
<polygon fill="black" stroke="black" points="346.08,-262.55 340.44,-253.58 339.26,-264.11 346.08,-262.55"/>
</g>
<!-- ed25519&#45;&gt;hash -->
<g id="edge31" class="edge">
<title>ed25519&#45;&gt;hash</title>
<path fill="none" stroke="black" d="M322.31,-293.44C290.01,-280.95 238.66,-261.09 204.94,-248.05"/>
<polygon fill="black" stroke="black" points="206.23,-244.8 195.64,-244.45 203.7,-251.33 206.23,-244.8"/>
</g>
<!-- multi_ed25519&#45;&gt;bcs -->
<g id="edge34" class="edge">
<title>multi_ed25519&#45;&gt;bcs</title>
<path fill="none" stroke="black" d="M405.63,-368.24C436.02,-360.9 472.77,-347.65 498.2,-324 536.65,-288.22 519.27,-261.1 546.2,-216 552.15,-206.02 559.7,-195.77 566.69,-186.96"/>
<polygon fill="black" stroke="black" points="569.39,-189.2 573,-179.24 563.97,-184.77 569.39,-189.2"/>
</g>
<!-- multi_ed25519&#45;&gt;option -->
<g id="edge32" class="edge">
<title>multi_ed25519&#45;&gt;option</title>
<path fill="none" stroke="black" d="M334.31,-360.64C324.37,-350.56 311.89,-337.09 302.2,-324 253.3,-257.94 221.12,-165.02 207.15,-119.03"/>
<polygon fill="black" stroke="black" points="210.55,-118.18 204.35,-109.59 203.84,-120.18 210.55,-118.18"/>
</g>
<!-- multi_ed25519&#45;&gt;error -->
<g id="edge33" class="edge">
<title>multi_ed25519&#45;&gt;error</title>
<path fill="none" stroke="black" d="M370.08,-360.44C404.6,-329.01 477.58,-256.95 513.2,-180 522.03,-160.92 526.81,-137.63 529.37,-119.66"/>
<polygon fill="black" stroke="black" points="532.82,-120.31 530.59,-109.95 525.87,-119.44 532.82,-120.31"/>
</g>
<!-- multi_ed25519&#45;&gt;hash -->
<g id="edge35" class="edge">
<title>multi_ed25519&#45;&gt;hash</title>
<path fill="none" stroke="black" d="M324.6,-361.34C308.18,-351.3 286.93,-337.64 269.2,-324 241.86,-302.98 212.91,-276.03 193.62,-257.32"/>
<polygon fill="black" stroke="black" points="196.16,-254.91 186.56,-250.42 191.26,-259.91 196.16,-254.91"/>
</g>
<!-- multi_ed25519&#45;&gt;ed25519 -->
<g id="edge36" class="edge">
<title>multi_ed25519&#45;&gt;ed25519</title>
<path fill="none" stroke="black" d="M351.44,-359.7C351.55,-352.41 351.67,-343.73 351.79,-335.54"/>
<polygon fill="black" stroke="black" points="355.29,-335.67 351.93,-325.62 348.29,-335.57 355.29,-335.67"/>
</g>
<!-- from_bcs&#45;&gt;string -->
<g id="edge37" class="edge">
<title>from_bcs&#45;&gt;string</title>
<path fill="none" stroke="black" d="M45.79,-287.59C47.99,-263.61 51.96,-220.14 54.59,-191.42"/>
<polygon fill="black" stroke="black" points="58.07,-191.9 55.49,-181.62 51.09,-191.26 58.07,-191.9"/>
</g>
<!-- event&#45;&gt;bcs -->
<g id="edge38" class="edge">
<title>event&#45;&gt;bcs</title>
<path fill="none" stroke="black" d="M552.54,-361.43C560.29,-351.42 569.45,-337.76 574.2,-324 589.52,-279.57 590.35,-224.31 589.1,-191.45"/>
<polygon fill="black" stroke="black" points="592.6,-191.35 588.62,-181.53 585.61,-191.69 592.6,-191.35"/>
</g>
<!-- event&#45;&gt;guid -->
<g id="edge39" class="edge">
<title>event&#45;&gt;guid</title>
<path fill="none" stroke="black" d="M559.58,-364.49C577.55,-353.45 603.94,-337.25 624.12,-324.85"/>
<polygon fill="black" stroke="black" points="625.77,-327.95 632.46,-319.73 622.11,-321.98 625.77,-327.95"/>
</g>
<!-- string&#45;&gt;vector -->
<g id="edge40" class="edge">
<title>string&#45;&gt;vector</title>
<path fill="none" stroke="black" d="M72.12,-146.07C96.88,-121.31 146.61,-71.58 175.98,-42.21"/>
<polygon fill="black" stroke="black" points="178.37,-44.77 182.97,-35.23 173.42,-39.82 178.37,-44.77"/>
</g>
<!-- string&#45;&gt;option -->
<g id="edge41" class="edge">
<title>string&#45;&gt;option</title>
<path fill="none" stroke="black" d="M80.01,-149.75C102.89,-138.48 138.4,-120.97 164.72,-108"/>
<polygon fill="black" stroke="black" points="166.23,-111.15 173.65,-103.59 163.14,-104.87 166.23,-111.15"/>
</g>
<!-- features&#45;&gt;signer -->
<g id="edge42" class="edge">
<title>features&#45;&gt;signer</title>
<path fill="none" stroke="black" d="M500.45,-153.73C515.92,-150.56 534.44,-146.91 551.2,-144 665.64,-124.14 801.39,-105.47 868.81,-96.52"/>
<polygon fill="black" stroke="black" points="868.85,-100.05 878.31,-95.27 867.94,-93.11 868.85,-100.05"/>
</g>
<!-- features&#45;&gt;error -->
<g id="edge43" class="edge">
<title>features&#45;&gt;error</title>
<path fill="none" stroke="black" d="M481.17,-145.12C489.85,-135.91 500.92,-124.17 510.54,-113.97"/>
<polygon fill="black" stroke="black" points="512.83,-116.64 517.14,-106.97 507.74,-111.84 512.83,-116.64"/>
</g>
</g>
</svg>
