<?xml version="1.0" encoding="UTF-8" standalone="no"?>
<!DOCTYPE svg PUBLIC "-//W3C//DTD SVG 1.1//EN"
 "http://www.w3.org/Graphics/SVG/1.1/DTD/svg11.dtd">
<!-- Generated by graphviz version 9.0.0 (20230911.1827)
 -->
<!-- Title: G Pages: 1 -->
<svg width="1211pt" height="548pt"
 viewBox="0.00 0.00 1210.56 548.00" xmlns="http://www.w3.org/2000/svg" xmlns:xlink="http://www.w3.org/1999/xlink">
<g id="graph0" class="graph" transform="scale(1 1) rotate(0) translate(4 544)">
<title>G</title>
<polygon fill="white" stroke="none" points="-4,4 -4,-544 1206.56,-544 1206.56,4 -4,4"/>
<!-- resource_account -->
<g id="node1" class="node">
<title>resource_account</title>
<ellipse fill="none" stroke="black" cx="585.53" cy="-522" rx="75.41" ry="18"/>
<text text-anchor="middle" x="585.53" y="-516.95" font-family="Times,serif" font-size="14.00">resource_account</text>
</g>
<!-- bcs -->
<g id="node2" class="node">
<title>bcs</title>
<ellipse fill="none" stroke="black" cx="380.53" cy="-162" rx="27" ry="18"/>
<text text-anchor="middle" x="380.53" y="-156.95" font-family="Times,serif" font-size="14.00">bcs</text>
</g>
<!-- resource_account&#45;&gt;bcs -->
<g id="edge1" class="edge">
<title>resource_account&#45;&gt;bcs</title>
<path fill="none" stroke="black" d="M511.12,-518.7C411.02,-512.03 231.92,-487.13 113.53,-396 55.17,-351.08 50.38,-323.2 31.53,-252 27.43,-236.53 21,-228.05 31.53,-216 70.62,-171.24 237.93,-189.9 296.53,-180 312.04,-177.38 329.07,-174.02 343.71,-170.99"/>
<polygon fill="black" stroke="black" points="344.33,-174.43 353.39,-168.95 342.89,-167.58 344.33,-174.43"/>
</g>
<!-- account -->
<g id="node3" class="node">
<title>account</title>
<ellipse fill="none" stroke="black" cx="585.53" cy="-450" rx="39.58" ry="18"/>
<text text-anchor="middle" x="585.53" y="-444.95" font-family="Times,serif" font-size="14.00">account</text>
</g>
<!-- resource_account&#45;&gt;account -->
<g id="edge2" class="edge">
<title>resource_account&#45;&gt;account</title>
<path fill="none" stroke="black" d="M585.53,-503.7C585.53,-496.41 585.53,-487.73 585.53,-479.54"/>
<polygon fill="black" stroke="black" points="589.03,-479.62 585.53,-469.62 582.03,-479.62 589.03,-479.62"/>
</g>
<!-- timestamp -->
<g id="node4" class="node">
<title>timestamp</title>
<ellipse fill="none" stroke="black" cx="1086.53" cy="-378" rx="50.33" ry="18"/>
<text text-anchor="middle" x="1086.53" y="-372.95" font-family="Times,serif" font-size="14.00">timestamp</text>
</g>
<!-- resource_account&#45;&gt;timestamp -->
<g id="edge3" class="edge">
<title>resource_account&#45;&gt;timestamp</title>
<path fill="none" stroke="black" d="M632.66,-507.64C727.44,-480.78 940.28,-420.45 1037.01,-393.04"/>
<polygon fill="black" stroke="black" points="1037.81,-396.45 1046.48,-390.35 1035.9,-389.71 1037.81,-396.45"/>
</g>
<!-- account&#45;&gt;bcs -->
<g id="edge8" class="edge">
<title>account&#45;&gt;bcs</title>
<path fill="none" stroke="black" d="M546.24,-447.08C468.94,-442.6 300.61,-429.23 254.53,-396 195.99,-353.8 196.69,-322.09 179.53,-252 175.72,-236.46 169.76,-228.67 179.53,-216 189.63,-202.89 288.47,-181.35 343.68,-170.2"/>
<polygon fill="black" stroke="black" points="344.15,-173.67 353.27,-168.28 342.78,-166.81 344.15,-173.67"/>
</g>
<!-- vector -->
<g id="node5" class="node">
<title>vector</title>
<ellipse fill="none" stroke="black" cx="256.53" cy="-18" rx="33.95" ry="18"/>
<text text-anchor="middle" x="256.53" y="-12.95" font-family="Times,serif" font-size="14.00">vector</text>
</g>
<!-- account&#45;&gt;vector -->
<g id="edge4" class="edge">
<title>account&#45;&gt;vector</title>
<path fill="none" stroke="black" d="M624.9,-447.83C749.01,-443.83 1126.37,-429.02 1169.53,-396 1203.03,-370.36 1202.53,-349.19 1202.53,-307 1202.53,-307 1202.53,-307 1202.53,-161 1202.53,-92.08 1140.55,-94.85 1075.53,-72 931.23,-21.29 452.97,-18.36 302.36,-18.73"/>
<polygon fill="black" stroke="black" points="302.36,-15.23 292.37,-18.77 302.38,-22.23 302.36,-15.23"/>
</g>
<!-- option -->
<g id="node6" class="node">
<title>option</title>
<ellipse fill="none" stroke="black" cx="194.53" cy="-90" rx="34.46" ry="18"/>
<text text-anchor="middle" x="194.53" y="-84.95" font-family="Times,serif" font-size="14.00">option</text>
</g>
<!-- account&#45;&gt;option -->
<g id="edge5" class="edge">
<title>account&#45;&gt;option</title>
<path fill="none" stroke="black" d="M545.83,-448.65C445.83,-447.12 186.41,-439.01 113.53,-396 13,-336.67 -41.11,-228.4 39.53,-144 68.21,-113.98 114.59,-100.96 149.15,-95.32"/>
<polygon fill="black" stroke="black" points="149.49,-98.81 158.88,-93.89 148.48,-91.88 149.49,-98.81"/>
</g>
<!-- signer -->
<g id="node7" class="node">
<title>signer</title>
<ellipse fill="none" stroke="black" cx="1033.53" cy="-90" rx="33.44" ry="18"/>
<text text-anchor="middle" x="1033.53" y="-84.95" font-family="Times,serif" font-size="14.00">signer</text>
</g>
<!-- account&#45;&gt;signer -->
<g id="edge6" class="edge">
<title>account&#45;&gt;signer</title>
<path fill="none" stroke="black" d="M625.18,-447.92C746.5,-444.24 1106.78,-430.5 1145.53,-396 1175.74,-369.11 1164.53,-347.45 1164.53,-307 1164.53,-307 1164.53,-307 1164.53,-233 1164.53,-175.73 1106.25,-131.69 1067.44,-108.7"/>
<polygon fill="black" stroke="black" points="1069.29,-105.73 1058.87,-103.8 1065.81,-111.8 1069.29,-105.73"/>
</g>
<!-- error -->
<g id="node8" class="node">
<title>error</title>
<ellipse fill="none" stroke="black" cx="602.53" cy="-90" rx="28.83" ry="18"/>
<text text-anchor="middle" x="602.53" y="-84.95" font-family="Times,serif" font-size="14.00">error</text>
</g>
<!-- account&#45;&gt;error -->
<g id="edge7" class="edge">
<title>account&#45;&gt;error</title>
<path fill="none" stroke="black" d="M597.59,-432.7C613.67,-409.81 641.31,-366.22 651.53,-324 670.34,-246.24 680.69,-218.5 651.53,-144 646.7,-131.67 637.51,-120.49 628.38,-111.61"/>
<polygon fill="black" stroke="black" points="631.02,-109.28 621.27,-105.15 626.32,-114.46 631.02,-109.28"/>
</g>
<!-- type_info -->
<g id="node9" class="node">
<title>type_info</title>
<ellipse fill="none" stroke="black" cx="460.53" cy="-234" rx="46.23" ry="18"/>
<text text-anchor="middle" x="460.53" y="-228.95" font-family="Times,serif" font-size="14.00">type_info</text>
</g>
<!-- account&#45;&gt;type_info -->
<g id="edge9" class="edge">
<title>account&#45;&gt;type_info</title>
<path fill="none" stroke="black" d="M561.19,-435.33C546.45,-425.96 528.29,-412.29 516.53,-396 486.93,-355 471.9,-297.02 465.17,-262.98"/>
<polygon fill="black" stroke="black" points="468.67,-262.68 463.4,-253.49 461.79,-263.96 468.67,-262.68"/>
</g>
<!-- table -->
<g id="node10" class="node">
<title>table</title>
<ellipse fill="none" stroke="black" cx="710.53" cy="-378" rx="28.83" ry="18"/>
<text text-anchor="middle" x="710.53" y="-372.95" font-family="Times,serif" font-size="14.00">table</text>
</g>
<!-- account&#45;&gt;table -->
<g id="edge10" class="edge">
<title>account&#45;&gt;table</title>
<path fill="none" stroke="black" d="M609.93,-435.34C629.83,-424.19 658.07,-408.37 679.57,-396.34"/>
<polygon fill="black" stroke="black" points="681.18,-399.45 688.19,-391.51 677.76,-393.34 681.18,-399.45"/>
</g>
<!-- system_addresses -->
<g id="node11" class="node">
<title>system_addresses</title>
<ellipse fill="none" stroke="black" cx="890.53" cy="-306" rx="76.94" ry="18"/>
<text text-anchor="middle" x="890.53" y="-300.95" font-family="Times,serif" font-size="14.00">system_addresses</text>
</g>
<!-- account&#45;&gt;system_addresses -->
<g id="edge11" class="edge">
<title>account&#45;&gt;system_addresses</title>
<path fill="none" stroke="black" d="M624.75,-446.75C721.53,-440.8 965.65,-423.22 989.53,-396 1000.08,-383.97 997.75,-373.73 989.53,-360 980.15,-344.35 964.4,-333.06 948.19,-325.03"/>
<polygon fill="black" stroke="black" points="950.02,-322.02 939.47,-321.07 947.13,-328.39 950.02,-322.02"/>
</g>
<!-- hash -->
<g id="node12" class="node">
<title>hash</title>
<ellipse fill="none" stroke="black" cx="216.53" cy="-234" rx="27.81" ry="18"/>
<text text-anchor="middle" x="216.53" y="-228.95" font-family="Times,serif" font-size="14.00">hash</text>
</g>
<!-- account&#45;&gt;hash -->
<g id="edge12" class="edge">
<title>account&#45;&gt;hash</title>
<path fill="none" stroke="black" d="M545.61,-448.38C489.63,-446.01 385.95,-436.02 308.53,-396 267.48,-374.78 255.57,-364.61 233.53,-324 223.48,-305.49 219.29,-282 217.58,-263.8"/>
<polygon fill="black" stroke="black" points="221.08,-263.67 216.88,-253.95 214.1,-264.17 221.08,-263.67"/>
</g>
<!-- ed25519 -->
<g id="node13" class="node">
<title>ed25519</title>
<ellipse fill="none" stroke="black" cx="315.53" cy="-306" rx="42.65" ry="18"/>
<text text-anchor="middle" x="315.53" y="-300.95" font-family="Times,serif" font-size="14.00">ed25519</text>
</g>
<!-- account&#45;&gt;ed25519 -->
<g id="edge13" class="edge">
<title>account&#45;&gt;ed25519</title>
<path fill="none" stroke="black" d="M546.35,-446.45C481.43,-441.38 355.77,-427.64 326.53,-396 311.74,-380 309.83,-354.89 311.14,-335.42"/>
<polygon fill="black" stroke="black" points="314.61,-335.96 312.13,-325.66 307.64,-335.26 314.61,-335.96"/>
</g>
<!-- multi_ed25519 -->
<g id="node14" class="node">
<title>multi_ed25519</title>
<ellipse fill="none" stroke="black" cx="402.53" cy="-378" rx="67.22" ry="18"/>
<text text-anchor="middle" x="402.53" y="-372.95" font-family="Times,serif" font-size="14.00">multi_ed25519</text>
</g>
<!-- account&#45;&gt;multi_ed25519 -->
<g id="edge14" class="edge">
<title>account&#45;&gt;multi_ed25519</title>
<path fill="none" stroke="black" d="M556.12,-437.75C527.68,-426.87 484.08,-410.19 450.58,-397.38"/>
<polygon fill="black" stroke="black" points="452.1,-394.22 441.51,-393.91 449.6,-400.75 452.1,-394.22"/>
</g>
<!-- guid -->
<g id="node15" class="node">
<title>guid</title>
<ellipse fill="none" stroke="black" cx="615.53" cy="-306" rx="27.3" ry="18"/>
<text text-anchor="middle" x="615.53" y="-300.95" font-family="Times,serif" font-size="14.00">guid</text>
</g>
<!-- account&#45;&gt;guid -->
<g id="edge15" class="edge">
<title>account&#45;&gt;guid</title>
<path fill="none" stroke="black" d="M589.21,-431.59C594.29,-407.5 603.54,-363.75 609.6,-335.03"/>
<polygon fill="black" stroke="black" points="612.96,-336.1 611.6,-325.59 606.11,-334.65 612.96,-336.1"/>
</g>
<!-- from_bcs -->
<g id="node16" class="node">
<title>from_bcs</title>
<ellipse fill="none" stroke="black" cx="86.53" cy="-234" rx="46.23" ry="18"/>
<text text-anchor="middle" x="86.53" y="-228.95" font-family="Times,serif" font-size="14.00">from_bcs</text>
</g>
<!-- account&#45;&gt;from_bcs -->
<g id="edge16" class="edge">
<title>account&#45;&gt;from_bcs</title>
<path fill="none" stroke="black" d="M545.81,-449.32C449.69,-449.33 207.97,-444.39 146.53,-396 105.68,-363.83 92.64,-300.83 88.48,-263.9"/>
<polygon fill="black" stroke="black" points="91.96,-263.58 87.53,-253.96 85,-264.25 91.96,-263.58"/>
</g>
<!-- event -->
<g id="node17" class="node">
<title>event</title>
<ellipse fill="none" stroke="black" cx="556.53" cy="-378" rx="30.88" ry="18"/>
<text text-anchor="middle" x="556.53" y="-372.95" font-family="Times,serif" font-size="14.00">event</text>
</g>
<!-- account&#45;&gt;event -->
<g id="edge17" class="edge">
<title>account&#45;&gt;event</title>
<path fill="none" stroke="black" d="M578.51,-432.05C575.3,-424.32 571.42,-414.96 567.82,-406.27"/>
<polygon fill="black" stroke="black" points="571.12,-405.09 564.06,-397.19 564.66,-407.77 571.12,-405.09"/>
</g>
<!-- create_signer -->
<g id="node18" class="node">
<title>create_signer</title>
<ellipse fill="none" stroke="black" cx="920.53" cy="-378" rx="60.05" ry="18"/>
<text text-anchor="middle" x="920.53" y="-372.95" font-family="Times,serif" font-size="14.00">create_signer</text>
</g>
<!-- account&#45;&gt;create_signer -->
<g id="edge18" class="edge">
<title>account&#45;&gt;create_signer</title>
<path fill="none" stroke="black" d="M621.78,-442.31C673.07,-432.73 769.71,-414.22 851.53,-396 855.81,-395.05 860.23,-394.03 864.67,-392.99"/>
<polygon fill="black" stroke="black" points="865.3,-396.44 874.21,-390.71 863.67,-389.63 865.3,-396.44"/>
</g>
<!-- chain_id -->
<g id="node19" class="node">
<title>chain_id</title>
<ellipse fill="none" stroke="black" cx="799.53" cy="-378" rx="42.65" ry="18"/>
<text text-anchor="middle" x="799.53" y="-372.95" font-family="Times,serif" font-size="14.00">chain_id</text>
</g>
<!-- account&#45;&gt;chain_id -->
<g id="edge19" class="edge">
<title>account&#45;&gt;chain_id</title>
<path fill="none" stroke="black" d="M617.1,-438.81C649.96,-428.19 702.88,-411.03 748.53,-396 751.03,-395.18 753.61,-394.32 756.2,-393.47"/>
<polygon fill="black" stroke="black" points="757.07,-396.87 765.45,-390.4 754.86,-390.22 757.07,-396.87"/>
</g>
<!-- timestamp&#45;&gt;error -->
<g id="edge20" class="edge">
<title>timestamp&#45;&gt;error</title>
<path fill="none" stroke="black" d="M1068.57,-360.9C1047.38,-342.26 1010.67,-311.18 976.53,-288 868.52,-214.69 837.08,-202.8 720.53,-144 692.53,-129.88 659.98,-115.39 636.16,-105.14"/>
<polygon fill="black" stroke="black" points="637.84,-102.06 627.27,-101.35 635.09,-108.49 637.84,-102.06"/>
</g>
<!-- timestamp&#45;&gt;system_addresses -->
<g id="edge21" class="edge">
<title>timestamp&#45;&gt;system_addresses</title>
<path fill="none" stroke="black" d="M1051.94,-364.65C1021.46,-353.76 976.65,-337.76 941.97,-325.37"/>
<polygon fill="black" stroke="black" points="943.58,-322.23 932.98,-322.16 941.22,-328.82 943.58,-322.23"/>
</g>
<!-- option&#45;&gt;vector -->
<g id="edge22" class="edge">
<title>option&#45;&gt;vector</title>
<path fill="none" stroke="black" d="M208.6,-73.12C216.36,-64.34 226.18,-53.26 234.9,-43.42"/>
<polygon fill="black" stroke="black" points="237.5,-45.76 241.51,-35.95 232.26,-41.12 237.5,-45.76"/>
</g>
<!-- type_info&#45;&gt;bcs -->
<g id="edge26" class="edge">
<title>type_info&#45;&gt;bcs</title>
<path fill="none" stroke="black" d="M442.37,-217.12C431.24,-207.38 416.86,-194.79 404.77,-184.21"/>
<polygon fill="black" stroke="black" points="407.41,-181.87 397.58,-177.92 402.8,-187.14 407.41,-181.87"/>
</g>
<!-- type_info&#45;&gt;error -->
<g id="edge24" class="edge">
<title>type_info&#45;&gt;error</title>
<path fill="none" stroke="black" d="M469.18,-216.11C479.55,-197.03 498.31,-165.79 520.53,-144 535.36,-129.45 554.78,-116.69 571.01,-107.33"/>
<polygon fill="black" stroke="black" points="572.28,-110.63 579.3,-102.7 568.86,-104.52 572.28,-110.63"/>
</g>
<!-- string -->
<g id="node20" class="node">
<title>string</title>
<ellipse fill="none" stroke="black" cx="255.53" cy="-162" rx="31.9" ry="18"/>
<text text-anchor="middle" x="255.53" y="-156.95" font-family="Times,serif" font-size="14.00">string</text>
</g>
<!-- type_info&#45;&gt;string -->
<g id="edge23" class="edge">
<title>type_info&#45;&gt;string</title>
<path fill="none" stroke="black" d="M426.68,-221.44C389.83,-208.86 331.07,-188.8 292.9,-175.76"/>
<polygon fill="black" stroke="black" points="294.26,-172.53 283.67,-172.61 292,-179.15 294.26,-172.53"/>
</g>
<!-- features -->
<g id="node21" class="node">
<title>features</title>
<ellipse fill="none" stroke="black" cx="602.53" cy="-162" rx="40.09" ry="18"/>
<text text-anchor="middle" x="602.53" y="-156.95" font-family="Times,serif" font-size="14.00">features</text>
</g>
<!-- type_info&#45;&gt;features -->
<g id="edge25" class="edge">
<title>type_info&#45;&gt;features</title>
<path fill="none" stroke="black" d="M488.24,-219.34C510.46,-208.38 541.82,-192.93 566.07,-180.97"/>
<polygon fill="black" stroke="black" points="567.54,-184.15 574.96,-176.59 564.44,-177.87 567.54,-184.15"/>
</g>
<!-- system_addresses&#45;&gt;signer -->
<g id="edge27" class="edge">
<title>system_addresses&#45;&gt;signer</title>
<path fill="none" stroke="black" d="M901.99,-287.85C927.01,-250.4 986.67,-161.13 1016.26,-116.83"/>
<polygon fill="black" stroke="black" points="1019.12,-118.87 1021.76,-108.61 1013.3,-114.98 1019.12,-118.87"/>
</g>
<!-- system_addresses&#45;&gt;error -->
<g id="edge28" class="edge">
<title>system_addresses&#45;&gt;error</title>
<path fill="none" stroke="black" d="M870.23,-288.15C833.81,-258.13 754.6,-193.88 684.53,-144 667.65,-131.99 648.19,-119.36 632.47,-109.45"/>
<polygon fill="black" stroke="black" points="634.36,-106.5 624.03,-104.16 630.65,-112.44 634.36,-106.5"/>
</g>
<!-- ed25519&#45;&gt;bcs -->
<g id="edge31" class="edge">
<title>ed25519&#45;&gt;bcs</title>
<path fill="none" stroke="black" d="M323.37,-287.87C334.51,-263.54 355.02,-218.73 368.2,-189.93"/>
<polygon fill="black" stroke="black" points="371.25,-191.67 372.23,-181.12 364.89,-188.76 371.25,-191.67"/>
</g>
<!-- ed25519&#45;&gt;option -->
<g id="edge29" class="edge">
<title>ed25519&#45;&gt;option</title>
<path fill="none" stroke="black" d="M305.33,-288.14C293.8,-269.62 273.94,-239.42 253.53,-216 238.03,-198.22 226.31,-200.43 214.53,-180 203.87,-161.52 198.89,-137.85 196.56,-119.56"/>
<polygon fill="black" stroke="black" points="200.05,-119.25 195.52,-109.67 193.09,-119.98 200.05,-119.25"/>
</g>
<!-- ed25519&#45;&gt;error -->
<g id="edge30" class="edge">
<title>ed25519&#45;&gt;error</title>
<path fill="none" stroke="black" d="M312.98,-287.68C309.2,-254.82 306.24,-183.23 344.53,-144 374.29,-113.5 497.49,-99.32 562.28,-93.86"/>
<polygon fill="black" stroke="black" points="562.47,-97.36 572.16,-93.06 561.91,-90.38 562.47,-97.36"/>
</g>
<!-- ed25519&#45;&gt;type_info -->
<g id="edge32" class="edge">
<title>ed25519&#45;&gt;type_info</title>
<path fill="none" stroke="black" d="M342.8,-291.83C365.2,-281.02 397.18,-265.58 422.16,-253.52"/>
<polygon fill="black" stroke="black" points="423.54,-256.74 431.02,-249.24 420.5,-250.44 423.54,-256.74"/>
</g>
<!-- ed25519&#45;&gt;hash -->
<g id="edge33" class="edge">
<title>ed25519&#45;&gt;hash</title>
<path fill="none" stroke="black" d="M294.53,-290.15C279.87,-279.79 260.14,-265.84 244.19,-254.56"/>
<polygon fill="black" stroke="black" points="246.25,-251.73 236.07,-248.81 242.21,-257.45 246.25,-251.73"/>
</g>
<!-- multi_ed25519&#45;&gt;bcs -->
<g id="edge37" class="edge">
<title>multi_ed25519&#45;&gt;bcs</title>
<path fill="none" stroke="black" d="M400.76,-359.85C396.99,-323.14 388.1,-236.66 383.46,-191.53"/>
<polygon fill="black" stroke="black" points="386.96,-191.33 382.45,-181.74 379.99,-192.04 386.96,-191.33"/>
</g>
<!-- multi_ed25519&#45;&gt;option -->
<g id="edge34" class="edge">
<title>multi_ed25519&#45;&gt;option</title>
<path fill="none" stroke="black" d="M335.19,-376.57C248.27,-371.92 100.07,-349.2 31.53,-252 -11.61,-190.82 96.77,-132.58 157.21,-106.02"/>
<polygon fill="black" stroke="black" points="158.33,-109.35 166.14,-102.19 155.57,-102.92 158.33,-109.35"/>
</g>
<!-- multi_ed25519&#45;&gt;error -->
<g id="edge35" class="edge">
<title>multi_ed25519&#45;&gt;error</title>
<path fill="none" stroke="black" d="M414.21,-360.08C427.39,-341.53 449.94,-311.28 472.53,-288 489.88,-270.11 501.33,-272.49 515.53,-252 544.51,-210.18 527.27,-187.58 553.53,-144 560.29,-132.77 569.7,-121.88 578.48,-112.91"/>
<polygon fill="black" stroke="black" points="580.81,-115.52 585.5,-106.02 575.91,-110.52 580.81,-115.52"/>
</g>
<!-- multi_ed25519&#45;&gt;hash -->
<g id="edge38" class="edge">
<title>multi_ed25519&#45;&gt;hash</title>
<path fill="none" stroke="black" d="M349.91,-366.47C321.68,-358.64 287.8,-345.48 263.53,-324 245.04,-307.64 232.65,-282.23 225.25,-262.74"/>
<polygon fill="black" stroke="black" points="228.61,-261.75 221.97,-253.49 222.01,-264.09 228.61,-261.75"/>
</g>
<!-- multi_ed25519&#45;&gt;ed25519 -->
<g id="edge39" class="edge">
<title>multi_ed25519&#45;&gt;ed25519</title>
<path fill="none" stroke="black" d="M381.91,-360.41C370.43,-351.17 355.97,-339.54 343.48,-329.49"/>
<polygon fill="black" stroke="black" points="345.97,-327 335.98,-323.46 341.58,-332.46 345.97,-327"/>
</g>
<!-- multi_ed25519&#45;&gt;features -->
<g id="edge36" class="edge">
<title>multi_ed25519&#45;&gt;features</title>
<path fill="none" stroke="black" d="M425.77,-360.74C456.38,-338.58 510.73,-296.51 548.53,-252 564.76,-232.88 579.26,-208.34 589.14,-189.87"/>
<polygon fill="black" stroke="black" points="592.18,-191.61 593.7,-181.13 585.97,-188.38 592.18,-191.61"/>
</g>
<!-- from_bcs&#45;&gt;string -->
<g id="edge40" class="edge">
<title>from_bcs&#45;&gt;string</title>
<path fill="none" stroke="black" d="M117.52,-220.16C146.38,-208.21 189.38,-190.4 219.69,-177.84"/>
<polygon fill="black" stroke="black" points="220.94,-181.11 228.84,-174.05 218.26,-174.65 220.94,-181.11"/>
</g>
<!-- event&#45;&gt;bcs -->
<g id="edge41" class="edge">
<title>event&#45;&gt;bcs</title>
<path fill="none" stroke="black" d="M556.99,-359.63C556.91,-327.32 552.17,-257.52 515.53,-216 490.64,-187.79 448.81,-174.46 418.3,-168.24"/>
<polygon fill="black" stroke="black" points="419.18,-164.85 408.71,-166.47 417.91,-171.73 419.18,-164.85"/>
</g>
<!-- event&#45;&gt;guid -->
<g id="edge42" class="edge">
<title>event&#45;&gt;guid</title>
<path fill="none" stroke="black" d="M569.62,-361.46C577.21,-352.46 586.92,-340.93 595.46,-330.81"/>
<polygon fill="black" stroke="black" points="598.13,-333.07 601.9,-323.17 592.78,-328.56 598.13,-333.07"/>
</g>
<!-- chain_id&#45;&gt;system_addresses -->
<g id="edge43" class="edge">
<title>chain_id&#45;&gt;system_addresses</title>
<path fill="none" stroke="black" d="M819.27,-361.81C831.16,-352.66 846.56,-340.82 859.99,-330.49"/>
<polygon fill="black" stroke="black" points="861.92,-333.42 867.71,-324.55 857.65,-327.87 861.92,-333.42"/>
</g>
<!-- string&#45;&gt;vector -->
<g id="edge44" class="edge">
<title>string&#45;&gt;vector</title>
<path fill="none" stroke="black" d="M255.65,-143.59C255.82,-119.61 256.12,-76.14 256.33,-47.42"/>
<polygon fill="black" stroke="black" points="259.83,-47.65 256.4,-37.62 252.83,-47.6 259.83,-47.65"/>
</g>
<!-- string&#45;&gt;option -->
<g id="edge45" class="edge">
<title>string&#45;&gt;option</title>
<path fill="none" stroke="black" d="M241.99,-145.46C234.17,-136.49 224.17,-125.02 215.37,-114.92"/>
<polygon fill="black" stroke="black" points="218.23,-112.87 209.02,-107.63 212.95,-117.47 218.23,-112.87"/>
</g>
<!-- features&#45;&gt;signer -->
<g id="edge46" class="edge">
<title>features&#45;&gt;signer</title>
<path fill="none" stroke="black" d="M639.65,-154.97C719.21,-142.05 905.82,-111.74 990.44,-98"/>
<polygon fill="black" stroke="black" points="990.88,-101.47 1000.19,-96.41 989.76,-94.56 990.88,-101.47"/>
</g>
<!-- features&#45;&gt;error -->
<g id="edge47" class="edge">
<title>features&#45;&gt;error</title>
<path fill="none" stroke="black" d="M602.53,-143.7C602.53,-136.41 602.53,-127.73 602.53,-119.54"/>
<polygon fill="black" stroke="black" points="606.03,-119.62 602.53,-109.62 599.03,-119.62 606.03,-119.62"/>
</g>
</g>
</svg>
