<?xml version="1.0" encoding="UTF-8" standalone="no"?>
<!DOCTYPE svg PUBLIC "-//W3C//DTD SVG 1.1//EN"
 "http://www.w3.org/Graphics/SVG/1.1/DTD/svg11.dtd">
<!-- Generated by graphviz version 8.0.2 (20230410.1723)
 -->
<!-- Title: G Pages: 1 -->
<svg width="1184pt" height="548pt"
 viewBox="0.00 0.00 1183.85 548.00" xmlns="http://www.w3.org/2000/svg" xmlns:xlink="http://www.w3.org/1999/xlink">
<g id="graph0" class="graph" transform="scale(1 1) rotate(0) translate(4 544)">
<title>G</title>
<polygon fill="white" stroke="none" points="-4,4 -4,-544 1179.85,-544 1179.85,4 -4,4"/>
<!-- resource_account -->
<g id="node1" class="node">
<title>resource_account</title>
<ellipse fill="none" stroke="black" cx="572.82" cy="-522" rx="72.29" ry="18"/>
<text text-anchor="middle" x="572.82" y="-518.3" font-family="Times,serif" font-size="14.00">resource_account</text>
</g>
<!-- bcs -->
<g id="node2" class="node">
<title>bcs</title>
<ellipse fill="none" stroke="black" cx="374.82" cy="-162" rx="27" ry="18"/>
<text text-anchor="middle" x="374.82" y="-158.3" font-family="Times,serif" font-size="14.00">bcs</text>
</g>
<!-- resource_account&#45;&gt;bcs -->
<g id="edge1" class="edge">
<title>resource_account&#45;&gt;bcs</title>
<path fill="none" stroke="black" d="M501.42,-518.65C403.52,-511.95 226.57,-487.07 110.82,-396 53.45,-350.86 49.94,-322.71 31.82,-252 2.16,-136.26 173.05,-200.08 290.82,-180 306.48,-177.33 323.69,-173.93 338.44,-170.87"/>
<polygon fill="black" stroke="black" points="339.1,-174.1 348.16,-168.62 337.66,-167.25 339.1,-174.1"/>
</g>
<!-- account -->
<g id="node3" class="node">
<title>account</title>
<ellipse fill="none" stroke="black" cx="572.82" cy="-450" rx="38.19" ry="18"/>
<text text-anchor="middle" x="572.82" y="-446.3" font-family="Times,serif" font-size="14.00">account</text>
</g>
<!-- resource_account&#45;&gt;account -->
<g id="edge2" class="edge">
<title>resource_account&#45;&gt;account</title>
<path fill="none" stroke="black" d="M572.82,-503.7C572.82,-496.24 572.82,-487.32 572.82,-478.97"/>
<polygon fill="black" stroke="black" points="576.32,-479.1 572.82,-469.1 569.32,-479.1 576.32,-479.1"/>
</g>
<!-- timestamp -->
<g id="node4" class="node">
<title>timestamp</title>
<ellipse fill="none" stroke="black" cx="1061.82" cy="-378" rx="48.19" ry="18"/>
<text text-anchor="middle" x="1061.82" y="-374.3" font-family="Times,serif" font-size="14.00">timestamp</text>
</g>
<!-- resource_account&#45;&gt;timestamp -->
<g id="edge3" class="edge">
<title>resource_account&#45;&gt;timestamp</title>
<path fill="none" stroke="black" d="M618.39,-507.77C710.96,-480.89 920.23,-420.12 1014.37,-392.78"/>
<polygon fill="black" stroke="black" points="1015.1,-395.92 1023.72,-389.77 1013.15,-389.2 1015.1,-395.92"/>
</g>
<!-- account&#45;&gt;bcs -->
<g id="edge8" class="edge">
<title>account&#45;&gt;bcs</title>
<path fill="none" stroke="black" d="M534.88,-446.96C459.81,-442.26 295.67,-428.49 250.82,-396 192.38,-353.67 192.98,-322.09 175.82,-252 172.02,-236.46 166.07,-228.69 175.82,-216 185.81,-203 283.59,-181.43 338.27,-170.24"/>
<polygon fill="black" stroke="black" points="338.81,-173.5 347.91,-168.08 337.41,-166.64 338.81,-173.5"/>
</g>
<!-- vector -->
<g id="node5" class="node">
<title>vector</title>
<ellipse fill="none" stroke="black" cx="251.82" cy="-18" rx="32.49" ry="18"/>
<text text-anchor="middle" x="251.82" y="-14.3" font-family="Times,serif" font-size="14.00">vector</text>
</g>
<!-- account&#45;&gt;vector -->
<g id="edge4" class="edge">
<title>account&#45;&gt;vector</title>
<path fill="none" stroke="black" d="M610.83,-447.79C731.53,-443.62 1100.68,-428.32 1142.82,-396 1176.3,-370.33 1175.82,-349.19 1175.82,-307 1175.82,-307 1175.82,-307 1175.82,-161 1175.82,-93.16 1115.68,-94.9 1051.82,-72 910.72,-21.4 440.74,-18.43 295.18,-18.76"/>
<polygon fill="black" stroke="black" points="295.46,-15.26 285.48,-18.79 295.49,-22.26 295.46,-15.26"/>
</g>
<!-- option -->
<g id="node6" class="node">
<title>option</title>
<ellipse fill="none" stroke="black" cx="190.82" cy="-90" rx="33.29" ry="18"/>
<text text-anchor="middle" x="190.82" y="-86.3" font-family="Times,serif" font-size="14.00">option</text>
</g>
<!-- account&#45;&gt;option -->
<g id="edge5" class="edge">
<title>account&#45;&gt;option</title>
<path fill="none" stroke="black" d="M534.27,-448.64C436.53,-447.08 181.81,-438.92 110.82,-396 11.24,-335.8 -40.22,-228.46 39.82,-144 67.93,-114.34 113.58,-101.27 147.34,-95.51"/>
<polygon fill="black" stroke="black" points="147.5,-98.87 156.85,-93.89 146.43,-91.96 147.5,-98.87"/>
</g>
<!-- signer -->
<g id="node7" class="node">
<title>signer</title>
<ellipse fill="none" stroke="black" cx="1010.82" cy="-90" rx="32.49" ry="18"/>
<text text-anchor="middle" x="1010.82" y="-86.3" font-family="Times,serif" font-size="14.00">signer</text>
</g>
<!-- account&#45;&gt;signer -->
<g id="edge6" class="edge">
<title>account&#45;&gt;signer</title>
<path fill="none" stroke="black" d="M611.07,-447.86C728.96,-444 1081.03,-429.73 1118.82,-396 1149,-369.07 1137.82,-347.45 1137.82,-307 1137.82,-307 1137.82,-307 1137.82,-233 1137.82,-176.14 1080.54,-131.6 1042.92,-108.49"/>
<polygon fill="black" stroke="black" points="1045.2,-105.18 1034.82,-103.08 1041.63,-111.2 1045.2,-105.18"/>
</g>
<!-- error -->
<g id="node8" class="node">
<title>error</title>
<ellipse fill="none" stroke="black" cx="590.82" cy="-90" rx="27.9" ry="18"/>
<text text-anchor="middle" x="590.82" y="-86.3" font-family="Times,serif" font-size="14.00">error</text>
</g>
<!-- account&#45;&gt;error -->
<g id="edge7" class="edge">
<title>account&#45;&gt;error</title>
<path fill="none" stroke="black" d="M584.73,-432.67C600.61,-409.76 627.87,-366.14 637.82,-324 656.2,-246.14 666.21,-218.79 637.82,-144 633.21,-131.85 624.4,-120.7 615.64,-111.8"/>
<polygon fill="black" stroke="black" points="618.4,-109.64 608.74,-105.29 613.57,-114.71 618.4,-109.64"/>
</g>
<!-- type_info -->
<g id="node9" class="node">
<title>type_info</title>
<ellipse fill="none" stroke="black" cx="452.82" cy="-234" rx="44.39" ry="18"/>
<text text-anchor="middle" x="452.82" y="-230.3" font-family="Times,serif" font-size="14.00">type_info</text>
</g>
<!-- account&#45;&gt;type_info -->
<g id="edge9" class="edge">
<title>account&#45;&gt;type_info</title>
<path fill="none" stroke="black" d="M549.05,-435.56C534.41,-426.18 516.32,-412.43 504.82,-396 476.07,-354.92 462.54,-297.04 456.72,-263.03"/>
<polygon fill="black" stroke="black" points="460.07,-262.79 455.03,-253.47 453.15,-263.9 460.07,-262.79"/>
</g>
<!-- table -->
<g id="node10" class="node">
<title>table</title>
<ellipse fill="none" stroke="black" cx="695.82" cy="-378" rx="27.9" ry="18"/>
<text text-anchor="middle" x="695.82" y="-374.3" font-family="Times,serif" font-size="14.00">table</text>
</g>
<!-- account&#45;&gt;table -->
<g id="edge10" class="edge">
<title>account&#45;&gt;table</title>
<path fill="none" stroke="black" d="M596.54,-435.5C616.3,-424.25 644.57,-408.17 665.9,-396.03"/>
<polygon fill="black" stroke="black" points="667.48,-398.59 674.44,-390.6 664.02,-392.5 667.48,-398.59"/>
</g>
<!-- system_addresses -->
<g id="node11" class="node">
<title>system_addresses</title>
<ellipse fill="none" stroke="black" cx="871.82" cy="-306" rx="73.39" ry="18"/>
<text text-anchor="middle" x="871.82" y="-302.3" font-family="Times,serif" font-size="14.00">system_addresses</text>
</g>
<!-- account&#45;&gt;system_addresses -->
<g id="edge11" class="edge">
<title>account&#45;&gt;system_addresses</title>
<path fill="none" stroke="black" d="M610.73,-446.7C704.89,-440.6 943.54,-422.63 966.82,-396 977.35,-383.96 974.92,-373.8 966.82,-360 957.71,-344.49 942.24,-333.19 926.39,-325.1"/>
<polygon fill="black" stroke="black" points="928.06,-321.56 917.52,-320.48 925.09,-327.89 928.06,-321.56"/>
</g>
<!-- hash -->
<g id="node12" class="node">
<title>hash</title>
<ellipse fill="none" stroke="black" cx="211.82" cy="-234" rx="27" ry="18"/>
<text text-anchor="middle" x="211.82" y="-230.3" font-family="Times,serif" font-size="14.00">hash</text>
</g>
<!-- account&#45;&gt;hash -->
<g id="edge12" class="edge">
<title>account&#45;&gt;hash</title>
<path fill="none" stroke="black" d="M534.44,-448.29C480.08,-445.82 378.93,-435.73 303.82,-396 263.54,-374.69 252.72,-363.96 230.82,-324 220.56,-305.27 215.84,-281.51 213.67,-263.25"/>
<polygon fill="black" stroke="black" points="217.06,-263.02 212.6,-253.42 210.1,-263.71 217.06,-263.02"/>
</g>
<!-- ed25519 -->
<g id="node13" class="node">
<title>ed25519</title>
<ellipse fill="none" stroke="black" cx="311.82" cy="-306" rx="40.89" ry="18"/>
<text text-anchor="middle" x="311.82" y="-302.3" font-family="Times,serif" font-size="14.00">ed25519</text>
</g>
<!-- account&#45;&gt;ed25519 -->
<g id="edge13" class="edge">
<title>account&#45;&gt;ed25519</title>
<path fill="none" stroke="black" d="M535.12,-446.4C471.98,-441.22 348.95,-427.3 320.82,-396 306.16,-379.68 304.94,-354.27 306.79,-334.77"/>
<polygon fill="black" stroke="black" points="310.36,-335.45 308.15,-325.09 303.41,-334.56 310.36,-335.45"/>
</g>
<!-- multi_ed25519 -->
<g id="node14" class="node">
<title>multi_ed25519</title>
<ellipse fill="none" stroke="black" cx="393.82" cy="-378" rx="64.19" ry="18"/>
<text text-anchor="middle" x="393.82" y="-374.3" font-family="Times,serif" font-size="14.00">multi_ed25519</text>
</g>
<!-- account&#45;&gt;multi_ed25519 -->
<g id="edge14" class="edge">
<title>account&#45;&gt;multi_ed25519</title>
<path fill="none" stroke="black" d="M544.06,-437.75C516.03,-426.79 472.94,-409.94 440.09,-397.09"/>
<polygon fill="black" stroke="black" points="441.84,-393.63 431.25,-393.25 439.29,-400.15 441.84,-393.63"/>
</g>
<!-- guid -->
<g id="node15" class="node">
<title>guid</title>
<ellipse fill="none" stroke="black" cx="601.82" cy="-306" rx="27" ry="18"/>
<text text-anchor="middle" x="601.82" y="-302.3" font-family="Times,serif" font-size="14.00">guid</text>
</g>
<!-- account&#45;&gt;guid -->
<g id="edge15" class="edge">
<title>account&#45;&gt;guid</title>
<path fill="none" stroke="black" d="M576.38,-431.59C581.32,-407.4 590.31,-363.36 596.17,-334.65"/>
<polygon fill="black" stroke="black" points="599.76,-335.61 598.33,-325.11 592.9,-334.21 599.76,-335.61"/>
</g>
<!-- from_bcs -->
<g id="node16" class="node">
<title>from_bcs</title>
<ellipse fill="none" stroke="black" cx="84.82" cy="-234" rx="44.39" ry="18"/>
<text text-anchor="middle" x="84.82" y="-230.3" font-family="Times,serif" font-size="14.00">from_bcs</text>
</g>
<!-- account&#45;&gt;from_bcs -->
<g id="edge16" class="edge">
<title>account&#45;&gt;from_bcs</title>
<path fill="none" stroke="black" d="M534.23,-449.25C440.23,-449.1 202.78,-443.87 142.82,-396 102.18,-363.55 90,-300.2 86.36,-263.38"/>
<polygon fill="black" stroke="black" points="89.77,-263.1 85.45,-253.43 82.79,-263.68 89.77,-263.1"/>
</g>
<!-- event -->
<g id="node17" class="node">
<title>event</title>
<ellipse fill="none" stroke="black" cx="543.82" cy="-378" rx="29.8" ry="18"/>
<text text-anchor="middle" x="543.82" y="-374.3" font-family="Times,serif" font-size="14.00">event</text>
</g>
<!-- account&#45;&gt;event -->
<g id="edge17" class="edge">
<title>account&#45;&gt;event</title>
<path fill="none" stroke="black" d="M565.8,-432.05C562.52,-424.14 558.55,-414.54 554.88,-405.69"/>
<polygon fill="black" stroke="black" points="557.84,-404.69 550.78,-396.79 551.37,-407.37 557.84,-404.69"/>
</g>
<!-- create_signer -->
<g id="node18" class="node">
<title>create_signer</title>
<ellipse fill="none" stroke="black" cx="899.82" cy="-378" rx="57.69" ry="18"/>
<text text-anchor="middle" x="899.82" y="-374.3" font-family="Times,serif" font-size="14.00">create_signer</text>
</g>
<!-- account&#45;&gt;create_signer -->
<g id="edge18" class="edge">
<title>account&#45;&gt;create_signer</title>
<path fill="none" stroke="black" d="M607.84,-442.41C657.88,-432.87 752.66,-414.33 832.82,-396 837.16,-395.01 841.66,-393.94 846.16,-392.85"/>
<polygon fill="black" stroke="black" points="846.77,-396.06 855.64,-390.28 845.1,-389.27 846.77,-396.06"/>
</g>
<!-- chain_id -->
<g id="node19" class="node">
<title>chain_id</title>
<ellipse fill="none" stroke="black" cx="782.82" cy="-378" rx="40.89" ry="18"/>
<text text-anchor="middle" x="782.82" y="-374.3" font-family="Times,serif" font-size="14.00">chain_id</text>
</g>
<!-- account&#45;&gt;chain_id -->
<g id="edge19" class="edge">
<title>account&#45;&gt;chain_id</title>
<path fill="none" stroke="black" d="M603.52,-438.91C635.75,-428.3 687.88,-411.08 732.82,-396 735.41,-395.13 738.07,-394.24 740.75,-393.33"/>
<polygon fill="black" stroke="black" points="741.74,-396.35 750.09,-389.83 739.5,-389.72 741.74,-396.35"/>
</g>
<!-- timestamp&#45;&gt;error -->
<g id="edge20" class="edge">
<title>timestamp&#45;&gt;error</title>
<path fill="none" stroke="black" d="M1044.18,-360.95C1023.36,-342.37 987.31,-311.33 953.82,-288 849.56,-215.36 819.64,-202.48 706.82,-144 679.25,-129.71 647.08,-115.17 623.61,-104.94"/>
<polygon fill="black" stroke="black" points="625.38,-101.46 614.81,-100.7 622.6,-107.89 625.38,-101.46"/>
</g>
<!-- timestamp&#45;&gt;system_addresses -->
<g id="edge21" class="edge">
<title>timestamp&#45;&gt;system_addresses</title>
<path fill="none" stroke="black" d="M1028.29,-364.65C998.65,-353.73 955.02,-337.65 921.36,-325.25"/>
<polygon fill="black" stroke="black" points="922.85,-321.7 912.26,-321.53 920.43,-328.27 922.85,-321.7"/>
</g>
<!-- option&#45;&gt;vector -->
<g id="edge22" class="edge">
<title>option&#45;&gt;vector</title>
<path fill="none" stroke="black" d="M204.36,-73.46C212.26,-64.4 222.38,-52.79 231.25,-42.61"/>
<polygon fill="black" stroke="black" points="234.39,-45.33 238.32,-35.49 229.11,-40.73 234.39,-45.33"/>
</g>
<!-- type_info&#45;&gt;bcs -->
<g id="edge26" class="edge">
<title>type_info&#45;&gt;bcs</title>
<path fill="none" stroke="black" d="M435.12,-217.12C424.27,-207.38 410.25,-194.79 398.46,-184.21"/>
<polygon fill="black" stroke="black" points="401.12,-182 391.34,-177.93 396.44,-187.21 401.12,-182"/>
</g>
<!-- type_info&#45;&gt;error -->
<g id="edge24" class="edge">
<title>type_info&#45;&gt;error</title>
<path fill="none" stroke="black" d="M461.11,-216.14C471.05,-197.07 489.13,-165.86 510.82,-144 525.21,-129.51 544.15,-116.74 560,-107.37"/>
<polygon fill="black" stroke="black" points="561.46,-110 568.39,-102 557.98,-103.93 561.46,-110"/>
</g>
<!-- string -->
<g id="node20" class="node">
<title>string</title>
<ellipse fill="none" stroke="black" cx="250.82" cy="-162" rx="30.59" ry="18"/>
<text text-anchor="middle" x="250.82" y="-158.3" font-family="Times,serif" font-size="14.00">string</text>
</g>
<!-- type_info&#45;&gt;string -->
<g id="edge23" class="edge">
<title>type_info&#45;&gt;string</title>
<path fill="none" stroke="black" d="M419.92,-221.6C383.33,-208.92 324.44,-188.51 286.7,-175.43"/>
<polygon fill="black" stroke="black" points="288.25,-171.92 277.65,-171.95 285.95,-178.53 288.25,-171.92"/>
</g>
<!-- features -->
<g id="node21" class="node">
<title>features</title>
<ellipse fill="none" stroke="black" cx="590.82" cy="-162" rx="38.19" ry="18"/>
<text text-anchor="middle" x="590.82" y="-158.3" font-family="Times,serif" font-size="14.00">features</text>
</g>
<!-- type_info&#45;&gt;features -->
<g id="edge25" class="edge">
<title>type_info&#45;&gt;features</title>
<path fill="none" stroke="black" d="M479.76,-219.34C501.45,-208.34 532.1,-192.79 555.71,-180.81"/>
<polygon fill="black" stroke="black" points="557.02,-183.56 564.35,-175.92 553.85,-177.32 557.02,-183.56"/>
</g>
<!-- system_addresses&#45;&gt;signer -->
<g id="edge27" class="edge">
<title>system_addresses&#45;&gt;signer</title>
<path fill="none" stroke="black" d="M882.96,-287.85C907.34,-250.32 965.52,-160.75 994.22,-116.55"/>
<polygon fill="black" stroke="black" points="997.69,-118.64 1000.2,-108.35 991.82,-114.83 997.69,-118.64"/>
</g>
<!-- system_addresses&#45;&gt;error -->
<g id="edge28" class="edge">
<title>system_addresses&#45;&gt;error</title>
<path fill="none" stroke="black" d="M852.32,-288.4C816.93,-258.5 739.45,-194.06 670.82,-144 654.1,-131.8 634.77,-118.96 619.3,-108.98"/>
<polygon fill="black" stroke="black" points="621.53,-105.61 611.23,-103.16 617.76,-111.5 621.53,-105.61"/>
</g>
<!-- ed25519&#45;&gt;bcs -->
<g id="edge31" class="edge">
<title>ed25519&#45;&gt;bcs</title>
<path fill="none" stroke="black" d="M319.42,-287.87C330.26,-263.43 350.27,-218.33 363.04,-189.55"/>
<polygon fill="black" stroke="black" points="366.54,-191.31 367.39,-180.75 360.14,-188.47 366.54,-191.31"/>
</g>
<!-- ed25519&#45;&gt;option -->
<g id="edge29" class="edge">
<title>ed25519&#45;&gt;option</title>
<path fill="none" stroke="black" d="M301.08,-288.28C288.98,-269.88 268.32,-239.79 247.82,-216 232.84,-198.62 222.02,-200.02 210.82,-180 200.37,-161.32 195.38,-137.55 193,-119.28"/>
<polygon fill="black" stroke="black" points="196.38,-119 191.8,-109.44 189.42,-119.76 196.38,-119"/>
</g>
<!-- ed25519&#45;&gt;error -->
<g id="edge30" class="edge">
<title>ed25519&#45;&gt;error</title>
<path fill="none" stroke="black" d="M309.04,-287.72C304.83,-254.93 300.95,-183.47 338.82,-144 367.81,-113.8 489.22,-99.42 552.34,-93.88"/>
<polygon fill="black" stroke="black" points="552.37,-97.3 562.04,-92.98 551.78,-90.33 552.37,-97.3"/>
</g>
<!-- ed25519&#45;&gt;type_info -->
<g id="edge32" class="edge">
<title>ed25519&#45;&gt;type_info</title>
<path fill="none" stroke="black" d="M338.34,-291.83C360.22,-280.97 391.5,-265.44 415.84,-253.36"/>
<polygon fill="black" stroke="black" points="417.06,-256.17 424.46,-248.58 413.94,-249.9 417.06,-256.17"/>
</g>
<!-- ed25519&#45;&gt;hash -->
<g id="edge33" class="edge">
<title>ed25519&#45;&gt;hash</title>
<path fill="none" stroke="black" d="M290.61,-290.15C275.42,-279.52 254.86,-265.13 238.55,-253.71"/>
<polygon fill="black" stroke="black" points="241.18,-250.58 230.98,-247.71 237.17,-256.31 241.18,-250.58"/>
</g>
<!-- multi_ed25519&#45;&gt;bcs -->
<g id="edge37" class="edge">
<title>multi_ed25519&#45;&gt;bcs</title>
<path fill="none" stroke="black" d="M392.3,-359.85C389.03,-322.99 381.3,-235.92 377.3,-190.96"/>
<polygon fill="black" stroke="black" points="380.72,-190.88 376.35,-181.23 373.75,-191.5 380.72,-190.88"/>
</g>
<!-- multi_ed25519&#45;&gt;option -->
<g id="edge34" class="edge">
<title>multi_ed25519&#45;&gt;option</title>
<path fill="none" stroke="black" d="M329.55,-376.07C244.93,-370.95 99.03,-347.79 31.82,-252 -10.84,-191.2 96.24,-132.39 155.15,-105.8"/>
<polygon fill="black" stroke="black" points="156.11,-108.75 163.85,-101.51 153.29,-102.35 156.11,-108.75"/>
</g>
<!-- multi_ed25519&#45;&gt;error -->
<g id="edge35" class="edge">
<title>multi_ed25519&#45;&gt;error</title>
<path fill="none" stroke="black" d="M405.56,-360.13C418.78,-341.62 441.37,-311.41 463.82,-288 480.84,-270.25 491.93,-272.29 505.82,-252 534.56,-210.01 518.01,-187.85 543.82,-144 550.41,-132.8 559.57,-121.82 568.05,-112.78"/>
<polygon fill="black" stroke="black" points="570.08,-115.68 574.56,-106.08 565.07,-110.8 570.08,-115.68"/>
</g>
<!-- multi_ed25519&#45;&gt;hash -->
<g id="edge38" class="edge">
<title>multi_ed25519&#45;&gt;hash</title>
<path fill="none" stroke="black" d="M345,-365.95C318.06,-357.89 285.39,-344.69 261.82,-324 242.83,-307.33 229.48,-281.62 221.38,-262.11"/>
<polygon fill="black" stroke="black" points="224.33,-261.04 217.42,-253 217.81,-263.59 224.33,-261.04"/>
</g>
<!-- multi_ed25519&#45;&gt;ed25519 -->
<g id="edge39" class="edge">
<title>multi_ed25519&#45;&gt;ed25519</title>
<path fill="none" stroke="black" d="M374.39,-360.41C363.57,-351.17 349.94,-339.54 338.17,-329.49"/>
<polygon fill="black" stroke="black" points="340.87,-326.34 330.99,-322.51 336.32,-331.67 340.87,-326.34"/>
</g>
<!-- multi_ed25519&#45;&gt;features -->
<g id="edge36" class="edge">
<title>multi_ed25519&#45;&gt;features</title>
<path fill="none" stroke="black" d="M417.01,-360.8C447.52,-338.7 501.62,-296.71 538.82,-252 554.78,-232.82 568.78,-208.14 578.22,-189.63"/>
<polygon fill="black" stroke="black" points="581.79,-191.31 583.11,-180.8 575.52,-188.2 581.79,-191.31"/>
</g>
<!-- from_bcs&#45;&gt;string -->
<g id="edge40" class="edge">
<title>from_bcs&#45;&gt;string</title>
<path fill="none" stroke="black" d="M114.88,-220.32C143.47,-208.27 186.43,-190.16 216.38,-177.53"/>
<polygon fill="black" stroke="black" points="217.53,-180.42 225.38,-173.31 214.81,-173.97 217.53,-180.42"/>
</g>
<!-- event&#45;&gt;bcs -->
<g id="edge41" class="edge">
<title>event&#45;&gt;bcs</title>
<path fill="none" stroke="black" d="M544.62,-359.69C545.15,-327.49 541.73,-257.85 505.82,-216 482.1,-188.34 441.8,-174.94 412.16,-168.56"/>
<polygon fill="black" stroke="black" points="412.86,-164.93 402.37,-166.44 411.51,-171.8 412.86,-164.93"/>
</g>
<!-- event&#45;&gt;guid -->
<g id="edge42" class="edge">
<title>event&#45;&gt;guid</title>
<path fill="none" stroke="black" d="M556.69,-361.46C564.31,-352.28 574.1,-340.46 582.61,-330.19"/>
<polygon fill="black" stroke="black" points="585.7,-332.94 589.38,-323.01 580.31,-328.48 585.7,-332.94"/>
</g>
<!-- chain_id&#45;&gt;system_addresses -->
<g id="edge43" class="edge">
<title>chain_id&#45;&gt;system_addresses</title>
<path fill="none" stroke="black" d="M802.13,-361.81C813.88,-352.58 829.11,-340.6 842.33,-330.19"/>
<polygon fill="black" stroke="black" points="843.98,-332.56 849.68,-323.63 839.66,-327.06 843.98,-332.56"/>
</g>
<!-- string&#45;&gt;vector -->
<g id="edge44" class="edge">
<title>string&#45;&gt;vector</title>
<path fill="none" stroke="black" d="M250.94,-143.59C251.11,-119.5 251.42,-75.75 251.62,-47.03"/>
<polygon fill="black" stroke="black" points="255.13,-47.14 251.7,-37.11 248.13,-47.09 255.13,-47.14"/>
</g>
<!-- string&#45;&gt;option -->
<g id="edge45" class="edge">
<title>string&#45;&gt;option</title>
<path fill="none" stroke="black" d="M237.51,-145.46C229.74,-136.4 219.78,-124.79 211.06,-114.61"/>
<polygon fill="black" stroke="black" points="213.27,-112.81 204.1,-107.49 207.95,-117.36 213.27,-112.81"/>
</g>
<!-- features&#45;&gt;signer -->
<g id="edge46" class="edge">
<title>features&#45;&gt;signer</title>
<path fill="none" stroke="black" d="M626.63,-155.03C704.01,-142.14 886.48,-111.72 969,-97.97"/>
<polygon fill="black" stroke="black" points="969.44,-101.28 978.72,-96.18 968.29,-94.37 969.44,-101.28"/>
</g>
<!-- features&#45;&gt;error -->
<g id="edge47" class="edge">
<title>features&#45;&gt;error</title>
<path fill="none" stroke="black" d="M590.82,-143.7C590.82,-136.24 590.82,-127.32 590.82,-118.97"/>
<polygon fill="black" stroke="black" points="594.32,-119.1 590.82,-109.1 587.32,-119.1 594.32,-119.1"/>
</g>
</g>
</svg>
