<?xml version="1.0" encoding="UTF-8" standalone="no"?>
<!DOCTYPE svg PUBLIC "-//W3C//DTD SVG 1.1//EN"
 "http://www.w3.org/Graphics/SVG/1.1/DTD/svg11.dtd">
<!-- Generated by graphviz version 9.0.0 (20230911.1827)
 -->
<!-- Title: G Pages: 1 -->
<svg width="203pt" height="332pt"
 viewBox="0.00 0.00 203.41 332.00" xmlns="http://www.w3.org/2000/svg" xmlns:xlink="http://www.w3.org/1999/xlink">
<g id="graph0" class="graph" transform="scale(1 1) rotate(0) translate(4 328)">
<title>G</title>
<polygon fill="white" stroke="none" points="-4,4 -4,-328 199.41,-328 199.41,4 -4,4"/>
<!-- resource_account -->
<g id="node1" class="node">
<title>resource_account</title>
<ellipse fill="none" stroke="black" cx="75.41" cy="-18" rx="75.41" ry="18"/>
<text text-anchor="middle" x="75.41" y="-12.95" font-family="Times,serif" font-size="14.00">resource_account</text>
</g>
<!-- incentives -->
<g id="node2" class="node">
<title>incentives</title>
<ellipse fill="none" stroke="black" cx="113.41" cy="-90" rx="48.28" ry="18"/>
<text text-anchor="middle" x="113.41" y="-84.95" font-family="Times,serif" font-size="14.00">incentives</text>
</g>
<!-- incentives&#45;&gt;resource_account -->
<g id="edge1" class="edge">
<title>incentives&#45;&gt;resource_account</title>
<path fill="none" stroke="black" d="M104.21,-72.05C100.02,-64.35 94.96,-55.03 90.26,-46.36"/>
<polygon fill="black" stroke="black" points="93.35,-44.72 85.51,-37.61 87.2,-48.06 93.35,-44.72"/>
</g>
<!-- market -->
<g id="node3" class="node">
<title>market</title>
<ellipse fill="none" stroke="black" cx="94.41" cy="-306" rx="37.02" ry="18"/>
<text text-anchor="middle" x="94.41" y="-300.95" font-family="Times,serif" font-size="14.00">market</text>
</g>
<!-- market&#45;&gt;resource_account -->
<g id="edge2" class="edge">
<title>market&#45;&gt;resource_account</title>
<path fill="none" stroke="black" d="M87.73,-288.02C73.46,-249.54 42.37,-152.76 56.41,-72 57.86,-63.62 60.52,-54.82 63.4,-46.84"/>
<polygon fill="black" stroke="black" points="66.61,-48.25 66.97,-37.67 60.08,-45.72 66.61,-48.25"/>
</g>
<!-- market&#45;&gt;incentives -->
<g id="edge4" class="edge">
<title>market&#45;&gt;incentives</title>
<path fill="none" stroke="black" d="M92.5,-287.91C89.63,-258.33 85.41,-195.77 94.41,-144 95.86,-135.62 98.52,-126.82 101.4,-118.84"/>
<polygon fill="black" stroke="black" points="104.61,-120.25 104.97,-109.67 98.08,-117.72 104.61,-120.25"/>
</g>
<!-- registry -->
<g id="node4" class="node">
<title>registry</title>
<ellipse fill="none" stroke="black" cx="142.41" cy="-162" rx="39.07" ry="18"/>
<text text-anchor="middle" x="142.41" y="-156.95" font-family="Times,serif" font-size="14.00">registry</text>
</g>
<!-- market&#45;&gt;registry -->
<g id="edge6" class="edge">
<title>market&#45;&gt;registry</title>
<path fill="none" stroke="black" d="M100.2,-287.87C108.34,-263.78 123.27,-219.6 133.02,-190.77"/>
<polygon fill="black" stroke="black" points="136.22,-192.22 136.11,-181.62 129.59,-189.98 136.22,-192.22"/>
</g>
<!-- user -->
<g id="node5" class="node">
<title>user</title>
<ellipse fill="none" stroke="black" cx="168.41" cy="-234" rx="27" ry="18"/>
<text text-anchor="middle" x="168.41" y="-228.95" font-family="Times,serif" font-size="14.00">user</text>
</g>
<!-- market&#45;&gt;user -->
<g id="edge7" class="edge">
<title>market&#45;&gt;user</title>
<path fill="none" stroke="black" d="M110.83,-289.46C121.01,-279.84 134.23,-267.32 145.44,-256.72"/>
<polygon fill="black" stroke="black" points="147.58,-259.52 152.44,-250.11 142.77,-254.44 147.58,-259.52"/>
</g>
<!-- registry&#45;&gt;incentives -->
<g id="edge3" class="edge">
<title>registry&#45;&gt;incentives</title>
<path fill="none" stroke="black" d="M135.39,-144.05C132.23,-136.43 128.42,-127.23 124.86,-118.65"/>
<polygon fill="black" stroke="black" points="128.2,-117.57 121.14,-109.67 121.74,-120.25 128.2,-117.57"/>
</g>
<!-- user&#45;&gt;registry -->
<g id="edge5" class="edge">
<title>user&#45;&gt;registry</title>
<path fill="none" stroke="black" d="M162.11,-216.05C159.27,-208.4 155.84,-199.16 152.64,-190.56"/>
<polygon fill="black" stroke="black" points="155.93,-189.36 149.17,-181.21 149.37,-191.8 155.93,-189.36"/>
</g>
</g>
</svg>
