<?xml version="1.0" encoding="UTF-8" standalone="no"?>
<!DOCTYPE svg PUBLIC "-//W3C//DTD SVG 1.1//EN"
 "http://www.w3.org/Graphics/SVG/1.1/DTD/svg11.dtd">
<!-- Generated by graphviz version 7.1.0 (20230121.1956)
 -->
<!-- Title: G Pages: 1 -->
<svg width="266pt" height="332pt"
 viewBox="0.00 0.00 266.24 332.00" xmlns="http://www.w3.org/2000/svg" xmlns:xlink="http://www.w3.org/1999/xlink">
<g id="graph0" class="graph" transform="scale(1 1) rotate(0) translate(4 328)">
<title>G</title>
<polygon fill="white" stroke="none" points="-4,4 -4,-328 262.24,-328 262.24,4 -4,4"/>
<!-- resource_account -->
<g id="node1" class="node">
<title>resource_account</title>
<ellipse fill="none" stroke="black" cx="72.14" cy="-18" rx="72.29" ry="18"/>
<text text-anchor="middle" x="72.14" y="-14.3" font-family="Times,serif" font-size="14.00">resource_account</text>
</g>
<!-- incentives -->
<g id="node2" class="node">
<title>incentives</title>
<ellipse fill="none" stroke="black" cx="117.14" cy="-90" rx="46.29" ry="18"/>
<text text-anchor="middle" x="117.14" y="-86.3" font-family="Times,serif" font-size="14.00">incentives</text>
</g>
<!-- incentives&#45;&gt;resource_account -->
<g id="edge1" class="edge">
<title>incentives&#45;&gt;resource_account</title>
<path fill="none" stroke="black" d="M106.25,-72.05C101.19,-64.18 95.04,-54.62 89.37,-45.79"/>
<polygon fill="black" stroke="black" points="92.42,-44.07 84.07,-37.55 86.53,-47.85 92.42,-44.07"/>
</g>
<!-- market -->
<g id="node3" class="node">
<title>market</title>
<ellipse fill="none" stroke="black" cx="85.14" cy="-306" rx="36" ry="18"/>
<text text-anchor="middle" x="85.14" y="-302.3" font-family="Times,serif" font-size="14.00">market</text>
</g>
<!-- market&#45;&gt;resource_account -->
<g id="edge2" class="edge">
<title>market&#45;&gt;resource_account</title>
<path fill="none" stroke="black" d="M80.61,-287.93C78.04,-277.61 74.97,-264.13 73.14,-252 61.21,-172.74 54.68,-151.8 62.14,-72 62.91,-63.86 64.31,-55.1 65.83,-47.1"/>
<polygon fill="black" stroke="black" points="69.21,-48.05 67.78,-37.55 62.35,-46.65 69.21,-48.05"/>
</g>
<!-- market&#45;&gt;incentives -->
<g id="edge4" class="edge">
<title>market&#45;&gt;incentives</title>
<path fill="none" stroke="black" d="M82.16,-287.67C77.65,-257.72 71.05,-194.62 85.14,-144 87.77,-134.58 92.57,-125.16 97.67,-116.93"/>
<polygon fill="black" stroke="black" points="100.44,-119.08 103.07,-108.82 94.61,-115.2 100.44,-119.08"/>
</g>
<!-- registry -->
<g id="node4" class="node">
<title>registry</title>
<ellipse fill="none" stroke="black" cx="132.14" cy="-162" rx="37.89" ry="18"/>
<text text-anchor="middle" x="132.14" y="-158.3" font-family="Times,serif" font-size="14.00">registry</text>
</g>
<!-- market&#45;&gt;registry -->
<g id="edge7" class="edge">
<title>market&#45;&gt;registry</title>
<path fill="none" stroke="black" d="M90.81,-287.87C98.79,-263.78 113.41,-219.6 122.95,-190.77"/>
<polygon fill="black" stroke="black" points="126.16,-192.22 125.98,-181.63 119.51,-190.02 126.16,-192.22"/>
</g>
<!-- user -->
<g id="node6" class="node">
<title>user</title>
<ellipse fill="none" stroke="black" cx="159.14" cy="-234" rx="27" ry="18"/>
<text text-anchor="middle" x="159.14" y="-230.3" font-family="Times,serif" font-size="14.00">user</text>
</g>
<!-- market&#45;&gt;user -->
<g id="edge8" class="edge">
<title>market&#45;&gt;user</title>
<path fill="none" stroke="black" d="M101.2,-289.81C111.36,-280.2 124.67,-267.61 135.96,-256.93"/>
<polygon fill="black" stroke="black" points="138.17,-259.66 143.03,-250.25 133.36,-254.57 138.17,-259.66"/>
</g>
<!-- registry&#45;&gt;incentives -->
<g id="edge3" class="edge">
<title>registry&#45;&gt;incentives</title>
<path fill="none" stroke="black" d="M128.44,-143.7C126.86,-136.32 124.97,-127.52 123.2,-119.25"/>
<polygon fill="black" stroke="black" points="126.64,-118.63 121.13,-109.58 119.8,-120.1 126.64,-118.63"/>
</g>
<!-- govern -->
<g id="node5" class="node">
<title>govern</title>
<ellipse fill="none" stroke="black" cx="223.14" cy="-162" rx="35.19" ry="18"/>
<text text-anchor="middle" x="223.14" y="-158.3" font-family="Times,serif" font-size="14.00">govern</text>
</g>
<!-- govern&#45;&gt;incentives -->
<g id="edge5" class="edge">
<title>govern&#45;&gt;incentives</title>
<path fill="none" stroke="black" d="M202.2,-147.17C187.03,-137.15 166.25,-123.43 149.02,-112.05"/>
<polygon fill="black" stroke="black" points="151.41,-109.44 141.14,-106.85 147.56,-115.28 151.41,-109.44"/>
</g>
<!-- user&#45;&gt;registry -->
<g id="edge6" class="edge">
<title>user&#45;&gt;registry</title>
<path fill="none" stroke="black" d="M152.61,-216.05C149.62,-208.32 146.01,-198.96 142.66,-190.27"/>
<polygon fill="black" stroke="black" points="146.03,-189.27 139.16,-181.2 139.5,-191.79 146.03,-189.27"/>
</g>
</g>
</svg>
