<?xml version="1.0" encoding="UTF-8" standalone="no"?>
<!DOCTYPE svg PUBLIC "-//W3C//DTD SVG 1.1//EN"
 "http://www.w3.org/Graphics/SVG/1.1/DTD/svg11.dtd">
<!-- Generated by graphviz version 8.0.5 (20230430.1635)
 -->
<!-- Title: G Pages: 1 -->
<svg width="203pt" height="332pt"
 viewBox="0.00 0.00 203.41 332.00" xmlns="http://www.w3.org/2000/svg" xmlns:xlink="http://www.w3.org/1999/xlink">
<g id="graph0" class="graph" transform="scale(1 1) rotate(0) translate(4 328)">
<title>G</title>
<polygon fill="white" stroke="none" points="-4,4 -4,-328 199.41,-328 199.41,4 -4,4"/>
<!-- resource_account -->
<g id="node1" class="node">
<title>resource_account</title>
<ellipse fill="none" stroke="black" cx="75.41" cy="-18" rx="75.41" ry="18"/>
<text text-anchor="middle" x="75.41" y="-12.95" font-family="Times,serif" font-size="14.00">resource_account</text>
</g>
<!-- incentives -->
<g id="node2" class="node">
<title>incentives</title>
<ellipse fill="none" stroke="black" cx="113.41" cy="-90" rx="48.28" ry="18"/>
<text text-anchor="middle" x="113.41" y="-84.95" font-family="Times,serif" font-size="14.00">incentives</text>
</g>
<!-- incentives&#45;&gt;resource_account -->
<g id="edge1" class="edge">
<title>incentives&#45;&gt;resource_account</title>
<path fill="none" stroke="black" d="M104.21,-72.05C99.93,-64.18 94.74,-54.62 89.95,-45.79"/>
<polygon fill="black" stroke="black" points="92.63,-44.39 84.78,-37.28 86.48,-47.73 92.63,-44.39"/>
</g>
<!-- market -->
<g id="node3" class="node">
<title>market</title>
<ellipse fill="none" stroke="black" cx="94.41" cy="-306" rx="37.02" ry="18"/>
<text text-anchor="middle" x="94.41" y="-300.95" font-family="Times,serif" font-size="14.00">market</text>
</g>
<!-- market&#45;&gt;resource_account -->
<g id="edge2" class="edge">
<title>market&#45;&gt;resource_account</title>
<path fill="none" stroke="black" d="M87.73,-288.02C73.46,-249.54 42.37,-152.76 56.41,-72 57.9,-63.43 60.65,-54.41 63.6,-46.29"/>
<polygon fill="black" stroke="black" points="67.14,-47.84 67.51,-37.25 60.62,-45.3 67.14,-47.84"/>
</g>
<!-- market&#45;&gt;incentives -->
<g id="edge4" class="edge">
<title>market&#45;&gt;incentives</title>
<path fill="none" stroke="black" d="M92.5,-287.91C89.63,-258.33 85.41,-195.77 94.41,-144 95.9,-135.43 98.65,-126.41 101.6,-118.29"/>
<polygon fill="black" stroke="black" points="105.14,-119.84 105.51,-109.25 98.62,-117.3 105.14,-119.84"/>
</g>
<!-- registry -->
<g id="node4" class="node">
<title>registry</title>
<ellipse fill="none" stroke="black" cx="142.41" cy="-162" rx="39.07" ry="18"/>
<text text-anchor="middle" x="142.41" y="-156.95" font-family="Times,serif" font-size="14.00">registry</text>
</g>
<!-- market&#45;&gt;registry -->
<g id="edge6" class="edge">
<title>market&#45;&gt;registry</title>
<path fill="none" stroke="black" d="M100.2,-287.87C108.38,-263.67 123.41,-219.21 133.15,-190.39"/>
<polygon fill="black" stroke="black" points="136.71,-191.78 136.6,-181.19 130.08,-189.54 136.71,-191.78"/>
</g>
<!-- user -->
<g id="node5" class="node">
<title>user</title>
<ellipse fill="none" stroke="black" cx="168.41" cy="-234" rx="27" ry="18"/>
<text text-anchor="middle" x="168.41" y="-228.95" font-family="Times,serif" font-size="14.00">user</text>
</g>
<!-- market&#45;&gt;user -->
<g id="edge7" class="edge">
<title>market&#45;&gt;user</title>
<path fill="none" stroke="black" d="M110.83,-289.46C121.11,-279.74 134.49,-267.08 145.77,-256.41"/>
<polygon fill="black" stroke="black" points="147.68,-259.48 152.54,-250.07 142.87,-254.39 147.68,-259.48"/>
</g>
<!-- registry&#45;&gt;incentives -->
<g id="edge3" class="edge">
<title>registry&#45;&gt;incentives</title>
<path fill="none" stroke="black" d="M135.39,-144.05C132.19,-136.35 128.33,-127.03 124.74,-118.36"/>
<polygon fill="black" stroke="black" points="127.62,-117.17 120.56,-109.28 121.16,-119.85 127.62,-117.17"/>
</g>
<!-- user&#45;&gt;registry -->
<g id="edge5" class="edge">
<title>user&#45;&gt;registry</title>
<path fill="none" stroke="black" d="M162.11,-216.05C159.21,-208.23 155.68,-198.75 152.43,-189.98"/>
<polygon fill="black" stroke="black" points="155.41,-188.94 148.64,-180.79 148.84,-191.38 155.41,-188.94"/>
</g>
</g>
</svg>
