<?xml version="1.0" encoding="UTF-8" standalone="no"?>
<!DOCTYPE svg PUBLIC "-//W3C//DTD SVG 1.1//EN"
 "http://www.w3.org/Graphics/SVG/1.1/DTD/svg11.dtd">
<!-- Generated by graphviz version 9.0.0 (20230911.1827)
 -->
<!-- Title: G Pages: 1 -->
<svg width="180pt" height="332pt"
 viewBox="0.00 0.00 179.91 332.00" xmlns="http://www.w3.org/2000/svg" xmlns:xlink="http://www.w3.org/1999/xlink">
<g id="graph0" class="graph" transform="scale(1 1) rotate(0) translate(4 328)">
<title>G</title>
<polygon fill="white" stroke="none" points="-4,4 -4,-328 175.91,-328 175.91,4 -4,4"/>
<!-- tablist -->
<g id="node1" class="node">
<title>tablist</title>
<ellipse fill="none" stroke="black" cx="109.91" cy="-18" rx="33.44" ry="18"/>
<text text-anchor="middle" x="109.91" y="-12.95" font-family="Times,serif" font-size="14.00">tablist</text>
</g>
<!-- incentives -->
<g id="node2" class="node">
<title>incentives</title>
<ellipse fill="none" stroke="black" cx="71.91" cy="-90" rx="48.28" ry="18"/>
<text text-anchor="middle" x="71.91" y="-84.95" font-family="Times,serif" font-size="14.00">incentives</text>
</g>
<!-- incentives&#45;&gt;tablist -->
<g id="edge1" class="edge">
<title>incentives&#45;&gt;tablist</title>
<path fill="none" stroke="black" d="M81.11,-72.05C85.41,-64.14 90.62,-54.54 95.43,-45.69"/>
<polygon fill="black" stroke="black" points="98.38,-47.58 100.08,-37.12 92.23,-44.24 98.38,-47.58"/>
</g>
<!-- registry -->
<g id="node3" class="node">
<title>registry</title>
<ellipse fill="none" stroke="black" cx="118.91" cy="-162" rx="39.07" ry="18"/>
<text text-anchor="middle" x="118.91" y="-156.95" font-family="Times,serif" font-size="14.00">registry</text>
</g>
<!-- registry&#45;&gt;tablist -->
<g id="edge2" class="edge">
<title>registry&#45;&gt;tablist</title>
<path fill="none" stroke="black" d="M123.71,-143.85C128.08,-125.86 133.23,-96.82 128.91,-72 127.44,-63.49 124.71,-54.54 121.78,-46.47"/>
<polygon fill="black" stroke="black" points="125.06,-45.23 118.16,-37.19 118.54,-47.78 125.06,-45.23"/>
</g>
<!-- registry&#45;&gt;incentives -->
<g id="edge5" class="edge">
<title>registry&#45;&gt;incentives</title>
<path fill="none" stroke="black" d="M107.78,-144.41C102.35,-136.34 95.7,-126.43 89.61,-117.35"/>
<polygon fill="black" stroke="black" points="92.62,-115.56 84.14,-109.21 86.81,-119.47 92.62,-115.56"/>
</g>
<!-- user -->
<g id="node4" class="node">
<title>user</title>
<ellipse fill="none" stroke="black" cx="144.91" cy="-234" rx="27" ry="18"/>
<text text-anchor="middle" x="144.91" y="-228.95" font-family="Times,serif" font-size="14.00">user</text>
</g>
<!-- user&#45;&gt;tablist -->
<g id="edge3" class="edge">
<title>user&#45;&gt;tablist</title>
<path fill="none" stroke="black" d="M153.59,-216.82C158.58,-206.59 164.34,-192.9 166.91,-180 170.04,-164.31 169.48,-159.79 166.91,-144 161.51,-110.7 157.26,-102.53 142.91,-72 138.59,-62.79 133,-53.22 127.66,-44.77"/>
<polygon fill="black" stroke="black" points="130.59,-42.87 122.19,-36.41 124.73,-46.7 130.59,-42.87"/>
</g>
<!-- user&#45;&gt;registry -->
<g id="edge7" class="edge">
<title>user&#45;&gt;registry</title>
<path fill="none" stroke="black" d="M138.62,-216.05C135.78,-208.4 132.35,-199.16 129.15,-190.56"/>
<polygon fill="black" stroke="black" points="132.44,-189.36 125.68,-181.21 125.88,-191.8 132.44,-189.36"/>
</g>
<!-- market -->
<g id="node5" class="node">
<title>market</title>
<ellipse fill="none" stroke="black" cx="70.91" cy="-306" rx="37.02" ry="18"/>
<text text-anchor="middle" x="70.91" y="-300.95" font-family="Times,serif" font-size="14.00">market</text>
</g>
<!-- market&#45;&gt;tablist -->
<g id="edge4" class="edge">
<title>market&#45;&gt;tablist</title>
<path fill="none" stroke="black" d="M59.21,-288.54C32.42,-248.67 -27.85,-144.83 14.91,-72 26.75,-51.84 49.34,-38.79 69.53,-30.68"/>
<polygon fill="black" stroke="black" points="70.51,-34.05 78.68,-27.3 68.09,-27.48 70.51,-34.05"/>
</g>
<!-- market&#45;&gt;incentives -->
<g id="edge6" class="edge">
<title>market&#45;&gt;incentives</title>
<path fill="none" stroke="black" d="M70.81,-287.61C70.65,-258.08 70.42,-196.27 70.91,-144 70.99,-136.06 71.13,-127.44 71.28,-119.51"/>
<polygon fill="black" stroke="black" points="74.77,-119.77 71.48,-109.7 67.78,-119.62 74.77,-119.77"/>
</g>
<!-- market&#45;&gt;registry -->
<g id="edge8" class="edge">
<title>market&#45;&gt;registry</title>
<path fill="none" stroke="black" d="M76.7,-287.87C84.85,-263.78 99.78,-219.6 109.53,-190.77"/>
<polygon fill="black" stroke="black" points="112.73,-192.22 112.62,-181.62 106.1,-189.98 112.73,-192.22"/>
</g>
<!-- market&#45;&gt;user -->
<g id="edge9" class="edge">
<title>market&#45;&gt;user</title>
<path fill="none" stroke="black" d="M87.34,-289.46C97.52,-279.84 110.74,-267.32 121.95,-256.72"/>
<polygon fill="black" stroke="black" points="124.09,-259.52 128.95,-250.11 119.28,-254.44 124.09,-259.52"/>
</g>
</g>
</svg>
