<?xml version="1.0" encoding="UTF-8" standalone="no"?>
<!DOCTYPE svg PUBLIC "-//W3C//DTD SVG 1.1//EN"
 "http://www.w3.org/Graphics/SVG/1.1/DTD/svg11.dtd">
<!-- Generated by graphviz version 7.1.0 (20230121.1956)
 -->
<!-- Title: G Pages: 1 -->
<svg width="244pt" height="188pt"
 viewBox="0.00 0.00 244.09 188.00" xmlns="http://www.w3.org/2000/svg" xmlns:xlink="http://www.w3.org/1999/xlink">
<g id="graph0" class="graph" transform="scale(1 1) rotate(0) translate(4 184)">
<title>G</title>
<polygon fill="white" stroke="none" points="-4,4 -4,-184 240.09,-184 240.09,4 -4,4"/>
<!-- tablist -->
<g id="node1" class="node">
<title>tablist</title>
<ellipse fill="none" stroke="black" cx="95.15" cy="-162" rx="32.49" ry="18"/>
<text text-anchor="middle" x="95.15" y="-158.3" font-family="Times,serif" font-size="14.00">tablist</text>
</g>
<!-- option -->
<g id="node2" class="node">
<title>option</title>
<ellipse fill="none" stroke="black" cx="33.15" cy="-90" rx="33.29" ry="18"/>
<text text-anchor="middle" x="33.15" y="-86.3" font-family="Times,serif" font-size="14.00">option</text>
</g>
<!-- tablist&#45;&gt;option -->
<g id="edge1" class="edge">
<title>tablist&#45;&gt;option</title>
<path fill="none" stroke="black" d="M81.39,-145.46C73.44,-136.49 63.28,-125.02 54.33,-114.92"/>
<polygon fill="black" stroke="black" points="57.12,-112.79 47.87,-107.62 51.88,-117.43 57.12,-112.79"/>
</g>
<!-- table_with_length -->
<g id="node3" class="node">
<title>table_with_length</title>
<ellipse fill="none" stroke="black" cx="158.15" cy="-90" rx="74.19" ry="18"/>
<text text-anchor="middle" x="158.15" y="-86.3" font-family="Times,serif" font-size="14.00">table_with_length</text>
</g>
<!-- tablist&#45;&gt;table_with_length -->
<g id="edge2" class="edge">
<title>tablist&#45;&gt;table_with_length</title>
<path fill="none" stroke="black" d="M109.13,-145.46C116.79,-136.95 126.48,-126.19 135.21,-116.48"/>
<polygon fill="black" stroke="black" points="137.78,-118.86 141.87,-109.09 132.58,-114.18 137.78,-118.86"/>
</g>
<!-- vector -->
<g id="node4" class="node">
<title>vector</title>
<ellipse fill="none" stroke="black" cx="33.15" cy="-18" rx="32.49" ry="18"/>
<text text-anchor="middle" x="33.15" y="-14.3" font-family="Times,serif" font-size="14.00">vector</text>
</g>
<!-- option&#45;&gt;vector -->
<g id="edge3" class="edge">
<title>option&#45;&gt;vector</title>
<path fill="none" stroke="black" d="M33.15,-71.7C33.15,-64.41 33.15,-55.73 33.15,-47.54"/>
<polygon fill="black" stroke="black" points="36.65,-47.62 33.15,-37.62 29.65,-47.62 36.65,-47.62"/>
</g>
<!-- error -->
<g id="node5" class="node">
<title>error</title>
<ellipse fill="none" stroke="black" cx="134.15" cy="-18" rx="27.9" ry="18"/>
<text text-anchor="middle" x="134.15" y="-14.3" font-family="Times,serif" font-size="14.00">error</text>
</g>
<!-- table_with_length&#45;&gt;error -->
<g id="edge4" class="edge">
<title>table_with_length&#45;&gt;error</title>
<path fill="none" stroke="black" d="M152.21,-71.7C149.59,-64.04 146.44,-54.85 143.51,-46.3"/>
<polygon fill="black" stroke="black" points="146.89,-45.38 140.34,-37.05 140.27,-47.65 146.89,-45.38"/>
</g>
<!-- table -->
<g id="node6" class="node">
<title>table</title>
<ellipse fill="none" stroke="black" cx="208.15" cy="-18" rx="27.9" ry="18"/>
<text text-anchor="middle" x="208.15" y="-14.3" font-family="Times,serif" font-size="14.00">table</text>
</g>
<!-- table_with_length&#45;&gt;table -->
<g id="edge5" class="edge">
<title>table_with_length&#45;&gt;table</title>
<path fill="none" stroke="black" d="M170.25,-72.05C176.26,-63.65 183.63,-53.32 190.27,-44.02"/>
<polygon fill="black" stroke="black" points="193,-46.23 195.96,-36.06 187.3,-42.16 193,-46.23"/>
</g>
</g>
</svg>
