<?xml version="1.0" encoding="UTF-8" standalone="no"?>
<!DOCTYPE svg PUBLIC "-//W3C//DTD SVG 1.1//EN"
 "http://www.w3.org/Graphics/SVG/1.1/DTD/svg11.dtd">
<!-- Generated by graphviz version 8.0.2 (20230410.1723)
 -->
<!-- Title: G Pages: 1 -->
<svg width="227pt" height="332pt"
 viewBox="0.00 0.00 226.99 332.00" xmlns="http://www.w3.org/2000/svg" xmlns:xlink="http://www.w3.org/1999/xlink">
<g id="graph0" class="graph" transform="scale(1 1) rotate(0) translate(4 328)">
<title>G</title>
<polygon fill="white" stroke="none" points="-4,4 -4,-328 222.99,-328 222.99,4 -4,4"/>
<!-- tablist -->
<g id="node1" class="node">
<title>tablist</title>
<ellipse fill="none" stroke="black" cx="121.89" cy="-18" rx="32.49" ry="18"/>
<text text-anchor="middle" x="121.89" y="-14.3" font-family="Times,serif" font-size="14.00">tablist</text>
</g>
<!-- incentives -->
<g id="node2" class="node">
<title>incentives</title>
<ellipse fill="none" stroke="black" cx="80.89" cy="-90" rx="46.29" ry="18"/>
<text text-anchor="middle" x="80.89" y="-86.3" font-family="Times,serif" font-size="14.00">incentives</text>
</g>
<!-- incentives&#45;&gt;tablist -->
<g id="edge1" class="edge">
<title>incentives&#45;&gt;tablist</title>
<path fill="none" stroke="black" d="M90.82,-72.05C95.62,-63.85 101.49,-53.83 106.83,-44.71"/>
<polygon fill="black" stroke="black" points="110.31,-46.7 112.34,-36.31 104.27,-43.17 110.31,-46.7"/>
</g>
<!-- registry -->
<g id="node3" class="node">
<title>registry</title>
<ellipse fill="none" stroke="black" cx="167.89" cy="-162" rx="37.89" ry="18"/>
<text text-anchor="middle" x="167.89" y="-158.3" font-family="Times,serif" font-size="14.00">registry</text>
</g>
<!-- registry&#45;&gt;tablist -->
<g id="edge2" class="edge">
<title>registry&#45;&gt;tablist</title>
<path fill="none" stroke="black" d="M162.34,-143.87C154.5,-119.67 140.1,-75.21 130.77,-46.39"/>
<polygon fill="black" stroke="black" points="133.87,-45.62 127.46,-37.19 127.21,-47.78 133.87,-45.62"/>
</g>
<!-- registry&#45;&gt;incentives -->
<g id="edge5" class="edge">
<title>registry&#45;&gt;incentives</title>
<path fill="none" stroke="black" d="M149.44,-146.15C137.58,-136.61 121.94,-124.03 108.6,-113.29"/>
<polygon fill="black" stroke="black" points="111.21,-110.09 101.22,-106.55 106.82,-115.55 111.21,-110.09"/>
</g>
<!-- user -->
<g id="node4" class="node">
<title>user</title>
<ellipse fill="none" stroke="black" cx="167.89" cy="-234" rx="27" ry="18"/>
<text text-anchor="middle" x="167.89" y="-230.3" font-family="Times,serif" font-size="14.00">user</text>
</g>
<!-- user&#45;&gt;tablist -->
<g id="edge3" class="edge">
<title>user&#45;&gt;tablist</title>
<path fill="none" stroke="black" d="M184.81,-219.71C195.68,-210.03 208.87,-195.87 214.89,-180 220.57,-165.04 219.92,-159.19 214.89,-144 201.35,-103.12 168.68,-64.73 145.91,-41.56"/>
<polygon fill="black" stroke="black" points="148.88,-39.58 139.32,-35.01 143.94,-44.54 148.88,-39.58"/>
</g>
<!-- user&#45;&gt;registry -->
<g id="edge8" class="edge">
<title>user&#45;&gt;registry</title>
<path fill="none" stroke="black" d="M167.89,-215.7C167.89,-208.24 167.89,-199.32 167.89,-190.97"/>
<polygon fill="black" stroke="black" points="171.39,-191.1 167.89,-181.1 164.39,-191.1 171.39,-191.1"/>
</g>
<!-- market -->
<g id="node5" class="node">
<title>market</title>
<ellipse fill="none" stroke="black" cx="62.89" cy="-306" rx="36" ry="18"/>
<text text-anchor="middle" x="62.89" y="-302.3" font-family="Times,serif" font-size="14.00">market</text>
</g>
<!-- market&#45;&gt;tablist -->
<g id="edge4" class="edge">
<title>market&#45;&gt;tablist</title>
<path fill="none" stroke="black" d="M48.22,-289.17C40.03,-279.27 30.56,-265.82 25.89,-252 0.31,-176.2 -16.19,-140.03 25.89,-72 38.57,-51.5 62.19,-38.32 82.83,-30.22"/>
<polygon fill="black" stroke="black" points="83.76,-33.25 91.97,-26.55 81.37,-26.66 83.76,-33.25"/>
</g>
<!-- market&#45;&gt;incentives -->
<g id="edge6" class="edge">
<title>market&#45;&gt;incentives</title>
<path fill="none" stroke="black" d="M54.06,-288.47C39.4,-258.68 13.46,-194.41 32.89,-144 37.22,-132.76 45.17,-122.43 53.36,-113.94"/>
<polygon fill="black" stroke="black" points="55.42,-116.85 60.18,-107.38 50.56,-111.81 55.42,-116.85"/>
</g>
<!-- market&#45;&gt;registry -->
<g id="edge9" class="edge">
<title>market&#45;&gt;registry</title>
<path fill="none" stroke="black" d="M74.94,-288.71C93.12,-264.13 127.72,-217.33 149.19,-188.29"/>
<polygon fill="black" stroke="black" points="152.53,-190.66 155.67,-180.54 146.91,-186.5 152.53,-190.66"/>
</g>
<!-- market&#45;&gt;user -->
<g id="edge10" class="edge">
<title>market&#45;&gt;user</title>
<path fill="none" stroke="black" d="M83.89,-291C100.2,-280.13 122.94,-264.97 140.65,-253.16"/>
<polygon fill="black" stroke="black" points="142.01,-255.79 148.39,-247.33 138.13,-249.97 142.01,-255.79"/>
</g>
<!-- govern -->
<g id="node6" class="node">
<title>govern</title>
<ellipse fill="none" stroke="black" cx="76.89" cy="-162" rx="35.19" ry="18"/>
<text text-anchor="middle" x="76.89" y="-158.3" font-family="Times,serif" font-size="14.00">govern</text>
</g>
<!-- govern&#45;&gt;incentives -->
<g id="edge7" class="edge">
<title>govern&#45;&gt;incentives</title>
<path fill="none" stroke="black" d="M77.88,-143.7C78.31,-136.24 78.82,-127.32 79.3,-118.97"/>
<polygon fill="black" stroke="black" points="82.84,-119.29 79.92,-109.1 75.85,-118.89 82.84,-119.29"/>
</g>
</g>
</svg>
