<?xml version="1.0" encoding="UTF-8" standalone="no"?>
<!DOCTYPE svg PUBLIC "-//W3C//DTD SVG 1.1//EN"
 "http://www.w3.org/Graphics/SVG/1.1/DTD/svg11.dtd">
<!-- Generated by graphviz version 8.0.5 (20230430.1635)
 -->
<!-- Title: G Pages: 1 -->
<svg width="180pt" height="332pt"
 viewBox="0.00 0.00 179.91 332.00" xmlns="http://www.w3.org/2000/svg" xmlns:xlink="http://www.w3.org/1999/xlink">
<g id="graph0" class="graph" transform="scale(1 1) rotate(0) translate(4 328)">
<title>G</title>
<polygon fill="white" stroke="none" points="-4,4 -4,-328 175.91,-328 175.91,4 -4,4"/>
<!-- tablist -->
<g id="node1" class="node">
<title>tablist</title>
<ellipse fill="none" stroke="black" cx="109.91" cy="-18" rx="33.44" ry="18"/>
<text text-anchor="middle" x="109.91" y="-12.95" font-family="Times,serif" font-size="14.00">tablist</text>
</g>
<!-- incentives -->
<g id="node2" class="node">
<title>incentives</title>
<ellipse fill="none" stroke="black" cx="71.91" cy="-90" rx="48.28" ry="18"/>
<text text-anchor="middle" x="71.91" y="-84.95" font-family="Times,serif" font-size="14.00">incentives</text>
</g>
<!-- incentives&#45;&gt;tablist -->
<g id="edge1" class="edge">
<title>incentives&#45;&gt;tablist</title>
<path fill="none" stroke="black" d="M81.11,-72.05C85.45,-64.06 90.74,-54.33 95.58,-45.4"/>
<polygon fill="black" stroke="black" points="99.11,-47.25 100.8,-36.79 92.95,-43.91 99.11,-47.25"/>
</g>
<!-- registry -->
<g id="node3" class="node">
<title>registry</title>
<ellipse fill="none" stroke="black" cx="118.91" cy="-162" rx="39.07" ry="18"/>
<text text-anchor="middle" x="118.91" y="-156.95" font-family="Times,serif" font-size="14.00">registry</text>
</g>
<!-- registry&#45;&gt;tablist -->
<g id="edge2" class="edge">
<title>registry&#45;&gt;tablist</title>
<path fill="none" stroke="black" d="M123.71,-143.85C128.08,-125.86 133.23,-96.82 128.91,-72 127.4,-63.3 124.59,-54.13 121.58,-45.91"/>
<polygon fill="black" stroke="black" points="124.52,-44.81 117.61,-36.78 118,-47.37 124.52,-44.81"/>
</g>
<!-- registry&#45;&gt;incentives -->
<g id="edge5" class="edge">
<title>registry&#45;&gt;incentives</title>
<path fill="none" stroke="black" d="M107.78,-144.41C102.3,-136.25 95.56,-126.22 89.42,-117.07"/>
<polygon fill="black" stroke="black" points="91.78,-115.31 83.3,-108.96 85.97,-119.21 91.78,-115.31"/>
</g>
<!-- user -->
<g id="node4" class="node">
<title>user</title>
<ellipse fill="none" stroke="black" cx="144.91" cy="-234" rx="27" ry="18"/>
<text text-anchor="middle" x="144.91" y="-228.95" font-family="Times,serif" font-size="14.00">user</text>
</g>
<!-- user&#45;&gt;tablist -->
<g id="edge3" class="edge">
<title>user&#45;&gt;tablist</title>
<path fill="none" stroke="black" d="M153.59,-216.82C158.58,-206.59 164.34,-192.9 166.91,-180 170.04,-164.31 169.48,-159.79 166.91,-144 161.51,-110.7 157.26,-102.53 142.91,-72 138.49,-62.59 132.75,-52.79 127.3,-44.22"/>
<polygon fill="black" stroke="black" points="129.77,-42.59 121.36,-36.14 123.91,-46.43 129.77,-42.59"/>
</g>
<!-- user&#45;&gt;registry -->
<g id="edge7" class="edge">
<title>user&#45;&gt;registry</title>
<path fill="none" stroke="black" d="M138.62,-216.05C135.71,-208.23 132.19,-198.75 128.93,-189.98"/>
<polygon fill="black" stroke="black" points="131.91,-188.94 125.15,-180.79 125.35,-191.38 131.91,-188.94"/>
</g>
<!-- market -->
<g id="node5" class="node">
<title>market</title>
<ellipse fill="none" stroke="black" cx="70.91" cy="-306" rx="37.02" ry="18"/>
<text text-anchor="middle" x="70.91" y="-300.95" font-family="Times,serif" font-size="14.00">market</text>
</g>
<!-- market&#45;&gt;tablist -->
<g id="edge4" class="edge">
<title>market&#45;&gt;tablist</title>
<path fill="none" stroke="black" d="M59.21,-288.54C32.42,-248.67 -27.85,-144.83 14.91,-72 26.8,-51.75 49.55,-38.67 69.81,-30.57"/>
<polygon fill="black" stroke="black" points="70.93,-33.52 79.1,-26.78 68.51,-26.95 70.93,-33.52"/>
</g>
<!-- market&#45;&gt;incentives -->
<g id="edge6" class="edge">
<title>market&#45;&gt;incentives</title>
<path fill="none" stroke="black" d="M70.81,-287.61C70.65,-258.08 70.42,-196.27 70.91,-144 70.99,-135.87 71.13,-127.04 71.29,-118.96"/>
<polygon fill="black" stroke="black" points="74.8,-119.25 71.51,-109.18 67.81,-119.11 74.8,-119.25"/>
</g>
<!-- market&#45;&gt;registry -->
<g id="edge8" class="edge">
<title>market&#45;&gt;registry</title>
<path fill="none" stroke="black" d="M76.7,-287.87C84.89,-263.67 99.91,-219.21 109.66,-190.39"/>
<polygon fill="black" stroke="black" points="113.22,-191.78 113.1,-181.19 106.59,-189.54 113.22,-191.78"/>
</g>
<!-- market&#45;&gt;user -->
<g id="edge9" class="edge">
<title>market&#45;&gt;user</title>
<path fill="none" stroke="black" d="M87.34,-289.46C97.62,-279.74 111,-267.08 122.28,-256.41"/>
<polygon fill="black" stroke="black" points="124.19,-259.48 129.05,-250.07 119.38,-254.39 124.19,-259.48"/>
</g>
</g>
</svg>
