<?xml version="1.0" encoding="UTF-8" standalone="no"?>
<!DOCTYPE svg PUBLIC "-//W3C//DTD SVG 1.1//EN"
 "http://www.w3.org/Graphics/SVG/1.1/DTD/svg11.dtd">
<!-- Generated by graphviz version 7.1.0 (20230121.1956)
 -->
<!-- Title: G Pages: 1 -->
<svg width="227pt" height="332pt"
 viewBox="0.00 0.00 226.99 332.00" xmlns="http://www.w3.org/2000/svg" xmlns:xlink="http://www.w3.org/1999/xlink">
<g id="graph0" class="graph" transform="scale(1 1) rotate(0) translate(4 328)">
<title>G</title>
<polygon fill="white" stroke="none" points="-4,4 -4,-328 222.99,-328 222.99,4 -4,4"/>
<!-- tablist -->
<g id="node1" class="node">
<title>tablist</title>
<ellipse fill="none" stroke="black" cx="121.89" cy="-18" rx="32.49" ry="18"/>
<text text-anchor="middle" x="121.89" y="-14.3" font-family="Times,serif" font-size="14.00">tablist</text>
</g>
<!-- incentives -->
<g id="node2" class="node">
<title>incentives</title>
<ellipse fill="none" stroke="black" cx="80.89" cy="-90" rx="46.29" ry="18"/>
<text text-anchor="middle" x="80.89" y="-86.3" font-family="Times,serif" font-size="14.00">incentives</text>
</g>
<!-- incentives&#45;&gt;tablist -->
<g id="edge1" class="edge">
<title>incentives&#45;&gt;tablist</title>
<path fill="none" stroke="black" d="M90.82,-72.05C95.57,-63.94 101.37,-54.04 106.66,-45.01"/>
<polygon fill="black" stroke="black" points="109.54,-47.01 111.58,-36.61 103.5,-43.47 109.54,-47.01"/>
</g>
<!-- registry -->
<g id="node3" class="node">
<title>registry</title>
<ellipse fill="none" stroke="black" cx="167.89" cy="-162" rx="37.89" ry="18"/>
<text text-anchor="middle" x="167.89" y="-158.3" font-family="Times,serif" font-size="14.00">registry</text>
</g>
<!-- registry&#45;&gt;tablist -->
<g id="edge2" class="edge">
<title>registry&#45;&gt;tablist</title>
<path fill="none" stroke="black" d="M162.34,-143.87C154.54,-119.78 140.23,-75.6 130.89,-46.77"/>
<polygon fill="black" stroke="black" points="134.34,-46.06 127.93,-37.63 127.68,-48.22 134.34,-46.06"/>
</g>
<!-- registry&#45;&gt;incentives -->
<g id="edge5" class="edge">
<title>registry&#45;&gt;incentives</title>
<path fill="none" stroke="black" d="M149.44,-146.15C137.69,-136.7 122.24,-124.26 108.98,-113.6"/>
<polygon fill="black" stroke="black" points="111.39,-111.04 101.4,-107.5 107,-116.5 111.39,-111.04"/>
</g>
<!-- user -->
<g id="node4" class="node">
<title>user</title>
<ellipse fill="none" stroke="black" cx="167.89" cy="-234" rx="27" ry="18"/>
<text text-anchor="middle" x="167.89" y="-230.3" font-family="Times,serif" font-size="14.00">user</text>
</g>
<!-- user&#45;&gt;tablist -->
<g id="edge3" class="edge">
<title>user&#45;&gt;tablist</title>
<path fill="none" stroke="black" d="M184.81,-219.71C195.68,-210.03 208.87,-195.87 214.89,-180 220.57,-165.04 219.92,-159.19 214.89,-144 201.41,-103.29 168.96,-65.07 146.21,-41.86"/>
<polygon fill="black" stroke="black" points="148.95,-39.65 139.39,-35.08 144.01,-44.61 148.95,-39.65"/>
</g>
<!-- user&#45;&gt;registry -->
<g id="edge8" class="edge">
<title>user&#45;&gt;registry</title>
<path fill="none" stroke="black" d="M167.89,-215.7C167.89,-208.41 167.89,-199.73 167.89,-191.54"/>
<polygon fill="black" stroke="black" points="171.39,-191.62 167.89,-181.62 164.39,-191.62 171.39,-191.62"/>
</g>
<!-- market -->
<g id="node5" class="node">
<title>market</title>
<ellipse fill="none" stroke="black" cx="62.89" cy="-306" rx="36" ry="18"/>
<text text-anchor="middle" x="62.89" y="-302.3" font-family="Times,serif" font-size="14.00">market</text>
</g>
<!-- market&#45;&gt;tablist -->
<g id="edge4" class="edge">
<title>market&#45;&gt;tablist</title>
<path fill="none" stroke="black" d="M48.22,-289.17C40.03,-279.27 30.56,-265.82 25.89,-252 0.31,-176.2 -16.19,-140.03 25.89,-72 38.46,-51.69 61.76,-38.56 82.26,-30.45"/>
<polygon fill="black" stroke="black" points="83.35,-33.78 91.54,-27.06 80.95,-27.2 83.35,-33.78"/>
</g>
<!-- market&#45;&gt;incentives -->
<g id="edge6" class="edge">
<title>market&#45;&gt;incentives</title>
<path fill="none" stroke="black" d="M54.06,-288.47C39.4,-258.68 13.46,-194.41 32.89,-144 37.18,-132.88 45,-122.65 53.1,-114.2"/>
<polygon fill="black" stroke="black" points="55.34,-116.9 60.09,-107.43 50.47,-111.87 55.34,-116.9"/>
</g>
<!-- market&#45;&gt;registry -->
<g id="edge9" class="edge">
<title>market&#45;&gt;registry</title>
<path fill="none" stroke="black" d="M74.94,-288.71C93.04,-264.23 127.42,-217.74 148.91,-188.67"/>
<polygon fill="black" stroke="black" points="151.63,-190.88 154.77,-180.75 146.01,-186.71 151.63,-190.88"/>
</g>
<!-- market&#45;&gt;user -->
<g id="edge10" class="edge">
<title>market&#45;&gt;user</title>
<path fill="none" stroke="black" d="M83.89,-291C100.05,-280.23 122.53,-265.25 140.16,-253.49"/>
<polygon fill="black" stroke="black" points="141.75,-256.63 148.13,-248.17 137.87,-250.81 141.75,-256.63"/>
</g>
<!-- govern -->
<g id="node6" class="node">
<title>govern</title>
<ellipse fill="none" stroke="black" cx="76.89" cy="-162" rx="35.19" ry="18"/>
<text text-anchor="middle" x="76.89" y="-158.3" font-family="Times,serif" font-size="14.00">govern</text>
</g>
<!-- govern&#45;&gt;incentives -->
<g id="edge7" class="edge">
<title>govern&#45;&gt;incentives</title>
<path fill="none" stroke="black" d="M77.88,-143.7C78.3,-136.41 78.79,-127.73 79.26,-119.54"/>
<polygon fill="black" stroke="black" points="82.75,-119.8 79.83,-109.62 75.76,-119.4 82.75,-119.8"/>
</g>
</g>
</svg>
