<?xml version="1.0" encoding="UTF-8" standalone="no"?>
<!DOCTYPE svg PUBLIC "-//W3C//DTD SVG 1.1//EN"
 "http://www.w3.org/Graphics/SVG/1.1/DTD/svg11.dtd">
<!-- Generated by graphviz version 9.0.0 (20230911.1827)
 -->
<!-- Title: G Pages: 1 -->
<svg width="252pt" height="188pt"
 viewBox="0.00 0.00 252.29 188.00" xmlns="http://www.w3.org/2000/svg" xmlns:xlink="http://www.w3.org/1999/xlink">
<g id="graph0" class="graph" transform="scale(1 1) rotate(0) translate(4 184)">
<title>G</title>
<polygon fill="white" stroke="none" points="-4,4 -4,-184 248.29,-184 248.29,4 -4,4"/>
<!-- tablist -->
<g id="node1" class="node">
<title>tablist</title>
<ellipse fill="none" stroke="black" cx="99.46" cy="-162" rx="33.44" ry="18"/>
<text text-anchor="middle" x="99.46" y="-156.95" font-family="Times,serif" font-size="14.00">tablist</text>
</g>
<!-- option -->
<g id="node2" class="node">
<title>option</title>
<ellipse fill="none" stroke="black" cx="34.46" cy="-90" rx="34.46" ry="18"/>
<text text-anchor="middle" x="34.46" y="-84.95" font-family="Times,serif" font-size="14.00">option</text>
</g>
<!-- tablist&#45;&gt;option -->
<g id="edge1" class="edge">
<title>tablist&#45;&gt;option</title>
<path fill="none" stroke="black" d="M85.04,-145.46C76.7,-136.49 66.05,-125.02 56.67,-114.92"/>
<polygon fill="black" stroke="black" points="59.25,-112.55 49.88,-107.6 54.12,-117.31 59.25,-112.55"/>
</g>
<!-- table_with_length -->
<g id="node3" class="node">
<title>table_with_length</title>
<ellipse fill="none" stroke="black" cx="164.46" cy="-90" rx="77.45" ry="18"/>
<text text-anchor="middle" x="164.46" y="-84.95" font-family="Times,serif" font-size="14.00">table_with_length</text>
</g>
<!-- tablist&#45;&gt;table_with_length -->
<g id="edge2" class="edge">
<title>tablist&#45;&gt;table_with_length</title>
<path fill="none" stroke="black" d="M113.89,-145.46C121.87,-136.87 131.99,-125.97 141.07,-116.19"/>
<polygon fill="black" stroke="black" points="143.44,-118.78 147.68,-109.07 138.31,-114.02 143.44,-118.78"/>
</g>
<!-- vector -->
<g id="node4" class="node">
<title>vector</title>
<ellipse fill="none" stroke="black" cx="34.46" cy="-18" rx="33.95" ry="18"/>
<text text-anchor="middle" x="34.46" y="-12.95" font-family="Times,serif" font-size="14.00">vector</text>
</g>
<!-- option&#45;&gt;vector -->
<g id="edge3" class="edge">
<title>option&#45;&gt;vector</title>
<path fill="none" stroke="black" d="M34.46,-71.7C34.46,-64.41 34.46,-55.73 34.46,-47.54"/>
<polygon fill="black" stroke="black" points="37.96,-47.62 34.46,-37.62 30.96,-47.62 37.96,-47.62"/>
</g>
<!-- error -->
<g id="node5" class="node">
<title>error</title>
<ellipse fill="none" stroke="black" cx="139.46" cy="-18" rx="28.83" ry="18"/>
<text text-anchor="middle" x="139.46" y="-12.95" font-family="Times,serif" font-size="14.00">error</text>
</g>
<!-- table_with_length&#45;&gt;error -->
<g id="edge4" class="edge">
<title>table_with_length&#45;&gt;error</title>
<path fill="none" stroke="black" d="M158.28,-71.7C155.55,-64.04 152.27,-54.85 149.21,-46.3"/>
<polygon fill="black" stroke="black" points="152.57,-45.29 145.91,-37.05 145.97,-47.64 152.57,-45.29"/>
</g>
<!-- table -->
<g id="node6" class="node">
<title>table</title>
<ellipse fill="none" stroke="black" cx="215.46" cy="-18" rx="28.83" ry="18"/>
<text text-anchor="middle" x="215.46" y="-12.95" font-family="Times,serif" font-size="14.00">table</text>
</g>
<!-- table_with_length&#45;&gt;table -->
<g id="edge5" class="edge">
<title>table_with_length&#45;&gt;table</title>
<path fill="none" stroke="black" d="M176.81,-72.05C182.93,-63.65 190.45,-53.32 197.23,-44.02"/>
<polygon fill="black" stroke="black" points="199.98,-46.2 203.04,-36.05 194.32,-42.07 199.98,-46.2"/>
</g>
</g>
</svg>
