<?xml version="1.0" encoding="UTF-8" standalone="no"?>
<!DOCTYPE svg PUBLIC "-//W3C//DTD SVG 1.1//EN"
 "http://www.w3.org/Graphics/SVG/1.1/DTD/svg11.dtd">
<!-- Generated by graphviz version 8.1.0 (20230707.0739)
 -->
<!-- Title: G Pages: 1 -->
<svg width="252pt" height="188pt"
 viewBox="0.00 0.00 252.29 188.00" xmlns="http://www.w3.org/2000/svg" xmlns:xlink="http://www.w3.org/1999/xlink">
<g id="graph0" class="graph" transform="scale(1 1) rotate(0) translate(4 184)">
<title>G</title>
<polygon fill="white" stroke="none" points="-4,4 -4,-184 248.29,-184 248.29,4 -4,4"/>
<!-- tablist -->
<g id="node1" class="node">
<title>tablist</title>
<ellipse fill="none" stroke="black" cx="99.46" cy="-162" rx="33.44" ry="18"/>
<text text-anchor="middle" x="99.46" y="-156.95" font-family="Times,serif" font-size="14.00">tablist</text>
</g>
<!-- option -->
<g id="node2" class="node">
<title>option</title>
<ellipse fill="none" stroke="black" cx="34.46" cy="-90" rx="34.46" ry="18"/>
<text text-anchor="middle" x="34.46" y="-84.95" font-family="Times,serif" font-size="14.00">option</text>
</g>
<!-- tablist&#45;&gt;option -->
<g id="edge1" class="edge">
<title>tablist&#45;&gt;option</title>
<path fill="none" stroke="black" d="M85.04,-145.46C76.54,-136.31 65.62,-124.55 56.1,-114.31"/>
<polygon fill="black" stroke="black" points="59.22,-112.44 49.85,-107.49 54.09,-117.2 59.22,-112.44"/>
</g>
<!-- table_with_length -->
<g id="node3" class="node">
<title>table_with_length</title>
<ellipse fill="none" stroke="black" cx="164.46" cy="-90" rx="77.45" ry="18"/>
<text text-anchor="middle" x="164.46" y="-84.95" font-family="Times,serif" font-size="14.00">table_with_length</text>
</g>
<!-- tablist&#45;&gt;table_with_length -->
<g id="edge2" class="edge">
<title>tablist&#45;&gt;table_with_length</title>
<path fill="none" stroke="black" d="M113.89,-145.46C121.95,-136.78 132.19,-125.75 141.35,-115.89"/>
<polygon fill="black" stroke="black" points="143.47,-118.67 147.71,-108.96 138.34,-113.91 143.47,-118.67"/>
</g>
<!-- vector -->
<g id="node4" class="node">
<title>vector</title>
<ellipse fill="none" stroke="black" cx="34.46" cy="-18" rx="33.95" ry="18"/>
<text text-anchor="middle" x="34.46" y="-12.95" font-family="Times,serif" font-size="14.00">vector</text>
</g>
<!-- option&#45;&gt;vector -->
<g id="edge3" class="edge">
<title>option&#45;&gt;vector</title>
<path fill="none" stroke="black" d="M34.46,-71.7C34.46,-64.24 34.46,-55.32 34.46,-46.97"/>
<polygon fill="black" stroke="black" points="37.96,-47.1 34.46,-37.1 30.96,-47.1 37.96,-47.1"/>
</g>
<!-- error -->
<g id="node5" class="node">
<title>error</title>
<ellipse fill="none" stroke="black" cx="139.46" cy="-18" rx="28.83" ry="18"/>
<text text-anchor="middle" x="139.46" y="-12.95" font-family="Times,serif" font-size="14.00">error</text>
</g>
<!-- table_with_length&#45;&gt;error -->
<g id="edge4" class="edge">
<title>table_with_length&#45;&gt;error</title>
<path fill="none" stroke="black" d="M158.28,-71.7C155.49,-63.87 152.12,-54.44 149.01,-45.73"/>
<polygon fill="black" stroke="black" points="152.06,-44.86 145.4,-36.62 145.47,-47.22 152.06,-44.86"/>
</g>
<!-- table -->
<g id="node6" class="node">
<title>table</title>
<ellipse fill="none" stroke="black" cx="215.46" cy="-18" rx="28.83" ry="18"/>
<text text-anchor="middle" x="215.46" y="-12.95" font-family="Times,serif" font-size="14.00">table</text>
</g>
<!-- table_with_length&#45;&gt;table -->
<g id="edge5" class="edge">
<title>table_with_length&#45;&gt;table</title>
<path fill="none" stroke="black" d="M176.81,-72.05C183.06,-63.47 190.77,-52.89 197.66,-43.44"/>
<polygon fill="black" stroke="black" points="200.87,-45.97 203.93,-35.83 195.21,-41.85 200.87,-45.97"/>
</g>
</g>
</svg>
