<?xml version="1.0" encoding="UTF-8" standalone="no"?>
<!DOCTYPE svg PUBLIC "-//W3C//DTD SVG 1.1//EN"
 "http://www.w3.org/Graphics/SVG/1.1/DTD/svg11.dtd">
<!-- Generated by graphviz version 8.0.2 (20230410.1723)
 -->
<!-- Title: G Pages: 1 -->
<svg width="2552pt" height="836pt"
 viewBox="0.00 0.00 2552.00 836.00" xmlns="http://www.w3.org/2000/svg" xmlns:xlink="http://www.w3.org/1999/xlink">
<g id="graph0" class="graph" transform="scale(1 1) rotate(0) translate(4 832)">
<title>G</title>
<polygon fill="white" stroke="none" points="-4,4 -4,-832 2548,-832 2548,4 -4,4"/>
<!-- user -->
<g id="node1" class="node">
<title>user</title>
<ellipse fill="none" stroke="black" cx="1284" cy="-810" rx="27" ry="18"/>
<text text-anchor="middle" x="1284" y="-806.3" font-family="Times,serif" font-size="14.00">user</text>
</g>
<!-- vector -->
<g id="node2" class="node">
<title>vector</title>
<ellipse fill="none" stroke="black" cx="1625" cy="-18" rx="32.49" ry="18"/>
<text text-anchor="middle" x="1625" y="-14.3" font-family="Times,serif" font-size="14.00">vector</text>
</g>
<!-- user&#45;&gt;vector -->
<g id="edge1" class="edge">
<title>user&#45;&gt;vector</title>
<path fill="none" stroke="black" d="M1311.42,-809.06C1458.33,-809.18 2153.29,-807 2361,-756 2448.83,-734.43 2544,-757.44 2544,-667 2544,-667 2544,-667 2544,-161 2544,-78.85 2460.81,-95.19 2382,-72 2246.79,-32.22 1808.82,-21.91 1668.61,-19.6"/>
<polygon fill="black" stroke="black" points="1668.94,-16.09 1658.88,-19.43 1668.83,-23.09 1668.94,-16.09"/>
</g>
<!-- option -->
<g id="node3" class="node">
<title>option</title>
<ellipse fill="none" stroke="black" cx="376" cy="-90" rx="33.29" ry="18"/>
<text text-anchor="middle" x="376" y="-86.3" font-family="Times,serif" font-size="14.00">option</text>
</g>
<!-- user&#45;&gt;option -->
<g id="edge2" class="edge">
<title>user&#45;&gt;option</title>
<path fill="none" stroke="black" d="M1256.59,-808.94C1070.5,-808.17 0,-798.06 0,-667 0,-667 0,-667 0,-233 0,-188.47 9.93,-170.11 46,-144 90.95,-111.47 252.92,-97.96 331.98,-93.21"/>
<polygon fill="black" stroke="black" points="331.78,-96.67 341.56,-92.6 331.38,-89.68 331.78,-96.67"/>
</g>
<!-- string -->
<g id="node4" class="node">
<title>string</title>
<ellipse fill="none" stroke="black" cx="714" cy="-162" rx="30.59" ry="18"/>
<text text-anchor="middle" x="714" y="-158.3" font-family="Times,serif" font-size="14.00">string</text>
</g>
<!-- user&#45;&gt;string -->
<g id="edge3" class="edge">
<title>user&#45;&gt;string</title>
<path fill="none" stroke="black" d="M1256.73,-809.52C1125.58,-811.32 566,-810.59 566,-667 566,-667 566,-667 566,-449 566,-392.47 658.37,-246.76 697.16,-188.06"/>
<polygon fill="black" stroke="black" points="700.5,-190.36 703.12,-180.1 694.67,-186.49 700.5,-190.36"/>
</g>
<!-- signer -->
<g id="node5" class="node">
<title>signer</title>
<ellipse fill="none" stroke="black" cx="2281" cy="-90" rx="32.49" ry="18"/>
<text text-anchor="middle" x="2281" y="-86.3" font-family="Times,serif" font-size="14.00">signer</text>
</g>
<!-- user&#45;&gt;signer -->
<g id="edge4" class="edge">
<title>user&#45;&gt;signer</title>
<path fill="none" stroke="black" d="M1311.24,-808.79C1491.54,-807.02 2506,-791.54 2506,-667 2506,-667 2506,-667 2506,-305 2506,-221.23 2475.2,-194.02 2408,-144 2381.64,-124.38 2346.94,-110.54 2320.48,-101.94"/>
<polygon fill="black" stroke="black" points="2321.64,-98.32 2311.05,-98.68 2319.55,-105 2321.64,-98.32"/>
</g>
<!-- type_info -->
<g id="node6" class="node">
<title>type_info</title>
<ellipse fill="none" stroke="black" cx="968" cy="-234" rx="44.39" ry="18"/>
<text text-anchor="middle" x="968" y="-230.3" font-family="Times,serif" font-size="14.00">type_info</text>
</g>
<!-- user&#45;&gt;type_info -->
<g id="edge5" class="edge">
<title>user&#45;&gt;type_info</title>
<path fill="none" stroke="black" d="M1291.51,-792.34C1302.58,-766.2 1322,-713.7 1322,-667 1322,-667 1322,-667 1322,-449 1322,-411.05 1293.94,-312.55 1265,-288 1229.26,-257.68 1098.37,-243.85 1022.81,-238.27"/>
<polygon fill="black" stroke="black" points="1023.3,-234.73 1013.08,-237.51 1022.8,-241.71 1023.3,-234.73"/>
</g>
<!-- table -->
<g id="node7" class="node">
<title>table</title>
<ellipse fill="none" stroke="black" cx="1228" cy="-306" rx="27.9" ry="18"/>
<text text-anchor="middle" x="1228" y="-302.3" font-family="Times,serif" font-size="14.00">table</text>
</g>
<!-- user&#45;&gt;table -->
<g id="edge6" class="edge">
<title>user&#45;&gt;table</title>
<path fill="none" stroke="black" d="M1284,-791.51C1284,-764.71 1284,-711.87 1284,-667 1284,-667 1284,-667 1284,-449 1284,-405.57 1261.05,-359.56 1244.54,-332.06"/>
<polygon fill="black" stroke="black" points="1247.04,-330.46 1238.8,-323.81 1241.09,-334.15 1247.04,-330.46"/>
</g>
<!-- coin -->
<g id="node8" class="node">
<title>coin</title>
<ellipse fill="none" stroke="black" cx="1469" cy="-522" rx="27" ry="18"/>
<text text-anchor="middle" x="1469" y="-518.3" font-family="Times,serif" font-size="14.00">coin</text>
</g>
<!-- user&#45;&gt;coin -->
<g id="edge7" class="edge">
<title>user&#45;&gt;coin</title>
<path fill="none" stroke="black" d="M1308.15,-801.49C1350.64,-786.8 1437.61,-749.84 1473,-684 1495.72,-641.74 1486.18,-583.79 1477.43,-550.18"/>
<polygon fill="black" stroke="black" points="1480.58,-549.47 1474.53,-540.77 1473.84,-551.34 1480.58,-549.47"/>
</g>
<!-- tablist -->
<g id="node9" class="node">
<title>tablist</title>
<ellipse fill="none" stroke="black" cx="942" cy="-594" rx="32.49" ry="18"/>
<text text-anchor="middle" x="942" y="-590.3" font-family="Times,serif" font-size="14.00">tablist</text>
</g>
<!-- user&#45;&gt;tablist -->
<g id="edge8" class="edge">
<title>user&#45;&gt;tablist</title>
<path fill="none" stroke="black" d="M1256.66,-808.75C1185.2,-807.47 995.58,-799.93 955,-756 921.86,-720.13 927.79,-658.55 934.97,-622.85"/>
<polygon fill="black" stroke="black" points="938.58,-623.75 937.3,-613.23 931.74,-622.25 938.58,-623.75"/>
</g>
<!-- registry -->
<g id="node10" class="node">
<title>registry</title>
<ellipse fill="none" stroke="black" cx="1002" cy="-738" rx="37.89" ry="18"/>
<text text-anchor="middle" x="1002" y="-734.3" font-family="Times,serif" font-size="14.00">registry</text>
</g>
<!-- user&#45;&gt;registry -->
<g id="edge9" class="edge">
<title>user&#45;&gt;registry</title>
<path fill="none" stroke="black" d="M1258.97,-802.79C1211.01,-790.88 1105.58,-764.71 1045.74,-749.86"/>
<polygon fill="black" stroke="black" points="1046.67,-746.23 1036.12,-747.22 1044.98,-753.03 1046.67,-746.23"/>
</g>
<!-- option&#45;&gt;vector -->
<g id="edge10" class="edge">
<title>option&#45;&gt;vector</title>
<path fill="none" stroke="black" d="M409.09,-87.15C582.51,-77.43 1386.12,-32.39 1581.91,-21.42"/>
<polygon fill="black" stroke="black" points="1581.82,-24.87 1591.61,-20.82 1581.43,-17.88 1581.82,-24.87"/>
</g>
<!-- string&#45;&gt;vector -->
<g id="edge11" class="edge">
<title>string&#45;&gt;vector</title>
<path fill="none" stroke="black" d="M733.03,-147.48C763.04,-126.97 823.94,-88.65 882,-72 1014.7,-33.96 1442.83,-22.51 1581.33,-19.75"/>
<polygon fill="black" stroke="black" points="1581.38,-23.23 1591.32,-19.54 1581.25,-16.23 1581.38,-23.23"/>
</g>
<!-- string&#45;&gt;option -->
<g id="edge12" class="edge">
<title>string&#45;&gt;option</title>
<path fill="none" stroke="black" d="M685.47,-155.09C625.65,-142.7 486.86,-113.96 417.3,-99.55"/>
<polygon fill="black" stroke="black" points="418.25,-95.97 407.75,-97.37 416.84,-102.82 418.25,-95.97"/>
</g>
<!-- type_info&#45;&gt;string -->
<g id="edge13" class="edge">
<title>type_info&#45;&gt;string</title>
<path fill="none" stroke="black" d="M931.88,-223.05C884.13,-209.89 800.39,-186.81 751.81,-173.42"/>
<polygon fill="black" stroke="black" points="752.99,-169.84 742.42,-170.56 751.13,-176.59 752.99,-169.84"/>
</g>
<!-- error -->
<g id="node11" class="node">
<title>error</title>
<ellipse fill="none" stroke="black" cx="1637" cy="-90" rx="27.9" ry="18"/>
<text text-anchor="middle" x="1637" y="-86.3" font-family="Times,serif" font-size="14.00">error</text>
</g>
<!-- type_info&#45;&gt;error -->
<g id="edge14" class="edge">
<title>type_info&#45;&gt;error</title>
<path fill="none" stroke="black" d="M973.85,-215.81C981.96,-194.88 998.79,-160.31 1026,-144 1075.04,-114.61 1471.83,-97.23 1598.37,-92.39"/>
<polygon fill="black" stroke="black" points="1598.21,-95.87 1608.07,-91.99 1597.95,-88.87 1598.21,-95.87"/>
</g>
<!-- features -->
<g id="node12" class="node">
<title>features</title>
<ellipse fill="none" stroke="black" cx="1595" cy="-162" rx="38.19" ry="18"/>
<text text-anchor="middle" x="1595" y="-158.3" font-family="Times,serif" font-size="14.00">features</text>
</g>
<!-- type_info&#45;&gt;features -->
<g id="edge15" class="edge">
<title>type_info&#45;&gt;features</title>
<path fill="none" stroke="black" d="M1010.6,-228.24C1123.28,-215.66 1428.6,-181.58 1547.09,-168.35"/>
<polygon fill="black" stroke="black" points="1547.41,-171.72 1556.96,-167.14 1546.63,-164.77 1547.41,-171.72"/>
</g>
<!-- bcs -->
<g id="node13" class="node">
<title>bcs</title>
<ellipse fill="none" stroke="black" cx="431" cy="-162" rx="27" ry="18"/>
<text text-anchor="middle" x="431" y="-158.3" font-family="Times,serif" font-size="14.00">bcs</text>
</g>
<!-- type_info&#45;&gt;bcs -->
<g id="edge16" class="edge">
<title>type_info&#45;&gt;bcs</title>
<path fill="none" stroke="black" d="M929.13,-225.15C913.04,-222.05 894.16,-218.62 877,-216 726.2,-192.98 545.43,-174.19 468.55,-166.61"/>
<polygon fill="black" stroke="black" points="469.27,-163.07 458.98,-165.58 468.59,-170.03 469.27,-163.07"/>
</g>
<!-- coin&#45;&gt;option -->
<g id="edge17" class="edge">
<title>coin&#45;&gt;option</title>
<path fill="none" stroke="black" d="M1441.98,-519.27C1392.03,-516.1 1281.87,-509.18 1189,-504 946.51,-490.47 114,-549.87 114,-307 114,-307 114,-307 114,-233 114,-134.95 257.59,-104.25 332.17,-94.92"/>
<polygon fill="black" stroke="black" points="332.56,-98.28 342.08,-93.64 331.74,-91.33 332.56,-98.28"/>
</g>
<!-- coin&#45;&gt;string -->
<g id="edge18" class="edge">
<title>coin&#45;&gt;string</title>
<path fill="none" stroke="black" d="M1462.48,-504.24C1452.86,-477.98 1436,-425.32 1436,-379 1436,-379 1436,-379 1436,-305 1436,-165.41 909.88,-160.66 755.87,-162.26"/>
<polygon fill="black" stroke="black" points="755.98,-158.78 746.02,-162.39 756.06,-165.77 755.98,-158.78"/>
</g>
<!-- coin&#45;&gt;signer -->
<g id="edge19" class="edge">
<title>coin&#45;&gt;signer</title>
<path fill="none" stroke="black" d="M1496.16,-520.81C1595.12,-519.78 1935.68,-512.95 2033,-468 2180.82,-399.73 2252.08,-193.83 2273.66,-118.77"/>
<polygon fill="black" stroke="black" points="2277.27,-119.85 2276.6,-109.28 2270.53,-117.97 2277.27,-119.85"/>
</g>
<!-- coin&#45;&gt;type_info -->
<g id="edge21" class="edge">
<title>coin&#45;&gt;type_info</title>
<path fill="none" stroke="black" d="M1453.37,-507.13C1443.06,-497.18 1430.03,-482.95 1422,-468 1382.81,-395.07 1436.25,-342.59 1374,-288 1322.99,-243.26 1122.31,-235.77 1023.53,-234.86"/>
<polygon fill="black" stroke="black" points="1023.6,-231.35 1013.57,-234.78 1023.55,-238.35 1023.6,-231.35"/>
</g>
<!-- coin&#45;&gt;error -->
<g id="edge20" class="edge">
<title>coin&#45;&gt;error</title>
<path fill="none" stroke="black" d="M1496.16,-519.91C1588.38,-515.94 1888.73,-500.74 1979,-468 2032.89,-448.46 2059.06,-446.6 2086,-396 2147.04,-281.35 2052.9,-204.57 1938,-144 1852.23,-98.79 1735.55,-91.12 1675.78,-90.43"/>
<polygon fill="black" stroke="black" points="1675.98,-86.92 1665.96,-90.37 1675.94,-93.92 1675.98,-86.92"/>
</g>
<!-- system_addresses -->
<g id="node14" class="node">
<title>system_addresses</title>
<ellipse fill="none" stroke="black" cx="1997" cy="-306" rx="73.39" ry="18"/>
<text text-anchor="middle" x="1997" y="-302.3" font-family="Times,serif" font-size="14.00">system_addresses</text>
</g>
<!-- coin&#45;&gt;system_addresses -->
<g id="edge22" class="edge">
<title>coin&#45;&gt;system_addresses</title>
<path fill="none" stroke="black" d="M1496.24,-519.79C1603.83,-514.36 1996.73,-488.41 2069,-396 2078.86,-383.4 2076.22,-374.28 2069,-360 2062.41,-346.98 2050.95,-336.37 2039.09,-328.16"/>
<polygon fill="black" stroke="black" points="2041.32,-324.79 2031.01,-322.35 2037.54,-330.69 2041.32,-324.79"/>
</g>
<!-- event -->
<g id="node15" class="node">
<title>event</title>
<ellipse fill="none" stroke="black" cx="210" cy="-378" rx="29.8" ry="18"/>
<text text-anchor="middle" x="210" y="-374.3" font-family="Times,serif" font-size="14.00">event</text>
</g>
<!-- coin&#45;&gt;event -->
<g id="edge23" class="edge">
<title>coin&#45;&gt;event</title>
<path fill="none" stroke="black" d="M1441.92,-519.14C1285.46,-508.23 495.77,-451.23 259,-396 254.34,-394.91 249.49,-393.54 244.75,-392.06"/>
<polygon fill="black" stroke="black" points="246.22,-388.52 235.63,-388.67 244.01,-395.16 246.22,-388.52"/>
</g>
<!-- account -->
<g id="node16" class="node">
<title>account</title>
<ellipse fill="none" stroke="black" cx="882" cy="-450" rx="38.19" ry="18"/>
<text text-anchor="middle" x="882" y="-446.3" font-family="Times,serif" font-size="14.00">account</text>
</g>
<!-- coin&#45;&gt;account -->
<g id="edge24" class="edge">
<title>coin&#45;&gt;account</title>
<path fill="none" stroke="black" d="M1442.25,-517.81C1350.45,-506.86 1047.39,-470.72 929.5,-456.66"/>
<polygon fill="black" stroke="black" points="930.03,-453.08 919.69,-455.37 929.2,-460.03 930.03,-453.08"/>
</g>
<!-- aggregator -->
<g id="node17" class="node">
<title>aggregator</title>
<ellipse fill="none" stroke="black" cx="1588" cy="-306" rx="48.19" ry="18"/>
<text text-anchor="middle" x="1588" y="-302.3" font-family="Times,serif" font-size="14.00">aggregator</text>
</g>
<!-- coin&#45;&gt;aggregator -->
<g id="edge25" class="edge">
<title>coin&#45;&gt;aggregator</title>
<path fill="none" stroke="black" d="M1478.14,-504.56C1498.63,-467.71 1548.4,-378.22 1573.3,-333.44"/>
<polygon fill="black" stroke="black" points="1576.7,-335.53 1578.5,-325.09 1570.58,-332.12 1576.7,-335.53"/>
</g>
<!-- aggregator_factory -->
<g id="node18" class="node">
<title>aggregator_factory</title>
<ellipse fill="none" stroke="black" cx="1693" cy="-378" rx="77.19" ry="18"/>
<text text-anchor="middle" x="1693" y="-374.3" font-family="Times,serif" font-size="14.00">aggregator_factory</text>
</g>
<!-- coin&#45;&gt;aggregator_factory -->
<g id="edge26" class="edge">
<title>coin&#45;&gt;aggregator_factory</title>
<path fill="none" stroke="black" d="M1496.09,-519.42C1554.88,-515.37 1691.14,-502.39 1719,-468 1733.48,-450.13 1723.7,-424.49 1712.23,-405.31"/>
<polygon fill="black" stroke="black" points="1714.73,-403.74 1706.38,-397.22 1708.84,-407.52 1714.73,-403.74"/>
</g>
<!-- optional_aggregator -->
<g id="node19" class="node">
<title>optional_aggregator</title>
<ellipse fill="none" stroke="black" cx="1629" cy="-450" rx="81.49" ry="18"/>
<text text-anchor="middle" x="1629" y="-446.3" font-family="Times,serif" font-size="14.00">optional_aggregator</text>
</g>
<!-- coin&#45;&gt;optional_aggregator -->
<g id="edge27" class="edge">
<title>coin&#45;&gt;optional_aggregator</title>
<path fill="none" stroke="black" d="M1491.25,-511.27C1515.01,-500.87 1553.32,-484.11 1583.52,-470.9"/>
<polygon fill="black" stroke="black" points="1584.66,-473.78 1592.42,-466.57 1581.85,-467.37 1584.66,-473.78"/>
</g>
<!-- tablist&#45;&gt;option -->
<g id="edge28" class="edge">
<title>tablist&#45;&gt;option</title>
<path fill="none" stroke="black" d="M909.62,-590.87C809.68,-583.5 498.2,-554.62 257,-468 155.67,-431.61 76,-414.66 76,-307 76,-307 76,-307 76,-233 76,-187.19 90.88,-170.85 128,-144 160.31,-120.63 271.04,-103.8 333.06,-95.95"/>
<polygon fill="black" stroke="black" points="333.18,-99.34 342.67,-94.64 332.32,-92.39 333.18,-99.34"/>
</g>
<!-- table_with_length -->
<g id="node20" class="node">
<title>table_with_length</title>
<ellipse fill="none" stroke="black" cx="1144" cy="-378" rx="74.19" ry="18"/>
<text text-anchor="middle" x="1144" y="-374.3" font-family="Times,serif" font-size="14.00">table_with_length</text>
</g>
<!-- tablist&#45;&gt;table_with_length -->
<g id="edge29" class="edge">
<title>tablist&#45;&gt;table_with_length</title>
<path fill="none" stroke="black" d="M974.21,-590.97C1034.86,-586.39 1162.33,-573 1189,-540 1221.15,-500.22 1187.7,-438.9 1163.74,-404.56"/>
<polygon fill="black" stroke="black" points="1166.28,-403.1 1157.6,-397.03 1160.6,-407.19 1166.28,-403.1"/>
</g>
<!-- registry&#45;&gt;option -->
<g id="edge30" class="edge">
<title>registry&#45;&gt;option</title>
<path fill="none" stroke="black" d="M963.75,-737.22C820.85,-737.65 318.94,-735.38 169,-684 102.41,-661.18 38,-665.39 38,-595 38,-595 38,-595 38,-233 38,-188.06 49.65,-170.42 86,-144 124.61,-115.94 260.91,-100.63 332.04,-94.39"/>
<polygon fill="black" stroke="black" points="332.21,-97.8 341.88,-93.47 331.62,-90.83 332.21,-97.8"/>
</g>
<!-- registry&#45;&gt;string -->
<g id="edge31" class="edge">
<title>registry&#45;&gt;string</title>
<path fill="none" stroke="black" d="M963.8,-737.16C878.5,-735.31 680,-717.81 680,-595 680,-595 680,-595 680,-449 680,-399.09 700.68,-253.1 709.78,-191.23"/>
<polygon fill="black" stroke="black" points="713.39,-191.77 711.39,-181.37 706.46,-190.75 713.39,-191.77"/>
</g>
<!-- registry&#45;&gt;signer -->
<g id="edge32" class="edge">
<title>registry&#45;&gt;signer</title>
<path fill="none" stroke="black" d="M1040.08,-737.42C1270.47,-739.45 2468,-742.91 2468,-595 2468,-595 2468,-595 2468,-305 2468,-222.59 2434.57,-201.98 2376,-144 2359.27,-127.45 2336.32,-114.45 2317.17,-105.47"/>
<polygon fill="black" stroke="black" points="2318.83,-101.93 2308.27,-101.02 2315.96,-108.31 2318.83,-101.93"/>
</g>
<!-- registry&#45;&gt;type_info -->
<g id="edge33" class="edge">
<title>registry&#45;&gt;type_info</title>
<path fill="none" stroke="black" d="M1000.83,-719.72C995.82,-645.73 976.14,-355.24 969.91,-263.16"/>
<polygon fill="black" stroke="black" points="973.35,-263.21 969.18,-253.47 966.37,-263.68 973.35,-263.21"/>
</g>
<!-- registry&#45;&gt;table -->
<g id="edge34" class="edge">
<title>registry&#45;&gt;table</title>
<path fill="none" stroke="black" d="M1024.73,-723.32C1069.09,-695.26 1166.62,-626.47 1210,-540 1243.73,-472.78 1238.05,-380.75 1232.35,-335.07"/>
<polygon fill="black" stroke="black" points="1235.69,-334.69 1230.88,-325.25 1228.76,-335.63 1235.69,-334.69"/>
</g>
<!-- registry&#45;&gt;coin -->
<g id="edge37" class="edge">
<title>registry&#45;&gt;coin</title>
<path fill="none" stroke="black" d="M1038.25,-732.15C1082.87,-725.31 1160.31,-710.6 1222,-684 1309.99,-646.07 1401.36,-577.53 1444.13,-543.42"/>
<polygon fill="black" stroke="black" points="1445.9,-545.69 1451.49,-536.69 1441.51,-540.23 1445.9,-545.69"/>
</g>
<!-- registry&#45;&gt;tablist -->
<g id="edge38" class="edge">
<title>registry&#45;&gt;tablist</title>
<path fill="none" stroke="black" d="M994.76,-719.87C984.44,-695.43 965.38,-650.33 953.22,-621.55"/>
<polygon fill="black" stroke="black" points="956.19,-620.6 949.08,-612.75 949.74,-623.32 956.19,-620.6"/>
</g>
<!-- registry&#45;&gt;event -->
<g id="edge35" class="edge">
<title>registry&#45;&gt;event</title>
<path fill="none" stroke="black" d="M964.26,-735.27C790.52,-726.8 76,-686.44 76,-595 76,-595 76,-595 76,-521 76,-461.94 138.07,-417.5 177.72,-395.13"/>
<polygon fill="black" stroke="black" points="179.17,-397.78 186.27,-389.92 175.81,-391.64 179.17,-397.78"/>
</g>
<!-- registry&#45;&gt;account -->
<g id="edge36" class="edge">
<title>registry&#45;&gt;account</title>
<path fill="none" stroke="black" d="M984.56,-721.64C961.11,-699.85 920.16,-657.51 901,-612 882.53,-568.14 880.17,-511.99 880.7,-478.92"/>
<polygon fill="black" stroke="black" points="884.21,-479.33 880.98,-469.24 877.22,-479.14 884.21,-479.33"/>
</g>
<!-- incentives -->
<g id="node21" class="node">
<title>incentives</title>
<ellipse fill="none" stroke="black" cx="1418" cy="-666" rx="46.29" ry="18"/>
<text text-anchor="middle" x="1418" y="-662.3" font-family="Times,serif" font-size="14.00">incentives</text>
</g>
<!-- registry&#45;&gt;incentives -->
<g id="edge39" class="edge">
<title>registry&#45;&gt;incentives</title>
<path fill="none" stroke="black" d="M1037.47,-731.03C1110.79,-718.69 1279.35,-690.33 1365.39,-675.85"/>
<polygon fill="black" stroke="black" points="1365.94,-679.14 1375.22,-674.03 1364.77,-672.24 1365.94,-679.14"/>
</g>
<!-- features&#45;&gt;signer -->
<g id="edge40" class="edge">
<title>features&#45;&gt;signer</title>
<path fill="none" stroke="black" d="M1631.88,-157.24C1749.26,-145.26 2113.74,-108.07 2238.56,-95.33"/>
<polygon fill="black" stroke="black" points="2238.6,-98.74 2248.2,-94.25 2237.89,-91.78 2238.6,-98.74"/>
</g>
<!-- features&#45;&gt;error -->
<g id="edge41" class="edge">
<title>features&#45;&gt;error</title>
<path fill="none" stroke="black" d="M1604.95,-144.41C1609.99,-136.01 1616.22,-125.63 1621.84,-116.26"/>
<polygon fill="black" stroke="black" points="1625.26,-118.36 1627.41,-107.99 1619.26,-114.76 1625.26,-118.36"/>
</g>
<!-- system_addresses&#45;&gt;signer -->
<g id="edge42" class="edge">
<title>system_addresses&#45;&gt;signer</title>
<path fill="none" stroke="black" d="M2018.29,-288.31C2056.02,-258.82 2137.24,-195.7 2207,-144 2222,-132.89 2238.91,-120.74 2252.78,-110.89"/>
<polygon fill="black" stroke="black" points="2254.26,-113.42 2260.4,-104.78 2250.22,-107.7 2254.26,-113.42"/>
</g>
<!-- system_addresses&#45;&gt;error -->
<g id="edge43" class="edge">
<title>system_addresses&#45;&gt;error</title>
<path fill="none" stroke="black" d="M1992.57,-287.66C1983.04,-254.12 1957.29,-180.47 1907,-144 1870.44,-117.49 1740.62,-101.23 1675.23,-94.54"/>
<polygon fill="black" stroke="black" points="1675.85,-90.98 1665.56,-93.47 1675.16,-97.95 1675.85,-90.98"/>
</g>
<!-- event&#45;&gt;bcs -->
<g id="edge44" class="edge">
<title>event&#45;&gt;bcs</title>
<path fill="none" stroke="black" d="M205.11,-360.05C200.68,-341.2 196.57,-310.44 209,-288 247.71,-218.1 342.33,-184.61 394.68,-170.94"/>
<polygon fill="black" stroke="black" points="395.32,-174.14 404.18,-168.33 393.63,-167.35 395.32,-174.14"/>
</g>
<!-- guid -->
<g id="node22" class="node">
<title>guid</title>
<ellipse fill="none" stroke="black" cx="245" cy="-306" rx="27" ry="18"/>
<text text-anchor="middle" x="245" y="-302.3" font-family="Times,serif" font-size="14.00">guid</text>
</g>
<!-- event&#45;&gt;guid -->
<g id="edge45" class="edge">
<title>event&#45;&gt;guid</title>
<path fill="none" stroke="black" d="M218.29,-360.41C222.35,-352.3 227.32,-342.35 231.88,-333.25"/>
<polygon fill="black" stroke="black" points="235.42,-334.98 236.77,-324.47 229.16,-331.85 235.42,-334.98"/>
</g>
<!-- account&#45;&gt;vector -->
<g id="edge46" class="edge">
<title>account&#45;&gt;vector</title>
<path fill="none" stroke="black" d="M880.78,-431.8C878.68,-391.61 877.72,-289.4 915,-216 935.78,-175.09 948.36,-165.31 989,-144 1191.86,-37.64 1474.2,-21.39 1581.39,-19.2"/>
<polygon fill="black" stroke="black" points="1581.16,-22.69 1591.1,-19.01 1581.04,-15.69 1581.16,-22.69"/>
</g>
<!-- account&#45;&gt;option -->
<g id="edge47" class="edge">
<title>account&#45;&gt;option</title>
<path fill="none" stroke="black" d="M844.53,-445.83C726.75,-435.77 371.35,-404.74 363,-396 289.96,-319.5 338.7,-176.9 363.74,-117.77"/>
<polygon fill="black" stroke="black" points="367.33,-119.3 368.1,-108.73 360.91,-116.51 367.33,-119.3"/>
</g>
<!-- account&#45;&gt;signer -->
<g id="edge48" class="edge">
<title>account&#45;&gt;signer</title>
<path fill="none" stroke="black" d="M920.3,-448.24C1118.17,-444.21 2017.58,-424.36 2069,-396 2072.72,-393.95 2213.72,-188.96 2263.68,-116.24"/>
<polygon fill="black" stroke="black" points="2267.06,-118.5 2269.83,-108.27 2261.29,-114.53 2267.06,-118.5"/>
</g>
<!-- account&#45;&gt;type_info -->
<g id="edge51" class="edge">
<title>account&#45;&gt;type_info</title>
<path fill="none" stroke="black" d="M889.2,-431.84C893.53,-421.48 899.13,-408 904,-396 923.12,-348.93 944.87,-293.89 957.46,-261.88"/>
<polygon fill="black" stroke="black" points="960.96,-263.54 961.36,-252.95 954.44,-260.98 960.96,-263.54"/>
</g>
<!-- account&#45;&gt;table -->
<g id="edge52" class="edge">
<title>account&#45;&gt;table</title>
<path fill="none" stroke="black" d="M906.06,-435.54C939.92,-416.95 1003.89,-383.1 1061,-360 1105.15,-342.14 1157.75,-326.31 1191.96,-316.7"/>
<polygon fill="black" stroke="black" points="1192.69,-319.85 1201.39,-313.8 1190.82,-313.1 1192.69,-319.85"/>
</g>
<!-- account&#45;&gt;error -->
<g id="edge49" class="edge">
<title>account&#45;&gt;error</title>
<path fill="none" stroke="black" d="M897.61,-433.46C916.77,-414.81 950.72,-383.16 983,-360 1139.89,-247.41 1178.76,-210.65 1360,-144 1441.73,-113.94 1543.59,-100.07 1598.17,-94.4"/>
<polygon fill="black" stroke="black" points="1598.47,-97.79 1608.07,-93.31 1597.77,-90.82 1598.47,-97.79"/>
</g>
<!-- account&#45;&gt;bcs -->
<g id="edge50" class="edge">
<title>account&#45;&gt;bcs</title>
<path fill="none" stroke="black" d="M844.36,-446.36C731.12,-438.23 400.37,-413.1 385,-396 331.86,-336.89 384.84,-234.67 414.25,-187.79"/>
<polygon fill="black" stroke="black" points="417.65,-189.97 420.12,-179.66 411.77,-186.18 417.65,-189.97"/>
</g>
<!-- account&#45;&gt;system_addresses -->
<g id="edge53" class="edge">
<title>account&#45;&gt;system_addresses</title>
<path fill="none" stroke="black" d="M920.36,-448.68C1069.79,-447.11 1612.76,-438.57 1779,-396 1815.21,-386.73 1820.57,-374.55 1855,-360 1884.77,-347.42 1918.65,-334.71 1945.86,-324.9"/>
<polygon fill="black" stroke="black" points="1946.7,-327.95 1954.93,-321.28 1944.34,-321.36 1946.7,-327.95"/>
</g>
<!-- account&#45;&gt;event -->
<g id="edge59" class="edge">
<title>account&#45;&gt;event</title>
<path fill="none" stroke="black" d="M846.29,-443.06C823.4,-439.42 793.01,-434.93 766,-432 539.21,-407.44 476.65,-445.66 254,-396 250.56,-395.23 247.04,-394.24 243.55,-393.13"/>
<polygon fill="black" stroke="black" points="244.94,-389.55 234.35,-389.51 242.6,-396.15 244.94,-389.55"/>
</g>
<!-- account&#45;&gt;guid -->
<g id="edge57" class="edge">
<title>account&#45;&gt;guid</title>
<path fill="none" stroke="black" d="M846.29,-443.11C823.39,-439.49 793.01,-435 766,-432 661.01,-420.33 380.34,-453.92 292,-396 270.7,-382.03 258.41,-355.11 251.79,-334.51"/>
<polygon fill="black" stroke="black" points="254.92,-333.75 248.74,-325.14 248.2,-335.72 254.92,-333.75"/>
</g>
<!-- hash -->
<g id="node23" class="node">
<title>hash</title>
<ellipse fill="none" stroke="black" cx="469" cy="-234" rx="27" ry="18"/>
<text text-anchor="middle" x="469" y="-230.3" font-family="Times,serif" font-size="14.00">hash</text>
</g>
<!-- account&#45;&gt;hash -->
<g id="edge54" class="edge">
<title>account&#45;&gt;hash</title>
<path fill="none" stroke="black" d="M844.4,-446.22C733.71,-437.87 415.8,-412.52 401,-396 364.04,-354.75 414.36,-290.47 446.28,-256.98"/>
<polygon fill="black" stroke="black" points="448.44,-259.75 452.94,-250.16 443.44,-254.85 448.44,-259.75"/>
</g>
<!-- ed25519 -->
<g id="node24" class="node">
<title>ed25519</title>
<ellipse fill="none" stroke="black" cx="562" cy="-306" rx="40.89" ry="18"/>
<text text-anchor="middle" x="562" y="-302.3" font-family="Times,serif" font-size="14.00">ed25519</text>
</g>
<!-- account&#45;&gt;ed25519 -->
<g id="edge55" class="edge">
<title>account&#45;&gt;ed25519</title>
<path fill="none" stroke="black" d="M847.55,-441.67C810.96,-433.22 751.89,-417.65 704,-396 662.56,-377.26 618.78,-348.22 590.97,-328.45"/>
<polygon fill="black" stroke="black" points="593.34,-325.12 583.18,-322.12 589.25,-330.8 593.34,-325.12"/>
</g>
<!-- multi_ed25519 -->
<g id="node25" class="node">
<title>multi_ed25519</title>
<ellipse fill="none" stroke="black" cx="474" cy="-378" rx="64.19" ry="18"/>
<text text-anchor="middle" x="474" y="-374.3" font-family="Times,serif" font-size="14.00">multi_ed25519</text>
</g>
<!-- account&#45;&gt;multi_ed25519 -->
<g id="edge56" class="edge">
<title>account&#45;&gt;multi_ed25519</title>
<path fill="none" stroke="black" d="M846.51,-442.91C777.81,-431.12 625.78,-405.04 538.67,-390.09"/>
<polygon fill="black" stroke="black" points="539.3,-386.48 528.86,-388.24 538.12,-393.38 539.3,-386.48"/>
</g>
<!-- from_bcs -->
<g id="node26" class="node">
<title>from_bcs</title>
<ellipse fill="none" stroke="black" cx="824" cy="-234" rx="44.39" ry="18"/>
<text text-anchor="middle" x="824" y="-230.3" font-family="Times,serif" font-size="14.00">from_bcs</text>
</g>
<!-- account&#45;&gt;from_bcs -->
<g id="edge58" class="edge">
<title>account&#45;&gt;from_bcs</title>
<path fill="none" stroke="black" d="M850.35,-439.54C809.76,-427.09 743.76,-405.66 737,-396 727.83,-382.89 731.68,-375.09 737,-360 743.83,-340.62 753.93,-340.63 766,-324 780.99,-303.35 796.72,-279.02 808.01,-261.02"/>
<polygon fill="black" stroke="black" points="811.48,-263.08 813.8,-252.74 805.54,-259.37 811.48,-263.08"/>
</g>
<!-- create_signer -->
<g id="node27" class="node">
<title>create_signer</title>
<ellipse fill="none" stroke="black" cx="804" cy="-378" rx="57.69" ry="18"/>
<text text-anchor="middle" x="804" y="-374.3" font-family="Times,serif" font-size="14.00">create_signer</text>
</g>
<!-- account&#45;&gt;create_signer -->
<g id="edge60" class="edge">
<title>account&#45;&gt;create_signer</title>
<path fill="none" stroke="black" d="M864.69,-433.46C854.58,-424.39 841.61,-412.75 830.26,-402.57"/>
<polygon fill="black" stroke="black" points="833.13,-400.54 823.35,-396.47 828.45,-405.75 833.13,-400.54"/>
</g>
<!-- chain_id -->
<g id="node28" class="node">
<title>chain_id</title>
<ellipse fill="none" stroke="black" cx="2019" cy="-378" rx="40.89" ry="18"/>
<text text-anchor="middle" x="2019" y="-374.3" font-family="Times,serif" font-size="14.00">chain_id</text>
</g>
<!-- account&#45;&gt;chain_id -->
<g id="edge61" class="edge">
<title>account&#45;&gt;chain_id</title>
<path fill="none" stroke="black" d="M920.36,-448.56C1088.57,-446.42 1761.71,-435.49 1969,-396 1972.18,-395.39 1975.44,-394.63 1978.7,-393.76"/>
<polygon fill="black" stroke="black" points="1979.37,-396.92 1987.96,-390.72 1977.38,-390.21 1979.37,-396.92"/>
</g>
<!-- aggregator_factory&#45;&gt;table -->
<g id="edge63" class="edge">
<title>aggregator_factory&#45;&gt;table</title>
<path fill="none" stroke="black" d="M1629.32,-367.41C1530.97,-352.61 1345.18,-324.64 1265.66,-312.67"/>
<polygon fill="black" stroke="black" points="1266.57,-309.12 1256.16,-311.09 1265.53,-316.04 1266.57,-309.12"/>
</g>
<!-- aggregator_factory&#45;&gt;error -->
<g id="edge62" class="edge">
<title>aggregator_factory&#45;&gt;error</title>
<path fill="none" stroke="black" d="M1689.58,-359.54C1680.19,-311.56 1653.92,-177.39 1642.46,-118.88"/>
<polygon fill="black" stroke="black" points="1645.73,-118.37 1640.37,-109.23 1638.86,-119.72 1645.73,-118.37"/>
</g>
<!-- aggregator_factory&#45;&gt;system_addresses -->
<g id="edge64" class="edge">
<title>aggregator_factory&#45;&gt;system_addresses</title>
<path fill="none" stroke="black" d="M1746.65,-364.65C1799.09,-352.57 1878.91,-334.19 1934.27,-321.45"/>
<polygon fill="black" stroke="black" points="1934.69,-324.71 1943.65,-319.05 1933.12,-317.89 1934.69,-324.71"/>
</g>
<!-- aggregator_factory&#45;&gt;aggregator -->
<g id="edge65" class="edge">
<title>aggregator_factory&#45;&gt;aggregator</title>
<path fill="none" stroke="black" d="M1668.38,-360.59C1653.79,-350.86 1635.15,-338.43 1619.49,-327.99"/>
<polygon fill="black" stroke="black" points="1621.93,-324.75 1611.67,-322.11 1618.05,-330.57 1621.93,-324.75"/>
</g>
<!-- optional_aggregator&#45;&gt;option -->
<g id="edge66" class="edge">
<title>optional_aggregator&#45;&gt;option</title>
<path fill="none" stroke="black" d="M1613,-431.94C1592.02,-408.89 1555.06,-365.83 1531,-324 1505.24,-279.21 1529.07,-247.35 1488,-216 1401.56,-150.02 615.68,-103.84 419.98,-93.29"/>
<polygon fill="black" stroke="black" points="420.43,-89.76 410.26,-92.72 420.06,-96.75 420.43,-89.76"/>
</g>
<!-- optional_aggregator&#45;&gt;error -->
<g id="edge67" class="edge">
<title>optional_aggregator&#45;&gt;error</title>
<path fill="none" stroke="black" d="M1689.03,-437.45C1718.45,-429.52 1753.03,-416.59 1779,-396 1815.81,-366.82 1836,-353.97 1836,-307 1836,-307 1836,-307 1836,-233 1836,-154.25 1731.47,-115.06 1673.92,-99.45"/>
<polygon fill="black" stroke="black" points="1674.98,-95.85 1664.43,-96.72 1673.22,-102.63 1674.98,-95.85"/>
</g>
<!-- optional_aggregator&#45;&gt;aggregator -->
<g id="edge68" class="edge">
<title>optional_aggregator&#45;&gt;aggregator</title>
<path fill="none" stroke="black" d="M1620.84,-431.63C1616.29,-421.43 1610.79,-408.18 1607,-396 1600.76,-375.95 1595.88,-352.74 1592.62,-335.04"/>
<polygon fill="black" stroke="black" points="1595.91,-334.54 1590.73,-325.3 1589.02,-335.76 1595.91,-334.54"/>
</g>
<!-- optional_aggregator&#45;&gt;aggregator_factory -->
<g id="edge69" class="edge">
<title>optional_aggregator&#45;&gt;aggregator_factory</title>
<path fill="none" stroke="black" d="M1644.49,-432.05C1652.28,-423.54 1661.85,-413.07 1670.43,-403.68"/>
<polygon fill="black" stroke="black" points="1672.49,-406.53 1676.65,-396.79 1667.32,-401.81 1672.49,-406.53"/>
</g>
<!-- table_with_length&#45;&gt;table -->
<g id="edge71" class="edge">
<title>table_with_length&#45;&gt;table</title>
<path fill="none" stroke="black" d="M1163.91,-360.41C1175.65,-350.62 1190.62,-338.15 1203.14,-327.72"/>
<polygon fill="black" stroke="black" points="1204.9,-329.97 1210.35,-320.88 1200.42,-324.59 1204.9,-329.97"/>
</g>
<!-- table_with_length&#45;&gt;error -->
<g id="edge70" class="edge">
<title>table_with_length&#45;&gt;error</title>
<path fill="none" stroke="black" d="M1149.23,-359.78C1156,-340.09 1169.53,-308.02 1191,-288 1314.71,-172.65 1517.01,-117.35 1599.86,-98.63"/>
<polygon fill="black" stroke="black" points="1600.49,-101.86 1609.5,-96.28 1598.99,-95.02 1600.49,-101.86"/>
</g>
<!-- incentives&#45;&gt;vector -->
<g id="edge72" class="edge">
<title>incentives&#45;&gt;vector</title>
<path fill="none" stroke="black" d="M1464.41,-663.87C1613.31,-659.96 2077.79,-645.32 2224,-612 2321.24,-589.84 2430,-622.73 2430,-523 2430,-523 2430,-523 2430,-305 2430,-195.37 2437.36,-136.9 2349,-72 2294.18,-31.74 1816.98,-21.69 1668.74,-19.53"/>
<polygon fill="black" stroke="black" points="1668.89,-16.02 1658.84,-19.38 1668.79,-23.02 1668.89,-16.02"/>
</g>
<!-- incentives&#45;&gt;signer -->
<g id="edge73" class="edge">
<title>incentives&#45;&gt;signer</title>
<path fill="none" stroke="black" d="M1464,-663.21C1657.06,-655.1 2392,-618 2392,-523 2392,-523 2392,-523 2392,-233 2392,-179.94 2343.31,-134.88 2310.42,-110.49"/>
<polygon fill="black" stroke="black" points="2312.78,-107.16 2302.62,-104.17 2308.7,-112.85 2312.78,-107.16"/>
</g>
<!-- incentives&#45;&gt;type_info -->
<g id="edge74" class="edge">
<title>incentives&#45;&gt;type_info</title>
<path fill="none" stroke="black" d="M1418.91,-647.89C1421.13,-586.32 1419.4,-375.07 1298,-288 1254.89,-257.08 1105.02,-243.29 1022.88,-237.94"/>
<polygon fill="black" stroke="black" points="1023.2,-234.39 1013,-237.25 1022.76,-241.37 1023.2,-234.39"/>
</g>
<!-- incentives&#45;&gt;coin -->
<g id="edge75" class="edge">
<title>incentives&#45;&gt;coin</title>
<path fill="none" stroke="black" d="M1429.89,-648.56C1436.69,-638.46 1444.86,-624.99 1450,-612 1457.77,-592.36 1462.61,-568.95 1465.46,-551.08"/>
<polygon fill="black" stroke="black" points="1469.06,-551.62 1467.05,-541.22 1462.13,-550.61 1469.06,-551.62"/>
</g>
<!-- incentives&#45;&gt;tablist -->
<g id="edge77" class="edge">
<title>incentives&#45;&gt;tablist</title>
<path fill="none" stroke="black" d="M1375.34,-658.73C1284.74,-645.4 1074.09,-614.42 984.04,-601.18"/>
<polygon fill="black" stroke="black" points="984.57,-597.58 974.17,-599.58 983.55,-604.5 984.57,-597.58"/>
</g>
<!-- aptos_coin -->
<g id="node29" class="node">
<title>aptos_coin</title>
<ellipse fill="none" stroke="black" cx="1915" cy="-594" rx="48.99" ry="18"/>
<text text-anchor="middle" x="1915" y="-590.3" font-family="Times,serif" font-size="14.00">aptos_coin</text>
</g>
<!-- incentives&#45;&gt;aptos_coin -->
<g id="edge76" class="edge">
<title>incentives&#45;&gt;aptos_coin</title>
<path fill="none" stroke="black" d="M1460.8,-658.97C1550.68,-646.31 1758.97,-616.98 1859.18,-602.86"/>
<polygon fill="black" stroke="black" points="1859.57,-606.2 1868.98,-601.34 1858.59,-599.27 1859.57,-606.2"/>
</g>
<!-- resource_account -->
<g id="node30" class="node">
<title>resource_account</title>
<ellipse fill="none" stroke="black" cx="1108" cy="-522" rx="72.29" ry="18"/>
<text text-anchor="middle" x="1108" y="-518.3" font-family="Times,serif" font-size="14.00">resource_account</text>
</g>
<!-- incentives&#45;&gt;resource_account -->
<g id="edge78" class="edge">
<title>incentives&#45;&gt;resource_account</title>
<path fill="none" stroke="black" d="M1388.84,-651.64C1334.04,-626.54 1215.47,-572.23 1151.32,-542.84"/>
<polygon fill="black" stroke="black" points="1153.05,-539.33 1142.51,-538.35 1150.14,-545.69 1153.05,-539.33"/>
</g>
<!-- ed25519&#45;&gt;option -->
<g id="edge79" class="edge">
<title>ed25519&#45;&gt;option</title>
<path fill="none" stroke="black" d="M558.66,-287.7C554.56,-269.07 546.44,-239.02 533,-216 511.11,-178.51 500.81,-171.23 467,-144 449.46,-129.87 427.73,-117.07 409.9,-107.59"/>
<polygon fill="black" stroke="black" points="411.94,-104.18 401.45,-102.67 408.71,-110.39 411.94,-104.18"/>
</g>
<!-- ed25519&#45;&gt;type_info -->
<g id="edge82" class="edge">
<title>ed25519&#45;&gt;type_info</title>
<path fill="none" stroke="black" d="M599.86,-298.86C659.05,-289.2 777.08,-269.74 877,-252 890.36,-249.63 904.81,-246.97 918.17,-244.48"/>
<polygon fill="black" stroke="black" points="918.43,-247.8 927.61,-242.52 917.14,-240.92 918.43,-247.8"/>
</g>
<!-- ed25519&#45;&gt;error -->
<g id="edge80" class="edge">
<title>ed25519&#45;&gt;error</title>
<path fill="none" stroke="black" d="M568.07,-287.71C581.21,-253.23 615.87,-176.44 674,-144 755.65,-98.44 1427.96,-92.03 1598.03,-91.14"/>
<polygon fill="black" stroke="black" points="1597.96,-94.64 1607.94,-91.09 1597.92,-87.64 1597.96,-94.64"/>
</g>
<!-- ed25519&#45;&gt;bcs -->
<g id="edge81" class="edge">
<title>ed25519&#45;&gt;bcs</title>
<path fill="none" stroke="black" d="M553.59,-287.92C543.71,-268.95 525.97,-238.09 505,-216 491.88,-202.18 474.7,-189.62 460.2,-180.2"/>
<polygon fill="black" stroke="black" points="462.45,-176.85 452.12,-174.48 458.72,-182.77 462.45,-176.85"/>
</g>
<!-- ed25519&#45;&gt;hash -->
<g id="edge83" class="edge">
<title>ed25519&#45;&gt;hash</title>
<path fill="none" stroke="black" d="M542.28,-290.15C528.59,-279.85 510.21,-266.01 495.28,-254.78"/>
<polygon fill="black" stroke="black" points="497.59,-251.39 487.5,-248.17 493.38,-256.98 497.59,-251.39"/>
</g>
<!-- multi_ed25519&#45;&gt;option -->
<g id="edge84" class="edge">
<title>multi_ed25519&#45;&gt;option</title>
<path fill="none" stroke="black" d="M460.58,-360.15C453.11,-350.11 444.11,-336.86 438,-324 404.88,-254.26 387.3,-164.06 380.06,-119.09"/>
<polygon fill="black" stroke="black" points="383.4,-118.76 378.4,-109.42 376.48,-119.83 383.4,-118.76"/>
</g>
<!-- multi_ed25519&#45;&gt;error -->
<g id="edge85" class="edge">
<title>multi_ed25519&#45;&gt;error</title>
<path fill="none" stroke="black" d="M515.54,-363.85C543.51,-354.32 580.84,-340.29 612,-324 687.71,-284.42 694.37,-253.76 771,-216 862.53,-170.9 889,-164.3 989,-144 1216.41,-97.83 1496.46,-91.63 1597.95,-90.99"/>
<polygon fill="black" stroke="black" points="1597.9,-94.48 1607.88,-90.93 1597.86,-87.48 1597.9,-94.48"/>
</g>
<!-- multi_ed25519&#45;&gt;features -->
<g id="edge86" class="edge">
<title>multi_ed25519&#45;&gt;features</title>
<path fill="none" stroke="black" d="M535.94,-373.01C720.78,-361.07 1256.2,-326.34 1265,-324 1382.33,-292.74 1507.76,-218.86 1564.27,-183.1"/>
<polygon fill="black" stroke="black" points="1565.83,-185.62 1572.38,-177.29 1562.06,-179.72 1565.83,-185.62"/>
</g>
<!-- multi_ed25519&#45;&gt;bcs -->
<g id="edge87" class="edge">
<title>multi_ed25519&#45;&gt;bcs</title>
<path fill="none" stroke="black" d="M466.65,-360.02C456.81,-336.35 439.83,-291.84 433,-252 429.55,-231.85 429.13,-208.77 429.53,-191.16"/>
<polygon fill="black" stroke="black" points="433.06,-191.32 429.9,-181.2 426.06,-191.08 433.06,-191.32"/>
</g>
<!-- multi_ed25519&#45;&gt;hash -->
<g id="edge88" class="edge">
<title>multi_ed25519&#45;&gt;hash</title>
<path fill="none" stroke="black" d="M473.39,-359.59C472.54,-335.5 471,-291.75 469.99,-263.03"/>
<polygon fill="black" stroke="black" points="473.45,-262.98 469.6,-253.11 466.46,-263.23 473.45,-262.98"/>
</g>
<!-- multi_ed25519&#45;&gt;ed25519 -->
<g id="edge89" class="edge">
<title>multi_ed25519&#45;&gt;ed25519</title>
<path fill="none" stroke="black" d="M494.41,-360.76C506.29,-351.31 521.43,-339.27 534.37,-328.98"/>
<polygon fill="black" stroke="black" points="536.26,-331.15 541.91,-322.19 531.9,-325.68 536.26,-331.15"/>
</g>
<!-- from_bcs&#45;&gt;string -->
<g id="edge90" class="edge">
<title>from_bcs&#45;&gt;string</title>
<path fill="none" stroke="black" d="M800.94,-218.33C784.1,-207.61 761.13,-192.99 743.04,-181.48"/>
<polygon fill="black" stroke="black" points="745.39,-178.19 735.07,-175.77 741.63,-184.1 745.39,-178.19"/>
</g>
<!-- chain_id&#45;&gt;system_addresses -->
<g id="edge91" class="edge">
<title>chain_id&#45;&gt;system_addresses</title>
<path fill="none" stroke="black" d="M2013.56,-359.7C2011.16,-352.07 2008.29,-342.92 2005.61,-334.4"/>
<polygon fill="black" stroke="black" points="2008.71,-333.59 2002.38,-325.1 2002.03,-335.69 2008.71,-333.59"/>
</g>
<!-- aptos_coin&#45;&gt;vector -->
<g id="edge92" class="edge">
<title>aptos_coin&#45;&gt;vector</title>
<path fill="none" stroke="black" d="M1962.48,-589.17C2044.19,-582.01 2207.58,-565.02 2259,-540 2311.03,-514.69 2354,-508.86 2354,-451 2354,-451 2354,-451 2354,-161 2354,-118.97 2355.44,-97.46 2322,-72 2270.01,-32.41 1812.11,-21.92 1668.13,-19.59"/>
<polygon fill="black" stroke="black" points="1668.58,-16.08 1658.53,-19.42 1668.48,-23.08 1668.58,-16.08"/>
</g>
<!-- aptos_coin&#45;&gt;option -->
<g id="edge93" class="edge">
<title>aptos_coin&#45;&gt;option</title>
<path fill="none" stroke="black" d="M1865.9,-592C1704.16,-588.39 1189.22,-574.44 1027,-540 937.85,-521.07 916.02,-509.72 835,-468 784.04,-441.76 771.24,-433.62 728,-396 614.5,-297.25 624.53,-231.28 502,-144 475.58,-125.18 441.46,-111.35 415.39,-102.55"/>
<polygon fill="black" stroke="black" points="416.71,-98.97 406.11,-99.19 414.53,-105.62 416.71,-98.97"/>
</g>
<!-- aptos_coin&#45;&gt;string -->
<g id="edge94" class="edge">
<title>aptos_coin&#45;&gt;string</title>
<path fill="none" stroke="black" d="M1867.68,-588.92C1790.27,-579.93 1635.51,-552.01 1539,-468 1438.93,-380.89 1499.26,-272.02 1379,-216 1322.58,-189.72 892.05,-170.2 755.45,-164.62"/>
<polygon fill="black" stroke="black" points="755.77,-161.09 745.64,-164.19 755.49,-168.09 755.77,-161.09"/>
</g>
<!-- aptos_coin&#45;&gt;signer -->
<g id="edge95" class="edge">
<title>aptos_coin&#45;&gt;signer</title>
<path fill="none" stroke="black" d="M1963.62,-590.95C2022.24,-586.94 2122.65,-575.08 2201,-540 2259.99,-513.59 2316,-515.63 2316,-451 2316,-451 2316,-451 2316,-233 2316,-191.98 2302.06,-146.18 2291.78,-117.97"/>
<polygon fill="black" stroke="black" points="2294.72,-116.84 2287.91,-108.72 2288.16,-119.31 2294.72,-116.84"/>
</g>
<!-- aptos_coin&#45;&gt;coin -->
<g id="edge98" class="edge">
<title>aptos_coin&#45;&gt;coin</title>
<path fill="none" stroke="black" d="M1866.51,-590.77C1789.7,-586.33 1635.87,-573.7 1510,-540 1507,-539.2 1503.93,-538.22 1500.88,-537.16"/>
<polygon fill="black" stroke="black" points="1502.35,-533.59 1491.76,-533.27 1499.84,-540.12 1502.35,-533.59"/>
</g>
<!-- aptos_coin&#45;&gt;error -->
<g id="edge96" class="edge">
<title>aptos_coin&#45;&gt;error</title>
<path fill="none" stroke="black" d="M1958.79,-585.44C2055.33,-567.52 2278,-518.84 2278,-451 2278,-451 2278,-451 2278,-305 2278,-155.24 2123.9,-191.86 1982,-144 1875.02,-107.92 1741.02,-96.28 1675.99,-92.62"/>
<polygon fill="black" stroke="black" points="1676.22,-89.08 1666.05,-92.05 1675.85,-96.07 1676.22,-89.08"/>
</g>
<!-- aptos_coin&#45;&gt;system_addresses -->
<g id="edge97" class="edge">
<title>aptos_coin&#45;&gt;system_addresses</title>
<path fill="none" stroke="black" d="M1936.01,-577.49C1974.6,-547.54 2055.58,-477.46 2086,-396 2091.6,-381.01 2093.91,-373.91 2086,-360 2077.62,-345.25 2063.33,-334.17 2048.62,-326.07"/>
<polygon fill="black" stroke="black" points="2050.46,-322.57 2039.96,-321.16 2047.29,-328.81 2050.46,-322.57"/>
</g>
<!-- resource_account&#45;&gt;bcs -->
<g id="edge99" class="edge">
<title>resource_account&#45;&gt;bcs</title>
<path fill="none" stroke="black" d="M1037.8,-517.14C829.33,-504.94 225,-463.93 171,-396 118.16,-329.54 168.69,-269.03 235,-216 280.99,-179.22 350.43,-167.87 393.13,-164.43"/>
<polygon fill="black" stroke="black" points="393.16,-167.86 402.9,-163.68 392.68,-160.88 393.16,-167.86"/>
</g>
<!-- resource_account&#45;&gt;account -->
<g id="edge100" class="edge">
<title>resource_account&#45;&gt;account</title>
<path fill="none" stroke="black" d="M1063.89,-507.34C1023.29,-494.76 963.52,-476.25 923.7,-463.92"/>
<polygon fill="black" stroke="black" points="924.87,-460.31 914.28,-460.69 922.8,-466.99 924.87,-460.31"/>
</g>
<!-- timestamp -->
<g id="node31" class="node">
<title>timestamp</title>
<ellipse fill="none" stroke="black" cx="1912" cy="-378" rx="48.19" ry="18"/>
<text text-anchor="middle" x="1912" y="-374.3" font-family="Times,serif" font-size="14.00">timestamp</text>
</g>
<!-- resource_account&#45;&gt;timestamp -->
<g id="edge101" class="edge">
<title>resource_account&#45;&gt;timestamp</title>
<path fill="none" stroke="black" d="M1178.98,-517.92C1317.44,-511.39 1618.79,-494.58 1719,-468 1777.44,-452.5 1840.14,-420.38 1877.7,-399.27"/>
<polygon fill="black" stroke="black" points="1879.19,-401.88 1886.15,-393.89 1875.73,-395.79 1879.19,-401.88"/>
</g>
<!-- timestamp&#45;&gt;error -->
<g id="edge102" class="edge">
<title>timestamp&#45;&gt;error</title>
<path fill="none" stroke="black" d="M1912.89,-359.79C1914.11,-316.84 1911.02,-204.04 1850,-144 1825.48,-119.87 1729.59,-103.41 1675.2,-95.81"/>
<polygon fill="black" stroke="black" points="1675.97,-92.25 1665.59,-94.36 1675.02,-99.18 1675.97,-92.25"/>
</g>
<!-- timestamp&#45;&gt;system_addresses -->
<g id="edge103" class="edge">
<title>timestamp&#45;&gt;system_addresses</title>
<path fill="none" stroke="black" d="M1931.29,-361.12C1942.35,-352 1956.44,-340.4 1968.74,-330.28"/>
<polygon fill="black" stroke="black" points="1970.41,-332.61 1975.9,-323.55 1965.96,-327.21 1970.41,-332.61"/>
</g>
</g>
</svg>
