<?xml version="1.0" encoding="UTF-8" standalone="no"?>
<!DOCTYPE svg PUBLIC "-//W3C//DTD SVG 1.1//EN"
 "http://www.w3.org/Graphics/SVG/1.1/DTD/svg11.dtd">
<!-- Generated by graphviz version 8.0.5 (20230430.1635)
 -->
<!-- Title: G Pages: 1 -->
<svg width="2586pt" height="836pt"
 viewBox="0.00 0.00 2586.00 836.00" xmlns="http://www.w3.org/2000/svg" xmlns:xlink="http://www.w3.org/1999/xlink">
<g id="graph0" class="graph" transform="scale(1 1) rotate(0) translate(4 832)">
<title>G</title>
<polygon fill="white" stroke="none" points="-4,4 -4,-832 2582,-832 2582,4 -4,4"/>
<!-- user -->
<g id="node1" class="node">
<title>user</title>
<ellipse fill="none" stroke="black" cx="1302" cy="-810" rx="27" ry="18"/>
<text text-anchor="middle" x="1302" y="-804.95" font-family="Times,serif" font-size="14.00">user</text>
</g>
<!-- vector -->
<g id="node2" class="node">
<title>vector</title>
<ellipse fill="none" stroke="black" cx="1645" cy="-18" rx="33.95" ry="18"/>
<text text-anchor="middle" x="1645" y="-12.95" font-family="Times,serif" font-size="14.00">vector</text>
</g>
<!-- user&#45;&gt;vector -->
<g id="edge1" class="edge">
<title>user&#45;&gt;vector</title>
<path fill="none" stroke="black" d="M1329.29,-809.06C1477.03,-809.21 2182.22,-807.15 2393,-756 2481.67,-734.48 2578,-758.24 2578,-667 2578,-667 2578,-667 2578,-161 2578,-80.02 2496.62,-95.11 2419,-72 2280.92,-30.9 1833.12,-21.48 1689.66,-19.49"/>
<polygon fill="black" stroke="black" points="1690.12,-15.99 1680.08,-19.35 1690.03,-22.99 1690.12,-15.99"/>
</g>
<!-- option -->
<g id="node3" class="node">
<title>option</title>
<ellipse fill="none" stroke="black" cx="376" cy="-90" rx="34.46" ry="18"/>
<text text-anchor="middle" x="376" y="-84.95" font-family="Times,serif" font-size="14.00">option</text>
</g>
<!-- user&#45;&gt;option -->
<g id="edge2" class="edge">
<title>user&#45;&gt;option</title>
<path fill="none" stroke="black" d="M1274.81,-808.98C1087.83,-808.51 0,-800.02 0,-667 0,-667 0,-667 0,-233 0,-188.47 9.93,-170.11 46,-144 90.73,-111.63 251.31,-98.1 330.79,-93.28"/>
<polygon fill="black" stroke="black" points="330.66,-96.74 340.44,-92.66 330.26,-89.75 330.66,-96.74"/>
</g>
<!-- string -->
<g id="node4" class="node">
<title>string</title>
<ellipse fill="none" stroke="black" cx="716" cy="-162" rx="31.9" ry="18"/>
<text text-anchor="middle" x="716" y="-156.95" font-family="Times,serif" font-size="14.00">string</text>
</g>
<!-- user&#45;&gt;string -->
<g id="edge3" class="edge">
<title>user&#45;&gt;string</title>
<path fill="none" stroke="black" d="M1275.23,-806.68C1143.89,-794.96 574,-739.92 574,-667 574,-667 574,-667 574,-449 574,-392.94 662.62,-246.96 699.84,-188.12"/>
<polygon fill="black" stroke="black" points="703.15,-190.45 705.56,-180.14 697.24,-186.7 703.15,-190.45"/>
</g>
<!-- signer -->
<g id="node5" class="node">
<title>signer</title>
<ellipse fill="none" stroke="black" cx="2318" cy="-90" rx="33.44" ry="18"/>
<text text-anchor="middle" x="2318" y="-84.95" font-family="Times,serif" font-size="14.00">signer</text>
</g>
<!-- user&#45;&gt;signer -->
<g id="edge4" class="edge">
<title>user&#45;&gt;signer</title>
<path fill="none" stroke="black" d="M1329.3,-808.83C1511.16,-807.32 2540,-793.22 2540,-667 2540,-667 2540,-667 2540,-305 2540,-221.23 2508.98,-194.3 2442,-144 2416.58,-124.91 2383.24,-111.16 2357.53,-102.46"/>
<polygon fill="black" stroke="black" points="2358.97,-98.92 2348.38,-99.14 2356.8,-105.57 2358.97,-98.92"/>
</g>
<!-- type_info -->
<g id="node6" class="node">
<title>type_info</title>
<ellipse fill="none" stroke="black" cx="976" cy="-234" rx="46.23" ry="18"/>
<text text-anchor="middle" x="976" y="-228.95" font-family="Times,serif" font-size="14.00">type_info</text>
</g>
<!-- user&#45;&gt;type_info -->
<g id="edge5" class="edge">
<title>user&#45;&gt;type_info</title>
<path fill="none" stroke="black" d="M1309.51,-792.34C1320.58,-766.2 1340,-713.7 1340,-667 1340,-667 1340,-667 1340,-449 1340,-411.05 1312.01,-312.47 1283,-288 1245.98,-256.77 1110.53,-243.3 1032.47,-238.02"/>
<polygon fill="black" stroke="black" points="1033.06,-234.49 1022.85,-237.33 1032.61,-241.47 1033.06,-234.49"/>
</g>
<!-- table -->
<g id="node7" class="node">
<title>table</title>
<ellipse fill="none" stroke="black" cx="1245" cy="-306" rx="28.83" ry="18"/>
<text text-anchor="middle" x="1245" y="-300.95" font-family="Times,serif" font-size="14.00">table</text>
</g>
<!-- user&#45;&gt;table -->
<g id="edge6" class="edge">
<title>user&#45;&gt;table</title>
<path fill="none" stroke="black" d="M1302,-791.51C1302,-764.71 1302,-711.87 1302,-667 1302,-667 1302,-667 1302,-449 1302,-405.47 1278.64,-359.48 1261.83,-332.02"/>
<polygon fill="black" stroke="black" points="1264.29,-330.36 1255.99,-323.78 1258.38,-334.1 1264.29,-330.36"/>
</g>
<!-- coin -->
<g id="node8" class="node">
<title>coin</title>
<ellipse fill="none" stroke="black" cx="1488" cy="-522" rx="27" ry="18"/>
<text text-anchor="middle" x="1488" y="-516.95" font-family="Times,serif" font-size="14.00">coin</text>
</g>
<!-- user&#45;&gt;coin -->
<g id="edge7" class="edge">
<title>user&#45;&gt;coin</title>
<path fill="none" stroke="black" d="M1326.28,-801.53C1368.98,-786.9 1456.4,-750.04 1492,-684 1514.77,-641.77 1505.22,-583.81 1496.44,-550.19"/>
<polygon fill="black" stroke="black" points="1499.6,-549.47 1493.54,-540.78 1492.85,-551.35 1499.6,-549.47"/>
</g>
<!-- tablist -->
<g id="node9" class="node">
<title>tablist</title>
<ellipse fill="none" stroke="black" cx="954" cy="-594" rx="33.44" ry="18"/>
<text text-anchor="middle" x="954" y="-588.95" font-family="Times,serif" font-size="14.00">tablist</text>
</g>
<!-- user&#45;&gt;tablist -->
<g id="edge8" class="edge">
<title>user&#45;&gt;tablist</title>
<path fill="none" stroke="black" d="M1274.69,-808.84C1202.35,-807.78 1008.47,-800.76 967,-756 933.81,-720.17 939.76,-658.58 946.96,-622.86"/>
<polygon fill="black" stroke="black" points="950.57,-623.76 949.29,-613.24 943.73,-622.26 950.57,-623.76"/>
</g>
<!-- registry -->
<g id="node10" class="node">
<title>registry</title>
<ellipse fill="none" stroke="black" cx="1015" cy="-738" rx="39.07" ry="18"/>
<text text-anchor="middle" x="1015" y="-732.95" font-family="Times,serif" font-size="14.00">registry</text>
</g>
<!-- user&#45;&gt;registry -->
<g id="edge9" class="edge">
<title>user&#45;&gt;registry</title>
<path fill="none" stroke="black" d="M1276.78,-802.85C1228.01,-790.95 1120.19,-764.66 1059.23,-749.79"/>
<polygon fill="black" stroke="black" points="1060.33,-746.21 1049.78,-747.24 1058.67,-753.01 1060.33,-746.21"/>
</g>
<!-- option&#45;&gt;vector -->
<g id="edge10" class="edge">
<title>option&#45;&gt;vector</title>
<path fill="none" stroke="black" d="M410.27,-87.11C587.55,-77.33 1400.04,-32.51 1600.29,-21.47"/>
<polygon fill="black" stroke="black" points="1600.2,-24.92 1609.99,-20.88 1599.81,-17.93 1600.2,-24.92"/>
</g>
<!-- string&#45;&gt;vector -->
<g id="edge11" class="edge">
<title>string&#45;&gt;vector</title>
<path fill="none" stroke="black" d="M735.53,-147.47C766.32,-126.96 828.76,-88.63 888,-72 1023.23,-34.03 1458.35,-22.54 1599.99,-19.76"/>
<polygon fill="black" stroke="black" points="1599.9,-23.25 1609.84,-19.56 1599.77,-16.25 1599.9,-23.25"/>
</g>
<!-- string&#45;&gt;option -->
<g id="edge12" class="edge">
<title>string&#45;&gt;option</title>
<path fill="none" stroke="black" d="M686.13,-154.85C625.52,-142.37 487.98,-114.06 418.24,-99.7"/>
<polygon fill="black" stroke="black" points="419.15,-96.1 408.65,-97.52 417.74,-102.96 419.15,-96.1"/>
</g>
<!-- type_info&#45;&gt;string -->
<g id="edge13" class="edge">
<title>type_info&#45;&gt;string</title>
<path fill="none" stroke="black" d="M938.75,-222.97C889.82,-209.8 804.33,-186.78 754.7,-173.42"/>
<polygon fill="black" stroke="black" points="755.94,-169.86 745.38,-170.64 754.12,-176.62 755.94,-169.86"/>
</g>
<!-- error -->
<g id="node11" class="node">
<title>error</title>
<ellipse fill="none" stroke="black" cx="1658" cy="-90" rx="28.83" ry="18"/>
<text text-anchor="middle" x="1658" y="-84.95" font-family="Times,serif" font-size="14.00">error</text>
</g>
<!-- type_info&#45;&gt;error -->
<g id="edge14" class="edge">
<title>type_info&#45;&gt;error</title>
<path fill="none" stroke="black" d="M982.22,-215.79C990.78,-194.83 1008.37,-160.24 1036,-144 1086.11,-114.55 1489.02,-97.24 1618.26,-92.4"/>
<polygon fill="black" stroke="black" points="1618.33,-95.87 1628.19,-92 1618.07,-88.87 1618.33,-95.87"/>
</g>
<!-- features -->
<g id="node12" class="node">
<title>features</title>
<ellipse fill="none" stroke="black" cx="1616" cy="-162" rx="40.09" ry="18"/>
<text text-anchor="middle" x="1616" y="-156.95" font-family="Times,serif" font-size="14.00">features</text>
</g>
<!-- type_info&#45;&gt;features -->
<g id="edge15" class="edge">
<title>type_info&#45;&gt;features</title>
<path fill="none" stroke="black" d="M1020.24,-228.16C1135.62,-215.54 1445.1,-181.69 1566.33,-168.43"/>
<polygon fill="black" stroke="black" points="1566.56,-171.82 1576.12,-167.25 1565.8,-164.86 1566.56,-171.82"/>
</g>
<!-- bcs -->
<g id="node13" class="node">
<title>bcs</title>
<ellipse fill="none" stroke="black" cx="431" cy="-162" rx="27" ry="18"/>
<text text-anchor="middle" x="431" y="-156.95" font-family="Times,serif" font-size="14.00">bcs</text>
</g>
<!-- type_info&#45;&gt;bcs -->
<g id="edge16" class="edge">
<title>type_info&#45;&gt;bcs</title>
<path fill="none" stroke="black" d="M935.35,-224.99C919.11,-221.94 900.21,-218.58 883,-216 729.77,-193.04 546.06,-174.15 468.49,-166.57"/>
<polygon fill="black" stroke="black" points="469.12,-163.02 458.83,-165.54 468.44,-169.99 469.12,-163.02"/>
</g>
<!-- coin&#45;&gt;option -->
<g id="edge17" class="edge">
<title>coin&#45;&gt;option</title>
<path fill="none" stroke="black" d="M1460.88,-519.26C1410.75,-516.08 1300.21,-509.15 1207,-504 960.57,-490.39 114,-553.8 114,-307 114,-307 114,-307 114,-233 114,-135.24 256.74,-104.43 331.5,-95"/>
<polygon fill="black" stroke="black" points="331.5,-98.41 341.02,-93.76 330.68,-91.46 331.5,-98.41"/>
</g>
<!-- coin&#45;&gt;string -->
<g id="edge18" class="edge">
<title>coin&#45;&gt;string</title>
<path fill="none" stroke="black" d="M1481.28,-504.26C1471.37,-478.02 1454,-425.39 1454,-379 1454,-379 1454,-379 1454,-305 1454,-233.65 915.14,-180.55 758.33,-166.61"/>
<polygon fill="black" stroke="black" points="758.98,-163.07 748.71,-165.68 758.37,-170.04 758.98,-163.07"/>
</g>
<!-- coin&#45;&gt;signer -->
<g id="edge19" class="edge">
<title>coin&#45;&gt;signer</title>
<path fill="none" stroke="black" d="M1515.24,-520.92C1616.12,-520.24 1967.81,-514.53 2068,-468 2214.82,-399.81 2226.28,-328.38 2291,-180 2299.67,-160.12 2306.68,-136.59 2311.38,-118.72"/>
<polygon fill="black" stroke="black" points="2314.99,-119.71 2314.07,-109.15 2308.21,-117.98 2314.99,-119.71"/>
</g>
<!-- coin&#45;&gt;type_info -->
<g id="edge21" class="edge">
<title>coin&#45;&gt;type_info</title>
<path fill="none" stroke="black" d="M1472.03,-507.19C1461.5,-497.27 1448.19,-483.05 1440,-468 1400.43,-395.27 1454.33,-342.5 1392,-288 1339.76,-242.33 1134.7,-235.29 1033.34,-234.67"/>
<polygon fill="black" stroke="black" points="1033.41,-231.16 1023.4,-234.62 1033.38,-238.16 1033.41,-231.16"/>
</g>
<!-- coin&#45;&gt;error -->
<g id="edge20" class="edge">
<title>coin&#45;&gt;error</title>
<path fill="none" stroke="black" d="M1515.15,-520.07C1609.49,-516.54 1922.41,-502.46 2016,-468 2068.76,-448.58 2092.54,-445.05 2120,-396 2184.12,-281.47 2083.92,-201.65 1966,-144 1877.21,-100.59 1758.83,-92.12 1697.93,-90.85"/>
<polygon fill="black" stroke="black" points="1698.3,-87.34 1688.25,-90.69 1698.19,-94.34 1698.3,-87.34"/>
</g>
<!-- system_addresses -->
<g id="node14" class="node">
<title>system_addresses</title>
<ellipse fill="none" stroke="black" cx="2038" cy="-306" rx="76.94" ry="18"/>
<text text-anchor="middle" x="2038" y="-300.95" font-family="Times,serif" font-size="14.00">system_addresses</text>
</g>
<!-- coin&#45;&gt;system_addresses -->
<g id="edge22" class="edge">
<title>coin&#45;&gt;system_addresses</title>
<path fill="none" stroke="black" d="M1515.17,-519.93C1624.31,-515.02 2028.53,-490.6 2103,-396 2112.9,-383.43 2109.86,-374.45 2103,-360 2097.19,-347.77 2087.03,-337.44 2076.44,-329.23"/>
<polygon fill="black" stroke="black" points="2078.7,-325.83 2068.54,-322.84 2074.62,-331.51 2078.7,-325.83"/>
</g>
<!-- event -->
<g id="node15" class="node">
<title>event</title>
<ellipse fill="none" stroke="black" cx="211" cy="-378" rx="30.88" ry="18"/>
<text text-anchor="middle" x="211" y="-372.95" font-family="Times,serif" font-size="14.00">event</text>
</g>
<!-- coin&#45;&gt;event -->
<g id="edge23" class="edge">
<title>coin&#45;&gt;event</title>
<path fill="none" stroke="black" d="M1461.04,-519.19C1303.47,-508.47 500.57,-451.9 260,-396 255.56,-394.97 250.96,-393.68 246.44,-392.28"/>
<polygon fill="black" stroke="black" points="247.73,-388.69 237.13,-388.86 245.52,-395.33 247.73,-388.69"/>
</g>
<!-- account -->
<g id="node16" class="node">
<title>account</title>
<ellipse fill="none" stroke="black" cx="893" cy="-450" rx="39.58" ry="18"/>
<text text-anchor="middle" x="893" y="-444.95" font-family="Times,serif" font-size="14.00">account</text>
</g>
<!-- coin&#45;&gt;account -->
<g id="edge24" class="edge">
<title>coin&#45;&gt;account</title>
<path fill="none" stroke="black" d="M1461.28,-517.86C1368.85,-506.98 1061.82,-470.86 941.74,-456.73"/>
<polygon fill="black" stroke="black" points="942.39,-453.17 932.05,-455.48 941.58,-460.12 942.39,-453.17"/>
</g>
<!-- aggregator -->
<g id="node17" class="node">
<title>aggregator</title>
<ellipse fill="none" stroke="black" cx="1608" cy="-306" rx="50.33" ry="18"/>
<text text-anchor="middle" x="1608" y="-300.95" font-family="Times,serif" font-size="14.00">aggregator</text>
</g>
<!-- coin&#45;&gt;aggregator -->
<g id="edge25" class="edge">
<title>coin&#45;&gt;aggregator</title>
<path fill="none" stroke="black" d="M1497.02,-504.92C1517.54,-468.32 1567.9,-378.51 1593.11,-333.55"/>
<polygon fill="black" stroke="black" points="1596.54,-335.59 1598.38,-325.16 1590.43,-332.17 1596.54,-335.59"/>
</g>
<!-- aggregator_factory -->
<g id="node18" class="node">
<title>aggregator_factory</title>
<ellipse fill="none" stroke="black" cx="1715" cy="-378" rx="81.04" ry="18"/>
<text text-anchor="middle" x="1715" y="-372.95" font-family="Times,serif" font-size="14.00">aggregator_factory</text>
</g>
<!-- coin&#45;&gt;aggregator_factory -->
<g id="edge26" class="edge">
<title>coin&#45;&gt;aggregator_factory</title>
<path fill="none" stroke="black" d="M1514.93,-519.6C1574.85,-515.86 1716.15,-503.41 1745,-468 1759.78,-449.86 1748.56,-424.09 1735.85,-404.94"/>
<polygon fill="black" stroke="black" points="1738.24,-403.26 1729.59,-397.14 1732.53,-407.32 1738.24,-403.26"/>
</g>
<!-- optional_aggregator -->
<g id="node19" class="node">
<title>optional_aggregator</title>
<ellipse fill="none" stroke="black" cx="1651" cy="-450" rx="85.13" ry="18"/>
<text text-anchor="middle" x="1651" y="-444.95" font-family="Times,serif" font-size="14.00">optional_aggregator</text>
</g>
<!-- coin&#45;&gt;optional_aggregator -->
<g id="edge27" class="edge">
<title>coin&#45;&gt;optional_aggregator</title>
<path fill="none" stroke="black" d="M1510.32,-511.41C1534.55,-501.01 1573.93,-484.1 1604.87,-470.81"/>
<polygon fill="black" stroke="black" points="1605.78,-473.8 1613.59,-466.64 1603.02,-467.37 1605.78,-473.8"/>
</g>
<!-- tablist&#45;&gt;option -->
<g id="edge28" class="edge">
<title>tablist&#45;&gt;option</title>
<path fill="none" stroke="black" d="M920.76,-590.9C818.86,-583.64 502.93,-555.12 258,-468 156.25,-431.81 76,-415 76,-307 76,-307 76,-307 76,-233 76,-187.19 90.88,-170.85 128,-144 160.05,-120.81 269.32,-104.06 331.59,-96.14"/>
<polygon fill="black" stroke="black" points="331.79,-99.52 341.28,-94.81 330.92,-92.57 331.79,-99.52"/>
</g>
<!-- table_with_length -->
<g id="node20" class="node">
<title>table_with_length</title>
<ellipse fill="none" stroke="black" cx="1159" cy="-378" rx="77.45" ry="18"/>
<text text-anchor="middle" x="1159" y="-372.95" font-family="Times,serif" font-size="14.00">table_with_length</text>
</g>
<!-- tablist&#45;&gt;table_with_length -->
<g id="edge29" class="edge">
<title>tablist&#45;&gt;table_with_length</title>
<path fill="none" stroke="black" d="M987.46,-591.06C1049.76,-586.67 1179.7,-573.62 1207,-540 1239.41,-500.1 1204.44,-438.82 1179.51,-404.52"/>
<polygon fill="black" stroke="black" points="1181.92,-402.9 1173.12,-397.01 1176.32,-407.11 1181.92,-402.9"/>
</g>
<!-- registry&#45;&gt;option -->
<g id="edge30" class="edge">
<title>registry&#45;&gt;option</title>
<path fill="none" stroke="black" d="M975.7,-737.25C830.11,-737.76 322.03,-735.72 170,-684 103.01,-661.21 38,-665.76 38,-595 38,-595 38,-595 38,-233 38,-188.06 49.65,-170.42 86,-144 124.42,-116.08 259.52,-100.79 330.95,-94.49"/>
<polygon fill="black" stroke="black" points="331.18,-97.9 340.85,-93.55 330.58,-90.92 331.18,-97.9"/>
</g>
<!-- registry&#45;&gt;string -->
<g id="edge31" class="edge">
<title>registry&#45;&gt;string</title>
<path fill="none" stroke="black" d="M975.56,-737.37C888.58,-735.91 688,-719.09 688,-595 688,-595 688,-595 688,-449 688,-354.12 703.45,-242.36 711.4,-191.18"/>
<polygon fill="black" stroke="black" points="715.01,-191.78 713.11,-181.35 708.09,-190.68 715.01,-191.78"/>
</g>
<!-- registry&#45;&gt;signer -->
<g id="edge32" class="edge">
<title>registry&#45;&gt;signer</title>
<path fill="none" stroke="black" d="M1054.01,-735.38C1288.63,-725.37 2502,-669.96 2502,-595 2502,-595 2502,-595 2502,-305 2502,-222.81 2469.02,-202.22 2411,-144 2394.95,-127.89 2373,-115.08 2354.46,-106.09"/>
<polygon fill="black" stroke="black" points="2356.11,-102.53 2345.56,-101.49 2353.16,-108.88 2356.11,-102.53"/>
</g>
<!-- registry&#45;&gt;type_info -->
<g id="edge33" class="edge">
<title>registry&#45;&gt;type_info</title>
<path fill="none" stroke="black" d="M1013.66,-719.72C1007.91,-645.73 985.34,-355.24 978.19,-263.16"/>
<polygon fill="black" stroke="black" points="981.62,-263.17 977.36,-253.47 974.64,-263.71 981.62,-263.17"/>
</g>
<!-- registry&#45;&gt;table -->
<g id="edge34" class="edge">
<title>registry&#45;&gt;table</title>
<path fill="none" stroke="black" d="M1038.63,-723.26C1084.2,-695.31 1183.66,-627.08 1228,-540 1262.11,-473 1255.74,-380.87 1249.62,-335.13"/>
<polygon fill="black" stroke="black" points="1252.95,-334.68 1248.06,-325.28 1246.02,-335.68 1252.95,-334.68"/>
</g>
<!-- registry&#45;&gt;coin -->
<g id="edge37" class="edge">
<title>registry&#45;&gt;coin</title>
<path fill="none" stroke="black" d="M1052.47,-732.21C1098.16,-725.46 1177.07,-710.87 1240,-684 1328.37,-646.27 1420.1,-577.64 1463.03,-543.47"/>
<polygon fill="black" stroke="black" points="1464.83,-545.71 1470.43,-536.72 1460.44,-540.25 1464.83,-545.71"/>
</g>
<!-- registry&#45;&gt;tablist -->
<g id="edge38" class="edge">
<title>registry&#45;&gt;tablist</title>
<path fill="none" stroke="black" d="M1007.64,-719.87C997.14,-695.43 977.77,-650.33 965.4,-621.55"/>
<polygon fill="black" stroke="black" points="968.36,-620.55 961.19,-612.75 961.93,-623.32 968.36,-620.55"/>
</g>
<!-- registry&#45;&gt;event -->
<g id="edge35" class="edge">
<title>registry&#45;&gt;event</title>
<path fill="none" stroke="black" d="M976.14,-735.3C798.94,-727.02 76,-687.59 76,-595 76,-595 76,-595 76,-521 76,-462.05 137.87,-417.83 177.85,-395.42"/>
<polygon fill="black" stroke="black" points="179.36,-398.04 186.48,-390.2 176.03,-391.89 179.36,-398.04"/>
</g>
<!-- registry&#45;&gt;account -->
<g id="edge36" class="edge">
<title>registry&#45;&gt;account</title>
<path fill="none" stroke="black" d="M997.21,-721.71C973.3,-700.01 931.53,-657.78 912,-612 893.32,-568.23 891.03,-512.06 891.62,-478.95"/>
<polygon fill="black" stroke="black" points="895.14,-479.35 891.93,-469.26 888.15,-479.15 895.14,-479.35"/>
</g>
<!-- incentives -->
<g id="node21" class="node">
<title>incentives</title>
<ellipse fill="none" stroke="black" cx="1435" cy="-666" rx="48.28" ry="18"/>
<text text-anchor="middle" x="1435" y="-660.95" font-family="Times,serif" font-size="14.00">incentives</text>
</g>
<!-- registry&#45;&gt;incentives -->
<g id="edge39" class="edge">
<title>registry&#45;&gt;incentives</title>
<path fill="none" stroke="black" d="M1051.54,-730.91C1125.61,-718.57 1293.77,-690.54 1380.71,-676.05"/>
<polygon fill="black" stroke="black" points="1381.11,-679.36 1390.4,-674.27 1379.96,-672.46 1381.11,-679.36"/>
</g>
<!-- features&#45;&gt;signer -->
<g id="edge40" class="edge">
<title>features&#45;&gt;signer</title>
<path fill="none" stroke="black" d="M1654.99,-157.11C1776.36,-145.01 2146.88,-108.06 2274.37,-95.35"/>
<polygon fill="black" stroke="black" points="2274.63,-98.74 2284.23,-94.27 2273.93,-91.78 2274.63,-98.74"/>
</g>
<!-- features&#45;&gt;error -->
<g id="edge41" class="edge">
<title>features&#45;&gt;error</title>
<path fill="none" stroke="black" d="M1625.95,-144.41C1630.99,-136.01 1637.22,-125.63 1642.84,-116.26"/>
<polygon fill="black" stroke="black" points="1646.26,-118.36 1648.41,-107.99 1640.26,-114.76 1646.26,-118.36"/>
</g>
<!-- system_addresses&#45;&gt;signer -->
<g id="edge42" class="edge">
<title>system_addresses&#45;&gt;signer</title>
<path fill="none" stroke="black" d="M2059.51,-288.56C2109.85,-250.09 2235.27,-154.23 2290.8,-111.79"/>
<polygon fill="black" stroke="black" points="2292.58,-114.07 2298.4,-105.21 2288.33,-108.5 2292.58,-114.07"/>
</g>
<!-- system_addresses&#45;&gt;error -->
<g id="edge43" class="edge">
<title>system_addresses&#45;&gt;error</title>
<path fill="none" stroke="black" d="M2032.07,-287.6C2019.65,-253.95 1987.52,-180.1 1934,-144 1895.86,-118.27 1764.13,-101.69 1697.4,-94.74"/>
<polygon fill="black" stroke="black" points="1697.8,-91.16 1687.5,-93.63 1697.1,-98.12 1697.8,-91.16"/>
</g>
<!-- event&#45;&gt;bcs -->
<g id="edge44" class="edge">
<title>event&#45;&gt;bcs</title>
<path fill="none" stroke="black" d="M205.82,-360.06C201.1,-341.2 196.57,-310.44 209,-288 247.71,-218.1 342.33,-184.61 394.68,-170.94"/>
<polygon fill="black" stroke="black" points="395.32,-174.14 404.18,-168.33 393.63,-167.35 395.32,-174.14"/>
</g>
<!-- guid -->
<g id="node22" class="node">
<title>guid</title>
<ellipse fill="none" stroke="black" cx="245" cy="-306" rx="27.3" ry="18"/>
<text text-anchor="middle" x="245" y="-300.95" font-family="Times,serif" font-size="14.00">guid</text>
</g>
<!-- event&#45;&gt;guid -->
<g id="edge45" class="edge">
<title>event&#45;&gt;guid</title>
<path fill="none" stroke="black" d="M219.06,-360.41C223,-352.3 227.83,-342.35 232.25,-333.25"/>
<polygon fill="black" stroke="black" points="235.78,-334.99 237,-324.47 229.48,-331.94 235.78,-334.99"/>
</g>
<!-- account&#45;&gt;vector -->
<g id="edge46" class="edge">
<title>account&#45;&gt;vector</title>
<path fill="none" stroke="black" d="M894.82,-431.53C897.45,-404.76 902,-351.96 902,-307 902,-307 902,-307 902,-161 902,-89.42 1440.88,-36.77 1600.79,-22.72"/>
<polygon fill="black" stroke="black" points="1600.97,-26.13 1610.63,-21.78 1600.37,-19.16 1600.97,-26.13"/>
</g>
<!-- account&#45;&gt;option -->
<g id="edge47" class="edge">
<title>account&#45;&gt;option</title>
<path fill="none" stroke="black" d="M854.3,-445.81C733.59,-435.77 371.46,-404.96 363,-396 290.41,-319.07 338.9,-176.72 363.81,-117.7"/>
<polygon fill="black" stroke="black" points="367.38,-119.26 368.15,-108.69 360.96,-116.47 367.38,-119.26"/>
</g>
<!-- account&#45;&gt;signer -->
<g id="edge48" class="edge">
<title>account&#45;&gt;signer</title>
<path fill="none" stroke="black" d="M932.7,-448.24C1135.74,-444.24 2050.53,-424.68 2103,-396 2161.67,-363.93 2265.5,-185.3 2303.52,-117.3"/>
<polygon fill="black" stroke="black" points="2307.04,-119.17 2308.85,-108.73 2300.92,-115.77 2307.04,-119.17"/>
</g>
<!-- account&#45;&gt;type_info -->
<g id="edge51" class="edge">
<title>account&#45;&gt;type_info</title>
<path fill="none" stroke="black" d="M900.69,-431.91C905.27,-421.57 911.13,-408.09 916,-396 934.83,-349.27 954.93,-294.12 966.43,-262"/>
<polygon fill="black" stroke="black" points="969.92,-263.63 969.99,-253.03 963.33,-261.28 969.92,-263.63"/>
</g>
<!-- account&#45;&gt;table -->
<g id="edge52" class="edge">
<title>account&#45;&gt;table</title>
<path fill="none" stroke="black" d="M917.18,-435.49C951.21,-416.83 1015.51,-382.9 1073,-360 1118.64,-341.82 1173.1,-325.98 1208.33,-316.46"/>
<polygon fill="black" stroke="black" points="1208.86,-319.68 1217.62,-313.71 1207.05,-312.91 1208.86,-319.68"/>
</g>
<!-- account&#45;&gt;error -->
<g id="edge49" class="edge">
<title>account&#45;&gt;error</title>
<path fill="none" stroke="black" d="M908.91,-433.08C928.11,-414.35 961.81,-382.89 994,-360 1153.89,-246.29 1194.48,-210.68 1379,-144 1461.42,-114.22 1563.9,-100.24 1618.84,-94.48"/>
<polygon fill="black" stroke="black" points="1618.9,-97.89 1628.5,-93.4 1618.2,-90.93 1618.9,-97.89"/>
</g>
<!-- account&#45;&gt;bcs -->
<g id="edge50" class="edge">
<title>account&#45;&gt;bcs</title>
<path fill="none" stroke="black" d="M853.79,-446.33C737.5,-438.22 401.66,-413.38 386,-396 332.84,-336.99 385.27,-234.72 414.4,-187.81"/>
<polygon fill="black" stroke="black" points="417.8,-189.99 420.22,-179.68 411.89,-186.23 417.8,-189.99"/>
</g>
<!-- account&#45;&gt;system_addresses -->
<g id="edge53" class="edge">
<title>account&#45;&gt;system_addresses</title>
<path fill="none" stroke="black" d="M932.79,-448.71C1085.81,-447.26 1636.26,-439.12 1805,-396 1841.21,-386.75 1846.35,-374 1881,-360 1914.05,-346.65 1951.88,-333.81 1982.12,-324.11"/>
<polygon fill="black" stroke="black" points="1983.02,-327.18 1991.49,-320.81 1980.89,-320.51 1983.02,-327.18"/>
</g>
<!-- account&#45;&gt;event -->
<g id="edge59" class="edge">
<title>account&#45;&gt;event</title>
<path fill="none" stroke="black" d="M856.15,-442.98C832.92,-439.36 802.27,-434.91 775,-432 545.08,-407.5 481.89,-445.38 256,-396 252.38,-395.21 248.67,-394.18 245,-393.02"/>
<polygon fill="black" stroke="black" points="246.49,-389.49 235.89,-389.5 244.19,-396.1 246.49,-389.49"/>
</g>
<!-- account&#45;&gt;guid -->
<g id="edge57" class="edge">
<title>account&#45;&gt;guid</title>
<path fill="none" stroke="black" d="M856.14,-443.03C832.91,-439.43 802.26,-434.98 775,-432 668.45,-420.35 384.18,-453.94 294,-396 272.36,-382.1 259.48,-355.16 252.4,-334.55"/>
<polygon fill="black" stroke="black" points="255.47,-333.65 249.12,-325.16 248.79,-335.75 255.47,-333.65"/>
</g>
<!-- hash -->
<g id="node23" class="node">
<title>hash</title>
<ellipse fill="none" stroke="black" cx="470" cy="-234" rx="27.81" ry="18"/>
<text text-anchor="middle" x="470" y="-228.95" font-family="Times,serif" font-size="14.00">hash</text>
</g>
<!-- account&#45;&gt;hash -->
<g id="edge54" class="edge">
<title>account&#45;&gt;hash</title>
<path fill="none" stroke="black" d="M853.9,-446.19C740.41,-437.85 418.06,-412.77 403,-396 366.08,-354.88 415.87,-290.55 447.49,-257.01"/>
<polygon fill="black" stroke="black" points="449.63,-259.8 454.07,-250.18 444.6,-254.93 449.63,-259.8"/>
</g>
<!-- ed25519 -->
<g id="node24" class="node">
<title>ed25519</title>
<ellipse fill="none" stroke="black" cx="564" cy="-306" rx="42.65" ry="18"/>
<text text-anchor="middle" x="564" y="-300.95" font-family="Times,serif" font-size="14.00">ed25519</text>
</g>
<!-- account&#45;&gt;ed25519 -->
<g id="edge55" class="edge">
<title>account&#45;&gt;ed25519</title>
<path fill="none" stroke="black" d="M857.7,-441.5C820.53,-432.96 760.73,-417.36 712,-396 668.89,-377.1 622.99,-347.91 593.94,-328.15"/>
<polygon fill="black" stroke="black" points="596.34,-324.88 586.12,-322.1 592.38,-330.64 596.34,-324.88"/>
</g>
<!-- multi_ed25519 -->
<g id="node25" class="node">
<title>multi_ed25519</title>
<ellipse fill="none" stroke="black" cx="479" cy="-378" rx="67.22" ry="18"/>
<text text-anchor="middle" x="479" y="-372.95" font-family="Times,serif" font-size="14.00">multi_ed25519</text>
</g>
<!-- account&#45;&gt;multi_ed25519 -->
<g id="edge56" class="edge">
<title>account&#45;&gt;multi_ed25519</title>
<path fill="none" stroke="black" d="M856.26,-442.79C786.45,-430.98 633.73,-405.16 545.5,-390.24"/>
<polygon fill="black" stroke="black" points="546.25,-386.65 535.81,-388.44 545.09,-393.55 546.25,-386.65"/>
</g>
<!-- from_bcs -->
<g id="node26" class="node">
<title>from_bcs</title>
<ellipse fill="none" stroke="black" cx="828" cy="-234" rx="46.23" ry="18"/>
<text text-anchor="middle" x="828" y="-228.95" font-family="Times,serif" font-size="14.00">from_bcs</text>
</g>
<!-- account&#45;&gt;from_bcs -->
<g id="edge58" class="edge">
<title>account&#45;&gt;from_bcs</title>
<path fill="none" stroke="black" d="M860.35,-439.48C818.89,-427.07 751.89,-405.79 745,-396 735.79,-382.92 740.38,-375.32 745,-360 745.85,-357.2 786.5,-296.59 810.59,-260.81"/>
<polygon fill="black" stroke="black" points="813.93,-263.13 816.61,-252.88 808.12,-259.22 813.93,-263.13"/>
</g>
<!-- create_signer -->
<g id="node27" class="node">
<title>create_signer</title>
<ellipse fill="none" stroke="black" cx="814" cy="-378" rx="60.05" ry="18"/>
<text text-anchor="middle" x="814" y="-372.95" font-family="Times,serif" font-size="14.00">create_signer</text>
</g>
<!-- account&#45;&gt;create_signer -->
<g id="edge60" class="edge">
<title>account&#45;&gt;create_signer</title>
<path fill="none" stroke="black" d="M875.47,-433.46C865.23,-424.39 852.09,-412.75 840.6,-402.57"/>
<polygon fill="black" stroke="black" points="843.39,-400.48 833.58,-396.47 838.75,-405.72 843.39,-400.48"/>
</g>
<!-- chain_id -->
<g id="node28" class="node">
<title>chain_id</title>
<ellipse fill="none" stroke="black" cx="2051" cy="-378" rx="42.65" ry="18"/>
<text text-anchor="middle" x="2051" y="-372.95" font-family="Times,serif" font-size="14.00">chain_id</text>
</g>
<!-- account&#45;&gt;chain_id -->
<g id="edge61" class="edge">
<title>account&#45;&gt;chain_id</title>
<path fill="none" stroke="black" d="M932.89,-448.52C1105.41,-446.21 1788.2,-434.78 1999,-396 2002.41,-395.37 2005.9,-394.58 2009.39,-393.68"/>
<polygon fill="black" stroke="black" points="2010.08,-396.84 2018.73,-390.72 2008.15,-390.11 2010.08,-396.84"/>
</g>
<!-- aggregator_factory&#45;&gt;table -->
<g id="edge63" class="edge">
<title>aggregator_factory&#45;&gt;table</title>
<path fill="none" stroke="black" d="M1649.15,-367.19C1549.62,-352.37 1363.97,-324.72 1283.66,-312.76"/>
<polygon fill="black" stroke="black" points="1284.46,-309.19 1274.05,-311.18 1283.43,-316.11 1284.46,-309.19"/>
</g>
<!-- aggregator_factory&#45;&gt;error -->
<g id="edge62" class="edge">
<title>aggregator_factory&#45;&gt;error</title>
<path fill="none" stroke="black" d="M1711.52,-359.54C1701.96,-311.56 1675.22,-177.39 1663.56,-118.88"/>
<polygon fill="black" stroke="black" points="1666.82,-118.35 1661.43,-109.23 1659.96,-119.72 1666.82,-118.35"/>
</g>
<!-- aggregator_factory&#45;&gt;system_addresses -->
<g id="edge64" class="edge">
<title>aggregator_factory&#45;&gt;system_addresses</title>
<path fill="none" stroke="black" d="M1771.63,-364.73C1827.58,-352.6 1913.12,-334.06 1972.09,-321.28"/>
<polygon fill="black" stroke="black" points="1972.75,-324.51 1981.78,-318.97 1971.27,-317.66 1972.75,-324.51"/>
</g>
<!-- aggregator_factory&#45;&gt;aggregator -->
<g id="edge65" class="edge">
<title>aggregator_factory&#45;&gt;aggregator</title>
<path fill="none" stroke="black" d="M1689.91,-360.59C1675.15,-350.93 1656.31,-338.6 1640.42,-328.21"/>
<polygon fill="black" stroke="black" points="1642.75,-324.9 1632.46,-322.35 1638.92,-330.75 1642.75,-324.9"/>
</g>
<!-- optional_aggregator&#45;&gt;option -->
<g id="edge66" class="edge">
<title>optional_aggregator&#45;&gt;option</title>
<path fill="none" stroke="black" d="M1634.29,-432.07C1612.39,-409.15 1573.85,-366.25 1549,-324 1522.81,-279.47 1547.1,-247.31 1506,-216 1418.21,-149.12 621.3,-103.69 421.35,-93.28"/>
<polygon fill="black" stroke="black" points="421.55,-89.73 411.39,-92.71 421.19,-96.72 421.55,-89.73"/>
</g>
<!-- optional_aggregator&#45;&gt;error -->
<g id="edge67" class="edge">
<title>optional_aggregator&#45;&gt;error</title>
<path fill="none" stroke="black" d="M1713.76,-437.48C1743.71,-429.6 1778.66,-416.71 1805,-396 1841.93,-366.97 1862,-353.97 1862,-307 1862,-307 1862,-307 1862,-233 1862,-152.77 1754.39,-114.18 1695.49,-99.06"/>
<polygon fill="black" stroke="black" points="1696.64,-95.49 1686.09,-96.51 1694.97,-102.29 1696.64,-95.49"/>
</g>
<!-- optional_aggregator&#45;&gt;aggregator -->
<g id="edge68" class="edge">
<title>optional_aggregator&#45;&gt;aggregator</title>
<path fill="none" stroke="black" d="M1641.12,-431.83C1635.66,-421.69 1629.16,-408.44 1625,-396 1618.38,-376.17 1614.05,-352.95 1611.42,-335.19"/>
<polygon fill="black" stroke="black" points="1614.76,-334.84 1609.93,-325.41 1607.83,-335.8 1614.76,-334.84"/>
</g>
<!-- optional_aggregator&#45;&gt;aggregator_factory -->
<g id="edge69" class="edge">
<title>optional_aggregator&#45;&gt;aggregator_factory</title>
<path fill="none" stroke="black" d="M1666.49,-432.05C1674.28,-423.54 1683.85,-413.07 1692.43,-403.68"/>
<polygon fill="black" stroke="black" points="1694.49,-406.53 1698.65,-396.79 1689.32,-401.81 1694.49,-406.53"/>
</g>
<!-- table_with_length&#45;&gt;table -->
<g id="edge71" class="edge">
<title>table_with_length&#45;&gt;table</title>
<path fill="none" stroke="black" d="M1179.38,-360.41C1191.41,-350.62 1206.73,-338.15 1219.55,-327.72"/>
<polygon fill="black" stroke="black" points="1221.4,-329.91 1226.95,-320.88 1216.98,-324.48 1221.4,-329.91"/>
</g>
<!-- table_with_length&#45;&gt;error -->
<g id="edge70" class="edge">
<title>table_with_length&#45;&gt;error</title>
<path fill="none" stroke="black" d="M1164.42,-359.76C1171.41,-340.06 1185.3,-307.97 1207,-288 1332.44,-172.54 1536.34,-117.38 1620.17,-98.67"/>
<polygon fill="black" stroke="black" points="1620.7,-101.92 1629.72,-96.37 1619.2,-95.08 1620.7,-101.92"/>
</g>
<!-- incentives&#45;&gt;vector -->
<g id="edge72" class="edge">
<title>incentives&#45;&gt;vector</title>
<path fill="none" stroke="black" d="M1483.28,-663.85C1635.88,-659.91 2106.49,-645.31 2255,-612 2353.51,-589.91 2464,-623.96 2464,-523 2464,-523 2464,-523 2464,-305 2464,-195.8 2473.48,-137.37 2386,-72 2330.25,-30.34 1841.72,-21.25 1689.85,-19.43"/>
<polygon fill="black" stroke="black" points="1690.13,-15.92 1680.1,-19.3 1690.05,-22.92 1690.13,-15.92"/>
</g>
<!-- incentives&#45;&gt;signer -->
<g id="edge73" class="edge">
<title>incentives&#45;&gt;signer</title>
<path fill="none" stroke="black" d="M1483.13,-663.24C1681.59,-655.37 2426,-619.41 2426,-523 2426,-523 2426,-523 2426,-233 2426,-180.77 2379.13,-135.73 2347.14,-111.07"/>
<polygon fill="black" stroke="black" points="2349.68,-107.85 2339.57,-104.67 2345.49,-113.46 2349.68,-107.85"/>
</g>
<!-- incentives&#45;&gt;type_info -->
<g id="edge74" class="edge">
<title>incentives&#45;&gt;type_info</title>
<path fill="none" stroke="black" d="M1435.98,-647.87C1438.44,-586.22 1437.5,-374.73 1316,-288 1271.62,-256.32 1117.64,-242.87 1032.94,-237.76"/>
<polygon fill="black" stroke="black" points="1033.15,-234.21 1022.97,-237.12 1032.75,-241.2 1033.15,-234.21"/>
</g>
<!-- incentives&#45;&gt;coin -->
<g id="edge75" class="edge">
<title>incentives&#45;&gt;coin</title>
<path fill="none" stroke="black" d="M1447.55,-648.13C1454.49,-638.09 1462.74,-624.84 1468,-612 1476.03,-592.41 1481.13,-569 1484.17,-551.11"/>
<polygon fill="black" stroke="black" points="1487.78,-551.67 1485.88,-541.25 1480.86,-550.58 1487.78,-551.67"/>
</g>
<!-- incentives&#45;&gt;tablist -->
<g id="edge77" class="edge">
<title>incentives&#45;&gt;tablist</title>
<path fill="none" stroke="black" d="M1390.61,-658.54C1298.52,-645.14 1087.71,-614.46 996.91,-601.24"/>
<polygon fill="black" stroke="black" points="997.59,-597.66 987.19,-599.68 996.58,-604.59 997.59,-597.66"/>
</g>
<!-- aptos_coin -->
<g id="node29" class="node">
<title>aptos_coin</title>
<ellipse fill="none" stroke="black" cx="1942" cy="-594" rx="50.84" ry="18"/>
<text text-anchor="middle" x="1942" y="-588.95" font-family="Times,serif" font-size="14.00">aptos_coin</text>
</g>
<!-- incentives&#45;&gt;aptos_coin -->
<g id="edge76" class="edge">
<title>incentives&#45;&gt;aptos_coin</title>
<path fill="none" stroke="black" d="M1479.55,-658.85C1571.52,-646.15 1782.33,-617.05 1884.45,-602.95"/>
<polygon fill="black" stroke="black" points="1884.75,-606.3 1894.17,-601.47 1883.79,-599.37 1884.75,-606.3"/>
</g>
<!-- resource_account -->
<g id="node30" class="node">
<title>resource_account</title>
<ellipse fill="none" stroke="black" cx="1123" cy="-522" rx="75.41" ry="18"/>
<text text-anchor="middle" x="1123" y="-516.95" font-family="Times,serif" font-size="14.00">resource_account</text>
</g>
<!-- incentives&#45;&gt;resource_account -->
<g id="edge78" class="edge">
<title>incentives&#45;&gt;resource_account</title>
<path fill="none" stroke="black" d="M1405.37,-651.51C1350.07,-626.34 1230.93,-572.12 1166.5,-542.8"/>
<polygon fill="black" stroke="black" points="1168.2,-539.27 1157.65,-538.31 1165.3,-545.64 1168.2,-539.27"/>
</g>
<!-- ed25519&#45;&gt;option -->
<g id="edge79" class="edge">
<title>ed25519&#45;&gt;option</title>
<path fill="none" stroke="black" d="M560.73,-287.66C556.68,-269 548.61,-238.92 535,-216 512.52,-178.16 501.48,-171.36 467,-144 449.48,-130.1 427.92,-117.38 410.18,-107.89"/>
<polygon fill="black" stroke="black" points="412.26,-104.5 401.78,-102.96 409.01,-110.7 412.26,-104.5"/>
</g>
<!-- ed25519&#45;&gt;type_info -->
<g id="edge82" class="edge">
<title>ed25519&#45;&gt;type_info</title>
<path fill="none" stroke="black" d="M603.57,-298.64C663.9,-288.89 782.48,-269.54 883,-252 896.4,-249.66 910.86,-247.06 924.3,-244.6"/>
<polygon fill="black" stroke="black" points="924.62,-247.92 933.82,-242.67 923.35,-241.04 924.62,-247.92"/>
</g>
<!-- ed25519&#45;&gt;error -->
<g id="edge80" class="edge">
<title>ed25519&#45;&gt;error</title>
<path fill="none" stroke="black" d="M569.97,-287.71C582.89,-253.22 617.09,-176.43 675,-144 758.22,-97.39 1443.78,-91.77 1617.9,-91.09"/>
<polygon fill="black" stroke="black" points="1617.86,-94.59 1627.85,-91.05 1617.84,-87.59 1617.86,-94.59"/>
</g>
<!-- ed25519&#45;&gt;bcs -->
<g id="edge81" class="edge">
<title>ed25519&#45;&gt;bcs</title>
<path fill="none" stroke="black" d="M555.65,-287.88C545.81,-268.86 528.11,-237.96 507,-216 493.46,-201.92 475.67,-189.28 460.71,-179.87"/>
<polygon fill="black" stroke="black" points="462.72,-176.39 452.36,-174.18 459.08,-182.37 462.72,-176.39"/>
</g>
<!-- ed25519&#45;&gt;hash -->
<g id="edge83" class="edge">
<title>ed25519&#45;&gt;hash</title>
<path fill="none" stroke="black" d="M543.6,-289.81C529.83,-279.55 511.51,-265.91 496.6,-254.81"/>
<polygon fill="black" stroke="black" points="498.93,-251.44 488.82,-248.27 494.75,-257.05 498.93,-251.44"/>
</g>
<!-- multi_ed25519&#45;&gt;option -->
<g id="edge84" class="edge">
<title>multi_ed25519&#45;&gt;option</title>
<path fill="none" stroke="black" d="M464.03,-360.36C455.7,-350.4 445.7,-337.15 439,-324 403.8,-254.97 386.58,-164.11 379.73,-118.96"/>
<polygon fill="black" stroke="black" points="383.08,-118.64 378.18,-109.25 376.15,-119.65 383.08,-118.64"/>
</g>
<!-- multi_ed25519&#45;&gt;error -->
<g id="edge85" class="edge">
<title>multi_ed25519&#45;&gt;error</title>
<path fill="none" stroke="black" d="M521.18,-363.55C548.85,-354.04 585.44,-340.14 616,-324 690.89,-284.45 696.97,-253.31 773,-216 867.26,-169.75 894.99,-164.34 998,-144 1229.53,-98.29 1514.18,-91.81 1617.84,-91.03"/>
<polygon fill="black" stroke="black" points="1617.75,-94.53 1627.72,-90.97 1617.7,-87.53 1617.75,-94.53"/>
</g>
<!-- multi_ed25519&#45;&gt;features -->
<g id="edge86" class="edge">
<title>multi_ed25519&#45;&gt;features</title>
<path fill="none" stroke="black" d="M543.7,-372.82C733.96,-360.5 1278.54,-325.18 1283,-324 1401.27,-292.78 1527.9,-218.89 1584.97,-183.1"/>
<polygon fill="black" stroke="black" points="1586.58,-185.6 1593.16,-177.29 1582.84,-179.68 1586.58,-185.6"/>
</g>
<!-- multi_ed25519&#45;&gt;bcs -->
<g id="edge87" class="edge">
<title>multi_ed25519&#45;&gt;bcs</title>
<path fill="none" stroke="black" d="M470.55,-359.72C459.48,-336.07 440.59,-291.98 433,-252 429.19,-231.92 428.78,-208.83 429.28,-191.2"/>
<polygon fill="black" stroke="black" points="432.82,-191.37 429.72,-181.24 425.82,-191.09 432.82,-191.37"/>
</g>
<!-- multi_ed25519&#45;&gt;hash -->
<g id="edge88" class="edge">
<title>multi_ed25519&#45;&gt;hash</title>
<path fill="none" stroke="black" d="M477.9,-359.59C476.37,-335.5 473.6,-291.75 471.78,-263.03"/>
<polygon fill="black" stroke="black" points="475.21,-262.87 471.08,-253.11 468.22,-263.31 475.21,-262.87"/>
</g>
<!-- multi_ed25519&#45;&gt;ed25519 -->
<g id="edge89" class="edge">
<title>multi_ed25519&#45;&gt;ed25519</title>
<path fill="none" stroke="black" d="M499.14,-360.41C510.36,-351.17 524.49,-339.54 536.69,-329.49"/>
<polygon fill="black" stroke="black" points="538.67,-331.57 544.17,-322.51 534.22,-326.17 538.67,-331.57"/>
</g>
<!-- from_bcs&#45;&gt;string -->
<g id="edge90" class="edge">
<title>from_bcs&#45;&gt;string</title>
<path fill="none" stroke="black" d="M804.25,-218.15C787.27,-207.54 764.28,-193.18 746.03,-181.77"/>
<polygon fill="black" stroke="black" points="748.04,-178.27 737.71,-175.94 744.33,-184.21 748.04,-178.27"/>
</g>
<!-- chain_id&#45;&gt;system_addresses -->
<g id="edge91" class="edge">
<title>chain_id&#45;&gt;system_addresses</title>
<path fill="none" stroke="black" d="M2047.79,-359.7C2046.39,-352.15 2044.71,-343.12 2043.14,-334.68"/>
<polygon fill="black" stroke="black" points="2046.44,-334.3 2041.18,-325.1 2039.56,-335.58 2046.44,-334.3"/>
</g>
<!-- aptos_coin&#45;&gt;vector -->
<g id="edge92" class="edge">
<title>aptos_coin&#45;&gt;vector</title>
<path fill="none" stroke="black" d="M1991.44,-589.17C2075.13,-582.1 2240.73,-565.33 2293,-540 2345.06,-514.77 2388,-508.86 2388,-451 2388,-451 2388,-451 2388,-161 2388,-119.53 2392.5,-97.75 2360,-72 2307.58,-30.47 1839.32,-21.32 1690.31,-19.45"/>
<polygon fill="black" stroke="black" points="1690.37,-15.94 1680.33,-19.32 1690.29,-22.94 1690.37,-15.94"/>
</g>
<!-- aptos_coin&#45;&gt;option -->
<g id="edge93" class="edge">
<title>aptos_coin&#45;&gt;option</title>
<path fill="none" stroke="black" d="M1891.21,-591.99C1725.8,-588.37 1203.76,-574.46 1039,-540 948.57,-521.09 926.33,-509.91 844,-468 792.59,-441.83 779.93,-433.39 736,-396 619.62,-296.93 627.25,-231.59 502,-144 475.68,-125.59 441.97,-111.83 416.04,-102.95"/>
<polygon fill="black" stroke="black" points="417.4,-99.39 406.81,-99.56 415.2,-106.03 417.4,-99.39"/>
</g>
<!-- aptos_coin&#45;&gt;string -->
<g id="edge94" class="edge">
<title>aptos_coin&#45;&gt;string</title>
<path fill="none" stroke="black" d="M1892.6,-589.14C1813.04,-580.51 1655.49,-553.13 1557,-468 1489.48,-409.64 1533.71,-348.39 1468,-288 1403.65,-228.86 1370.02,-236.25 1285,-216 1092.79,-170.21 855.28,-163.59 759.28,-162.91"/>
<polygon fill="black" stroke="black" points="759.3,-159.4 749.28,-162.85 759.26,-166.4 759.3,-159.4"/>
</g>
<!-- aptos_coin&#45;&gt;signer -->
<g id="edge95" class="edge">
<title>aptos_coin&#45;&gt;signer</title>
<path fill="none" stroke="black" d="M1992.67,-591.02C2052.63,-587.07 2154.39,-575.27 2234,-540 2293.41,-513.68 2350,-515.98 2350,-451 2350,-451 2350,-451 2350,-233 2350,-192.17 2337.26,-146.32 2327.85,-118.05"/>
<polygon fill="black" stroke="black" points="2330.88,-117.09 2324.32,-108.77 2324.26,-119.37 2330.88,-117.09"/>
</g>
<!-- aptos_coin&#45;&gt;coin -->
<g id="edge98" class="edge">
<title>aptos_coin&#45;&gt;coin</title>
<path fill="none" stroke="black" d="M1891.59,-590.84C1812.95,-586.5 1656.83,-574.05 1529,-540 1526,-539.2 1522.93,-538.23 1519.88,-537.17"/>
<polygon fill="black" stroke="black" points="1521.35,-533.6 1510.76,-533.28 1518.84,-540.13 1521.35,-533.6"/>
</g>
<!-- aptos_coin&#45;&gt;error -->
<g id="edge96" class="edge">
<title>aptos_coin&#45;&gt;error</title>
<path fill="none" stroke="black" d="M1987.37,-585.47C2086.17,-567.77 2312,-519.8 2312,-451 2312,-451 2312,-451 2312,-305 2312,-153.68 2155.61,-191.68 2012,-144 1901.89,-107.44 1764.1,-96.02 1697.57,-92.51"/>
<polygon fill="black" stroke="black" points="1697.92,-88.98 1687.76,-91.98 1697.58,-95.97 1697.92,-88.98"/>
</g>
<!-- aptos_coin&#45;&gt;system_addresses -->
<g id="edge97" class="edge">
<title>aptos_coin&#45;&gt;system_addresses</title>
<path fill="none" stroke="black" d="M1964.17,-577.47C2004.42,-547.75 2088.29,-478.38 2120,-396 2125.75,-381.07 2127.65,-374.05 2120,-360 2112.43,-346.09 2099.46,-335.27 2086.04,-327.14"/>
<polygon fill="black" stroke="black" points="2088.18,-323.77 2077.74,-321.94 2084.76,-329.88 2088.18,-323.77"/>
</g>
<!-- resource_account&#45;&gt;bcs -->
<g id="edge99" class="edge">
<title>resource_account&#45;&gt;bcs</title>
<path fill="none" stroke="black" d="M1049.8,-517.12C836.28,-505.03 225.81,-464.7 171,-396 118.05,-329.63 168.69,-269.03 235,-216 280.99,-179.22 350.43,-167.87 393.13,-164.43"/>
<polygon fill="black" stroke="black" points="393.16,-167.86 402.9,-163.68 392.68,-160.88 393.16,-167.86"/>
</g>
<!-- resource_account&#45;&gt;account -->
<g id="edge100" class="edge">
<title>resource_account&#45;&gt;account</title>
<path fill="none" stroke="black" d="M1077.83,-507.25C1036.52,-494.68 975.86,-476.22 935.43,-463.91"/>
<polygon fill="black" stroke="black" points="936.69,-460.33 926.11,-460.77 934.65,-467.03 936.69,-460.33"/>
</g>
<!-- timestamp -->
<g id="node31" class="node">
<title>timestamp</title>
<ellipse fill="none" stroke="black" cx="1940" cy="-378" rx="50.33" ry="18"/>
<text text-anchor="middle" x="1940" y="-372.95" font-family="Times,serif" font-size="14.00">timestamp</text>
</g>
<!-- resource_account&#45;&gt;timestamp -->
<g id="edge101" class="edge">
<title>resource_account&#45;&gt;timestamp</title>
<path fill="none" stroke="black" d="M1196.89,-517.87C1338.54,-511.36 1643.32,-494.68 1745,-468 1803.98,-452.53 1867.35,-420.4 1905.32,-399.28"/>
<polygon fill="black" stroke="black" points="1906.88,-401.85 1913.87,-393.9 1903.44,-395.75 1906.88,-401.85"/>
</g>
<!-- timestamp&#45;&gt;error -->
<g id="edge102" class="edge">
<title>timestamp&#45;&gt;error</title>
<path fill="none" stroke="black" d="M1940.74,-359.76C1941.6,-316.73 1937.55,-203.76 1876,-144 1850.77,-119.51 1752.68,-103.2 1697.06,-95.71"/>
<polygon fill="black" stroke="black" points="1697.58,-92.12 1687.21,-94.29 1696.67,-99.06 1697.58,-92.12"/>
</g>
<!-- timestamp&#45;&gt;system_addresses -->
<g id="edge103" class="edge">
<title>timestamp&#45;&gt;system_addresses</title>
<path fill="none" stroke="black" d="M1961.75,-361.46C1974.82,-352.13 1991.7,-340.07 2006.24,-329.68"/>
<polygon fill="black" stroke="black" points="2007.84,-332.13 2013.95,-323.47 2003.77,-326.43 2007.84,-332.13"/>
</g>
</g>
</svg>
