<?xml version="1.0" encoding="UTF-8" standalone="no"?>
<!DOCTYPE svg PUBLIC "-//W3C//DTD SVG 1.1//EN"
 "http://www.w3.org/Graphics/SVG/1.1/DTD/svg11.dtd">
<!-- Generated by graphviz version 8.1.0 (20230707.0739)
 -->
<!-- Title: G Pages: 1 -->
<svg width="2624pt" height="836pt"
 viewBox="0.00 0.00 2624.00 836.00" xmlns="http://www.w3.org/2000/svg" xmlns:xlink="http://www.w3.org/1999/xlink">
<g id="graph0" class="graph" transform="scale(1 1) rotate(0) translate(4 832)">
<title>G</title>
<polygon fill="white" stroke="none" points="-4,4 -4,-832 2620,-832 2620,4 -4,4"/>
<!-- user -->
<g id="node1" class="node">
<title>user</title>
<ellipse fill="none" stroke="black" cx="1062" cy="-810" rx="27" ry="18"/>
<text text-anchor="middle" x="1062" y="-804.95" font-family="Times,serif" font-size="14.00">user</text>
</g>
<!-- vector -->
<g id="node2" class="node">
<title>vector</title>
<ellipse fill="none" stroke="black" cx="2077" cy="-18" rx="33.95" ry="18"/>
<text text-anchor="middle" x="2077" y="-12.95" font-family="Times,serif" font-size="14.00">vector</text>
</g>
<!-- user&#45;&gt;vector -->
<g id="edge1" class="edge">
<title>user&#45;&gt;vector</title>
<path fill="none" stroke="black" d="M1089.09,-809.22C1214.47,-809.92 1750.7,-809.49 2186,-756 2379.71,-732.2 2616,-862.16 2616,-667 2616,-667 2616,-667 2616,-161 2616,-103.47 2574.09,-96.42 2522,-72 2451.62,-39.01 2220.04,-25.23 2121.75,-20.77"/>
<polygon fill="black" stroke="black" points="2122.14,-17.24 2111.99,-20.3 2121.83,-24.23 2122.14,-17.24"/>
</g>
<!-- option -->
<g id="node3" class="node">
<title>option</title>
<ellipse fill="none" stroke="black" cx="190" cy="-90" rx="34.46" ry="18"/>
<text text-anchor="middle" x="190" y="-84.95" font-family="Times,serif" font-size="14.00">option</text>
</g>
<!-- user&#45;&gt;option -->
<g id="edge2" class="edge">
<title>user&#45;&gt;option</title>
<path fill="none" stroke="black" d="M1034.75,-809.37C900.21,-810.89 306.47,-814.13 133,-756 65.56,-733.4 0,-738.12 0,-667 0,-667 0,-667 0,-233 0,-188.68 11.87,-173.44 45,-144 73.49,-118.68 115.09,-105.13 146.42,-98.09"/>
<polygon fill="black" stroke="black" points="146.97,-101.35 156.04,-95.87 145.54,-94.49 146.97,-101.35"/>
</g>
<!-- string -->
<g id="node4" class="node">
<title>string</title>
<ellipse fill="none" stroke="black" cx="1092" cy="-162" rx="31.9" ry="18"/>
<text text-anchor="middle" x="1092" y="-156.95" font-family="Times,serif" font-size="14.00">string</text>
</g>
<!-- user&#45;&gt;string -->
<g id="edge3" class="edge">
<title>user&#45;&gt;string</title>
<path fill="none" stroke="black" d="M1041.58,-797.7C1006.85,-776.81 940,-728.59 940,-667 940,-667 940,-667 940,-449 940,-339.95 1027.23,-232 1069.53,-186.06"/>
<polygon fill="black" stroke="black" points="1071.59,-188.9 1075.87,-179.21 1066.48,-184.12 1071.59,-188.9"/>
</g>
<!-- signer -->
<g id="node5" class="node">
<title>signer</title>
<ellipse fill="none" stroke="black" cx="2369" cy="-90" rx="33.44" ry="18"/>
<text text-anchor="middle" x="2369" y="-84.95" font-family="Times,serif" font-size="14.00">signer</text>
</g>
<!-- user&#45;&gt;signer -->
<g id="edge4" class="edge">
<title>user&#45;&gt;signer</title>
<path fill="none" stroke="black" d="M1089.24,-807.86C1290.56,-799.26 2540,-742.84 2540,-667 2540,-667 2540,-667 2540,-521 2540,-424.4 2502,-403.6 2502,-307 2502,-307 2502,-307 2502,-233 2502,-174.93 2442.01,-130.81 2402.61,-108.1"/>
<polygon fill="black" stroke="black" points="2404.52,-104.6 2394.09,-102.79 2401.12,-110.71 2404.52,-104.6"/>
</g>
<!-- type_info -->
<g id="node6" class="node">
<title>type_info</title>
<ellipse fill="none" stroke="black" cx="1324" cy="-234" rx="46.23" ry="18"/>
<text text-anchor="middle" x="1324" y="-228.95" font-family="Times,serif" font-size="14.00">type_info</text>
</g>
<!-- user&#45;&gt;type_info -->
<g id="edge5" class="edge">
<title>user&#45;&gt;type_info</title>
<path fill="none" stroke="black" d="M1088.94,-806.57C1187.12,-797 1520,-757.84 1520,-667 1520,-667 1520,-667 1520,-521 1520,-415.93 1548.22,-367.91 1480,-288 1455.2,-258.95 1413.82,-245.78 1379.91,-239.84"/>
<polygon fill="black" stroke="black" points="1380.61,-236.25 1370.19,-238.15 1379.52,-243.16 1380.61,-236.25"/>
</g>
<!-- table -->
<g id="node7" class="node">
<title>table</title>
<ellipse fill="none" stroke="black" cx="1425" cy="-306" rx="28.83" ry="18"/>
<text text-anchor="middle" x="1425" y="-300.95" font-family="Times,serif" font-size="14.00">table</text>
</g>
<!-- user&#45;&gt;table -->
<g id="edge6" class="edge">
<title>user&#45;&gt;table</title>
<path fill="none" stroke="black" d="M1088.26,-805.09C1174.56,-791.52 1444,-743.06 1444,-667 1444,-667 1444,-667 1444,-449 1444,-409 1436.5,-363.21 1430.92,-334.69"/>
<polygon fill="black" stroke="black" points="1434.17,-334.06 1428.75,-324.95 1427.3,-335.45 1434.17,-334.06"/>
</g>
<!-- guid -->
<g id="node8" class="node">
<title>guid</title>
<ellipse fill="none" stroke="black" cx="359" cy="-306" rx="27.3" ry="18"/>
<text text-anchor="middle" x="359" y="-300.95" font-family="Times,serif" font-size="14.00">guid</text>
</g>
<!-- user&#45;&gt;guid -->
<g id="edge7" class="edge">
<title>user&#45;&gt;guid</title>
<path fill="none" stroke="black" d="M1034.62,-808.52C915.12,-806.22 438.87,-794.73 295,-756 208.44,-732.7 114,-756.64 114,-667 114,-667 114,-667 114,-521 114,-410.3 257.63,-343.66 324.95,-318.51"/>
<polygon fill="black" stroke="black" points="325.86,-321.54 334.06,-314.83 323.47,-314.96 325.86,-321.54"/>
</g>
<!-- event -->
<g id="node9" class="node">
<title>event</title>
<ellipse fill="none" stroke="black" cx="325" cy="-378" rx="30.88" ry="18"/>
<text text-anchor="middle" x="325" y="-372.95" font-family="Times,serif" font-size="14.00">event</text>
</g>
<!-- user&#45;&gt;event -->
<g id="edge8" class="edge">
<title>user&#45;&gt;event</title>
<path fill="none" stroke="black" d="M1034.95,-807.52C887.76,-799.15 190,-754.81 190,-667 190,-667 190,-667 190,-521 190,-462.05 251.87,-417.83 291.85,-395.42"/>
<polygon fill="black" stroke="black" points="293.36,-398.04 300.48,-390.2 290.03,-391.89 293.36,-398.04"/>
</g>
<!-- account -->
<g id="node10" class="node">
<title>account</title>
<ellipse fill="none" stroke="black" cx="782" cy="-450" rx="39.58" ry="18"/>
<text text-anchor="middle" x="782" y="-444.95" font-family="Times,serif" font-size="14.00">account</text>
</g>
<!-- user&#45;&gt;account -->
<g id="edge9" class="edge">
<title>user&#45;&gt;account</title>
<path fill="none" stroke="black" d="M1036.6,-803.17C1007.8,-795.68 960.42,-780.63 926,-756 823.91,-682.95 787.06,-657.92 744,-540 738.51,-524.97 739.1,-519.23 744,-504 747.31,-493.71 753.43,-483.72 759.81,-475.25"/>
<polygon fill="black" stroke="black" points="763.16,-477.67 766.72,-467.7 757.71,-473.28 763.16,-477.67"/>
</g>
<!-- coin -->
<g id="node11" class="node">
<title>coin</title>
<ellipse fill="none" stroke="black" cx="1792" cy="-522" rx="27" ry="18"/>
<text text-anchor="middle" x="1792" y="-516.95" font-family="Times,serif" font-size="14.00">coin</text>
</g>
<!-- user&#45;&gt;coin -->
<g id="edge10" class="edge">
<title>user&#45;&gt;coin</title>
<path fill="none" stroke="black" d="M1089.3,-808.36C1162.42,-806.14 1368.39,-796.47 1534,-756 1620.51,-734.86 1646.17,-732.28 1721,-684 1759.29,-659.29 1776.42,-654.04 1794,-612 1802.06,-592.73 1801.05,-568.99 1798.3,-550.88"/>
<polygon fill="black" stroke="black" points="1801.59,-550.39 1796.38,-541.16 1794.7,-551.62 1801.59,-550.39"/>
</g>
<!-- tablist -->
<g id="node12" class="node">
<title>tablist</title>
<ellipse fill="none" stroke="black" cx="1039" cy="-594" rx="33.44" ry="18"/>
<text text-anchor="middle" x="1039" y="-588.95" font-family="Times,serif" font-size="14.00">tablist</text>
</g>
<!-- user&#45;&gt;tablist -->
<g id="edge11" class="edge">
<title>user&#45;&gt;tablist</title>
<path fill="none" stroke="black" d="M1058.29,-791.89C1056.17,-781.54 1053.62,-768.06 1052,-756 1045.78,-709.71 1042.15,-655.51 1040.38,-623.28"/>
<polygon fill="black" stroke="black" points="1043.83,-623.26 1039.8,-613.46 1036.84,-623.63 1043.83,-623.26"/>
</g>
<!-- registry -->
<g id="node13" class="node">
<title>registry</title>
<ellipse fill="none" stroke="black" cx="1100" cy="-738" rx="39.07" ry="18"/>
<text text-anchor="middle" x="1100" y="-732.95" font-family="Times,serif" font-size="14.00">registry</text>
</g>
<!-- user&#45;&gt;registry -->
<g id="edge12" class="edge">
<title>user&#45;&gt;registry</title>
<path fill="none" stroke="black" d="M1070.81,-792.76C1075.26,-784.58 1080.76,-774.45 1085.78,-765.2"/>
<polygon fill="black" stroke="black" points="1089.28,-767.09 1090.97,-756.63 1083.12,-763.75 1089.28,-767.09"/>
</g>
<!-- option&#45;&gt;vector -->
<g id="edge13" class="edge">
<title>option&#45;&gt;vector</title>
<path fill="none" stroke="black" d="M224.36,-87.73C454.59,-79.18 1771.6,-30.33 2032.2,-20.66"/>
<polygon fill="black" stroke="black" points="2032.25,-24.13 2042.11,-20.26 2031.99,-17.13 2032.25,-24.13"/>
</g>
<!-- string&#45;&gt;vector -->
<g id="edge14" class="edge">
<title>string&#45;&gt;vector</title>
<path fill="none" stroke="black" d="M1122.19,-155.57C1204.25,-140.9 1438.33,-99.76 1634,-72 1779.76,-51.32 1953.27,-32.14 2032.98,-23.62"/>
<polygon fill="black" stroke="black" points="2033.02,-27.03 2042.59,-22.49 2032.28,-20.07 2033.02,-27.03"/>
</g>
<!-- string&#45;&gt;option -->
<g id="edge15" class="edge">
<title>string&#45;&gt;option</title>
<path fill="none" stroke="black" d="M1068.16,-149.56C1062.64,-147.35 1056.71,-145.32 1051,-144 893.53,-107.58 389.51,-94.9 235.28,-91.81"/>
<polygon fill="black" stroke="black" points="235.43,-88.3 225.36,-91.6 235.29,-95.3 235.43,-88.3"/>
</g>
<!-- type_info&#45;&gt;string -->
<g id="edge16" class="edge">
<title>type_info&#45;&gt;string</title>
<path fill="none" stroke="black" d="M1288.26,-222.22C1245.49,-209.31 1174.17,-187.79 1130.3,-174.56"/>
<polygon fill="black" stroke="black" points="1131.36,-170.92 1120.77,-171.38 1129.33,-177.62 1131.36,-170.92"/>
</g>
<!-- error -->
<g id="node14" class="node">
<title>error</title>
<ellipse fill="none" stroke="black" cx="1672" cy="-90" rx="28.83" ry="18"/>
<text text-anchor="middle" x="1672" y="-84.95" font-family="Times,serif" font-size="14.00">error</text>
</g>
<!-- type_info&#45;&gt;error -->
<g id="edge17" class="edge">
<title>type_info&#45;&gt;error</title>
<path fill="none" stroke="black" d="M1355.19,-220.27C1420.43,-193.65 1570.84,-132.28 1638.25,-104.77"/>
<polygon fill="black" stroke="black" points="1639.39,-107.68 1647.33,-100.66 1636.75,-101.2 1639.39,-107.68"/>
</g>
<!-- features -->
<g id="node15" class="node">
<title>features</title>
<ellipse fill="none" stroke="black" cx="1002" cy="-162" rx="40.09" ry="18"/>
<text text-anchor="middle" x="1002" y="-156.95" font-family="Times,serif" font-size="14.00">features</text>
</g>
<!-- type_info&#45;&gt;features -->
<g id="edge18" class="edge">
<title>type_info&#45;&gt;features</title>
<path fill="none" stroke="black" d="M1281.48,-226.67C1227.42,-218.18 1131.42,-201.64 1051,-180 1048.2,-179.25 1045.33,-178.42 1042.46,-177.54"/>
<polygon fill="black" stroke="black" points="1043.7,-173.94 1033.11,-174.2 1041.55,-180.6 1043.7,-173.94"/>
</g>
<!-- bcs -->
<g id="node16" class="node">
<title>bcs</title>
<ellipse fill="none" stroke="black" cx="424" cy="-162" rx="27" ry="18"/>
<text text-anchor="middle" x="424" y="-156.95" font-family="Times,serif" font-size="14.00">bcs</text>
</g>
<!-- type_info&#45;&gt;bcs -->
<g id="edge19" class="edge">
<title>type_info&#45;&gt;bcs</title>
<path fill="none" stroke="black" d="M1278.75,-229.48C1122.4,-217.32 606.63,-177.2 462,-165.96"/>
<polygon fill="black" stroke="black" points="462.33,-162.39 452.08,-165.11 461.78,-169.37 462.33,-162.39"/>
</g>
<!-- event&#45;&gt;guid -->
<g id="edge23" class="edge">
<title>event&#45;&gt;guid</title>
<path fill="none" stroke="black" d="M333.06,-360.41C337,-352.3 341.83,-342.35 346.25,-333.25"/>
<polygon fill="black" stroke="black" points="349.78,-334.99 351,-324.47 343.48,-331.94 349.78,-334.99"/>
</g>
<!-- event&#45;&gt;error -->
<g id="edge20" class="edge">
<title>event&#45;&gt;error</title>
<path fill="none" stroke="black" d="M320.07,-359.89C315.55,-341.94 310.12,-312.92 314,-288 325.08,-216.9 324.78,-178.36 388,-144 443.94,-113.59 1421.27,-95.27 1632.12,-91.66"/>
<polygon fill="black" stroke="black" points="1632.03,-95.14 1641.97,-91.48 1631.91,-88.15 1632.03,-95.14"/>
</g>
<!-- event&#45;&gt;features -->
<g id="edge21" class="edge">
<title>event&#45;&gt;features</title>
<path fill="none" stroke="black" d="M355.28,-373.41C437.47,-363.56 660.72,-336.03 692,-324 772.42,-293.07 776.04,-254.74 853,-216 887,-198.88 927.88,-184.76 958.21,-175.41"/>
<polygon fill="black" stroke="black" points="958.92,-178.55 967.47,-172.31 956.89,-171.85 958.92,-178.55"/>
</g>
<!-- event&#45;&gt;bcs -->
<g id="edge22" class="edge">
<title>event&#45;&gt;bcs</title>
<path fill="none" stroke="black" d="M321.08,-359.7C317.71,-341.34 314.6,-311.75 323,-288 338.12,-245.22 374.79,-206.35 399.52,-183.69"/>
<polygon fill="black" stroke="black" points="401.28,-186.91 406.41,-177.64 396.62,-181.7 401.28,-186.91"/>
</g>
<!-- account&#45;&gt;vector -->
<g id="edge24" class="edge">
<title>account&#45;&gt;vector</title>
<path fill="none" stroke="black" d="M792.11,-432.5C797.71,-422.37 804.11,-408.91 807,-396 810.5,-380.39 809.8,-375.75 807,-360 789.45,-261.16 673.94,-218.7 741,-144 829.19,-45.76 1808.73,-23.49 2031.92,-19.68"/>
<polygon fill="black" stroke="black" points="2031.93,-23.16 2041.87,-19.49 2031.81,-16.16 2031.93,-23.16"/>
</g>
<!-- account&#45;&gt;option -->
<g id="edge25" class="edge">
<title>account&#45;&gt;option</title>
<path fill="none" stroke="black" d="M742.64,-447.26C631.35,-442.01 320.16,-424.88 285,-396 199.64,-325.9 189.6,-180.27 189.35,-119.06"/>
<polygon fill="black" stroke="black" points="192.85,-119.34 189.4,-109.32 185.85,-119.3 192.85,-119.34"/>
</g>
<!-- account&#45;&gt;signer -->
<g id="edge26" class="edge">
<title>account&#45;&gt;signer</title>
<path fill="none" stroke="black" d="M821.79,-448.44C1036.17,-445.31 2046.19,-428.87 2103,-396 2127.55,-381.8 2153.28,-310.14 2171,-288 2226.73,-218.37 2304.58,-147.11 2344,-112.5"/>
<polygon fill="black" stroke="black" points="2345.58,-114.9 2350.81,-105.68 2340.97,-109.62 2345.58,-114.9"/>
</g>
<!-- account&#45;&gt;type_info -->
<g id="edge29" class="edge">
<title>account&#45;&gt;type_info</title>
<path fill="none" stroke="black" d="M810.1,-436.92C858.83,-416.01 957.16,-373.93 992,-360 1094.92,-318.84 1217.23,-273.77 1280.79,-250.63"/>
<polygon fill="black" stroke="black" points="1281.64,-253.68 1289.84,-246.98 1279.25,-247.1 1281.64,-253.68"/>
</g>
<!-- account&#45;&gt;table -->
<g id="edge30" class="edge">
<title>account&#45;&gt;table</title>
<path fill="none" stroke="black" d="M816.69,-440.77C858.43,-430.74 930.58,-413.03 992,-396 1045.25,-381.24 1057.21,-372.62 1111,-360 1208.84,-337.04 1326.06,-319.96 1385.8,-311.99"/>
<polygon fill="black" stroke="black" points="1386.16,-315.34 1395.61,-310.56 1385.24,-308.4 1386.16,-315.34"/>
</g>
<!-- account&#45;&gt;guid -->
<g id="edge35" class="edge">
<title>account&#45;&gt;guid</title>
<path fill="none" stroke="black" d="M742.3,-447.79C657.42,-444.5 461.63,-433.02 408,-396 386.96,-381.48 374.04,-354.87 366.78,-334.51"/>
<polygon fill="black" stroke="black" points="369.86,-333.66 363.41,-325.25 363.21,-335.85 369.86,-333.66"/>
</g>
<!-- account&#45;&gt;event -->
<g id="edge37" class="edge">
<title>account&#45;&gt;event</title>
<path fill="none" stroke="black" d="M742.53,-446.99C668.49,-442.54 504.17,-429.48 370,-396 366.6,-395.15 363.1,-394.12 359.63,-393"/>
<polygon fill="black" stroke="black" points="361.02,-389.42 350.43,-389.41 358.7,-396.03 361.02,-389.42"/>
</g>
<!-- account&#45;&gt;error -->
<g id="edge27" class="edge">
<title>account&#45;&gt;error</title>
<path fill="none" stroke="black" d="M803.38,-434.37C815.8,-424.82 830.77,-411.3 840,-396 903.41,-290.9 842.54,-197.52 953,-144 1014.28,-114.31 1490.89,-96.8 1632.47,-92.22"/>
<polygon fill="black" stroke="black" points="1632.34,-95.69 1642.22,-91.87 1632.11,-88.69 1632.34,-95.69"/>
</g>
<!-- account&#45;&gt;bcs -->
<g id="edge28" class="edge">
<title>account&#45;&gt;bcs</title>
<path fill="none" stroke="black" d="M744.36,-443.88C662.19,-432.54 473.25,-405.59 463,-396 406.14,-342.84 412.15,-240.44 419.07,-191.03"/>
<polygon fill="black" stroke="black" points="422.67,-191.63 420.71,-181.22 415.75,-190.58 422.67,-191.63"/>
</g>
<!-- system_addresses -->
<g id="node17" class="node">
<title>system_addresses</title>
<ellipse fill="none" stroke="black" cx="2047" cy="-306" rx="76.94" ry="18"/>
<text text-anchor="middle" x="2047" y="-300.95" font-family="Times,serif" font-size="14.00">system_addresses</text>
</g>
<!-- account&#45;&gt;system_addresses -->
<g id="edge31" class="edge">
<title>account&#45;&gt;system_addresses</title>
<path fill="none" stroke="black" d="M821.22,-446.59C921.76,-440.23 1196.82,-421.71 1425,-396 1624.52,-373.52 1858.68,-337.36 1974.52,-318.81"/>
<polygon fill="black" stroke="black" points="1975.04,-322.11 1984.36,-317.07 1973.93,-315.2 1975.04,-322.11"/>
</g>
<!-- hash -->
<g id="node18" class="node">
<title>hash</title>
<ellipse fill="none" stroke="black" cx="546" cy="-234" rx="27.81" ry="18"/>
<text text-anchor="middle" x="546" y="-228.95" font-family="Times,serif" font-size="14.00">hash</text>
</g>
<!-- account&#45;&gt;hash -->
<g id="edge32" class="edge">
<title>account&#45;&gt;hash</title>
<path fill="none" stroke="black" d="M744.6,-443.76C665.45,-432.49 487.53,-406.16 479,-396 443.63,-353.91 492.16,-290.51 523.35,-257.22"/>
<polygon fill="black" stroke="black" points="525.43,-260.07 529.85,-250.44 520.39,-255.21 525.43,-260.07"/>
</g>
<!-- ed25519 -->
<g id="node19" class="node">
<title>ed25519</title>
<ellipse fill="none" stroke="black" cx="640" cy="-306" rx="42.65" ry="18"/>
<text text-anchor="middle" x="640" y="-300.95" font-family="Times,serif" font-size="14.00">ed25519</text>
</g>
<!-- account&#45;&gt;ed25519 -->
<g id="edge33" class="edge">
<title>account&#45;&gt;ed25519</title>
<path fill="none" stroke="black" d="M747.38,-440.71C722.37,-433.04 689.52,-419.22 669,-396 654.05,-379.08 646.78,-354.31 643.27,-335.19"/>
<polygon fill="black" stroke="black" points="646.58,-334.75 641.56,-325.42 639.67,-335.84 646.58,-334.75"/>
</g>
<!-- multi_ed25519 -->
<g id="node20" class="node">
<title>multi_ed25519</title>
<ellipse fill="none" stroke="black" cx="555" cy="-378" rx="67.22" ry="18"/>
<text text-anchor="middle" x="555" y="-372.95" font-family="Times,serif" font-size="14.00">multi_ed25519</text>
</g>
<!-- account&#45;&gt;multi_ed25519 -->
<g id="edge34" class="edge">
<title>account&#45;&gt;multi_ed25519</title>
<path fill="none" stroke="black" d="M749.96,-439.12C713.15,-427.77 652.19,-408.97 608.23,-395.41"/>
<polygon fill="black" stroke="black" points="609.31,-391.78 598.72,-392.17 607.24,-398.46 609.31,-391.78"/>
</g>
<!-- from_bcs -->
<g id="node21" class="node">
<title>from_bcs</title>
<ellipse fill="none" stroke="black" cx="942" cy="-234" rx="46.23" ry="18"/>
<text text-anchor="middle" x="942" y="-228.95" font-family="Times,serif" font-size="14.00">from_bcs</text>
</g>
<!-- account&#45;&gt;from_bcs -->
<g id="edge36" class="edge">
<title>account&#45;&gt;from_bcs</title>
<path fill="none" stroke="black" d="M812.86,-438.35C833.71,-429.77 860.5,-415.85 878,-396 912.36,-357.01 929.5,-297.3 937,-262.61"/>
<polygon fill="black" stroke="black" points="940.54,-263.78 939.11,-253.28 933.68,-262.38 940.54,-263.78"/>
</g>
<!-- create_signer -->
<g id="node22" class="node">
<title>create_signer</title>
<ellipse fill="none" stroke="black" cx="738" cy="-378" rx="60.05" ry="18"/>
<text text-anchor="middle" x="738" y="-372.95" font-family="Times,serif" font-size="14.00">create_signer</text>
</g>
<!-- account&#45;&gt;create_signer -->
<g id="edge38" class="edge">
<title>account&#45;&gt;create_signer</title>
<path fill="none" stroke="black" d="M771.57,-432.41C766.44,-424.25 760.14,-414.22 754.38,-405.07"/>
<polygon fill="black" stroke="black" points="756.94,-403.56 748.66,-396.96 751.02,-407.29 756.94,-403.56"/>
</g>
<!-- chain_id -->
<g id="node23" class="node">
<title>chain_id</title>
<ellipse fill="none" stroke="black" cx="1373" cy="-378" rx="42.65" ry="18"/>
<text text-anchor="middle" x="1373" y="-372.95" font-family="Times,serif" font-size="14.00">chain_id</text>
</g>
<!-- account&#45;&gt;chain_id -->
<g id="edge39" class="edge">
<title>account&#45;&gt;chain_id</title>
<path fill="none" stroke="black" d="M820.79,-445.98C905.14,-439.17 1111.45,-421.23 1283,-396 1296.65,-393.99 1311.4,-391.39 1324.92,-388.83"/>
<polygon fill="black" stroke="black" points="1325.3,-392.13 1334.46,-386.8 1323.97,-385.25 1325.3,-392.13"/>
</g>
<!-- coin&#45;&gt;option -->
<g id="edge40" class="edge">
<title>coin&#45;&gt;option</title>
<path fill="none" stroke="black" d="M1764.78,-520.71C1603.03,-518.85 766.5,-507.43 513,-468 393.25,-449.37 344.11,-472.36 250,-396 166.34,-328.12 176.67,-180.63 185.28,-118.97"/>
<polygon fill="black" stroke="black" points="188.88,-119.58 186.89,-109.17 181.95,-118.54 188.88,-119.58"/>
</g>
<!-- coin&#45;&gt;string -->
<g id="edge41" class="edge">
<title>coin&#45;&gt;string</title>
<path fill="none" stroke="black" d="M1780.82,-505.36C1767.89,-487.43 1745.86,-457.25 1726,-432 1713.13,-415.63 1707.71,-413.22 1696,-396 1665.24,-350.78 1679.82,-322.03 1637,-288 1557.93,-225.17 1247.36,-181.9 1133.84,-167.9"/>
<polygon fill="black" stroke="black" points="1134.52,-164.33 1124.17,-166.6 1133.68,-171.28 1134.52,-164.33"/>
</g>
<!-- coin&#45;&gt;signer -->
<g id="edge42" class="edge">
<title>coin&#45;&gt;signer</title>
<path fill="none" stroke="black" d="M1819.29,-520.01C1931.32,-515.2 2350,-489.83 2350,-379 2350,-379 2350,-379 2350,-233 2350,-193 2357.5,-147.21 2363.08,-118.69"/>
<polygon fill="black" stroke="black" points="2366.7,-119.45 2365.25,-108.95 2359.83,-118.06 2366.7,-119.45"/>
</g>
<!-- coin&#45;&gt;type_info -->
<g id="edge44" class="edge">
<title>coin&#45;&gt;type_info</title>
<path fill="none" stroke="black" d="M1776.67,-507.13C1764.93,-496.48 1748.38,-481.38 1734,-468 1699.94,-436.31 1684.86,-433.99 1658,-396 1627.68,-353.11 1651.24,-320.53 1610,-288 1575.12,-260.48 1453.06,-245.75 1380.15,-239.23"/>
<polygon fill="black" stroke="black" points="1380.6,-235.67 1370.33,-238.29 1379.99,-242.65 1380.6,-235.67"/>
</g>
<!-- coin&#45;&gt;event -->
<g id="edge46" class="edge">
<title>coin&#45;&gt;event</title>
<path fill="none" stroke="black" d="M1764.87,-521.12C1643.84,-521.34 1141.26,-518.98 733,-468 571.95,-447.89 531.71,-438.21 375,-396 370.39,-394.76 365.59,-393.32 360.87,-391.82"/>
<polygon fill="black" stroke="black" points="362.35,-388.29 351.76,-388.47 360.15,-394.93 362.35,-388.29"/>
</g>
<!-- coin&#45;&gt;account -->
<g id="edge47" class="edge">
<title>coin&#45;&gt;account</title>
<path fill="none" stroke="black" d="M1764.98,-519.13C1628.32,-509.66 1012.61,-466.98 831.97,-454.46"/>
<polygon fill="black" stroke="black" points="832.42,-450.92 822.2,-453.72 831.93,-457.9 832.42,-450.92"/>
</g>
<!-- coin&#45;&gt;error -->
<g id="edge43" class="edge">
<title>coin&#45;&gt;error</title>
<path fill="none" stroke="black" d="M1819.09,-519.42C1938,-511.43 2402.79,-468.32 2289,-288 2209.64,-162.25 2128.8,-188.77 1987,-144 1890.67,-113.59 1771.93,-99.62 1711.46,-94.09"/>
<polygon fill="black" stroke="black" points="1712.13,-90.55 1701.86,-93.16 1711.51,-97.52 1712.13,-90.55"/>
</g>
<!-- coin&#45;&gt;system_addresses -->
<g id="edge45" class="edge">
<title>coin&#45;&gt;system_addresses</title>
<path fill="none" stroke="black" d="M1819.03,-520.92C1884.98,-519.01 2052.47,-503.42 2103,-396 2109.81,-381.52 2109.33,-374.7 2103,-360 2098.14,-348.7 2089.55,-338.69 2080.54,-330.49"/>
<polygon fill="black" stroke="black" points="2083.14,-327.26 2073.24,-323.49 2078.63,-332.61 2083.14,-327.26"/>
</g>
<!-- aggregator -->
<g id="node24" class="node">
<title>aggregator</title>
<ellipse fill="none" stroke="black" cx="2230" cy="-306" rx="50.33" ry="18"/>
<text text-anchor="middle" x="2230" y="-300.95" font-family="Times,serif" font-size="14.00">aggregator</text>
</g>
<!-- coin&#45;&gt;aggregator -->
<g id="edge48" class="edge">
<title>coin&#45;&gt;aggregator</title>
<path fill="none" stroke="black" d="M1819.25,-519.65C1870.49,-516.3 1983.85,-504.97 2071,-468 2122.08,-446.33 2134.66,-436.11 2173,-396 2190.76,-377.42 2206.15,-352.53 2216.44,-333.8"/>
<polygon fill="black" stroke="black" points="2220,-335.57 2221.62,-325.1 2213.82,-332.27 2220,-335.57"/>
</g>
<!-- aggregator_factory -->
<g id="node25" class="node">
<title>aggregator_factory</title>
<ellipse fill="none" stroke="black" cx="2013" cy="-378" rx="81.04" ry="18"/>
<text text-anchor="middle" x="2013" y="-372.95" font-family="Times,serif" font-size="14.00">aggregator_factory</text>
</g>
<!-- coin&#45;&gt;aggregator_factory -->
<g id="edge49" class="edge">
<title>coin&#45;&gt;aggregator_factory</title>
<path fill="none" stroke="black" d="M1818.67,-517.49C1867.83,-510.49 1969.9,-493.24 1994,-468 2009.34,-451.93 2013.56,-426.66 2014.25,-407.15"/>
<polygon fill="black" stroke="black" points="2017.75,-407.17 2014.3,-397.16 2010.75,-407.14 2017.75,-407.17"/>
</g>
<!-- optional_aggregator -->
<g id="node26" class="node">
<title>optional_aggregator</title>
<ellipse fill="none" stroke="black" cx="1900" cy="-450" rx="85.13" ry="18"/>
<text text-anchor="middle" x="1900" y="-444.95" font-family="Times,serif" font-size="14.00">optional_aggregator</text>
</g>
<!-- coin&#45;&gt;optional_aggregator -->
<g id="edge50" class="edge">
<title>coin&#45;&gt;optional_aggregator</title>
<path fill="none" stroke="black" d="M1810.81,-508.81C1825.84,-499.07 1847.31,-485.15 1865.41,-473.42"/>
<polygon fill="black" stroke="black" points="1867.04,-475.89 1873.53,-467.51 1863.23,-470.01 1867.04,-475.89"/>
</g>
<!-- tablist&#45;&gt;option -->
<g id="edge51" class="edge">
<title>tablist&#45;&gt;option</title>
<path fill="none" stroke="black" d="M1005.24,-592.27C878.05,-589.26 428.07,-576.21 290,-540 174.87,-509.8 76,-498.02 76,-379 76,-379 76,-379 76,-233 76,-192.03 75.17,-176.59 100,-144 113.26,-126.6 134.01,-113.82 152.25,-105.18"/>
<polygon fill="black" stroke="black" points="153.35,-108.08 161.06,-100.81 150.5,-101.69 153.35,-108.08"/>
</g>
<!-- table_with_length -->
<g id="node27" class="node">
<title>table_with_length</title>
<ellipse fill="none" stroke="black" cx="1197" cy="-378" rx="77.45" ry="18"/>
<text text-anchor="middle" x="1197" y="-372.95" font-family="Times,serif" font-size="14.00">table_with_length</text>
</g>
<!-- tablist&#45;&gt;table_with_length -->
<g id="edge52" class="edge">
<title>tablist&#45;&gt;table_with_length</title>
<path fill="none" stroke="black" d="M1050.88,-576.92C1078.01,-540.16 1144.76,-449.76 1177.81,-404.99"/>
<polygon fill="black" stroke="black" points="1181.21,-407.28 1184.33,-397.16 1175.57,-403.13 1181.21,-407.28"/>
</g>
<!-- registry&#45;&gt;option -->
<g id="edge53" class="edge">
<title>registry&#45;&gt;option</title>
<path fill="none" stroke="black" d="M1062.92,-731.77C1002.57,-723.07 879.43,-704.54 776,-684 427.89,-614.86 38,-733.91 38,-379 38,-379 38,-379 38,-233 38,-189.81 46.86,-174.93 77,-144 96.61,-123.88 125.34,-110.55 148.92,-102.29"/>
<polygon fill="black" stroke="black" points="149.95,-105.3 158.34,-98.84 147.75,-98.66 149.95,-105.3"/>
</g>
<!-- registry&#45;&gt;string -->
<g id="edge54" class="edge">
<title>registry&#45;&gt;string</title>
<path fill="none" stroke="black" d="M1098.46,-719.71C1093.51,-663.03 1078.02,-477.69 1073,-324 1072.48,-308.01 1072.89,-304 1073,-288 1073.22,-256 1068.57,-247.54 1074,-216 1075.49,-207.34 1078.17,-198.19 1081.02,-189.98"/>
<polygon fill="black" stroke="black" points="1084.59,-191.42 1084.77,-180.83 1078.02,-189 1084.59,-191.42"/>
</g>
<!-- registry&#45;&gt;signer -->
<g id="edge55" class="edge">
<title>registry&#45;&gt;signer</title>
<path fill="none" stroke="black" d="M1139.33,-737.25C1366.63,-738.2 2502,-735.9 2502,-595 2502,-595 2502,-595 2502,-521 2502,-424.4 2464,-403.6 2464,-307 2464,-307 2464,-307 2464,-233 2464,-183.33 2423.35,-137.88 2395.23,-112.38"/>
<polygon fill="black" stroke="black" points="2398.14,-109.4 2388.32,-105.43 2393.52,-114.66 2398.14,-109.4"/>
</g>
<!-- registry&#45;&gt;type_info -->
<g id="edge56" class="edge">
<title>registry&#45;&gt;type_info</title>
<path fill="none" stroke="black" d="M1138.69,-734.32C1178.01,-729.75 1238.7,-717.4 1279,-684 1320.31,-649.76 1380.95,-665.22 1463,-324 1466.74,-308.44 1472.08,-301.18 1463,-288 1444.19,-260.7 1409.3,-247.45 1379.18,-241.03"/>
<polygon fill="black" stroke="black" points="1380.24,-237.48 1369.76,-239.03 1378.92,-244.35 1380.24,-237.48"/>
</g>
<!-- registry&#45;&gt;table -->
<g id="edge57" class="edge">
<title>registry&#45;&gt;table</title>
<path fill="none" stroke="black" d="M1134.73,-729.44C1192.48,-714.6 1302,-675.81 1302,-595 1302,-595 1302,-595 1302,-449 1302,-408.55 1296.36,-392.08 1321,-360 1337.62,-338.36 1365.54,-324.82 1388.26,-316.84"/>
<polygon fill="black" stroke="black" points="1389.19,-319.9 1397.6,-313.47 1387.01,-313.24 1389.19,-319.9"/>
</g>
<!-- registry&#45;&gt;event -->
<g id="edge58" class="edge">
<title>registry&#45;&gt;event</title>
<path fill="none" stroke="black" d="M1062.63,-732.08C1015.25,-725.06 931.59,-710.05 864,-684 655.28,-603.54 429.83,-452.43 352.69,-398.63"/>
<polygon fill="black" stroke="black" points="355.22,-395.43 345.02,-392.56 351.21,-401.17 355.22,-395.43"/>
</g>
<!-- registry&#45;&gt;account -->
<g id="edge59" class="edge">
<title>registry&#45;&gt;account</title>
<path fill="none" stroke="black" d="M1064.98,-729.43C991.42,-711.42 821.92,-658.39 753,-540 741.37,-520.03 751.61,-494.78 763.01,-476.28"/>
<polygon fill="black" stroke="black" points="766.37,-478.56 768.97,-468.29 760.53,-474.69 766.37,-478.56"/>
</g>
<!-- registry&#45;&gt;coin -->
<g id="edge60" class="edge">
<title>registry&#45;&gt;coin</title>
<path fill="none" stroke="black" d="M1139.26,-736.02C1251.82,-732.78 1573.84,-720.48 1672,-684 1723.67,-664.79 1742.75,-658.08 1773,-612 1784.85,-593.95 1789.46,-569.82 1791.19,-551.23"/>
<polygon fill="black" stroke="black" points="1794.73,-551.7 1791.93,-541.48 1787.75,-551.22 1794.73,-551.7"/>
</g>
<!-- registry&#45;&gt;tablist -->
<g id="edge61" class="edge">
<title>registry&#45;&gt;tablist</title>
<path fill="none" stroke="black" d="M1092.64,-719.87C1082.14,-695.43 1062.77,-650.33 1050.4,-621.55"/>
<polygon fill="black" stroke="black" points="1053.36,-620.55 1046.19,-612.75 1046.93,-623.32 1053.36,-620.55"/>
</g>
<!-- incentives -->
<g id="node28" class="node">
<title>incentives</title>
<ellipse fill="none" stroke="black" cx="1615" cy="-666" rx="48.28" ry="18"/>
<text text-anchor="middle" x="1615" y="-660.95" font-family="Times,serif" font-size="14.00">incentives</text>
</g>
<!-- registry&#45;&gt;incentives -->
<g id="edge62" class="edge">
<title>registry&#45;&gt;incentives</title>
<path fill="none" stroke="black" d="M1137.04,-731.97C1226.25,-719.84 1453.47,-688.96 1559.25,-674.58"/>
<polygon fill="black" stroke="black" points="1559.57,-677.93 1569.01,-673.11 1558.63,-670.99 1559.57,-677.93"/>
</g>
<!-- features&#45;&gt;signer -->
<g id="edge63" class="edge">
<title>features&#45;&gt;signer</title>
<path fill="none" stroke="black" d="M1031.16,-149.32C1037.6,-147.18 1044.45,-145.24 1051,-144 1178.18,-119.93 2108.65,-97.04 2324.41,-92.02"/>
<polygon fill="black" stroke="black" points="2324.38,-95.49 2334.3,-91.76 2324.22,-88.5 2324.38,-95.49"/>
</g>
<!-- features&#45;&gt;error -->
<g id="edge64" class="edge">
<title>features&#45;&gt;error</title>
<path fill="none" stroke="black" d="M1031.46,-149.45C1037.82,-147.34 1044.57,-145.37 1051,-144 1266.79,-98.11 1532.77,-91.7 1632.11,-90.99"/>
<polygon fill="black" stroke="black" points="1631.86,-94.49 1641.84,-90.93 1631.82,-87.49 1631.86,-94.49"/>
</g>
<!-- system_addresses&#45;&gt;signer -->
<g id="edge65" class="edge">
<title>system_addresses&#45;&gt;signer</title>
<path fill="none" stroke="black" d="M2059.65,-287.81C2084.51,-255.19 2143.03,-183.99 2208,-144 2245.09,-121.17 2293.1,-107.03 2327.01,-99.15"/>
<polygon fill="black" stroke="black" points="2327.49,-102.41 2336.49,-96.81 2325.97,-95.58 2327.49,-102.41"/>
</g>
<!-- system_addresses&#45;&gt;error -->
<g id="edge66" class="edge">
<title>system_addresses&#45;&gt;error</title>
<path fill="none" stroke="black" d="M2042.49,-287.62C2032.81,-254 2006.68,-180.21 1956,-144 1917.25,-116.31 1779.68,-100.53 1711.25,-94.24"/>
<polygon fill="black" stroke="black" points="1711.76,-90.68 1701.49,-93.27 1711.14,-97.65 1711.76,-90.68"/>
</g>
<!-- ed25519&#45;&gt;option -->
<g id="edge67" class="edge">
<title>ed25519&#45;&gt;option</title>
<path fill="none" stroke="black" d="M638.28,-287.7C635.62,-268.53 629.02,-237.49 613,-216 578.29,-169.46 558.01,-165.29 504,-144 413.02,-108.14 297.86,-96.53 235.37,-92.78"/>
<polygon fill="black" stroke="black" points="235.88,-89.25 225.7,-92.19 235.49,-96.24 235.88,-89.25"/>
</g>
<!-- ed25519&#45;&gt;type_info -->
<g id="edge70" class="edge">
<title>ed25519&#45;&gt;type_info</title>
<path fill="none" stroke="black" d="M681.25,-300.78C798.82,-288.75 1135.71,-254.27 1268.88,-240.64"/>
<polygon fill="black" stroke="black" points="1269.02,-244.04 1278.62,-239.54 1268.31,-237.08 1269.02,-244.04"/>
</g>
<!-- ed25519&#45;&gt;error -->
<g id="edge68" class="edge">
<title>ed25519&#45;&gt;error</title>
<path fill="none" stroke="black" d="M644.85,-287.78C655.54,-253.42 684.69,-176.85 740,-144 817.47,-97.99 1463.69,-91.92 1632.03,-91.12"/>
<polygon fill="black" stroke="black" points="1631.88,-94.62 1641.87,-91.07 1631.85,-87.62 1631.88,-94.62"/>
</g>
<!-- ed25519&#45;&gt;bcs -->
<g id="edge69" class="edge">
<title>ed25519&#45;&gt;bcs</title>
<path fill="none" stroke="black" d="M633.2,-287.75C624.47,-267.73 607.47,-235.05 583,-216 547.05,-188.02 495.61,-174.44 461.06,-168.11"/>
<polygon fill="black" stroke="black" points="461.93,-164.54 451.48,-166.3 460.75,-171.44 461.93,-164.54"/>
</g>
<!-- ed25519&#45;&gt;hash -->
<g id="edge71" class="edge">
<title>ed25519&#45;&gt;hash</title>
<path fill="none" stroke="black" d="M619.6,-289.81C605.83,-279.55 587.51,-265.91 572.6,-254.81"/>
<polygon fill="black" stroke="black" points="574.93,-251.44 564.82,-248.27 570.75,-257.05 574.93,-251.44"/>
</g>
<!-- multi_ed25519&#45;&gt;option -->
<g id="edge72" class="edge">
<title>multi_ed25519&#45;&gt;option</title>
<path fill="none" stroke="black" d="M548.48,-359.74C528.5,-307.05 468.96,-151.37 460,-144 426.2,-116.18 302.38,-101.02 234.78,-94.66"/>
<polygon fill="black" stroke="black" points="235.32,-91.11 225.04,-93.68 234.68,-98.08 235.32,-91.11"/>
</g>
<!-- multi_ed25519&#45;&gt;error -->
<g id="edge73" class="edge">
<title>multi_ed25519&#45;&gt;error</title>
<path fill="none" stroke="black" d="M607.87,-366.49C635.67,-358.7 668.71,-345.58 692,-324 757.05,-263.75 704.43,-193.49 778,-144 849.57,-95.86 1468.77,-91.35 1632.45,-91.01"/>
<polygon fill="black" stroke="black" points="1632.01,-94.51 1642,-90.99 1631.99,-87.51 1632.01,-94.51"/>
</g>
<!-- multi_ed25519&#45;&gt;features -->
<g id="edge74" class="edge">
<title>multi_ed25519&#45;&gt;features</title>
<path fill="none" stroke="black" d="M609.81,-367.28C677.52,-354.95 785.81,-334.1 802,-324 853.83,-291.67 839.04,-253.83 887,-216 908.63,-198.94 936.64,-185.88 959.6,-177"/>
<polygon fill="black" stroke="black" points="960.6,-179.98 968.75,-173.21 958.16,-173.42 960.6,-179.98"/>
</g>
<!-- multi_ed25519&#45;&gt;bcs -->
<g id="edge75" class="edge">
<title>multi_ed25519&#45;&gt;bcs</title>
<path fill="none" stroke="black" d="M522.7,-361.86C506.64,-352.88 488.13,-340.09 476,-324 445.65,-283.76 432.62,-225.12 427.33,-190.84"/>
<polygon fill="black" stroke="black" points="430.69,-190.61 425.82,-181.2 423.76,-191.6 430.69,-190.61"/>
</g>
<!-- multi_ed25519&#45;&gt;hash -->
<g id="edge76" class="edge">
<title>multi_ed25519&#45;&gt;hash</title>
<path fill="none" stroke="black" d="M553.9,-359.59C552.37,-335.5 549.6,-291.75 547.78,-263.03"/>
<polygon fill="black" stroke="black" points="551.21,-262.87 547.08,-253.11 544.22,-263.31 551.21,-262.87"/>
</g>
<!-- multi_ed25519&#45;&gt;ed25519 -->
<g id="edge77" class="edge">
<title>multi_ed25519&#45;&gt;ed25519</title>
<path fill="none" stroke="black" d="M575.14,-360.41C586.36,-351.17 600.49,-339.54 612.69,-329.49"/>
<polygon fill="black" stroke="black" points="614.67,-331.57 620.17,-322.51 610.22,-326.17 614.67,-331.57"/>
</g>
<!-- from_bcs&#45;&gt;string -->
<g id="edge78" class="edge">
<title>from_bcs&#45;&gt;string</title>
<path fill="none" stroke="black" d="M970.92,-219.5C995.87,-207.86 1031.94,-191.03 1058.21,-178.77"/>
<polygon fill="black" stroke="black" points="1059.53,-181.55 1067.11,-174.15 1056.57,-175.21 1059.53,-181.55"/>
</g>
<!-- chain_id&#45;&gt;system_addresses -->
<g id="edge79" class="edge">
<title>chain_id&#45;&gt;system_addresses</title>
<path fill="none" stroke="black" d="M1413.41,-371.52C1439.76,-368.03 1474.89,-363.51 1506,-360 1668.58,-341.65 1859.07,-323.85 1965.1,-314.27"/>
<polygon fill="black" stroke="black" points="1965.39,-317.66 1975.04,-313.28 1964.76,-310.69 1965.39,-317.66"/>
</g>
<!-- aggregator_factory&#45;&gt;table -->
<g id="edge81" class="edge">
<title>aggregator_factory&#45;&gt;table</title>
<path fill="none" stroke="black" d="M1942.95,-368.66C1818.31,-353.82 1561.95,-323.3 1464.12,-311.66"/>
<polygon fill="black" stroke="black" points="1464.6,-308.07 1454.26,-310.36 1463.78,-315.02 1464.6,-308.07"/>
</g>
<!-- aggregator_factory&#45;&gt;error -->
<g id="edge80" class="edge">
<title>aggregator_factory&#45;&gt;error</title>
<path fill="none" stroke="black" d="M1991.69,-360.18C1980.98,-350.65 1968.67,-337.87 1961,-324 1921.19,-252.02 1976.8,-201.51 1918,-144 1889.11,-115.75 1773.52,-100.65 1711.62,-94.45"/>
<polygon fill="black" stroke="black" points="1712.01,-90.87 1701.72,-93.39 1711.33,-97.84 1712.01,-90.87"/>
</g>
<!-- aggregator_factory&#45;&gt;system_addresses -->
<g id="edge82" class="edge">
<title>aggregator_factory&#45;&gt;system_addresses</title>
<path fill="none" stroke="black" d="M2021.4,-359.7C2025.19,-351.9 2029.75,-342.51 2033.97,-333.83"/>
<polygon fill="black" stroke="black" points="2037.47,-335.63 2038.69,-325.1 2031.17,-332.57 2037.47,-335.63"/>
</g>
<!-- aggregator_factory&#45;&gt;aggregator -->
<g id="edge83" class="edge">
<title>aggregator_factory&#45;&gt;aggregator</title>
<path fill="none" stroke="black" d="M2057.7,-362.58C2094.44,-350.73 2146.33,-333.99 2183.54,-321.99"/>
<polygon fill="black" stroke="black" points="2184.18,-325.13 2192.63,-318.73 2182.04,-318.47 2184.18,-325.13"/>
</g>
<!-- optional_aggregator&#45;&gt;option -->
<g id="edge84" class="edge">
<title>optional_aggregator&#45;&gt;option</title>
<path fill="none" stroke="black" d="M1829.95,-439.39C1796.61,-431.98 1757.83,-418.92 1729,-396 1685.5,-361.42 1707.17,-325.32 1666,-288 1609.12,-236.45 1582.12,-239.39 1509,-216 1346.94,-164.16 1301.87,-164.82 1133,-144 789.9,-101.7 372.36,-93.13 235.68,-91.42"/>
<polygon fill="black" stroke="black" points="235.87,-87.91 225.83,-91.29 235.79,-94.91 235.87,-87.91"/>
</g>
<!-- optional_aggregator&#45;&gt;error -->
<g id="edge85" class="edge">
<title>optional_aggregator&#45;&gt;error</title>
<path fill="none" stroke="black" d="M1900.81,-431.52C1901.98,-404.72 1904,-351.89 1904,-307 1904,-307 1904,-307 1904,-233 1904,-192.03 1909.17,-172.77 1880,-144 1856.28,-120.61 1764.25,-104.04 1710.88,-96.17"/>
<polygon fill="black" stroke="black" points="1711.52,-92.58 1701.12,-94.63 1710.52,-99.51 1711.52,-92.58"/>
</g>
<!-- optional_aggregator&#45;&gt;aggregator -->
<g id="edge86" class="edge">
<title>optional_aggregator&#45;&gt;aggregator</title>
<path fill="none" stroke="black" d="M1977.49,-442.16C2025.4,-435.44 2086.89,-422.16 2136,-396 2165.85,-380.1 2193.09,-352.13 2210.47,-331.78"/>
<polygon fill="black" stroke="black" points="2213.59,-334.51 2217.3,-324.59 2208.21,-330.03 2213.59,-334.51"/>
</g>
<!-- optional_aggregator&#45;&gt;aggregator_factory -->
<g id="edge87" class="edge">
<title>optional_aggregator&#45;&gt;aggregator_factory</title>
<path fill="none" stroke="black" d="M1926.49,-432.59C1941.65,-423.2 1960.87,-411.29 1977.34,-401.09"/>
<polygon fill="black" stroke="black" points="1979.01,-403.55 1985.67,-395.31 1975.33,-397.6 1979.01,-403.55"/>
</g>
<!-- table_with_length&#45;&gt;table -->
<g id="edge89" class="edge">
<title>table_with_length&#45;&gt;table</title>
<path fill="none" stroke="black" d="M1247.27,-364.02C1284.71,-354.01 1336.92,-339.33 1382,-324 1385.09,-322.95 1388.29,-321.8 1391.48,-320.62"/>
<polygon fill="black" stroke="black" points="1392.41,-323.62 1400.5,-316.77 1389.91,-317.09 1392.41,-323.62"/>
</g>
<!-- table_with_length&#45;&gt;error -->
<g id="edge88" class="edge">
<title>table_with_length&#45;&gt;error</title>
<path fill="none" stroke="black" d="M1223.9,-360.8C1306.57,-311.02 1556.55,-160.51 1642.56,-108.73"/>
<polygon fill="black" stroke="black" points="1643.99,-111.35 1650.75,-103.19 1640.38,-105.35 1643.99,-111.35"/>
</g>
<!-- incentives&#45;&gt;vector -->
<g id="edge90" class="edge">
<title>incentives&#45;&gt;vector</title>
<path fill="none" stroke="black" d="M1663.57,-665.12C1764.87,-664.4 2005.51,-657.54 2201,-612 2287.74,-591.8 2311.4,-585.42 2388,-540 2483.2,-483.54 2578,-489.68 2578,-379 2578,-379 2578,-379 2578,-161 2578,-96.72 2523.22,-97 2464,-72 2402.96,-46.23 2209.65,-28.92 2121.54,-22.17"/>
<polygon fill="black" stroke="black" points="2122.06,-18.63 2111.83,-21.36 2121.54,-25.61 2122.06,-18.63"/>
</g>
<!-- incentives&#45;&gt;signer -->
<g id="edge91" class="edge">
<title>incentives&#45;&gt;signer</title>
<path fill="none" stroke="black" d="M1663,-662.76C1837.22,-653.35 2426,-609.81 2426,-451 2426,-451 2426,-451 2426,-233 2426,-189.7 2402.9,-143.98 2386.11,-116.47"/>
<polygon fill="black" stroke="black" points="2388.55,-114.79 2380.26,-108.2 2382.63,-118.52 2388.55,-114.79"/>
</g>
<!-- incentives&#45;&gt;type_info -->
<g id="edge92" class="edge">
<title>incentives&#45;&gt;type_info</title>
<path fill="none" stroke="black" d="M1611.16,-647.61C1605.6,-620.94 1596,-568.27 1596,-523 1596,-523 1596,-523 1596,-377 1596,-336.03 1601.72,-316.19 1572,-288 1564.84,-281.21 1446.06,-257.93 1375.52,-244.59"/>
<polygon fill="black" stroke="black" points="1376.54,-241.04 1366.06,-242.62 1375.24,-247.91 1376.54,-241.04"/>
</g>
<!-- incentives&#45;&gt;coin -->
<g id="edge93" class="edge">
<title>incentives&#45;&gt;coin</title>
<path fill="none" stroke="black" d="M1618.17,-647.62C1622.65,-627.78 1632.65,-595.56 1653,-576 1681.02,-549.06 1724.14,-535.48 1754.92,-528.86"/>
<polygon fill="black" stroke="black" points="1755.53,-532.11 1764.65,-526.72 1754.16,-525.24 1755.53,-532.11"/>
</g>
<!-- incentives&#45;&gt;tablist -->
<g id="edge95" class="edge">
<title>incentives&#45;&gt;tablist</title>
<path fill="none" stroke="black" d="M1569.8,-659.51C1461.45,-646.34 1188.05,-613.11 1081.99,-600.22"/>
<polygon fill="black" stroke="black" points="1082.72,-596.67 1072.37,-598.93 1081.88,-603.61 1082.72,-596.67"/>
</g>
<!-- aptos_coin -->
<g id="node29" class="node">
<title>aptos_coin</title>
<ellipse fill="none" stroke="black" cx="1713" cy="-594" rx="50.84" ry="18"/>
<text text-anchor="middle" x="1713" y="-588.95" font-family="Times,serif" font-size="14.00">aptos_coin</text>
</g>
<!-- incentives&#45;&gt;aptos_coin -->
<g id="edge94" class="edge">
<title>incentives&#45;&gt;aptos_coin</title>
<path fill="none" stroke="black" d="M1636.75,-649.46C1650.2,-639.86 1667.66,-627.38 1682.48,-616.8"/>
<polygon fill="black" stroke="black" points="1684.21,-619.15 1690.31,-610.49 1680.14,-613.46 1684.21,-619.15"/>
</g>
<!-- resource_account -->
<g id="node30" class="node">
<title>resource_account</title>
<ellipse fill="none" stroke="black" cx="837" cy="-522" rx="75.41" ry="18"/>
<text text-anchor="middle" x="837" y="-516.95" font-family="Times,serif" font-size="14.00">resource_account</text>
</g>
<!-- incentives&#45;&gt;resource_account -->
<g id="edge96" class="edge">
<title>incentives&#45;&gt;resource_account</title>
<path fill="none" stroke="black" d="M1572.34,-657.21C1444.42,-633.87 1063.18,-564.28 905.96,-535.59"/>
<polygon fill="black" stroke="black" points="906.95,-532.03 896.48,-533.67 905.69,-538.91 906.95,-532.03"/>
</g>
<!-- aptos_coin&#45;&gt;vector -->
<g id="edge97" class="edge">
<title>aptos_coin&#45;&gt;vector</title>
<path fill="none" stroke="black" d="M1764.08,-593.83C1876.99,-593.46 2153.04,-580.18 2346,-468 2442.87,-411.69 2540,-419.05 2540,-307 2540,-307 2540,-307 2540,-161 2540,-146.78 2598.62,-146.77 2411,-72 2312.78,-32.86 2187.47,-22.56 2121.79,-19.89"/>
<polygon fill="black" stroke="black" points="2122.12,-16.37 2112,-19.5 2121.87,-23.36 2122.12,-16.37"/>
</g>
<!-- aptos_coin&#45;&gt;option -->
<g id="edge98" class="edge">
<title>aptos_coin&#45;&gt;option</title>
<path fill="none" stroke="black" d="M1662.01,-592.54C1442.6,-589.96 578.81,-573.15 332,-468 221.19,-420.79 114,-427.45 114,-307 114,-307 114,-307 114,-233 114,-187.03 145.35,-141.53 167.78,-114.87"/>
<polygon fill="black" stroke="black" points="171.07,-117.42 174.98,-107.57 165.78,-112.83 171.07,-117.42"/>
</g>
<!-- aptos_coin&#45;&gt;string -->
<g id="edge99" class="edge">
<title>aptos_coin&#45;&gt;string</title>
<path fill="none" stroke="black" d="M1668.6,-584.98C1541.79,-561.14 1182.52,-486.65 1111,-396 1063.74,-336.1 1075.65,-238.52 1085.31,-190.91"/>
<polygon fill="black" stroke="black" points="1088.93,-191.71 1087.62,-181.2 1082.09,-190.24 1088.93,-191.71"/>
</g>
<!-- aptos_coin&#45;&gt;signer -->
<g id="edge100" class="edge">
<title>aptos_coin&#45;&gt;signer</title>
<path fill="none" stroke="black" d="M1761.54,-588.23C1916.32,-571.7 2388,-510.54 2388,-379 2388,-379 2388,-379 2388,-233 2388,-193 2380.5,-147.21 2374.92,-118.69"/>
<polygon fill="black" stroke="black" points="2378.17,-118.06 2372.75,-108.95 2371.3,-119.45 2378.17,-118.06"/>
</g>
<!-- aptos_coin&#45;&gt;coin -->
<g id="edge103" class="edge">
<title>aptos_coin&#45;&gt;coin</title>
<path fill="none" stroke="black" d="M1731.32,-576.76C1742.25,-567.08 1756.25,-554.67 1768.05,-544.22"/>
<polygon fill="black" stroke="black" points="1770.02,-547.27 1775.18,-538.02 1765.37,-542.03 1770.02,-547.27"/>
</g>
<!-- aptos_coin&#45;&gt;error -->
<g id="edge101" class="edge">
<title>aptos_coin&#45;&gt;error</title>
<path fill="none" stroke="black" d="M1720.32,-575.86C1728.32,-557.63 1741.9,-528.15 1756,-504 1775.65,-470.36 1780.06,-461.07 1806,-432 1822.15,-413.91 1834.74,-416.92 1847,-396 1867.46,-361.11 1866,-347.45 1866,-307 1866,-307 1866,-307 1866,-233 1866,-156.14 1765.63,-116.39 1709.28,-100.12"/>
<polygon fill="black" stroke="black" points="1710.55,-96.56 1699.97,-97.26 1708.68,-103.31 1710.55,-96.56"/>
</g>
<!-- aptos_coin&#45;&gt;system_addresses -->
<g id="edge102" class="edge">
<title>aptos_coin&#45;&gt;system_addresses</title>
<path fill="none" stroke="black" d="M1759.6,-586.46C1832.59,-574.23 1975.39,-542.11 2071,-468 2112.52,-435.82 2142.7,-406.88 2119,-360 2112.47,-347.09 2101.15,-336.55 2089.39,-328.37"/>
<polygon fill="black" stroke="black" points="2091.69,-325.04 2081.38,-322.57 2087.9,-330.93 2091.69,-325.04"/>
</g>
<!-- resource_account&#45;&gt;account -->
<g id="edge105" class="edge">
<title>resource_account&#45;&gt;account</title>
<path fill="none" stroke="black" d="M823.69,-504.05C817.04,-495.59 808.86,-485.19 801.52,-475.84"/>
<polygon fill="black" stroke="black" points="803.74,-474.01 794.81,-468.31 798.24,-478.33 803.74,-474.01"/>
</g>
<!-- resource_account&#45;&gt;bcs -->
<g id="edge104" class="edge">
<title>resource_account&#45;&gt;bcs</title>
<path fill="none" stroke="black" d="M765.2,-516.06C628.92,-504.98 341.31,-472.83 285,-396 250.66,-349.15 265.74,-303.21 337,-216 351.29,-198.52 372.96,-185.29 391.1,-176.42"/>
<polygon fill="black" stroke="black" points="392.41,-179.21 400.01,-171.83 389.47,-172.86 392.41,-179.21"/>
</g>
<!-- timestamp -->
<g id="node31" class="node">
<title>timestamp</title>
<ellipse fill="none" stroke="black" cx="1788" cy="-378" rx="50.33" ry="18"/>
<text text-anchor="middle" x="1788" y="-372.95" font-family="Times,serif" font-size="14.00">timestamp</text>
</g>
<!-- resource_account&#45;&gt;timestamp -->
<g id="edge106" class="edge">
<title>resource_account&#45;&gt;timestamp</title>
<path fill="none" stroke="black" d="M899.77,-511.63C1074.4,-485.55 1564.08,-412.44 1731.24,-387.48"/>
<polygon fill="black" stroke="black" points="1731.64,-390.81 1741.01,-385.87 1730.6,-383.88 1731.64,-390.81"/>
</g>
<!-- timestamp&#45;&gt;error -->
<g id="edge107" class="edge">
<title>timestamp&#45;&gt;error</title>
<path fill="none" stroke="black" d="M1781.36,-360.04C1769.83,-330.66 1745.3,-268.38 1724,-216 1710.13,-181.9 1693.77,-142.74 1683.15,-117.47"/>
<polygon fill="black" stroke="black" points="1686.08,-116.41 1678.98,-108.55 1679.63,-119.12 1686.08,-116.41"/>
</g>
<!-- timestamp&#45;&gt;system_addresses -->
<g id="edge108" class="edge">
<title>timestamp&#45;&gt;system_addresses</title>
<path fill="none" stroke="black" d="M1827.34,-366.37C1869.92,-354.86 1938.33,-336.37 1987.49,-323.08"/>
<polygon fill="black" stroke="black" points="1988.25,-326.23 1996.99,-320.25 1986.42,-319.48 1988.25,-326.23"/>
</g>
</g>
</svg>
