<?xml version="1.0" encoding="UTF-8" standalone="no"?>
<!DOCTYPE svg PUBLIC "-//W3C//DTD SVG 1.1//EN"
 "http://www.w3.org/Graphics/SVG/1.1/DTD/svg11.dtd">
<!-- Generated by graphviz version 8.0.5 (20230430.1635)
 -->
<!-- Title: G Pages: 1 -->
<svg width="2624pt" height="836pt"
 viewBox="0.00 0.00 2624.00 836.00" xmlns="http://www.w3.org/2000/svg" xmlns:xlink="http://www.w3.org/1999/xlink">
<g id="graph0" class="graph" transform="scale(1 1) rotate(0) translate(4 832)">
<title>G</title>
<polygon fill="white" stroke="none" points="-4,4 -4,-832 2620,-832 2620,4 -4,4"/>
<!-- user -->
<g id="node1" class="node">
<title>user</title>
<ellipse fill="none" stroke="black" cx="1475" cy="-810" rx="27" ry="18"/>
<text text-anchor="middle" x="1475" y="-804.95" font-family="Times,serif" font-size="14.00">user</text>
</g>
<!-- vector -->
<g id="node2" class="node">
<title>vector</title>
<ellipse fill="none" stroke="black" cx="794" cy="-18" rx="33.95" ry="18"/>
<text text-anchor="middle" x="794" y="-12.95" font-family="Times,serif" font-size="14.00">vector</text>
</g>
<!-- user&#45;&gt;vector -->
<g id="edge1" class="edge">
<title>user&#45;&gt;vector</title>
<path fill="none" stroke="black" d="M1502.1,-808.43C1653.13,-805.15 2387.57,-787.65 2483,-756 2550.51,-733.61 2616,-738.12 2616,-667 2616,-667 2616,-667 2616,-161 2616,-60.86 2506.74,-93.8 2409,-72 2252.34,-37.06 1084.99,-22.23 839.3,-19.48"/>
<polygon fill="black" stroke="black" points="839.34,-15.97 829.31,-19.36 839.27,-22.97 839.34,-15.97"/>
</g>
<!-- option -->
<g id="node3" class="node">
<title>option</title>
<ellipse fill="none" stroke="black" cx="342" cy="-90" rx="34.46" ry="18"/>
<text text-anchor="middle" x="342" y="-84.95" font-family="Times,serif" font-size="14.00">option</text>
</g>
<!-- user&#45;&gt;option -->
<g id="edge2" class="edge">
<title>user&#45;&gt;option</title>
<path fill="none" stroke="black" d="M1447.67,-808.96C1266.35,-808.59 240.46,-804.34 111,-756 51.76,-733.88 0,-730.23 0,-667 0,-667 0,-667 0,-233 0,-178.91 35.82,-170.45 83,-144 150.83,-105.96 242.34,-95.06 296.46,-92.03"/>
<polygon fill="black" stroke="black" points="296.6,-95.48 306.42,-91.5 296.26,-88.49 296.6,-95.48"/>
</g>
<!-- string -->
<g id="node4" class="node">
<title>string</title>
<ellipse fill="none" stroke="black" cx="609" cy="-162" rx="31.9" ry="18"/>
<text text-anchor="middle" x="609" y="-156.95" font-family="Times,serif" font-size="14.00">string</text>
</g>
<!-- user&#45;&gt;string -->
<g id="edge3" class="edge">
<title>user&#45;&gt;string</title>
<path fill="none" stroke="black" d="M1447.67,-809.03C1258.56,-808.88 152,-802.21 152,-667 152,-667 152,-667 152,-449 152,-254.03 454.6,-186.99 567.34,-168.78"/>
<polygon fill="black" stroke="black" points="567.61,-172.12 576.95,-167.12 566.53,-165.21 567.61,-172.12"/>
</g>
<!-- signer -->
<g id="node5" class="node">
<title>signer</title>
<ellipse fill="none" stroke="black" cx="2367" cy="-90" rx="33.44" ry="18"/>
<text text-anchor="middle" x="2367" y="-84.95" font-family="Times,serif" font-size="14.00">signer</text>
</g>
<!-- user&#45;&gt;signer -->
<g id="edge4" class="edge">
<title>user&#45;&gt;signer</title>
<path fill="none" stroke="black" d="M1502.29,-808.74C1634.38,-807.28 2208.12,-798.56 2381,-756 2474.29,-733.03 2578,-763.08 2578,-667 2578,-667 2578,-667 2578,-233 2578,-152.19 2470.16,-114.35 2408.67,-99.34"/>
<polygon fill="black" stroke="black" points="2409.67,-95.74 2399.13,-96.88 2408.08,-102.56 2409.67,-95.74"/>
</g>
<!-- type_info -->
<g id="node6" class="node">
<title>type_info</title>
<ellipse fill="none" stroke="black" cx="1594" cy="-234" rx="46.23" ry="18"/>
<text text-anchor="middle" x="1594" y="-228.95" font-family="Times,serif" font-size="14.00">type_info</text>
</g>
<!-- user&#45;&gt;type_info -->
<g id="edge5" class="edge">
<title>user&#45;&gt;type_info</title>
<path fill="none" stroke="black" d="M1502.12,-809.23C1628.77,-809.61 2156,-803.02 2156,-667 2156,-667 2156,-667 2156,-449 2156,-402.03 2139.18,-384.33 2099,-360 1943.3,-265.69 1857.57,-397.43 1691,-324 1659.16,-309.96 1630.88,-281.14 1613.19,-260.09"/>
<polygon fill="black" stroke="black" points="1615.31,-258.15 1606.28,-252.61 1609.89,-262.57 1615.31,-258.15"/>
</g>
<!-- table -->
<g id="node7" class="node">
<title>table</title>
<ellipse fill="none" stroke="black" cx="495" cy="-306" rx="28.83" ry="18"/>
<text text-anchor="middle" x="495" y="-300.95" font-family="Times,serif" font-size="14.00">table</text>
</g>
<!-- user&#45;&gt;table -->
<g id="edge6" class="edge">
<title>user&#45;&gt;table</title>
<path fill="none" stroke="black" d="M1447.66,-808.83C1261.91,-807.55 191.05,-798.34 138,-756 105.98,-730.45 114,-707.97 114,-667 114,-667 114,-667 114,-521 114,-365.56 358.05,-321.85 455.5,-310.6"/>
<polygon fill="black" stroke="black" points="455.8,-313.98 465.36,-309.41 455.04,-307.02 455.8,-313.98"/>
</g>
<!-- guid -->
<g id="node8" class="node">
<title>guid</title>
<ellipse fill="none" stroke="black" cx="2325" cy="-306" rx="27.3" ry="18"/>
<text text-anchor="middle" x="2325" y="-300.95" font-family="Times,serif" font-size="14.00">guid</text>
</g>
<!-- user&#45;&gt;guid -->
<g id="edge7" class="edge">
<title>user&#45;&gt;guid</title>
<path fill="none" stroke="black" d="M1502.16,-808.41C1624.03,-805.6 2120.94,-792.09 2272,-756 2370.2,-732.54 2481,-767.96 2481,-667 2481,-667 2481,-667 2481,-521 2481,-442.25 2458.57,-419.52 2407,-360 2393.08,-343.94 2373.13,-330.89 2356.39,-321.77"/>
<polygon fill="black" stroke="black" points="2358.45,-318.38 2347.97,-316.85 2355.22,-324.58 2358.45,-318.38"/>
</g>
<!-- event -->
<g id="node9" class="node">
<title>event</title>
<ellipse fill="none" stroke="black" cx="2367" cy="-378" rx="30.88" ry="18"/>
<text text-anchor="middle" x="2367" y="-372.95" font-family="Times,serif" font-size="14.00">event</text>
</g>
<!-- user&#45;&gt;event -->
<g id="edge8" class="edge">
<title>user&#45;&gt;event</title>
<path fill="none" stroke="black" d="M1502.01,-808.19C1613.74,-804.66 2040.01,-789.22 2170,-756 2263.08,-732.21 2367,-763.08 2367,-667 2367,-667 2367,-667 2367,-521 2367,-481.57 2367,-435.97 2367,-407.31"/>
<polygon fill="black" stroke="black" points="2370.5,-407.49 2367,-397.49 2363.5,-407.49 2370.5,-407.49"/>
</g>
<!-- account -->
<g id="node10" class="node">
<title>account</title>
<ellipse fill="none" stroke="black" cx="1743" cy="-450" rx="39.58" ry="18"/>
<text text-anchor="middle" x="1743" y="-444.95" font-family="Times,serif" font-size="14.00">account</text>
</g>
<!-- user&#45;&gt;account -->
<g id="edge9" class="edge">
<title>user&#45;&gt;account</title>
<path fill="none" stroke="black" d="M1501.21,-804.98C1586.71,-791.13 1852,-742.1 1852,-667 1852,-667 1852,-667 1852,-593 1852,-541.16 1805.72,-496.58 1773.47,-471.82"/>
<polygon fill="black" stroke="black" points="1775.91,-468.53 1765.8,-465.37 1771.73,-474.14 1775.91,-468.53"/>
</g>
<!-- coin -->
<g id="node11" class="node">
<title>coin</title>
<ellipse fill="none" stroke="black" cx="1008" cy="-522" rx="27" ry="18"/>
<text text-anchor="middle" x="1008" y="-516.95" font-family="Times,serif" font-size="14.00">coin</text>
</g>
<!-- user&#45;&gt;coin -->
<g id="edge10" class="edge">
<title>user&#45;&gt;coin</title>
<path fill="none" stroke="black" d="M1447.63,-808.71C1367.61,-807.36 1136.06,-799.67 1077,-756 1012.17,-708.06 1005.68,-601.84 1006.56,-551.08"/>
<polygon fill="black" stroke="black" points="1010.08,-551.38 1006.87,-541.28 1003.08,-551.17 1010.08,-551.38"/>
</g>
<!-- tablist -->
<g id="node12" class="node">
<title>tablist</title>
<ellipse fill="none" stroke="black" cx="365" cy="-594" rx="33.44" ry="18"/>
<text text-anchor="middle" x="365" y="-588.95" font-family="Times,serif" font-size="14.00">tablist</text>
</g>
<!-- user&#45;&gt;tablist -->
<g id="edge11" class="edge">
<title>user&#45;&gt;tablist</title>
<path fill="none" stroke="black" d="M1447.7,-807.85C1286.01,-800.76 458.4,-760.91 379,-684 363.03,-668.54 360.48,-642.81 361.37,-622.99"/>
<polygon fill="black" stroke="black" points="364.93,-623.36 362.21,-613.12 357.95,-622.82 364.93,-623.36"/>
</g>
<!-- registry -->
<g id="node13" class="node">
<title>registry</title>
<ellipse fill="none" stroke="black" cx="1125" cy="-738" rx="39.07" ry="18"/>
<text text-anchor="middle" x="1125" y="-732.95" font-family="Times,serif" font-size="14.00">registry</text>
</g>
<!-- user&#45;&gt;registry -->
<g id="edge12" class="edge">
<title>user&#45;&gt;registry</title>
<path fill="none" stroke="black" d="M1449.26,-803.85C1390.43,-792.09 1245.45,-763.09 1170.9,-748.18"/>
<polygon fill="black" stroke="black" points="1171.92,-744.61 1161.43,-746.09 1170.55,-751.48 1171.92,-744.61"/>
</g>
<!-- option&#45;&gt;vector -->
<g id="edge13" class="edge">
<title>option&#45;&gt;vector</title>
<path fill="none" stroke="black" d="M374.87,-83.91C455.12,-71.48 661.03,-39.59 750.93,-25.67"/>
<polygon fill="black" stroke="black" points="751.21,-29.01 760.56,-24.02 750.14,-22.1 751.21,-29.01"/>
</g>
<!-- string&#45;&gt;vector -->
<g id="edge14" class="edge">
<title>string&#45;&gt;vector</title>
<path fill="none" stroke="black" d="M627.41,-146.87C660.16,-121.73 728.65,-69.16 766.82,-39.86"/>
<polygon fill="black" stroke="black" points="768.58,-42.15 774.39,-33.29 764.32,-36.6 768.58,-42.15"/>
</g>
<!-- string&#45;&gt;option -->
<g id="edge15" class="edge">
<title>string&#45;&gt;option</title>
<path fill="none" stroke="black" d="M580.43,-153.51C532.88,-141.04 437.36,-116 382.76,-101.69"/>
<polygon fill="black" stroke="black" points="383.97,-98.12 373.41,-98.97 382.19,-104.89 383.97,-98.12"/>
</g>
<!-- type_info&#45;&gt;string -->
<g id="edge16" class="edge">
<title>type_info&#45;&gt;string</title>
<path fill="none" stroke="black" d="M1548.79,-229.79C1383.33,-218.03 812.01,-177.43 651.34,-166.01"/>
<polygon fill="black" stroke="black" points="651.71,-162.46 641.49,-165.24 651.22,-169.44 651.71,-162.46"/>
</g>
<!-- error -->
<g id="node14" class="node">
<title>error</title>
<ellipse fill="none" stroke="black" cx="1295" cy="-90" rx="28.83" ry="18"/>
<text text-anchor="middle" x="1295" y="-84.95" font-family="Times,serif" font-size="14.00">error</text>
</g>
<!-- type_info&#45;&gt;error -->
<g id="edge17" class="edge">
<title>type_info&#45;&gt;error</title>
<path fill="none" stroke="black" d="M1587.26,-216.01C1578.26,-195.62 1560.34,-161.94 1534,-144 1473.26,-102.63 1385.53,-92.97 1334.98,-91.05"/>
<polygon fill="black" stroke="black" points="1335.28,-87.53 1325.18,-90.74 1335.08,-94.53 1335.28,-87.53"/>
</g>
<!-- features -->
<g id="node15" class="node">
<title>features</title>
<ellipse fill="none" stroke="black" cx="1848" cy="-162" rx="40.09" ry="18"/>
<text text-anchor="middle" x="1848" y="-156.95" font-family="Times,serif" font-size="14.00">features</text>
</g>
<!-- type_info&#45;&gt;features -->
<g id="edge18" class="edge">
<title>type_info&#45;&gt;features</title>
<path fill="none" stroke="black" d="M1630.93,-222.82C1676.86,-210.17 1755.15,-188.59 1804.09,-175.1"/>
<polygon fill="black" stroke="black" points="1804.96,-178.22 1813.67,-172.19 1803.1,-171.47 1804.96,-178.22"/>
</g>
<!-- bcs -->
<g id="node16" class="node">
<title>bcs</title>
<ellipse fill="none" stroke="black" cx="2088" cy="-162" rx="27" ry="18"/>
<text text-anchor="middle" x="2088" y="-156.95" font-family="Times,serif" font-size="14.00">bcs</text>
</g>
<!-- type_info&#45;&gt;bcs -->
<g id="edge19" class="edge">
<title>type_info&#45;&gt;bcs</title>
<path fill="none" stroke="black" d="M1636.98,-226.91C1732.42,-213.39 1960.73,-181.03 2050.67,-168.29"/>
<polygon fill="black" stroke="black" points="2051.02,-171.63 2060.43,-166.77 2050.04,-164.7 2051.02,-171.63"/>
</g>
<!-- event&#45;&gt;guid -->
<g id="edge21" class="edge">
<title>event&#45;&gt;guid</title>
<path fill="none" stroke="black" d="M2357.26,-360.76C2352.22,-352.37 2345.96,-341.93 2340.3,-332.5"/>
<polygon fill="black" stroke="black" points="2342.83,-330.92 2334.69,-324.15 2336.83,-334.52 2342.83,-330.92"/>
</g>
<!-- event&#45;&gt;bcs -->
<g id="edge20" class="edge">
<title>event&#45;&gt;bcs</title>
<path fill="none" stroke="black" d="M2370.19,-359.91C2372.81,-340.93 2374.2,-310.06 2361,-288 2310.74,-204.03 2187.39,-176 2125.17,-167.01"/>
<polygon fill="black" stroke="black" points="2126.03,-163.46 2115.65,-165.59 2125.09,-170.4 2126.03,-163.46"/>
</g>
<!-- account&#45;&gt;vector -->
<g id="edge22" class="edge">
<title>account&#45;&gt;vector</title>
<path fill="none" stroke="black" d="M1781.51,-445.34C1818.93,-440.02 1875.6,-427.11 1914,-396 1977.7,-344.4 2004,-316.98 2004,-235 2004,-235 2004,-235 2004,-161 2004,-41.33 1058.35,-22.27 839.04,-19.46"/>
<polygon fill="black" stroke="black" points="839.31,-15.95 829.26,-19.33 839.22,-22.95 839.31,-15.95"/>
</g>
<!-- account&#45;&gt;option -->
<g id="edge23" class="edge">
<title>account&#45;&gt;option</title>
<path fill="none" stroke="black" d="M1703.14,-449.71C1612.96,-450.33 1387.14,-446.24 1207,-396 945.28,-323 911.47,-217.9 650,-144 558.08,-118.02 446.93,-102.71 386.47,-95.68"/>
<polygon fill="black" stroke="black" points="387.12,-92.12 376.78,-94.46 386.32,-99.07 387.12,-92.12"/>
</g>
<!-- account&#45;&gt;signer -->
<g id="edge24" class="edge">
<title>account&#45;&gt;signer</title>
<path fill="none" stroke="black" d="M1782.56,-447.17C1867.74,-442.64 2065.42,-428.82 2123,-396 2166.96,-370.95 2194,-357.6 2194,-307 2194,-307 2194,-307 2194,-233 2194,-163.93 2277.41,-122.32 2328.39,-103.33"/>
<polygon fill="black" stroke="black" points="2329.2,-106.4 2337.43,-99.73 2326.84,-99.81 2329.2,-106.4"/>
</g>
<!-- account&#45;&gt;type_info -->
<g id="edge27" class="edge">
<title>account&#45;&gt;type_info</title>
<path fill="none" stroke="black" d="M1731.56,-432.56C1705.73,-395.47 1642.75,-305.02 1611.79,-260.54"/>
<polygon fill="black" stroke="black" points="1614.28,-258.99 1605.69,-252.79 1608.53,-262.99 1614.28,-258.99"/>
</g>
<!-- account&#45;&gt;table -->
<g id="edge28" class="edge">
<title>account&#45;&gt;table</title>
<path fill="none" stroke="black" d="M1703.34,-447.98C1547.51,-443.79 977.15,-426.66 799,-396 698.95,-378.78 585.12,-340.12 529.4,-319.89"/>
<polygon fill="black" stroke="black" points="530.97,-316.37 520.37,-316.22 528.56,-322.94 530.97,-316.37"/>
</g>
<!-- account&#45;&gt;guid -->
<g id="edge33" class="edge">
<title>account&#45;&gt;guid</title>
<path fill="none" stroke="black" d="M1782.52,-447.19C1880.25,-442.28 2130.91,-426.96 2208,-396 2245.59,-380.9 2281.54,-350.31 2303.44,-329.25"/>
<polygon fill="black" stroke="black" points="2305.45,-332.2 2310.12,-322.69 2300.54,-327.21 2305.45,-332.2"/>
</g>
<!-- account&#45;&gt;event -->
<g id="edge35" class="edge">
<title>account&#45;&gt;event</title>
<path fill="none" stroke="black" d="M1782.21,-446.57C1871.59,-440.72 2097.14,-424.21 2284,-396 2298.46,-393.82 2314.21,-390.77 2328.06,-387.85"/>
<polygon fill="black" stroke="black" points="2328.66,-391.08 2337.7,-385.56 2327.19,-384.24 2328.66,-391.08"/>
</g>
<!-- account&#45;&gt;error -->
<g id="edge25" class="edge">
<title>account&#45;&gt;error</title>
<path fill="none" stroke="black" d="M1724.04,-433.85C1652.85,-376.96 1401.52,-176.12 1320.43,-111.32"/>
<polygon fill="black" stroke="black" points="1323.25,-108.3 1313.26,-104.79 1318.88,-113.77 1323.25,-108.3"/>
</g>
<!-- account&#45;&gt;bcs -->
<g id="edge26" class="edge">
<title>account&#45;&gt;bcs</title>
<path fill="none" stroke="black" d="M1783,-449.29C1867.25,-448.95 2058.55,-442.91 2099,-396 2149.29,-337.67 2118.79,-237.41 2099.78,-189.72"/>
<polygon fill="black" stroke="black" points="2102.64,-188.48 2095.59,-180.57 2096.17,-191.15 2102.64,-188.48"/>
</g>
<!-- system_addresses -->
<g id="node17" class="node">
<title>system_addresses</title>
<ellipse fill="none" stroke="black" cx="1376" cy="-306" rx="76.94" ry="18"/>
<text text-anchor="middle" x="1376" y="-300.95" font-family="Times,serif" font-size="14.00">system_addresses</text>
</g>
<!-- account&#45;&gt;system_addresses -->
<g id="edge29" class="edge">
<title>account&#45;&gt;system_addresses</title>
<path fill="none" stroke="black" d="M1710.81,-439.1C1678.86,-429.04 1628.61,-412.62 1586,-396 1549.3,-381.68 1541.22,-375.49 1505,-360 1478.21,-348.55 1448.11,-336.15 1423.73,-326.23"/>
<polygon fill="black" stroke="black" points="1425.24,-322.66 1414.66,-322.14 1422.6,-329.15 1425.24,-322.66"/>
</g>
<!-- hash -->
<g id="node18" class="node">
<title>hash</title>
<ellipse fill="none" stroke="black" cx="1946" cy="-234" rx="27.81" ry="18"/>
<text text-anchor="middle" x="1946" y="-228.95" font-family="Times,serif" font-size="14.00">hash</text>
</g>
<!-- account&#45;&gt;hash -->
<g id="edge30" class="edge">
<title>account&#45;&gt;hash</title>
<path fill="none" stroke="black" d="M1779.23,-442.32C1810.06,-435.15 1854.12,-421.21 1885,-396 1925.53,-362.91 1939.15,-299.79 1943.72,-263.18"/>
<polygon fill="black" stroke="black" points="1947.3,-263.62 1944.9,-253.3 1940.34,-262.86 1947.3,-263.62"/>
</g>
<!-- ed25519 -->
<g id="node19" class="node">
<title>ed25519</title>
<ellipse fill="none" stroke="black" cx="1743" cy="-306" rx="42.65" ry="18"/>
<text text-anchor="middle" x="1743" y="-300.95" font-family="Times,serif" font-size="14.00">ed25519</text>
</g>
<!-- account&#45;&gt;ed25519 -->
<g id="edge31" class="edge">
<title>account&#45;&gt;ed25519</title>
<path fill="none" stroke="black" d="M1738.94,-431.93C1736.69,-421.6 1734.13,-408.12 1733,-396 1731.51,-380.07 1731.51,-375.93 1733,-360 1733.77,-351.76 1735.2,-342.9 1736.74,-334.82"/>
<polygon fill="black" stroke="black" points="1740.37,-335.57 1738.94,-325.07 1733.51,-334.17 1740.37,-335.57"/>
</g>
<!-- multi_ed25519 -->
<g id="node20" class="node">
<title>multi_ed25519</title>
<ellipse fill="none" stroke="black" cx="1809" cy="-378" rx="67.22" ry="18"/>
<text text-anchor="middle" x="1809" y="-372.95" font-family="Times,serif" font-size="14.00">multi_ed25519</text>
</g>
<!-- account&#45;&gt;multi_ed25519 -->
<g id="edge32" class="edge">
<title>account&#45;&gt;multi_ed25519</title>
<path fill="none" stroke="black" d="M1757.98,-433.12C1766.18,-424.42 1776.52,-413.45 1785.75,-403.66"/>
<polygon fill="black" stroke="black" points="1787.85,-406.47 1792.16,-396.8 1782.76,-401.67 1787.85,-406.47"/>
</g>
<!-- from_bcs -->
<g id="node21" class="node">
<title>from_bcs</title>
<ellipse fill="none" stroke="black" cx="775" cy="-234" rx="46.23" ry="18"/>
<text text-anchor="middle" x="775" y="-228.95" font-family="Times,serif" font-size="14.00">from_bcs</text>
</g>
<!-- account&#45;&gt;from_bcs -->
<g id="edge34" class="edge">
<title>account&#45;&gt;from_bcs</title>
<path fill="none" stroke="black" d="M1703.09,-448.55C1613.3,-446.79 1388.97,-438.16 1207,-396 1056.57,-361.15 887.52,-287.39 813.36,-253.16"/>
<polygon fill="black" stroke="black" points="815.08,-249.63 804.53,-248.6 812.13,-255.98 815.08,-249.63"/>
</g>
<!-- create_signer -->
<g id="node22" class="node">
<title>create_signer</title>
<ellipse fill="none" stroke="black" cx="2030" cy="-378" rx="60.05" ry="18"/>
<text text-anchor="middle" x="2030" y="-372.95" font-family="Times,serif" font-size="14.00">create_signer</text>
</g>
<!-- account&#45;&gt;create_signer -->
<g id="edge36" class="edge">
<title>account&#45;&gt;create_signer</title>
<path fill="none" stroke="black" d="M1777.33,-440.63C1826.08,-428.74 1915.89,-406.83 1974.26,-392.6"/>
<polygon fill="black" stroke="black" points="1974.89,-395.8 1983.77,-390.03 1973.23,-389 1974.89,-395.8"/>
</g>
<!-- chain_id -->
<g id="node23" class="node">
<title>chain_id</title>
<ellipse fill="none" stroke="black" cx="1453" cy="-378" rx="42.65" ry="18"/>
<text text-anchor="middle" x="1453" y="-372.95" font-family="Times,serif" font-size="14.00">chain_id</text>
</g>
<!-- account&#45;&gt;chain_id -->
<g id="edge37" class="edge">
<title>account&#45;&gt;chain_id</title>
<path fill="none" stroke="black" d="M1707.3,-441.65C1661.42,-432.02 1579.42,-414.23 1510,-396 1505.73,-394.88 1501.3,-393.66 1496.87,-392.4"/>
<polygon fill="black" stroke="black" points="1498.23,-388.86 1487.65,-389.44 1496.28,-395.59 1498.23,-388.86"/>
</g>
<!-- coin&#45;&gt;option -->
<g id="edge38" class="edge">
<title>coin&#45;&gt;option</title>
<path fill="none" stroke="black" d="M981.13,-518.68C870.09,-508.71 447.72,-466.72 337,-396 294.36,-368.76 266,-357.6 266,-307 266,-307 266,-307 266,-233 266,-187.03 297.35,-141.53 319.78,-114.87"/>
<polygon fill="black" stroke="black" points="323.07,-117.42 326.98,-107.57 317.78,-112.83 323.07,-117.42"/>
</g>
<!-- coin&#45;&gt;string -->
<g id="edge39" class="edge">
<title>coin&#45;&gt;string</title>
<path fill="none" stroke="black" d="M980.87,-520.12C908.87,-517.28 715.17,-506.2 666,-468 632.04,-441.61 628,-422.01 628,-379 628,-379 628,-379 628,-305 628,-265 620.5,-219.21 614.92,-190.69"/>
<polygon fill="black" stroke="black" points="618.17,-190.06 612.75,-180.95 611.3,-191.45 618.17,-190.06"/>
</g>
<!-- coin&#45;&gt;signer -->
<g id="edge40" class="edge">
<title>coin&#45;&gt;signer</title>
<path fill="none" stroke="black" d="M1035.2,-520.38C1135.93,-517.84 1497.09,-506.43 1792,-468 1958.56,-446.29 2023.1,-488.96 2163,-396 2269.14,-325.47 2333.97,-178.92 2357.24,-118.23"/>
<polygon fill="black" stroke="black" points="2360.86,-119.53 2361.1,-108.94 2354.31,-117.07 2360.86,-119.53"/>
</g>
<!-- coin&#45;&gt;type_info -->
<g id="edge42" class="edge">
<title>coin&#45;&gt;type_info</title>
<path fill="none" stroke="black" d="M1020.83,-505.94C1057.77,-463.69 1169.44,-343.52 1290,-288 1370.33,-251 1473.48,-239.68 1536.61,-236.31"/>
<polygon fill="black" stroke="black" points="1536.71,-239.76 1546.53,-235.78 1536.38,-232.77 1536.71,-239.76"/>
</g>
<!-- coin&#45;&gt;event -->
<g id="edge44" class="edge">
<title>coin&#45;&gt;event</title>
<path fill="none" stroke="black" d="M1035.08,-520.02C1212.25,-513.59 2199.56,-477.37 2229,-468 2272.93,-454.02 2316.43,-422.19 2342.51,-400.63"/>
<polygon fill="black" stroke="black" points="2344.27,-402.88 2349.66,-393.76 2339.76,-397.53 2344.27,-402.88"/>
</g>
<!-- coin&#45;&gt;account -->
<g id="edge45" class="edge">
<title>coin&#45;&gt;account</title>
<path fill="none" stroke="black" d="M1034.59,-518.47C1142.95,-508.15 1552.14,-469.18 1694.12,-455.66"/>
<polygon fill="black" stroke="black" points="1694.04,-459.08 1703.66,-454.65 1693.38,-452.12 1694.04,-459.08"/>
</g>
<!-- coin&#45;&gt;error -->
<g id="edge41" class="edge">
<title>coin&#45;&gt;error</title>
<path fill="none" stroke="black" d="M1011.68,-503.91C1026.31,-437.5 1082.09,-197.61 1136,-144 1168.16,-112.02 1220.1,-99.33 1255.82,-94.3"/>
<polygon fill="black" stroke="black" points="1255.86,-97.7 1265.34,-92.98 1254.98,-90.76 1255.86,-97.7"/>
</g>
<!-- coin&#45;&gt;system_addresses -->
<g id="edge43" class="edge">
<title>coin&#45;&gt;system_addresses</title>
<path fill="none" stroke="black" d="M1034.02,-516.78C1092.36,-506.15 1235.51,-473.39 1325,-396 1344.09,-379.49 1357.68,-353.97 1366,-334.49"/>
<polygon fill="black" stroke="black" points="1369.59,-335.97 1370.09,-325.38 1363.09,-333.34 1369.59,-335.97"/>
</g>
<!-- aggregator -->
<g id="node24" class="node">
<title>aggregator</title>
<ellipse fill="none" stroke="black" cx="706" cy="-306" rx="50.33" ry="18"/>
<text text-anchor="middle" x="706" y="-300.95" font-family="Times,serif" font-size="14.00">aggregator</text>
</g>
<!-- coin&#45;&gt;aggregator -->
<g id="edge46" class="edge">
<title>coin&#45;&gt;aggregator</title>
<path fill="none" stroke="black" d="M980.7,-520.84C909.85,-519.78 722.98,-512.72 685,-468 652.95,-430.26 674.77,-368.51 691.62,-333.47"/>
<polygon fill="black" stroke="black" points="695.06,-335.43 696.41,-324.92 688.8,-332.29 695.06,-335.43"/>
</g>
<!-- aggregator_factory -->
<g id="node25" class="node">
<title>aggregator_factory</title>
<ellipse fill="none" stroke="black" cx="889" cy="-378" rx="81.04" ry="18"/>
<text text-anchor="middle" x="889" y="-372.95" font-family="Times,serif" font-size="14.00">aggregator_factory</text>
</g>
<!-- coin&#45;&gt;aggregator_factory -->
<g id="edge47" class="edge">
<title>coin&#45;&gt;aggregator_factory</title>
<path fill="none" stroke="black" d="M995.26,-505.8C974.86,-481.45 934.61,-433.43 909.93,-403.98"/>
<polygon fill="black" stroke="black" points="912.22,-402.25 903.11,-396.84 906.85,-406.75 912.22,-402.25"/>
</g>
<!-- optional_aggregator -->
<g id="node26" class="node">
<title>optional_aggregator</title>
<ellipse fill="none" stroke="black" cx="779" cy="-450" rx="85.13" ry="18"/>
<text text-anchor="middle" x="779" y="-444.95" font-family="Times,serif" font-size="14.00">optional_aggregator</text>
</g>
<!-- coin&#45;&gt;optional_aggregator -->
<g id="edge48" class="edge">
<title>coin&#45;&gt;optional_aggregator</title>
<path fill="none" stroke="black" d="M983.93,-513.64C949.23,-503.04 884.12,-483.13 836.57,-468.6"/>
<polygon fill="black" stroke="black" points="837.69,-464.98 827.11,-465.4 835.65,-471.67 837.69,-464.98"/>
</g>
<!-- tablist&#45;&gt;option -->
<g id="edge49" class="edge">
<title>tablist&#45;&gt;option</title>
<path fill="none" stroke="black" d="M341.39,-580.85C278.9,-546.84 114,-444.08 114,-307 114,-307 114,-307 114,-233 114,-146.86 232.7,-111.1 298.81,-97.86"/>
<polygon fill="black" stroke="black" points="299.17,-101.17 308.33,-95.86 297.85,-94.29 299.17,-101.17"/>
</g>
<!-- table_with_length -->
<g id="node27" class="node">
<title>table_with_length</title>
<ellipse fill="none" stroke="black" cx="447" cy="-378" rx="77.45" ry="18"/>
<text text-anchor="middle" x="447" y="-372.95" font-family="Times,serif" font-size="14.00">table_with_length</text>
</g>
<!-- tablist&#45;&gt;table_with_length -->
<g id="edge50" class="edge">
<title>tablist&#45;&gt;table_with_length</title>
<path fill="none" stroke="black" d="M371.43,-576.21C385.53,-539.43 419.23,-451.48 436.46,-406.5"/>
<polygon fill="black" stroke="black" points="440.06,-407.9 440.37,-397.31 433.52,-405.39 440.06,-407.9"/>
</g>
<!-- registry&#45;&gt;option -->
<g id="edge51" class="edge">
<title>registry&#45;&gt;option</title>
<path fill="none" stroke="black" d="M1085.85,-736.01C934.08,-731.94 389.5,-715.28 319,-684 150.52,-609.25 38,-563.32 38,-379 38,-379 38,-379 38,-305 38,-222.59 64.31,-193.77 130,-144 178.75,-107.07 250.17,-95.63 296.38,-92.23"/>
<polygon fill="black" stroke="black" points="296.51,-95.66 306.27,-91.54 296.06,-88.68 296.51,-95.66"/>
</g>
<!-- registry&#45;&gt;string -->
<g id="edge52" class="edge">
<title>registry&#45;&gt;string</title>
<path fill="none" stroke="black" d="M1088.89,-730.5C1001.69,-713.26 776.16,-659.28 632,-540 543.6,-466.86 565,-402.2 576,-288 579.13,-255.55 581.36,-247.43 590,-216 592.34,-207.48 595.4,-198.37 598.37,-190.15"/>
<polygon fill="black" stroke="black" points="601.95,-191.57 602.17,-180.97 595.39,-189.12 601.95,-191.57"/>
</g>
<!-- registry&#45;&gt;signer -->
<g id="edge53" class="edge">
<title>registry&#45;&gt;signer</title>
<path fill="none" stroke="black" d="M1164.43,-737.65C1270.05,-738.6 1567.68,-736.07 1808,-684 2165.65,-606.51 2540,-672.95 2540,-307 2540,-307 2540,-307 2540,-233 2540,-163.93 2456.59,-122.32 2405.61,-103.33"/>
<polygon fill="black" stroke="black" points="2407.16,-99.81 2396.57,-99.73 2404.8,-106.4 2407.16,-99.81"/>
</g>
<!-- registry&#45;&gt;type_info -->
<g id="edge54" class="edge">
<title>registry&#45;&gt;type_info</title>
<path fill="none" stroke="black" d="M1164.15,-736.86C1266.42,-734.07 1540.78,-710.37 1643,-540 1671.04,-493.27 1623.67,-328.5 1602.96,-262.57"/>
<polygon fill="black" stroke="black" points="1606.01,-261.63 1599.65,-253.16 1599.34,-263.75 1606.01,-261.63"/>
</g>
<!-- registry&#45;&gt;table -->
<g id="edge55" class="edge">
<title>registry&#45;&gt;table</title>
<path fill="none" stroke="black" d="M1085.74,-735.99C940.97,-732.03 442.21,-716.17 379,-684 332.9,-660.54 304,-646.73 304,-595 304,-595 304,-595 304,-449 304,-373.07 402.4,-332.99 457.95,-316.4"/>
<polygon fill="black" stroke="black" points="458.79,-319.52 467.44,-313.4 456.87,-312.79 458.79,-319.52"/>
</g>
<!-- registry&#45;&gt;event -->
<g id="edge56" class="edge">
<title>registry&#45;&gt;event</title>
<path fill="none" stroke="black" d="M1163.97,-735.5C1281.42,-730.7 1630.63,-714.19 1740,-684 1985.5,-616.23 2250.97,-453.85 2337.76,-398.14"/>
<polygon fill="black" stroke="black" points="2339.49,-400.55 2345.99,-392.19 2335.69,-394.67 2339.49,-400.55"/>
</g>
<!-- registry&#45;&gt;account -->
<g id="edge57" class="edge">
<title>registry&#45;&gt;account</title>
<path fill="none" stroke="black" d="M1164.17,-736.27C1289.45,-733.56 1674.5,-722.17 1714,-684 1769.63,-630.24 1758.72,-528.13 1749.35,-478.91"/>
<polygon fill="black" stroke="black" points="1752.58,-478.25 1747.16,-469.14 1745.72,-479.64 1752.58,-478.25"/>
</g>
<!-- registry&#45;&gt;coin -->
<g id="edge58" class="edge">
<title>registry&#45;&gt;coin</title>
<path fill="none" stroke="black" d="M1105.4,-722.18C1093.42,-712.36 1078.44,-698.63 1068,-684 1038.26,-642.34 1021.43,-584.19 1013.57,-550.37"/>
<polygon fill="black" stroke="black" points="1016.82,-549.9 1011.24,-540.9 1009.99,-551.42 1016.82,-549.9"/>
</g>
<!-- registry&#45;&gt;tablist -->
<g id="edge59" class="edge">
<title>registry&#45;&gt;tablist</title>
<path fill="none" stroke="black" d="M1085.79,-736.28C944.75,-733.4 468.54,-721.01 412,-684 390.68,-670.05 378.4,-643.12 371.78,-622.52"/>
<polygon fill="black" stroke="black" points="374.91,-621.75 368.74,-613.14 368.19,-623.72 374.91,-621.75"/>
</g>
<!-- incentives -->
<g id="node28" class="node">
<title>incentives</title>
<ellipse fill="none" stroke="black" cx="1125" cy="-666" rx="48.28" ry="18"/>
<text text-anchor="middle" x="1125" y="-660.95" font-family="Times,serif" font-size="14.00">incentives</text>
</g>
<!-- registry&#45;&gt;incentives -->
<g id="edge60" class="edge">
<title>registry&#45;&gt;incentives</title>
<path fill="none" stroke="black" d="M1125,-719.7C1125,-712.24 1125,-703.32 1125,-694.97"/>
<polygon fill="black" stroke="black" points="1128.5,-695.1 1125,-685.1 1121.5,-695.1 1128.5,-695.1"/>
</g>
<!-- features&#45;&gt;signer -->
<g id="edge61" class="edge">
<title>features&#45;&gt;signer</title>
<path fill="none" stroke="black" d="M1886.16,-155.85C1980.5,-143.13 2224.19,-110.26 2323.71,-96.84"/>
<polygon fill="black" stroke="black" points="2324.11,-100.18 2333.55,-95.38 2323.17,-93.24 2324.11,-100.18"/>
</g>
<!-- features&#45;&gt;error -->
<g id="edge62" class="edge">
<title>features&#45;&gt;error</title>
<path fill="none" stroke="black" d="M1816.34,-150.61C1807.86,-148.14 1798.65,-145.72 1790,-144 1622.83,-110.83 1419.51,-97.31 1334.91,-92.85"/>
<polygon fill="black" stroke="black" points="1335.17,-89.31 1325.01,-92.3 1334.81,-96.3 1335.17,-89.31"/>
</g>
<!-- system_addresses&#45;&gt;signer -->
<g id="edge63" class="edge">
<title>system_addresses&#45;&gt;signer</title>
<path fill="none" stroke="black" d="M1401.63,-288.58C1432.99,-269.08 1488.2,-236.58 1539,-216 1820.86,-101.8 2194.95,-90.77 2322.34,-90.55"/>
<polygon fill="black" stroke="black" points="2322.19,-94.05 2332.19,-90.56 2322.19,-87.05 2322.19,-94.05"/>
</g>
<!-- system_addresses&#45;&gt;error -->
<g id="edge64" class="edge">
<title>system_addresses&#45;&gt;error</title>
<path fill="none" stroke="black" d="M1369.51,-287.85C1355.46,-250.74 1322.16,-162.75 1305.24,-118.05"/>
<polygon fill="black" stroke="black" points="1308.22,-117.05 1301.41,-108.94 1301.68,-119.53 1308.22,-117.05"/>
</g>
<!-- ed25519&#45;&gt;option -->
<g id="edge65" class="edge">
<title>ed25519&#45;&gt;option</title>
<path fill="none" stroke="black" d="M1724.09,-289.53C1711.79,-279.23 1695.57,-265.21 1682,-252 1666.45,-236.86 1668.38,-225.78 1649,-216 1421.21,-100.99 592.15,-91.54 387.77,-90.98"/>
<polygon fill="black" stroke="black" points="387.87,-87.48 377.86,-90.96 387.85,-94.48 387.87,-87.48"/>
</g>
<!-- ed25519&#45;&gt;type_info -->
<g id="edge68" class="edge">
<title>ed25519&#45;&gt;type_info</title>
<path fill="none" stroke="black" d="M1715.32,-292C1692.07,-281.07 1658.58,-265.34 1632.67,-253.17"/>
<polygon fill="black" stroke="black" points="1634.34,-249.61 1623.8,-248.53 1631.36,-255.95 1634.34,-249.61"/>
</g>
<!-- ed25519&#45;&gt;error -->
<g id="edge66" class="edge">
<title>ed25519&#45;&gt;error</title>
<path fill="none" stroke="black" d="M1734.22,-288.03C1723.71,-268.87 1704.66,-237.57 1682,-216 1637.78,-173.9 1621.86,-166.24 1565,-144 1486.5,-113.3 1387.94,-99.74 1334.27,-94.28"/>
<polygon fill="black" stroke="black" points="1334.82,-90.72 1324.52,-93.23 1334.14,-97.69 1334.82,-90.72"/>
</g>
<!-- ed25519&#45;&gt;bcs -->
<g id="edge67" class="edge">
<title>ed25519&#45;&gt;bcs</title>
<path fill="none" stroke="black" d="M1761.59,-289.49C1786.25,-269.67 1831.81,-235.6 1876,-216 1934.39,-190.11 2007.66,-175.35 2050.99,-168.28"/>
<polygon fill="black" stroke="black" points="2051.27,-171.62 2060.6,-166.61 2050.17,-164.71 2051.27,-171.62"/>
</g>
<!-- ed25519&#45;&gt;hash -->
<g id="edge69" class="edge">
<title>ed25519&#45;&gt;hash</title>
<path fill="none" stroke="black" d="M1775.17,-293.91C1812.36,-281.08 1873.36,-260.05 1911.51,-246.89"/>
<polygon fill="black" stroke="black" points="1912.32,-249.97 1920.63,-243.4 1910.04,-243.35 1912.32,-249.97"/>
</g>
<!-- multi_ed25519&#45;&gt;option -->
<g id="edge70" class="edge">
<title>multi_ed25519&#45;&gt;option</title>
<path fill="none" stroke="black" d="M1768.21,-363.42C1644.55,-322.82 1262.33,-201.66 936,-144 733.28,-108.18 487.12,-96.03 387.3,-92.39"/>
<polygon fill="black" stroke="black" points="387.54,-88.86 377.42,-92.01 387.29,-95.86 387.54,-88.86"/>
</g>
<!-- multi_ed25519&#45;&gt;error -->
<g id="edge71" class="edge">
<title>multi_ed25519&#45;&gt;error</title>
<path fill="none" stroke="black" d="M1809.72,-359.8C1809.76,-340.99 1807.58,-310.54 1795,-288 1745.4,-199.15 1710.39,-184.41 1617,-144 1521.55,-102.7 1397.41,-93.38 1334.82,-91.41"/>
<polygon fill="black" stroke="black" points="1334.95,-87.88 1324.86,-91.12 1334.77,-94.88 1334.95,-87.88"/>
</g>
<!-- multi_ed25519&#45;&gt;features -->
<g id="edge72" class="edge">
<title>multi_ed25519&#45;&gt;features</title>
<path fill="none" stroke="black" d="M1816.33,-359.63C1820.35,-349.42 1825.1,-336.17 1828,-324 1838.93,-278.12 1844.12,-223.38 1846.4,-191"/>
<polygon fill="black" stroke="black" points="1849.95,-191.35 1847.11,-181.14 1842.97,-190.89 1849.95,-191.35"/>
</g>
<!-- multi_ed25519&#45;&gt;bcs -->
<g id="edge73" class="edge">
<title>multi_ed25519&#45;&gt;bcs</title>
<path fill="none" stroke="black" d="M1821.36,-360.05C1828.72,-349.77 1838.14,-336.29 1846,-324 1875.93,-277.18 1865.28,-250.3 1909,-216 1950.31,-183.59 2011.02,-170.97 2050.03,-166.08"/>
<polygon fill="black" stroke="black" points="2050.37,-169.45 2059.91,-164.84 2049.58,-162.5 2050.37,-169.45"/>
</g>
<!-- multi_ed25519&#45;&gt;hash -->
<g id="edge74" class="edge">
<title>multi_ed25519&#45;&gt;hash</title>
<path fill="none" stroke="black" d="M1846.44,-362.69C1865.59,-353.87 1888.14,-340.97 1904,-324 1920.28,-306.57 1931.3,-281.68 1937.95,-262.66"/>
<polygon fill="black" stroke="black" points="1941.57,-263.82 1941.36,-253.23 1934.92,-261.64 1941.57,-263.82"/>
</g>
<!-- multi_ed25519&#45;&gt;ed25519 -->
<g id="edge75" class="edge">
<title>multi_ed25519&#45;&gt;ed25519</title>
<path fill="none" stroke="black" d="M1793.02,-360.05C1784.68,-351.2 1774.33,-340.23 1765.22,-330.57"/>
<polygon fill="black" stroke="black" points="1768.33,-328.7 1758.92,-323.83 1763.24,-333.51 1768.33,-328.7"/>
</g>
<!-- from_bcs&#45;&gt;string -->
<g id="edge76" class="edge">
<title>from_bcs&#45;&gt;string</title>
<path fill="none" stroke="black" d="M744.55,-220.16C716.17,-208.19 673.86,-190.35 644.07,-177.79"/>
<polygon fill="black" stroke="black" points="645.68,-174.25 635.1,-173.59 642.96,-180.7 645.68,-174.25"/>
</g>
<!-- chain_id&#45;&gt;system_addresses -->
<g id="edge77" class="edge">
<title>chain_id&#45;&gt;system_addresses</title>
<path fill="none" stroke="black" d="M1435.53,-361.12C1425.77,-352.24 1413.41,-341.01 1402.48,-331.08"/>
<polygon fill="black" stroke="black" points="1405.23,-328.93 1395.48,-324.8 1400.52,-334.11 1405.23,-328.93"/>
</g>
<!-- aggregator_factory&#45;&gt;table -->
<g id="edge79" class="edge">
<title>aggregator_factory&#45;&gt;table</title>
<path fill="none" stroke="black" d="M827.42,-365.97C816.3,-363.98 804.8,-361.92 794,-360 700.33,-343.32 590.14,-323.82 533.26,-313.76"/>
<polygon fill="black" stroke="black" points="534.08,-310.17 523.62,-311.88 532.86,-317.07 534.08,-310.17"/>
</g>
<!-- aggregator_factory&#45;&gt;error -->
<g id="edge78" class="edge">
<title>aggregator_factory&#45;&gt;error</title>
<path fill="none" stroke="black" d="M917.81,-360.75C953.04,-339.64 1012.58,-299.78 1050,-252 1082.39,-210.65 1058.09,-178.15 1098,-144 1142.56,-105.88 1211.9,-94.9 1255.31,-91.9"/>
<polygon fill="black" stroke="black" points="1255.25,-95.35 1265.03,-91.28 1254.85,-88.36 1255.25,-95.35"/>
</g>
<!-- aggregator_factory&#45;&gt;system_addresses -->
<g id="edge80" class="edge">
<title>aggregator_factory&#45;&gt;system_addresses</title>
<path fill="none" stroke="black" d="M955.69,-367.41C1045.99,-354.43 1206.68,-331.34 1301.05,-317.77"/>
<polygon fill="black" stroke="black" points="1301.26,-321.14 1310.66,-316.25 1300.26,-314.21 1301.26,-321.14"/>
</g>
<!-- aggregator_factory&#45;&gt;aggregator -->
<g id="edge81" class="edge">
<title>aggregator_factory&#45;&gt;aggregator</title>
<path fill="none" stroke="black" d="M849.74,-361.98C820.21,-350.69 779.76,-335.21 749.29,-323.56"/>
<polygon fill="black" stroke="black" points="750.96,-320.07 740.37,-319.76 748.46,-326.6 750.96,-320.07"/>
</g>
<!-- optional_aggregator&#45;&gt;option -->
<g id="edge82" class="edge">
<title>optional_aggregator&#45;&gt;option</title>
<path fill="none" stroke="black" d="M693.63,-449.44C585.64,-448.15 408.06,-439.25 361,-396 331.22,-368.63 342,-347.45 342,-307 342,-307 342,-307 342,-233 342,-193.57 342,-147.97 342,-119.31"/>
<polygon fill="black" stroke="black" points="345.5,-119.49 342,-109.49 338.5,-119.49 345.5,-119.49"/>
</g>
<!-- optional_aggregator&#45;&gt;error -->
<g id="edge83" class="edge">
<title>optional_aggregator&#45;&gt;error</title>
<path fill="none" stroke="black" d="M779.52,-431.65C780.82,-412.71 785.11,-382.13 799,-360 881.05,-229.24 932.11,-211.39 1071,-144 1131.62,-114.59 1209.55,-100.93 1255.7,-95.03"/>
<polygon fill="black" stroke="black" points="1255.93,-98.41 1265.44,-93.72 1255.09,-91.46 1255.93,-98.41"/>
</g>
<!-- optional_aggregator&#45;&gt;aggregator -->
<g id="edge84" class="edge">
<title>optional_aggregator&#45;&gt;aggregator</title>
<path fill="none" stroke="black" d="M758.15,-432.08C747.66,-422.52 735.59,-409.75 728,-396 717.61,-377.16 712.05,-353.41 709.13,-335.18"/>
<polygon fill="black" stroke="black" points="712.47,-334.78 707.6,-325.37 705.54,-335.76 712.47,-334.78"/>
</g>
<!-- optional_aggregator&#45;&gt;aggregator_factory -->
<g id="edge85" class="edge">
<title>optional_aggregator&#45;&gt;aggregator_factory</title>
<path fill="none" stroke="black" d="M805.07,-432.41C819.73,-423.08 838.22,-411.32 854.11,-401.2"/>
<polygon fill="black" stroke="black" points="855.56,-403.79 862.12,-395.47 851.8,-397.89 855.56,-403.79"/>
</g>
<!-- table_with_length&#45;&gt;table -->
<g id="edge87" class="edge">
<title>table_with_length&#45;&gt;table</title>
<path fill="none" stroke="black" d="M458.62,-360.05C464.45,-351.56 471.61,-341.11 478.04,-331.73"/>
<polygon fill="black" stroke="black" points="481.38,-334.06 484.15,-323.83 475.6,-330.1 481.38,-334.06"/>
</g>
<!-- table_with_length&#45;&gt;error -->
<g id="edge86" class="edge">
<title>table_with_length&#45;&gt;error</title>
<path fill="none" stroke="black" d="M446.24,-359.6C446.04,-341.15 447.5,-311.5 457,-288 487.3,-213.09 496.83,-182.27 568,-144 628.63,-111.39 1111.48,-95.92 1254.94,-92.02"/>
<polygon fill="black" stroke="black" points="1254.93,-95.49 1264.83,-91.73 1254.74,-88.5 1254.93,-95.49"/>
</g>
<!-- incentives&#45;&gt;vector -->
<g id="edge88" class="edge">
<title>incentives&#45;&gt;vector</title>
<path fill="none" stroke="black" d="M1077.2,-662.46C871.99,-650.28 76,-589.47 76,-379 76,-379 76,-379 76,-305 76,-229.53 76.85,-197.58 130,-144 187.5,-86.04 219.99,-92.57 299,-72 460.86,-29.86 660.87,-21.14 748.86,-19.4"/>
<polygon fill="black" stroke="black" points="748.83,-22.88 758.77,-19.21 748.71,-15.88 748.83,-22.88"/>
</g>
<!-- incentives&#45;&gt;signer -->
<g id="edge89" class="edge">
<title>incentives&#45;&gt;signer</title>
<path fill="none" stroke="black" d="M1172.8,-663.11C1415.73,-652.22 2502,-587.82 2502,-307 2502,-307 2502,-307 2502,-233 2502,-174.39 2440.85,-130.35 2400.86,-107.82"/>
<polygon fill="black" stroke="black" points="2402.9,-104.4 2392.45,-102.69 2399.55,-110.55 2402.9,-104.4"/>
</g>
<!-- incentives&#45;&gt;type_info -->
<g id="edge90" class="edge">
<title>incentives&#45;&gt;type_info</title>
<path fill="none" stroke="black" d="M1155.13,-651.61C1226.24,-618.52 1405.98,-526.08 1505,-396 1535.91,-355.39 1517.26,-331.47 1544,-288 1550.6,-277.28 1559.62,-266.88 1568.19,-258.18"/>
<polygon fill="black" stroke="black" points="1570.14,-261.19 1574.85,-251.7 1565.25,-256.18 1570.14,-261.19"/>
</g>
<!-- incentives&#45;&gt;coin -->
<g id="edge91" class="edge">
<title>incentives&#45;&gt;coin</title>
<path fill="none" stroke="black" d="M1104.53,-649.32C1092.28,-639.38 1076.85,-625.83 1065,-612 1048.18,-592.37 1032.61,-567.38 1022,-548.89"/>
<polygon fill="black" stroke="black" points="1024.6,-547.36 1016.65,-540.35 1018.49,-550.79 1024.6,-547.36"/>
</g>
<!-- incentives&#45;&gt;tablist -->
<g id="edge93" class="edge">
<title>incentives&#45;&gt;tablist</title>
<path fill="none" stroke="black" d="M1076.91,-663.19C965.97,-658.59 683.74,-644.43 450,-612 435.65,-610.01 420.07,-607.11 406.22,-604.27"/>
<polygon fill="black" stroke="black" points="407.04,-600.66 396.54,-602.02 405.6,-607.51 407.04,-600.66"/>
</g>
<!-- aptos_coin -->
<g id="node29" class="node">
<title>aptos_coin</title>
<ellipse fill="none" stroke="black" cx="1125" cy="-594" rx="50.84" ry="18"/>
<text text-anchor="middle" x="1125" y="-588.95" font-family="Times,serif" font-size="14.00">aptos_coin</text>
</g>
<!-- incentives&#45;&gt;aptos_coin -->
<g id="edge92" class="edge">
<title>incentives&#45;&gt;aptos_coin</title>
<path fill="none" stroke="black" d="M1125,-647.7C1125,-640.24 1125,-631.32 1125,-622.97"/>
<polygon fill="black" stroke="black" points="1128.5,-623.1 1125,-613.1 1121.5,-623.1 1128.5,-623.1"/>
</g>
<!-- resource_account -->
<g id="node30" class="node">
<title>resource_account</title>
<ellipse fill="none" stroke="black" cx="1559" cy="-522" rx="75.41" ry="18"/>
<text text-anchor="middle" x="1559" y="-516.95" font-family="Times,serif" font-size="14.00">resource_account</text>
</g>
<!-- incentives&#45;&gt;resource_account -->
<g id="edge94" class="edge">
<title>incentives&#45;&gt;resource_account</title>
<path fill="none" stroke="black" d="M1172.05,-661.41C1253.91,-654.57 1418.71,-637.98 1470,-612 1499.21,-597.2 1524.71,-569.24 1540.84,-548.59"/>
<polygon fill="black" stroke="black" points="1544.12,-551.06 1547.37,-540.97 1538.54,-546.83 1544.12,-551.06"/>
</g>
<!-- aptos_coin&#45;&gt;vector -->
<g id="edge95" class="edge">
<title>aptos_coin&#45;&gt;vector</title>
<path fill="none" stroke="black" d="M1115.27,-576.13C1068.4,-494.85 865.78,-143.48 808.9,-44.84"/>
<polygon fill="black" stroke="black" points="811.6,-43.51 803.57,-36.59 805.53,-47 811.6,-43.51"/>
</g>
<!-- aptos_coin&#45;&gt;option -->
<g id="edge96" class="edge">
<title>aptos_coin&#45;&gt;option</title>
<path fill="none" stroke="black" d="M1074.31,-591.5C984.23,-587.96 790.79,-576.43 632,-540 539.51,-518.78 518.51,-504.69 431,-468 312.21,-418.19 190,-435.81 190,-307 190,-307 190,-307 190,-233 190,-170.18 260.18,-127.17 305.17,-106.05"/>
<polygon fill="black" stroke="black" points="306.51,-108.83 314.18,-101.52 303.62,-102.46 306.51,-108.83"/>
</g>
<!-- aptos_coin&#45;&gt;string -->
<g id="edge97" class="edge">
<title>aptos_coin&#45;&gt;string</title>
<path fill="none" stroke="black" d="M1074.67,-590.38C941.49,-582.07 590,-550.7 590,-451 590,-451 590,-451 590,-305 590,-265 597.5,-219.21 603.08,-190.69"/>
<polygon fill="black" stroke="black" points="606.7,-191.45 605.25,-180.95 599.83,-190.06 606.7,-191.45"/>
</g>
<!-- aptos_coin&#45;&gt;signer -->
<g id="edge98" class="edge">
<title>aptos_coin&#45;&gt;signer</title>
<path fill="none" stroke="black" d="M1174.91,-589.95C1267.61,-583.83 1472.42,-568.17 1643,-540 1713.63,-528.33 1729.85,-518.27 1800,-504 2068.51,-449.36 2179.1,-548.14 2407,-396 2446.07,-369.92 2464,-353.97 2464,-307 2464,-307 2464,-307 2464,-233 2464,-183 2422.49,-137.65 2393.78,-112.26"/>
<polygon fill="black" stroke="black" points="2396.57,-109.19 2386.7,-105.34 2392.02,-114.51 2396.57,-109.19"/>
</g>
<!-- aptos_coin&#45;&gt;coin -->
<g id="edge101" class="edge">
<title>aptos_coin&#45;&gt;coin</title>
<path fill="none" stroke="black" d="M1099.9,-577.98C1081.4,-566.92 1056.21,-551.84 1036.88,-540.28"/>
<polygon fill="black" stroke="black" points="1039.02,-536.88 1028.64,-534.75 1035.43,-542.89 1039.02,-536.88"/>
</g>
<!-- aptos_coin&#45;&gt;error -->
<g id="edge99" class="edge">
<title>aptos_coin&#45;&gt;error</title>
<path fill="none" stroke="black" d="M1130.85,-575.72C1155.99,-501.49 1254.92,-209.35 1285.77,-118.27"/>
<polygon fill="black" stroke="black" points="1289.37,-119.54 1289.26,-108.95 1282.74,-117.3 1289.37,-119.54"/>
</g>
<!-- aptos_coin&#45;&gt;system_addresses -->
<g id="edge100" class="edge">
<title>aptos_coin&#45;&gt;system_addresses</title>
<path fill="none" stroke="black" d="M1150.89,-578.3C1198.81,-549.7 1301.25,-481.77 1354,-396 1365.39,-377.47 1370.89,-353.37 1373.54,-334.92"/>
<polygon fill="black" stroke="black" points="1377.11,-335.61 1374.85,-325.26 1370.16,-334.76 1377.11,-335.61"/>
</g>
<!-- resource_account&#45;&gt;account -->
<g id="edge103" class="edge">
<title>resource_account&#45;&gt;account</title>
<path fill="none" stroke="black" d="M1598.02,-506.15C1629.01,-494.36 1672.17,-477.94 1703.33,-466.09"/>
<polygon fill="black" stroke="black" points="1704.3,-469.09 1712.41,-462.26 1701.81,-462.54 1704.3,-469.09"/>
</g>
<!-- resource_account&#45;&gt;bcs -->
<g id="edge102" class="edge">
<title>resource_account&#45;&gt;bcs</title>
<path fill="none" stroke="black" d="M1616.53,-509.98C1775.21,-479.58 2207.4,-396.72 2208,-396 2265.12,-326.83 2163.08,-226 2113.16,-183.3"/>
<polygon fill="black" stroke="black" points="2115.68,-180.01 2105.77,-176.26 2111.18,-185.37 2115.68,-180.01"/>
</g>
<!-- timestamp -->
<g id="node31" class="node">
<title>timestamp</title>
<ellipse fill="none" stroke="black" cx="1266" cy="-378" rx="50.33" ry="18"/>
<text text-anchor="middle" x="1266" y="-372.95" font-family="Times,serif" font-size="14.00">timestamp</text>
</g>
<!-- resource_account&#45;&gt;timestamp -->
<g id="edge104" class="edge">
<title>resource_account&#45;&gt;timestamp</title>
<path fill="none" stroke="black" d="M1526.81,-505.4C1472.56,-479.11 1363.17,-426.09 1304.79,-397.8"/>
<polygon fill="black" stroke="black" points="1306.71,-394.36 1296.19,-393.14 1303.66,-400.66 1306.71,-394.36"/>
</g>
<!-- timestamp&#45;&gt;error -->
<g id="edge105" class="edge">
<title>timestamp&#45;&gt;error</title>
<path fill="none" stroke="black" d="M1267.77,-359.54C1272.64,-311.56 1286.24,-177.39 1292.17,-118.88"/>
<polygon fill="black" stroke="black" points="1295.73,-119.53 1293.25,-109.23 1288.76,-118.83 1295.73,-119.53"/>
</g>
<!-- timestamp&#45;&gt;system_addresses -->
<g id="edge106" class="edge">
<title>timestamp&#45;&gt;system_addresses</title>
<path fill="none" stroke="black" d="M1289.87,-361.81C1304.9,-352.24 1324.57,-339.73 1341.31,-329.08"/>
<polygon fill="black" stroke="black" points="1342.7,-331.7 1349.26,-323.38 1338.94,-325.8 1342.7,-331.7"/>
</g>
</g>
</svg>
