<?xml version="1.0" encoding="UTF-8" standalone="no"?>
<!DOCTYPE svg PUBLIC "-//W3C//DTD SVG 1.1//EN"
 "http://www.w3.org/Graphics/SVG/1.1/DTD/svg11.dtd">
<!-- Generated by graphviz version 9.0.0 (20230911.1827)
 -->
<!-- Title: G Pages: 1 -->
<svg width="2624pt" height="836pt"
 viewBox="0.00 0.00 2624.00 836.00" xmlns="http://www.w3.org/2000/svg" xmlns:xlink="http://www.w3.org/1999/xlink">
<g id="graph0" class="graph" transform="scale(1 1) rotate(0) translate(4 832)">
<title>G</title>
<polygon fill="white" stroke="none" points="-4,4 -4,-832 2620,-832 2620,4 -4,4"/>
<!-- user -->
<g id="node1" class="node">
<title>user</title>
<ellipse fill="none" stroke="black" cx="1475" cy="-810" rx="27" ry="18"/>
<text text-anchor="middle" x="1475" y="-804.95" font-family="Times,serif" font-size="14.00">user</text>
</g>
<!-- vector -->
<g id="node2" class="node">
<title>vector</title>
<ellipse fill="none" stroke="black" cx="794" cy="-18" rx="33.95" ry="18"/>
<text text-anchor="middle" x="794" y="-12.95" font-family="Times,serif" font-size="14.00">vector</text>
</g>
<!-- user&#45;&gt;vector -->
<g id="edge1" class="edge">
<title>user&#45;&gt;vector</title>
<path fill="none" stroke="black" d="M1502.1,-808.43C1653.13,-805.15 2387.57,-787.65 2483,-756 2550.51,-733.61 2616,-738.12 2616,-667 2616,-667 2616,-667 2616,-161 2616,-60.86 2506.74,-93.8 2409,-72 2252.41,-37.08 1086.15,-22.25 839.67,-19.49"/>
<polygon fill="black" stroke="black" points="839.86,-15.99 829.82,-19.38 839.78,-22.99 839.86,-15.99"/>
</g>
<!-- option -->
<g id="node3" class="node">
<title>option</title>
<ellipse fill="none" stroke="black" cx="342" cy="-90" rx="34.46" ry="18"/>
<text text-anchor="middle" x="342" y="-84.95" font-family="Times,serif" font-size="14.00">option</text>
</g>
<!-- user&#45;&gt;option -->
<g id="edge2" class="edge">
<title>user&#45;&gt;option</title>
<path fill="none" stroke="black" d="M1447.67,-808.96C1266.35,-808.59 240.46,-804.34 111,-756 51.76,-733.88 0,-730.23 0,-667 0,-667 0,-667 0,-233 0,-178.91 35.82,-170.45 83,-144 150.69,-106.04 241.96,-95.1 296.12,-92.05"/>
<polygon fill="black" stroke="black" points="296.09,-95.56 305.91,-91.58 295.75,-88.57 296.09,-95.56"/>
</g>
<!-- string -->
<g id="node4" class="node">
<title>string</title>
<ellipse fill="none" stroke="black" cx="609" cy="-162" rx="31.9" ry="18"/>
<text text-anchor="middle" x="609" y="-156.95" font-family="Times,serif" font-size="14.00">string</text>
</g>
<!-- user&#45;&gt;string -->
<g id="edge3" class="edge">
<title>user&#45;&gt;string</title>
<path fill="none" stroke="black" d="M1447.67,-809.03C1258.56,-808.88 152,-802.21 152,-667 152,-667 152,-667 152,-449 152,-254.42 453.38,-187.26 566.65,-168.89"/>
<polygon fill="black" stroke="black" points="567.12,-172.36 576.45,-167.35 566.03,-165.44 567.12,-172.36"/>
</g>
<!-- signer -->
<g id="node5" class="node">
<title>signer</title>
<ellipse fill="none" stroke="black" cx="2367" cy="-90" rx="33.44" ry="18"/>
<text text-anchor="middle" x="2367" y="-84.95" font-family="Times,serif" font-size="14.00">signer</text>
</g>
<!-- user&#45;&gt;signer -->
<g id="edge4" class="edge">
<title>user&#45;&gt;signer</title>
<path fill="none" stroke="black" d="M1502.29,-808.74C1634.38,-807.28 2208.12,-798.56 2381,-756 2474.29,-733.03 2578,-763.08 2578,-667 2578,-667 2578,-667 2578,-233 2578,-152.36 2470.61,-114.51 2409.06,-99.43"/>
<polygon fill="black" stroke="black" points="2410.14,-96.09 2399.61,-97.22 2408.55,-102.91 2410.14,-96.09"/>
</g>
<!-- type_info -->
<g id="node6" class="node">
<title>type_info</title>
<ellipse fill="none" stroke="black" cx="1594" cy="-234" rx="46.23" ry="18"/>
<text text-anchor="middle" x="1594" y="-228.95" font-family="Times,serif" font-size="14.00">type_info</text>
</g>
<!-- user&#45;&gt;type_info -->
<g id="edge5" class="edge">
<title>user&#45;&gt;type_info</title>
<path fill="none" stroke="black" d="M1502.12,-809.23C1628.77,-809.61 2156,-803.02 2156,-667 2156,-667 2156,-667 2156,-449 2156,-402.03 2139.18,-384.33 2099,-360 1943.3,-265.69 1857.57,-397.43 1691,-324 1659.3,-310.03 1631.14,-281.4 1613.43,-260.37"/>
<polygon fill="black" stroke="black" points="1616.27,-258.32 1607.24,-252.78 1610.85,-262.74 1616.27,-258.32"/>
</g>
<!-- table -->
<g id="node7" class="node">
<title>table</title>
<ellipse fill="none" stroke="black" cx="495" cy="-306" rx="28.83" ry="18"/>
<text text-anchor="middle" x="495" y="-300.95" font-family="Times,serif" font-size="14.00">table</text>
</g>
<!-- user&#45;&gt;table -->
<g id="edge6" class="edge">
<title>user&#45;&gt;table</title>
<path fill="none" stroke="black" d="M1447.66,-808.83C1261.91,-807.55 191.05,-798.34 138,-756 105.98,-730.45 114,-707.97 114,-667 114,-667 114,-667 114,-521 114,-365.72 357.55,-321.94 455.2,-310.63"/>
<polygon fill="black" stroke="black" points="455.3,-314.14 464.86,-309.57 454.54,-307.18 455.3,-314.14"/>
</g>
<!-- guid -->
<g id="node8" class="node">
<title>guid</title>
<ellipse fill="none" stroke="black" cx="2325" cy="-306" rx="27.3" ry="18"/>
<text text-anchor="middle" x="2325" y="-300.95" font-family="Times,serif" font-size="14.00">guid</text>
</g>
<!-- user&#45;&gt;guid -->
<g id="edge7" class="edge">
<title>user&#45;&gt;guid</title>
<path fill="none" stroke="black" d="M1502.16,-808.41C1624.03,-805.6 2120.94,-792.09 2272,-756 2370.2,-732.54 2481,-767.96 2481,-667 2481,-667 2481,-667 2481,-521 2481,-442.25 2458.57,-419.52 2407,-360 2393.21,-344.09 2373.5,-331.14 2356.86,-322.02"/>
<polygon fill="black" stroke="black" points="2358.79,-319.09 2348.31,-317.55 2355.55,-325.29 2358.79,-319.09"/>
</g>
<!-- event -->
<g id="node9" class="node">
<title>event</title>
<ellipse fill="none" stroke="black" cx="2367" cy="-378" rx="30.88" ry="18"/>
<text text-anchor="middle" x="2367" y="-372.95" font-family="Times,serif" font-size="14.00">event</text>
</g>
<!-- user&#45;&gt;event -->
<g id="edge8" class="edge">
<title>user&#45;&gt;event</title>
<path fill="none" stroke="black" d="M1502.01,-808.19C1613.74,-804.66 2040.01,-789.22 2170,-756 2263.08,-732.21 2367,-763.08 2367,-667 2367,-667 2367,-667 2367,-521 2367,-481.74 2367,-436.38 2367,-407.69"/>
<polygon fill="black" stroke="black" points="2370.5,-408 2367,-398 2363.5,-408 2370.5,-408"/>
</g>
<!-- account -->
<g id="node10" class="node">
<title>account</title>
<ellipse fill="none" stroke="black" cx="1743" cy="-450" rx="39.58" ry="18"/>
<text text-anchor="middle" x="1743" y="-444.95" font-family="Times,serif" font-size="14.00">account</text>
</g>
<!-- user&#45;&gt;account -->
<g id="edge9" class="edge">
<title>user&#45;&gt;account</title>
<path fill="none" stroke="black" d="M1501.21,-804.98C1586.71,-791.13 1852,-742.1 1852,-667 1852,-667 1852,-667 1852,-593 1852,-541.38 1806.11,-496.96 1773.88,-472.14"/>
<polygon fill="black" stroke="black" points="1776.12,-469.44 1766.01,-466.27 1771.94,-475.05 1776.12,-469.44"/>
</g>
<!-- coin -->
<g id="node11" class="node">
<title>coin</title>
<ellipse fill="none" stroke="black" cx="1008" cy="-522" rx="27" ry="18"/>
<text text-anchor="middle" x="1008" y="-516.95" font-family="Times,serif" font-size="14.00">coin</text>
</g>
<!-- user&#45;&gt;coin -->
<g id="edge10" class="edge">
<title>user&#45;&gt;coin</title>
<path fill="none" stroke="black" d="M1447.63,-808.71C1367.61,-807.36 1136.06,-799.67 1077,-756 1012.44,-708.26 1005.74,-602.74 1006.55,-551.72"/>
<polygon fill="black" stroke="black" points="1010.04,-551.89 1006.83,-541.79 1003.05,-551.69 1010.04,-551.89"/>
</g>
<!-- tablist -->
<g id="node12" class="node">
<title>tablist</title>
<ellipse fill="none" stroke="black" cx="365" cy="-594" rx="33.44" ry="18"/>
<text text-anchor="middle" x="365" y="-588.95" font-family="Times,serif" font-size="14.00">tablist</text>
</g>
<!-- user&#45;&gt;tablist -->
<g id="edge11" class="edge">
<title>user&#45;&gt;tablist</title>
<path fill="none" stroke="black" d="M1447.7,-807.85C1286.01,-800.76 458.4,-760.91 379,-684 363.18,-668.68 360.53,-643.29 361.34,-623.55"/>
<polygon fill="black" stroke="black" points="364.83,-623.87 362.1,-613.63 357.85,-623.34 364.83,-623.87"/>
</g>
<!-- registry -->
<g id="node13" class="node">
<title>registry</title>
<ellipse fill="none" stroke="black" cx="1125" cy="-738" rx="39.07" ry="18"/>
<text text-anchor="middle" x="1125" y="-732.95" font-family="Times,serif" font-size="14.00">registry</text>
</g>
<!-- user&#45;&gt;registry -->
<g id="edge12" class="edge">
<title>user&#45;&gt;registry</title>
<path fill="none" stroke="black" d="M1449.26,-803.85C1390.55,-792.11 1246.04,-763.21 1171.36,-748.27"/>
<polygon fill="black" stroke="black" points="1172.41,-744.91 1161.91,-746.38 1171.03,-751.78 1172.41,-744.91"/>
</g>
<!-- option&#45;&gt;vector -->
<g id="edge13" class="edge">
<title>option&#45;&gt;vector</title>
<path fill="none" stroke="black" d="M374.87,-83.91C454.96,-71.51 660.19,-39.72 750.38,-25.76"/>
<polygon fill="black" stroke="black" points="750.71,-29.25 760.06,-24.26 749.64,-22.33 750.71,-29.25"/>
</g>
<!-- string&#45;&gt;vector -->
<g id="edge14" class="edge">
<title>string&#45;&gt;vector</title>
<path fill="none" stroke="black" d="M627.41,-146.87C660.02,-121.84 728.07,-69.61 766.34,-40.23"/>
<polygon fill="black" stroke="black" points="768.38,-43.08 774.18,-34.21 764.12,-37.52 768.38,-43.08"/>
</g>
<!-- string&#45;&gt;option -->
<g id="edge15" class="edge">
<title>string&#45;&gt;option</title>
<path fill="none" stroke="black" d="M580.43,-153.51C533.08,-141.1 438.16,-116.21 383.44,-101.86"/>
<polygon fill="black" stroke="black" points="384.43,-98.51 373.87,-99.36 382.66,-105.28 384.43,-98.51"/>
</g>
<!-- type_info&#45;&gt;string -->
<g id="edge16" class="edge">
<title>type_info&#45;&gt;string</title>
<path fill="none" stroke="black" d="M1548.79,-229.79C1383.49,-218.04 813.15,-177.51 651.82,-166.04"/>
<polygon fill="black" stroke="black" points="652.22,-162.56 642,-165.35 651.73,-169.55 652.22,-162.56"/>
</g>
<!-- error -->
<g id="node14" class="node">
<title>error</title>
<ellipse fill="none" stroke="black" cx="1295" cy="-90" rx="28.83" ry="18"/>
<text text-anchor="middle" x="1295" y="-84.95" font-family="Times,serif" font-size="14.00">error</text>
</g>
<!-- type_info&#45;&gt;error -->
<g id="edge17" class="edge">
<title>type_info&#45;&gt;error</title>
<path fill="none" stroke="black" d="M1587.26,-216.01C1578.26,-195.62 1560.34,-161.94 1534,-144 1473.51,-102.8 1386.26,-93.05 1335.62,-91.08"/>
<polygon fill="black" stroke="black" points="1335.79,-87.58 1325.69,-90.78 1335.59,-94.58 1335.79,-87.58"/>
</g>
<!-- features -->
<g id="node15" class="node">
<title>features</title>
<ellipse fill="none" stroke="black" cx="1848" cy="-162" rx="40.09" ry="18"/>
<text text-anchor="middle" x="1848" y="-156.95" font-family="Times,serif" font-size="14.00">features</text>
</g>
<!-- type_info&#45;&gt;features -->
<g id="edge18" class="edge">
<title>type_info&#45;&gt;features</title>
<path fill="none" stroke="black" d="M1630.93,-222.82C1676.76,-210.19 1754.82,-188.68 1803.78,-175.19"/>
<polygon fill="black" stroke="black" points="1804.5,-178.62 1813.21,-172.59 1802.64,-171.87 1804.5,-178.62"/>
</g>
<!-- bcs -->
<g id="node16" class="node">
<title>bcs</title>
<ellipse fill="none" stroke="black" cx="2088" cy="-162" rx="27" ry="18"/>
<text text-anchor="middle" x="2088" y="-156.95" font-family="Times,serif" font-size="14.00">bcs</text>
</g>
<!-- type_info&#45;&gt;bcs -->
<g id="edge19" class="edge">
<title>type_info&#45;&gt;bcs</title>
<path fill="none" stroke="black" d="M1636.98,-226.91C1732.23,-213.41 1959.8,-181.17 2050.12,-168.37"/>
<polygon fill="black" stroke="black" points="2050.52,-171.85 2059.93,-166.98 2049.54,-164.92 2050.52,-171.85"/>
</g>
<!-- event&#45;&gt;guid -->
<g id="edge21" class="edge">
<title>event&#45;&gt;guid</title>
<path fill="none" stroke="black" d="M2357.26,-360.76C2352.28,-352.46 2346.09,-342.15 2340.48,-332.79"/>
<polygon fill="black" stroke="black" points="2343.61,-331.22 2335.47,-324.45 2337.61,-334.82 2343.61,-331.22"/>
</g>
<!-- event&#45;&gt;bcs -->
<g id="edge20" class="edge">
<title>event&#45;&gt;bcs</title>
<path fill="none" stroke="black" d="M2370.19,-359.91C2372.81,-340.93 2374.2,-310.06 2361,-288 2310.95,-204.38 2188.41,-176.23 2125.94,-167.13"/>
<polygon fill="black" stroke="black" points="2126.53,-163.67 2116.15,-165.8 2125.59,-170.61 2126.53,-163.67"/>
</g>
<!-- account&#45;&gt;vector -->
<g id="edge22" class="edge">
<title>account&#45;&gt;vector</title>
<path fill="none" stroke="black" d="M1781.51,-445.34C1818.93,-440.02 1875.6,-427.11 1914,-396 1977.7,-344.4 2004,-316.98 2004,-235 2004,-235 2004,-235 2004,-161 2004,-41.45 1060.22,-22.31 839.69,-19.47"/>
<polygon fill="black" stroke="black" points="839.82,-15.97 829.78,-19.34 839.73,-22.97 839.82,-15.97"/>
</g>
<!-- account&#45;&gt;option -->
<g id="edge23" class="edge">
<title>account&#45;&gt;option</title>
<path fill="none" stroke="black" d="M1703.14,-449.71C1612.96,-450.33 1387.14,-446.24 1207,-396 945.28,-323 911.47,-217.9 650,-144 558.27,-118.07 447.39,-102.77 386.85,-95.72"/>
<polygon fill="black" stroke="black" points="387.62,-92.29 377.29,-94.63 386.83,-99.24 387.62,-92.29"/>
</g>
<!-- account&#45;&gt;signer -->
<g id="edge24" class="edge">
<title>account&#45;&gt;signer</title>
<path fill="none" stroke="black" d="M1782.56,-447.17C1867.74,-442.64 2065.42,-428.82 2123,-396 2166.96,-370.95 2194,-357.6 2194,-307 2194,-307 2194,-307 2194,-233 2194,-164.22 2276.71,-122.66 2327.75,-103.57"/>
<polygon fill="black" stroke="black" points="2328.78,-106.92 2337.01,-100.24 2326.41,-100.33 2328.78,-106.92"/>
</g>
<!-- account&#45;&gt;type_info -->
<g id="edge27" class="edge">
<title>account&#45;&gt;type_info</title>
<path fill="none" stroke="black" d="M1731.56,-432.56C1705.83,-395.62 1643.28,-305.77 1612.18,-261.11"/>
<polygon fill="black" stroke="black" points="1615.14,-259.24 1606.55,-253.03 1609.4,-263.24 1615.14,-259.24"/>
</g>
<!-- account&#45;&gt;table -->
<g id="edge28" class="edge">
<title>account&#45;&gt;table</title>
<path fill="none" stroke="black" d="M1703.34,-447.98C1547.51,-443.79 977.15,-426.66 799,-396 699.37,-378.85 586.06,-340.44 530.1,-320.14"/>
<polygon fill="black" stroke="black" points="531.39,-316.89 520.8,-316.74 528.98,-323.46 531.39,-316.89"/>
</g>
<!-- account&#45;&gt;guid -->
<g id="edge33" class="edge">
<title>account&#45;&gt;guid</title>
<path fill="none" stroke="black" d="M1782.52,-447.19C1880.25,-442.28 2130.91,-426.96 2208,-396 2245.42,-380.97 2281.23,-350.58 2303.15,-329.53"/>
<polygon fill="black" stroke="black" points="2305.36,-332.26 2310.04,-322.75 2300.45,-327.27 2305.36,-332.26"/>
</g>
<!-- account&#45;&gt;event -->
<g id="edge35" class="edge">
<title>account&#45;&gt;event</title>
<path fill="none" stroke="black" d="M1782.21,-446.57C1871.59,-440.72 2097.14,-424.21 2284,-396 2298.32,-393.84 2313.9,-390.83 2327.65,-387.94"/>
<polygon fill="black" stroke="black" points="2328.18,-391.4 2337.22,-385.88 2326.71,-384.56 2328.18,-391.4"/>
</g>
<!-- account&#45;&gt;error -->
<g id="edge25" class="edge">
<title>account&#45;&gt;error</title>
<path fill="none" stroke="black" d="M1724.04,-433.85C1653,-377.08 1402.53,-176.93 1320.92,-111.71"/>
<polygon fill="black" stroke="black" points="1323.44,-109.24 1313.44,-105.73 1319.07,-114.71 1323.44,-109.24"/>
</g>
<!-- account&#45;&gt;bcs -->
<g id="edge26" class="edge">
<title>account&#45;&gt;bcs</title>
<path fill="none" stroke="black" d="M1783,-449.29C1867.25,-448.95 2058.55,-442.91 2099,-396 2149.19,-337.79 2118.92,-237.83 2099.9,-190.02"/>
<polygon fill="black" stroke="black" points="2103.22,-188.88 2096.17,-180.97 2096.75,-191.55 2103.22,-188.88"/>
</g>
<!-- system_addresses -->
<g id="node17" class="node">
<title>system_addresses</title>
<ellipse fill="none" stroke="black" cx="1376" cy="-306" rx="76.94" ry="18"/>
<text text-anchor="middle" x="1376" y="-300.95" font-family="Times,serif" font-size="14.00">system_addresses</text>
</g>
<!-- account&#45;&gt;system_addresses -->
<g id="edge29" class="edge">
<title>account&#45;&gt;system_addresses</title>
<path fill="none" stroke="black" d="M1710.81,-439.1C1678.86,-429.04 1628.61,-412.62 1586,-396 1549.3,-381.68 1541.22,-375.49 1505,-360 1478.33,-348.6 1448.38,-336.26 1424.06,-326.37"/>
<polygon fill="black" stroke="black" points="1425.64,-323.23 1415.06,-322.71 1423.01,-329.72 1425.64,-323.23"/>
</g>
<!-- hash -->
<g id="node18" class="node">
<title>hash</title>
<ellipse fill="none" stroke="black" cx="1946" cy="-234" rx="27.81" ry="18"/>
<text text-anchor="middle" x="1946" y="-228.95" font-family="Times,serif" font-size="14.00">hash</text>
</g>
<!-- account&#45;&gt;hash -->
<g id="edge30" class="edge">
<title>account&#45;&gt;hash</title>
<path fill="none" stroke="black" d="M1779.23,-442.32C1810.06,-435.15 1854.12,-421.21 1885,-396 1925.36,-363.05 1939.04,-300.34 1943.66,-263.66"/>
<polygon fill="black" stroke="black" points="1947.13,-264.13 1944.74,-253.81 1940.17,-263.37 1947.13,-264.13"/>
</g>
<!-- ed25519 -->
<g id="node19" class="node">
<title>ed25519</title>
<ellipse fill="none" stroke="black" cx="1743" cy="-306" rx="42.65" ry="18"/>
<text text-anchor="middle" x="1743" y="-300.95" font-family="Times,serif" font-size="14.00">ed25519</text>
</g>
<!-- account&#45;&gt;ed25519 -->
<g id="edge31" class="edge">
<title>account&#45;&gt;ed25519</title>
<path fill="none" stroke="black" d="M1738.94,-431.93C1736.69,-421.6 1734.13,-408.12 1733,-396 1731.51,-380.07 1731.51,-375.93 1733,-360 1733.76,-351.86 1735.17,-343.1 1736.69,-335.1"/>
<polygon fill="black" stroke="black" points="1740.07,-336.05 1738.64,-325.55 1733.21,-334.65 1740.07,-336.05"/>
</g>
<!-- multi_ed25519 -->
<g id="node20" class="node">
<title>multi_ed25519</title>
<ellipse fill="none" stroke="black" cx="1809" cy="-378" rx="67.22" ry="18"/>
<text text-anchor="middle" x="1809" y="-372.95" font-family="Times,serif" font-size="14.00">multi_ed25519</text>
</g>
<!-- account&#45;&gt;multi_ed25519 -->
<g id="edge32" class="edge">
<title>account&#45;&gt;multi_ed25519</title>
<path fill="none" stroke="black" d="M1757.98,-433.12C1766.1,-424.51 1776.31,-413.67 1785.47,-403.96"/>
<polygon fill="black" stroke="black" points="1787.81,-406.58 1792.12,-396.9 1782.72,-401.77 1787.81,-406.58"/>
</g>
<!-- from_bcs -->
<g id="node21" class="node">
<title>from_bcs</title>
<ellipse fill="none" stroke="black" cx="775" cy="-234" rx="46.23" ry="18"/>
<text text-anchor="middle" x="775" y="-228.95" font-family="Times,serif" font-size="14.00">from_bcs</text>
</g>
<!-- account&#45;&gt;from_bcs -->
<g id="edge34" class="edge">
<title>account&#45;&gt;from_bcs</title>
<path fill="none" stroke="black" d="M1703.09,-448.55C1613.3,-446.79 1388.97,-438.16 1207,-396 1056.88,-361.22 888.21,-287.69 813.81,-253.37"/>
<polygon fill="black" stroke="black" points="815.45,-250.27 804.9,-249.24 812.5,-256.62 815.45,-250.27"/>
</g>
<!-- create_signer -->
<g id="node22" class="node">
<title>create_signer</title>
<ellipse fill="none" stroke="black" cx="2030" cy="-378" rx="60.05" ry="18"/>
<text text-anchor="middle" x="2030" y="-372.95" font-family="Times,serif" font-size="14.00">create_signer</text>
</g>
<!-- account&#45;&gt;create_signer -->
<g id="edge36" class="edge">
<title>account&#45;&gt;create_signer</title>
<path fill="none" stroke="black" d="M1777.33,-440.63C1825.98,-428.76 1915.52,-406.92 1973.89,-392.68"/>
<polygon fill="black" stroke="black" points="1974.42,-396.16 1983.3,-390.39 1972.76,-389.36 1974.42,-396.16"/>
</g>
<!-- chain_id -->
<g id="node23" class="node">
<title>chain_id</title>
<ellipse fill="none" stroke="black" cx="1453" cy="-378" rx="42.65" ry="18"/>
<text text-anchor="middle" x="1453" y="-372.95" font-family="Times,serif" font-size="14.00">chain_id</text>
</g>
<!-- account&#45;&gt;chain_id -->
<g id="edge37" class="edge">
<title>account&#45;&gt;chain_id</title>
<path fill="none" stroke="black" d="M1707.3,-441.65C1661.42,-432.02 1579.42,-414.23 1510,-396 1505.97,-394.94 1501.79,-393.79 1497.61,-392.61"/>
<polygon fill="black" stroke="black" points="1498.69,-389.28 1488.11,-389.86 1496.74,-396 1498.69,-389.28"/>
</g>
<!-- coin&#45;&gt;option -->
<g id="edge38" class="edge">
<title>coin&#45;&gt;option</title>
<path fill="none" stroke="black" d="M981.13,-518.68C870.09,-508.71 447.72,-466.72 337,-396 294.36,-368.76 266,-357.6 266,-307 266,-307 266,-307 266,-233 266,-187.23 297.08,-141.93 319.49,-115.22"/>
<polygon fill="black" stroke="black" points="322.08,-117.56 325.99,-107.72 316.8,-112.98 322.08,-117.56"/>
</g>
<!-- coin&#45;&gt;string -->
<g id="edge39" class="edge">
<title>coin&#45;&gt;string</title>
<path fill="none" stroke="black" d="M980.87,-520.12C908.87,-517.28 715.17,-506.2 666,-468 632.04,-441.61 628,-422.01 628,-379 628,-379 628,-379 628,-305 628,-265.17 620.57,-219.61 615,-191.07"/>
<polygon fill="black" stroke="black" points="618.46,-190.54 613.05,-181.43 611.6,-191.93 618.46,-190.54"/>
</g>
<!-- coin&#45;&gt;signer -->
<g id="edge40" class="edge">
<title>coin&#45;&gt;signer</title>
<path fill="none" stroke="black" d="M1035.2,-520.38C1135.93,-517.84 1497.09,-506.43 1792,-468 1958.56,-446.29 2023.1,-488.96 2163,-396 2268.92,-325.62 2333.7,-179.53 2357.09,-118.61"/>
<polygon fill="black" stroke="black" points="2360.33,-119.95 2360.57,-109.35 2353.77,-117.49 2360.33,-119.95"/>
</g>
<!-- coin&#45;&gt;type_info -->
<g id="edge42" class="edge">
<title>coin&#45;&gt;type_info</title>
<path fill="none" stroke="black" d="M1020.83,-505.94C1057.77,-463.69 1169.44,-343.52 1290,-288 1370.17,-251.08 1473.05,-239.73 1536.22,-236.33"/>
<polygon fill="black" stroke="black" points="1536.2,-239.83 1546.02,-235.85 1535.86,-232.84 1536.2,-239.83"/>
</g>
<!-- coin&#45;&gt;event -->
<g id="edge44" class="edge">
<title>coin&#45;&gt;event</title>
<path fill="none" stroke="black" d="M1035.08,-520.02C1212.25,-513.59 2199.56,-477.37 2229,-468 2272.74,-454.08 2316.05,-422.46 2342.17,-400.92"/>
<polygon fill="black" stroke="black" points="2344.11,-403.86 2349.51,-394.74 2339.6,-398.5 2344.11,-403.86"/>
</g>
<!-- coin&#45;&gt;account -->
<g id="edge45" class="edge">
<title>coin&#45;&gt;account</title>
<path fill="none" stroke="black" d="M1034.59,-518.47C1142.73,-508.17 1550.5,-469.33 1693.26,-455.74"/>
<polygon fill="black" stroke="black" points="1693.53,-459.23 1703.16,-454.79 1692.87,-452.26 1693.53,-459.23"/>
</g>
<!-- coin&#45;&gt;error -->
<g id="edge41" class="edge">
<title>coin&#45;&gt;error</title>
<path fill="none" stroke="black" d="M1011.68,-503.91C1026.31,-437.5 1082.09,-197.61 1136,-144 1168.02,-112.16 1219.66,-99.44 1255.35,-94.37"/>
<polygon fill="black" stroke="black" points="1255.36,-97.9 1264.84,-93.17 1254.48,-90.95 1255.36,-97.9"/>
</g>
<!-- coin&#45;&gt;system_addresses -->
<g id="edge43" class="edge">
<title>coin&#45;&gt;system_addresses</title>
<path fill="none" stroke="black" d="M1034.02,-516.78C1092.36,-506.15 1235.51,-473.39 1325,-396 1343.92,-379.64 1357.43,-354.45 1365.77,-335.03"/>
<polygon fill="black" stroke="black" points="1369.01,-336.37 1369.52,-325.78 1362.52,-333.74 1369.01,-336.37"/>
</g>
<!-- aggregator -->
<g id="node24" class="node">
<title>aggregator</title>
<ellipse fill="none" stroke="black" cx="706" cy="-306" rx="50.33" ry="18"/>
<text text-anchor="middle" x="706" y="-300.95" font-family="Times,serif" font-size="14.00">aggregator</text>
</g>
<!-- coin&#45;&gt;aggregator -->
<g id="edge46" class="edge">
<title>coin&#45;&gt;aggregator</title>
<path fill="none" stroke="black" d="M980.7,-520.84C909.85,-519.78 722.98,-512.72 685,-468 653.08,-430.42 674.58,-369.04 691.41,-333.92"/>
<polygon fill="black" stroke="black" points="694.39,-335.78 695.73,-325.27 688.13,-332.65 694.39,-335.78"/>
</g>
<!-- aggregator_factory -->
<g id="node25" class="node">
<title>aggregator_factory</title>
<ellipse fill="none" stroke="black" cx="889" cy="-378" rx="81.04" ry="18"/>
<text text-anchor="middle" x="889" y="-372.95" font-family="Times,serif" font-size="14.00">aggregator_factory</text>
</g>
<!-- coin&#45;&gt;aggregator_factory -->
<g id="edge47" class="edge">
<title>coin&#45;&gt;aggregator_factory</title>
<path fill="none" stroke="black" d="M995.26,-505.8C974.94,-481.55 934.96,-433.84 910.25,-404.36"/>
<polygon fill="black" stroke="black" points="913.19,-402.41 904.08,-397 907.82,-406.91 913.19,-402.41"/>
</g>
<!-- optional_aggregator -->
<g id="node26" class="node">
<title>optional_aggregator</title>
<ellipse fill="none" stroke="black" cx="779" cy="-450" rx="85.13" ry="18"/>
<text text-anchor="middle" x="779" y="-444.95" font-family="Times,serif" font-size="14.00">optional_aggregator</text>
</g>
<!-- coin&#45;&gt;optional_aggregator -->
<g id="edge48" class="edge">
<title>coin&#45;&gt;optional_aggregator</title>
<path fill="none" stroke="black" d="M983.93,-513.64C949.3,-503.06 884.39,-483.22 836.87,-468.69"/>
<polygon fill="black" stroke="black" points="838.14,-465.42 827.55,-465.84 836.09,-472.11 838.14,-465.42"/>
</g>
<!-- tablist&#45;&gt;option -->
<g id="edge49" class="edge">
<title>tablist&#45;&gt;option</title>
<path fill="none" stroke="black" d="M341.39,-580.85C278.9,-546.84 114,-444.08 114,-307 114,-307 114,-307 114,-233 114,-147.04 232.22,-111.25 298.4,-97.94"/>
<polygon fill="black" stroke="black" points="298.68,-101.45 307.85,-96.14 297.37,-94.58 298.68,-101.45"/>
</g>
<!-- table_with_length -->
<g id="node27" class="node">
<title>table_with_length</title>
<ellipse fill="none" stroke="black" cx="447" cy="-378" rx="77.45" ry="18"/>
<text text-anchor="middle" x="447" y="-372.95" font-family="Times,serif" font-size="14.00">table_with_length</text>
</g>
<!-- tablist&#45;&gt;table_with_length -->
<g id="edge50" class="edge">
<title>tablist&#45;&gt;table_with_length</title>
<path fill="none" stroke="black" d="M371.43,-576.21C385.5,-539.51 419.08,-451.85 436.35,-406.79"/>
<polygon fill="black" stroke="black" points="439.52,-408.31 439.83,-397.72 432.98,-405.81 439.52,-408.31"/>
</g>
<!-- registry&#45;&gt;option -->
<g id="edge51" class="edge">
<title>registry&#45;&gt;option</title>
<path fill="none" stroke="black" d="M1085.85,-736.01C934.08,-731.94 389.5,-715.28 319,-684 150.52,-609.25 38,-563.32 38,-379 38,-379 38,-379 38,-305 38,-222.59 64.31,-193.77 130,-144 178.54,-107.23 249.57,-95.73 295.79,-92.27"/>
<polygon fill="black" stroke="black" points="296,-95.77 305.76,-91.64 295.55,-88.78 296,-95.77"/>
</g>
<!-- registry&#45;&gt;string -->
<g id="edge52" class="edge">
<title>registry&#45;&gt;string</title>
<path fill="none" stroke="black" d="M1088.89,-730.5C1001.69,-713.26 776.16,-659.28 632,-540 543.6,-466.86 565,-402.2 576,-288 579.13,-255.55 581.36,-247.43 590,-216 592.29,-207.67 595.26,-198.78 598.17,-190.7"/>
<polygon fill="black" stroke="black" points="601.43,-191.99 601.64,-181.39 594.87,-189.54 601.43,-191.99"/>
</g>
<!-- registry&#45;&gt;signer -->
<g id="edge53" class="edge">
<title>registry&#45;&gt;signer</title>
<path fill="none" stroke="black" d="M1164.43,-737.65C1270.05,-738.6 1567.68,-736.07 1808,-684 2165.65,-606.51 2540,-672.95 2540,-307 2540,-307 2540,-307 2540,-233 2540,-164.22 2457.29,-122.66 2406.25,-103.57"/>
<polygon fill="black" stroke="black" points="2407.59,-100.33 2396.99,-100.24 2405.22,-106.92 2407.59,-100.33"/>
</g>
<!-- registry&#45;&gt;type_info -->
<g id="edge54" class="edge">
<title>registry&#45;&gt;type_info</title>
<path fill="none" stroke="black" d="M1164.15,-736.86C1266.42,-734.07 1540.78,-710.37 1643,-540 1670.98,-493.36 1623.87,-329.18 1603.09,-262.98"/>
<polygon fill="black" stroke="black" points="1606.47,-262.07 1600.11,-253.6 1599.8,-264.19 1606.47,-262.07"/>
</g>
<!-- registry&#45;&gt;table -->
<g id="edge55" class="edge">
<title>registry&#45;&gt;table</title>
<path fill="none" stroke="black" d="M1085.74,-735.99C940.97,-732.03 442.21,-716.17 379,-684 332.9,-660.54 304,-646.73 304,-595 304,-595 304,-595 304,-449 304,-373.23 401.99,-333.15 457.6,-316.51"/>
<polygon fill="black" stroke="black" points="458.34,-319.94 466.99,-313.82 456.41,-313.21 458.34,-319.94"/>
</g>
<!-- registry&#45;&gt;event -->
<g id="edge56" class="edge">
<title>registry&#45;&gt;event</title>
<path fill="none" stroke="black" d="M1163.97,-735.5C1281.42,-730.7 1630.63,-714.19 1740,-684 1985.25,-616.3 2250.43,-454.18 2337.5,-398.31"/>
<polygon fill="black" stroke="black" points="2339.21,-401.37 2345.72,-393.01 2335.42,-395.49 2339.21,-401.37"/>
</g>
<!-- registry&#45;&gt;account -->
<g id="edge57" class="edge">
<title>registry&#45;&gt;account</title>
<path fill="none" stroke="black" d="M1164.17,-736.27C1289.45,-733.56 1674.5,-722.17 1714,-684 1769.51,-630.35 1758.76,-528.56 1749.41,-479.22"/>
<polygon fill="black" stroke="black" points="1752.88,-478.73 1747.46,-469.63 1746.02,-480.12 1752.88,-478.73"/>
</g>
<!-- registry&#45;&gt;coin -->
<g id="edge58" class="edge">
<title>registry&#45;&gt;coin</title>
<path fill="none" stroke="black" d="M1105.4,-722.18C1093.42,-712.36 1078.44,-698.63 1068,-684 1038.39,-642.52 1021.58,-584.69 1013.67,-550.82"/>
<polygon fill="black" stroke="black" points="1017.16,-550.38 1011.57,-541.38 1010.32,-551.9 1017.16,-550.38"/>
</g>
<!-- registry&#45;&gt;tablist -->
<g id="edge59" class="edge">
<title>registry&#45;&gt;tablist</title>
<path fill="none" stroke="black" d="M1085.79,-736.28C944.75,-733.4 468.54,-721.01 412,-684 390.88,-670.18 378.63,-643.62 371.96,-623.09"/>
<polygon fill="black" stroke="black" points="375.35,-622.2 369.17,-613.59 368.63,-624.18 375.35,-622.2"/>
</g>
<!-- incentives -->
<g id="node28" class="node">
<title>incentives</title>
<ellipse fill="none" stroke="black" cx="1125" cy="-666" rx="48.28" ry="18"/>
<text text-anchor="middle" x="1125" y="-660.95" font-family="Times,serif" font-size="14.00">incentives</text>
</g>
<!-- registry&#45;&gt;incentives -->
<g id="edge60" class="edge">
<title>registry&#45;&gt;incentives</title>
<path fill="none" stroke="black" d="M1125,-719.7C1125,-712.41 1125,-703.73 1125,-695.54"/>
<polygon fill="black" stroke="black" points="1128.5,-695.62 1125,-685.62 1121.5,-695.62 1128.5,-695.62"/>
</g>
<!-- features&#45;&gt;signer -->
<g id="edge61" class="edge">
<title>features&#45;&gt;signer</title>
<path fill="none" stroke="black" d="M1886.16,-155.85C1980.4,-143.14 2223.7,-110.33 2323.4,-96.88"/>
<polygon fill="black" stroke="black" points="2323.61,-100.38 2333.05,-95.58 2322.67,-93.45 2323.61,-100.38"/>
</g>
<!-- features&#45;&gt;error -->
<g id="edge62" class="edge">
<title>features&#45;&gt;error</title>
<path fill="none" stroke="black" d="M1816.34,-150.61C1807.86,-148.14 1798.65,-145.72 1790,-144 1623.18,-110.9 1420.34,-97.37 1335.43,-92.88"/>
<polygon fill="black" stroke="black" points="1335.68,-89.39 1325.52,-92.37 1335.33,-96.38 1335.68,-89.39"/>
</g>
<!-- system_addresses&#45;&gt;signer -->
<g id="edge63" class="edge">
<title>system_addresses&#45;&gt;signer</title>
<path fill="none" stroke="black" d="M1401.63,-288.58C1432.99,-269.08 1488.2,-236.58 1539,-216 1820.57,-101.91 2194.19,-90.79 2321.95,-90.56"/>
<polygon fill="black" stroke="black" points="2321.67,-94.05 2331.68,-90.56 2321.68,-87.05 2321.67,-94.05"/>
</g>
<!-- system_addresses&#45;&gt;error -->
<g id="edge64" class="edge">
<title>system_addresses&#45;&gt;error</title>
<path fill="none" stroke="black" d="M1369.51,-287.85C1355.52,-250.9 1322.44,-163.49 1305.46,-118.62"/>
<polygon fill="black" stroke="black" points="1308.76,-117.46 1301.95,-109.35 1302.21,-119.94 1308.76,-117.46"/>
</g>
<!-- ed25519&#45;&gt;option -->
<g id="edge65" class="edge">
<title>ed25519&#45;&gt;option</title>
<path fill="none" stroke="black" d="M1724.09,-289.53C1711.79,-279.23 1695.57,-265.21 1682,-252 1666.45,-236.86 1668.38,-225.78 1649,-216 1421.33,-101.05 592.98,-91.55 388.08,-90.98"/>
<polygon fill="black" stroke="black" points="388.38,-87.48 378.37,-90.96 388.36,-94.48 388.38,-87.48"/>
</g>
<!-- ed25519&#45;&gt;type_info -->
<g id="edge68" class="edge">
<title>ed25519&#45;&gt;type_info</title>
<path fill="none" stroke="black" d="M1715.32,-292C1692.17,-281.12 1658.87,-265.48 1633.02,-253.33"/>
<polygon fill="black" stroke="black" points="1634.71,-250.26 1624.17,-249.17 1631.73,-256.59 1634.71,-250.26"/>
</g>
<!-- ed25519&#45;&gt;error -->
<g id="edge66" class="edge">
<title>ed25519&#45;&gt;error</title>
<path fill="none" stroke="black" d="M1734.22,-288.03C1723.71,-268.87 1704.66,-237.57 1682,-216 1637.78,-173.9 1621.86,-166.24 1565,-144 1486.83,-113.43 1388.77,-99.86 1334.95,-94.35"/>
<polygon fill="black" stroke="black" points="1335.32,-90.87 1325.03,-93.38 1334.64,-97.84 1335.32,-90.87"/>
</g>
<!-- ed25519&#45;&gt;bcs -->
<g id="edge67" class="edge">
<title>ed25519&#45;&gt;bcs</title>
<path fill="none" stroke="black" d="M1761.59,-289.49C1786.25,-269.67 1831.81,-235.6 1876,-216 1934.14,-190.22 2007.04,-175.48 2050.44,-168.37"/>
<polygon fill="black" stroke="black" points="2050.77,-171.86 2060.1,-166.84 2049.68,-164.95 2050.77,-171.86"/>
</g>
<!-- ed25519&#45;&gt;hash -->
<g id="edge69" class="edge">
<title>ed25519&#45;&gt;hash</title>
<path fill="none" stroke="black" d="M1775.17,-293.91C1812.2,-281.14 1872.84,-260.23 1911.02,-247.06"/>
<polygon fill="black" stroke="black" points="1911.89,-250.47 1920.2,-243.9 1909.6,-243.85 1911.89,-250.47"/>
</g>
<!-- multi_ed25519&#45;&gt;option -->
<g id="edge70" class="edge">
<title>multi_ed25519&#45;&gt;option</title>
<path fill="none" stroke="black" d="M1768.21,-363.42C1644.55,-322.82 1262.33,-201.66 936,-144 733.69,-108.25 488.12,-96.08 387.91,-92.41"/>
<polygon fill="black" stroke="black" points="388.05,-88.91 377.93,-92.06 387.8,-95.91 388.05,-88.91"/>
</g>
<!-- multi_ed25519&#45;&gt;error -->
<g id="edge71" class="edge">
<title>multi_ed25519&#45;&gt;error</title>
<path fill="none" stroke="black" d="M1809.72,-359.8C1809.76,-340.99 1807.58,-310.54 1795,-288 1745.4,-199.15 1710.39,-184.41 1617,-144 1521.75,-102.78 1397.93,-93.42 1335.21,-91.42"/>
<polygon fill="black" stroke="black" points="1335.47,-87.93 1325.38,-91.16 1335.28,-94.92 1335.47,-87.93"/>
</g>
<!-- multi_ed25519&#45;&gt;features -->
<g id="edge72" class="edge">
<title>multi_ed25519&#45;&gt;features</title>
<path fill="none" stroke="black" d="M1816.33,-359.63C1820.35,-349.42 1825.1,-336.17 1828,-324 1838.88,-278.32 1844.07,-223.86 1846.37,-191.43"/>
<polygon fill="black" stroke="black" points="1849.85,-191.86 1847.01,-181.65 1842.86,-191.4 1849.85,-191.86"/>
</g>
<!-- multi_ed25519&#45;&gt;bcs -->
<g id="edge73" class="edge">
<title>multi_ed25519&#45;&gt;bcs</title>
<path fill="none" stroke="black" d="M1821.36,-360.05C1828.72,-349.77 1838.14,-336.29 1846,-324 1875.93,-277.18 1865.28,-250.3 1909,-216 1950.13,-183.73 2010.5,-171.08 2049.53,-166.14"/>
<polygon fill="black" stroke="black" points="2049.87,-169.63 2059.41,-165.02 2049.08,-162.67 2049.87,-169.63"/>
</g>
<!-- multi_ed25519&#45;&gt;hash -->
<g id="edge74" class="edge">
<title>multi_ed25519&#45;&gt;hash</title>
<path fill="none" stroke="black" d="M1846.44,-362.69C1865.59,-353.87 1888.14,-340.97 1904,-324 1920.21,-306.65 1931.19,-281.92 1937.85,-262.92"/>
<polygon fill="black" stroke="black" points="1941.1,-264.26 1940.89,-253.67 1934.45,-262.08 1941.1,-264.26"/>
</g>
<!-- multi_ed25519&#45;&gt;ed25519 -->
<g id="edge75" class="edge">
<title>multi_ed25519&#45;&gt;ed25519</title>
<path fill="none" stroke="black" d="M1793.02,-360.05C1784.84,-351.38 1774.75,-340.67 1765.77,-331.15"/>
<polygon fill="black" stroke="black" points="1768.37,-328.81 1758.96,-323.93 1763.28,-333.61 1768.37,-328.81"/>
</g>
<!-- from_bcs&#45;&gt;string -->
<g id="edge76" class="edge">
<title>from_bcs&#45;&gt;string</title>
<path fill="none" stroke="black" d="M744.55,-220.16C716.29,-208.24 674.23,-190.5 644.46,-177.95"/>
<polygon fill="black" stroke="black" points="646.07,-174.83 635.5,-174.17 643.35,-181.28 646.07,-174.83"/>
</g>
<!-- chain_id&#45;&gt;system_addresses -->
<g id="edge77" class="edge">
<title>chain_id&#45;&gt;system_addresses</title>
<path fill="none" stroke="black" d="M1435.53,-361.12C1425.86,-352.33 1413.65,-341.23 1402.81,-331.37"/>
<polygon fill="black" stroke="black" points="1405.35,-328.95 1395.6,-324.82 1400.64,-334.13 1405.35,-328.95"/>
</g>
<!-- aggregator_factory&#45;&gt;table -->
<g id="edge79" class="edge">
<title>aggregator_factory&#45;&gt;table</title>
<path fill="none" stroke="black" d="M827.42,-365.97C816.3,-363.98 804.8,-361.92 794,-360 700.53,-343.35 590.6,-323.9 533.62,-313.82"/>
<polygon fill="black" stroke="black" points="534.57,-310.44 524.11,-312.14 533.35,-317.33 534.57,-310.44"/>
</g>
<!-- aggregator_factory&#45;&gt;error -->
<g id="edge78" class="edge">
<title>aggregator_factory&#45;&gt;error</title>
<path fill="none" stroke="black" d="M917.81,-360.75C953.04,-339.64 1012.58,-299.78 1050,-252 1082.39,-210.65 1058.09,-178.15 1098,-144 1142.37,-106.04 1211.31,-94.99 1254.76,-91.94"/>
<polygon fill="black" stroke="black" points="1254.74,-95.44 1264.52,-91.37 1254.33,-88.45 1254.74,-95.44"/>
</g>
<!-- aggregator_factory&#45;&gt;system_addresses -->
<g id="edge80" class="edge">
<title>aggregator_factory&#45;&gt;system_addresses</title>
<path fill="none" stroke="black" d="M955.69,-367.41C1045.81,-354.46 1206.03,-331.43 1300.48,-317.86"/>
<polygon fill="black" stroke="black" points="1300.76,-321.35 1310.16,-316.46 1299.77,-314.42 1300.76,-321.35"/>
</g>
<!-- aggregator_factory&#45;&gt;aggregator -->
<g id="edge81" class="edge">
<title>aggregator_factory&#45;&gt;aggregator</title>
<path fill="none" stroke="black" d="M849.74,-361.98C820.47,-350.78 780.46,-335.48 750.08,-323.86"/>
<polygon fill="black" stroke="black" points="751.37,-320.61 740.78,-320.3 748.87,-327.15 751.37,-320.61"/>
</g>
<!-- optional_aggregator&#45;&gt;option -->
<g id="edge82" class="edge">
<title>optional_aggregator&#45;&gt;option</title>
<path fill="none" stroke="black" d="M693.63,-449.44C585.64,-448.15 408.06,-439.25 361,-396 331.22,-368.63 342,-347.45 342,-307 342,-307 342,-307 342,-233 342,-193.74 342,-148.38 342,-119.69"/>
<polygon fill="black" stroke="black" points="345.5,-120 342,-110 338.5,-120 345.5,-120"/>
</g>
<!-- optional_aggregator&#45;&gt;error -->
<g id="edge83" class="edge">
<title>optional_aggregator&#45;&gt;error</title>
<path fill="none" stroke="black" d="M779.52,-431.65C780.82,-412.71 785.11,-382.13 799,-360 881.05,-229.24 932.11,-211.39 1071,-144 1131.36,-114.71 1208.89,-101.04 1255.11,-95.11"/>
<polygon fill="black" stroke="black" points="1255.43,-98.59 1264.93,-93.91 1254.58,-91.64 1255.43,-98.59"/>
</g>
<!-- optional_aggregator&#45;&gt;aggregator -->
<g id="edge84" class="edge">
<title>optional_aggregator&#45;&gt;aggregator</title>
<path fill="none" stroke="black" d="M758.15,-432.08C747.66,-422.52 735.59,-409.75 728,-396 717.7,-377.34 712.16,-353.86 709.21,-335.69"/>
<polygon fill="black" stroke="black" points="712.69,-335.27 707.81,-325.87 705.76,-336.26 712.69,-335.27"/>
</g>
<!-- optional_aggregator&#45;&gt;aggregator_factory -->
<g id="edge85" class="edge">
<title>optional_aggregator&#45;&gt;aggregator_factory</title>
<path fill="none" stroke="black" d="M805.07,-432.41C819.59,-423.17 837.87,-411.54 853.66,-401.49"/>
<polygon fill="black" stroke="black" points="855.28,-404.6 861.84,-396.28 851.53,-398.7 855.28,-404.6"/>
</g>
<!-- table_with_length&#45;&gt;table -->
<g id="edge87" class="edge">
<title>table_with_length&#45;&gt;table</title>
<path fill="none" stroke="black" d="M458.62,-360.05C464.32,-351.73 471.32,-341.54 477.64,-332.32"/>
<polygon fill="black" stroke="black" points="480.52,-334.3 483.29,-324.08 474.75,-330.35 480.52,-334.3"/>
</g>
<!-- table_with_length&#45;&gt;error -->
<g id="edge86" class="edge">
<title>table_with_length&#45;&gt;error</title>
<path fill="none" stroke="black" d="M446.24,-359.6C446.04,-341.15 447.5,-311.5 457,-288 487.3,-213.09 496.83,-182.27 568,-144 628.57,-111.42 1110.51,-95.96 1254.51,-92.03"/>
<polygon fill="black" stroke="black" points="1254.42,-95.53 1264.32,-91.77 1254.23,-88.54 1254.42,-95.53"/>
</g>
<!-- incentives&#45;&gt;vector -->
<g id="edge88" class="edge">
<title>incentives&#45;&gt;vector</title>
<path fill="none" stroke="black" d="M1077.2,-662.46C871.99,-650.28 76,-589.47 76,-379 76,-379 76,-379 76,-305 76,-229.53 76.85,-197.58 130,-144 187.5,-86.04 219.99,-92.57 299,-72 460.53,-29.94 660.05,-21.18 748.32,-19.41"/>
<polygon fill="black" stroke="black" points="748.32,-22.91 758.26,-19.23 748.2,-15.91 748.32,-22.91"/>
</g>
<!-- incentives&#45;&gt;signer -->
<g id="edge89" class="edge">
<title>incentives&#45;&gt;signer</title>
<path fill="none" stroke="black" d="M1172.8,-663.11C1415.73,-652.22 2502,-587.82 2502,-307 2502,-307 2502,-307 2502,-233 2502,-174.64 2441.37,-130.73 2401.37,-108.11"/>
<polygon fill="black" stroke="black" points="2403.23,-105.13 2392.78,-103.41 2399.87,-111.28 2403.23,-105.13"/>
</g>
<!-- incentives&#45;&gt;type_info -->
<g id="edge90" class="edge">
<title>incentives&#45;&gt;type_info</title>
<path fill="none" stroke="black" d="M1155.13,-651.61C1226.24,-618.52 1405.98,-526.08 1505,-396 1535.91,-355.39 1517.26,-331.47 1544,-288 1550.46,-277.49 1559.25,-267.3 1567.66,-258.71"/>
<polygon fill="black" stroke="black" points="1570.07,-261.25 1574.77,-251.76 1565.17,-256.25 1570.07,-261.25"/>
</g>
<!-- incentives&#45;&gt;coin -->
<g id="edge91" class="edge">
<title>incentives&#45;&gt;coin</title>
<path fill="none" stroke="black" d="M1104.53,-649.32C1092.28,-639.38 1076.85,-625.83 1065,-612 1048.26,-592.46 1032.75,-567.61 1022.15,-549.14"/>
<polygon fill="black" stroke="black" points="1025.34,-547.68 1017.39,-540.67 1019.24,-551.11 1025.34,-547.68"/>
</g>
<!-- incentives&#45;&gt;tablist -->
<g id="edge93" class="edge">
<title>incentives&#45;&gt;tablist</title>
<path fill="none" stroke="black" d="M1076.91,-663.19C965.97,-658.59 683.74,-644.43 450,-612 435.79,-610.03 420.38,-607.17 406.63,-604.36"/>
<polygon fill="black" stroke="black" points="407.53,-600.97 397.02,-602.33 406.09,-607.82 407.53,-600.97"/>
</g>
<!-- aptos_coin -->
<g id="node29" class="node">
<title>aptos_coin</title>
<ellipse fill="none" stroke="black" cx="1125" cy="-594" rx="50.84" ry="18"/>
<text text-anchor="middle" x="1125" y="-588.95" font-family="Times,serif" font-size="14.00">aptos_coin</text>
</g>
<!-- incentives&#45;&gt;aptos_coin -->
<g id="edge92" class="edge">
<title>incentives&#45;&gt;aptos_coin</title>
<path fill="none" stroke="black" d="M1125,-647.7C1125,-640.41 1125,-631.73 1125,-623.54"/>
<polygon fill="black" stroke="black" points="1128.5,-623.62 1125,-613.62 1121.5,-623.62 1128.5,-623.62"/>
</g>
<!-- resource_account -->
<g id="node30" class="node">
<title>resource_account</title>
<ellipse fill="none" stroke="black" cx="1559" cy="-522" rx="75.41" ry="18"/>
<text text-anchor="middle" x="1559" y="-516.95" font-family="Times,serif" font-size="14.00">resource_account</text>
</g>
<!-- incentives&#45;&gt;resource_account -->
<g id="edge94" class="edge">
<title>incentives&#45;&gt;resource_account</title>
<path fill="none" stroke="black" d="M1172.05,-661.41C1253.91,-654.57 1418.71,-637.98 1470,-612 1499.07,-597.27 1524.48,-569.49 1540.63,-548.87"/>
<polygon fill="black" stroke="black" points="1543.2,-551.26 1546.46,-541.18 1537.63,-547.03 1543.2,-551.26"/>
</g>
<!-- aptos_coin&#45;&gt;vector -->
<g id="edge95" class="edge">
<title>aptos_coin&#45;&gt;vector</title>
<path fill="none" stroke="black" d="M1115.27,-576.13C1068.5,-495.02 866.6,-144.9 809.25,-45.44"/>
<polygon fill="black" stroke="black" points="812.35,-43.82 804.32,-36.9 806.29,-47.31 812.35,-43.82"/>
</g>
<!-- aptos_coin&#45;&gt;option -->
<g id="edge96" class="edge">
<title>aptos_coin&#45;&gt;option</title>
<path fill="none" stroke="black" d="M1074.31,-591.5C984.23,-587.96 790.79,-576.43 632,-540 539.51,-518.78 518.51,-504.69 431,-468 312.21,-418.19 190,-435.81 190,-307 190,-307 190,-307 190,-233 190,-170.31 259.88,-127.35 304.88,-106.19"/>
<polygon fill="black" stroke="black" points="306.14,-109.46 313.8,-102.14 303.24,-103.08 306.14,-109.46"/>
</g>
<!-- aptos_coin&#45;&gt;string -->
<g id="edge97" class="edge">
<title>aptos_coin&#45;&gt;string</title>
<path fill="none" stroke="black" d="M1074.67,-590.38C941.49,-582.07 590,-550.7 590,-451 590,-451 590,-451 590,-305 590,-265.17 597.43,-219.61 603,-191.07"/>
<polygon fill="black" stroke="black" points="606.4,-191.93 604.95,-181.43 599.54,-190.54 606.4,-191.93"/>
</g>
<!-- aptos_coin&#45;&gt;signer -->
<g id="edge98" class="edge">
<title>aptos_coin&#45;&gt;signer</title>
<path fill="none" stroke="black" d="M1174.91,-589.95C1267.61,-583.83 1472.42,-568.17 1643,-540 1713.63,-528.33 1729.85,-518.27 1800,-504 2068.51,-449.36 2179.1,-548.14 2407,-396 2446.07,-369.92 2464,-353.97 2464,-307 2464,-307 2464,-307 2464,-233 2464,-183.22 2422.84,-138.04 2394.15,-112.59"/>
<polygon fill="black" stroke="black" points="2396.72,-110.18 2386.85,-106.33 2392.16,-115.5 2396.72,-110.18"/>
</g>
<!-- aptos_coin&#45;&gt;coin -->
<g id="edge101" class="edge">
<title>aptos_coin&#45;&gt;coin</title>
<path fill="none" stroke="black" d="M1099.9,-577.98C1081.57,-567.02 1056.67,-552.12 1037.41,-540.59"/>
<polygon fill="black" stroke="black" points="1039.32,-537.66 1028.94,-535.53 1035.73,-543.67 1039.32,-537.66"/>
</g>
<!-- aptos_coin&#45;&gt;error -->
<g id="edge99" class="edge">
<title>aptos_coin&#45;&gt;error</title>
<path fill="none" stroke="black" d="M1130.85,-575.72C1155.94,-501.64 1254.52,-210.53 1285.58,-118.83"/>
<polygon fill="black" stroke="black" points="1288.88,-119.98 1288.77,-109.38 1282.25,-117.73 1288.88,-119.98"/>
</g>
<!-- aptos_coin&#45;&gt;system_addresses -->
<g id="edge100" class="edge">
<title>aptos_coin&#45;&gt;system_addresses</title>
<path fill="none" stroke="black" d="M1150.89,-578.3C1198.81,-549.7 1301.25,-481.77 1354,-396 1365.29,-377.65 1370.79,-353.82 1373.47,-335.44"/>
<polygon fill="black" stroke="black" points="1376.91,-336.12 1374.67,-325.76 1369.96,-335.26 1376.91,-336.12"/>
</g>
<!-- resource_account&#45;&gt;account -->
<g id="edge103" class="edge">
<title>resource_account&#45;&gt;account</title>
<path fill="none" stroke="black" d="M1598.02,-506.15C1628.88,-494.42 1671.8,-478.09 1702.93,-466.25"/>
<polygon fill="black" stroke="black" points="1703.89,-469.62 1711.99,-462.8 1701.4,-463.08 1703.89,-469.62"/>
</g>
<!-- resource_account&#45;&gt;bcs -->
<g id="edge102" class="edge">
<title>resource_account&#45;&gt;bcs</title>
<path fill="none" stroke="black" d="M1616.53,-509.98C1775.21,-479.58 2207.4,-396.72 2208,-396 2265,-326.97 2163.5,-226.42 2113.47,-183.57"/>
<polygon fill="black" stroke="black" points="2115.84,-180.99 2105.93,-177.24 2111.33,-186.35 2115.84,-180.99"/>
</g>
<!-- timestamp -->
<g id="node31" class="node">
<title>timestamp</title>
<ellipse fill="none" stroke="black" cx="1266" cy="-378" rx="50.33" ry="18"/>
<text text-anchor="middle" x="1266" y="-372.95" font-family="Times,serif" font-size="14.00">timestamp</text>
</g>
<!-- resource_account&#45;&gt;timestamp -->
<g id="edge104" class="edge">
<title>resource_account&#45;&gt;timestamp</title>
<path fill="none" stroke="black" d="M1526.81,-505.4C1472.79,-479.22 1364.07,-426.53 1305.51,-398.15"/>
<polygon fill="black" stroke="black" points="1307.07,-395.02 1296.55,-393.8 1304.02,-401.32 1307.07,-395.02"/>
</g>
<!-- timestamp&#45;&gt;error -->
<g id="edge105" class="edge">
<title>timestamp&#45;&gt;error</title>
<path fill="none" stroke="black" d="M1267.77,-359.54C1272.62,-311.76 1286.13,-178.51 1292.1,-119.61"/>
<polygon fill="black" stroke="black" points="1295.57,-120.04 1293.1,-109.74 1288.61,-119.33 1295.57,-120.04"/>
</g>
<!-- timestamp&#45;&gt;system_addresses -->
<g id="edge106" class="edge">
<title>timestamp&#45;&gt;system_addresses</title>
<path fill="none" stroke="black" d="M1289.87,-361.81C1304.76,-352.33 1324.2,-339.96 1340.84,-329.37"/>
<polygon fill="black" stroke="black" points="1342.43,-332.51 1348.98,-324.19 1338.67,-326.61 1342.43,-332.51"/>
</g>
</g>
</svg>
