<?xml version="1.0" encoding="UTF-8" standalone="no"?>
<!DOCTYPE svg PUBLIC "-//W3C//DTD SVG 1.1//EN"
 "http://www.w3.org/Graphics/SVG/1.1/DTD/svg11.dtd">
<!-- Generated by graphviz version 7.1.0 (20230121.1956)
 -->
<!-- Title: G Pages: 1 -->
<svg width="2318pt" height="836pt"
 viewBox="0.00 0.00 2318.00 836.00" xmlns="http://www.w3.org/2000/svg" xmlns:xlink="http://www.w3.org/1999/xlink">
<g id="graph0" class="graph" transform="scale(1 1) rotate(0) translate(4 832)">
<title>G</title>
<polygon fill="white" stroke="none" points="-4,4 -4,-832 2314,-832 2314,4 -4,4"/>
<!-- user -->
<g id="node1" class="node">
<title>user</title>
<ellipse fill="none" stroke="black" cx="228" cy="-810" rx="27" ry="18"/>
<text text-anchor="middle" x="228" y="-806.3" font-family="Times,serif" font-size="14.00">user</text>
</g>
<!-- vector -->
<g id="node2" class="node">
<title>vector</title>
<ellipse fill="none" stroke="black" cx="325" cy="-18" rx="32.49" ry="18"/>
<text text-anchor="middle" x="325" y="-14.3" font-family="Times,serif" font-size="14.00">vector</text>
</g>
<!-- user&#45;&gt;vector -->
<g id="edge1" class="edge">
<title>user&#45;&gt;vector</title>
<path fill="none" stroke="black" d="M200.98,-807.22C163.38,-803.46 94.84,-791.83 50,-756 14.56,-727.68 0,-712.37 0,-667 0,-667 0,-667 0,-161 0,-39.9 191.81,-21.06 280.72,-18.83"/>
<polygon fill="black" stroke="black" points="280.6,-22.34 290.54,-18.65 280.47,-15.34 280.6,-22.34"/>
</g>
<!-- option -->
<g id="node3" class="node">
<title>option</title>
<ellipse fill="none" stroke="black" cx="499" cy="-90" rx="33.29" ry="18"/>
<text text-anchor="middle" x="499" y="-86.3" font-family="Times,serif" font-size="14.00">option</text>
</g>
<!-- user&#45;&gt;option -->
<g id="edge2" class="edge">
<title>user&#45;&gt;option</title>
<path fill="none" stroke="black" d="M201.9,-804.26C172.21,-797.75 123.63,-783.56 91,-756 55.83,-726.29 38,-713.04 38,-667 38,-667 38,-667 38,-233 38,-161.88 104.82,-170.05 171,-144 267.26,-106.11 389.62,-95.3 454.27,-92.22"/>
<polygon fill="black" stroke="black" points="454.3,-95.72 464.14,-91.79 454,-88.73 454.3,-95.72"/>
</g>
<!-- string -->
<g id="node4" class="node">
<title>string</title>
<ellipse fill="none" stroke="black" cx="634" cy="-162" rx="30.59" ry="18"/>
<text text-anchor="middle" x="634" y="-158.3" font-family="Times,serif" font-size="14.00">string</text>
</g>
<!-- user&#45;&gt;string -->
<g id="edge3" class="edge">
<title>user&#45;&gt;string</title>
<path fill="none" stroke="black" d="M220.49,-792.34C209.42,-766.2 190,-713.7 190,-667 190,-667 190,-667 190,-521 190,-447.05 185.2,-417.26 232,-360 328.33,-242.13 512.58,-189.3 593.82,-170.99"/>
<polygon fill="black" stroke="black" points="594.54,-174.42 603.56,-168.86 593.05,-167.58 594.54,-174.42"/>
</g>
<!-- signer -->
<g id="node5" class="node">
<title>signer</title>
<ellipse fill="none" stroke="black" cx="2177" cy="-90" rx="32.49" ry="18"/>
<text text-anchor="middle" x="2177" y="-86.3" font-family="Times,serif" font-size="14.00">signer</text>
</g>
<!-- user&#45;&gt;signer -->
<g id="edge4" class="edge">
<title>user&#45;&gt;signer</title>
<path fill="none" stroke="black" d="M255.09,-808.63C499.13,-805.08 2310,-775.12 2310,-667 2310,-667 2310,-667 2310,-233 2310,-175.02 2250.2,-130.95 2210.8,-108.2"/>
<polygon fill="black" stroke="black" points="2212.54,-105.17 2202.1,-103.36 2209.13,-111.28 2212.54,-105.17"/>
</g>
<!-- type_info -->
<g id="node6" class="node">
<title>type_info</title>
<ellipse fill="none" stroke="black" cx="1400" cy="-234" rx="44.39" ry="18"/>
<text text-anchor="middle" x="1400" y="-230.3" font-family="Times,serif" font-size="14.00">type_info</text>
</g>
<!-- user&#45;&gt;type_info -->
<g id="edge5" class="edge">
<title>user&#45;&gt;type_info</title>
<path fill="none" stroke="black" d="M255.24,-808.89C438.96,-807.77 1490,-795.77 1490,-667 1490,-667 1490,-667 1490,-521 1490,-494.49 1433.01,-329.07 1409.73,-262.6"/>
<polygon fill="black" stroke="black" points="1413.16,-261.81 1406.55,-253.53 1406.56,-264.13 1413.16,-261.81"/>
</g>
<!-- table -->
<g id="node7" class="node">
<title>table</title>
<ellipse fill="none" stroke="black" cx="443" cy="-306" rx="27.9" ry="18"/>
<text text-anchor="middle" x="443" y="-302.3" font-family="Times,serif" font-size="14.00">table</text>
</g>
<!-- user&#45;&gt;table -->
<g id="edge6" class="edge">
<title>user&#45;&gt;table</title>
<path fill="none" stroke="black" d="M204.91,-800.1C162.39,-782.01 76,-736.7 76,-667 76,-667 76,-667 76,-593 76,-426.67 313.44,-342.88 406.35,-316.46"/>
<polygon fill="black" stroke="black" points="407.03,-319.9 415.73,-313.86 405.16,-313.16 407.03,-319.9"/>
</g>
<!-- coin -->
<g id="node8" class="node">
<title>coin</title>
<ellipse fill="none" stroke="black" cx="1683" cy="-522" rx="27" ry="18"/>
<text text-anchor="middle" x="1683" y="-518.3" font-family="Times,serif" font-size="14.00">coin</text>
</g>
<!-- user&#45;&gt;coin -->
<g id="edge7" class="edge">
<title>user&#45;&gt;coin</title>
<path fill="none" stroke="black" d="M255.23,-808.87C429.32,-807.92 1383.12,-800.69 1504,-756 1601.07,-720.11 1641.79,-705.1 1687,-612 1696.14,-593.17 1694.5,-569.37 1690.92,-551.12"/>
<polygon fill="black" stroke="black" points="1694.37,-550.48 1688.72,-541.52 1687.54,-552.04 1694.37,-550.48"/>
</g>
<!-- tablist -->
<g id="node9" class="node">
<title>tablist</title>
<ellipse fill="none" stroke="black" cx="372" cy="-594" rx="32.49" ry="18"/>
<text text-anchor="middle" x="372" y="-590.3" font-family="Times,serif" font-size="14.00">tablist</text>
</g>
<!-- user&#45;&gt;tablist -->
<g id="edge8" class="edge">
<title>user&#45;&gt;tablist</title>
<path fill="none" stroke="black" d="M238.59,-793.26C263.23,-756.65 324.58,-665.47 354.73,-620.67"/>
<polygon fill="black" stroke="black" points="357.48,-622.85 360.16,-612.6 351.67,-618.94 357.48,-622.85"/>
</g>
<!-- registry -->
<g id="node10" class="node">
<title>registry</title>
<ellipse fill="none" stroke="black" cx="1072" cy="-738" rx="37.89" ry="18"/>
<text text-anchor="middle" x="1072" y="-734.3" font-family="Times,serif" font-size="14.00">registry</text>
</g>
<!-- user&#45;&gt;registry -->
<g id="edge9" class="edge">
<title>user&#45;&gt;registry</title>
<path fill="none" stroke="black" d="M254.65,-806.79C374.8,-796.83 866.93,-756.01 1023.75,-743"/>
<polygon fill="black" stroke="black" points="1023.7,-746.52 1033.37,-742.2 1023.12,-739.54 1023.7,-746.52"/>
</g>
<!-- option&#45;&gt;vector -->
<g id="edge10" class="edge">
<title>option&#45;&gt;vector</title>
<path fill="none" stroke="black" d="M472.95,-78.52C443.31,-66.6 394.7,-47.04 361.34,-33.62"/>
<polygon fill="black" stroke="black" points="362.65,-30.37 352.06,-29.89 360.03,-36.87 362.65,-30.37"/>
</g>
<!-- string&#45;&gt;vector -->
<g id="edge11" class="edge">
<title>string&#45;&gt;vector</title>
<path fill="none" stroke="black" d="M621.98,-145.22C605.8,-125.1 575.09,-90.71 541,-72 486.04,-41.83 413.91,-28.61 368.49,-22.98"/>
<polygon fill="black" stroke="black" points="369.11,-19.52 358.77,-21.85 368.3,-26.48 369.11,-19.52"/>
</g>
<!-- string&#45;&gt;option -->
<g id="edge12" class="edge">
<title>string&#45;&gt;option</title>
<path fill="none" stroke="black" d="M611.71,-149.44C590.08,-138.23 557,-121.08 532.26,-108.25"/>
<polygon fill="black" stroke="black" points="534.06,-105.24 523.57,-103.74 530.84,-111.45 534.06,-105.24"/>
</g>
<!-- type_info&#45;&gt;string -->
<g id="edge13" class="edge">
<title>type_info&#45;&gt;string</title>
<path fill="none" stroke="black" d="M1356.9,-229.06C1221.87,-216.72 808.18,-178.92 675.45,-166.79"/>
<polygon fill="black" stroke="black" points="676,-163.32 665.72,-165.9 675.36,-170.29 676,-163.32"/>
</g>
<!-- error -->
<g id="node11" class="node">
<title>error</title>
<ellipse fill="none" stroke="black" cx="1577" cy="-90" rx="27.9" ry="18"/>
<text text-anchor="middle" x="1577" y="-86.3" font-family="Times,serif" font-size="14.00">error</text>
</g>
<!-- type_info&#45;&gt;error -->
<g id="edge14" class="edge">
<title>type_info&#45;&gt;error</title>
<path fill="none" stroke="black" d="M1419.28,-217.53C1451.27,-191.87 1515.36,-140.45 1551.21,-111.69"/>
<polygon fill="black" stroke="black" points="1553.31,-114.49 1558.92,-105.5 1548.93,-109.03 1553.31,-114.49"/>
</g>
<!-- features -->
<g id="node12" class="node">
<title>features</title>
<ellipse fill="none" stroke="black" cx="1921" cy="-162" rx="38.19" ry="18"/>
<text text-anchor="middle" x="1921" y="-158.3" font-family="Times,serif" font-size="14.00">features</text>
</g>
<!-- type_info&#45;&gt;features -->
<g id="edge15" class="edge">
<title>type_info&#45;&gt;features</title>
<path fill="none" stroke="black" d="M1441.75,-227.39C1537.45,-214.53 1772.14,-183 1873.31,-169.41"/>
<polygon fill="black" stroke="black" points="1873.74,-172.88 1883.18,-168.08 1872.8,-165.94 1873.74,-172.88"/>
</g>
<!-- bcs -->
<g id="node13" class="node">
<title>bcs</title>
<ellipse fill="none" stroke="black" cx="1143" cy="-162" rx="27" ry="18"/>
<text text-anchor="middle" x="1143" y="-158.3" font-family="Times,serif" font-size="14.00">bcs</text>
</g>
<!-- type_info&#45;&gt;bcs -->
<g id="edge16" class="edge">
<title>type_info&#45;&gt;bcs</title>
<path fill="none" stroke="black" d="M1364.49,-222.85C1356.44,-220.58 1347.93,-218.19 1340,-216 1283.76,-200.47 1218.32,-182.98 1178.82,-172.48"/>
<polygon fill="black" stroke="black" points="1179.93,-169.16 1169.37,-169.98 1178.14,-175.92 1179.93,-169.16"/>
</g>
<!-- coin&#45;&gt;option -->
<g id="edge17" class="edge">
<title>coin&#45;&gt;option</title>
<path fill="none" stroke="black" d="M1655.77,-519.55C1517.94,-512.19 902.06,-478.8 863,-468 706.03,-424.6 664.6,-382.37 567,-252 544.39,-221.79 536.89,-214.67 522,-180 513.62,-160.49 507.73,-137.21 504.02,-119.36"/>
<polygon fill="black" stroke="black" points="507.49,-118.86 502.13,-109.73 500.62,-120.21 507.49,-118.86"/>
</g>
<!-- coin&#45;&gt;string -->
<g id="edge18" class="edge">
<title>coin&#45;&gt;string</title>
<path fill="none" stroke="black" d="M1656.07,-519.66C1548.44,-514.16 1149.1,-492.52 1025,-468 922,-447.65 888.22,-452.93 800,-396 727.55,-349.25 715.75,-325.08 670,-252 658.04,-232.9 648.68,-209.16 642.5,-191"/>
<polygon fill="black" stroke="black" points="645.89,-190.1 639.46,-181.68 639.23,-192.28 645.89,-190.1"/>
</g>
<!-- coin&#45;&gt;signer -->
<g id="edge19" class="edge">
<title>coin&#45;&gt;signer</title>
<path fill="none" stroke="black" d="M1710.24,-521.29C1811.18,-520.83 2158,-504.86 2158,-307 2158,-307 2158,-307 2158,-233 2158,-193.17 2165.43,-147.61 2171,-119.07"/>
<polygon fill="black" stroke="black" points="2174.4,-119.93 2172.95,-109.43 2167.54,-118.54 2174.4,-119.93"/>
</g>
<!-- coin&#45;&gt;type_info -->
<g id="edge21" class="edge">
<title>coin&#45;&gt;type_info</title>
<path fill="none" stroke="black" d="M1658.51,-513.93C1613.76,-499.64 1519.15,-462.87 1473,-396 1445.32,-355.89 1476.7,-331.13 1454,-288 1447.96,-276.52 1438.54,-266.01 1429.25,-257.43"/>
<polygon fill="black" stroke="black" points="1431.84,-255.04 1422,-251.11 1427.24,-260.32 1431.84,-255.04"/>
</g>
<!-- coin&#45;&gt;error -->
<g id="edge20" class="edge">
<title>coin&#45;&gt;error</title>
<path fill="none" stroke="black" d="M1710.06,-519.99C1746.73,-517.15 1811.86,-506.58 1849,-468 1904.6,-410.24 1899.39,-358.39 1861,-288 1806.12,-187.36 1675,-127.22 1611.99,-103.18"/>
<polygon fill="black" stroke="black" points="1613.42,-99.98 1602.82,-99.77 1610.97,-106.54 1613.42,-99.98"/>
</g>
<!-- system_addresses -->
<g id="node14" class="node">
<title>system_addresses</title>
<ellipse fill="none" stroke="black" cx="1981" cy="-306" rx="73.39" ry="18"/>
<text text-anchor="middle" x="1981" y="-302.3" font-family="Times,serif" font-size="14.00">system_addresses</text>
</g>
<!-- coin&#45;&gt;system_addresses -->
<g id="edge22" class="edge">
<title>coin&#45;&gt;system_addresses</title>
<path fill="none" stroke="black" d="M1709.8,-519.17C1769.51,-514.54 1910.81,-500.36 1944,-468 1979.61,-433.29 1983.96,-371.73 1983.05,-335.63"/>
<polygon fill="black" stroke="black" points="1986.56,-335.79 1982.65,-325.94 1979.57,-336.08 1986.56,-335.79"/>
</g>
<!-- event -->
<g id="node15" class="node">
<title>event</title>
<ellipse fill="none" stroke="black" cx="1282" cy="-378" rx="29.8" ry="18"/>
<text text-anchor="middle" x="1282" y="-374.3" font-family="Times,serif" font-size="14.00">event</text>
</g>
<!-- coin&#45;&gt;event -->
<g id="edge23" class="edge">
<title>coin&#45;&gt;event</title>
<path fill="none" stroke="black" d="M1658.49,-513.84C1625.48,-504.07 1564.96,-485.75 1514,-468 1443.39,-443.41 1362.05,-411.32 1316.88,-393.16"/>
<polygon fill="black" stroke="black" points="1318.19,-389.92 1307.6,-389.42 1315.57,-396.41 1318.19,-389.92"/>
</g>
<!-- account -->
<g id="node16" class="node">
<title>account</title>
<ellipse fill="none" stroke="black" cx="1072" cy="-450" rx="38.19" ry="18"/>
<text text-anchor="middle" x="1072" y="-446.3" font-family="Times,serif" font-size="14.00">account</text>
</g>
<!-- coin&#45;&gt;account -->
<g id="edge24" class="edge">
<title>coin&#45;&gt;account</title>
<path fill="none" stroke="black" d="M1656.35,-517.95C1561.9,-507.13 1242.2,-470.5 1120.02,-456.5"/>
<polygon fill="black" stroke="black" points="1120.66,-453.05 1110.33,-455.39 1119.86,-460.01 1120.66,-453.05"/>
</g>
<!-- aggregator -->
<g id="node17" class="node">
<title>aggregator</title>
<ellipse fill="none" stroke="black" cx="1804" cy="-306" rx="48.19" ry="18"/>
<text text-anchor="middle" x="1804" y="-302.3" font-family="Times,serif" font-size="14.00">aggregator</text>
</g>
<!-- coin&#45;&gt;aggregator -->
<g id="edge25" class="edge">
<title>coin&#45;&gt;aggregator</title>
<path fill="none" stroke="black" d="M1709.48,-517.22C1740.02,-511.57 1789.99,-498.15 1821,-468 1856.72,-433.27 1868.68,-406.58 1851,-360 1846.85,-349.08 1839.31,-338.96 1831.47,-330.56"/>
<polygon fill="black" stroke="black" points="1833.95,-328.09 1824.38,-323.53 1829.02,-333.06 1833.95,-328.09"/>
</g>
<!-- aggregator_factory -->
<g id="node18" class="node">
<title>aggregator_factory</title>
<ellipse fill="none" stroke="black" cx="1749" cy="-378" rx="77.19" ry="18"/>
<text text-anchor="middle" x="1749" y="-374.3" font-family="Times,serif" font-size="14.00">aggregator_factory</text>
</g>
<!-- coin&#45;&gt;aggregator_factory -->
<g id="edge26" class="edge">
<title>coin&#45;&gt;aggregator_factory</title>
<path fill="none" stroke="black" d="M1709.58,-517.88C1738.65,-512.9 1783.91,-500.15 1805,-468 1813.77,-454.62 1811.33,-446.7 1805,-432 1800.19,-420.82 1791.73,-410.89 1782.82,-402.74"/>
<polygon fill="black" stroke="black" points="1785.3,-400.25 1775.4,-396.47 1780.77,-405.6 1785.3,-400.25"/>
</g>
<!-- optional_aggregator -->
<g id="node19" class="node">
<title>optional_aggregator</title>
<ellipse fill="none" stroke="black" cx="1715" cy="-450" rx="81.49" ry="18"/>
<text text-anchor="middle" x="1715" y="-446.3" font-family="Times,serif" font-size="14.00">optional_aggregator</text>
</g>
<!-- coin&#45;&gt;optional_aggregator -->
<g id="edge27" class="edge">
<title>coin&#45;&gt;optional_aggregator</title>
<path fill="none" stroke="black" d="M1690.58,-504.41C1694.16,-496.59 1698.51,-487.06 1702.55,-478.23"/>
<polygon fill="black" stroke="black" points="1705.64,-479.88 1706.62,-469.33 1699.28,-476.97 1705.64,-479.88"/>
</g>
<!-- tablist&#45;&gt;option -->
<g id="edge28" class="edge">
<title>tablist&#45;&gt;option</title>
<path fill="none" stroke="black" d="M358.93,-577.05C309.24,-514.43 140.42,-282.06 252,-144 276.98,-113.09 390.37,-99.38 454.48,-94.01"/>
<polygon fill="black" stroke="black" points="454.65,-97.51 464.34,-93.23 454.09,-90.53 454.65,-97.51"/>
</g>
<!-- table_with_length -->
<g id="node20" class="node">
<title>table_with_length</title>
<ellipse fill="none" stroke="black" cx="444" cy="-378" rx="74.19" ry="18"/>
<text text-anchor="middle" x="444" y="-374.3" font-family="Times,serif" font-size="14.00">table_with_length</text>
</g>
<!-- tablist&#45;&gt;table_with_length -->
<g id="edge29" class="edge">
<title>tablist&#45;&gt;table_with_length</title>
<path fill="none" stroke="black" d="M377.77,-575.85C390.17,-538.99 419.47,-451.92 434.59,-406.96"/>
<polygon fill="black" stroke="black" points="437.85,-408.26 437.72,-397.67 431.21,-406.03 437.85,-408.26"/>
</g>
<!-- registry&#45;&gt;option -->
<g id="edge30" class="edge">
<title>registry&#45;&gt;option</title>
<path fill="none" stroke="black" d="M1034.04,-735.99C890.56,-731.93 386.23,-715.53 322,-684 197.39,-622.84 114,-589.82 114,-451 114,-451 114,-451 114,-305 114,-217.58 153.67,-191.59 227,-144 264.02,-119.97 387.7,-103.16 454.8,-95.57"/>
<polygon fill="black" stroke="black" points="455.19,-99.04 464.74,-94.46 454.42,-92.09 455.19,-99.04"/>
</g>
<!-- registry&#45;&gt;string -->
<g id="edge31" class="edge">
<title>registry&#45;&gt;string</title>
<path fill="none" stroke="black" d="M1045.59,-724.6C969.5,-687.31 749.23,-568.08 654,-396 617.55,-330.13 623.41,-237.44 629.41,-191.34"/>
<polygon fill="black" stroke="black" points="632.85,-192.04 630.78,-181.65 625.92,-191.06 632.85,-192.04"/>
</g>
<!-- registry&#45;&gt;signer -->
<g id="edge32" class="edge">
<title>registry&#45;&gt;signer</title>
<path fill="none" stroke="black" d="M1109.56,-734.38C1312.82,-719.71 2272,-644.09 2272,-523 2272,-523 2272,-523 2272,-233 2272,-183.49 2231.6,-138.17 2203.5,-112.62"/>
<polygon fill="black" stroke="black" points="2205.83,-110.02 2196.01,-106.05 2201.21,-115.27 2205.83,-110.02"/>
</g>
<!-- registry&#45;&gt;type_info -->
<g id="edge33" class="edge">
<title>registry&#45;&gt;type_info</title>
<path fill="none" stroke="black" d="M1109.88,-734.98C1178.92,-730.52 1321.34,-717.42 1356,-684 1385.19,-655.86 1376,-635.54 1376,-595 1376,-595 1376,-595 1376,-521 1376,-426.44 1389.19,-314.9 1396.01,-263.52"/>
<polygon fill="black" stroke="black" points="1399.45,-264.25 1397.32,-253.87 1392.51,-263.31 1399.45,-264.25"/>
</g>
<!-- registry&#45;&gt;table -->
<g id="edge34" class="edge">
<title>registry&#45;&gt;table</title>
<path fill="none" stroke="black" d="M1034.09,-735.69C898.76,-730.79 444.44,-712.35 386,-684 337.61,-660.52 304,-648.79 304,-595 304,-595 304,-595 304,-449 304,-388.39 369.48,-344.08 410.55,-322.26"/>
<polygon fill="black" stroke="black" points="412.02,-325.44 419.32,-317.76 408.83,-319.21 412.02,-325.44"/>
</g>
<!-- registry&#45;&gt;coin -->
<g id="edge37" class="edge">
<title>registry&#45;&gt;coin</title>
<path fill="none" stroke="black" d="M1109.54,-734.49C1227.38,-725.8 1586.67,-693.02 1664,-612 1679.27,-596 1683.52,-570.9 1684.24,-551.42"/>
<polygon fill="black" stroke="black" points="1687.74,-551.69 1684.29,-541.67 1680.74,-551.65 1687.74,-551.69"/>
</g>
<!-- registry&#45;&gt;tablist -->
<g id="edge38" class="edge">
<title>registry&#45;&gt;tablist</title>
<path fill="none" stroke="black" d="M1034.22,-736.06C902.59,-732.48 469.38,-718.2 418,-684 397.09,-670.08 385.13,-643.53 378.68,-623.04"/>
<polygon fill="black" stroke="black" points="382.08,-622.22 375.98,-613.56 375.35,-624.14 382.08,-622.22"/>
</g>
<!-- registry&#45;&gt;event -->
<g id="edge35" class="edge">
<title>registry&#45;&gt;event</title>
<path fill="none" stroke="black" d="M1085.36,-720.67C1104.64,-695.38 1138,-644.48 1138,-595 1138,-595 1138,-595 1138,-521 1138,-459.5 1205.41,-415.68 1247.99,-394.14"/>
<polygon fill="black" stroke="black" points="1249.41,-397.34 1256.86,-389.81 1246.34,-391.05 1249.41,-397.34"/>
</g>
<!-- registry&#45;&gt;account -->
<g id="edge36" class="edge">
<title>registry&#45;&gt;account</title>
<path fill="none" stroke="black" d="M1072,-719.54C1072,-671.76 1072,-538.51 1072,-479.61"/>
<polygon fill="black" stroke="black" points="1075.5,-479.75 1072,-469.75 1068.5,-479.75 1075.5,-479.75"/>
</g>
<!-- incentives -->
<g id="node21" class="node">
<title>incentives</title>
<ellipse fill="none" stroke="black" cx="1301" cy="-666" rx="46.29" ry="18"/>
<text text-anchor="middle" x="1301" y="-662.3" font-family="Times,serif" font-size="14.00">incentives</text>
</g>
<!-- registry&#45;&gt;incentives -->
<g id="edge39" class="edge">
<title>registry&#45;&gt;incentives</title>
<path fill="none" stroke="black" d="M1103.36,-727.41C1142.43,-715.47 1209.53,-694.96 1254.57,-681.19"/>
<polygon fill="black" stroke="black" points="1255.52,-684.56 1264.06,-678.29 1253.48,-677.87 1255.52,-684.56"/>
</g>
<!-- features&#45;&gt;signer -->
<g id="edge40" class="edge">
<title>features&#45;&gt;signer</title>
<path fill="none" stroke="black" d="M1953.42,-152.13C2000.33,-139.31 2087.02,-115.6 2137.57,-101.78"/>
<polygon fill="black" stroke="black" points="2138.2,-105.24 2146.92,-99.22 2136.35,-98.49 2138.2,-105.24"/>
</g>
<!-- features&#45;&gt;error -->
<g id="edge41" class="edge">
<title>features&#45;&gt;error</title>
<path fill="none" stroke="black" d="M1890.96,-150.41C1883.82,-148.1 1876.18,-145.82 1869,-144 1779.23,-121.29 1671.6,-104.35 1615.42,-96.26"/>
<polygon fill="black" stroke="black" points="1616.13,-92.83 1605.74,-94.89 1615.14,-99.76 1616.13,-92.83"/>
</g>
<!-- system_addresses&#45;&gt;signer -->
<g id="edge42" class="edge">
<title>system_addresses&#45;&gt;signer</title>
<path fill="none" stroke="black" d="M1991.17,-288.13C2010.32,-257.25 2054.09,-190.53 2102,-144 2115.2,-131.18 2131.73,-119.16 2145.92,-109.81"/>
<polygon fill="black" stroke="black" points="2147.49,-112.95 2154.02,-104.6 2143.71,-107.06 2147.49,-112.95"/>
</g>
<!-- system_addresses&#45;&gt;error -->
<g id="edge43" class="edge">
<title>system_addresses&#45;&gt;error</title>
<path fill="none" stroke="black" d="M1985.79,-287.69C1993.71,-254.85 2005.22,-183.29 1968,-144 1920.6,-93.97 1706.16,-89.84 1616.54,-90.37"/>
<polygon fill="black" stroke="black" points="1616.74,-86.87 1606.77,-90.45 1616.8,-93.87 1616.74,-86.87"/>
</g>
<!-- event&#45;&gt;bcs -->
<g id="edge44" class="edge">
<title>event&#45;&gt;bcs</title>
<path fill="none" stroke="black" d="M1293.28,-360.92C1304.63,-342.58 1318.89,-312.02 1307,-288 1279.85,-233.16 1215.84,-195.83 1176.3,-177.07"/>
<polygon fill="black" stroke="black" points="1177.77,-173.89 1167.22,-172.9 1174.85,-180.26 1177.77,-173.89"/>
</g>
<!-- guid -->
<g id="node22" class="node">
<title>guid</title>
<ellipse fill="none" stroke="black" cx="1271" cy="-306" rx="27" ry="18"/>
<text text-anchor="middle" x="1271" y="-302.3" font-family="Times,serif" font-size="14.00">guid</text>
</g>
<!-- event&#45;&gt;guid -->
<g id="edge45" class="edge">
<title>event&#45;&gt;guid</title>
<path fill="none" stroke="black" d="M1279.28,-359.7C1278.12,-352.32 1276.74,-343.52 1275.44,-335.25"/>
<polygon fill="black" stroke="black" points="1278.93,-334.93 1273.92,-325.6 1272.02,-336.02 1278.93,-334.93"/>
</g>
<!-- account&#45;&gt;vector -->
<g id="edge46" class="edge">
<title>account&#45;&gt;vector</title>
<path fill="none" stroke="black" d="M1033.81,-448.97C893.11,-448.47 409.31,-443.31 361,-396 264.87,-301.84 299.43,-117.28 317.16,-47.05"/>
<polygon fill="black" stroke="black" points="320.51,-48.07 319.66,-37.51 313.74,-46.29 320.51,-48.07"/>
</g>
<!-- account&#45;&gt;option -->
<g id="edge47" class="edge">
<title>account&#45;&gt;option</title>
<path fill="none" stroke="black" d="M1033.99,-446.72C979.99,-442.35 878.86,-430 800,-396 699.09,-352.49 674.11,-332.22 599,-252 560.24,-210.6 528.35,-151.97 511.64,-118.08"/>
<polygon fill="black" stroke="black" points="514.93,-116.83 507.42,-109.36 508.62,-119.88 514.93,-116.83"/>
</g>
<!-- account&#45;&gt;signer -->
<g id="edge48" class="edge">
<title>account&#45;&gt;signer</title>
<path fill="none" stroke="black" d="M1110.44,-448.1C1250.6,-444.58 1733.85,-430.18 1884,-396 1967.61,-376.97 2001.15,-383.4 2063,-324 2126.27,-263.23 2102.72,-221.41 2144,-144 2148.79,-135.02 2154.5,-125.51 2159.81,-117.05"/>
<polygon fill="black" stroke="black" points="2162.75,-118.96 2165.2,-108.65 2156.86,-115.18 2162.75,-118.96"/>
</g>
<!-- account&#45;&gt;type_info -->
<g id="edge51" class="edge">
<title>account&#45;&gt;type_info</title>
<path fill="none" stroke="black" d="M1099.29,-436.92C1118.32,-427.61 1143.5,-413.38 1162,-396 1204.22,-356.33 1188.65,-322.77 1235,-288 1267.9,-263.32 1312.72,-249.88 1347.34,-242.72"/>
<polygon fill="black" stroke="black" points="1347.56,-246.24 1356.71,-240.9 1346.22,-239.37 1347.56,-246.24"/>
</g>
<!-- account&#45;&gt;table -->
<g id="edge52" class="edge">
<title>account&#45;&gt;table</title>
<path fill="none" stroke="black" d="M1033.67,-447.93C958.17,-445.01 785.41,-434.35 646,-396 582.24,-378.46 512.61,-344.36 473.72,-323.84"/>
<polygon fill="black" stroke="black" points="475.4,-320.77 464.93,-319.15 472.1,-326.95 475.4,-320.77"/>
</g>
<!-- account&#45;&gt;error -->
<g id="edge49" class="edge">
<title>account&#45;&gt;error</title>
<path fill="none" stroke="black" d="M1086.72,-433.04C1096.16,-422.66 1108.54,-408.74 1119,-396 1157.24,-349.42 1155.34,-327.34 1201,-288 1310.17,-193.94 1471.94,-128.64 1542.26,-103.04"/>
<polygon fill="black" stroke="black" points="1543.08,-106.46 1551.31,-99.78 1540.72,-99.87 1543.08,-106.46"/>
</g>
<!-- account&#45;&gt;bcs -->
<g id="edge50" class="edge">
<title>account&#45;&gt;bcs</title>
<path fill="none" stroke="black" d="M1080.34,-432.16C1096.35,-398.79 1130.86,-321.48 1143,-252 1146.48,-232.06 1146.4,-209.23 1145.49,-191.68"/>
<polygon fill="black" stroke="black" points="1148.99,-191.47 1144.84,-181.72 1142,-191.93 1148.99,-191.47"/>
</g>
<!-- account&#45;&gt;system_addresses -->
<g id="edge53" class="edge">
<title>account&#45;&gt;system_addresses</title>
<path fill="none" stroke="black" d="M1110.17,-448.73C1244.94,-447.41 1697.73,-439.73 1835,-396 1879.22,-381.91 1923.88,-351.84 1951.95,-330.56"/>
<polygon fill="black" stroke="black" points="1953.83,-333.53 1959.61,-324.64 1949.55,-327.99 1953.83,-333.53"/>
</g>
<!-- account&#45;&gt;event -->
<g id="edge59" class="edge">
<title>account&#45;&gt;event</title>
<path fill="none" stroke="black" d="M1102.78,-438.88C1109.75,-436.6 1117.13,-434.21 1124,-432 1174.59,-415.74 1187.86,-413.58 1238,-396 1240.87,-394.99 1243.84,-393.92 1246.81,-392.82"/>
<polygon fill="black" stroke="black" points="1247.9,-396.15 1256.02,-389.34 1245.43,-389.6 1247.9,-396.15"/>
</g>
<!-- account&#45;&gt;guid -->
<g id="edge57" class="edge">
<title>account&#45;&gt;guid</title>
<path fill="none" stroke="black" d="M1102.13,-438.51C1134.67,-426.84 1184,-408.04 1200,-396 1223,-378.7 1242.81,-352.28 1255.61,-332.72"/>
<polygon fill="black" stroke="black" points="1258.44,-334.8 1260.84,-324.48 1252.53,-331.05 1258.44,-334.8"/>
</g>
<!-- hash -->
<g id="node23" class="node">
<title>hash</title>
<ellipse fill="none" stroke="black" cx="926" cy="-234" rx="27" ry="18"/>
<text text-anchor="middle" x="926" y="-230.3" font-family="Times,serif" font-size="14.00">hash</text>
</g>
<!-- account&#45;&gt;hash -->
<g id="edge54" class="edge">
<title>account&#45;&gt;hash</title>
<path fill="none" stroke="black" d="M1033.57,-448.76C994.52,-446.21 935.8,-435.51 907,-396 878.12,-356.39 897.33,-296.17 912.56,-261.7"/>
<polygon fill="black" stroke="black" points="915.63,-263.4 916.66,-252.85 909.28,-260.45 915.63,-263.4"/>
</g>
<!-- ed25519 -->
<g id="node24" class="node">
<title>ed25519</title>
<ellipse fill="none" stroke="black" cx="1033" cy="-306" rx="40.89" ry="18"/>
<text text-anchor="middle" x="1033" y="-302.3" font-family="Times,serif" font-size="14.00">ed25519</text>
</g>
<!-- account&#45;&gt;ed25519 -->
<g id="edge55" class="edge">
<title>account&#45;&gt;ed25519</title>
<path fill="none" stroke="black" d="M1069.11,-431.75C1065.9,-413.68 1060.21,-384.56 1053,-360 1050.52,-351.57 1047.34,-342.56 1044.24,-334.41"/>
<polygon fill="black" stroke="black" points="1047.61,-333.41 1040.7,-325.37 1041.09,-335.96 1047.61,-333.41"/>
</g>
<!-- multi_ed25519 -->
<g id="node25" class="node">
<title>multi_ed25519</title>
<ellipse fill="none" stroke="black" cx="980" cy="-378" rx="64.19" ry="18"/>
<text text-anchor="middle" x="980" y="-374.3" font-family="Times,serif" font-size="14.00">multi_ed25519</text>
</g>
<!-- account&#45;&gt;multi_ed25519 -->
<g id="edge56" class="edge">
<title>account&#45;&gt;multi_ed25519</title>
<path fill="none" stroke="black" d="M1052.49,-434.15C1040.32,-424.89 1024.39,-412.78 1010.57,-402.26"/>
<polygon fill="black" stroke="black" points="1012.69,-399.48 1002.61,-396.21 1008.45,-405.05 1012.69,-399.48"/>
</g>
<!-- from_bcs -->
<g id="node26" class="node">
<title>from_bcs</title>
<ellipse fill="none" stroke="black" cx="723" cy="-234" rx="44.39" ry="18"/>
<text text-anchor="middle" x="723" y="-230.3" font-family="Times,serif" font-size="14.00">from_bcs</text>
</g>
<!-- account&#45;&gt;from_bcs -->
<g id="edge58" class="edge">
<title>account&#45;&gt;from_bcs</title>
<path fill="none" stroke="black" d="M1034.96,-444.8C969.61,-435.4 833.8,-406.55 760,-324 744.58,-306.75 735.02,-282.16 729.49,-263.2"/>
<polygon fill="black" stroke="black" points="732.91,-262.45 726.94,-253.7 726.15,-264.26 732.91,-262.45"/>
</g>
<!-- aggregator_factory&#45;&gt;table -->
<g id="edge61" class="edge">
<title>aggregator_factory&#45;&gt;table</title>
<path fill="none" stroke="black" d="M1681.29,-369.01C1652.29,-365.81 1618.02,-362.34 1587,-360 1154.56,-327.32 628.54,-311.85 482.33,-307.99"/>
<polygon fill="black" stroke="black" points="482.51,-304.5 472.42,-307.73 482.33,-311.49 482.51,-304.5"/>
</g>
<!-- aggregator_factory&#45;&gt;error -->
<g id="edge60" class="edge">
<title>aggregator_factory&#45;&gt;error</title>
<path fill="none" stroke="black" d="M1746,-359.67C1738.1,-318.33 1713.42,-212.28 1658,-144 1645.02,-128.01 1625.9,-115.18 1609.5,-106.15"/>
<polygon fill="black" stroke="black" points="1611.54,-103.27 1601.06,-101.73 1608.29,-109.47 1611.54,-103.27"/>
</g>
<!-- aggregator_factory&#45;&gt;system_addresses -->
<g id="edge62" class="edge">
<title>aggregator_factory&#45;&gt;system_addresses</title>
<path fill="none" stroke="black" d="M1794.84,-363.17C1832.25,-351.88 1885.28,-335.88 1925.17,-323.85"/>
<polygon fill="black" stroke="black" points="1926.04,-327.24 1934.6,-321 1924.02,-320.54 1926.04,-327.24"/>
</g>
<!-- aggregator_factory&#45;&gt;aggregator -->
<g id="edge63" class="edge">
<title>aggregator_factory&#45;&gt;aggregator</title>
<path fill="none" stroke="black" d="M1762.31,-360.05C1768.73,-351.89 1776.57,-341.91 1783.71,-332.82"/>
<polygon fill="black" stroke="black" points="1786.45,-335 1789.87,-324.98 1780.94,-330.68 1786.45,-335"/>
</g>
<!-- optional_aggregator&#45;&gt;option -->
<g id="edge64" class="edge">
<title>optional_aggregator&#45;&gt;option</title>
<path fill="none" stroke="black" d="M1633.83,-447.56C1441.52,-443.6 969.53,-430.45 907,-396 820.34,-348.25 846.47,-285.46 776,-216 736.48,-177.05 723.86,-168.35 674,-144 630.76,-122.88 577.36,-108.19 541,-99.72"/>
<polygon fill="black" stroke="black" points="541.83,-96.32 531.31,-97.52 540.29,-103.14 541.83,-96.32"/>
</g>
<!-- optional_aggregator&#45;&gt;error -->
<g id="edge65" class="edge">
<title>optional_aggregator&#45;&gt;error</title>
<path fill="none" stroke="black" d="M1693.55,-432.26C1682.8,-422.75 1670.51,-409.97 1663,-396 1643.85,-360.37 1644,-347.45 1644,-307 1644,-307 1644,-307 1644,-233 1644,-192.03 1638.65,-180.48 1620,-144 1614.56,-133.35 1606.72,-122.86 1599.23,-114.06"/>
<polygon fill="black" stroke="black" points="1601.93,-111.83 1592.66,-106.69 1596.7,-116.48 1601.93,-111.83"/>
</g>
<!-- optional_aggregator&#45;&gt;aggregator -->
<g id="edge66" class="edge">
<title>optional_aggregator&#45;&gt;aggregator</title>
<path fill="none" stroke="black" d="M1774.54,-437.32C1797.46,-429.61 1821.39,-416.89 1835,-396 1847.64,-376.59 1836.83,-351.44 1824.63,-332.82"/>
<polygon fill="black" stroke="black" points="1827.54,-330.88 1818.92,-324.73 1821.82,-334.92 1827.54,-330.88"/>
</g>
<!-- optional_aggregator&#45;&gt;aggregator_factory -->
<g id="edge67" class="edge">
<title>optional_aggregator&#45;&gt;aggregator_factory</title>
<path fill="none" stroke="black" d="M1723.4,-431.7C1727.11,-424.07 1731.56,-414.92 1735.69,-406.4"/>
<polygon fill="black" stroke="black" points="1738.81,-407.99 1740.03,-397.47 1732.51,-404.93 1738.81,-407.99"/>
</g>
<!-- table_with_length&#45;&gt;table -->
<g id="edge69" class="edge">
<title>table_with_length&#45;&gt;table</title>
<path fill="none" stroke="black" d="M443.75,-359.7C443.65,-352.41 443.52,-343.73 443.41,-335.54"/>
<polygon fill="black" stroke="black" points="446.91,-335.57 443.27,-325.62 439.91,-335.67 446.91,-335.57"/>
</g>
<!-- table_with_length&#45;&gt;error -->
<g id="edge68" class="edge">
<title>table_with_length&#45;&gt;error</title>
<path fill="none" stroke="black" d="M455.81,-359.91C462.91,-349.57 472.07,-336.09 480,-324 531.94,-244.82 512.3,-191.88 594,-144 676.39,-95.72 1364.18,-91.34 1537.48,-91.01"/>
<polygon fill="black" stroke="black" points="1537.32,-94.51 1547.31,-91 1537.3,-87.51 1537.32,-94.51"/>
</g>
<!-- incentives&#45;&gt;vector -->
<g id="edge70" class="edge">
<title>incentives&#45;&gt;vector</title>
<path fill="none" stroke="black" d="M1257.4,-659.59C1039.18,-631.95 76,-502.94 76,-379 76,-379 76,-379 76,-161 76,-67.43 210.33,-34.7 281.66,-23.93"/>
<polygon fill="black" stroke="black" points="282.05,-27.41 291.46,-22.54 281.07,-20.48 282.05,-27.41"/>
</g>
<!-- incentives&#45;&gt;signer -->
<g id="edge71" class="edge">
<title>incentives&#45;&gt;signer</title>
<path fill="none" stroke="black" d="M1346.96,-663.13C1505.88,-655.96 2030.15,-626.11 2171,-540 2212.35,-514.72 2234,-499.46 2234,-451 2234,-451 2234,-451 2234,-233 2234,-189.89 2211.1,-144.38 2194.33,-116.83"/>
<polygon fill="black" stroke="black" points="2197.36,-115.07 2189.07,-108.48 2191.43,-118.8 2197.36,-115.07"/>
</g>
<!-- incentives&#45;&gt;type_info -->
<g id="edge72" class="edge">
<title>incentives&#45;&gt;type_info</title>
<path fill="none" stroke="black" d="M1304.09,-647.7C1312.54,-601.01 1337.17,-468.66 1364,-360 1372.27,-326.5 1383.49,-288.46 1391.2,-263.23"/>
<polygon fill="black" stroke="black" points="1394.53,-264.31 1394.12,-253.72 1387.84,-262.25 1394.53,-264.31"/>
</g>
<!-- incentives&#45;&gt;coin -->
<g id="edge73" class="edge">
<title>incentives&#45;&gt;coin</title>
<path fill="none" stroke="black" d="M1333.57,-652.89C1405.3,-626.23 1576.34,-562.65 1649.2,-535.56"/>
<polygon fill="black" stroke="black" points="1650.04,-538.98 1658.2,-532.22 1647.61,-532.42 1650.04,-538.98"/>
</g>
<!-- incentives&#45;&gt;tablist -->
<g id="edge75" class="edge">
<title>incentives&#45;&gt;tablist</title>
<path fill="none" stroke="black" d="M1254.53,-664.32C1126.61,-661.96 758.75,-651.94 456,-612 441.71,-610.11 426.21,-607.22 412.45,-604.35"/>
<polygon fill="black" stroke="black" points="413.37,-600.97 402.86,-602.29 411.9,-607.82 413.37,-600.97"/>
</g>
<!-- aptos_coin -->
<g id="node27" class="node">
<title>aptos_coin</title>
<ellipse fill="none" stroke="black" cx="1606" cy="-594" rx="48.99" ry="18"/>
<text text-anchor="middle" x="1606" y="-590.3" font-family="Times,serif" font-size="14.00">aptos_coin</text>
</g>
<!-- incentives&#45;&gt;aptos_coin -->
<g id="edge74" class="edge">
<title>incentives&#45;&gt;aptos_coin</title>
<path fill="none" stroke="black" d="M1341.39,-656.77C1389.54,-646.82 1472.39,-629.25 1543,-612 1547.52,-610.9 1552.21,-609.71 1556.9,-608.49"/>
<polygon fill="black" stroke="black" points="1557.52,-611.95 1566.3,-606.02 1555.74,-605.18 1557.52,-611.95"/>
</g>
<!-- resource_account -->
<g id="node28" class="node">
<title>resource_account</title>
<ellipse fill="none" stroke="black" cx="1238" cy="-522" rx="72.29" ry="18"/>
<text text-anchor="middle" x="1238" y="-518.3" font-family="Times,serif" font-size="14.00">resource_account</text>
</g>
<!-- incentives&#45;&gt;resource_account -->
<g id="edge76" class="edge">
<title>incentives&#45;&gt;resource_account</title>
<path fill="none" stroke="black" d="M1293.4,-647.87C1282.66,-623.67 1262.94,-579.21 1250.15,-550.39"/>
<polygon fill="black" stroke="black" points="1253.49,-549.29 1246.24,-541.57 1247.1,-552.13 1253.49,-549.29"/>
</g>
<!-- ed25519&#45;&gt;option -->
<g id="edge77" class="edge">
<title>ed25519&#45;&gt;option</title>
<path fill="none" stroke="black" d="M1022.15,-288.18C1009.34,-269.15 986.63,-237.97 962,-216 917,-175.86 903.54,-164.98 847,-144 742.95,-105.4 611.41,-94.89 543.73,-92.05"/>
<polygon fill="black" stroke="black" points="543.89,-88.55 533.77,-91.67 543.63,-95.54 543.89,-88.55"/>
</g>
<!-- ed25519&#45;&gt;type_info -->
<g id="edge80" class="edge">
<title>ed25519&#45;&gt;type_info</title>
<path fill="none" stroke="black" d="M1070.21,-297.9C1136.42,-285.27 1274.75,-258.89 1349.49,-244.63"/>
<polygon fill="black" stroke="black" points="1349.82,-248.13 1358.99,-242.82 1348.51,-241.26 1349.82,-248.13"/>
</g>
<!-- ed25519&#45;&gt;error -->
<g id="edge78" class="edge">
<title>ed25519&#45;&gt;error</title>
<path fill="none" stroke="black" d="M1035.23,-287.78C1040.63,-253.78 1057.82,-178.35 1107,-144 1176.14,-95.71 1436.9,-90.79 1537.28,-90.73"/>
<polygon fill="black" stroke="black" points="1537.18,-94.23 1547.19,-90.75 1537.19,-87.23 1537.18,-94.23"/>
</g>
<!-- ed25519&#45;&gt;bcs -->
<g id="edge79" class="edge">
<title>ed25519&#45;&gt;bcs</title>
<path fill="none" stroke="black" d="M1045.83,-288.43C1065.08,-263.59 1101.54,-216.52 1123.92,-187.63"/>
<polygon fill="black" stroke="black" points="1126.64,-189.84 1129.99,-179.79 1121.1,-185.55 1126.64,-189.84"/>
</g>
<!-- ed25519&#45;&gt;hash -->
<g id="edge81" class="edge">
<title>ed25519&#45;&gt;hash</title>
<path fill="none" stroke="black" d="M1010.83,-290.5C994.41,-279.75 971.9,-265.03 954.2,-253.45"/>
<polygon fill="black" stroke="black" points="956.47,-250.75 946.19,-248.21 952.64,-256.61 956.47,-250.75"/>
</g>
<!-- multi_ed25519&#45;&gt;option -->
<g id="edge82" class="edge">
<title>multi_ed25519&#45;&gt;option</title>
<path fill="none" stroke="black" d="M964.6,-360.21C955.43,-349.98 943.72,-336.5 934,-324 904.11,-285.55 850.09,-170.14 809,-144 765.6,-116.39 618.15,-100.71 543.33,-94.36"/>
<polygon fill="black" stroke="black" points="543.74,-90.88 533.48,-93.54 543.16,-97.86 543.74,-90.88"/>
</g>
<!-- multi_ed25519&#45;&gt;error -->
<g id="edge83" class="edge">
<title>multi_ed25519&#45;&gt;error</title>
<path fill="none" stroke="black" d="M978.01,-359.52C976.52,-341.26 975.81,-311.99 983,-288 1004.53,-216.15 1007.58,-184.05 1071,-144 1148.39,-95.12 1432.14,-90.65 1537.38,-90.72"/>
<polygon fill="black" stroke="black" points="1537.21,-94.22 1547.21,-90.74 1537.22,-87.22 1537.21,-94.22"/>
</g>
<!-- multi_ed25519&#45;&gt;bcs -->
<g id="edge84" class="edge">
<title>multi_ed25519&#45;&gt;bcs</title>
<path fill="none" stroke="black" d="M1021.47,-363.82C1042.35,-355.35 1066.64,-342.42 1083,-324 1116.93,-285.79 1132.32,-226.63 1138.78,-191.66"/>
<polygon fill="black" stroke="black" points="1142.22,-192.32 1140.46,-181.87 1135.32,-191.13 1142.22,-192.32"/>
</g>
<!-- multi_ed25519&#45;&gt;hash -->
<g id="edge85" class="edge">
<title>multi_ed25519&#45;&gt;hash</title>
<path fill="none" stroke="black" d="M968.85,-359.89C962.64,-349.77 955.14,-336.52 950,-324 941.92,-304.3 935.75,-281.03 931.7,-263.23"/>
<polygon fill="black" stroke="black" points="935.15,-262.65 929.6,-253.63 928.31,-264.14 935.15,-262.65"/>
</g>
<!-- multi_ed25519&#45;&gt;ed25519 -->
<g id="edge86" class="edge">
<title>multi_ed25519&#45;&gt;ed25519</title>
<path fill="none" stroke="black" d="M992.83,-360.05C999.11,-351.77 1006.79,-341.62 1013.75,-332.42"/>
<polygon fill="black" stroke="black" points="1016.49,-334.6 1019.74,-324.51 1010.91,-330.37 1016.49,-334.6"/>
</g>
<!-- from_bcs&#45;&gt;string -->
<g id="edge87" class="edge">
<title>from_bcs&#45;&gt;string</title>
<path fill="none" stroke="black" d="M703.25,-217.46C690.77,-207.65 674.47,-194.83 660.83,-184.1"/>
<polygon fill="black" stroke="black" points="663.1,-181.43 653.07,-178 658.77,-186.93 663.1,-181.43"/>
</g>
<!-- aptos_coin&#45;&gt;vector -->
<g id="edge88" class="edge">
<title>aptos_coin&#45;&gt;vector</title>
<path fill="none" stroke="black" d="M1653.89,-590.02C1781.49,-580.77 2120,-547.17 2120,-451 2120,-451 2120,-451 2120,-377 2120,-258.63 2086.86,-213.44 1991,-144 1852.86,-43.92 1783.46,-91.56 1614,-72 1127.83,-15.89 532.52,-16.95 368.57,-18.47"/>
<polygon fill="black" stroke="black" points="368.99,-14.96 359.03,-18.56 369.06,-21.96 368.99,-14.96"/>
</g>
<!-- aptos_coin&#45;&gt;option -->
<g id="edge89" class="edge">
<title>aptos_coin&#45;&gt;option</title>
<path fill="none" stroke="black" d="M1556.72,-593.21C1314.97,-592.97 266,-576.4 266,-307 266,-307 266,-307 266,-233 266,-145.01 388.67,-109.95 456,-97.33"/>
<polygon fill="black" stroke="black" points="456.37,-100.82 465.6,-95.63 455.14,-93.93 456.37,-100.82"/>
</g>
<!-- aptos_coin&#45;&gt;string -->
<g id="edge90" class="edge">
<title>aptos_coin&#45;&gt;string</title>
<path fill="none" stroke="black" d="M1557.71,-590.07C1474.98,-584.42 1301.11,-569.88 1157,-540 1047.96,-517.39 1021.72,-505.88 917,-468 840.23,-440.23 813.11,-445.26 748,-396 686.06,-349.14 675.07,-325.16 649,-252 642.03,-232.45 638.26,-209.31 636.24,-191.52"/>
<polygon fill="black" stroke="black" points="639.74,-191.29 635.26,-181.68 632.77,-191.98 639.74,-191.29"/>
</g>
<!-- aptos_coin&#45;&gt;signer -->
<g id="edge91" class="edge">
<title>aptos_coin&#45;&gt;signer</title>
<path fill="none" stroke="black" d="M1655.43,-593.21C1770.71,-592.9 2053.67,-587.19 2134,-540 2175.56,-515.58 2196,-499.21 2196,-451 2196,-451 2196,-451 2196,-233 2196,-193.17 2188.57,-147.61 2183,-119.07"/>
<polygon fill="black" stroke="black" points="2186.46,-118.54 2181.05,-109.43 2179.6,-119.93 2186.46,-118.54"/>
</g>
<!-- aptos_coin&#45;&gt;coin -->
<g id="edge94" class="edge">
<title>aptos_coin&#45;&gt;coin</title>
<path fill="none" stroke="black" d="M1623.86,-576.76C1634.41,-567.17 1647.89,-554.91 1659.32,-544.52"/>
<polygon fill="black" stroke="black" points="1661.41,-547.35 1666.46,-538.04 1656.71,-542.17 1661.41,-547.35"/>
</g>
<!-- aptos_coin&#45;&gt;error -->
<g id="edge92" class="edge">
<title>aptos_coin&#45;&gt;error</title>
<path fill="none" stroke="black" d="M1606,-575.51C1606,-548.71 1606,-495.87 1606,-451 1606,-451 1606,-451 1606,-233 1606,-192.53 1594.55,-146.86 1586.04,-118.5"/>
<polygon fill="black" stroke="black" points="1589.48,-117.78 1583.18,-109.27 1582.8,-119.86 1589.48,-117.78"/>
</g>
<!-- aptos_coin&#45;&gt;system_addresses -->
<g id="edge93" class="edge">
<title>aptos_coin&#45;&gt;system_addresses</title>
<path fill="none" stroke="black" d="M1653.82,-589.62C1730.6,-581.65 1881.58,-555.2 1969,-468 2003.88,-433.21 1999.91,-408.91 1994,-360 1993.01,-351.78 1991.18,-343.01 1989.2,-335"/>
<polygon fill="black" stroke="black" points="1992.61,-334.22 1986.66,-325.46 1985.85,-336.02 1992.61,-334.22"/>
</g>
<!-- resource_account&#45;&gt;bcs -->
<g id="edge95" class="edge">
<title>resource_account&#45;&gt;bcs</title>
<path fill="none" stroke="black" d="M1165.95,-519.87C1081.58,-514.07 946.23,-489.72 890,-396 848.84,-327.4 839.56,-278.1 890,-216 916.64,-183.21 1040.94,-169.98 1104.85,-165.28"/>
<polygon fill="black" stroke="black" points="1104.8,-168.79 1114.53,-164.6 1104.31,-161.81 1104.8,-168.79"/>
</g>
<!-- resource_account&#45;&gt;account -->
<g id="edge96" class="edge">
<title>resource_account&#45;&gt;account</title>
<path fill="none" stroke="black" d="M1202.39,-505.98C1175.31,-494.56 1138.11,-478.88 1110.37,-467.18"/>
<polygon fill="black" stroke="black" points="1111.84,-464 1101.26,-463.34 1109.12,-470.45 1111.84,-464"/>
</g>
<!-- timestamp -->
<g id="node29" class="node">
<title>timestamp</title>
<ellipse fill="none" stroke="black" cx="1530" cy="-378" rx="48.19" ry="18"/>
<text text-anchor="middle" x="1530" y="-374.3" font-family="Times,serif" font-size="14.00">timestamp</text>
</g>
<!-- resource_account&#45;&gt;timestamp -->
<g id="edge97" class="edge">
<title>resource_account&#45;&gt;timestamp</title>
<path fill="none" stroke="black" d="M1270.08,-505.4C1324.06,-479.15 1432.82,-426.26 1491.08,-397.93"/>
<polygon fill="black" stroke="black" points="1492.52,-401.12 1499.98,-393.6 1489.46,-394.83 1492.52,-401.12"/>
</g>
<!-- timestamp&#45;&gt;error -->
<g id="edge98" class="edge">
<title>timestamp&#45;&gt;error</title>
<path fill="none" stroke="black" d="M1532.87,-359.54C1540.74,-311.66 1562.71,-177.95 1572.36,-119.24"/>
<polygon fill="black" stroke="black" points="1575.75,-120.16 1573.92,-109.73 1568.85,-119.03 1575.75,-120.16"/>
</g>
<!-- timestamp&#45;&gt;system_addresses -->
<g id="edge99" class="edge">
<title>timestamp&#45;&gt;system_addresses</title>
<path fill="none" stroke="black" d="M1574.06,-370.16C1652.02,-358.06 1814.89,-332.78 1909.24,-318.14"/>
<polygon fill="black" stroke="black" points="1909.55,-321.63 1918.9,-316.64 1908.48,-314.71 1909.55,-321.63"/>
</g>
</g>
</svg>
