<svg width="156" height="26" viewBox="0 0 156 26" fill="none" xmlns="http://www.w3.org/2000/svg">
<path d="M37.6277 25.5309C30.6536 25.5309 25.5317 20.1292 25.5317 13.0061C25.5317 5.88298 30.6536 0.989258 37.6277 0.989258H50.7425C50.928 0.989258 51.0801 1.14133 51.0801 1.32686V6.86234C51.0801 7.04787 50.928 7.19994 50.7425 7.19994H37.6277C34.1908 7.19994 31.6451 9.80039 31.6451 13.3103C31.6451 16.8201 34.1239 19.2867 37.6277 19.2867H50.7425C50.928 19.2867 51.0801 19.4388 51.0801 19.6243V25.1963C51.0801 25.3818 50.928 25.5339 50.7425 25.5339H37.6277V25.5309Z" fill="white"/>
<path d="M66.3061 25.5304C59.183 25.5304 53.9517 20.1287 53.9517 13.0056C53.9517 5.88249 59.183 0.98877 66.3061 0.98877H72.4833C79.8102 0.98877 84.8712 5.88249 84.8712 13.0056C84.8712 20.1287 79.6734 25.5304 72.4833 25.5304H66.3061ZM72.4833 19.2862C76.1301 19.2862 78.6606 16.7892 78.6606 13.3098C78.6606 9.83032 76.0936 7.19945 72.4833 7.19945H66.3061C62.7963 7.19945 60.1958 9.7999 60.1958 13.3098C60.1958 16.8196 62.7293 19.2862 66.3061 19.2862H72.4833Z" fill="white"/>
<path d="M93.524 11.6402V25.1747C93.524 25.3602 93.3719 25.5123 93.1864 25.5123H88.0798C87.8943 25.5123 87.7422 25.3602 87.7422 25.1747V4.55051C87.7422 2.34849 88.9253 0.970703 90.7654 0.970703C91.6535 0.970703 92.277 1.26573 93.0982 2.02305L106.989 14.8094C107.205 15.0071 107.554 14.855 107.554 14.56V1.34176C107.554 1.15623 107.706 1.00416 107.892 1.00416H112.999C113.184 1.00416 113.336 1.15623 113.336 1.34176V21.9325C113.336 24.1345 112.12 25.5123 110.313 25.5123C109.425 25.5123 108.768 25.2173 107.98 24.46L94.0928 11.3938C93.8768 11.19 93.524 11.3452 93.524 11.6402Z" fill="white"/>
<path d="M116.207 25.1657V1.31758C116.207 1.12901 116.359 0.97998 116.545 0.97998H122.107C122.296 0.97998 122.445 1.13205 122.445 1.31758V25.1657C122.445 25.3543 122.293 25.5033 122.107 25.5033H116.545C116.356 25.5033 116.207 25.3513 116.207 25.1657Z" fill="white"/>
<path d="M143.537 2.95991C142.85 1.76461 142.01 0.995117 140.797 0.995117C139.583 0.995117 138.71 1.76157 138.026 2.95991L125.605 25.0166C125.477 25.2417 125.641 25.5215 125.9 25.5215H131.66C131.785 25.5215 131.898 25.4546 131.955 25.3451L134.714 20.3358C134.775 20.2294 134.887 20.1594 135.009 20.1594H146.171C146.293 20.1594 146.408 20.2263 146.466 20.3328L149.231 25.3421C149.292 25.4485 149.404 25.5154 149.526 25.5154H155.661C155.919 25.5154 156.083 25.2356 155.956 25.0106L143.537 2.95991ZM137.628 15.0406L140.28 10.2199C140.408 9.9857 140.742 9.9857 140.873 10.2199L143.537 15.0406C143.662 15.2657 143.498 15.5425 143.242 15.5425H137.926C137.667 15.5425 137.506 15.2657 137.631 15.0406H137.628Z" fill="white"/>
<path d="M21.3495 15.2872H10.382C10.1965 15.2872 10.0444 15.1351 10.0444 14.9496V11.5675C10.0444 11.382 10.1965 11.2299 10.382 11.2299H21.3495C21.5351 11.2299 21.6871 11.382 21.6871 11.5675V14.9496C21.6871 15.1351 21.5351 15.2872 21.3495 15.2872ZM0.00146484 25.1902V1.32686C0.00146484 1.13829 0.153538 0.989258 0.339068 0.989258H22.2529C22.4384 0.989258 22.5905 1.14133 22.5905 1.32686V6.86234C22.5905 7.04787 22.4384 7.19994 22.2529 7.19994H6.53454C6.34901 7.19994 6.19694 7.35201 6.19694 7.53754V18.9461C6.19694 19.1316 6.34901 19.2837 6.53454 19.2837H22.3228C22.5083 19.2837 22.6604 19.4358 22.6604 19.6213V25.1902C22.6604 25.3758 22.5083 25.5278 22.3228 25.5278H0.339068C0.153538 25.5278 0.00146484 25.3758 0.00146484 25.1902Z" fill="white"/>
</svg>
