<svg viewBox="0 0 156 25" fill="none" xmlns="http://www.w3.org/2000/svg">
  <path
    d="M37.6277 24.8209C30.6536 24.8209 25.5317 19.4193 25.5317 12.2961C25.5317 5.17302 30.6536 0.279297 37.6277 0.279297H50.7425C50.928 0.279297 51.0801 0.43137 51.0801 0.6169V6.15237C51.0801 6.3379 50.928 6.48998 50.7425 6.48998H37.6277C34.1908 6.48998 31.6451 9.09043 31.6451 12.6003C31.6451 16.1101 34.1239 18.5768 37.6277 18.5768H50.7425C50.928 18.5768 51.0801 18.7289 51.0801 18.9144V24.4864C51.0801 24.6719 50.928 24.824 50.7425 24.824H37.6277V24.8209Z"
    fill="white" />
  <path
    d="M66.3061 24.8209C59.183 24.8209 53.9517 19.4193 53.9517 12.2961C53.9517 5.17302 59.183 0.279297 66.3061 0.279297H72.4833C79.8102 0.279297 84.8712 5.17302 84.8712 12.2961C84.8712 19.4193 79.6734 24.8209 72.4833 24.8209H66.3061ZM72.4833 18.5768C76.1301 18.5768 78.6606 16.0797 78.6606 12.6003C78.6606 9.12085 76.0936 6.48998 72.4833 6.48998H66.3061C62.7963 6.48998 60.1958 9.09043 60.1958 12.6003C60.1958 16.1101 62.7293 18.5768 66.3061 18.5768H72.4833Z"
    fill="white" />
  <path
    d="M93.524 10.9312V24.4657C93.524 24.6513 93.3719 24.8033 93.1864 24.8033H88.0798C87.8943 24.8033 87.7422 24.6513 87.7422 24.4657V3.84153C87.7422 1.6395 88.9253 0.261719 90.7654 0.261719C91.6535 0.261719 92.277 0.556741 93.0982 1.31407L106.989 14.1004C107.205 14.2981 107.554 14.146 107.554 13.851V0.632778C107.554 0.447248 107.706 0.295175 107.892 0.295175H112.999C113.184 0.295175 113.336 0.447248 113.336 0.632778V21.2235C113.336 23.4255 112.12 24.8033 110.313 24.8033C109.425 24.8033 108.768 24.5083 107.98 23.751L94.0928 10.6848C93.8768 10.4811 93.524 10.6362 93.524 10.9312Z"
    fill="white" />
  <path
    d="M116.207 24.4573V0.609087C116.207 0.420516 116.359 0.271484 116.545 0.271484H122.107C122.296 0.271484 122.445 0.423558 122.445 0.609087V24.4573C122.445 24.6458 122.293 24.7949 122.107 24.7949H116.545C116.356 24.7949 116.207 24.6428 116.207 24.4573Z"
    fill="white" />
  <path
    d="M143.537 2.24995C142.85 1.05465 142.01 0.285156 140.797 0.285156C139.583 0.285156 138.71 1.05161 138.026 2.24995L125.605 24.3067C125.477 24.5317 125.641 24.8116 125.9 24.8116H131.66C131.785 24.8116 131.898 24.7447 131.955 24.6352L134.714 19.6259C134.775 19.5194 134.887 19.4495 135.009 19.4495H146.171C146.293 19.4495 146.408 19.5164 146.466 19.6228L149.231 24.6321C149.292 24.7386 149.404 24.8055 149.526 24.8055H155.661C155.919 24.8055 156.083 24.5257 155.956 24.3006L143.537 2.24995ZM137.628 14.3307L140.28 9.50993C140.408 9.27574 140.742 9.27574 140.873 9.50993L143.537 14.3307C143.662 14.5557 143.498 14.8325 143.242 14.8325H137.926C137.667 14.8325 137.506 14.5557 137.631 14.3307H137.628Z"
    fill="white" />
  <path
    d="M21.3495 14.5772H10.382C10.1965 14.5772 10.0444 14.4252 10.0444 14.2396V10.8575C10.0444 10.672 10.1965 10.5199 10.382 10.5199H21.3495C21.5351 10.5199 21.6871 10.672 21.6871 10.8575V14.2396C21.6871 14.4252 21.5351 14.5772 21.3495 14.5772ZM0.00146484 24.4803V0.6169C0.00146484 0.428329 0.153538 0.279297 0.339068 0.279297H22.2529C22.4384 0.279297 22.5905 0.43137 22.5905 0.6169V6.15237C22.5905 6.3379 22.4384 6.48998 22.2529 6.48998H6.53454C6.34901 6.48998 6.19694 6.64205 6.19694 6.82758V18.2361C6.19694 18.4217 6.34901 18.5737 6.53454 18.5737H22.3228C22.5083 18.5737 22.6604 18.7258 22.6604 18.9113V24.4803C22.6604 24.6658 22.5083 24.8179 22.3228 24.8179H0.339068C0.153538 24.8179 0.00146484 24.6658 0.00146484 24.4803Z"
    fill="white" />
</svg>