<?xml version="1.0" encoding="UTF-8"?><svg id="Layer_2" xmlns="http://www.w3.org/2000/svg" xmlns:xlink="http://www.w3.org/1999/xlink" viewBox="0 0 1365.52 490.6"><defs><style>.cls-1{fill:none;}.cls-2{opacity:.12;}.cls-2,.cls-3,.cls-4{fill:#fff;}.cls-3{opacity:.06;}.cls-5{fill:url(#linear-gradient);}.cls-6{opacity:.1;}.cls-7{fill:#863dd2;}.cls-8{fill:#1a1e22;}</style><linearGradient id="linear-gradient" x1="-11647.74" y1="4808.49" x2="-11646.64" y2="4917.9" gradientTransform="translate(-11450.99 5058.09) rotate(-180)" gradientUnits="userSpaceOnUse"><stop offset="0" stop-color="#fff" stop-opacity=".3"/><stop offset=".77" stop-color="#e1e1eb" stop-opacity="0"/><stop offset="1" stop-color="#e0e0eb" stop-opacity="0"/></linearGradient></defs><g id="Layer_1-2"><g><rect class="cls-8" x="1" y="1" width="1363.52" height="488.6"/><path class="cls-4" d="M1365.52,490.6H0V0H1365.52V490.6ZM2,488.6H1363.52V2H2V488.6Z"/></g><path class="cls-4" d="M196.59,350.15c-60.2,0-109.17-14.73-109.17-32.85s48.97-32.85,109.17-32.85,109.17,14.73,109.17,32.85-48.97,32.85-109.17,32.85Zm0-64.69c-59.65,0-108.17,14.29-108.17,31.85s48.53,31.85,108.17,31.85,108.17-14.29,108.17-31.85-48.53-31.85-108.17-31.85Z"/><path class="cls-5" d="M87.92,149.53h217.34v165.11c0,19.3-28.02,22.89-30.63,25.11l-23.92,5.54c-8.69,1.4-19.59,2.82-32.21,3.63-19.7,1.27-34.93,.53-41.18,.15-19.57-1.19-33.2-3.83-46.13-6.34-2.48-.48-9.97-1.96-19.31-5.38-19.13-7.01-22.24-13.43-23.19-16.32-.74-2.22-.81-4.2-.77-5.42V149.53Z"/><path class="cls-4" d="M196.59,214.72c-60.2,0-109.17-14.73-109.17-32.85s48.97-32.85,109.17-32.85,109.17,14.73,109.17,32.85-48.97,32.85-109.17,32.85Zm0-64.69c-59.65,0-108.17,14.29-108.17,31.85s48.53,31.85,108.17,31.85,108.17-14.29,108.17-31.85-48.53-31.85-108.17-31.85Z"/><g><path class="cls-4" d="M62.72,404.09h1.63c1.02-.02,1.83-.29,2.41-.81s.88-1.23,.88-2.12c0-2-1-3-2.99-3-.94,0-1.69,.27-2.24,.8s-.84,1.24-.84,2.13h-2.17c0-1.35,.49-2.47,1.48-3.37s2.24-1.34,3.77-1.34c1.61,0,2.87,.43,3.79,1.28s1.37,2.04,1.37,3.55c0,.74-.24,1.46-.72,2.16s-1.13,1.21-1.96,1.56c.94,.3,1.66,.79,2.17,1.48s.77,1.53,.77,2.52c0,1.53-.5,2.75-1.5,3.64s-2.3,1.35-3.9,1.35-2.9-.43-3.91-1.3-1.51-2.01-1.51-3.43h2.18c0,.9,.29,1.62,.88,2.16s1.37,.81,2.36,.81c1.05,0,1.85-.27,2.4-.82s.83-1.33,.83-2.36-.3-1.75-.91-2.29-1.49-.8-2.64-.82h-1.63v-1.77Z"/><path class="cls-4" d="M78.7,402.94c-.33-.05-.68-.08-1.07-.08-1.42,0-2.39,.61-2.89,1.82v9h-2.17v-12.68h2.11l.04,1.46c.71-1.13,1.72-1.7,3.02-1.7,.42,0,.74,.05,.96,.16v2.02Z"/><path class="cls-4" d="M79.47,407.23c0-1.95,.46-3.51,1.38-4.69,.92-1.18,2.13-1.78,3.62-1.78s2.66,.51,3.53,1.52v-6.61h2.17v18h-1.99l-.11-1.36c-.87,1.06-2.07,1.59-3.62,1.59s-2.67-.6-3.59-1.8-1.39-2.77-1.39-4.71v-.16Zm2.17,.25c0,1.44,.3,2.56,.89,3.38,.59,.81,1.41,1.22,2.46,1.22,1.38,0,2.38-.62,3.01-1.85v-5.82c-.65-1.2-1.65-1.79-2.99-1.79-1.06,0-1.89,.41-2.48,1.23-.59,.82-.89,2.04-.89,3.64Z"/><path class="cls-4" d="M108.8,407.48c0,1.93-.44,3.48-1.32,4.66s-2.08,1.77-3.59,1.77-2.75-.49-3.63-1.46v6.11h-2.17v-17.55h1.98l.11,1.41c.88-1.09,2.11-1.64,3.68-1.64s2.73,.57,3.62,1.72,1.33,2.75,1.33,4.79v.2Zm-2.17-.25c0-1.43-.3-2.56-.91-3.39s-1.45-1.24-2.51-1.24c-1.31,0-2.3,.58-2.95,1.75v6.06c.65,1.16,1.64,1.73,2.98,1.73,1.04,0,1.87-.41,2.48-1.24s.92-2.05,.92-3.67Z"/><path class="cls-4" d="M118.68,413.68c-.13-.25-.23-.7-.3-1.34-1.01,1.05-2.21,1.57-3.61,1.57-1.25,0-2.28-.35-3.08-1.06-.8-.71-1.2-1.6-1.2-2.69,0-1.32,.5-2.35,1.51-3.08,1-.73,2.42-1.1,4.24-1.1h2.11v-1c0-.76-.23-1.36-.68-1.81-.45-.45-1.12-.67-2-.67-.77,0-1.42,.2-1.95,.59-.52,.39-.79,.86-.79,1.42h-2.18c0-.63,.22-1.24,.67-1.83,.45-.59,1.06-1.06,1.83-1.4,.77-.34,1.61-.52,2.54-.52,1.46,0,2.6,.37,3.43,1.1,.83,.73,1.26,1.74,1.29,3.02v5.84c0,1.16,.15,2.09,.45,2.78v.19h-2.27Zm-3.6-1.65c.68,0,1.32-.18,1.93-.53s1.05-.81,1.32-1.37v-2.6h-1.7c-2.66,0-3.98,.78-3.98,2.33,0,.68,.23,1.21,.68,1.59,.45,.38,1.03,.57,1.75,.57Z"/><path class="cls-4" d="M129.34,402.94c-.33-.05-.68-.08-1.07-.08-1.42,0-2.39,.61-2.89,1.82v9h-2.17v-12.68h2.11l.04,1.46c.71-1.13,1.72-1.7,3.02-1.7,.42,0,.74,.05,.96,.16v2.02Z"/><path class="cls-4" d="M133.58,397.93v3.07h2.37v1.68h-2.37v7.87c0,.51,.11,.89,.32,1.14,.21,.25,.57,.38,1.08,.38,.25,0,.59-.05,1.03-.14v1.75c-.57,.15-1.12,.23-1.66,.23-.97,0-1.7-.29-2.19-.88s-.74-1.42-.74-2.5v-7.86h-2.31v-1.68h2.31v-3.07h2.17Z"/><path class="cls-4" d="M141.93,410.5l2.95-9.5h2.32l-5.1,14.64c-.79,2.11-2.04,3.16-3.76,3.16l-.41-.04-.81-.15v-1.76l.59,.05c.73,0,1.31-.15,1.72-.45s.75-.84,1.01-1.63l.48-1.29-4.52-12.54h2.37l3.16,9.5Z"/><path class="cls-4" d="M164.42,407.48c0,1.94-.45,3.49-1.34,4.67s-2.09,1.76-3.59,1.76c-1.6,0-2.84-.57-3.71-1.7l-.11,1.46h-1.99v-18h2.17v6.71c.88-1.09,2.08-1.63,3.62-1.63s2.75,.58,3.63,1.75,1.32,2.76,1.32,4.78v.19Zm-2.17-.25c0-1.48-.29-2.62-.86-3.42s-1.39-1.21-2.46-1.21c-1.43,0-2.46,.66-3.08,1.99v5.48c.66,1.33,1.7,1.99,3.11,1.99,1.04,0,1.85-.4,2.43-1.21s.87-2.02,.87-3.63Z"/><path class="cls-4" d="M165.88,407.22c0-1.24,.24-2.36,.73-3.35s1.17-1.76,2.04-2.3,1.87-.81,2.98-.81c1.73,0,3.12,.6,4.19,1.79s1.6,2.79,1.6,4.77v.15c0,1.23-.24,2.34-.71,3.32s-1.15,1.74-2.03,2.29-1.89,.82-3.03,.82c-1.72,0-3.11-.6-4.18-1.79s-1.6-2.78-1.6-4.75v-.15Zm2.18,.26c0,1.41,.33,2.54,.98,3.39s1.53,1.28,2.62,1.28,1.98-.43,2.62-1.29,.97-2.07,.97-3.63c0-1.39-.33-2.52-.99-3.38s-1.54-1.29-2.63-1.29-1.93,.43-2.59,1.28-.98,2.07-.98,3.66Z"/><path class="cls-4" d="M185.58,402.94c-.33-.05-.68-.08-1.07-.08-1.42,0-2.39,.61-2.89,1.82v9h-2.17v-12.68h2.11l.04,1.46c.71-1.13,1.72-1.7,3.02-1.7,.42,0,.74,.05,.96,.16v2.02Z"/><path class="cls-4" d="M193,402.94c-.33-.05-.68-.08-1.07-.08-1.42,0-2.39,.61-2.89,1.82v9h-2.17v-12.68h2.11l.04,1.46c.71-1.13,1.72-1.7,3.02-1.7,.42,0,.74,.05,.96,.16v2.02Z"/><path class="cls-4" d="M193.72,407.22c0-1.24,.24-2.36,.73-3.35s1.17-1.76,2.04-2.3,1.87-.81,2.98-.81c1.73,0,3.12,.6,4.19,1.79s1.6,2.79,1.6,4.77v.15c0,1.23-.24,2.34-.71,3.32s-1.15,1.74-2.03,2.29-1.89,.82-3.03,.82c-1.72,0-3.11-.6-4.18-1.79s-1.6-2.78-1.6-4.75v-.15Zm2.18,.26c0,1.41,.33,2.54,.98,3.39s1.53,1.28,2.62,1.28,1.98-.43,2.62-1.29,.97-2.07,.97-3.63c0-1.39-.33-2.52-.99-3.38s-1.54-1.29-2.63-1.29-1.93,.43-2.59,1.28-.98,2.07-.98,3.66Z"/><path class="cls-4" d="M218.51,410.69l2.44-9.69h2.17l-3.69,12.68h-1.76l-3.08-9.61-3,9.61h-1.76l-3.68-12.68h2.16l2.5,9.49,2.95-9.49h1.75l3.01,9.69Z"/><path class="cls-4" d="M230.31,415.14h-1.86l7.12-18.53h1.85l-7.11,18.53Z"/><path class="cls-4" d="M246.67,413.68h-2.17v-18h2.17v18Z"/><path class="cls-4" d="M254.7,413.91c-1.72,0-3.12-.56-4.2-1.69s-1.62-2.64-1.62-4.53v-.4c0-1.26,.24-2.38,.72-3.37s1.15-1.76,2.02-2.32,1.8-.84,2.81-.84c1.65,0,2.93,.54,3.84,1.63s1.37,2.64,1.37,4.66v.9h-8.59c.03,1.25,.4,2.26,1.1,3.03s1.59,1.15,2.67,1.15c.77,0,1.41-.16,1.95-.47s1-.73,1.39-1.24l1.32,1.03c-1.06,1.63-2.66,2.45-4.78,2.45Zm-.27-11.37c-.88,0-1.61,.32-2.2,.96s-.96,1.53-1.1,2.68h6.35v-.16c-.06-1.1-.36-1.96-.89-2.56s-1.25-.91-2.16-.91Z"/><path class="cls-4" d="M263.51,401l.07,1.59c.97-1.22,2.23-1.83,3.8-1.83,2.68,0,4.03,1.51,4.05,4.54v8.38h-2.17v-8.39c0-.91-.22-1.59-.63-2.03s-1.05-.66-1.92-.66c-.7,0-1.32,.19-1.85,.56s-.95,.87-1.24,1.48v9.04h-2.17v-12.68h2.05Z"/><path class="cls-4" d="M273.48,407.23c0-1.95,.46-3.51,1.38-4.69,.92-1.18,2.13-1.78,3.62-1.78s2.66,.51,3.53,1.52v-6.61h2.17v18h-1.99l-.11-1.36c-.87,1.06-2.07,1.59-3.62,1.59s-2.67-.6-3.59-1.8-1.39-2.77-1.39-4.71v-.16Zm2.17,.25c0,1.44,.3,2.56,.89,3.38,.59,.81,1.41,1.22,2.46,1.22,1.37,0,2.38-.62,3.01-1.85v-5.82c-.65-1.2-1.65-1.79-2.99-1.79-1.06,0-1.89,.41-2.48,1.23-.59,.82-.89,2.04-.89,3.64Z"/><path class="cls-4" d="M302.8,407.48c0,1.93-.44,3.48-1.32,4.66s-2.08,1.77-3.59,1.77-2.75-.49-3.63-1.46v6.11h-2.17v-17.55h1.98l.11,1.41c.88-1.09,2.11-1.64,3.68-1.64s2.73,.57,3.62,1.72,1.33,2.75,1.33,4.79v.2Zm-2.17-.25c0-1.43-.3-2.56-.91-3.39s-1.45-1.24-2.51-1.24c-1.31,0-2.3,.58-2.95,1.75v6.06c.65,1.16,1.64,1.73,2.98,1.73,1.04,0,1.87-.41,2.48-1.24s.92-2.05,.92-3.67Z"/><path class="cls-4" d="M304.29,407.22c0-1.24,.24-2.36,.73-3.35s1.17-1.76,2.04-2.3,1.87-.81,2.98-.81c1.73,0,3.12,.6,4.19,1.79s1.6,2.79,1.6,4.77v.15c0,1.23-.24,2.34-.71,3.32s-1.15,1.74-2.03,2.29-1.89,.82-3.03,.82c-1.72,0-3.11-.6-4.18-1.79s-1.6-2.78-1.6-4.75v-.15Zm2.18,.26c0,1.41,.33,2.54,.98,3.39s1.53,1.28,2.62,1.28,1.98-.43,2.62-1.29,.97-2.07,.97-3.63c0-1.39-.33-2.52-.99-3.38s-1.54-1.29-2.63-1.29-1.93,.43-2.59,1.28-.98,2.07-.98,3.66Z"/><path class="cls-4" d="M317.28,407.22c0-1.24,.24-2.36,.73-3.35s1.17-1.76,2.04-2.3,1.87-.81,2.98-.81c1.73,0,3.12,.6,4.19,1.79s1.6,2.79,1.6,4.77v.15c0,1.23-.24,2.34-.71,3.32s-1.15,1.74-2.03,2.29-1.89,.82-3.03,.82c-1.72,0-3.11-.6-4.18-1.79s-1.6-2.78-1.6-4.75v-.15Zm2.18,.26c0,1.41,.33,2.54,.98,3.39s1.53,1.28,2.62,1.28,1.98-.43,2.62-1.29,.97-2.07,.97-3.63c0-1.39-.33-2.52-.99-3.38s-1.54-1.29-2.63-1.29-1.93,.43-2.59,1.28-.98,2.07-.98,3.66Z"/><path class="cls-4" d="M333.2,413.68h-2.17v-18h2.17v18Z"/></g><g><path class="cls-4" d="M617.57,54.15l4.92,13.08,4.91-13.08h3.83v17.06h-2.95v-5.62l.29-7.52-5.04,13.15h-2.12l-5.03-13.14,.29,7.51v5.62h-2.95v-17.06h3.84Z"/><path class="cls-4" d="M641.35,71.21c-.12-.24-.23-.64-.33-1.18-.91,.95-2.02,1.42-3.33,1.42s-2.31-.36-3.12-1.09-1.21-1.62-1.21-2.7c0-1.35,.5-2.39,1.51-3.11s2.44-1.08,4.31-1.08h1.75v-.83c0-.66-.18-1.18-.55-1.58s-.93-.59-1.68-.59c-.65,0-1.18,.16-1.59,.49s-.62,.74-.62,1.24h-2.85c0-.7,.23-1.35,.69-1.95s1.09-1.08,1.88-1.42,1.68-.52,2.65-.52c1.48,0,2.67,.37,3.55,1.12s1.34,1.79,1.36,3.15v5.72c0,1.14,.16,2.05,.48,2.73v.2h-2.91Zm-3.13-2.05c.56,0,1.09-.14,1.59-.41s.87-.64,1.12-1.1v-2.39h-1.54c-1.05,0-1.85,.18-2.38,.55s-.8,.89-.8,1.56c0,.55,.18,.98,.54,1.31s.85,.49,1.46,.49Z"/><path class="cls-4" d="M652.7,61.13c-.38-.06-.76-.09-1.16-.09-1.31,0-2.18,.5-2.64,1.5v8.67h-2.85v-12.68h2.72l.07,1.42c.69-1.1,1.64-1.65,2.86-1.65,.41,0,.74,.05,1.01,.16v2.67Z"/><path class="cls-4" d="M653.3,64.77c0-1.97,.46-3.54,1.39-4.72s2.15-1.76,3.69-1.76c1.45,0,2.58,.5,3.41,1.51l.13-1.28h2.57v12.29c0,1.66-.52,2.98-1.55,3.94s-2.43,1.44-4.19,1.44c-.93,0-1.84-.19-2.72-.58s-1.56-.89-2.02-1.52l1.35-1.71c.88,1.04,1.95,1.56,3.23,1.56,.95,0,1.69-.26,2.24-.77s.82-1.26,.82-2.26v-.86c-.82,.91-1.91,1.37-3.28,1.37-1.48,0-2.7-.59-3.64-1.77s-1.41-2.81-1.41-4.9Zm2.84,.25c0,1.27,.26,2.28,.78,3.01s1.24,1.1,2.16,1.1c1.15,0,2-.49,2.55-1.48v-5.58c-.54-.96-1.38-1.44-2.53-1.44-.94,0-1.67,.37-2.19,1.11s-.78,1.84-.78,3.28Z"/><path class="cls-4" d="M666.71,55.24c0-.44,.14-.8,.42-1.09s.67-.43,1.19-.43,.91,.14,1.2,.43,.42,.65,.42,1.09-.14,.79-.42,1.07-.68,.43-1.2,.43-.91-.14-1.19-.43-.42-.64-.42-1.07Zm3.02,15.97h-2.85v-12.68h2.85v12.68Z"/><path class="cls-4" d="M674.78,58.53l.08,1.46c.94-1.13,2.17-1.7,3.69-1.7,2.64,0,3.98,1.51,4.03,4.54v8.38h-2.85v-8.21c0-.8-.17-1.4-.52-1.79-.35-.39-.92-.58-1.71-.58-1.15,0-2,.52-2.57,1.56v9.02h-2.85v-12.68h2.68Z"/><path class="cls-4" d="M702.68,56.54h-5.32v14.67h-2.94v-14.67h-5.27v-2.39h13.54v2.39Z"/><path class="cls-4" d="M710.58,61.13c-.38-.06-.76-.09-1.16-.09-1.3,0-2.18,.5-2.64,1.5v8.67h-2.85v-12.68h2.72l.07,1.42c.69-1.1,1.64-1.65,2.86-1.65,.41,0,.74,.05,1.01,.16v2.67Z"/><path class="cls-4" d="M719.26,71.21c-.12-.24-.23-.64-.33-1.18-.91,.95-2.02,1.42-3.33,1.42s-2.31-.36-3.12-1.09-1.21-1.62-1.21-2.7c0-1.35,.5-2.39,1.51-3.11s2.44-1.08,4.31-1.08h1.75v-.83c0-.66-.18-1.18-.55-1.58s-.93-.59-1.68-.59c-.65,0-1.18,.16-1.59,.49s-.62,.74-.62,1.24h-2.85c0-.7,.23-1.35,.69-1.95s1.09-1.08,1.88-1.42,1.68-.52,2.65-.52c1.48,0,2.67,.37,3.55,1.12s1.34,1.79,1.36,3.15v5.72c0,1.14,.16,2.05,.48,2.73v.2h-2.91Zm-3.13-2.05c.56,0,1.09-.14,1.59-.41s.87-.64,1.12-1.1v-2.39h-1.54c-1.05,0-1.85,.18-2.38,.55s-.8,.89-.8,1.56c0,.55,.18,.98,.54,1.31s.85,.49,1.46,.49Z"/><path class="cls-4" d="M723.44,64.77c0-1.95,.45-3.52,1.36-4.71s2.12-1.78,3.64-1.78c1.34,0,2.43,.47,3.26,1.41v-6.49h2.85v18h-2.58l-.14-1.31c-.85,1.03-1.99,1.55-3.41,1.55s-2.69-.6-3.6-1.79-1.38-2.82-1.38-4.88Zm2.85,.25c0,1.29,.25,2.29,.74,3.02s1.2,1.08,2.12,1.08c1.16,0,2.02-.52,2.55-1.56v-5.41c-.52-1.02-1.37-1.52-2.53-1.52-.92,0-1.63,.37-2.13,1.1s-.75,1.83-.75,3.3Z"/><path class="cls-4" d="M736.83,55.24c0-.44,.14-.8,.42-1.09s.67-.43,1.19-.43,.91,.14,1.2,.43,.42,.65,.42,1.09-.14,.79-.42,1.07-.68,.43-1.2,.43-.91-.14-1.19-.43-.42-.64-.42-1.07Zm3.02,15.97h-2.85v-12.68h2.85v12.68Z"/><path class="cls-4" d="M744.9,58.53l.08,1.46c.94-1.13,2.17-1.7,3.69-1.7,2.64,0,3.98,1.51,4.03,4.54v8.38h-2.85v-8.21c0-.8-.17-1.4-.52-1.79s-.92-.58-1.71-.58c-1.15,0-2,.52-2.57,1.56v9.02h-2.85v-12.68h2.68Z"/><path class="cls-4" d="M754.41,64.77c0-1.97,.46-3.54,1.39-4.72s2.15-1.76,3.69-1.76c1.45,0,2.58,.5,3.41,1.51l.13-1.28h2.57v12.29c0,1.66-.52,2.98-1.55,3.94s-2.43,1.44-4.19,1.44c-.93,0-1.84-.19-2.72-.58s-1.56-.89-2.02-1.52l1.35-1.71c.88,1.04,1.95,1.56,3.23,1.56,.95,0,1.69-.26,2.24-.77s.82-1.26,.82-2.26v-.86c-.82,.91-1.91,1.37-3.28,1.37-1.48,0-2.7-.59-3.64-1.77s-1.41-2.81-1.41-4.9Zm2.84,.25c0,1.27,.26,2.28,.78,3.01s1.24,1.1,2.16,1.1c1.15,0,2-.49,2.55-1.48v-5.58c-.54-.96-1.38-1.44-2.53-1.44-.94,0-1.67,.37-2.19,1.11s-.78,1.84-.78,3.28Z"/></g><rect class="cls-2" x="588.93" y="155.44" width="201.2" height="201.2"/><rect class="cls-2" x="588.93" y="155.44" width="201.2" height="54.88"/><g><path class="cls-4" d="M790.63,357.14h-202.2V154.94h202.2v202.2Zm-201.2-1h200.2V155.94h-200.2v200.2Z"/><path class="cls-4" d="M790.63,210.83h-202.2v-55.88h202.2v55.88Zm-201.2-1h200.2v-53.88h-200.2v53.88Z"/><path class="cls-4" d="M615.62,195.2c-5.42,0-9.84-4.41-9.84-9.84s4.41-9.84,9.84-9.84,9.84,4.41,9.84,9.84-4.41,9.84-9.84,9.84Zm0-18.67c-4.87,0-8.84,3.96-8.84,8.84s3.96,8.84,8.84,8.84,8.84-3.96,8.84-8.84-3.96-8.84-8.84-8.84Z"/></g><path class="cls-4" d="M689.53,326.98c-24.78,0-44.94-20.16-44.94-44.94s20.16-44.94,44.94-44.94,44.94,20.16,44.94,44.94-20.16,44.94-44.94,44.94Zm0-89.37c-24.5,0-44.44,19.93-44.44,44.44s19.93,44.44,44.44,44.44,44.44-19.93,44.44-44.44-19.93-44.44-44.44-44.44Z"/><g class="cls-6"><circle class="cls-1" cx="689.53" cy="271.77" r="10.28"/><path class="cls-7" d="M703.57,301.89h-28.09c-.54,0-.98-.44-.98-.98v-12c0-2.5,2.04-4.54,4.54-4.54h20.97c2.5,0,4.54,2.04,4.54,4.54v12c0,.54-.44,.98-.98,.98Zm-24.53-17.02c-2.23,0-4.04,1.81-4.04,4.04v12c0,.26,.21,.48,.48,.48h28.09c.26,0,.48-.22,.48-.48v-12c0-2.23-1.81-4.04-4.04-4.04h-20.97Z"/></g><g><path class="cls-4" d="M689.53,282.3c-5.81,0-10.53-4.72-10.53-10.53s4.72-10.53,10.53-10.53,10.53,4.72,10.53,10.53-4.72,10.53-10.53,10.53Zm0-20.56c-5.53,0-10.03,4.5-10.03,10.03s4.5,10.03,10.03,10.03,10.03-4.5,10.03-10.03-4.5-10.03-10.03-10.03Z"/><path class="cls-4" d="M703.57,301.89h-28.09c-.54,0-.98-.44-.98-.98v-1.52c0-8.29,6.74-15.03,15.03-15.03s15.03,6.74,15.03,15.03v1.52c0,.54-.44,.98-.98,.98Zm-14.05-17.02c-8.01,0-14.53,6.52-14.53,14.53v1.52c0,.26,.21,.48,.48,.48h28.09c.26,0,.48-.22,.48-.48v-1.52c0-8.01-6.52-14.53-14.53-14.53Z"/></g><path class="cls-4" d="M364.35,263.79c-.17,0-.35-.06-.49-.18l-9.05-7.79c-.31-.27-.35-.74-.08-1.06,.27-.31,.74-.35,1.06-.08l9.05,7.79c.31,.27,.35,.74,.08,1.06-.15,.17-.36,.26-.57,.26Z"/><path class="cls-4" d="M355.3,256.01c-.21,0-.42-.09-.57-.26-.27-.31-.23-.79,.08-1.06l9.05-7.79c.31-.27,.79-.24,1.06,.08,.27,.31,.23,.79-.08,1.06l-9.05,7.79c-.14,.12-.32,.18-.49,.18Z"/><path class="cls-4" d="M382.46,256.01h-27.16c-.41,0-.75-.34-.75-.75s.34-.75,.75-.75h27.16c.41,0,.75,.34,.75,.75s-.34,.75-.75,.75Z"/><path class="cls-4" d="M543.21,256.01c-.17,0-.35-.06-.49-.18l-9.05-7.79c-.31-.27-.35-.74-.08-1.06,.27-.31,.74-.35,1.06-.08l9.05,7.79c.31,.27,.35,.74,.08,1.06-.15,.17-.36,.26-.57,.26Z"/><path class="cls-4" d="M534.17,263.79c-.21,0-.42-.09-.57-.26-.27-.31-.23-.79,.08-1.06l9.05-7.79c.31-.27,.79-.24,1.06,.08,.27,.31,.23,.79-.08,1.06l-9.05,7.79c-.14,.12-.32,.18-.49,.18Z"/><g><path class="cls-4" d="M412.4,257.24c-.21,1.8-.88,3.2-2,4.18s-2.61,1.47-4.47,1.47c-2.02,0-3.63-.72-4.85-2.17s-1.82-3.38-1.82-5.8v-1.64c0-1.59,.28-2.98,.85-4.18s1.37-2.13,2.41-2.77,2.24-.97,3.61-.97c1.81,0,3.27,.51,4.36,1.52s1.73,2.41,1.91,4.2h-2.26c-.2-1.36-.62-2.35-1.27-2.96s-1.56-.92-2.74-.92c-1.44,0-2.56,.53-3.38,1.6-.82,1.06-1.22,2.58-1.22,4.54v1.65c0,1.85,.39,3.33,1.16,4.42s1.86,1.64,3.25,1.64c1.25,0,2.21-.28,2.88-.85s1.11-1.55,1.33-2.96h2.26Z"/><path class="cls-4" d="M422.26,261.4c-.84,.99-2.08,1.49-3.71,1.49-1.35,0-2.38-.39-3.09-1.18s-1.06-1.95-1.07-3.49v-8.25h2.17v8.19c0,1.92,.78,2.88,2.34,2.88,1.66,0,2.76-.62,3.3-1.85v-9.22h2.17v12.68h-2.06l-.05-1.25Z"/><path class="cls-4" d="M434.35,259.29c0-.59-.22-1.04-.66-1.37s-1.21-.6-2.31-.84-1.97-.52-2.61-.84-1.12-.72-1.43-1.17-.46-.99-.46-1.62c0-1.04,.44-1.92,1.32-2.64s2-1.08,3.37-1.08c1.44,0,2.6,.37,3.5,1.11s1.34,1.69,1.34,2.85h-2.18c0-.59-.25-1.11-.76-1.54s-1.14-.64-1.9-.64-1.41,.17-1.85,.52-.67,.79-.67,1.35c0,.52,.21,.92,.62,1.18s1.16,.52,2.24,.76,1.96,.53,2.63,.87,1.17,.74,1.49,1.21,.49,1.05,.49,1.73c0,1.13-.45,2.04-1.36,2.72s-2.08,1.03-3.53,1.03c-1.02,0-1.91-.18-2.7-.54s-1.39-.86-1.83-1.51-.66-1.34-.66-2.09h2.17c.04,.73,.33,1.3,.87,1.73s1.26,.64,2.15,.64c.82,0,1.48-.17,1.97-.5s.74-.78,.74-1.33Z"/><path class="cls-4" d="M441.59,246.91v3.07h2.37v1.68h-2.37v7.87c0,.51,.11,.89,.32,1.14,.21,.25,.57,.38,1.08,.38,.25,0,.59-.05,1.03-.14v1.75c-.57,.15-1.12,.23-1.66,.23-.97,0-1.7-.29-2.19-.88s-.74-1.42-.74-2.5v-7.86h-2.31v-1.68h2.31v-3.07h2.17Z"/><path class="cls-4" d="M445.22,256.2c0-1.24,.24-2.36,.73-3.35,.49-.99,1.17-1.76,2.04-2.3,.87-.54,1.86-.81,2.98-.81,1.73,0,3.12,.6,4.19,1.79s1.6,2.79,1.6,4.77v.15c0,1.23-.24,2.34-.71,3.32-.47,.98-1.15,1.74-2.03,2.29s-1.89,.82-3.03,.82c-1.72,0-3.11-.6-4.18-1.79s-1.6-2.78-1.6-4.75v-.15Zm2.18,.26c0,1.41,.33,2.54,.98,3.39,.65,.85,1.52,1.28,2.62,1.28s1.98-.43,2.62-1.29c.65-.86,.97-2.07,.97-3.63,0-1.39-.33-2.52-.99-3.38-.66-.86-1.54-1.29-2.63-1.29s-1.93,.43-2.59,1.28-.98,2.07-.98,3.66Z"/><path class="cls-4" d="M458.26,256.21c0-1.95,.46-3.51,1.38-4.69s2.13-1.78,3.62-1.78,2.66,.51,3.53,1.52v-6.61h2.17v18h-1.99l-.11-1.36c-.87,1.06-2.07,1.59-3.62,1.59s-2.67-.6-3.59-1.8-1.39-2.77-1.39-4.71v-.16Zm2.17,.25c0,1.44,.3,2.56,.89,3.38s1.41,1.22,2.46,1.22c1.38,0,2.38-.62,3.01-1.85v-5.82c-.65-1.2-1.64-1.79-2.99-1.79-1.06,0-1.89,.41-2.48,1.23s-.89,2.04-.89,3.64Z"/><path class="cls-4" d="M471.64,246.61c0-.35,.11-.65,.32-.89s.53-.36,.96-.36,.74,.12,.96,.36,.33,.54,.33,.89-.11,.64-.33,.88-.54,.35-.96,.35-.74-.12-.96-.35-.32-.53-.32-.88Zm2.34,16.04h-2.17v-12.68h2.17v12.68Z"/><path class="cls-4" d="M484.58,262.66c-.12-.25-.23-.7-.3-1.34-1.01,1.05-2.21,1.57-3.61,1.57-1.25,0-2.28-.35-3.08-1.06s-1.2-1.6-1.2-2.69c0-1.32,.5-2.35,1.51-3.08s2.42-1.1,4.24-1.1h2.11v-1c0-.76-.23-1.36-.68-1.81s-1.12-.67-2-.67c-.77,0-1.42,.2-1.95,.59s-.79,.86-.79,1.42h-2.18c0-.63,.22-1.24,.67-1.83s1.06-1.06,1.83-1.4,1.62-.52,2.54-.52c1.46,0,2.61,.37,3.43,1.1s1.26,1.74,1.29,3.02v5.84c0,1.16,.15,2.09,.45,2.78v.19h-2.27Zm-3.6-1.65c.68,0,1.32-.18,1.93-.53s1.05-.81,1.32-1.37v-2.6h-1.7c-2.66,0-3.98,.78-3.98,2.33,0,.68,.23,1.21,.68,1.59s1.04,.57,1.75,.57Z"/><path class="cls-4" d="M491.16,249.98l.07,1.59c.97-1.22,2.23-1.83,3.8-1.83,2.68,0,4.03,1.51,4.05,4.54v8.38h-2.17v-8.39c0-.91-.22-1.59-.63-2.03s-1.05-.66-1.92-.66c-.7,0-1.32,.19-1.85,.56s-.95,.87-1.24,1.48v9.04h-2.17v-12.68h2.05Z"/><path class="cls-4" d="M345.2,285.01c0-1.95,.46-3.51,1.38-4.69s2.13-1.78,3.62-1.78,2.66,.51,3.53,1.52v-6.61h2.17v18h-1.99l-.11-1.36c-.87,1.06-2.07,1.59-3.62,1.59s-2.67-.6-3.59-1.8-1.39-2.77-1.39-4.71v-.16Zm2.17,.25c0,1.44,.3,2.56,.89,3.38s1.41,1.22,2.46,1.22c1.38,0,2.38-.62,3.01-1.85v-5.82c-.65-1.2-1.64-1.79-2.99-1.79-1.06,0-1.89,.41-2.48,1.23s-.89,2.04-.89,3.64Z"/><path class="cls-4" d="M363.83,291.69c-1.72,0-3.12-.56-4.2-1.69s-1.62-2.64-1.62-4.53v-.4c0-1.26,.24-2.38,.72-3.37s1.15-1.76,2.02-2.32c.86-.56,1.8-.84,2.81-.84,1.65,0,2.93,.54,3.84,1.63s1.37,2.64,1.37,4.66v.9h-8.59c.03,1.25,.4,2.26,1.1,3.03,.7,.77,1.59,1.15,2.67,1.15,.76,0,1.41-.16,1.95-.47,.53-.31,1-.73,1.39-1.24l1.32,1.03c-1.06,1.63-2.66,2.45-4.78,2.45Zm-.27-11.37c-.88,0-1.61,.32-2.2,.96-.59,.64-.96,1.53-1.1,2.68h6.35v-.16c-.06-1.1-.36-1.96-.89-2.56-.53-.61-1.25-.91-2.16-.91Z"/><path class="cls-4" d="M381.3,285.26c0,1.93-.44,3.48-1.32,4.66s-2.08,1.77-3.59,1.77-2.75-.49-3.63-1.46v6.11h-2.17v-17.55h1.98l.11,1.41c.88-1.09,2.11-1.64,3.68-1.64s2.73,.57,3.62,1.72,1.33,2.75,1.33,4.79v.2Zm-2.17-.25c0-1.43-.3-2.56-.91-3.39s-1.45-1.24-2.51-1.24c-1.31,0-2.3,.58-2.95,1.75v6.06c.65,1.16,1.64,1.73,2.98,1.73,1.04,0,1.87-.41,2.48-1.24s.92-2.05,.92-3.67Z"/><path class="cls-4" d="M382.78,285c0-1.24,.24-2.36,.73-3.35s1.17-1.76,2.04-2.3,1.87-.81,2.98-.81c1.73,0,3.12,.6,4.19,1.79s1.6,2.79,1.6,4.77v.15c0,1.23-.24,2.34-.71,3.32s-1.15,1.74-2.03,2.29-1.89,.82-3.03,.82c-1.72,0-3.11-.6-4.18-1.79s-1.6-2.78-1.6-4.75v-.15Zm2.18,.26c0,1.41,.33,2.54,.98,3.39s1.53,1.28,2.62,1.28,1.98-.43,2.62-1.29,.97-2.07,.97-3.63c0-1.39-.33-2.52-.99-3.38s-1.54-1.29-2.63-1.29-1.93,.43-2.59,1.28-.98,2.07-.98,3.66Z"/><path class="cls-4" d="M403.73,288.09c0-.59-.22-1.04-.66-1.37s-1.21-.6-2.31-.84-1.97-.52-2.61-.84-1.12-.72-1.43-1.17-.46-.99-.46-1.62c0-1.04,.44-1.92,1.32-2.64s2-1.08,3.37-1.08c1.44,0,2.6,.37,3.5,1.11s1.34,1.69,1.34,2.85h-2.18c0-.59-.25-1.11-.76-1.54s-1.14-.64-1.9-.64-1.41,.17-1.85,.52-.67,.79-.67,1.35c0,.52,.21,.92,.62,1.18s1.16,.52,2.24,.76,1.96,.53,2.63,.87,1.17,.74,1.49,1.21,.49,1.05,.49,1.73c0,1.13-.45,2.04-1.36,2.72s-2.08,1.03-3.53,1.03c-1.02,0-1.91-.18-2.7-.54s-1.39-.86-1.83-1.51-.66-1.34-.66-2.09h2.17c.04,.73,.33,1.3,.87,1.73s1.26,.64,2.15,.64c.82,0,1.48-.17,1.97-.5s.74-.78,.74-1.33Z"/><path class="cls-4" d="M408.04,275.41c0-.35,.11-.65,.32-.89s.53-.36,.96-.36,.74,.12,.96,.36,.33,.54,.33,.89-.11,.64-.33,.88-.54,.35-.96,.35-.74-.12-.96-.35-.32-.53-.32-.88Zm2.34,16.04h-2.17v-12.68h2.17v12.68Z"/><path class="cls-4" d="M416.1,275.71v3.07h2.37v1.68h-2.37v7.87c0,.51,.11,.89,.32,1.14,.21,.25,.57,.38,1.08,.38,.25,0,.59-.05,1.03-.14v1.75c-.57,.15-1.12,.23-1.66,.23-.97,0-1.7-.29-2.19-.88s-.74-1.42-.74-2.5v-7.86h-2.31v-1.68h2.31v-3.07h2.17Z"/><path class="cls-4" d="M427.68,288.09c0-.59-.22-1.04-.66-1.37s-1.21-.6-2.31-.84-1.97-.52-2.61-.84-1.12-.72-1.43-1.17-.46-.99-.46-1.62c0-1.04,.44-1.92,1.32-2.64s2-1.08,3.37-1.08c1.44,0,2.6,.37,3.5,1.11s1.34,1.69,1.34,2.85h-2.18c0-.59-.25-1.11-.76-1.54s-1.14-.64-1.9-.64-1.41,.17-1.85,.52-.67,.79-.67,1.35c0,.52,.21,.92,.62,1.18s1.16,.52,2.24,.76,1.96,.53,2.63,.87,1.17,.74,1.49,1.21,.49,1.05,.49,1.73c0,1.13-.45,2.04-1.36,2.72s-2.08,1.03-3.53,1.03c-1.02,0-1.91-.18-2.7-.54s-1.39-.86-1.83-1.51-.66-1.34-.66-2.09h2.17c.04,.73,.33,1.3,.87,1.73s1.26,.64,2.15,.64c.82,0,1.48-.17,1.97-.5s.74-.78,.74-1.33Z"/><path class="cls-4" d="M437.66,292.92h-1.86l7.12-18.53h1.85l-7.11,18.53Z"/><path class="cls-4" d="M462.89,288.47l2.44-9.69h2.17l-3.69,12.68h-1.76l-3.08-9.61-3,9.61h-1.76l-3.68-12.68h2.16l2.5,9.49,2.95-9.49h1.75l3.01,9.69Z"/><path class="cls-4" d="M469.01,275.41c0-.35,.11-.65,.32-.89s.53-.36,.96-.36,.74,.12,.96,.36,.33,.54,.33,.89-.11,.64-.33,.88-.54,.35-.96,.35-.74-.12-.96-.35-.32-.53-.32-.88Zm2.34,16.04h-2.17v-12.68h2.17v12.68Z"/><path class="cls-4" d="M477.07,275.71v3.07h2.37v1.68h-2.37v7.87c0,.51,.11,.89,.32,1.14,.21,.25,.57,.38,1.08,.38,.25,0,.59-.05,1.03-.14v1.75c-.57,.15-1.12,.23-1.66,.23-.97,0-1.7-.29-2.19-.88s-.74-1.42-.74-2.5v-7.86h-2.31v-1.68h2.31v-3.07h2.17Z"/><path class="cls-4" d="M483.44,280.31c.96-1.18,2.21-1.77,3.75-1.77,2.68,0,4.03,1.51,4.05,4.54v8.38h-2.17v-8.39c0-.91-.22-1.59-.63-2.03s-1.05-.66-1.92-.66c-.7,0-1.32,.19-1.85,.56s-.95,.87-1.24,1.48v9.04h-2.17v-18h2.17v6.86Z"/><path class="cls-4" d="M493.27,285.01c0-1.95,.46-3.51,1.38-4.69s2.13-1.78,3.62-1.78,2.66,.51,3.53,1.52v-6.61h2.17v18h-1.99l-.11-1.36c-.87,1.06-2.07,1.59-3.62,1.59s-2.67-.6-3.59-1.8-1.39-2.77-1.39-4.71v-.16Zm2.17,.25c0,1.44,.3,2.56,.89,3.38s1.41,1.22,2.46,1.22c1.38,0,2.38-.62,3.01-1.85v-5.82c-.65-1.2-1.64-1.79-2.99-1.79-1.06,0-1.89,.41-2.48,1.23s-.89,2.04-.89,3.64Z"/><path class="cls-4" d="M512.77,280.72c-.33-.05-.68-.08-1.07-.08-1.42,0-2.39,.61-2.89,1.82v9h-2.17v-12.68h2.11l.04,1.46c.71-1.13,1.72-1.7,3.02-1.7,.42,0,.74,.05,.96,.16v2.02Z"/><path class="cls-4" d="M521.89,291.46c-.12-.25-.23-.7-.3-1.34-1.01,1.05-2.21,1.57-3.61,1.57-1.25,0-2.28-.35-3.08-1.06s-1.2-1.6-1.2-2.69c0-1.32,.5-2.35,1.51-3.08s2.42-1.1,4.24-1.1h2.11v-1c0-.76-.23-1.36-.68-1.81s-1.12-.67-2-.67c-.77,0-1.42,.2-1.95,.59s-.79,.86-.79,1.42h-2.18c0-.63,.22-1.24,.67-1.83s1.06-1.06,1.83-1.4,1.62-.52,2.54-.52c1.46,0,2.61,.37,3.43,1.1s1.26,1.74,1.29,3.02v5.84c0,1.16,.15,2.09,.45,2.78v.19h-2.27Zm-3.6-1.65c.68,0,1.32-.18,1.93-.53s1.05-.81,1.32-1.37v-2.6h-1.7c-2.66,0-3.98,.78-3.98,2.33,0,.68,.23,1.21,.68,1.59s1.04,.57,1.75,.57Z"/><path class="cls-4" d="M537.65,288.47l2.44-9.69h2.17l-3.69,12.68h-1.76l-3.08-9.61-3,9.61h-1.76l-3.68-12.68h2.16l2.5,9.49,2.95-9.49h1.75l3.01,9.69Z"/><path class="cls-4" d="M551.14,288.09c0-.59-.22-1.04-.66-1.37s-1.21-.6-2.31-.84-1.97-.52-2.61-.84-1.12-.72-1.43-1.17-.46-.99-.46-1.62c0-1.04,.44-1.92,1.32-2.64s2-1.08,3.37-1.08c1.44,0,2.6,.37,3.5,1.11s1.34,1.69,1.34,2.85h-2.18c0-.59-.25-1.11-.76-1.54s-1.14-.64-1.9-.64-1.41,.17-1.85,.52-.67,.79-.67,1.35c0,.52,.21,.92,.62,1.18s1.16,.52,2.24,.76,1.96,.53,2.63,.87,1.17,.74,1.49,1.21,.49,1.05,.49,1.73c0,1.13-.45,2.04-1.36,2.72s-2.08,1.03-3.53,1.03c-1.02,0-1.91-.18-2.7-.54s-1.39-.86-1.83-1.51-.66-1.34-.66-2.09h2.17c.04,.73,.33,1.3,.87,1.73s1.26,.64,2.15,.64c.82,0,1.48-.17,1.97-.5s.74-.78,.74-1.33Z"/><path class="cls-4" d="M425.13,320.26c-.12-.25-.23-.7-.3-1.34-1.01,1.05-2.21,1.57-3.61,1.57-1.25,0-2.28-.35-3.08-1.06s-1.2-1.6-1.2-2.69c0-1.32,.5-2.35,1.51-3.08s2.42-1.1,4.24-1.1h2.11v-1c0-.76-.23-1.36-.68-1.81s-1.12-.67-2-.67c-.77,0-1.42,.2-1.95,.59s-.79,.86-.79,1.42h-2.18c0-.63,.22-1.24,.67-1.83s1.06-1.06,1.83-1.4,1.62-.52,2.54-.52c1.46,0,2.61,.37,3.43,1.1s1.26,1.74,1.29,3.02v5.84c0,1.16,.15,2.09,.45,2.78v.19h-2.27Zm-3.6-1.65c.68,0,1.32-.18,1.93-.53s1.05-.81,1.32-1.37v-2.6h-1.7c-2.66,0-3.98,.78-3.98,2.33,0,.68,.23,1.21,.68,1.59s1.04,.57,1.75,.57Z"/><path class="cls-4" d="M437.05,316.89c0-.59-.22-1.04-.66-1.37-.44-.32-1.21-.6-2.31-.84-1.1-.23-1.97-.52-2.61-.84s-1.12-.72-1.43-1.17c-.31-.45-.46-.99-.46-1.62,0-1.04,.44-1.92,1.32-2.64s2-1.08,3.37-1.08c1.44,0,2.6,.37,3.5,1.11,.89,.74,1.34,1.69,1.34,2.85h-2.18c0-.59-.25-1.11-.76-1.54s-1.14-.64-1.9-.64-1.41,.17-1.85,.52-.67,.79-.67,1.35c0,.52,.21,.92,.62,1.18,.41,.27,1.16,.52,2.24,.76,1.08,.24,1.96,.53,2.63,.87,.67,.34,1.17,.74,1.49,1.21,.32,.47,.49,1.05,.49,1.73,0,1.13-.45,2.04-1.36,2.72-.91,.68-2.08,1.03-3.53,1.03-1.02,0-1.92-.18-2.7-.54-.78-.36-1.39-.86-1.83-1.51-.44-.64-.66-1.34-.66-2.09h2.17c.04,.73,.33,1.3,.87,1.73,.54,.43,1.26,.64,2.15,.64,.82,0,1.48-.17,1.97-.5,.5-.33,.74-.78,.74-1.33Z"/><path class="cls-4" d="M448.73,316.89c0-.59-.22-1.04-.66-1.37s-1.21-.6-2.31-.84-1.97-.52-2.61-.84-1.12-.72-1.43-1.17-.46-.99-.46-1.62c0-1.04,.44-1.92,1.32-2.64s2-1.08,3.37-1.08c1.44,0,2.6,.37,3.5,1.11s1.34,1.69,1.34,2.85h-2.18c0-.59-.25-1.11-.76-1.54s-1.14-.64-1.9-.64-1.41,.17-1.85,.52-.67,.79-.67,1.35c0,.52,.21,.92,.62,1.18s1.16,.52,2.24,.76,1.96,.53,2.63,.87,1.17,.74,1.49,1.21,.49,1.05,.49,1.73c0,1.13-.45,2.04-1.36,2.72s-2.08,1.03-3.53,1.03c-1.02,0-1.91-.18-2.7-.54s-1.39-.86-1.83-1.51-.66-1.34-.66-2.09h2.17c.04,.73,.33,1.3,.87,1.73s1.26,.64,2.15,.64c.82,0,1.48-.17,1.97-.5s.74-.78,.74-1.33Z"/><path class="cls-4" d="M458.28,320.49c-1.72,0-3.12-.56-4.2-1.69s-1.62-2.64-1.62-4.53v-.4c0-1.26,.24-2.38,.72-3.37s1.15-1.76,2.02-2.32,1.8-.84,2.81-.84c1.65,0,2.93,.54,3.84,1.63s1.37,2.64,1.37,4.66v.9h-8.59c.03,1.25,.4,2.26,1.1,3.03s1.59,1.15,2.67,1.15c.77,0,1.41-.16,1.95-.47s1-.73,1.39-1.24l1.32,1.03c-1.06,1.63-2.66,2.45-4.78,2.45Zm-.27-11.37c-.88,0-1.61,.32-2.2,.96s-.96,1.53-1.1,2.68h6.35v-.16c-.06-1.1-.36-1.96-.89-2.56s-1.25-.91-2.16-.91Z"/><path class="cls-4" d="M467.98,304.51v3.07h2.37v1.68h-2.37v7.87c0,.51,.11,.89,.32,1.14,.21,.25,.57,.38,1.08,.38,.25,0,.59-.05,1.03-.14v1.75c-.57,.15-1.12,.23-1.66,.23-.97,0-1.7-.29-2.19-.88s-.74-1.42-.74-2.5v-7.86h-2.31v-1.68h2.31v-3.07h2.17Z"/><path class="cls-4" d="M479.57,316.89c0-.59-.22-1.04-.66-1.37s-1.21-.6-2.31-.84-1.97-.52-2.61-.84-1.12-.72-1.43-1.17-.46-.99-.46-1.62c0-1.04,.44-1.92,1.32-2.64s2-1.08,3.37-1.08c1.44,0,2.6,.37,3.5,1.11s1.34,1.69,1.34,2.85h-2.18c0-.59-.25-1.11-.76-1.54s-1.14-.64-1.9-.64-1.41,.17-1.85,.52-.67,.79-.67,1.35c0,.52,.21,.92,.62,1.18s1.16,.52,2.24,.76,1.96,.53,2.63,.87,1.17,.74,1.49,1.21,.49,1.05,.49,1.73c0,1.13-.45,2.04-1.36,2.72s-2.08,1.03-3.53,1.03c-1.02,0-1.91-.18-2.7-.54s-1.39-.86-1.83-1.51-.66-1.34-.66-2.09h2.17c.04,.73,.33,1.3,.87,1.73s1.26,.64,2.15,.64c.82,0,1.48-.17,1.97-.5s.74-.78,.74-1.33Z"/></g><path class="cls-4" d="M541.56,256.01h-27.16c-.41,0-.75-.34-.75-.75s.34-.75,.75-.75h27.16c.41,0,.75,.34,.75,.75s-.34,.75-.75,.75Z"/><g><path class="cls-4" d="M890.24,259.89c-.21,1.8-.88,3.2-2,4.18s-2.61,1.47-4.47,1.47c-2.02,0-3.63-.72-4.85-2.17s-1.82-3.38-1.82-5.8v-1.64c0-1.59,.28-2.98,.85-4.18s1.37-2.13,2.41-2.77,2.24-.97,3.61-.97c1.81,0,3.27,.51,4.36,1.52s1.73,2.41,1.91,4.2h-2.26c-.2-1.36-.62-2.35-1.27-2.96s-1.56-.92-2.74-.92c-1.44,0-2.56,.53-3.38,1.6-.82,1.06-1.22,2.58-1.22,4.54v1.65c0,1.85,.39,3.33,1.16,4.42s1.86,1.64,3.25,1.64c1.25,0,2.21-.28,2.88-.85s1.11-1.55,1.33-2.96h2.26Z"/><path class="cls-4" d="M900.1,264.05c-.84,.99-2.08,1.49-3.71,1.49-1.35,0-2.38-.39-3.09-1.18s-1.06-1.95-1.07-3.49v-8.25h2.17v8.19c0,1.92,.78,2.88,2.34,2.88,1.66,0,2.76-.62,3.3-1.85v-9.22h2.17v12.68h-2.06l-.05-1.25Z"/><path class="cls-4" d="M912.19,261.94c0-.59-.22-1.04-.66-1.37s-1.21-.6-2.31-.84-1.97-.52-2.61-.84-1.12-.72-1.43-1.17-.46-.99-.46-1.62c0-1.04,.44-1.92,1.32-2.64s2-1.08,3.37-1.08c1.44,0,2.6,.37,3.5,1.11s1.34,1.69,1.34,2.85h-2.18c0-.59-.25-1.11-.76-1.54s-1.14-.64-1.9-.64-1.41,.17-1.85,.52-.67,.79-.67,1.35c0,.52,.21,.92,.62,1.18s1.16,.52,2.24,.76,1.96,.53,2.63,.87,1.17,.74,1.49,1.21,.49,1.05,.49,1.73c0,1.13-.45,2.04-1.36,2.72s-2.08,1.03-3.53,1.03c-1.02,0-1.91-.18-2.7-.54s-1.39-.86-1.83-1.51-.66-1.34-.66-2.09h2.17c.04,.73,.33,1.3,.87,1.73s1.26,.64,2.15,.64c.82,0,1.48-.17,1.97-.5s.74-.78,.74-1.33Z"/><path class="cls-4" d="M919.43,249.55v3.07h2.37v1.68h-2.37v7.87c0,.51,.11,.89,.32,1.14,.21,.25,.57,.38,1.08,.38,.25,0,.59-.05,1.03-.14v1.75c-.57,.15-1.12,.23-1.66,.23-.97,0-1.7-.29-2.19-.88s-.74-1.42-.74-2.5v-7.86h-2.31v-1.68h2.31v-3.07h2.17Z"/><path class="cls-4" d="M923.06,258.84c0-1.24,.24-2.36,.73-3.35,.49-.99,1.17-1.76,2.04-2.3,.87-.54,1.86-.81,2.98-.81,1.73,0,3.12,.6,4.19,1.79s1.6,2.79,1.6,4.77v.15c0,1.23-.24,2.34-.71,3.32-.47,.98-1.15,1.74-2.03,2.29s-1.89,.82-3.03,.82c-1.72,0-3.11-.6-4.18-1.79s-1.6-2.78-1.6-4.75v-.15Zm2.18,.26c0,1.41,.33,2.54,.98,3.39,.65,.85,1.52,1.28,2.62,1.28s1.98-.43,2.62-1.29c.65-.86,.97-2.07,.97-3.63,0-1.39-.33-2.52-.99-3.38-.66-.86-1.54-1.29-2.63-1.29s-1.93,.43-2.59,1.28-.98,2.07-.98,3.66Z"/><path class="cls-4" d="M936.09,258.85c0-1.95,.46-3.51,1.38-4.69s2.13-1.78,3.62-1.78,2.66,.51,3.53,1.52v-6.61h2.17v18h-1.99l-.11-1.36c-.87,1.06-2.07,1.59-3.62,1.59s-2.67-.6-3.59-1.8-1.39-2.77-1.39-4.71v-.16Zm2.17,.25c0,1.44,.3,2.56,.89,3.38s1.41,1.22,2.46,1.22c1.38,0,2.38-.62,3.01-1.85v-5.82c-.65-1.2-1.64-1.79-2.99-1.79-1.06,0-1.89,.41-2.48,1.23s-.89,2.04-.89,3.64Z"/><path class="cls-4" d="M949.47,249.26c0-.35,.11-.65,.32-.89s.53-.36,.96-.36,.74,.12,.96,.36,.33,.54,.33,.89-.11,.64-.33,.88-.54,.35-.96,.35-.74-.12-.96-.35-.32-.53-.32-.88Zm2.34,16.04h-2.17v-12.68h2.17v12.68Z"/><path class="cls-4" d="M962.42,265.3c-.12-.25-.23-.7-.3-1.34-1.01,1.05-2.21,1.57-3.61,1.57-1.25,0-2.28-.35-3.08-1.06s-1.2-1.6-1.2-2.69c0-1.32,.5-2.35,1.51-3.08s2.42-1.1,4.24-1.1h2.11v-1c0-.76-.23-1.36-.68-1.81s-1.12-.67-2-.67c-.77,0-1.42,.2-1.95,.59s-.79,.86-.79,1.42h-2.18c0-.63,.22-1.24,.67-1.83s1.06-1.06,1.83-1.4,1.62-.52,2.54-.52c1.46,0,2.61,.37,3.43,1.1s1.26,1.74,1.29,3.02v5.84c0,1.16,.15,2.09,.45,2.78v.19h-2.27Zm-3.6-1.65c.68,0,1.32-.18,1.93-.53s1.05-.81,1.32-1.37v-2.6h-1.7c-2.66,0-3.98,.78-3.98,2.33,0,.68,.23,1.21,.68,1.59s1.04,.57,1.75,.57Z"/><path class="cls-4" d="M969,252.62l.07,1.59c.97-1.22,2.23-1.83,3.8-1.83,2.68,0,4.03,1.51,4.05,4.54v8.38h-2.17v-8.39c0-.91-.22-1.59-.63-2.03s-1.05-.66-1.92-.66c-.7,0-1.32,.19-1.85,.56s-.95,.87-1.24,1.48v9.04h-2.17v-12.68h2.05Z"/><path class="cls-4" d="M857.65,287.9c0,1.93-.44,3.48-1.32,4.66s-2.08,1.77-3.59,1.77-2.75-.49-3.63-1.46v6.11h-2.17v-17.55h1.98l.11,1.41c.88-1.09,2.11-1.64,3.68-1.64s2.73,.57,3.62,1.72,1.33,2.75,1.33,4.79v.2Zm-2.17-.25c0-1.43-.3-2.56-.91-3.39s-1.45-1.24-2.51-1.24c-1.31,0-2.3,.58-2.95,1.75v6.06c.65,1.16,1.64,1.73,2.98,1.73,1.04,0,1.87-.41,2.48-1.24s.92-2.05,.92-3.67Z"/><path class="cls-4" d="M862.06,294.1h-2.17v-18h2.17v18Z"/><path class="cls-4" d="M872.66,294.1c-.12-.25-.23-.7-.3-1.34-1.01,1.05-2.21,1.57-3.61,1.57-1.25,0-2.28-.35-3.08-1.06s-1.2-1.6-1.2-2.69c0-1.32,.5-2.35,1.51-3.08s2.42-1.1,4.24-1.1h2.11v-1c0-.76-.23-1.36-.68-1.81s-1.12-.67-2-.67c-.77,0-1.42,.2-1.95,.59s-.79,.86-.79,1.42h-2.18c0-.63,.22-1.24,.67-1.83s1.06-1.06,1.83-1.4,1.62-.52,2.54-.52c1.46,0,2.61,.37,3.43,1.1s1.26,1.74,1.29,3.02v5.84c0,1.16,.15,2.09,.45,2.78v.19h-2.27Zm-3.6-1.65c.68,0,1.32-.18,1.93-.53s1.05-.81,1.32-1.37v-2.6h-1.7c-2.66,0-3.98,.78-3.98,2.33,0,.68,.23,1.21,.68,1.59s1.04,.57,1.75,.57Z"/><path class="cls-4" d="M882.28,292.56c.77,0,1.45-.23,2.03-.7,.58-.47,.9-1.05,.96-1.76h2.05c-.04,.73-.29,1.42-.75,2.07-.46,.66-1.08,1.18-1.85,1.57-.77,.39-1.58,.59-2.44,.59-1.73,0-3.1-.58-4.12-1.73s-1.53-2.73-1.53-4.73v-.36c0-1.23,.23-2.33,.68-3.29,.45-.96,1.1-1.71,1.95-2.24,.85-.53,1.85-.8,3.01-.8,1.42,0,2.6,.43,3.54,1.28,.94,.85,1.44,1.96,1.51,3.32h-2.05c-.06-.82-.37-1.49-.93-2.02-.56-.53-1.25-.79-2.07-.79-1.1,0-1.96,.4-2.56,1.19-.61,.79-.91,1.94-.91,3.44v.41c0,1.46,.3,2.59,.9,3.38,.6,.79,1.46,1.18,2.58,1.18Z"/><path class="cls-4" d="M894.32,294.33c-1.72,0-3.12-.56-4.2-1.69s-1.62-2.64-1.62-4.53v-.4c0-1.26,.24-2.38,.72-3.37s1.15-1.76,2.02-2.32,1.8-.84,2.81-.84c1.65,0,2.93,.54,3.84,1.63s1.37,2.64,1.37,4.66v.9h-8.59c.03,1.25,.4,2.26,1.1,3.03s1.59,1.15,2.67,1.15c.77,0,1.41-.16,1.95-.47s1-.73,1.39-1.24l1.32,1.03c-1.06,1.63-2.66,2.45-4.78,2.45Zm-.27-11.37c-.88,0-1.61,.32-2.2,.96s-.96,1.53-1.1,2.68h6.35v-.16c-.06-1.1-.36-1.96-.89-2.56s-1.25-.91-2.16-.91Z"/><path class="cls-4" d="M908.46,290.74c0-.59-.22-1.04-.66-1.37s-1.21-.6-2.31-.84-1.97-.52-2.61-.84-1.12-.72-1.43-1.17-.46-.99-.46-1.62c0-1.04,.44-1.92,1.32-2.64s2-1.08,3.37-1.08c1.44,0,2.6,.37,3.5,1.11s1.34,1.69,1.34,2.85h-2.18c0-.59-.25-1.11-.76-1.54s-1.14-.64-1.9-.64-1.41,.17-1.85,.52-.67,.79-.67,1.35c0,.52,.21,.92,.62,1.18s1.16,.52,2.24,.76,1.96,.53,2.63,.87,1.17,.74,1.49,1.21,.49,1.05,.49,1.73c0,1.13-.45,2.04-1.36,2.72s-2.08,1.03-3.53,1.03c-1.02,0-1.91-.18-2.7-.54s-1.39-.86-1.83-1.51-.66-1.34-.66-2.09h2.17c.04,.73,.33,1.3,.87,1.73s1.26,.64,2.15,.64c.82,0,1.48-.17,1.97-.5s.74-.78,.74-1.33Z"/><path class="cls-4" d="M918.43,295.56h-1.86l7.12-18.53h1.85l-7.11,18.53Z"/><path class="cls-4" d="M937.53,292.56c.77,0,1.45-.23,2.03-.7s.9-1.05,.96-1.76h2.05c-.04,.73-.29,1.42-.75,2.07s-1.08,1.18-1.85,1.57-1.58,.59-2.44,.59c-1.73,0-3.1-.58-4.12-1.73s-1.53-2.73-1.53-4.73v-.36c0-1.23,.23-2.33,.68-3.29s1.1-1.71,1.95-2.24,1.85-.8,3.01-.8c1.42,0,2.6,.43,3.54,1.28s1.44,1.96,1.51,3.32h-2.05c-.06-.82-.37-1.49-.93-2.02s-1.25-.79-2.07-.79c-1.1,0-1.96,.4-2.56,1.19s-.91,1.94-.91,3.44v.41c0,1.46,.3,2.59,.9,3.38s1.46,1.18,2.58,1.18Z"/><path class="cls-4" d="M952.14,294.1c-.12-.25-.23-.7-.3-1.34-1.01,1.05-2.21,1.57-3.61,1.57-1.25,0-2.28-.35-3.08-1.06s-1.2-1.6-1.2-2.69c0-1.32,.5-2.35,1.51-3.08s2.42-1.1,4.24-1.1h2.11v-1c0-.76-.23-1.36-.68-1.81s-1.12-.67-2-.67c-.77,0-1.42,.2-1.95,.59s-.79,.86-.79,1.42h-2.18c0-.63,.22-1.24,.67-1.83s1.06-1.06,1.83-1.4,1.62-.52,2.54-.52c1.46,0,2.61,.37,3.43,1.1s1.26,1.74,1.29,3.02v5.84c0,1.16,.15,2.09,.45,2.78v.19h-2.27Zm-3.6-1.65c.68,0,1.32-.18,1.93-.53s1.05-.81,1.32-1.37v-2.6h-1.7c-2.66,0-3.98,.78-3.98,2.33,0,.68,.23,1.21,.68,1.59s1.04,.57,1.75,.57Z"/><path class="cls-4" d="M958.72,281.42l.07,1.59c.97-1.22,2.23-1.83,3.8-1.83,2.68,0,4.03,1.51,4.05,4.54v8.38h-2.17v-8.39c0-.91-.22-1.59-.63-2.03s-1.05-.66-1.92-.66c-.7,0-1.32,.19-1.85,.56s-.95,.87-1.24,1.48v9.04h-2.17v-12.68h2.05Z"/><path class="cls-4" d="M974.3,292.56c.77,0,1.45-.23,2.03-.7s.9-1.05,.96-1.76h2.05c-.04,.73-.29,1.42-.75,2.07s-1.08,1.18-1.85,1.57-1.58,.59-2.44,.59c-1.73,0-3.1-.58-4.12-1.73s-1.53-2.73-1.53-4.73v-.36c0-1.23,.23-2.33,.68-3.29s1.1-1.71,1.95-2.24,1.85-.8,3.01-.8c1.42,0,2.6,.43,3.54,1.28s1.44,1.96,1.51,3.32h-2.05c-.06-.82-.37-1.49-.93-2.02s-1.25-.79-2.07-.79c-1.1,0-1.96,.4-2.56,1.19s-.91,1.94-.91,3.44v.41c0,1.46,.3,2.59,.9,3.38s1.46,1.18,2.58,1.18Z"/><path class="cls-4" d="M986.34,294.33c-1.72,0-3.12-.56-4.2-1.69s-1.62-2.64-1.62-4.53v-.4c0-1.26,.24-2.38,.72-3.37s1.15-1.76,2.02-2.32,1.8-.84,2.81-.84c1.65,0,2.93,.54,3.84,1.63s1.37,2.64,1.37,4.66v.9h-8.59c.03,1.25,.4,2.26,1.1,3.03s1.59,1.15,2.67,1.15c.77,0,1.41-.16,1.95-.47s1-.73,1.39-1.24l1.32,1.03c-1.06,1.63-2.66,2.45-4.78,2.45Zm-.27-11.37c-.88,0-1.61,.32-2.2,.96s-.96,1.53-1.1,2.68h6.35v-.16c-.06-1.1-.36-1.96-.89-2.56s-1.25-.91-2.16-.91Z"/><path class="cls-4" d="M995.45,294.1h-2.17v-18h2.17v18Z"/><path class="cls-4" d="M1005.61,290.74c0-.59-.22-1.04-.66-1.37s-1.21-.6-2.31-.84-1.97-.52-2.61-.84-1.12-.72-1.43-1.17-.46-.99-.46-1.62c0-1.04,.44-1.92,1.32-2.64s2-1.08,3.37-1.08c1.44,0,2.6,.37,3.5,1.11s1.34,1.69,1.34,2.85h-2.18c0-.59-.25-1.11-.76-1.54s-1.14-.64-1.9-.64-1.41,.17-1.85,.52-.67,.79-.67,1.35c0,.52,.21,.92,.62,1.18s1.16,.52,2.24,.76,1.96,.53,2.63,.87,1.17,.74,1.49,1.21,.49,1.05,.49,1.73c0,1.13-.45,2.04-1.36,2.72s-2.08,1.03-3.53,1.03c-1.02,0-1.91-.18-2.7-.54s-1.39-.86-1.83-1.51-.66-1.34-.66-2.09h2.17c.04,.73,.33,1.3,.87,1.73s1.26,.64,2.15,.64c.82,0,1.48-.17,1.97-.5s.74-.78,.74-1.33Z"/><path class="cls-4" d="M895.66,316.44c0-1.24,.24-2.36,.73-3.35s1.17-1.76,2.04-2.3,1.87-.81,2.98-.81c1.73,0,3.12,.6,4.19,1.79s1.6,2.79,1.6,4.77v.15c0,1.23-.24,2.34-.71,3.32s-1.15,1.74-2.03,2.29-1.89,.82-3.03,.82c-1.72,0-3.11-.6-4.18-1.79s-1.6-2.78-1.6-4.75v-.15Zm2.18,.26c0,1.41,.33,2.54,.98,3.39s1.53,1.28,2.62,1.28,1.98-.43,2.62-1.29,.97-2.07,.97-3.63c0-1.39-.33-2.52-.99-3.38s-1.54-1.29-2.63-1.29-1.93,.43-2.59,1.28-.98,2.07-.98,3.66Z"/><path class="cls-4" d="M915.35,312.17c-.33-.05-.68-.08-1.07-.08-1.42,0-2.39,.61-2.89,1.82v9h-2.17v-12.68h2.11l.04,1.46c.71-1.13,1.72-1.7,3.02-1.7,.42,0,.74,.05,.96,.16v2.02Z"/><path class="cls-4" d="M916.12,316.45c0-1.95,.46-3.51,1.38-4.69s2.13-1.78,3.62-1.78,2.66,.51,3.53,1.52v-6.61h2.17v18h-1.99l-.11-1.36c-.87,1.06-2.07,1.59-3.62,1.59s-2.67-.6-3.59-1.8-1.39-2.77-1.39-4.71v-.16Zm2.17,.25c0,1.44,.3,2.56,.89,3.38s1.41,1.22,2.46,1.22c1.38,0,2.38-.62,3.01-1.85v-5.82c-.65-1.2-1.64-1.79-2.99-1.79-1.06,0-1.89,.41-2.48,1.23s-.89,2.04-.89,3.64Z"/><path class="cls-4" d="M934.75,323.13c-1.72,0-3.12-.56-4.2-1.69s-1.62-2.64-1.62-4.53v-.4c0-1.26,.24-2.38,.72-3.37s1.15-1.76,2.02-2.32,1.8-.84,2.81-.84c1.65,0,2.93,.54,3.84,1.63s1.37,2.64,1.37,4.66v.9h-8.59c.03,1.25,.4,2.26,1.1,3.03s1.59,1.15,2.67,1.15c.77,0,1.41-.16,1.95-.47s1-.73,1.39-1.24l1.32,1.03c-1.06,1.63-2.66,2.45-4.78,2.45Zm-.27-11.37c-.88,0-1.61,.32-2.2,.96s-.96,1.53-1.1,2.68h6.35v-.16c-.06-1.1-.36-1.96-.89-2.56s-1.25-.91-2.16-.91Z"/><path class="cls-4" d="M947.63,312.17c-.33-.05-.68-.08-1.07-.08-1.42,0-2.39,.61-2.89,1.82v9h-2.17v-12.68h2.11l.04,1.46c.71-1.13,1.72-1.7,3.02-1.7,.42,0,.74,.05,.96,.16v2.02Z"/><path class="cls-4" d="M956.31,319.54c0-.59-.22-1.04-.66-1.37s-1.21-.6-2.31-.84-1.97-.52-2.61-.84-1.12-.72-1.43-1.17-.46-.99-.46-1.62c0-1.04,.44-1.92,1.32-2.64s2-1.08,3.37-1.08c1.44,0,2.6,.37,3.5,1.11s1.34,1.69,1.34,2.85h-2.18c0-.59-.25-1.11-.76-1.54s-1.14-.64-1.9-.64-1.41,.17-1.85,.52-.67,.79-.67,1.35c0,.52,.21,.92,.62,1.18s1.16,.52,2.24,.76,1.96,.53,2.63,.87,1.17,.74,1.49,1.21,.49,1.05,.49,1.73c0,1.13-.45,2.04-1.36,2.72s-2.08,1.03-3.53,1.03c-1.02,0-1.91-.18-2.7-.54s-1.39-.86-1.83-1.51-.66-1.34-.66-2.09h2.17c.04,.73,.33,1.3,.87,1.73s1.26,.64,2.15,.64c.82,0,1.48-.17,1.97-.5s.74-.78,.74-1.33Z"/></g><path class="cls-4" d="M842.93,265.32c-.17,0-.35-.06-.49-.18l-9.04-7.79c-.31-.27-.35-.74-.08-1.06,.27-.31,.74-.35,1.06-.08l9.04,7.79c.31,.27,.35,.74,.08,1.06-.15,.17-.36,.26-.57,.26Z"/><path class="cls-4" d="M833.89,257.53c-.21,0-.42-.09-.57-.26-.27-.31-.23-.79,.08-1.06l9.04-7.79c.31-.27,.79-.24,1.06,.08,.27,.31,.23,.79-.08,1.06l-9.04,7.79c-.14,.12-.32,.18-.49,.18Z"/><path class="cls-4" d="M861.05,257.53h-27.16c-.41,0-.75-.34-.75-.75s.34-.75,.75-.75h27.16c.41,0,.75,.34,.75,.75s-.34,.75-.75,.75Z"/><path class="cls-4" d="M1021.8,257.53c-.17,0-.35-.06-.49-.18l-9.04-7.79c-.31-.27-.35-.74-.08-1.06,.27-.31,.74-.35,1.06-.08l9.04,7.79c.31,.27,.35,.74,.08,1.06-.15,.17-.36,.26-.57,.26Z"/><path class="cls-4" d="M1012.75,265.32c-.21,0-.42-.09-.57-.26-.27-.31-.23-.79,.08-1.06l9.04-7.79c.31-.27,.79-.24,1.06,.08,.27,.31,.23,.79-.08,1.06l-9.04,7.79c-.14,.12-.32,.18-.49,.18Z"/><path class="cls-4" d="M1020.15,257.53h-27.16c-.41,0-.75-.34-.75-.75s.34-.75,.75-.75h27.16c.41,0,.75,.34,.75,.75s-.34,.75-.75,.75Z"/><g><path class="cls-4" d="M1132.05,405.24c0,1.67-.28,3.13-.84,4.38s-1.36,2.2-2.39,2.85-2.23,.98-3.61,.98-2.54-.33-3.57-.99-1.85-1.6-2.42-2.82-.87-2.64-.88-4.25v-1.23c0-1.64,.29-3.09,.86-4.35s1.38-2.22,2.42-2.89,2.24-1,3.58-1,2.57,.33,3.62,.99,1.85,1.62,2.41,2.87,.84,2.71,.84,4.38v1.08Zm-2.24-1.1c0-2.02-.41-3.58-1.22-4.66s-1.95-1.62-3.41-1.62-2.54,.54-3.36,1.62-1.24,2.58-1.26,4.51v1.25c0,1.96,.41,3.5,1.24,4.62s1.96,1.68,3.4,1.68,2.58-.53,3.38-1.59,1.21-2.58,1.23-4.55v-1.27Z"/><path class="cls-4" d="M1140.52,402.49c-.33-.05-.68-.08-1.07-.08-1.42,0-2.39,.61-2.89,1.82v9h-2.17v-12.68h2.11l.04,1.46c.71-1.13,1.72-1.7,3.02-1.7,.42,0,.74,.05,.96,.16v2.02Z"/><path class="cls-4" d="M1141.29,406.78c0-1.95,.46-3.51,1.38-4.69s2.13-1.78,3.62-1.78,2.66,.51,3.53,1.52v-6.61h2.17v18h-1.99l-.11-1.36c-.87,1.06-2.07,1.59-3.62,1.59s-2.67-.6-3.59-1.8-1.39-2.77-1.39-4.71v-.16Zm2.17,.25c0,1.44,.3,2.56,.89,3.38s1.41,1.22,2.46,1.22c1.38,0,2.38-.62,3.01-1.85v-5.82c-.65-1.2-1.64-1.79-2.99-1.79-1.06,0-1.89,.41-2.48,1.23s-.89,2.04-.89,3.64Z"/><path class="cls-4" d="M1159.92,413.46c-1.72,0-3.12-.56-4.2-1.69s-1.62-2.64-1.62-4.53v-.4c0-1.26,.24-2.38,.72-3.37s1.15-1.76,2.02-2.32c.86-.56,1.8-.84,2.81-.84,1.65,0,2.93,.54,3.84,1.63s1.37,2.64,1.37,4.66v.9h-8.59c.03,1.25,.4,2.26,1.1,3.03,.7,.77,1.59,1.15,2.67,1.15,.77,0,1.41-.16,1.95-.47,.53-.31,1-.73,1.39-1.24l1.32,1.03c-1.06,1.63-2.66,2.45-4.78,2.45Zm-.27-11.37c-.88,0-1.61,.32-2.2,.96-.59,.64-.96,1.53-1.1,2.68h6.35v-.16c-.06-1.1-.36-1.96-.89-2.56-.53-.61-1.25-.91-2.16-.91Z"/><path class="cls-4" d="M1172.8,402.49c-.33-.05-.68-.08-1.07-.08-1.42,0-2.39,.61-2.89,1.82v9h-2.17v-12.68h2.11l.04,1.46c.71-1.13,1.72-1.7,3.02-1.7,.42,0,.74,.05,.96,.16v2.02Z"/><path class="cls-4" d="M1190.08,407.02c0,1.94-.45,3.49-1.34,4.67s-2.09,1.76-3.59,1.76c-1.6,0-2.84-.57-3.71-1.7l-.11,1.46h-1.99v-18h2.17v6.71c.88-1.09,2.08-1.63,3.62-1.63s2.75,.58,3.63,1.75,1.32,2.76,1.32,4.78v.19Zm-2.17-.25c0-1.48-.29-2.62-.86-3.42s-1.39-1.21-2.46-1.21c-1.43,0-2.46,.66-3.08,1.99v5.48c.66,1.33,1.7,1.99,3.11,1.99,1.04,0,1.85-.4,2.43-1.21s.87-2.02,.87-3.63Z"/><path class="cls-4" d="M1191.54,406.77c0-1.24,.24-2.36,.73-3.35s1.17-1.76,2.04-2.3,1.87-.81,2.98-.81c1.73,0,3.12,.6,4.19,1.79s1.6,2.79,1.6,4.77v.15c0,1.23-.24,2.34-.71,3.32s-1.15,1.74-2.03,2.29-1.89,.82-3.03,.82c-1.72,0-3.11-.6-4.18-1.79s-1.6-2.78-1.6-4.75v-.15Zm2.18,.26c0,1.41,.33,2.54,.98,3.39s1.53,1.28,2.62,1.28,1.98-.43,2.62-1.29,.97-2.07,.97-3.63c0-1.39-.33-2.52-.99-3.38s-1.54-1.29-2.63-1.29-1.93,.43-2.59,1.28-.98,2.07-.98,3.66Z"/><path class="cls-4" d="M1204.53,406.77c0-1.24,.24-2.36,.73-3.35s1.17-1.76,2.04-2.3,1.87-.81,2.98-.81c1.73,0,3.12,.6,4.19,1.79s1.6,2.79,1.6,4.77v.15c0,1.23-.24,2.34-.71,3.32s-1.15,1.74-2.03,2.29-1.89,.82-3.03,.82c-1.72,0-3.11-.6-4.18-1.79s-1.6-2.78-1.6-4.75v-.15Zm2.18,.26c0,1.41,.33,2.54,.98,3.39s1.53,1.28,2.62,1.28,1.98-.43,2.62-1.29,.97-2.07,.97-3.63c0-1.39-.33-2.52-.99-3.38s-1.54-1.29-2.63-1.29-1.93,.43-2.59,1.28-.98,2.07-.98,3.66Z"/><path class="cls-4" d="M1221.63,407.35l-1.36,1.42v4.45h-2.17v-18h2.17v10.89l1.16-1.39,3.95-4.17h2.64l-4.93,5.3,5.51,7.38h-2.54l-4.42-5.87Z"/></g><g><path class="cls-4" d="M620.11,396.16l5.58,13.92,5.58-13.92h2.92v17.06h-2.25v-6.64l.21-7.17-5.6,13.82h-1.72l-5.59-13.78,.22,7.14v6.64h-2.25v-17.06h2.91Z"/><path class="cls-4" d="M644.95,413.22c-.12-.25-.23-.7-.3-1.34-1.01,1.05-2.21,1.57-3.61,1.57-1.25,0-2.28-.35-3.08-1.06s-1.2-1.6-1.2-2.69c0-1.32,.5-2.35,1.51-3.08s2.42-1.1,4.24-1.1h2.11v-1c0-.76-.23-1.36-.68-1.81s-1.12-.67-2-.67c-.77,0-1.42,.2-1.95,.59s-.79,.86-.79,1.42h-2.18c0-.63,.22-1.24,.67-1.83s1.06-1.06,1.83-1.4,1.62-.52,2.54-.52c1.46,0,2.61,.37,3.43,1.1s1.26,1.74,1.29,3.02v5.84c0,1.16,.15,2.09,.45,2.78v.19h-2.27Zm-3.6-1.65c.68,0,1.32-.18,1.93-.53s1.05-.81,1.32-1.37v-2.6h-1.7c-2.66,0-3.98,.78-3.98,2.33,0,.68,.23,1.21,.68,1.59s1.04,.57,1.75,.57Z"/><path class="cls-4" d="M655.61,402.49c-.33-.05-.68-.08-1.07-.08-1.42,0-2.39,.61-2.89,1.82v9h-2.17v-12.68h2.11l.04,1.46c.71-1.13,1.72-1.7,3.02-1.7,.42,0,.74,.05,.96,.16v2.02Z"/><path class="cls-4" d="M660.44,407.35l-1.36,1.42v4.45h-2.17v-18h2.17v10.89l1.16-1.39,3.95-4.17h2.64l-4.93,5.3,5.51,7.38h-2.54l-4.42-5.87Z"/><path class="cls-4" d="M673.63,413.46c-1.72,0-3.12-.56-4.2-1.69s-1.62-2.64-1.62-4.53v-.4c0-1.26,.24-2.38,.72-3.37s1.15-1.76,2.02-2.32,1.8-.84,2.81-.84c1.65,0,2.93,.54,3.84,1.63s1.37,2.64,1.37,4.66v.9h-8.59c.03,1.25,.4,2.26,1.1,3.03s1.59,1.15,2.67,1.15c.77,0,1.41-.16,1.95-.47s1-.73,1.39-1.24l1.32,1.03c-1.06,1.63-2.66,2.45-4.78,2.45Zm-.27-11.37c-.88,0-1.61,.32-2.2,.96s-.96,1.53-1.1,2.68h6.35v-.16c-.06-1.1-.36-1.96-.89-2.56s-1.25-.91-2.16-.91Z"/><path class="cls-4" d="M683.33,397.47v3.07h2.37v1.68h-2.37v7.87c0,.51,.11,.89,.32,1.14,.21,.25,.57,.38,1.08,.38,.25,0,.59-.05,1.03-.14v1.75c-.57,.15-1.12,.23-1.66,.23-.97,0-1.7-.29-2.19-.88s-.74-1.42-.74-2.5v-7.86h-2.31v-1.68h2.31v-3.07h2.17Z"/><path class="cls-4" d="M700.61,413.22c-.12-.25-.23-.7-.3-1.34-1.01,1.05-2.21,1.57-3.61,1.57-1.25,0-2.28-.35-3.08-1.06s-1.2-1.6-1.2-2.69c0-1.32,.5-2.35,1.51-3.08s2.42-1.1,4.24-1.1h2.11v-1c0-.76-.23-1.36-.68-1.81s-1.12-.67-2-.67c-.77,0-1.42,.2-1.95,.59s-.79,.86-.79,1.42h-2.18c0-.63,.22-1.24,.67-1.83s1.06-1.06,1.83-1.4,1.62-.52,2.54-.52c1.46,0,2.61,.37,3.43,1.1s1.26,1.74,1.29,3.02v5.84c0,1.16,.15,2.09,.45,2.78v.19h-2.27Zm-3.6-1.65c.68,0,1.32-.18,1.93-.53s1.05-.81,1.32-1.37v-2.6h-1.7c-2.66,0-3.98,.78-3.98,2.33,0,.68,.23,1.21,.68,1.59s1.04,.57,1.75,.57Z"/><path class="cls-4" d="M710.22,411.69c.77,0,1.45-.23,2.03-.7s.9-1.05,.96-1.76h2.05c-.04,.73-.29,1.42-.75,2.07s-1.08,1.18-1.85,1.57-1.58,.59-2.44,.59c-1.73,0-3.1-.58-4.12-1.73s-1.53-2.73-1.53-4.73v-.36c0-1.23,.23-2.33,.68-3.29s1.1-1.71,1.95-2.24,1.85-.8,3.01-.8c1.42,0,2.6,.43,3.54,1.28s1.44,1.96,1.51,3.32h-2.05c-.06-.82-.37-1.49-.93-2.02s-1.25-.79-2.07-.79c-1.1,0-1.96,.4-2.56,1.19s-.91,1.94-.91,3.44v.41c0,1.46,.3,2.59,.9,3.38s1.46,1.18,2.58,1.18Z"/><path class="cls-4" d="M722.09,411.69c.77,0,1.45-.23,2.03-.7s.9-1.05,.96-1.76h2.05c-.04,.73-.29,1.42-.75,2.07s-1.08,1.18-1.85,1.57-1.58,.59-2.44,.59c-1.73,0-3.1-.58-4.12-1.73s-1.53-2.73-1.53-4.73v-.36c0-1.23,.23-2.33,.68-3.29s1.1-1.71,1.95-2.24,1.85-.8,3.01-.8c1.42,0,2.6,.43,3.54,1.28s1.44,1.96,1.51,3.32h-2.05c-.06-.82-.37-1.49-.93-2.02s-1.25-.79-2.07-.79c-1.1,0-1.96,.4-2.56,1.19s-.91,1.94-.91,3.44v.41c0,1.46,.3,2.59,.9,3.38s1.46,1.18,2.58,1.18Z"/><path class="cls-4" d="M728.3,406.77c0-1.24,.24-2.36,.73-3.35s1.17-1.76,2.04-2.3,1.87-.81,2.98-.81c1.73,0,3.12,.6,4.19,1.79s1.6,2.79,1.6,4.77v.15c0,1.23-.24,2.34-.71,3.32s-1.15,1.74-2.03,2.29-1.89,.82-3.03,.82c-1.72,0-3.11-.6-4.18-1.79s-1.6-2.78-1.6-4.75v-.15Zm2.18,.26c0,1.41,.33,2.54,.98,3.39s1.53,1.28,2.62,1.28,1.98-.43,2.62-1.29,.97-2.07,.97-3.63c0-1.39-.33-2.52-.99-3.38s-1.54-1.29-2.63-1.29-1.93,.43-2.59,1.28-.98,2.07-.98,3.66Z"/><path class="cls-4" d="M749.69,411.97c-.84,.99-2.08,1.49-3.71,1.49-1.35,0-2.38-.39-3.09-1.18s-1.06-1.95-1.07-3.49v-8.25h2.17v8.19c0,1.92,.78,2.88,2.34,2.88,1.66,0,2.76-.62,3.3-1.85v-9.22h2.17v12.68h-2.06l-.05-1.25Z"/><path class="cls-4" d="M756.45,400.54l.07,1.59c.97-1.22,2.23-1.83,3.8-1.83,2.68,0,4.03,1.51,4.05,4.54v8.38h-2.17v-8.39c0-.91-.22-1.59-.63-2.03s-1.05-.66-1.92-.66c-.7,0-1.32,.19-1.85,.56s-.95,.87-1.24,1.48v9.04h-2.17v-12.68h2.05Z"/><path class="cls-4" d="M769.88,397.47v3.07h2.37v1.68h-2.37v7.87c0,.51,.11,.89,.32,1.14,.21,.25,.57,.38,1.08,.38,.25,0,.59-.05,1.03-.14v1.75c-.57,.15-1.12,.23-1.66,.23-.97,0-1.7-.29-2.19-.88s-.74-1.42-.74-2.5v-7.86h-2.31v-1.68h2.31v-3.07h2.17Z"/></g><g><path class="cls-4" d="M1064.1,340.59c-.28,0-.5-.22-.5-.5V186.73c0-.28,.22-.5,.5-.5s.5,.22,.5,.5v153.36c0,.28-.22,.5-.5,.5Z"/><path class="cls-4" d="M1172.78,340.59c-.28,0-.5-.22-.5-.5V186.73c0-.28,.22-.5,.5-.5s.5,.22,.5,.5v153.36c0,.28-.22,.5-.5,.5Z"/><path class="cls-4" d="M1281.46,340.59c-.28,0-.5-.22-.5-.5V186.73c0-.28,.22-.5,.5-.5s.5,.22,.5,.5v153.36c0,.28-.22,.5-.5,.5Z"/><path class="cls-4" d="M1064.1,187.23c-.16,0-.32-.08-.42-.22-.15-.23-.09-.54,.14-.69,8.84-5.88,27.42-15.83,52.47-16.37,27.08-.57,47.19,10.01,56.76,16.37,.23,.15,.29,.46,.14,.69-.15,.23-.46,.29-.69,.14-9.48-6.3-29.41-16.78-56.19-16.2-24.79,.53-43.18,10.38-51.93,16.2-.09,.06-.18,.08-.28,.08Z"/><path class="cls-4" d="M1172.78,187.23c-.16,0-.32-.08-.42-.22-.15-.23-.09-.54,.14-.69,8.84-5.88,27.42-15.83,52.47-16.37,27.08-.57,47.19,10.01,56.76,16.37,.23,.15,.29,.46,.14,.69-.15,.23-.46,.29-.69,.14-9.48-6.3-29.43-16.78-56.19-16.2-24.79,.53-43.18,10.38-51.93,16.2-.09,.06-.18,.08-.28,.08Z"/><path class="cls-4" d="M1064.1,340.59c-.16,0-.32-.08-.42-.22-.15-.23-.09-.54,.14-.69,8.84-5.88,27.42-15.83,52.47-16.37,27.06-.58,47.19,10.01,56.76,16.37,.23,.15,.29,.46,.14,.69-.15,.23-.46,.29-.69,.14-9.47-6.3-29.38-16.77-56.19-16.2-24.79,.53-43.18,10.38-51.93,16.2-.09,.06-.18,.08-.28,.08Z"/><path class="cls-4" d="M1172.78,340.59c-.16,0-.32-.08-.42-.22-.15-.23-.09-.54,.14-.69,8.84-5.88,27.42-15.83,52.47-16.37,27.07-.58,47.19,10.01,56.76,16.37,.23,.15,.29,.46,.14,.69-.15,.23-.46,.29-.69,.14-9.47-6.3-29.36-16.77-56.19-16.2-24.79,.53-43.18,10.38-51.93,16.2-.09,.06-.18,.08-.28,.08Z"/><path class="cls-3" d="M1172.78,186.73c6.91-4.6,25.58-15.71,52.2-16.28,29.19-.62,49.76,11.82,56.48,16.28v153.36c-6.72-4.46-27.29-16.91-56.48-16.28-26.62,.57-45.28,11.68-52.2,16.28V186.73c-6.72-4.46-27.29-16.91-56.48-16.28-26.62,.57-45.28,11.68-52.2,16.28v153.36c6.91-4.6,25.58-15.71,52.2-16.28,29.19-.62,49.76,11.82,56.48,16.28"/></g></g></svg>