<?xml version="1.0" encoding="UTF-8"?><svg id="Layer_2" xmlns="http://www.w3.org/2000/svg" xmlns:xlink="http://www.w3.org/1999/xlink" viewBox="0 0 1365.52 490.6"><defs><style>.cls-1,.cls-2,.cls-3,.cls-4,.cls-5,.cls-6{fill:none;}.cls-7{opacity:.12;}.cls-7,.cls-8,.cls-9{fill:#fff;}.cls-8{opacity:.06;}.cls-10{fill:url(#linear-gradient);}.cls-11{opacity:.1;}.cls-12{fill:#1a1e22;stroke-width:2px;}.cls-12,.cls-2,.cls-3,.cls-4,.cls-6{stroke:#fff;}.cls-12,.cls-2,.cls-3,.cls-5,.cls-6{stroke-miterlimit:10;}.cls-2,.cls-4{stroke-linecap:round;}.cls-9{font-family:Jost-SemiBold, Jost;font-size:24px;letter-spacing:-.03em;}.cls-4{stroke-linejoin:round;stroke-width:1.5px;}.cls-5{stroke:#863dd2;}.cls-5,.cls-6{stroke-width:.5px;}</style><linearGradient id="linear-gradient" x1="-11638.4" y1="6061.66" x2="-11637.3" y2="6171.07" gradientTransform="translate(-11441.65 6311.26) rotate(-180)" gradientUnits="userSpaceOnUse"><stop offset="0" stop-color="#fff" stop-opacity=".3"/><stop offset=".77" stop-color="#e1e1eb" stop-opacity="0"/><stop offset="1" stop-color="#e0e0eb" stop-opacity="0"/></linearGradient></defs><g id="Layer_1-2"><rect class="cls-12" x="1" y="1" width="1363.52" height="488.6"/><ellipse class="cls-3" cx="196.59" cy="317.3" rx="108.67" ry="32.35"/><path class="cls-10" d="M87.92,149.53h217.34v165.11c0,19.3-28.02,22.89-30.63,25.11l-23.92,5.54c-8.69,1.4-19.59,2.82-32.21,3.63-19.7,1.27-34.93,.53-41.18,.15-19.57-1.19-33.2-3.83-46.13-6.34-2.48-.48-9.97-1.96-19.31-5.38-19.13-7.01-22.24-13.43-23.19-16.32-.74-2.22-.81-4.2-.77-5.42V149.53Z"/><ellipse class="cls-3" cx="196.59" cy="181.88" rx="108.67" ry="32.35"/><text class="cls-9" transform="translate(97.34 413.68)"><tspan x="0" y="0">Borrow / lend pool</tspan></text><text class="cls-9" transform="translate(610.33 71.21)"><tspan x="0" y="0">Margin Trading</tspan></text><rect class="cls-7" x="588.93" y="155.44" width="201.2" height="201.2"/><rect class="cls-7" x="588.93" y="155.44" width="201.2" height="54.88"/><g><rect class="cls-3" x="588.93" y="155.44" width="201.2" height="201.2"/><rect class="cls-3" x="588.93" y="155.44" width="201.2" height="54.88"/><circle class="cls-3" cx="615.62" cy="185.37" r="9.34"/></g><circle class="cls-6" cx="689.53" cy="282.05" r="44.69"/><g class="cls-11"><circle class="cls-1" cx="689.53" cy="271.77" r="10.28"/><path class="cls-5" d="M675.48,284.62h28.09c.4,0,.73,.33,.73,.73v12.01c0,2.37-1.92,4.29-4.29,4.29h-20.97c-2.37,0-4.29-1.92-4.29-4.29v-12.01c0-.4,.33-.73,.73-.73Z" transform="translate(1379.05 586.26) rotate(-180)"/></g><g><circle class="cls-6" cx="689.53" cy="271.77" r="10.28"/><path class="cls-6" d="M675.48,284.62h28.09c.4,0,.73,.33,.73,.73v12.01c0,2.37-1.92,4.29-4.29,4.29h-20.97c-2.37,0-4.29-1.92-4.29-4.29v-12.01c0-.4,.33-.73,.73-.73Z" transform="translate(1379.05 586.26) rotate(-180)"/></g><g><line class="cls-4" x1="364.35" y1="263.04" x2="355.3" y2="255.26"/><line class="cls-4" x1="355.3" y1="255.26" x2="364.35" y2="247.47"/><g><line class="cls-4" x1="382.46" y1="255.26" x2="355.3" y2="255.26"/><line class="cls-4" x1="534.17" y1="247.47" x2="543.21" y2="255.26"/><line class="cls-4" x1="543.21" y1="255.26" x2="534.17" y2="263.04"/><text class="cls-9" transform="translate(397.87 262.66)"><tspan x="0" y="0">Custodian</tspan><tspan x="-55.98" y="28.8">deposits / withdraws</tspan></text><line class="cls-4" x1="541.56" y1="255.26" x2="514.4" y2="255.26"/></g></g><g><text class="cls-9" transform="translate(875.71 265.3)"><tspan x="0" y="0">Custodian</tspan><tspan x="-31.6" y="28.8">places / cancels</tspan></text><line class="cls-4" x1="842.94" y1="264.57" x2="833.89" y2="256.78"/><line class="cls-4" x1="833.89" y1="256.78" x2="842.94" y2="249"/><line class="cls-4" x1="861.05" y1="256.78" x2="833.89" y2="256.78"/><line class="cls-4" x1="1012.76" y1="249" x2="1021.8" y2="256.78"/><line class="cls-4" x1="1021.8" y1="256.78" x2="1012.76" y2="264.57"/><line class="cls-4" x1="1020.15" y1="256.78" x2="992.99" y2="256.78"/></g><text class="cls-9" transform="translate(1111.88 413.22)"><tspan x="0" y="0">Order book</tspan></text><text class="cls-9" transform="translate(615.34 413.22)"><tspan x="0" y="0">Market account</tspan></text><g><line class="cls-2" x1="1064.1" y1="186.73" x2="1064.1" y2="340.09"/><line class="cls-2" x1="1172.78" y1="186.73" x2="1172.78" y2="340.09"/><line class="cls-2" x1="1281.46" y1="186.73" x2="1281.46" y2="340.09"/><path class="cls-2" d="M1064.1,186.73c6.91-4.6,25.58-15.71,52.2-16.28,29.19-.62,49.76,11.82,56.48,16.28"/><path class="cls-2" d="M1172.78,186.73c6.91-4.6,25.58-15.71,52.2-16.28,29.19-.62,49.76,11.82,56.48,16.28"/><path class="cls-2" d="M1064.1,340.09c6.91-4.6,25.58-15.71,52.2-16.28,29.19-.62,49.76,11.82,56.48,16.28"/><path class="cls-2" d="M1172.78,340.09c6.91-4.6,25.58-15.71,52.2-16.28,29.19-.62,49.76,11.82,56.48,16.28"/><path class="cls-8" d="M1172.78,186.73c6.91-4.6,25.58-15.71,52.2-16.28,29.19-.62,49.76,11.82,56.48,16.28v153.36c-6.72-4.46-27.29-16.91-56.48-16.28-26.62,.57-45.28,11.68-52.2,16.28V186.73c-6.72-4.46-27.29-16.91-56.48-16.28-26.62,.57-45.28,11.68-52.2,16.28v153.36c6.91-4.6,25.58-15.71,52.2-16.28,29.19-.62,49.76,11.82,56.48,16.28"/></g></g></svg>