<svg width="436" height="70" viewBox="0 0 436 70" fill="none" xmlns="http://www.w3.org/2000/svg">
<path d="M105.725 69.29C86.29 69.29 72.0166 54.2368 72.0166 34.3862C72.0166 14.5357 86.29 0.897949 105.725 0.897949H142.273C142.79 0.897949 143.214 1.32174 143.214 1.83877V17.2649C143.214 17.7819 142.79 18.2057 142.273 18.2057H105.725C96.1475 18.2057 89.0532 25.4526 89.0532 35.2338C89.0532 45.015 95.961 51.8889 105.725 51.8889H142.273C142.79 51.8889 143.214 52.3127 143.214 52.8298V68.3576C143.214 68.8746 142.79 69.2984 142.273 69.2984H105.725V69.29Z" fill="white"/>
<path d="M185.646 69.2885C165.795 69.2885 151.217 54.2353 151.217 34.3848C151.217 14.5342 165.795 0.896484 185.646 0.896484H202.86C223.279 0.896484 237.383 14.5342 237.383 34.3848C237.383 54.2353 222.897 69.2885 202.86 69.2885H185.646ZM202.86 51.8875C213.023 51.8875 220.075 44.9288 220.075 35.2323C220.075 25.5359 212.921 18.2043 202.86 18.2043H185.646C175.865 18.2043 168.618 25.4512 168.618 35.2323C168.618 45.0135 175.678 51.8875 185.646 51.8875H202.86Z" fill="white"/>
<path d="M261.496 30.5796V68.2974C261.496 68.8144 261.072 69.2382 260.555 69.2382H246.324C245.807 69.2382 245.383 68.8144 245.383 68.2974V10.8223C245.383 4.68577 248.68 0.846191 253.808 0.846191C256.283 0.846191 258.021 1.66835 260.309 3.77885L299.019 39.4115C299.621 39.9625 300.595 39.5387 300.595 38.7165V1.88025C300.595 1.36322 301.019 0.939426 301.536 0.939426H315.767C316.284 0.939426 316.708 1.36322 316.708 1.88025V59.2621C316.708 65.3986 313.318 69.2382 308.283 69.2382C305.808 69.2382 303.977 68.416 301.782 66.3055L263.081 29.8931C262.479 29.3252 261.496 29.7575 261.496 30.5796Z" fill="white"/>
<path d="M324.708 68.2724V1.81289C324.708 1.28739 325.132 0.87207 325.649 0.87207H341.152C341.677 0.87207 342.093 1.29587 342.093 1.81289V68.2724C342.093 68.7979 341.669 69.2132 341.152 69.2132H325.649C325.124 69.2132 324.708 68.7894 324.708 68.2724Z" fill="white"/>
<path d="M400.872 6.38998C398.957 3.05895 396.617 0.914551 393.235 0.914551C389.853 0.914551 387.421 3.05048 385.514 6.38998L350.898 67.8572C350.542 68.4844 351 69.2642 351.72 69.2642H367.774C368.121 69.2642 368.435 69.0777 368.596 68.7726L376.284 54.8128C376.453 54.5161 376.767 54.3212 377.106 54.3212H408.212C408.551 54.3212 408.873 54.5076 409.034 54.8043L416.739 68.7641C416.909 69.0608 417.222 69.2472 417.561 69.2472H434.657C435.377 69.2472 435.835 68.4674 435.479 67.8402L400.872 6.38998ZM384.403 40.0562L391.794 26.6219C392.15 25.9693 393.083 25.9693 393.447 26.6219L400.872 40.0562C401.22 40.6835 400.762 41.4548 400.05 41.4548H385.234C384.514 41.4548 384.064 40.6835 384.412 40.0562H384.403Z" fill="white"/>
<path d="M60.3619 40.7431H29.7979C29.2808 40.7431 28.857 40.3193 28.857 39.8023V30.3771C28.857 29.8601 29.2808 29.4363 29.7979 29.4363H60.3619C60.879 29.4363 61.3028 29.8601 61.3028 30.3771V39.8023C61.3028 40.3193 60.879 40.7431 60.3619 40.7431ZM0.869629 68.3407V1.83877C0.869629 1.31327 1.29342 0.897949 1.81045 0.897949H62.8793C63.3963 0.897949 63.8201 1.32174 63.8201 1.83877V17.2649C63.8201 17.7819 63.3963 18.2057 62.8793 18.2057H19.0759C18.5588 18.2057 18.135 18.6295 18.135 19.1466V50.9396C18.135 51.4567 18.5588 51.8805 19.0759 51.8805H63.0742C63.5913 51.8805 64.0151 52.3043 64.0151 52.8213V68.3407C64.0151 68.8577 63.5913 69.2815 63.0742 69.2815H1.81045C1.29342 69.2815 0.869629 68.8577 0.869629 68.3407Z" fill="white"/>
</svg>
